<svg height="64" viewBox="0 0 64 64" width="64" xmlns="http://www.w3.org/2000/svg"><path d="m25.53 9.16a22.76 22.76 0 0 1 3 1.62 9.79 9.79 0 0 1 3.23 4 .86.86 0 0 0 1-.05c.13-.18-.14-1.66-2.47-4.13a7.41 7.41 0 0 0 -5.29-2.33c-.32 0 .26.73.53.89zm29.93 14.14c-2.43-6.15-6.55-8.53-9.78-9s-9 1.66-9 1.66a21.22 21.22 0 0 1 2.2-3c2.12-2.58 4.64-4.47 5.12-5.55s-.9-3-1.48-3.36-1.12-.49-3.32 1.08a12.89 12.89 0 0 0 -3.57 4.57 12 12 0 0 0 -1.53-4.13c-1.1-1.57-2.96-2.64-7.76-3.27a48.56 48.56 0 0 0 -10.55-.14c-.94.14-1.34.54-1.16.81s.63.72 3 3.59a9.48 9.48 0 0 1 2.25 5.92 14 14 0 0 0 -7.67 3.68 21.53 21.53 0 0 0 -5.61 11.84 39.38 39.38 0 0 0 2 17.54c2.03 5.84 6.34 11.54 10.78 14.46s7.81 1.84 9.7 1.66 4.57-1.34 6.86-1.52 5.25 1 7.36.85 5-2.56 7.22-5.56a33.36 33.36 0 0 0 6.24-12.88 32.4 32.4 0 0 0 -1.3-19.25zm-19.61-9.87c.09-1.22.09-2.7.09-2.7a22.6 22.6 0 0 1 2.65-3.63c1.52-1.66 2.33-2.1 2.73-1.88a3.62 3.62 0 0 1 1 2.51c-.23.45-3 3.27-5.21 5.92s-2.11 3.23-2.78 3.5-.94.27-1.12.13-.27-.58 0-.67a2 2 0 0 0 1.26-.27 5.07 5.07 0 0 0 1.38-2.91zm-18-8.62c-.58-.63-1.21-1.43-1.21-1.43a53.42 53.42 0 0 1 10 0c3.41.4 7.18 1.75 7.89 5.51s-.27 6.38-.62 6.56-1.26 0-2.74.17a28 28 0 0 1 -5.88.45c-1.57-.22-3.27-1-4.44-4.89s-2.36-5.74-2.95-6.37zm34.29 30.87a21.42 21.42 0 0 0 2.91 1c0 .59-.07 1.16-.13 1.7 0 .21-.07.43-.1.64a19.13 19.13 0 0 0 -3.27-1.32c-.4 0-.8.59-.4 1a31.23 31.23 0 0 0 3.42 1.65c-.14.58-.3 1.17-.48 1.76a18.75 18.75 0 0 0 -3.21-1.66c-.31-.05-1 .62-.9 1a20.42 20.42 0 0 0 3.7 1.94c-.2.56-.4 1.12-.63 1.68a18.94 18.94 0 0 0 -3.43-2c-.44 0-1 .59-1 .81a37.54 37.54 0 0 0 3.86 2.45c-.19.45-.39.88-.59 1.31a22.94 22.94 0 0 0 -4.13-2.23c-.44 0-.94.62-.85.89a41.42 41.42 0 0 0 4.4 2.52q-.39.78-.78 1.5c-1-.6-4-2-4-2s-.9.58-.67.94a32.34 32.34 0 0 0 4 2.28q-.54.93-1.05 1.68a50.55 50.55 0 0 0 -4.32-2.84 1.45 1.45 0 0 0 -.67 1 42.87 42.87 0 0 0 4.09 3.11c-.37.49-.73.92-1.08 1.3a29.49 29.49 0 0 0 -4.27-3.51c-.36 0-.81.67-.81.89a51.7 51.7 0 0 0 4.2 3.5 6.77 6.77 0 0 1 -1.27.86 33.58 33.58 0 0 0 -4.45-3c-.32-.05-.63.62-.59 1a18.16 18.16 0 0 0 3.22 2.47 7 7 0 0 1 -1.54.06c-3-.18-3.45-1.21-5.69-1s-5.07 2.06-7.14 2.33a11.36 11.36 0 0 1 -8.66-2.06c-3.32-2.47-8.52-10.05-10-16.47s-.5-14.29 1.17-18.1 5.74-7.94 10.09-7.76c.48 0 1.26 2 4.22 2.15s4.17 0 4.53.27.94 2.74 3.14 2.78 1.7-1.17 5.56-2.38 8.75-1.66 12.16 2.29c2.24 2.59 3.64 7.29 4.15 11.74a8 8 0 0 0 -2.31-.3.86.86 0 0 0 -.18 1 8.53 8.53 0 0 0 2.64.84c0 .66.07 1.3.07 1.92a14.48 14.48 0 0 0 -2.62-.69c-.4.03-.45.88-.31 1.06zm-31.95-16.11c-1.7.09-2.83.9-4.22 2.92a8.69 8.69 0 0 0 -1.07 5.07.87.87 0 0 0 .71-.09c.36-.22.09-2 1.8-4.71s3.36-2.11 3.72-2.38-.62-.82-.94-.81zm13.33 5.12c1.84-.09 2.06-1.08 2-1.21s-1.66.09-3.77-.09a2.57 2.57 0 0 1 -2.51-1.62.57.57 0 0 0 -.94.14c-.14.27-.59 1.07.94 2s2.44.87 4.28.78zm-1.52 29.48c-1.53.44-2 2.19-2.07 2.28s.5.63.86.54.13-.67 1.39-1.61 3.5-.41 3.5-.41.44-.27.4-.58-2.61-.67-4.08-.22z" fill="#1d1d1b"/></svg>