<svg height="64" viewBox="0 0 64 64" width="64" xmlns="http://www.w3.org/2000/svg"><path d="m62 24c-.25-4.09-4.67-4.67-6-5.05s-.77-1.86-.58-2.69 4.23-3.52 4.93-4.29-.49-1.97-1.35-2.39-1.22.19-2.43 1.6-4.16 3.65-4.42 6.08 1.41 3.58 3.59 4.8 3.45 2.24 2.68 4.61-4.28 3.64-4.28 3.64a2.69 2.69 0 0 0 -1.64-1.31c-1-.19-.9.71-1.73.84s-.71-1.41-2.24-1.41-2.53 1.69-3.14 1.57-.25-7.16-.25-12.15-2.24-5.06-2.24-5.06.06-.19.25-1.15 1.22-.26 2.56-2.94-1-5-4-5.32-4.68 2.37-5.83 2.69-2.13-1.42-4.44-1.67-5.69 1.6-7.68 3.84-1.92 6.33-1.92 6.33a8.86 8.86 0 0 0 -2.56 1.6c-.38.64.58 4.93 1.22 9.09s.32 4.61-1.6 4.93-3.78-1.19-5.31-1.67-3.71.71-3.71.71c-4.29-.77-8.07 4.67-7.94 9.28s4.23 7 4.87 8.44-1.73 3.91-2 4.42 1.73 2.49 2.31 2.43 1.92-1.47 2.81-4.86-.38-4.87-2.37-6.59-2.56-2.56-2.23-5.19 3.78-4.54 3.78-4.54a10 10 0 0 1 .45 1.15 19.4 19.4 0 0 1 3.07 7.81 33.44 33.44 0 0 1 .51 11.42c-.19 3-1.41 6.59 2.56 7.43s6-1.22 7.62-1.6 2.17.44 4.6.76 3.14-.25 5.83-.89 2.11.19 4.54.77 3-.39 4.54-1 4.8.76 6.91.32 2.63-.45 3.33-2.24 1.22-21.19 1.41-21.76 2.62-2.31 4.54-4.1 3.27-2.55 2.98-6.69zm-52.76 7.57c.08.34-2.48.3-3.76 3s-2.47 5-.34 7 4.57 2.73 4.18 5.88-2.13 5-2.34 5-.86-.85-.69-1.1 3-3 1.54-5.17-3.83-3.6-4.57-5.56a8.51 8.51 0 0 1 1.58-7.77c2-2.56 3.29-3.07 4.7-2.77a4.87 4.87 0 0 0 -.3 1.49zm19-25.08c5.12-1.71 5 1 7.73.42s3.37-2.64 5.84-2.47 4.1 2.05 3.07 3.67-2.43 2.26-2.69 3.33l-.29 1.23h-.43a2.79 2.79 0 0 1 1.11-2.9c1.62-1.36 2-2.9.89-3.92s-2.77-.43-4.39 1.57-2.77 2.48-4.14 2-1.62-1.88-3.79-2.09-4.46 2.06-5.15 3.81a6.77 6.77 0 0 0 -.64 2.3s-2 .73-2.26.56c0 0 .05-5.81 5.16-7.51zm12.76 4.01c-.22.85-.39 2-.39 2a28 28 0 0 0 -7.38-.13c-4.05.47-6.57.81-6.57.81s.22-3.28 2.69-4.35 3.31.17 4.65 1.03 2.18 1.11 3.71.3 2.48-3.2 4-3.67 1.37.85 1.15 1.41-1.67 1.75-1.86 2.6zm11.05 30.25c-.19 5.11 0 15.16-.83 15.67a5.71 5.71 0 0 1 -2.72.29c-.42-1-2.58-4.52-2.69-4.61s-.86.26-.93.36 1.68 3.08 2.25 4.06l-.85-.1a22 22 0 0 0 -2.1-3.68c-.29-.16-1.19.26-1.22.36s1.35 2.28 1.94 3.22h-.55-.24a20 20 0 0 0 -1.79-3.05c-.22-.13-1 0-1.09.19a34.26 34.26 0 0 0 1.77 3.07l-.76.19a31.4 31.4 0 0 0 -1.9-3.4 1.92 1.92 0 0 0 -.93.32 36.37 36.37 0 0 0 1.74 3.36 6.23 6.23 0 0 1 -1.54.28c-1.19 0-2.94-1.67-5.07-1.15s-3.8 1.92-6.53 1.32-3-1.2-4.78-.77-3.84 1.58-6 1.58-2.27-1-2-3.63 1.49-6.78-.09-12.11a82.44 82.44 0 0 0 -3.66-9.77c-.3-.81-.43-2.18.08-2.26.66-.11 3.07 1.6 5.82 1.92s5.38.51 5.89-2.69-2.19-12.14-1.75-12.52 4.16-2.31 11.14-2.56 10.24-.71 10.43 1.47-.64 13.76.32 14.78 1.66 1.47 2.75 1.09 1.34-1.28 2.43-1 .83 1.28 1.54 1.41 1.66-.57 2.24-.25-.13 3.49-.32 8.61zm4.67-9.26c-1.88 1.62-2.22 1.66-2.22 1.66s0-1.19-.08-1.83c0 0 4.26-1.54 5-4.57s-.73-4.52-2.69-5.42-4.27-1.83-3.63-4 3.42-4.3 4.27-5.41.85-1.37 1.11-1.37 1.11.85.85 1.24-3.79 2.39-4.56 3.88-.64 3.29.47 4 5.12.47 5.71 4.14-2.35 6.06-4.23 7.68zm-23.51-11.31a22.33 22.33 0 0 0 -6.74 1.58 38.13 38.13 0 0 0 .47 7.13c.3.64 1.71 1.4 3.46 2s3.28 1 4.35.77a11 11 0 0 0 4-2.56 71.71 71.71 0 0 0 0-8.92c-.16-.25-1.36-.38-5.54 0zm4.48 8.36c-.21.18-2.17 1.92-3.88 1.84a18.79 18.79 0 0 1 -5.42-1.88c-.34-.21-.68-5.89-.59-6.18s1.74-.73 5.54-1.07 4.35-.21 4.44 0a59.77 59.77 0 0 1 -.09 7.29zm-7.91-3.47a4.52 4.52 0 0 0 -.07-2.07c-.09-.13-.81-.15-.76.13a11.43 11.43 0 0 0 .05 2.07c.17.32.55.09.78-.13zm-.58 1.18c-.09.26-.16 1.73 0 1.83a.82.82 0 0 0 .74-.16c.19-.16 0-1.54-.06-1.64s-.61-.21-.68-.03zm6.8-3.61a15.35 15.35 0 0 0 0 2.59c0 .44.84.09 1.06 0a6.89 6.89 0 0 0 0-2.56 1.05 1.05 0 0 0 -1.06-.03zm0 3.55a8.72 8.72 0 0 0 .09 2.27 1.75 1.75 0 0 0 .91-.46 5.39 5.39 0 0 0 0-1.92 1.65 1.65 0 0 0 -1 .11zm-18.92 11.71c.22-.35-.84-3.23-1.09-3.33s-1 .17-.9.38.91 3.05 1.06 3.27.7.03.93-.32zm1.12 6.72a14.29 14.29 0 0 0 -.45-4c-.23-.22-1 0-1 0 0 .23.29 4 .41 4.19s.84 0 1.04-.19zm-.64 2.38a47.45 47.45 0 0 0 -.1 4.76c0 .16.86-.06 1.06-.16a21.87 21.87 0 0 0 -.13-4.54c-.13-.24-.83-.06-.83-.06zm-.39 6.75a12.39 12.39 0 0 0 -.09 2.88c.12.25.64 0 .86-.16a10.36 10.36 0 0 0 .22-2.63c0-.23-.91-.18-.99-.07zm32.7-20.22a27.37 27.37 0 0 0 -.09 4.6c.12.2.76.16 1.08 0s.29-4.39.26-4.58-1.18-.15-1.25 0zm-.25 6.14c-.1.22 0 4.67 0 4.67a3.84 3.84 0 0 0 1.05 0 17.89 17.89 0 0 0 .13-4.58 1.71 1.71 0 0 0 -1.18-.07zm0 6a21.18 21.18 0 0 0 -.13 4.74 1.88 1.88 0 0 0 1.18 0c.07-.12.13-4.41.07-4.6s-1.05-.29-1.12-.17zm-.29 6.53a7 7 0 0 0 0 2.46 1.66 1.66 0 0 0 1.12 0 8.22 8.22 0 0 0 .09-2.4c-.06-.26-1.09-.19-1.21-.09z" fill="#1d1d1b"/></svg>