<svg height="64" viewBox="0 0 64 64" width="64" xmlns="http://www.w3.org/2000/svg"><path d="m58.16 47.82a91.85 91.85 0 0 0 -2.25-14.29c-1.51-6.77-3.44-17.07-3.44-17.07s.38-.56.66-1 .52-1.08.24-5.78-2.73-7.32-3.37-7.56-9-.37-15.42.43-15.44 2.86-15.91 3.19-3.29 3.44-5.59 8.8a96 96 0 0 0 -5.93 22.66c-.37 2.77-1.46 12-1.31 13.49s.75 1.88 4.18 4.09 6.68 6.3 8 6.91 3.34.47 6.53-.47 9-2.63 15.33-4.14a87.87 87.87 0 0 1 10.43-1.88c1.46-.23 6.58-2.39 7-2.91s.95-2.02.85-4.47zm-35.49-40.82c.14-.29 8.74-2.21 15.75-2.73s10-.19 10.67.33 1.46 3.4 1.91 5.77a3.2 3.2 0 0 0 -.6-.38 1.21 1.21 0 0 0 -1.09.52 10.31 10.31 0 0 0 1.91 1.49 9.28 9.28 0 0 1 0 1.39 16.85 16.85 0 0 0 -2.83-2.35c-.42-.05-.84.61-.75.8s2.26 1.86 3.36 2.78a1.69 1.69 0 0 1 -.86 1c.31-.29-3.81-3.28-4.13-3.33s-.76.47-.57.75 2.43 2.05 3.24 2.72c-.51 0-1.22.09-2.19.21-.86-.73-2.83-2.16-3-2.27s-.84.52-.61.85a21.49 21.49 0 0 0 2 1.63c-1.71.24-4 .63-7.17 1.27-10.53 2.11-13 2.68-13 2.68a16.26 16.26 0 0 0 -.33-8.32c-1.38-4.05-1.85-4.56-1.71-4.81zm1.13 12.71c-.38 0-2.21-2.78-2.4-3.72s-.47-2.91.47-2.82c.4 0 2 2.35 2.16 3.29s.14 3.25-.23 3.25zm-2.5-11.8c.52.11 1.09.94 1.6 2.72s.71 3.53.52 3.34-.52-2.4-2.07-1.88-1.13 4.09-.61 4.94 2 3 1.88 3.38-.28.57-.47.47a17.37 17.37 0 0 1 -3.15-7.19c-.38-3.15.14-6.25 2.3-5.78zm-2.48 47c-.18-.47-.4-1-.57-1.35-.38-.85-2.07-4.61-3.48-5.64a4.82 4.82 0 0 0 -3.77-.52c-.23.19-.05.61.14.94s.71-.05 1.32-.05 1.88.38 3.15 2.21c1.08 1.56 2.53 5.64 3 6.85-.08.61-.15.94-.21.91s-3.68-4.37-6.4-5.78-3.34-1.18-3.48-1.93a120.89 120.89 0 0 1 2.58-21.55 89.7 89.7 0 0 1 6-16.74 11.77 11.77 0 0 0 1.17 7 14.34 14.34 0 0 0 3.44 4.18c0 .28-2.49 22.85-2.68 27.27-.03 1.55-.13 2.97-.21 4.15zm36.83-6.59a6 6 0 0 1 -.12 1.15 8 8 0 0 0 -.16.89 33.85 33.85 0 0 0 -3.84-3 1.25 1.25 0 0 0 -1.08.52 40.63 40.63 0 0 0 4.2 3.12 10.92 10.92 0 0 1 -1.27.7 22.33 22.33 0 0 0 -3.82-3.35c-.42 0-.85.61-.75.8s2.65 2.14 3.58 3c-.41.15-.85.31-1.34.46a22.52 22.52 0 0 0 -3.93-3c-.33 0-.76.47-.57.75s2.2 1.87 3.11 2.61c-.51.12-1 .24-1.6.35l-.35.06c-.79-.69-2.94-2.25-3.09-2.36s-.84.51-.61.84a21.53 21.53 0 0 0 2.19 1.75 46.34 46.34 0 0 0 -9.05 1.73c-5.64 1.65-12.56 3.39-13.82 4s-1.27.56-1.65.47-1.79-.52-1.88-1.6c0-.38 1.55-17.49 2.35-26.14s.85-9.07.85-9.07 5.88-1.88 12.27-3.24 11.24-1.7 12.6-1.93a22.11 22.11 0 0 1 2.78-.28s.84 6.91 3 16.12a67.07 67.07 0 0 1 2 13.36 18.6 18.6 0 0 0 -2.2-1.84c-.19 0-.94.52-.94.8a21.77 21.77 0 0 0 3.14 2.28zm-37.59-20.67c-.14.19-.33 3.39-.71 6.87s-1.35 8.18-1.41 8.69.29.43.57.33.23-.42.94-3.8a90.75 90.75 0 0 0 1.41-12c-.14-.74-.7-.22-.8-.09zm8.46 3.43c.57-1.08 1.51-.65 1.84-.75s.56-.14.51-.56a1.2 1.2 0 0 0 -1.36-.94 2.85 2.85 0 0 0 -2.26 2.49c-.28 1.64-.37 2.44.38 3.81s1.64 2.11 2 4.32-2.26 2.17-2.54 2.21-.33.71.19 1 3.76 0 3.76-2.87a5.86 5.86 0 0 0 -2.21-4.61 4.74 4.74 0 0 1 -.31-4.1zm4.75 1.7c-.09.23.14 2.3.1 3s-.47 1.37-.95.71-.18-3.62-.32-4-.67-.16-.76.1-.09 2.35-.09 3.1.14 1.88 1.13 2.21a1.5 1.5 0 0 0 1.93-1 9.72 9.72 0 0 0 -.1-4 .53.53 0 0 0 -.94-.12zm5.64 2.11a2.73 2.73 0 0 0 .66 1.27c.33.28.38.66.19 1.27s-.94 1.27-1.41.89-.33-3.57.09-5.83 1.6-2.2 2-2.63-.68-1.09-1.13-.94-1.18.94-1.79 2.59a12.34 12.34 0 0 0 -.52 6.16c.42 1.78 1.26 1.83 2.44 1.45s1.36-1.78 1.32-2.44a1.8 1.8 0 0 0 -.47-1c-.1-.18.8-.28 1-.47s0-.56-.33-.79-2.05.28-2.05.47zm12.09 2a5.92 5.92 0 0 1 -1.46-3.33 5 5 0 0 0 1.13-1.51c.28-.75.42-3.43-.47-4.09s-2.64-.66-2.82-.14-.15 9-.1 9.36c0 0 .75.47 1.13.23s.14-3 .14-3 1.41 3.43 2.21 4a2.24 2.24 0 0 0 1.51.52s.7-.47.7-.8-.75-.13-1.97-1.22zm-2.5-4.49s-.37-3.53 0-3.76 1.27.14 1.31 1.36-.81 2.49-1.31 2.4zm-4.7-4.4c-.42-.14-.89-.1-1.17 1.6a56.12 56.12 0 0 0 -.38 8.84c.1.23.85.32 1.13.14s-.09-3.34-.09-3.67.94-.09 1.08 0 .42 2.59.56 2.87.71.14.94.05.33-.47-.09-2.92-1.55-6.74-1.98-6.91zm.32 5.14c-.13.16-.74.06-.74.06a11.74 11.74 0 0 1 .24-2.53 6.67 6.67 0 0 1 .5 2.5z" fill="#1d1d1b"/></svg>