<svg height="64" viewBox="0 0 64 64" width="64" xmlns="http://www.w3.org/2000/svg"><path d="m54.69 7c-2.25-.47-3.69 1.1-7.31 5.34s-10.1 13.17-10.1 13.17a161.71 161.71 0 0 0 -16.92-3.18c-8.53-1.07-11.25-.92-12.9.08s-1.6 3.4-1.6 5.66a32.41 32.41 0 0 0 2.68 11.93 27.23 27.23 0 0 0 6.16 8.72 12.74 12.74 0 0 0 -.92 2.3c-.12.69.5 2.56 6.28 5.24s13.12 3.52 13.51 3.26 1.37-3.52 1.37-3.52 5.06.08 11.22-5.16 8.23-10.26 8.38-10.64.81-3-2.41-5.94a36.15 36.15 0 0 0 -7.62-5.12s2.64-3.06 6.59-8.14 6.66-7.92 6.85-9.87a3.76 3.76 0 0 0 -3.26-4.13zm-20.2 30.41a7.61 7.61 0 0 1 -2.19-.53s4.83-5.32 5.06-5.28.72.15.72.26-3.44 5.55-3.59 5.55zm4.32-5.28c.15 0 .69-.08.69 0a56.54 56.54 0 0 1 -2.45 5.7 8.3 8.3 0 0 1 -1.68-.27s3.29-5.43 3.44-5.43zm-7.65 4.67a27.3 27.3 0 0 1 -2.76-1c-.26-.15 7.31-5.25 7.46-5.13l.69.49s-5.28 5.64-5.39 5.64zm-23.66-11.8c.21-.68 2.38-1.41 6.32-1.37s9.3.95 14.5 1.83a71.45 71.45 0 0 1 7.77 1.65 3.78 3.78 0 0 0 -.76 1.72 4.64 4.64 0 0 0 .07 1l-8.19 5.89s-8.34-2.86-12.21-4.78-8.11-3.94-7.5-5.94zm44.08 17a5 5 0 0 0 -1-.61.68.68 0 0 0 -.58.38c-.05.15.79.6 1.2.81-.17.28-.37.57-.58.89-.67-.59-1.91-1.5-2.11-1.66s-1.15.11-1.15.23 1.82 1.49 2.73 2.18l-.58.78a28.32 28.32 0 0 0 -3.51-2.57c-.35-.12-.85.23-.77.46s2.65 2.06 3.68 2.8c-.31.37-.63.74-1 1.11a33.81 33.81 0 0 0 -4.05-3.26c-.27 0-.53.3-.5.49s2.92 2.54 4 3.38c-.32.33-.64.65-1 1a32 32 0 0 0 -3.26-3c-.2 0-.77.23-.73.57a28.11 28.11 0 0 0 3.23 3.14c-.38.33-.77.64-1.18 1a25.85 25.85 0 0 0 -2.86-2.86c-.23-.08-.8.19-.8.45a26.94 26.94 0 0 0 3 2.91c-.23.16-.46.32-.69.46l-.31.19a13.85 13.85 0 0 0 -2.87-2.68c-.46-.11-.57.39-.57.54s1.78 1.87 2.51 2.56l-.91.5a27.41 27.41 0 0 0 -2.61-2.68c-.15-.08-.53.11-.72.5s1.7 1.94 2.48 2.61c-.44.22-.86.4-1.26.57-.48-.69-2-2.28-2.07-2.38s-.88 0-1 .23 1.46 1.82 2.14 2.52c-.37.13-.72.25-1 .34a17 17 0 0 0 -2.24-2.4c-.31-.19-.65.07-.8.23a14.43 14.43 0 0 0 2.11 2.42 8.45 8.45 0 0 1 -2.76.22c-1-.12-1.34.11-1.38.27s-.27.8-.08.92 1.69.45 1.65.68a5.84 5.84 0 0 1 -.42 1.54 27.06 27.06 0 0 1 -10.26-2.34c-5.36-2.3-7.08-3.67-7.16-4.13s.57-1.34.69-1.15a3.71 3.71 0 0 0 1.84.84c.49 0 .88-.92.8-1.07a23.52 23.52 0 0 1 -6.55-7c-3.13-5-4.63-11.56-4.59-14 0-.43 2.07 2.37 14.05 6.5s18.37 4.87 23.88 5.25a30.79 30.79 0 0 0 6.62-.08 7.28 7.28 0 0 1 -.7 1.33zm-1-6.85c2.22 2.07 2.37 3 1.88 3.52s-3.45.8-7.51.61-6.68-1.14-6.83-1.28l2.07-5.7s.61-.23 1.45-.65a3.76 3.76 0 0 0 1.27-1s5.43 2.35 7.65 4.43zm5.42-23.57c-.68 1.72-7.38 10.1-11.21 14.47s-4.59 4.55-5.21 4.55-2.9-.84-2.41-2c.22-.5 7-9.57 10.64-13.89s5.4-5.94 6.4-5.9a2 2 0 0 1 1.79 2.77zm-44 22.16a.39.39 0 0 0 -.73-.08 14.25 14.25 0 0 0 1.73 6.59 16.75 16.75 0 0 0 3.63 4.82.88.88 0 0 0 .54-.5c0-.19-.77-.88-2.61-3.52s-2.31-6.78-2.56-7.31zm-8.13-9.42c0-.42-.12-.15-.5-.23s-1.57 2.42-1.37 7.16 1.6 6.58 1.6 6.58c.11.27.84-.15.88-.53a35.63 35.63 0 0 1 -1.34-4.86c-.61-3.44.69-7.7.73-8.12zm3.86 20.17a13.59 13.59 0 0 1 -1.95-3.63c-.08-.12-.69 0-.77.19a5.75 5.75 0 0 0 1.57 3.48 14.43 14.43 0 0 0 3.18 2.8.53.53 0 0 0 .65-.31c.12-.23-1.41-.92-2.68-2.53zm49.45-1.76a15.45 15.45 0 0 1 -2.64 5.4 17.84 17.84 0 0 1 -5.85 4.78c-.27.08-.12.88.19.92s2-.11 5.51-4 3.44-6.81 3.4-6.92a.53.53 0 0 0 -.61-.18zm-10.83-32.8c.15 0 3.75-4.82 3.87-5.09s-.27-.57-.85-.34-3.78 4.78-3.78 4.78c-.04.23.61.65.76.65zm14.54-2.93c-.19 0-.88.23-.84.42a5.12 5.12 0 0 1 1 3.21c0 2.14-1.57 3.71-1.57 3.94s.15.23.46.35 1.53-1.3 2-4-.85-3.92-1.05-3.92z" fill="#1d1d1b"/></svg>