<svg height="64" viewBox="0 0 64 64" width="64" xmlns="http://www.w3.org/2000/svg"><path d="m9.45 56.25a3 3 0 0 0 -.4-1.58c-.43-.56-1.15-.13-1.15-.13a6.13 6.13 0 0 0 -1.21-2.33c-.89-1-1.46-.31-1.68-.1s-.01.62-.01.89.16.1 1 .14 1.38 1.74 1.38 1.74a3.12 3.12 0 0 0 .39 1.21c.4.79.89.49.89.49s.66 1.58 1.77 2 1.28-.42 1.38-.62-.16-.07-1-.36a2.43 2.43 0 0 1 -1.36-1.35zm20.28-25.58a5.58 5.58 0 0 0 -4.2-.62c-.59.16-.56 1.05-.56 1.05.1.3.43.16.66.13a5.55 5.55 0 0 1 3.09.26c2.16.59 2.82 2.33 3.41 4.5s-.33 2.53-.49 2.63.06.79.06.79a1.36 1.36 0 0 0 .92 0c.43-.2.63-1.28.43-3.52a7.12 7.12 0 0 0 -3.32-5.22zm32-21.8c-.89-2.33-2.43-3.94-3.41-4.2a9.85 9.85 0 0 0 -3 .1 13 13 0 0 0 -1.42-1.25 7.84 7.84 0 0 0 -3.38-1.41 9 9 0 0 0 -6.52 2.2c-2.15 1.97-12.76 13.69-16 17.24s-6 6.5-6.86 10.3a7.6 7.6 0 0 0 .91 6.15l-10.57 10.07a14 14 0 0 0 -1.38-.39 11.15 11.15 0 0 0 -3.84 0c-1 .26-4 2.94-4.1 3.15a5.53 5.53 0 0 0 .13 3.48c.46 1.15 3 5.09 5.42 6.47a6.77 6.77 0 0 0 4.72 1.08 7.23 7.23 0 0 0 3.68-3.55c1.21-2.23.13-5.61.13-5.61l9.92-10.41a8.67 8.67 0 0 0 4.92 1c2.53-.36 4.73-2 9.75-6.83s19.7-19.76 20.22-20.88 1.55-4.38.66-6.71zm-19.73 1.19a9.6 9.6 0 0 1 2.14-2.14c.59-.26 2 .13 1.74 1.28a3.68 3.68 0 0 1 -2.79 2.14c-.62-.1-1.54-.46-1.09-1.28zm-5.84 6.23c.29-.37 1.61-2 2.4-2.23s1.64.26 1.28 1a6.38 6.38 0 0 1 -2.84 2.28c-.57.07-1.29-.46-.83-1.05zm-1 .63c0 .1.23 1.15.73 1.31s1.11.43 2.43-.49 2.68-2.33 2.68-3.19-.86-1.28-1.28-1.41a4.57 4.57 0 0 0 -1.32 0s2.4-2.43 2.5-2.4.52 1.58 1.44 1.68a3.88 3.88 0 0 0 3.35-1.12c1.41-1.21 1.48-2.49 1-3.22a3.15 3.15 0 0 0 -1.46-1.08s-1.31.27-1.28.1 1.51-1.57 2-1.54 4.43 2.69 4.33 3.51-8.57 8.27-11.85 10.74-4.43 3.54-5.35 3.67-2.23-1.61-2.1-2.06c.02 0 4.17-4.6 4.2-4.5zm-21.81 42.64c-.33 1.25-1.9 1.94-3.87 1a18.89 18.89 0 0 1 -5.91-5.86 3.7 3.7 0 0 1 -.17-3.51c.51-.91 2.86-.65 4.11.17a10.21 10.21 0 0 1 3.77 3.18c1.51 2.07 2.4 3.78 2.07 5.02zm1.58-6.89c0 .36 1.21 1.21.69 3.54s-1.22 2.6-1.22 2.6a9.51 9.51 0 0 0 -3.18-5.94 13.29 13.29 0 0 0 -6.11-3.32 4.36 4.36 0 0 1 3.15-.95c1.94.16 3 .72 3.35.59s12.81-12.28 13.5-12.57a1.67 1.67 0 0 1 2.1.55 2.46 2.46 0 0 1 0 2.6c-.36.39-12.21 12.54-12.28 12.9zm43.45-38a9.81 9.81 0 0 0 -.67-2.37c-.23-.23-.4 0-.66.26s.42 2.49.73 3.56c-.18.32-.37.64-.6 1l-.12.16a22.48 22.48 0 0 0 -.7-4.1c-.2-.23-.59.1-.69.37a45.1 45.1 0 0 0 .76 4.5l-.65.72a31.27 31.27 0 0 0 -.73-4.27c-.17-.3-.53 0-.69.33a31.27 31.27 0 0 0 .75 4.65c-.18.2-.38.4-.58.61a20.27 20.27 0 0 0 -.86-4.25c-.33-.49-.46.14-.69.46s.65 3.42.93 4.44l-.56.57a15 15 0 0 0 -1.13-4.22c-.26-.06-.46.2-.65.53s.76 3.56 1 4.46c-3.64 3.67-8.67 8.5-12.5 12.12-6.27 5.91-7.26 6.86-8.8 7.28a4.27 4.27 0 0 1 -3.09-.23 5 5 0 0 1 -.75-.39 2.71 2.71 0 0 0 .92-3.12c-.76-1.9-2-2.62-3-2.4a6.94 6.94 0 0 0 -2.35 1.44 9.21 9.21 0 0 1 .73-6.78c1.87-3.15 6.56-7.65 6.56-7.65s1.05 2.1 2.33 2.27 4.21-2.1 8.18-5.22 9.68-8.16 10.2-9.28.69-1.67-.2-2.49-3.81-3-3.81-3 .76-1.18 3.42-.69 6.5 4.57 7.58 7a5.26 5.26 0 0 1 .39 3.75zm2.77-3.06c-.29 1.84-.65 2.17-.78 2.17a16.41 16.41 0 0 0 -1.37-4.68 11.12 11.12 0 0 0 -2.56-3.31 2.19 2.19 0 0 1 2.27.36 6.64 6.64 0 0 1 2.44 5.48z" fill="#1d1d1b"/></svg>