<svg height="64" viewBox="0 0 64 64" width="64" xmlns="http://www.w3.org/2000/svg"><path d="m23.91 18.67a1.74 1.74 0 0 0 -1.78-1.59 2.33 2.33 0 0 0 -1.89 1c-.1.39-.29 14.84-.26 15s.84.19 1.07-.17-.05-13.2-.05-13.59a1 1 0 0 1 .81-1.07c.62-.1.81.33 1.07 1s.12 12.75.03 13.15.42.17.78 0 .19-12.78.22-13.73zm5.09 13.51c.26-.27-.26-11.16-.13-12.6s.94-1.78 1.3-1.78a1.05 1.05 0 0 1 1.1.58c.33.59.1 13.31.17 13.83s.55.16.84-.07.23-11.94.26-13-.35-2.44-2.11-2.41a2.43 2.43 0 0 0 -2.38 2c-.13.52-.24 13.24-.19 13.43.06.37.84.28 1.14.02zm9.2-14.48c-1.62.13-2.27 1.92-2.37 2.54s-.26 12.29-.26 12.49.91.32 1 .16.13-8.43.23-10.87.45-2.89 1.2-2.92.81.29 1 2-.85 11-.85 12c0 .13.59.33.94.13s1-11 1-12.52-.3-3.14-1.93-3.01zm-17 16.82c-.29-.2-.45.06-.36.65a6.64 6.64 0 0 0 .95 2 .48.48 0 0 0 .36-.26 4.38 4.38 0 0 0 -.4-1.46 1.85 1.85 0 0 0 -.57-.93zm2.34-.3c-.26.13 0 3 0 3.16 0 0 .35.16.55 0a10 10 0 0 0 0-3.09c-.09-.42-.31-.2-.57-.07zm8 2.57a3.17 3.17 0 0 1 .39-.32c.23-.16.26-.26.13-1s-.72-.58-2-.68-2.05.65-1.89 1.4 1.34.81 1.34.81l-.07.75s-.19 0-1.75-.13-1.79-.1-2.22-.19-.42.35-.42.65 1.5.48 2.47.71a5.36 5.36 0 0 0 2.05 0s0 .65.07.82-.23.09-.46.13-.06.45 0 .61.29.13.39.13.07.3.13.39a1.39 1.39 0 0 0 .72.17c.09 0 .06-.36.09-.46s.23 0 .33 0 .1-.65 0-.84-.36-.07-.36-.07v-2.44h.52a2.75 2.75 0 0 0 .2.55 18.2 18.2 0 0 0 3.54 0c.13-.06 0-.65 0-.85a17.27 17.27 0 0 0 -3.18-.14zm4.2-2a8.28 8.28 0 0 0 -.3 2.44.62.62 0 0 0 .78.23 7.76 7.76 0 0 0 .2-2.44.59.59 0 0 0 -.66-.21zm2 1.37a2.39 2.39 0 0 0 -.26 1.49c.16.33.52.17.84 0s.23-1.07.2-1.27-.66-.32-.81-.2zm15.81-20.6a3.42 3.42 0 0 0 -2-3.35c-1-.42-5.07-.19-5.07-.19a17.6 17.6 0 0 0 -.1-2.48 9.39 9.39 0 0 0 -4.52-3.41 31.3 31.3 0 0 0 -6.51-1.5 6.08 6.08 0 0 0 0-1.69c-.16-.29-2.57-1.24-5.47-1s-5.1.65-5.3 1a6.53 6.53 0 0 0 -.13 1.88 27.56 27.56 0 0 0 -5.11 1.24 22.86 22.86 0 0 0 -5.63 2.44 13.11 13.11 0 0 0 -2.27.23 1.33 1.33 0 0 0 -.78 1.82 25.65 25.65 0 0 0 3.31 3.64c.26.23.43 1 .65 3.13s.79 12 1.5 16.91 2.08 5.83 2.08 5.83-1.43.84-2.37 4.06-1.63 13.44-1.43 14 4.49 3.58 15.39 3.9 14.7-3.45 15.12-4.26-.09-7.06-.65-11.23-2-5.49-2-5.49a3.93 3.93 0 0 0 .52-.72 14.08 14.08 0 0 0 .75-1.72s2.44-.07 2.83 0a6.55 6.55 0 0 0 3.45-.94 5.93 5.93 0 0 0 2.9-4c.39-2.01.91-16.06.81-18.08zm-7.42 1.3s3.52-.42 3.68 0-.52 12.88-.85 14.34a3.74 3.74 0 0 1 -2.21 2.8 6.44 6.44 0 0 1 -2.93.1c-.03-.23 2.28-17.22 2.28-17.22zm-16.72-13.93c2.67-.13 4.82.19 4.88.49s-2.11.68-4.42.68-4.36.06-4.39-.36c-.01-.1 1.26-.68 3.93-.81zm-4 1.62a19.54 19.54 0 0 0 4.78.52c2.67 0 4.13-.52 4.2-.35a3.3 3.3 0 0 1 -.1 1.28 10.23 10.23 0 0 1 -4.39.84 10 10 0 0 1 -4.42-.84 3.52 3.52 0 0 1 -.1-1.45zm-5.6 3.09a27.54 27.54 0 0 1 4.72-1.1 1.66 1.66 0 0 0 1 .81c.78.23 1.63.43 5.21.43s4.39-.88 4.45-1 .17-.65.43-.65a37.08 37.08 0 0 1 6.18 1.72c1.72.78 2.28 1.27 2.14 1.59s-4.13 2.25-15 2.05-13.66-1-13.79-1.59c-.06-.2 1.54-1.31 4.63-2.26zm22.53 38.61a5.89 5.89 0 0 0 -1.28 0c-.29 0-.1.52 0 .69a5.13 5.13 0 0 0 1.49.35c.06.41.12.83.17 1.29a7.64 7.64 0 0 0 -1.92-.54c-.33 0-.3.75-.1.91a19.57 19.57 0 0 0 2.12.87v.3c0 .36 0 .7.06 1a22.76 22.76 0 0 0 -2.63-.64c-.23 0-.13.82-.1.95a23.09 23.09 0 0 0 2.79.66c0 .44.05.85.07 1.22a26.55 26.55 0 0 0 -3-.65c-.1 0-.16.52-.1.78a14.8 14.8 0 0 0 3.12 1.07v1.46a27.74 27.74 0 0 0 -3.25-1.32c-.23 0-.39.42-.33.68a24.61 24.61 0 0 0 3.55 1.83.93.93 0 0 0 0 .1 2.9 2.9 0 0 1 -.87.49 29.38 29.38 0 0 0 -3.2-1.4c-.16 0-.59.62-.52 1s1.29.69 2.16 1a34.54 34.54 0 0 1 -11.16 1.65c-7.19-.16-12.39-2.31-12.65-2.86s.19-8.17.62-10.9 1.23-4.07 1.62-4.29a1.22 1.22 0 0 1 .95-.17c.16.1 1.88 2.28 8.94 2.57s10.9-1.17 11.36-1.4.65-.42.91-.29a9.21 9.21 0 0 1 1.18 3.59zm-.66-8.51c-.69 2.34-3.06 4.42-7.29 4.81s-9.56-.35-12.13-1.43-4.2-4.42-4.56-8.2-1.07-18.64-1.33-19.22-1.92-1.7-1.73-2.12a87.43 87.43 0 0 0 15.59 1.56c8 0 14.34-2 14.38-1.79s-2.25 24.05-2.93 26.39zm9.79-3.74a5 5 0 0 1 -4.07 3.49 11.63 11.63 0 0 1 -3.74.09l.23-2.24a7.34 7.34 0 0 0 4.13-1c2-1.2 2-3.15 2.41-6.83s.55-10.64.32-11.19-.61-.65-1.75-.75-2.9-.06-2.9-.06c.07-.17.46-2.48.46-2.48s3.9.13 4.45.2a2.77 2.77 0 0 1 1.6 2.7c-.03 1.47-.36 15.85-1.14 18.07zm-30.71 10.57c-.29-.06-.65.23-1.24 2.25a24.26 24.26 0 0 0 -.55 5.4c.1.19.91.22 1.11 0s0-2.67.35-4.46a6.61 6.61 0 0 1 1-2.51c.08-.25-.38-.61-.67-.68zm1.66 8.43c-.26.29-.43 1.43.45 1.4s1-.56 1-1.14-1.14-.58-1.45-.26zm1.27-3.71c-.26.29-.43 1.43.45 1.4s1-.55 1-1.14-1.14-.55-1.45-.23zm5.17-1.29c.88 0 1-.55 1-1.13s-1.13-.61-1.44-.27-.42 1.4.44 1.4zm4-.29c-.26.29-.42 1.43.46 1.4s1-.55 1-1.14-1.15-.65-1.46-.31zm2.77 3.16c-.26.29-.43 1.43.45 1.4s1-.56 1-1.14-1.15-.66-1.45-.31zm-.07 3.38c-.26.29-.42 1.43.46 1.4s1-.55 1-1.14-1.15-.66-1.46-.31zm-8.56-3.95a4.25 4.25 0 0 0 -1 5.46 4 4 0 0 0 5.95 1c1.59-1.27 2.21-4.33.59-5.82s-4.33-1.71-5.54-.64zm4.23 5.53a2.82 2.82 0 0 1 -4.17-.7 3.06 3.06 0 0 1 -.41-1.68 2.56 2.56 0 0 0 1.07.16c.23-.09.36-.58.23-1s-.55-.44-.88-.52a3.3 3.3 0 0 1 .68-.82c.86-.74 2.75-.59 3.89.46s.67 3.21-.44 4.1z" fill="#1d1d1b"/></svg>