<svg height="64" viewBox="0 0 64 64" width="64" xmlns="http://www.w3.org/2000/svg"><path d="m26.57 19.23c0 .18-.14 6.59-.07 6.76s.79.17 1 0 .1-6.55.1-6.86-1.03-.07-1.03.1zm14.13-4.85a9.53 9.53 0 0 0 -4.57-2.11v-2.46a1.78 1.78 0 0 0 1.15-.28c.66-.38 2.11-.93 2.18-1.25a42.6 42.6 0 0 0 -.11-4.28c-.07-.24-1.66-2.18-6.55-2.08s-6.13 1.18-6.16 1.42a29.11 29.11 0 0 0 .1 4.89c.24.55 2.42 1.52 2.42 1.52v2.67c-3.22.11-7 3.16-7.1 3.85s-.77 39.22-.52 41 3.74 4.19 4.78 4.4a53.85 53.85 0 0 0 6.2.38c2.11 0 4.89-.45 6.24-1.49a10.15 10.15 0 0 0 2.87-3.43c0-.45.8-31.46.8-35.1s-.13-6.03-1.73-7.65zm-7.7-10.6c2.77-.07 3.71.17 3.78.52s-1 1-3.81 1-3.47-.45-3.54-1c-.01-.14.81-.45 3.57-.52zm-4.35 3.67v-2.32s1.1 1.32 4.19 1.11 4.4-1.14 4.47-.94.07 2.08.07 2.08a9.82 9.82 0 0 1 -4.68.87c-3.22 0-4.05-.8-4.05-.8zm11.35 27.96a4.23 4.23 0 0 0 -1.49-.83c-.35 0-.49.66-.46.94a9.09 9.09 0 0 0 1.95 1.4v1.59a7.36 7.36 0 0 0 -1.78-1.09c-.24 0-.28.63-.28.87a11.46 11.46 0 0 0 2 1.69v1.57a15.73 15.73 0 0 0 -2.17-1.81c-.24 0-.49.8-.45 1a27.28 27.28 0 0 0 2.58 2.3v2.06a14.64 14.64 0 0 0 -2.13-1.59c-.2 0-.34.59-.34.94a12.76 12.76 0 0 0 2.43 2.2c0 .75 0 1.48-.05 2.18a16.41 16.41 0 0 0 -2.38-2c-.25 0-.52.59-.52.93a17.94 17.94 0 0 0 2.86 2.59v1.67a25.87 25.87 0 0 0 -3.07-2.77c-.24 0-.58.52-.55.9a31.54 31.54 0 0 0 3.57 3.5c0 .6 0 1.14-.05 1.6a19.7 19.7 0 0 0 -3.45-2.6.73.73 0 0 0 -.45.83c.1.49 3.81 3.57 3.81 3.57a3.57 3.57 0 0 1 -.75 1 22.15 22.15 0 0 0 -3.16-2.9c-.35-.07-.49.63-.46.84s2.09 2.15 2.72 2.76a7 7 0 0 1 -1.29.64 12.53 12.53 0 0 0 -2.57-2.71c-.41-.11-.62.31-.62.62a16.16 16.16 0 0 0 1.9 2.47 25.78 25.78 0 0 1 -7.93 0 14.61 14.61 0 0 1 -3.5-2.91c-.21-.38 0-20.41 0-25s.14-13.3.52-14a7.49 7.49 0 0 1 2.85-2.57c1.21-.59 1.9-.76 2-.62s0 1.21.07 1.28 1.87.42 1.94.07.07-6 .07-6 .59.07 1.28.1a15.14 15.14 0 0 0 1.63 0s-.1 5.85.07 5.89 1.11.45 1.63.14.27-1.63.27-1.63a5.76 5.76 0 0 1 3 1.42c1 1.14 1.08 2.49 1.08 5.58-.11 1.14-.21 7.15-.33 13.89z" fill="#1d1d1b"/></svg>