<svg height="64" viewBox="0 0 64 64" width="64" xmlns="http://www.w3.org/2000/svg"><path d="m59.49 34.87c-.78-.18-6.31-.13-6.31-.13s1.86-1 3.9-4.67 2.81-9.48 3-12-.1-3.4-.82-3.53-5.53 1.13-5.53 1.13a4.22 4.22 0 0 0 .18-1.45c0-.82-.59-1.41-2.31-1.72s-9.3-.87-9.3-.87a16.21 16.21 0 0 0 2.9-4.53c.59-1.95.5-4.94 0-5.08s-2.9-.13-12.74.86-14.78 1.53-15.37 1.8-.5.77-.09 2a12.09 12.09 0 0 0 1.77 3s-9.66-1.28-10.93-1.15-1.31 5-.63 9.3a9 9 0 0 0 3.44 6s-3.4.72-4.76 1.18-1.45 2.29-.89 4.33a31.07 31.07 0 0 0 2.9 5.81s-1.59 0-3.13.09-2 2.13-1.86 4.62 1.89 6.14 6.61 10.93a29.78 29.78 0 0 0 10 6.71 8.53 8.53 0 0 0 .18 1.72c.23 1.41 2.4 2.59 3.72 2.72s16.91.14 18.09.09 3.45-1 3.9-2a4.83 4.83 0 0 0 .09-2.53 26.68 26.68 0 0 0 8.07-5.13c4.17-3.76 7-10 7.44-12.65s-.75-4.66-1.52-4.85zm-39.95-28.56c.23-.09 7.21-.77 14.24-1.36s9.56-1 9.79-.86a7.45 7.45 0 0 1 -.82 3.09 5.7 5.7 0 0 0 -1.94-1c-.41 0-.73.32-.59.72a7.78 7.78 0 0 0 2 1.5c-.17.29-.34.57-.52.82l-.06.07a19.64 19.64 0 0 0 -2.64-1.94c-.23-.09-.64.32-.64.59a16.89 16.89 0 0 0 2.45 2.24c-.23.26-.44.46-.62.63a17.19 17.19 0 0 0 -2.64-2.19c-.28 0-.46.23-.68.55s1.19 1.53 2 2.29c-2.36-.16-17.02-1.46-17.02-1.46s-1.54-1.72-2-2.22-.54-1.38-.31-1.47zm-10.29 10.75c-.25-3.36-.25-6.17.09-6.22s16.19 1.55 28.29 2.63 13.83 1.14 13.88 1.36a2.7 2.7 0 0 1 -.73 1.41c-.36.32-15.46 3.17-25.35 4.94s-12.37 1.82-12.37 1.82-3.59-2.59-3.81-5.94zm-1.54 12.83c-.55-1.54-.86-2.72-.5-2.86s22.58-4 33.46-6.26 17-3.76 17.18-3.53a30.74 30.74 0 0 1 -1.43 8.52 7.37 7.37 0 0 0 -2.1-1.54c-.32 0-.73.5-.73 1s1.52 1.63 2.2 2.18l-.11.27c-.18.37-.39.74-.6 1.1-.88-.81-2.52-2.19-2.71-2.28s-.73.18-.77.59 1.93 1.84 2.91 2.59c-.22.32-.45.62-.68.92a35.13 35.13 0 0 0 -2.83-2.92c-.27-.23-1 .13-1 .45s2.13 2.44 3.13 3.42c-.31.37-.63.7-.93 1a32.73 32.73 0 0 0 -3.2-3.24c-.32-.14-1 .32-1 .63a31.92 31.92 0 0 0 3.2 3.51l-.83.71a40.16 40.16 0 0 0 -3.67-3.85c-.32-.19-1 .18-1 .72s2.19 2.58 3.3 3.62h-1.54a23.18 23.18 0 0 0 -3.46-3.35c-.31 0-.63.23-.81.64s1.42 1.92 2.25 2.76c-10 .08-34.3.05-34.62.05a28 28 0 0 1 -3.11-4.85zm36.68 29.51c-.18.37-.91 1.45-4.45 1.64s-14.51.18-16-.23a5.13 5.13 0 0 1 -2.54-1.5c-.18-.27-.22-1.13 0-1.22a15 15 0 0 0 5.81 1.68 75.39 75.39 0 0 0 12.88-.23 18.06 18.06 0 0 0 4.35-1.27c.17.09.13.73-.05 1.13zm12.22-14.12a22.32 22.32 0 0 0 -2.79-3 .71.71 0 0 0 -.82.72c0 .5 2.09 2.44 3 3.28a14.28 14.28 0 0 1 -1 1.38 29.66 29.66 0 0 0 -3-3c-.22-.05-.58.5-.58.81a23.13 23.13 0 0 0 2.87 3c-.19.2-.36.4-.56.6l-.26.24a16.06 16.06 0 0 0 -2.87-3.1c-.41-.09-.86.59-.86.82a39.65 39.65 0 0 0 2.78 3.21l-.74.71c-.58-.84-2.38-2.92-2.68-2.88s-.9.41-.81.72a30.16 30.16 0 0 0 2.71 2.91c-.3.27-.59.53-.89.78a14.55 14.55 0 0 0 -2.75-3c-.36 0-.77.41-.86.72s1.86 2.34 2.61 3.14l-1.11.72a20.61 20.61 0 0 0 -2.58-3.5c-.32-.13-.91.37-1 .59a27.85 27.85 0 0 0 2.58 3.52c-.33.2-.68.4-1 .58a23.5 23.5 0 0 0 -2.67-3.55c-.4-.28-.81.36-.9.63a24.24 24.24 0 0 0 2.42 3.46 29.89 29.89 0 0 1 -10.85 2.12 30.71 30.71 0 0 1 -22.63-8.75c-3.67-3.58-7.16-9.3-5.53-11.61.24-.34 14.51-.09 28-.27s24.71-.23 24.89.09a14.65 14.65 0 0 1 -2.12 7.91zm-43.92-25.41c.46.27 1.18 0 1.18-.23a12.6 12.6 0 0 1 -1.09-2.45 13.73 13.73 0 0 1 -.45-3.58c-.09-.27-1.18 0-1.4.05a13.59 13.59 0 0 0 .31 3.17 6.61 6.61 0 0 0 1.45 3.04zm13.92-3.45a3 3 0 0 0 .14-1.31c-.05-.14-8.53-1-8.66-.91s-.41 1.18-.18 1.4a82.37 82.37 0 0 0 8.7.82zm4.63-8.42c.18-.22 0-.36 0-.68s-3.4.05-3.4.05c-.32.09.13.91.13.91a16.8 16.8 0 0 0 3.27-.28zm-18.46 25a1.82 1.82 0 0 0 1.27-.68c0-.19-.18-.32-.86-1.32s-1-2.22-1.36-2.31-1.31.72-1.31.72a10.72 10.72 0 0 0 2.26 3.59zm21.72-6.74c.41.18 12.43-3.13 12.74-3.36s0-.81-.22-1.13-12.3 2.37-12.74 3c-.23.31-.19 1.31.22 1.49zm-23.66 17.32a6.59 6.59 0 0 1 -1.73-4.22c-.09-.31-1 0-1.13.09a5.8 5.8 0 0 0 1.27 4 9 9 0 0 0 3.85 3.09c.23-.09.18-.09.23-.37s-.64-.37-2.49-2.59zm16.05-4c-.28.18-.55 1.13-.19 1.45s13-.13 13.06-.32a2.08 2.08 0 0 0 -.18-1.13c-.18-.26-12.32-.24-12.69.01z" fill="#1d1d1b"/></svg>