<svg height="64" viewBox="0 0 64 64" width="64" xmlns="http://www.w3.org/2000/svg"><path d="m60 27.69c-.93-.2-10.93-.24-10.93-.24a22.4 22.4 0 0 0 1.7-2.16 10.27 10.27 0 0 0 1.31-3 4.27 4.27 0 0 0 2.71-3.59c0-1-.74-1.47-2.17-1.47s-10.62.26-10.62.26a4.76 4.76 0 0 0 .77-1.31l1.51-3.13s3.05-1.7 3.72-3.05a1.3 1.3 0 0 0 -1-2c-.5-.12-7.8 0-15.22 0s-14.36.11-15.9.27-2.51 1-1.28 2.85a6.88 6.88 0 0 0 3.44 2.44 6.88 6.88 0 0 0 .38 1.39 24.49 24.49 0 0 0 1.35 2.7s-8.37 0-10.5.11-2 2-1.62 3.09 3.13 2.74 3.13 2.74 0 .16.19 1.67a5.26 5.26 0 0 0 1.31 2.7s-6.06 0-7.76 0-3 1.35-2.51 2.85 3.4 2.67 3.4 2.67.23 3.44 4.33 9.88 8.14 7.26 8.14 7.26a4.28 4.28 0 0 0 .31 2.13c.47.88 3.36 3.32 13.09 3.36s12.82-2 13.09-2.44a11.93 11.93 0 0 0 .31-2.82s3.59-1.46 7.92-6.52a19.27 19.27 0 0 0 4.71-10s4.13-1.82 4.63-3.75a2.29 2.29 0 0 0 -1.94-2.89zm-40.51-15.56c0-.12-1.9-.85-2.51-1.36s-1-.61-.66-.77 9.31-.38 16.87-.42 12.81-.08 12.9.15-.77 1-1.7 1.47a14.44 14.44 0 0 1 -1.81.81s-1 2-1.94 3.73a8.86 8.86 0 0 0 -1.64-2.3.75.75 0 0 0 -.69.54 24.67 24.67 0 0 0 1.82 2.64c-.66 1.1-.78 1-.78 1a13.19 13.19 0 0 0 -1.93-3.29c-.31-.07-.54 0-.5.58a11.7 11.7 0 0 0 1.8 2.7h-1a7.36 7.36 0 0 0 -1.7-2.38.47.47 0 0 0 -.58.47 7.17 7.17 0 0 0 1.17 1.9l-14.57-.13a7.86 7.86 0 0 1 -2-3c-.36-1.61-.52-2.23-.55-2.34zm-7.61 9.87c-.23-.35-2.2-1.43-2.36-2s.2-.62.47-.65 12.74.11 27.14 0 15.72-.35 15.87-.2 0 .78-.31 1a20.69 20.69 0 0 1 -2.12 1.39c-.26.07-.11 1-.94 2.26a6.79 6.79 0 0 0 -1.22-1.95c-.27 0-.5.07-.7.46s.76 1.74 1.22 2.44l-.76 1a18 18 0 0 0 -1.93-3.38c-.34-.2-.61.42-.61.62s1.37 2.51 1.92 3.5a4.18 4.18 0 0 1 -.77.78 18.59 18.59 0 0 0 -2.08-3.95.55.55 0 0 0 -.81.39c-.09.31 1.31 2.72 1.87 3.65h-1a15.8 15.8 0 0 0 -1.9-3.22c-.31-.19-.81.39-.85.5s1.19 2 1.7 2.75h-1.11a10.58 10.58 0 0 0 -1.44-2.54c-.31-.27-.58.07-.81.34s.69 1.61 1.08 2.22c-4.83.1-11.77.21-15.75.26-6.49.07-11 .27-11 .27a8.31 8.31 0 0 1 -2-3.4 8.2 8.2 0 0 0 -.8-2.54zm48.42 8.5c-.12.38-2 1.39-2.86 1.7s-1.5.38-1.5.5a27.64 27.64 0 0 1 -2.11 6.58c-.38-.6-1.15-1.42-1.41-1.45a.6.6 0 0 0 -.73.43c-.12.3 1 1.57 1.56 2.13-.24.41-.49.82-.76 1.2a16 16 0 0 0 -2.07-2.68.63.63 0 0 0 -.66.54 16 16 0 0 0 2.14 2.93l-.8 1a15 15 0 0 0 -2.46-3.38.67.67 0 0 0 -.7.58c-.06.34 1.69 2.77 2.36 3.7-.27.32-.53.61-.79.88-.45-1-2.45-4.35-2.72-4.35a.87.87 0 0 0 -.7.7 44.66 44.66 0 0 0 2.59 4.49c-.22.21-.45.4-.67.58a30.65 30.65 0 0 0 -2.85-4.25c-.31-.15-.77.27-.77.69a33 33 0 0 0 2.76 4.2c-.29.19-.58.38-.89.56a17.59 17.59 0 0 0 -2.8-4.14c-.34-.07-.61.27-.69.58a31.47 31.47 0 0 0 2.56 4.07l-.71.37a19.17 19.17 0 0 0 -2.31-3.13c-.31-.11-.51 0-.74.27s1.51 2.36 2.25 3.26l-1 .51a28.35 28.35 0 0 0 -2.59-3.73c-.27-.19-.54.12-.66.54s1.71 2.79 2.4 3.71c-.12.1-.2.19-.19.27 0 .43-.08 1 .15 1.08s1.78 0 1.78.2a2.66 2.66 0 0 1 -.2 1 12.43 12.43 0 0 1 -5.25 2 62.53 62.53 0 0 1 -14-.66c-4.28-.85-5-1.89-5.09-2.12a5.4 5.4 0 0 1 -.08-1 18.36 18.36 0 0 0 2.55.23c.81 0 1.08-.15 1.16-.42a3.89 3.89 0 0 0 0-1.16 14.41 14.41 0 0 1 -6.8-2.21c-3.08-2.2-6.36-8.07-7.44-10.3a28.13 28.13 0 0 1 -1.51-5c-.19-.31-2.82-1-2.93-2.2 0 0 14.4-.11 31.43-.31s23.67-.07 24.13 0a.83.83 0 0 1 .62.98zm-49.15 2.4c-.16-.35-1.17-.12-1.24.42 0 .31-.27 1.47.85 3.83a34 34 0 0 0 3.32 5.33c.15.11.7-.2.89-.58s-.62-1.28-2.28-4.25a10.79 10.79 0 0 1 -1.54-4.75zm24.48-.9c-.08-.19-13.38 0-13.6.2a1.17 1.17 0 0 0 0 1.08c.15.23 13.32 0 13.63-.23s.04-.88-.03-1.05zm-10.35 18.31c-.2.12-.16.85 0 1a35.09 35.09 0 0 0 6.68.35c3.67 0 8.11-.08 8.3-.2s.19-.62.11-.77-1.5-.15-7.45-.19-7.44-.31-7.64-.19zm-9-23.43c.16.07.74-.43.74-.66s-.31-.54-.85-1.82a25.31 25.31 0 0 1 -.7-2.93c-.15-.15-.46-.15-.89.19s-.19 1.28.12 2.4a11.77 11.77 0 0 0 1.54 2.82zm23.09-4.83c.23-.08.12-.66 0-.93s-9.37-.12-9.54-.07c-.34 0-.19 1.08 0 1.23s9.27-.15 9.5-.23zm-16.72-6.29c.12.11 1.16 0 1.2-.24s-.27-.65-.7-1.7a5.92 5.92 0 0 1 -.27-2.27c0-.12-.38-.08-.69 0s-.46.19-.43 1.39a8.41 8.41 0 0 0 .89 2.82zm5.56-3.56c.23.08 5.56-.07 5.68-.11s.11-.58.08-.81-5.61-.18-5.91 0-.06.85.15.92z" fill="#1d1d1b"/></svg>