<svg height="64" viewBox="0 0 64 64" width="64" xmlns="http://www.w3.org/2000/svg"><g fill="#1d1d1b"><path d="m59.35 27.73-9.65-.15a13.27 13.27 0 0 0 .94-1.65 14.91 14.91 0 0 0 .94-2.52 15.53 15.53 0 0 0 3.26-2.67c1.29-1.49 1.33-2.9 1.06-3.29s-.83-.36-3.3-.28-10 0-10 0a15.8 15.8 0 0 0 1.18-2 10.77 10.77 0 0 0 .94-3.46 7.54 7.54 0 0 0 2.39-2.31c.47-1.1.24-1.85-.19-2s-.67-.12-10.09.27-20.14.32-21 .28a1.78 1.78 0 0 0 -1.76 2c.19 1.1 2.7 2.35 2.7 2.35a9.15 9.15 0 0 0 .46 1.7 18.69 18.69 0 0 0 1.49 3.1s-10.17-.1-10.84-.01-1.25.4-.51 2.08a10.89 10.89 0 0 0 3 3.34 7.44 7.44 0 0 0 .31 1.92 11.73 11.73 0 0 0 1.41 3.07s-8.83 0-9.42.15-1.22 1.26-.12 2.91a8.3 8.3 0 0 0 3.1 2.55 36.73 36.73 0 0 0 4 10.25 18.16 18.16 0 0 0 8.09 7.89s0 1.65 0 2 .27 1 1.49 1.73 5.77 1.77 12.77 1.81 12-1.42 12.6-1.85.55-3 .55-3 2.63-1.49 7.73-8.13 4.68-10.17 4.68-10.17.82-.43 2-1.22a6.21 6.21 0 0 0 2.44-2.88c.18-.75-.06-1.77-2.65-1.81zm-43.14-17.94c-.08-.27.43-.39.43-.39s6.2.12 13.7.19 14.37-.66 14.53-.43-1.87 1.84-2.05 2.12a29.07 29.07 0 0 1 -.78 3.1c-.2 0-.24-2.67-1.14-2.94s-2.71 2-2.94 3.49a11.06 11.06 0 0 0 -.16 2.44l-.71.08s.47-4.75-.27-5.78-2.44-.82-3.54.67-1.17 5-1.17 5h-1.46s.16-3.3-.9-4.32-3.1-.28-3.73.27 0 4 0 4h-.86a37.25 37.25 0 0 0 -1.89-5.07c-.7-1.17-1.61-1-2.2-.47s-.11 3.58.12 4.4a5.46 5.46 0 0 0 .36 1h-1.1s-1.1-2.43-1.42-3.53a3.49 3.49 0 0 1 -.23-1.42s.94-.47.43-.9-2.95-1.24-3.02-1.51zm24.26 6.87c-.12.63-.24.51-.24.51l-1.8-.08s.08-2.47.82-3.41 1.38-1.38 1.53-1a20.2 20.2 0 0 1 -.31 3.98zm-4.2-3.89a26.43 26.43 0 0 1 -.36 4.4c-.19.08-3 0-3 0s.12-2.67 1.18-4 2.18-1.02 2.18-.4zm-6.72 4.52-2.67-.08s-.66-2.71 0-3.3 2.2-.82 2.52.51a10.11 10.11 0 0 1 .15 2.87zm-5.26-.08a7.44 7.44 0 0 1 -1.65 0s-1.37-2.36-1.17-3.69.62-1.49 1-1 2.14 4.57 1.82 4.69zm-14.6 1.65c-.14-.29 17.23 0 26 0s17.94 0 17.94 0a4.66 4.66 0 0 1 -1.49 2c-.9.51-1.77.39-2 .79s-.91 2.7-1.73 4.27l-.82 1.58h-.75s1.65-3.3 1.45-4.72a1.44 1.44 0 0 0 -2.47-1c-.94.83-1.77 3.69-1.93 4.32a12.93 12.93 0 0 0 -.23 1.41h-.71s1.14-4 .59-5.14-1.54-.68-2.25-.37a7.66 7.66 0 0 0 -2.55 3.46 7.41 7.41 0 0 0 -.51 2.15h-1.23s.55-3.69-.07-4.63-1.69-.74-2.52-.31-1.24 2.33-1.28 3.33a12 12 0 0 0 0 1.68h-1.13s.27-3.18-.35-4.28a2.19 2.19 0 0 0 -2.2-1.25 2.27 2.27 0 0 0 -1.77 2 22 22 0 0 0 .08 3.57h-1.9s-.51-4.35-1.45-5.45-2.2-.32-2.59-.08-.31 2.16-.12 3.45a9.54 9.54 0 0 0 .51 2h-1.88s-.51-4.59-1.57-5.65-2.12.28-2.2 1.53 1.14 4 1.14 4h-1.81s-1.18-4.95-1.84-5.81-1.22-.59-1.42-.51a2.72 2.72 0 0 0 -.39.19 7 7 0 0 1 -2.55-2.53zm36.75 7.58c-.36.86-.51 1.14-.51 1.14l-1.5-.12a14.17 14.17 0 0 1 1.34-4c.78-1.1 1.37-1.1 1.61-.66s-.59 2.77-.94 3.64zm-4.36 1.21-2.79-.07a6.13 6.13 0 0 1 1.41-3.7c1.38-1.41 1.73-1.37 1.93-.78a26.81 26.81 0 0 1 -.55 4.55zm-5.93.08-2.28-.08s.16-3.22.79-4 1.53-.63 1.69.19a25.07 25.07 0 0 1 -.2 3.89zm-4.95-.12h-2.55s-.51-2.47 0-3.49 1.18-1 1.61-.86.67 1.21.75 1.68.19 2.67.19 2.67zm-5.85 0h-2.43s-1.14-4-.55-4.67 1.61-.82 2 .67.59 2.9.75 3.34.23.7.23.7zm-5.61-.15h-1.3s-1.49-3-1.17-4.09 1-.9 1.25-.19 1.22 4.32 1.22 4.32zm-4.44 0a11.38 11.38 0 0 0 -1.45 0s-1.37-2.95-1.3-3.81.59-1.26.91-.9 1.84 4.71 1.84 4.71zm-.94 18.54c-.2 0-1.81-2-4-5.62s-2.23-6.55-2-6.91c.1-.17 2.36 1.42 3.77 4.68s2.43 7.85 2.23 7.85zm39.54-7.16c-1.46 2.48-4.56 7.11-5 6.52-.07-.09 4.32-9.42 5-10.21s1.1-1.21 1.29-1 .16 2.22-1.29 4.69zm3.37-6.79a12.47 12.47 0 0 1 -1.57 1.06s-.7-.94-2.08.63-3.65 7.58-5 10.33a11.78 11.78 0 0 0 -1.38 3.69 22.64 22.64 0 0 1 -3.08 2.24c-1.45.83-2 1.18-2 1.53a1.92 1.92 0 0 0 .35 1.22.71.71 0 0 0 .75 0c.27-.12.9-.67.9-.47a6.56 6.56 0 0 1 -.47 1.72c-.16.19-4.67 1.21-11.31 1.25a47 47 0 0 1 -12.25-1.25c-.47-.24-.86-.43-.86-.79s0-1.45 0-1.45a3.8 3.8 0 0 0 1.41.67 1.44 1.44 0 0 0 1.34-.75.8.8 0 0 0 .07-.78 33.07 33.07 0 0 1 -4.67-2.28 11.16 11.16 0 0 1 -2-1.49 37.44 37.44 0 0 0 -1.14-6.28l-.7-2 .11-.19a42.24 42.24 0 0 0 3.22 7c1.53 2.27 3.1 2.35 3.65 2s.63-3.81-.62-6.75-3.18-6.33-4.44-7.5-2.28-.75-2.51-.47a6.92 6.92 0 0 0 -.2 4.08s-1.88-3.22-3.1-4.08a1.47 1.47 0 0 0 -2.08.27 7.18 7.18 0 0 0 -.87-2.21c-.35-.24-1.57 0-2.51-1.45 0 0 15.08-.2 28.94-.16s26.18.08 26.26.31-1.18 1.61-2.16 2.35zm-43.38 1.53c.22-.25 2.83 2.16 4.47 6.09s1.73 7.06 1.5 7.22-2.32-1.29-4.24-5.57-2.48-6.91-1.73-7.74z"/><path d="m26.61 41.91c-.39-5.19-2.47-8.09-3.26-9s-2-.83-2.32-.39c-.58.79-.66 6.28.44 10.37s2.9 5.61 4.12 5.3 1.41-1.1 1.02-6.28zm-1.26 5.53c-.19 0-2.47-1.45-3.29-5.77s-.71-8.05-.36-8.28 2.71 1.41 3.54 6.4.31 7.61.11 7.65z"/><path d="m34.5 36.68c-.43-3.68-2.4-3.92-3.22-3.68-1.14.28-2.35 2.28-2.2 6.17s1.22 7.93 2.2 9.26 1.93.87 2.44.16 1.21-8.25.78-11.91zm-1.26 11c-.39.86-1.17.74-1.57 0a27.32 27.32 0 0 1 -1.67-8.68c0-3.65 1.14-4.83 1.57-5 .71-.33 1.69.86 1.88 2.51s.19 10.26-.21 11.13z"/><path d="m43 33.7c-.27-1.69-1.81-2-2.39-1.57s-1 .67-2.36 3.65-2 9.27-2 10.52a2.51 2.51 0 0 0 .71 2.08c.27.2 1.64-.43 3.8-4.51a19 19 0 0 0 2.24-10.17zm-3.34 9.74c-1.76 3.18-2.31 3.84-2.55 3.53s.08-5.5 1.34-9 2.31-4.79 2.63-4.91 1.25.12 1.25 1.65a22.48 22.48 0 0 1 -2.65 8.73z"/><path d="m50 32.13c-.75 0-2.43.94-4.67 4s-4 10.12-4.05 10.72.91 1 1.18 1.06.55 0 4.05-3.61a16.88 16.88 0 0 0 4.39-9.85c.1-1.3-.14-2.36-.9-2.32zm-2.24 8.75c-2.59 3.73-4.87 5.74-5.14 5.82s-.47-.4-.24-1 2-7.06 3.93-9.65 3.49-2.79 3.73-2.59.32 3.7-2.27 7.42z"/><path d="m25.94 51.49c.11-.06 2.2.07 6.28.23a42.53 42.53 0 0 0 6.52-.16 2.8 2.8 0 0 1 0 .79 41.73 41.73 0 0 1 -8 .43c-4.83 0-4.55 0-4.79-.16s-.24-1.02-.01-1.13z"/><path d="m15.54 30.79c.23-.06 8.87-.39 9-.15s.35.55-.08.7-8.75.71-8.83.44-.52-.87-.09-.99z"/><path d="m34.3 20.51c.18 0 5.46 0 5.5.12s.08.55-.12.66a34 34 0 0 1 -5.34 0c-.15-.11-.15-.78-.04-.78z"/><path d="m26.3 10.65a53 53 0 0 1 5.61.2c0 .2.12.86-.16.94a51 51 0 0 1 -5.53 0c-.28-.12-.22-1.21.08-1.14z"/></g></svg>