<svg height="64" viewBox="0 0 64 64" width="64" xmlns="http://www.w3.org/2000/svg"><path d="m38.75 37.78a4.54 4.54 0 0 0 -.29-5c-1.36-1.61-3.44.47-3.44.47s0-2.29-2.16-2.37a3.9 3.9 0 0 0 -3.26 1.82 2.85 2.85 0 0 0 -4.24.64c-1.19 1.65 1 3.94 1 3.94-1.74.29-2.76 2.46-1.61 4.45a3.75 3.75 0 0 0 3.43 1.78s-.64 3.22 3.22 3.13 3.73-2.62 3.73-2.62 2.88.55 3.6-1.87a2.86 2.86 0 0 0 -1.06-3.43 3.77 3.77 0 0 0 1.08-.94zm-4.24 1.44c.05 1.53-2.62 3.1-4.06 1.91s-.77-3.6 1.27-4.32c1.21-.43 2.75.89 2.79 2.41zm-1.51-7.16a1.93 1.93 0 0 1 1.4 1.74 5.63 5.63 0 0 0 -.68 1.48 3.11 3.11 0 0 1 -.21.77 5 5 0 0 0 -1.32-.17c-.46 0-.76 0-.76 0a9.14 9.14 0 0 0 -1-2.54s1.16-1.74 2.57-1.28zm-6.36 1.4c.59-.83 2.63 0 2.63 0a8.35 8.35 0 0 0 1 2c.51.64.51.89.51.89a5.17 5.17 0 0 0 -1.1.85 2.12 2.12 0 0 0 -.34.51l-1.4-.21a4.75 4.75 0 0 1 -1.52-2.38 1.58 1.58 0 0 1 .21-1.66zm.13 8.73c-1.23-1-2.16-3 0-4.07a2.25 2.25 0 0 0 1.18.51l1.11.17a2.35 2.35 0 0 0 -.06 1.53 2.54 2.54 0 0 0 .59 1.31s-1.59 1.53-2.83.55zm9.36-3.52c-.08.17 0 .64.09.68a1.89 1.89 0 0 1 1.53 2 2 2 0 0 1 -2.12 1.87c-.64 0-.43.17-.64 0s-.72-.93-1-.89-.51.42-.39.59.72 1.49.17 2.08a3.38 3.38 0 0 1 -3.39.38 2.24 2.24 0 0 1 -1.23-2 1.84 1.84 0 0 1 .64-.64c.47-.3.51-.42.51-.42s3.18.89 4.41-1.32.67-3.64-.22-4.41c0 0 .26-2.84 2-3s2.37 1.7 1.48 3.35a3.69 3.69 0 0 1 -1.85 1.73zm18.36-4.11s.25-2.5-1.78-2.5-3 2.46-3 2.46a1.87 1.87 0 0 0 -1.8-.52c-1.1.3-2.16 2.16-2.42 4.24s1.06 2.12 1.06 2.12c-.59.38-1.65 3.05-.63 4.53s3 .3 3 .3a1.28 1.28 0 0 0 .42.34c.21.08 2 1 3.31-.13s.85-4.19.85-4.19a5.58 5.58 0 0 0 1.73-.89 5.36 5.36 0 0 0 1.24-4.32 2 2 0 0 0 -1.99-1.44zm-3.1-1.06c1.23-.85 2.17-.42 2.29.17a2.26 2.26 0 0 1 0 1.1 3.43 3.43 0 0 0 -1 .85 3.63 3.63 0 0 0 -.34.68 3.57 3.57 0 0 0 -1.74-.17 2.64 2.64 0 0 1 .78-2.63zm-2.72 10.6c-.68.55-1.36.85-1.86-.17a3.63 3.63 0 0 1 .38-3c.17-.35 1.1-.68 1.1-.68a1.18 1.18 0 0 0 .21 1 1.93 1.93 0 0 0 .68.68s.17 1.62-.51 2.17zm.17-5.43a3.27 3.27 0 0 0 -1.4.17l-.8.47a3.21 3.21 0 0 1 .17-2.5c.63-1.53 1.19-1.81 1.19-1.81a1.39 1.39 0 0 1 1.19.25 5.92 5.92 0 0 0 .21 1.53c.21.63.47.67.42.8a4.42 4.42 0 0 1 -.98 1.09zm.76 2.38c-.38-.38-.21-2.59.89-3.44.88-.67 1.7-.59 1.74-.21s0 2.46-.76 3.18-1.47.85-1.87.47zm2.72 3.13a1.32 1.32 0 0 1 -1.57.77c-.43-.09-.68-1-.68-1a10.21 10.21 0 0 0 .47-1.65 1.8 1.8 0 0 0 1.1-.43 3.44 3.44 0 0 0 .68-.84s.42 0 .42.12a8.5 8.5 0 0 1 -.42 3.03zm3-5.25a2.27 2.27 0 0 1 -2.63.89 4.37 4.37 0 0 0 .63-1.74 3 3 0 0 0 -.08-1.14s1.06-1.66 2-1.28.64 2.5.09 3.27zm5.38-12.17c-.47 0-9.5 0-9.5 0s2.89-5 3-6.44.51-4.83-.34-5.05-9.62 0-9.62 0a5.14 5.14 0 0 0 .76-1.43 37.28 37.28 0 0 0 1.61-5.56c.17-1.65-.6-2.37-1.28-2.5s-26.44 0-27 .09-1.7 2.2-1.33 4.49a12.37 12.37 0 0 0 2.5 4.79s-8.1-.21-8.9-.13-2.5 1.57-2.16 4.45a21 21 0 0 0 2.12 6.19s-6.19-.13-6.83 0-1.64 1.02-1.73 2.88.09 7.93 4.54 15.52 10.59 9 10.59 9c.38 2 2.08 4.92 2.89 5.05s18 .17 19.62.13 3.94 0 5-.64 2.16-4.24 2.16-4.24l1.57-.46c1.57-.47 4.49-1.79 7.12-6.57s5.77-12.49 6.41-15.63-.73-3.98-1.19-3.94zm-16.36-15.85a.94.94 0 0 1 -1.31.51c-.59-.31-.88-.77-.67-1.31s.64-.65 1.39-.73a2.71 2.71 0 0 1 .83.08c.15.11.02.97-.24 1.45zm-4.85 2.66c.32-.16 1.35.16 1.35.16s.76-.19 1.18-.24a1 1 0 0 1 .92.45c.08.21-.39 1-.67 1.21s-.62.16-1.14-.16-.82 0-1.72-.16-.23-1.1.08-1.26zm-.4-1.77c0-.32.93-2 1.82-1.86s.6 1.31.6 1.31a.84.84 0 0 0 -.85.47c-.25.55 0 .72-.3.84s-1.36.22-1.27-.76zm2.64 1.2c-.79-.13-.67-.54-.13-1a1.19 1.19 0 0 1 .84-.16.94.94 0 0 1 .87.71c.03.28-.79.54-1.58.45zm-22.73-3.66s-.38-1.18 0-1.34 7.93 0 15.26 0 10.3-.26 10.47-.13 0 .85-.09.89a7.59 7.59 0 0 0 -2 0 2.32 2.32 0 0 0 -.93.76s-.47-.5-1.65 0a2.92 2.92 0 0 0 -1.7 2.72 2.26 2.26 0 0 0 .38.8s-1 .51-.63 1.32a4.43 4.43 0 0 0 .63 1.06l-4-.13s2.26-1.29 1.68-3.49a2.11 2.11 0 0 0 -2.88-1.61 4.93 4.93 0 0 0 -1.36.89s-.29-1.14-1.95-.68-1.78 1.32-1.78 1.32-1.4-.51-2 .12a5 5 0 0 0 -.64 3.22 1.5 1.5 0 0 0 .34.51h-2.5s2.46-1.61 2.08-3.69a1.91 1.91 0 0 0 -2.46-1.52 1.59 1.59 0 0 0 -1.35-2.08 3.28 3.28 0 0 0 -2.92 1.06zm13 4.24c-.17-.13.93-2.5 2.33-2.41a1.37 1.37 0 0 1 1.06 2.28 6.83 6.83 0 0 1 -2.37 2 1.12 1.12 0 0 1 -.77 0s.53-1.19-.32-1.87zm-1.19-.38c-.29 0-1.1.08-1.23-.34 0 0-.76-1.74.85-1.78s1.74 1.14 1.23 1.65-.66.47-.92.47zm.47 2.29a11 11 0 0 1 -1.44-.09s-.51-.84 0-1.14 1.44-.13 1.61.51.1.68-.24.72zm-2.55-.68a.76.76 0 0 1 -.42.59 1.32 1.32 0 0 1 -1.48-1.1c-.26-1.27-.77-1.78.38-1.78s1.52.3 1.57.68-.12 1.23-.12 1.61zm-6.73-1.45c.61 0 .79-.11.82-.19s-.65-1.38-.06-1.84 2.27-.4 1.82 1.13-1.12 2.72-1.86 2.9a1.77 1.77 0 0 1 -1.11 0l-.61-1.19s.33-.79.93-.81zm-1.21.34-.91-1.64s.86-1.41 1.75-.49-.91 2.13-.91 2.13zm-1.34-3.55a2 2 0 0 1 1.95-1.06c1.19.17 1.19.59 1.15 1s-.09.67-.26.72a4 4 0 0 0 -1.86.08c-.68.34-.81.42-.81.42a2.75 2.75 0 0 1 -.24-1.16zm-8.09 7.16c1.4-.38 24.62-.08 32.25-.17s9.07-.13 9.12.09a14.84 14.84 0 0 1 -.73 3.39c-.21.12-.84-1.53-1.82-1.4a4.23 4.23 0 0 0 -1.65.59 2.53 2.53 0 0 0 -3-.34 2.21 2.21 0 0 0 -1.19 2.8 2 2 0 0 0 -2 1.95c-.09 1.91 2.41 2.37 2.41 2.37l-8-.12s2.2-.68 1.35-3.35-2.91-1.12-2.91-1.12.81-2.25-1.14-2.21a3.68 3.68 0 0 0 -2.88 1.4s0-1.36-2.25-.72a3.15 3.15 0 0 0 -2.37 2.71s-2.55-.08-2.72 1.27a1.87 1.87 0 0 0 1.27 1.87h-5.68s2.72-1.23 2.51-3.39a2 2 0 0 0 -2.12-2 1.9 1.9 0 0 0 -1.49-2.25c-1.86-.47-3.43 1.61-3.43 1.61a2.12 2.12 0 0 0 -2-.68c-1.1.3-1.53 1.74-1.53 1.74s-1.47-3.66-.07-4.04zm33.86 4.07c.3-1.06.81-1.44 1.74-1.27s1 1.1.68 1.35-1 .09-1.1 1.06a12.71 12.71 0 0 0 -.2 1.48 3.37 3.37 0 0 0 -1 .89c-.16.38 0 .51-.25.55s-1.23 0-1.48-.3-1.19-2 0-1.82 1.23.42 1.53.3.5-.77.5-.77a1.23 1.23 0 0 1 -.49-1.47zm1.44 3.22a5.08 5.08 0 0 1 1-.59 1.59 1.59 0 0 0 .64-.5l1 .12c0 .06 0 .11.09.12a1 1 0 0 1 .63 1.36 1.68 1.68 0 0 1 -1.48 1.31 19.29 19.29 0 0 1 -2.16 0 1.19 1.19 0 0 1 .21-1.82zm3.16-1.6a2.3 2.3 0 0 0 -.47.05l-.78-.26s0-.09 0-.13a4.87 4.87 0 0 0 -.17-.93s0-1.53 1.27-1.61a1.35 1.35 0 0 1 1.33 1.88 2 2 0 0 1 -1.18 1zm-18.53 1.14c-1.78-.09-2.07 2.11-2.07 2.11l-2.76-.17s-1.65-1-1.31-1.48.59-.76 1-.59.85.55 1 .46.34-.46.34-.46a1.72 1.72 0 0 1 .51-2.01c1-.81 2-.89 2.29-.56s.08 1.23.38 1.45.72.38.85.21-.17-1.95 1.61-2.16 1.69 1.23 1.48 1.69-.3.81-.08.93a.74.74 0 0 0 .51.05s1-1.11 1.86-.55-.21 2-.64 2.45l-.72.72h-2.58s.11-2.01-1.67-2.09zm.85 2.07-1.82-.08s-.09-.89.93-.81.89.89.89.89zm-14.5-4.41c-1.69-.84-2-.12-2-.12a1.39 1.39 0 0 1 1.1-1.91c1.65-.3 2.33.38 2.42 1s-.93 1.11-.6 1.49.73.42.85.25.64-.8 1.23-.46.76.93 0 1.95a4.19 4.19 0 0 1 -1.65 1.31s.35-2.66-1.35-3.51zm-4.32 2.8h1.36a2.39 2.39 0 0 0 .8.81c.55.34.81.38.81.59s.29.47-.09.51a10.09 10.09 0 0 1 -2.84-.26c-.25-.25-.04-1.65-.04-1.65zm-.42-1.19c-.21-.25-.94-1.95-.13-2.54.61-.45 1.36.17 1.61.64a4.47 4.47 0 0 1 .38.89s.21 1.06 0 1.18a2.91 2.91 0 0 1 -1.86-.17zm3.39 1.59c-.68-.68-1.1-1.86-.34-2.29a1.44 1.44 0 0 1 2 1.19c.2 1.29-.95 1.76-1.66 1.1zm-.81 13.1c.26-.17 1.15-1.4 1.91-1.06s.34 1.78-.21 2.37a2.35 2.35 0 0 1 -1.61.56s-.09.84.08.89.64.08.77.29.29 2.12-1 2.55-2.21.29-2.46-.13a4.82 4.82 0 0 1 0-1.95s1.91 0 1.7-2.29-1.23-2.76-1.53-3.05c0 0 0-3 1.61-2.72s1.44 2.25.89 3-.8 1-.76 1.11.36.58.61.41zm-1.48 1.38c.13 1.36-1.31 1.4-1.91.51s-.89-2.33 0-2.8c.58-.3 1.78.93 1.91 2.29zm-1.48-3.56a1.2 1.2 0 0 0 -1.11 0 1.89 1.89 0 0 0 -.67.76s-1.36-.8-1.45-1.86.05-2.46 1.66-2.8a1.62 1.62 0 0 1 1.78 1.78 18.71 18.71 0 0 1 -.21 2.12zm-2.29 1.52.68.26a4.11 4.11 0 0 0 .25 2.54c.59.81 1 .85 1 .85a3.88 3.88 0 0 1 -.29 1.61.93.93 0 0 1 -.64.34 7.32 7.32 0 0 1 -2-1.4 1.89 1.89 0 0 1 -.55-1.74s1.35.21 1.65-.12 0-1.06 0-1.06-1.48 0-2-.81a1.25 1.25 0 0 1 .67-1.74s.68 1.06 1.23 1.27zm44.33 6.32c-3.39 5.59-5.17 7.37-10.47 8.05s-5.68.68-5.93 1-.59 1.48-.25 1.78 2 .21 3.94.08a17.64 17.64 0 0 0 3.09-.42s-.85 2.08-1.61 2.42-10.85.25-15.68.29-6.53-.21-7-.59a6.69 6.69 0 0 1 -1.4-2.71 17.51 17.51 0 0 1 2.72.25c.93 0 .89-1.19.93-1.65s-4.71-.17-8.86-3.35a19 19 0 0 1 -5.64-6.53 12.36 12.36 0 0 0 2.8 1.62c.93.21.93-.08.93-.08s.81 2 3.4.84 1.56-4.4 1.56-4.4 1.7-.26 1.49-2.59-1.87-1.77-1.87-1.77a2.57 2.57 0 0 0 -.93-3.14c-1.78-1.22-2.46.26-2.46.26s.13-2.38-2.16-2.21a3.23 3.23 0 0 0 -2.93 3.09 5.29 5.29 0 0 0 .22 1.48 1.26 1.26 0 0 0 -1 1.53c.13 1.4.47 1.57.47 1.57a9.39 9.39 0 0 0 -.05 2.54s-.72-.17-2-4a31.24 31.24 0 0 1 -1.27-8.86c.46-.13 15 0 33.27.25s22 .34 22.08.6a51.6 51.6 0 0 1 -5.39 14.65z" fill="#1d1d1b"/></svg>