<svg height="64" viewBox="0 0 64 64" width="64" xmlns="http://www.w3.org/2000/svg"><path d="m60.32 18.07c-.8-.19-6.5-.14-6.5-.14l-46.66.42s-1.64 0-3.22.09-2.06 2.2-1.94 4.77 2 6.3 6.82 11.25a30.66 30.66 0 0 0 10.32 6.92 8.87 8.87 0 0 0 .19 1.77c.23 1.45 2.48 2.67 3.83 2.81s17.42.14 18.64.09 3.55-1.08 4-2a5.06 5.06 0 0 0 .09-2.62 27.25 27.25 0 0 0 8.31-5.27c4.3-3.88 7.2-10.28 7.66-13s-.75-4.9-1.54-5.09zm-15.56 25.27c-.19.37-.93 1.49-4.58 1.68s-14.94.19-16.44-.23a5.24 5.24 0 0 1 -2.61-1.54c-.19-.28-.24-1.17 0-1.27a14.92 14.92 0 0 0 6 1.73 76.87 76.87 0 0 0 13.27-.23 18.47 18.47 0 0 0 4.48-1.31c.12.1.12.83-.12 1.17zm12.6-14.55a24.71 24.71 0 0 0 -2.88-3.11.74.74 0 0 0 -.84.75c0 .51 2.15 2.52 3.1 3.38a16.71 16.71 0 0 1 -1.05 1.42 32.87 32.87 0 0 0 -3.08-3.07c-.23-.05-.61.51-.61.84a24.58 24.58 0 0 0 3 3.08c-.19.2-.37.41-.58.61a3.07 3.07 0 0 1 -.26.25 16.71 16.71 0 0 0 -3-3.19c-.42-.1-.89.6-.89.84a39.77 39.77 0 0 0 2.87 3.31l-.76.73c-.6-.86-2.45-3-2.76-3s-.93.42-.84.75a33.23 33.23 0 0 0 2.76 3c-.3.28-.61.55-.92.81a14.78 14.78 0 0 0 -2.82-3.15c-.38 0-.8.42-.89.75s1.91 2.4 2.68 3.23c-.35.27-.72.54-1.1.79a21 21 0 0 0 -2.65-3.6c-.33-.14-.94.37-1 .61a29.49 29.49 0 0 0 2.69 3.63c-.35.2-.7.4-1.07.59a25.22 25.22 0 0 0 -2.74-3.66c-.42-.28-.84.37-.94.65a25.38 25.38 0 0 0 2.5 3.57 30.77 30.77 0 0 1 -11.28 2.2 31.58 31.58 0 0 1 -23.31-9c-3.78-3.69-7.38-9.57-5.7-12 .25-.35 15-.09 28.87-.28s25.46-.23 25.64.1a15.19 15.19 0 0 1 -2.14 8.17zm-47.16-1.79a6.75 6.75 0 0 1 -1.78-4.35c-.09-.32-1.08-.05-1.17.1a6 6 0 0 0 1.31 4.15 9.2 9.2 0 0 0 4 3.17c.23-.09.19-.09.23-.37s-.68-.37-2.59-2.7zm16.53-4.11c-.28.18-.56 1.16-.19 1.49s13.46-.1 13.46-.29a2.21 2.21 0 0 0 -.19-1.16c-.19-.28-12.69-.26-13.08 0z" fill="#1d1d1b"/></svg>