<svg height="64" viewBox="0 0 64 64" width="64" xmlns="http://www.w3.org/2000/svg"><path d="m49.55 10.18a45.6 45.6 0 0 0 -12-3.09 20.93 20.93 0 0 0 .05-2.78c-.09-1.16-2.33-2-4.66-2.28a11.14 11.14 0 0 0 -6.09.9c-1.16.67-.72 4.43-.72 4.43a33.81 33.81 0 0 0 -11 2.51c-5.91 2.42-7.61 5.59-7.48 7.21a4.77 4.77 0 0 0 1.88 2.86s2.29 29.15 2.82 32.51 1.66 5.82 4.3 7.21 13.57 2.82 20.78 2.28 13.25-2.41 14.46-3.71 2.11-6.23 2.81-16.39.41-22.39.41-22.39a3.8 3.8 0 0 0 1.21-2.28c.4-1.75-1.12-4.53-6.77-6.99zm-21.55-6.31a16.78 16.78 0 0 1 6.58-.23c1.7.45 1.61 1.53 1.34 4.17s-.49 4.16-1 4.34a18.62 18.62 0 0 1 -5.55-.4 2.84 2.84 0 0 1 -1.48-2.38c-.14-1.11-.32-5.23.11-5.5zm24.24 41.33c-.21 2.38-.42 4.43-.66 6.11a6.84 6.84 0 0 0 -1.58-1.23c-.27 0-.58.49-.58.67a19.06 19.06 0 0 0 1.92 2.06c-.09.5-.19.95-.29 1.36a15.26 15.26 0 0 0 -2.62-2.61c-.31 0-.49.44-.53.71a23.51 23.51 0 0 0 2.79 3.06 3.33 3.33 0 0 1 -.6 1.06 36.26 36.26 0 0 0 -3-3c-.22-.09-.67.41-.67.58s1.83 2.28 2.61 3.18c-.29.15-.64.3-1 .45a20.26 20.26 0 0 0 -2.8-3.09c-.31-.09-.54.36-.72.54s1.49 2.08 2.33 2.95l-1.05.33a14.92 14.92 0 0 0 -2.79-2.47c-.36-.09-.76.4-.85.53a20.45 20.45 0 0 0 2.42 2.26 50.55 50.55 0 0 1 -11.18 1.35c-9.4.14-14.6-1.7-16.66-3.4s-3-16.57-3.49-21.9-1.48-12.85-1.3-13.25c0 0 3.22 2.64 19 2s22.12-2.87 22.12-2.87-.28 18.48-.82 24.62zm1.39-27.85c-.23.8-7.26 4.12-22.48 3.89s-18.94-1.52-20.87-3.54 4.21-5.55 8.78-6.67 7.16-1.48 7.16-1.48a3.49 3.49 0 0 0 2.33 3.32 15.35 15.35 0 0 0 6.09.49 3.19 3.19 0 0 0 2.36-2.1 3.89 3.89 0 0 0 .26-1.71s7.57.77 12 3.23 4.59 3.76 4.37 4.57zm-38.82 7.29a9.62 9.62 0 0 0 0 3.59c.18.27.72.22.9.13a14.42 14.42 0 0 0 -.01-3.36c-.09-.27-.6-.7-.89-.36zm28.08 17.11c.1-.1-.1-2.42.14-2.42s1.74 3.76 1.88 3.8a1.51 1.51 0 0 0 .87-.74c.1-.34-2.38-5.44-2.38-5.44s.27-.14.87-.54 1-1 1.14-2.72-.94-2-1.88-2a2.9 2.9 0 0 0 -2 1v8.87c.19.26 1.26.29 1.36.19zm.1-8.6a2.77 2.77 0 0 1 .94-.43c.31 0 .64.5.47 1.47s-1.17 1.65-1.4 1.41zm-11.75 9.91a1.51 1.51 0 0 0 2.42-.71 11.76 11.76 0 0 0 .23-2.78c0-.14.74-.17 1-.24s.23-.74 0-.94a4 4 0 0 0 -1.95-.2c-.2.13 0 2.22-.17 3.16s-.4.87-.7.74-.4-1-.47-3.53.2-4.2.77-4.43.67.77.67.77a1.78 1.78 0 0 0 .54 0c.2 0 .57-.27.47-1.11a1.36 1.36 0 0 0 -1.51-1.14c-1.75.1-1.92 2-2 4.13s-.34 5.44.7 6.28zm-9.61-11.45a3.06 3.06 0 0 0 -1.2 3.39c.26 1.38 2 2.75 2 4.53s-2 3-2 3.26-.14.81.07.87a3.33 3.33 0 0 0 2-.94 4 4 0 0 0 1.14-3.22c0-1-1.81-3.49-2.05-4.37s-.43-2.75 2.09-3c.28 0 .1-.84 0-1s-.94-.13-2.05.48zm15 12c.1-.13.34-3.22.44-3.26a3.07 3.07 0 0 1 1.21 0 19.09 19.09 0 0 1 .5 3.13s1.21 0 1.28-.1-1.82-10.15-2-10.31a.87.87 0 0 0 -1.1.16c-.24.37-1.62 10.28-1.52 10.45s1.07.08 1.17-.05zm.74-7.56c.1-.13.34-.33.44-.2a10.66 10.66 0 0 1 .4 3 2 2 0 0 1 -1.21.15s.25-2.79.35-2.93zm-9.37-2.53c-.2.24-.14 6.75-.64 6.95s-.54-.1-.74-.27-.13-6.34-.13-6.58-.92-.23-.94 0-.24 4.06-.17 5.84.54 2.19 1.17 2.35a1.72 1.72 0 0 0 2.19-.94c.6-1.17.53-7.12.47-7.35s-1.06-.23-1.21 0z" fill="#1d1d1b"/></svg>