<svg height="64" viewBox="0 0 64 64" width="64" xmlns="http://www.w3.org/2000/svg"><path d="m49.55 10.18a45.6 45.6 0 0 0 -12-3.09 20.93 20.93 0 0 0 .05-2.78c-.09-1.16-2.33-2-4.66-2.28a11.13 11.13 0 0 0 -6.09.9c-1.16.67-.72 4.43-.72 4.43a33.81 33.81 0 0 0 -11 2.51c-5.91 2.42-7.61 5.59-7.48 7.21a4.72 4.72 0 0 0 1.88 2.86s2.28 29.15 2.82 32.51 1.66 5.82 4.3 7.21 13.57 2.82 20.78 2.28 13.25-2.41 14.46-3.71 2.11-6.23 2.81-16.39.41-22.39.41-22.39a3.77 3.77 0 0 0 1.2-2.28c.41-1.75-1.11-4.53-6.76-6.99zm-21.55-6.31a16.84 16.84 0 0 1 6.59-.23c1.7.45 1.61 1.53 1.34 4.17s-.49 4.16-1 4.34a18.62 18.62 0 0 1 -5.55-.4 2.82 2.82 0 0 1 -1.48-2.38c-.15-1.11-.33-5.23.1-5.5zm24.24 41.33c-.21 2.38-.42 4.43-.66 6.11a6.84 6.84 0 0 0 -1.58-1.23c-.27 0-.58.49-.58.67a19.06 19.06 0 0 0 1.92 2.06c-.09.5-.19.95-.29 1.36a15.26 15.26 0 0 0 -2.62-2.61c-.31 0-.49.44-.53.71a23.51 23.51 0 0 0 2.79 3.06 3.33 3.33 0 0 1 -.6 1.06.1.1 0 0 1 -.05 0 35 35 0 0 0 -3-3c-.22-.09-.67.41-.67.58s1.83 2.28 2.61 3.18c-.29.15-.64.3-1 .45a20.26 20.26 0 0 0 -2.8-3.09c-.31-.09-.54.36-.72.54s1.54 2.08 2.38 2.95l-1.05.33a14.92 14.92 0 0 0 -2.79-2.47c-.36-.09-.76.4-.85.53a20.94 20.94 0 0 0 2.41 2.26 50.37 50.37 0 0 1 -11.17 1.35c-9.41.14-14.6-1.7-16.66-3.4s-3-16.57-3.49-21.9-1.48-12.85-1.3-13.25c0 0 3.22 2.64 19 2s22.12-2.87 22.12-2.87-.28 18.48-.82 24.62zm1.39-27.85c-.23.8-7.26 4.12-22.48 3.89s-18.94-1.52-20.87-3.54 4.21-5.55 8.78-6.67 7.16-1.48 7.16-1.48a3.49 3.49 0 0 0 2.33 3.32 15.35 15.35 0 0 0 6.09.49 3.19 3.19 0 0 0 2.36-2.1 3.89 3.89 0 0 0 .26-1.71s7.57.77 12 3.23 4.59 3.76 4.37 4.57zm-38.83 7.29a9.83 9.83 0 0 0 0 3.59c.18.27.72.22.9.13a15 15 0 0 0 0-3.36c-.09-.27-.6-.7-.9-.36z" fill="#1d1d1b"/></svg>