<svg height="64" viewBox="0 0 64 64" width="64" xmlns="http://www.w3.org/2000/svg"><path d="m61.19 33.06c-.19-.78-3.06-4.06-8-5.75a45.18 45.18 0 0 0 -9.82-2.09l-.1-.65a4.73 4.73 0 0 0 -4.49-2.63c-3.35.06-4.52 1-5.07 1.62s-.46 2.31-.46 2.31-.32 0-1.5.1-2.4.2-2.4.2 1-14.58.91-15.58-.75-1.86-3.35-2.59a57.75 57.75 0 0 0 -6.22-1.26 11.85 11.85 0 0 0 -.06-2.31 4.93 4.93 0 0 0 -5-2.44c-3.22.29-4.33 1.33-4.49 1.59a22.91 22.91 0 0 0 0 3.32 22.51 22.51 0 0 0 -4.56 1.2c-1.95.79-3.58 2.45-3.74 3.2s.61 8.36 1.16 15.42 1.73 17.63 2.19 19.71a5.28 5.28 0 0 0 3.9 3.78c1.37.19 8.59.26 8.59.26s.49 4.45 1.36 5 4.69.78 4.69.78.1 2 .13 2.11.13.23.81.85a9.41 9.41 0 0 0 5.89 2.79c3.28.23 8.36.23 11.64-1.14s3.29-3.58 3.29-3.58a51 51 0 0 0 6-.26c4.81-.36 6.14-2 6.5-3.09s2.4-20.09 2.2-20.87zm-23-9.92c2.31-.14 3.75 1.3 3.81 1.86s-1 .94-3.9.87-3.45-.39-3.48-.94c-.02-.29 1.2-1.66 3.54-1.79zm3.68 3.42s-.1 2.24-.82 2.53a18.83 18.83 0 0 1 -5.3 0c-.75-.19-1-2.63-.65-2.83.1-.05.39.65 3 .72a10.44 10.44 0 0 0 3.74-.42zm-8.26 1.79a2.05 2.05 0 0 0 1.26 1.75c1.21.46 3.84.39 5.66.2a2.53 2.53 0 0 0 2.35-1.6 2.43 2.43 0 0 0 .22-1 40.44 40.44 0 0 1 8.75 1.75c4.66 1.5 6 2.83 6 3.29s-7.29 2.57-19.85 2.67-16.36-1.41-18.09-1.79-1.56-1.27-.68-2 6.38-3.21 14.35-3.27zm-6.21-1.77.07-.06s0 0 0 0zm-11.4-22.79c1.85 0 2.66.42 2.73.84s-1.63.62-2.86.62-3.19.13-3.22-.55c-.07-.33 1.44-.94 3.35-.91zm-3.4 2.34a26.08 26.08 0 0 0 3.12.39c1.75.1 3.48-.29 3.54-.16a11.92 11.92 0 0 1 -.13 3.09 21 21 0 0 1 -4.06.32 3.31 3.31 0 0 1 -2.41-.88c-.23-.26-.33-2.76-.06-2.76zm-7.71 5.76c-.13-.59 2.18-2.67 6.57-2.74a3 3 0 0 0 1.72 1.44 9 9 0 0 0 4.26.48 4.06 4.06 0 0 0 2.77-1 2.17 2.17 0 0 0 .58-.81 37.21 37.21 0 0 1 5.08.78c1.3.42 1.46.52 1.49.74s-4.65 2.54-12.81 2.38-9.55-.69-9.66-1.27zm5.79 36.2c-1.18-.16-2.44-1.59-2.68-3.77s-3-29.93-2.92-30.16c0 0 3.06 1.24 10.51 1.05a46.67 46.67 0 0 0 12.88-2.48c.11.11-.32 6.14-.65 10.2a6.47 6.47 0 0 0 -1.89-1.51.72.72 0 0 0 -.58.84 16.76 16.76 0 0 0 2.35 2.09c-.05.54-.09 1-.13 1.36a31.78 31.78 0 0 0 -2.87-2.47c-.2-.1-.75.55-.79.75a30.28 30.28 0 0 0 2.73 2.77l-1.21.24a28.32 28.32 0 0 0 -2.36-2.1c-.29-.26-.75.33-.85.49a12.61 12.61 0 0 0 1.93 1.9c-1.41.34-3.07.78-4.53 1.29-3.35 1.17-3.67 3.28-3.41 5.59s2 14 2 14-6.36.08-7.53-.08zm14.57-1.92c.06-.23 1.72-2 5.53-2.63a3.93 3.93 0 0 0 .65 1.46 10.61 10.61 0 0 0 4.39.75c2.11 0 2.76-.68 3-1a3.77 3.77 0 0 0 .33-1.24s3.41.88 4.81 1.44 1.47 1.17 1.43 1.36-1.75 1.47-10.08 1.5-10.13-1.41-10.06-1.64zm9.75-3.51c2.61 0 2.74-.1 2.77.06s.13 1.63-.13 1.83-1.4.22-3.55.06-2.05-.68-2.24-.94a2.26 2.26 0 0 1 -.13-1.37s.65.39 3.28.36zm-3.25-1.86c.13-.42 2-.61 3.87-.61s2.28.71 2.31.94.36.85-2.89.81-3.48-.51-3.29-1.14zm13 14.31a17.31 17.31 0 0 0 -1.3-1.88 1.3 1.3 0 0 0 -.75.65 18.91 18.91 0 0 0 1.79 2.94 4 4 0 0 1 -.23 1 .88.88 0 0 1 -.26.18c-.51-.86-2.1-3.06-2.18-3.11s-.62.16-.78.45 1.39 2.28 2 3.12a6.71 6.71 0 0 1 -.69.26 31.12 31.12 0 0 0 -2.22-2.95c-.22-.23-.84.1-1 .32a17.1 17.1 0 0 0 2.15 3c-.31.09-.63.17-1 .25a17.31 17.31 0 0 0 -2.45-2.91c-.23-.17-.75.32-.85.52a16.85 16.85 0 0 0 1.89 2.66 19.64 19.64 0 0 1 -3 .26c-4.33.07-8.75-1.56-9-1.95a66.71 66.71 0 0 1 -1.2-9.11s2.7 1.14 9 1.31a39 39 0 0 0 10.78-1.12s-.39 3.52-.75 6.11zm13.41-9.39a10.44 10.44 0 0 0 -1.28-1.79c-.19-.07-.52.88-.52 1.1a21.27 21.27 0 0 0 1.6 2.48q-.1 1-.21 1.83a18.59 18.59 0 0 0 -2-2.78c-.26-.1-.55.46-.62.69a35.46 35.46 0 0 0 2.36 3.75c-.06.45-.11.85-.17 1.2-.82-1.2-2.27-3.2-2.41-3.36s-.84.42-.84.68 2.1 3.07 2.87 4.11a3.34 3.34 0 0 1 -1.08.49c-.5-.86-2.3-3.64-2.44-3.72s-.82.2-.91.49a22.81 22.81 0 0 0 2.15 3.54c-.48.1-1 .2-1.56.29a23.61 23.61 0 0 0 -2.1-2.82c-.2-.1-.59.22-.75.52s1.06 1.69 1.71 2.47c-.79.1-1.58.17-2.27.19-2.73.1-3 .07-3 .07s1.31-9.76 1.17-10.15a12.19 12.19 0 0 0 -5-3 14.53 14.53 0 0 0 -3.86-.77s.23-1.73-.23-2a16.57 16.57 0 0 0 -4.39-.36 10.19 10.19 0 0 0 -3.74.91c-.29.3-.16 1.63-.16 1.63a27.51 27.51 0 0 0 -5.44 2.08c-2.17 1.22-1.94 2.51-1.94 3.27s1.27 7.12 1.07 7.25a6.64 6.64 0 0 1 -2.66-.13c-.2-.23-3.26-18.31-3.09-18.64.08-.16 3 2.08 11.45 2.28a176.65 176.65 0 0 0 20.65-.59 32.56 32.56 0 0 0 7.19-1.52 4.47 4.47 0 0 0 1.5-.62s-.54 5.78-1.1 10.93zm-30.11 5.79a42 42 0 0 0 .68 4.55c.13.2.78.1 1-.19s-.82-4.2-.91-4.36-.75-.14-.77 0zm-1.21-17.83c.36 0 .43-.68.33-.78s-1.6-.16-1.5-.62 1.53-.71 2-.81.16-.94.16-1.14a16.19 16.19 0 0 0 -2.8.65 1.24 1.24 0 0 0 -.32 1.95 3.05 3.05 0 0 0 2.13.75zm-19.68-15.74c-.13.26.59 9.92.69 10s1 0 1.07-.2-.42-10-.49-10.18-1.2.25-1.27.38z" fill="#1d1d1b"/></svg>