<svg height="64" viewBox="0 0 64 64" width="64" xmlns="http://www.w3.org/2000/svg"><path d="m58.07 25.16c.88-1.83 1.66-8.72-1.28-13.54a19 19 0 0 0 -13.5-9.33c-6.16-1-15.62.28-21.5 2.25s-11.99 7.08-14.19 10.38-3.08 7.9-2 13.92 2.8 7.62 8 11.11 12.67 2.57 12.67 2.57-.13 1.38-.13 1.75-.33 2 .87 2.3a1.72 1.72 0 0 0 2-.46 5.6 5.6 0 0 0 .88-1.24s.18 11.34.22 11.85a6.06 6.06 0 0 0 2.25 3.9 12.74 12.74 0 0 0 9.51 1 24 24 0 0 0 10.13-6.62c1.52-1.84 2.16-4.83 1.61-6.07s-5-9.59-5-9.59a5.88 5.88 0 0 0 1.24-.34c.28-.19.46-.51.55-1.24s-1.56-2.85-1.56-2.85a22.3 22.3 0 0 0 2.76-2.3c1.65-1.61 5.6-5.61 6.47-7.45zm-37.7 9.74a14.65 14.65 0 0 1 4.27.51c1.7.41 2.39.68 2.43 1a6.72 6.72 0 0 1 -.23 1.38s-4.59.09-6.38-.09c0-.04-.46-2.7-.09-2.8zm12.77-5.65a6.6 6.6 0 0 1 -1.7 1.47 25.07 25.07 0 0 0 -2.44-3.08 9 9 0 0 1 -1.6-1.64 10.84 10.84 0 0 1 2.15-1.52c.78-.36 1.75-.91 2.07-.59s.41 2 .83 3.26a16.1 16.1 0 0 1 .69 2.1zm-.42-6.11a4.43 4.43 0 0 1 1.47-.46c1.06-.18 1.75-.27 1.89 0s.5 5.28.5 5.28a14.7 14.7 0 0 1 -2.53 1 45.58 45.58 0 0 1 -1.33-5.82zm-3.12 6.8c.87 1.24 1.15 1.61 1 1.88a16.52 16.52 0 0 1 -1.47 1.38 11.69 11.69 0 0 0 -6.1-4 4.82 4.82 0 0 1 1.42-1.56c.87-.55 1.56-1.06 2-.87a14.61 14.61 0 0 1 3.15 3.17zm-3.17 1.93a5 5 0 0 1 2.11 2.25c0 .18-.82 1.42-1.1 1.38a23.41 23.41 0 0 0 -4-1.66c-1.7-.36-2.9.19-3.13 0a8.87 8.87 0 0 1 .74-2.25c.59-1.29 1.15-1.56 1.33-1.61a20.11 20.11 0 0 1 4.05 1.89zm.46 8.54a51.14 51.14 0 0 1 -5.65-.23s-.69-1.42-.32-1.56a58.68 58.68 0 0 1 6.29-.14 8.37 8.37 0 0 1 -.32 1.93zm24.39 11.12a4 4 0 0 1 -.32.88 11.78 11.78 0 0 0 -3.08-1.3c-.37 0-.92.23-.78.55a19.63 19.63 0 0 0 3.2 1.84 12.25 12.25 0 0 1 -1.17 1.41 32.11 32.11 0 0 0 -4.05-2.6c-.46-.14-1.15.36-1.15.64a35.69 35.69 0 0 0 4.31 2.81c-.24.21-.5.42-.77.63a28.14 28.14 0 0 0 -5.24-2.61c-.37 0-.32.46-.18.73a46.4 46.4 0 0 0 4.39 2.62c-.48.31-1 .62-1.55.92l-.54.26a20.66 20.66 0 0 0 -3.68-2.42c-.23 0-.78.27-.69.73s2 1.63 3 2.26a13.46 13.46 0 0 1 -1.42.43 17.74 17.74 0 0 0 -2.79-1.63c-.32-.09-.78.41-.73.69a7.12 7.12 0 0 0 1.57 1.3 11.68 11.68 0 0 1 -4.92-.29 4.33 4.33 0 0 1 -2.21-1.93c-.26-.66-.41-2.8 3.63-5a21.57 21.57 0 0 1 11.49-2.72c3.49.27 3.91.6 3.68 1.8zm-2-6c.3.52.57 1 .79 1.4a50.57 50.57 0 0 0 -5.31-.41c-.33.09 0 .5.09.68s4.69.81 5.87 1c.26.54.52.91.19 1s-5-.78-8.27-.13a23.89 23.89 0 0 0 -7.9 3.07 10.92 10.92 0 0 0 -2.66 2.62s.32-10.56-.14-11.07-.87-1.24-.78-1.33 2.85-.18 3.35-.73.19-2.3 1-3.13 1.47-1.56 2.25-1.1 1.43 1.56 2 1.7a1.64 1.64 0 0 0 1.56-.51c.51-.45.74-2.52 1.61-2.15s.73 1.42 1.42 2.11 1.2.5 1.2.5l1.58 2.76a12.84 12.84 0 0 0 -3.7.14c-.32.23.19.64.28.87a23.9 23.9 0 0 0 4.13.23l.67 1.17a41 41 0 0 0 -4.51-.22c-.32.09.05.73.1 1a37.53 37.53 0 0 0 5.18.58zm0-7.74c-.32.28-.69.32-.82.14s-.83-.88-1.29-.83-1.06 1-1.38 1.1-.73.19-.78 0a12.76 12.76 0 0 1 -.83-1.74c-.18-.69.14-1.33-.78-1.52s-1.83.69-2.29 1.52-.81 1.54-1.11 1.47-.92-1.7-2.3-1.84-3.44 1.8-3.63 2.21-.09 2.62-.68 2.89-2.81.09-3.45.65-1.28 3.53-1.84 3.72a.8.8 0 0 1 -1-1.06 48.71 48.71 0 0 0 1.24-5.7c.28-2.15.37-2.89.41-3.07a20.12 20.12 0 0 1 4.85-5.33 9.63 9.63 0 0 1 7.8-1c2.67.73 4.14 1.7 5.24 3.72s2.98 4.44 2.66 4.72zm-12.06-15.43a13.16 13.16 0 0 1 2.21-.09c.87.05 1.33.05 1.33.28s-.69 5.37-.83 5.37l-2.57-.05s-.36-5.46-.14-5.51zm7.9 1.7a4.3 4.3 0 0 0 -1.93 1.75c-.5 1.14-.23 2.52-.59 2.57a5.66 5.66 0 0 1 -1.52-.46 19.94 19.94 0 0 1 .46-3.86c.37-1 .37-1.51.6-1.51a11.35 11.35 0 0 1 2.34.78c.52.27.78.59.64.73zm1.47.51c.37.09 1.24 1.19 1.61 1.47s.51.64.32.78-1.7.27-2.43 1.33-.92 1.93-1.15 1.84-.74-.92-1.61-1.2a7 7 0 0 1 1-2.75 3.15 3.15 0 0 1 2.26-1.47zm3.13 6.15c-.19.14-2.35 1.88-2.35 1.88s-.92-1.47-1.51-2.2a7.3 7.3 0 0 1 1.74-2.07 2.92 2.92 0 0 1 1.89-.59 3 3 0 0 1 .51 1.79c0 .69-.1 1.05-.28 1.19zm-6.43-9.09c-6.71-1.61-11.21 0-16.49 3.17s-7.21 5.2-7.67 8.31a19.78 19.78 0 0 0 .6 6.89s-7.4-1.79-10.34-6.66-2.16-12-.64-15.48 5.51-8 14.47-11 18.23-3.79 24.78-.43a15.21 15.21 0 0 1 7.44 7.77 9.44 9.44 0 0 0 -1.29-.84 6.68 6.68 0 0 0 -2.48-.6c-.41.05-.28 1.2 0 1.29a7.8 7.8 0 0 1 2.43.69 5.69 5.69 0 0 1 2.11 1.88 15.54 15.54 0 0 1 .37 2.67c-.72-.68-1.93-1.66-2.43-2a9.76 9.76 0 0 0 -2.66-1.19c-.28 0-.23.83-.14 1a19.12 19.12 0 0 1 2.39 1.24 16.6 16.6 0 0 1 2.79 2.6 10.36 10.36 0 0 1 -.53 2.3c-.43-.51-1.1-1.22-1.68-1.8a7.44 7.44 0 0 0 -3.16-1.93c-.56 0-.51 1.11-.51 1.11a4.71 4.71 0 0 1 2.16 1.05 23.39 23.39 0 0 1 2.71 2.78 12 12 0 0 1 -.85 1.55 10.71 10.71 0 0 0 -1.67-1.89 12.44 12.44 0 0 0 -3.4-2.34c-.32 0-.55.55-.55.82s1.24.55 2.8 2.11a8.82 8.82 0 0 1 1.81 2.5 4.51 4.51 0 0 1 -.43.44 12.71 12.71 0 0 1 -2.16 1.75 10.34 10.34 0 0 0 -7.78-7.76zm-9.79 22.55s.14 3.76.19 4 .69 0 .92-.09 0-3.72-.14-3.91-1.16 0-.97 0zm-17.82-28.8c-.36 0-1.74.78-3.76 3.81a8.12 8.12 0 0 0 -1.24 6.07c.09.27 1.24.23 1.28 0a16.88 16.88 0 0 1 .83-4.83c.83-2.25 3.54-4.18 3.67-4.41s-.41-.59-.78-.64z" fill="#1d1d1b"/></svg>