<svg height="64" viewBox="0 0 64 64" width="64" xmlns="http://www.w3.org/2000/svg"><path d="m61.74 33.85c-.68-3.08-5-14-5.34-14.12s-2.17 1-3.12 1.22-2.76-.13-2.54-3.17a4.92 4.92 0 0 1 3.4-4.16c.58-.32.77-.36 1.08-1s-1.9-6.93-2.31-7.42a5.91 5.91 0 0 0 -2.89-2c-1.77-.71-16.21-1.3-16.79-1.26s-2.67 1.63-5.89 4.94-11.27 11.22-11.34 11.63 2 3.44-.59 6.15-6.38.86-6.88.82-6.44 7.2-6.53 7.74c-.09.36 4.66 9.82 5.52 10.36s1.58-.18 3.85-1.58 4.84.05 5.11 3.4-4 4.07-5.16 4.61-.27 2.45 1.31 5.62 4.17 6.28 5.37 6.42 2.22-.77 7.87-3.67 11.77-5.47 12-5.66a2.27 2.27 0 0 0 .41-1.49 3.85 3.85 0 0 1 2.49-4.39c2.9-1.09 3.89.81 4.21.81s2.08 0 5.88-2.94 10-5.7 10.5-6.15 1.06-1.63.38-4.71zm-3 3.56a26 26 0 0 0 -4.56-1.41 1.19 1.19 0 0 0 -.5.86 23.14 23.14 0 0 0 3.87 1.4c-.56.38-1.2.79-1.87 1.21a9.53 9.53 0 0 0 -3.22-.93c-.63-.05-.81.31-.77.68s1.75.88 2.53 1.14c-2 1.19-4 2.34-5.24 3.11-3 1.86-2.63 2.17-3 1.86a6.4 6.4 0 0 0 -5.3-1.18 6.86 6.86 0 0 0 -4.79 4.66c-.32 1.18-.09 2.08-.28 2.45s-7.1 3.21-11.4 5.7-5 3-5.3 2.85a46.58 46.58 0 0 1 -4.34-5.3c-1.27-1.85-1.49-2.71-1.27-2.94s6.43-2.26 5.16-7.33-5.29-5.2-7-4.8-2.49 1.27-2.9 1-4.16-6.54-4.07-7.09 4.3-5.52 5.16-5.35 6.83.91 8.46-3a11.57 11.57 0 0 0 .72-6.7c.17-.2 13.72-14.19 14.62-14.37s14.44.86 16 1.45 1.9 1.4 2.4 2.76a10.45 10.45 0 0 1 .68 3.62 5.84 5.84 0 0 0 -3.67 5c-.41 4.07.5 6.15 3.08 6.42s3.35-.49 3.66-.18a51.1 51.1 0 0 1 2 5 21.27 21.27 0 0 0 -3.17-.16c-.45.05.09.45.36.86s2.41.59 3.3.69c.21.6.41 1.2.6 1.78a13.79 13.79 0 0 0 -3.08-.57c-.72.05-.32.45-.36.82s2.87 1.17 4 1.5c.2.67.37 1.29.5 1.81a22.51 22.51 0 0 0 -4-1 .72.72 0 0 0 -.41.9c.11.33 3.19 1.41 4.54 1.88a4.74 4.74 0 0 1 -1.13.9zm-10-27.23c.14-.18-.23-.59-.54-.77s-.37.23-1.09.72-11.44 8.33-19.81 13.87-20.14 9.32-20.51 9.44-.09 1 .32 1 2-.4 7.24-2.44 7.83-3.44 15.65-8.24a224.16 224.16 0 0 0 18.75-13.58zm-22.35 22.09c-1-1-3.8-.82-5.79 1.17s-2.08 4.56-1.09 5.25 3.35.77 5.75-1.22 2.17-4.21 1.13-5.2zm-5.84 5.65c-1.31-.77-.31-4.07 3.31-5a1.49 1.49 0 0 1 1.9 2c-.45 1.69-3.89 3.77-5.21 3zm16.45-15.92c-4.39 3.71 0 7.24 2.08 6.84s4.71-2.76 3.58-5.57-4.5-2.27-5.66-1.27zm5.07 3.4a3.05 3.05 0 0 1 -4.76 1.81c-1.44-1.27-1.44-4.44 1.95-4.85a2.59 2.59 0 0 1 2.84 3.03zm-14.91 15.87c-1.45 1.9-2.22 4.53-1.4 5.62s3.35 1.4 6.15-.55 2.95-5.34 1.59-6.56-4.5-.95-6.34 1.49zm1.49 5.39c-1.72.13-2.44-1.58-1.49-3.4a6.68 6.68 0 0 1 2.94-2.94c1.14-.52 2.58-.63 2.9 1.41s-2.63 4.79-4.35 4.93zm19.19-16.07c-2.3 1.27-2.85 3.17-1.9 4.89s3.13 2 5 1.31 2.18-3.17 1.45-4.8a3.15 3.15 0 0 0 -4.55-1.4zm.16 5.12c-1.54-1.14-2-3.76 1-4.44a2.74 2.74 0 0 1 2.8 2.81c.2 2.12-2.24 2.76-3.8 1.63zm-18.92-17a6.91 6.91 0 0 0 5.43-3.08c.59-1 .9-2.44-1.5-3.35a6.22 6.22 0 0 0 -5.88 1.13 5.45 5.45 0 0 0 -1.76 3.26c-.02 1.33.52 2.38 3.74 2.02zm-2.54-2.58a5.21 5.21 0 0 1 3.7-3.13c2-.49 3.66.32 3.76 1.4s-2.58 3-4.62 3.4-3.8.2-2.81-1.69z" fill="#1d1d1b"/></svg>