<svg height="64" viewBox="0 0 64 64" width="64" xmlns="http://www.w3.org/2000/svg"><path d="m13.67 28.08a13.29 13.29 0 0 0 2.1-3.47c0-.32-.68-.27-.91-.23s-2.16 3.09-1.86 3.38c0 .05.35.46.67.32zm1.87 1.51a26.69 26.69 0 0 0 2.7-4.43c0-.32-.55-.41-.87-.36s-2.24 4.2-2.28 4.33c0 0 .22.5.45.46zm42.69-8c-1.47-.68-10.64-4.38-11.46-4.56s-2.88 1-2.88 1a5.67 5.67 0 0 0 -2-2.6c-1.19-.59-11.09-4.93-12.28-4.61s-12.51 7.58-12.51 7.58l-.55 2.33a7 7 0 0 0 -2.74-.51c-.91.15-10.41 6.08-10.91 6.78s-1 7.85-1 7.85c.36 1.46 6.71 4.88 14.52 8.4s17.43 9.95 19.76 10 6.58-3.52 14.29-11.05 11.6-11.6 11.55-13.42-2.33-6.54-3.79-7.23zm-12-2.6c1.09-.09 8.53 3 9.67 3.75s1.78 1.73 1.6 2.19a95.57 95.57 0 0 1 -9.4 7.44c-1 .5-2.15.55-4-.46s-6.94-3.92-7.3-4.11-.87-1.28-.69-1.46 9.06-7.34 10.16-7.34zm-8 11.23a26.44 26.44 0 0 0 -3.15-2s.36-.32.59-.23 7.53 4.89 9 5.34 1.92.6 2 .73.45 3 .22 2.92-1.68-1.91-2.19-2.32-3.91-2.79-6.42-4.48zm5.06 5.71c-.13.5-6.71 5.11-7.07 5.25a7.1 7.1 0 0 1 -3.61-.55c-1.5-.63-8.48-3.37-8.8-3.63s-.28-.91-.1-1c.55-.28 8.81-6.8 9.36-6.8a32.6 32.6 0 0 1 3.47 1.05c1.46.41 3.06 2.28 4.29 3.19s2.65 1.95 2.51 2.45zm-22.59-16.75a68.66 68.66 0 0 1 6.57-4.93c2.47-1.55 3.25-1.6 3.47-1.6s9.09 3.47 8.91 3.75-8.08 6.75-9.18 7.25a3.78 3.78 0 0 1 -2.88-.18c-.32-.18-3.65-1.64-5-2.28s-2.3-1.6-1.89-2.01zm-1.87.18c.27 0 .55 0 .55.19s.13.86 2.46 2.37a36.42 36.42 0 0 0 7.85 3.29h.51a13.19 13.19 0 0 0 1.37 2.1.58.58 0 0 0 .41-.64c-.09-.27-.69-1.41-.69-1.55s8.72-7.9 9.31-7.85 2.2 2.33 2 2.56-6.9 5.2-7.22 5.79-.86 2.42-1 2.47-1.87-.18-2.56.32-1.55 1.09-1.55 1.09-.58-1.5-3.27-3.43a42.43 42.43 0 0 0 -7.71-4.07 2.24 2.24 0 0 1 -1.1-.87c.1-.19.37-1.77.64-1.77zm-3.65 2.38c.55 0 11.36 4.65 11.32 5.52s-8.08 5.89-8.77 5.89a50.66 50.66 0 0 1 -8.21-3c-2.74-1.28-4.11-2.33-4-2.7.18-.81 9.11-5.76 9.66-5.71zm3.47 20.13c-.32 0-7.35-3.43-9.63-4.48s-4.62-2.92-4.71-3.39c-.12-.68.09-5.11.64-4.93s6.05 3.49 9.36 4.63 3.56 1 3.69 1.3 1 6.87.65 6.87zm1.14-1.33c0-.5-.05-4.88-.32-5.25a3.5 3.5 0 0 1 -.41-1.23c.18-.13 8.53-5.93 8.9-5.7s1.64 1.82 1.46 2.05-6.66 5.16-7.08 5.75-2.55 4.89-2.55 4.38zm18.26 9.77c-.6.46-1 .87-3.2-.18s-14.65-7.21-14.74-7.76 2.69-4.61 2.83-4.52 11.55 4.57 12.32 4.66a4.21 4.21 0 0 0 2.42-.73c.37-.32 6.8-5.89 7.35-5.53s3 4.8 2.83 5.12-9.22 8.49-9.81 8.94zm15.95-14.47c-3.2 3.34-5.35 5.3-5.44 5.12s-.18-3.11-.54-5-.69-2.46-.51-2.51a31 31 0 0 0 7.49-4.82c2.65-2.56 3.29-3.42 3.7-3.24a7.86 7.86 0 0 1 1.35 3.61 73.94 73.94 0 0 1 -6.05 6.84zm-26.77-16.11a22.42 22.42 0 0 0 2.46-4.25c0-.36-.54-.41-.77-.36a31.76 31.76 0 0 0 -2.33 4.24c-.05.14.41.41.64.37zm3.1.64a23.33 23.33 0 0 0 2.61-4.48c0-.45-.55-.32-.83-.27s-1.59 4.38-2.28 4.38c-.04 0 .23.46.5.37zm3.38 11.5c-.23.18-2.78 4.93-2.92 5.21 0 0 .64.54.91.5a35.57 35.57 0 0 0 2.88-5.39c0-.27-.64-.5-.87-.32zm2.56 1.6c-.32.09-2.33 4.34-2.42 4.47s.36.28.64.14a28.17 28.17 0 0 0 2.42-4.15.55.55 0 0 0 -.64-.46zm8.08-6.53a25 25 0 0 0 2.65-4.56c.09-.55-.36-.55-.73-.46s-2.56 4.61-2.56 4.61.41.47.64.41zm3 1.46c.36.05 2.41-3.79 2.41-4.06a.65.65 0 0 0 -.82-.55c-.45.14-2 4-2.1 4.25a.65.65 0 0 0 .48.36z" fill="#1d1d1b"/></svg>