<svg height="64" viewBox="0 0 64 64" width="64" xmlns="http://www.w3.org/2000/svg"><path d="m61.12 16.21c-.73-3.49-3.7-7.29-8.33-11s-11.37-3.6-14-2-7.92 7.14-8 7.29a.5.5 0 0 1 -.62.21c-.26-.1-2-3.91-4.48-4.27s-5.74.67-8.39 5-.94 11.78-.94 11.78-12.82 14.05-13.19 14.67a3.94 3.94 0 0 0 -.52 3c.42 1 2.66 4 9.9 10.58s11.88 9.69 12.3 9.85a5.2 5.2 0 0 0 3 .36c.94-.36 7-6.77 12.61-12.87s17.41-19.18 19.29-23 2.1-6.1 1.37-9.6zm-2.19 4c-.41 2.31-3.43 6.79-11.88 16.79s-20.17 21.79-20.9 21.74-7.34-4.74-13-10-8.36-8.61-7.48-10.12c.25-.42 12.93-13.81 13.19-14.33a2.14 2.14 0 0 0 0-1.41c-.05-.2-1.36-4.79-.16-8.39a7.6 7.6 0 0 1 6.67-4.9c1.46.16 3 2.66 3.13 3.55s.36 2.29.83 2.4a8 8 0 0 0 1.46.05 17.52 17.52 0 0 1 7.4-8.76c5.68-3.39 11.16-.62 14.91 2.4s6.25 8.6 5.83 10.94zm-20.32 4.39a5.52 5.52 0 0 0 -.37-1.92c-.36-.84-1.82-2.66-5.15-2.66s-6.47 2.13-6.57 5.47 3.65 9.4 4.12 9.54a17.2 17.2 0 0 0 11.2-1.46c3.54-2 3.54-4.9 1.77-7.19s-5-1.78-5-1.78zm1.2 8.45c-4.33 1.25-6.31 1.14-8.44.67-.16 0-4.43-5.73-3.39-8.7a5.13 5.13 0 0 1 6.15-3.65c2.55.63 3.23 2.24 3.28 3.23s.16 1.93.31 1.88 4.17-.63 5.22 1.41 1.19 3.91-3.13 5.16zm-28.51 4.58a1.06 1.06 0 0 0 -.52-.94c-.31-.1-2.5 1.91-2.5 2.14s.52 1 .83.94a9.48 9.48 0 0 0 2.19-2.14zm5.16-5.1a.78.78 0 0 0 -.47-.79 29 29 0 0 0 -3.7 2.92c-.1.16.47 1 .78 1a19 19 0 0 0 3.39-3.13zm2.61-4.43c-.26-.06-1.85 1.3-1.78 1.72s.32.93.58 1 1.66-1.57 1.72-1.93a.82.82 0 0 0 -.52-.79zm2.76-2.1a10.79 10.79 0 0 0 1.25-2.81c.05-.37-.31-.37-.57-.37a8.77 8.77 0 0 0 -1.72 2.5c0 .22.83.68 1.04.68zm.41-6.36a9.62 9.62 0 0 0 .06-2.76c-.06-.42-.63-.26-.94-.05s-.2 2.61-.05 2.76a.71.71 0 0 0 .93.06zm1.05-7.5a4.44 4.44 0 0 0 -1.72 2.19c0 .15.67.41 1.09.31s.05-.16.26-.73 1.2-1.3 1.2-1.56-.21-.51-.83-.2zm3 3.13c.36.36 0 .88.05 1.4s.68.16.89 0a4 4 0 0 0 -.11-2.19 1.13 1.13 0 0 0 -1.12-.66 2.7 2.7 0 0 0 -.11.93c0 .42.11.16.42.53zm3.91 3.28a1.82 1.82 0 0 0 1.3-.52.86.86 0 0 0 .26-.84c-.1-.21-.36-.1-1.09.11s-1.32-.19-1.41 0 .28 1.21.96 1.26zm3.49-2.82a10.68 10.68 0 0 0 2-2.39c.21-.42-.26-.47-.52-.47s-1.9 1.74-1.82 2 .15.82.36.87zm4.53-4.84a7.1 7.1 0 0 0 1.67-1.46c.11-.21-.31-.52-.83-.47a2.38 2.38 0 0 0 -1.41 1.25.59.59 0 0 0 .59.69zm4.9-2.09a27.72 27.72 0 0 0 3.34.11c.31-.16.1-.47-.52-.89a6.06 6.06 0 0 0 -3.18-.31c-.14.16-.45 1.1.38 1.1zm9.65 5c.31.26.57-.37.67-.63s-.21-.78-.83-1.62a5.08 5.08 0 0 0 -2.76-1.66c-.47 0-.26.73-.16.88s.16.16 1.2.78 1.58 2.01 1.9 2.27zm.78 2.34s.26.83.52 1.62-.05 1.82.15 2.08.68.21 1 .05.11-.67 0-1.77a4.34 4.34 0 0 0 -.62-2.08c-.2-.24-1.03.12-1.03.12zm-.16 7.56a22.72 22.72 0 0 0 -2 3.65c0 .31.47.31.73.41s2.08-3.49 2.13-3.75-.67-.5-.84-.29zm-5 6.62a35.42 35.42 0 0 0 -3.39 3.4s.21.73.62.84 3.15-3.18 3.38-3.56-.33-.66-.59-.66zm-6.93 8.13a18.75 18.75 0 0 0 -2.71 2.71s.26.67.46.78a15.26 15.26 0 0 0 2.79-2.94c.1-.27-.32-.53-.52-.53zm-7 6.82a26.89 26.89 0 0 0 -3.18 3.13s.32 1 .52 1a40.11 40.11 0 0 0 3.55-3.33c.24-.15-.49-.83-.86-.78zm-24.36-4.09c-.26-.11-.73.62-.73.62a28.47 28.47 0 0 0 2.4 2.61c.31.1.62-.21.78-.63s-2.19-2.5-2.45-2.6zm4.69 4.22c-.36-.21-.76.8-.57 1a15.4 15.4 0 0 0 2.6 2.4c.58.15.53-.53.58-.89s-2.24-2.3-2.61-2.51zm5.84 4.9c-.26-.16-.92.49-.83.62s2.44 2.4 2.65 2.5.47-.46.58-.78-2.14-2.19-2.4-2.34zm7.5 2a17.92 17.92 0 0 0 -2.45 2.29s.32.47.68.47 1.64-1.58 2.09-2.06-.06-.72-.32-.67zm-7-6.25c-.36.52 1.93 4.11 2 4.32 0 0 .47.16.68 0s-1.3-4.37-1.67-4.87-.62.05-.99.58zm5.79 5.21c.36-.16-1.52-5.84-1.78-6s-.78.16-.93.68 1.92 5.26 2 5.42a1.25 1.25 0 0 0 .73-.07zm.2-6.2c-.15.41 1.41 4.32 1.46 4.58 0 0 .47.21.73-.05s-1.09-4.85-1.3-5.11-.71.19-.87.61zm2.71-1.26a14.76 14.76 0 0 0 .73 3.55s.52 0 .68-.37a13.5 13.5 0 0 0 -.47-3.85c-.19-.29-.77.08-.92.7z" fill="#1d1d1b"/></svg>