<svg height="64" viewBox="0 0 64 64" width="64" xmlns="http://www.w3.org/2000/svg"><g fill="#1d1d1b"><path d="m60.62 17.12c-.8-.21-4.84.55-5 .51a17.81 17.81 0 0 0 -4.38-2 32.84 32.84 0 0 0 -8.59-1.52s.34-4 .3-4.75 0-2.44-1.6-2.87-9.05-.16-12.71.09-7.37.8-8.08 1.85-.34 6.74-.34 6.74-.93 0-5.77.92a24.74 24.74 0 0 0 -8.16 3 17.66 17.66 0 0 0 -3.41-.33c-.89.12-1.48 1.34-.34 2.82s4.7 2.42 4.7 2.42l.13 6.1s-1.43 0-2 .08a5.31 5.31 0 0 0 -2.44.8c-.38.42-.3 3.41-.26 3.88s.17.42 1.14.84a24.84 24.84 0 0 0 3.91.84s0 4 .38 7.7 1 6.06 2.49 7.92a7.45 7.45 0 0 0 4.12 2.27 4.87 4.87 0 0 0 .25 1.14 5.24 5.24 0 0 0 1.52 2.1 22.16 22.16 0 0 0 4.46 0c.42-.17.84-1.9.84-1.9a60.36 60.36 0 0 0 10.53 1.06 64.72 64.72 0 0 0 11.36-.93s1.14 1.77 1.48 1.81 3.45 0 4.16-.38 1.41-3.33 1.41-3.33a5.84 5.84 0 0 0 1.14-.42 9 9 0 0 0 2.82-3.92c.89-2.31 1.94-14.06 1.94-14.06s3-.5 3.28-1a19.88 19.88 0 0 0 .3-5.09c-.13-.76-3.29-1.14-3.29-1.14l.47-6a9.57 9.57 0 0 0 1.93-.92c.93-.59 2.61-1.64 2.74-2.32a2.14 2.14 0 0 0 -1.43-2.01zm-39.4-7.7c.21-.59 2.77-1.68 7.7-2.06s11.66 0 12.08.29.55 8.13 0 8.63a1 1 0 0 1 -1.3 0c-.09-.12-.3-.16-.38-2.1s.13-4.17-.72-4.34a45.46 45.46 0 0 0 -9.47.38c-4.33.59-5.3 1.56-5.51 2.07s.38 4.2.21 4.46-2.15.59-2.57-.34c.04.04-.26-6.41-.04-6.99zm17 4.63c-.25.17-10.86.51-13.59.51a9.34 9.34 0 0 1 -.05-2.15c.17-.21 1.9-.93 7-1.22s6.32-.38 6.61 0a5 5 0 0 1 .03 2.86zm-22.73 3.49c2.36-.37 5.1-.67 5.1-.67a1.68 1.68 0 0 0 1 .93 6.59 6.59 0 0 0 3.2-.13c.26-.21.21-1.26.21-1.26s2.66-.17 6.49-.25 7.03-.16 7.03-.16.29.93.8 1.14a6 6 0 0 0 2.73 0c.47-.21.76-1.14.76-1.14a28.47 28.47 0 0 1 5.6.67c2.48.63 5 1.35 4.59 1.69s-8.84 1.09-23.07 1.3-20.79-.25-20.79-.25a43.57 43.57 0 0 1 6.35-1.87zm-11.95 16.93a12.31 12.31 0 0 1 0-2.19c0-.3.46-.84 1.26-1.05a14.1 14.1 0 0 1 2.65-.17v.88s-1.39.06-1.89.06-.13.37-.13.63.51.25 2.53.21a12.79 12.79 0 0 0 2.94-.13c.13-.13 0-.63 0-.88s-1.22 0-1.39-.13 0-.76 0-.76h.59a10.8 10.8 0 0 1 2 .09c.34.12.42.84.51 1.13s-.34 0-.59-.08-.3.25-.25.67 1 2.44.8 2.87-1.81.37-4.09 0a23.87 23.87 0 0 1 -4.94-1.15zm16.58 22.39a12.5 12.5 0 0 1 -3.45-.17c-.29-.17-1-1.81-.72-2a15.53 15.53 0 0 1 2.95.55 4.79 4.79 0 0 0 1.94.21s-.04 1.28-.72 1.41zm28.58-.5a14.52 14.52 0 0 1 -3.53.16c-.21 0-.63-1.05-.25-1.13l3.08-.59a7.67 7.67 0 0 0 1.56-.42s-.35 1.72-.86 1.98zm1.9-4.17c-1.1.59-11 3.24-20.46 2.48s-15.78-2.19-17-2.9a3.28 3.28 0 0 1 -1.81-2.4c0-.17.89.34.89.34s7 2.86 18 2.94a70.48 70.48 0 0 0 19.45-2.52c1.77-.34 3.16-1.18 3.37-1.06s-1.35 2.53-2.44 3.12zm3.88-14.41a4 4 0 0 0 -1.19-.37c-.29 0-.54.26-.46.47a9.07 9.07 0 0 0 1.52 1.12c0 .33-.07.67-.11 1a17.66 17.66 0 0 0 -1.79-1c-.29-.12-.67.47-.67.8s1.54 1 2.32 1.32c0 .39-.09.77-.14 1.14a6.35 6.35 0 0 0 -2.1-1.4.56.56 0 0 0 -.46.67 14 14 0 0 0 2.42 1.87c0 .28-.07.54-.11.78v.19a14 14 0 0 0 -2.84-1.75c-.29 0-.38.42-.29.72a18.93 18.93 0 0 0 3 1.93c-.06.44-.1.81-.14 1.11a26.2 26.2 0 0 0 -3.08-2.28c-.38-.13-.51.29-.59.59s2.59 2.21 3.51 2.88a.7.7 0 0 1 -.06.19 5.25 5.25 0 0 1 -.72.28 13.17 13.17 0 0 0 -3.28-2.55c-.38-.13-.42.37-.38.67a18.93 18.93 0 0 0 2.8 2.18l-.9.29a11.06 11.06 0 0 0 -2.66-2c-.42-.13-.5.17-.67.59s1.42 1.31 2.21 1.79c-4.15 1.22-11.2 2.91-17.49 2.88-9.6 0-18.27-2.27-19.7-2.9a11.25 11.25 0 0 1 -1.94-1 63.52 63.52 0 0 1 -.76-6.65c-.16-3.29-.16-3.58-.16-3.58s4.21.42 4.63-.72.38-4.8-.26-5.85a2.68 2.68 0 0 0 -2.73-1.3c-1 .12-1.69.25-1.69.25s-.21-5-.12-5.14a84.05 84.05 0 0 0 9.81.85 223.31 223.31 0 0 0 26.35-.93c5.68-.67 10.06-1.64 10.06-1.64l-1 6a21 21 0 0 0 -3.16.08 2.92 2.92 0 0 0 -1.55 1.43 40.07 40.07 0 0 0 0 4.67 1.23 1.23 0 0 0 1 .84c.59.09 3.66.13 3.66.13s.01.5-.09 1.35zm5-7.35c.12.75.17 3.53-.59 3.78a40 40 0 0 1 -6.53.38c-.88-.08-1.09 0-1.17-.21a17.11 17.11 0 0 1 .33-3.38c.2-.2.3-.34.51-.17a10.56 10.56 0 0 0 3.33.75c1.85.21 2.23.17 2.44 0s.46-.8.25-1-.55.05-1.31.05-3 0-3-.17 0-.51.26-.55a7.59 7.59 0 0 1 .84 0s-.25.34.12.34 1.52.25 1.65 0 .08-.47.25-.55 2.45-.03 2.58.73zm.21-10.86s-4.38 3.19-17.18 4a235.58 235.58 0 0 1 -27.82.33 23.27 23.27 0 0 1 -9.51-2.4c-1.18-.71-1.22-1-1-1.09.45-.23 3.45.63 5.17.76s9.31.58 20.71.46a165.17 165.17 0 0 0 23.11-1.56c3.25-.59 6.32-1.18 6.49-1a.46.46 0 0 1 -.01.5z"/><path d="m12.59 26.72c.17-.08 1.18-.29 1.22.09s.21 2.4-.13 2.44-.8.38-1-.13a9.74 9.74 0 0 1 -.09-2.4z"/><path d="m13.47 39.56c0-.13 1.14-.25 1.26.13a43.52 43.52 0 0 1 0 6.27c-.17.17-.71.34-.92.08s-.34-6.31-.34-6.48z"/><path d="m22.77 39.27c.21-.26 1.35-.38 1.6.12s.17 1.22-.84 1.35-1.05-1.1-.76-1.47z"/><path d="m26 33.79c.21-.15 1.34-.16 1.47.42s-.47 1.39-1.2 1.06-.84-1.06-.27-1.48z"/><path d="m35.11 32.4c.42-.21 1.51-.08 1.64.47a1 1 0 0 1 -1.39 1 .82.82 0 0 1 -.25-1.47z"/><path d="m39.61 38c.19-.19 1-.59 1.43-.17a1.22 1.22 0 0 1 .21 1.48 1 1 0 0 1 -1.43.25 1.25 1.25 0 0 1 -.21-1.56z"/><path d="m37.47 38c-2.28-3.2-7.28-2.74-8.63-1.94-4.72 2.78-3.29 8.09-1.14 10.44s6.73 2.07 8.42.72 3.62-6.06 1.35-9.22zm-6.47 8.25c-3.36-.67-4.33-4.21-4.42-4.8a3.87 3.87 0 0 1 .3-1.51 10.6 10.6 0 0 0 2 .88c.25 0 .67-.54.59-.71s-2-1-2-1.27a6.22 6.22 0 0 1 3.16-2.18c1.58-.43 6.27.29 6.48 4a5.15 5.15 0 0 1 -6.11 5.59z"/></g></svg>