<svg height="64" viewBox="0 0 64 64" width="64" xmlns="http://www.w3.org/2000/svg"><path d="m32.73 18.2c1.37.29 2.17-.14 2.27-.47s-.1-.42-1-.47a9.06 9.06 0 0 1 -2.41-.75c-.59.28-.22 1.41 1.14 1.69zm21.27 17.43c-1.57-3.25-7.18-4.63-7.18-4.63a13.07 13.07 0 0 0 -1.74-7.16c-2.08-3.84-7.63-3.84-7.63-3.84s0-2.5-.05-4.52-3.58-2.17-3.58-2.17v-1.69a3.43 3.43 0 0 0 1.18-.53 4.5 4.5 0 0 0 1.41-4.38c-.52-2.55-2.92-4.71-3.49-4.71s-.89 0-1 1.37-2.4 2.4-2.26 5a3.07 3.07 0 0 0 2.45 3l.05 2.22s-2.5.37-3.06 1.22-.19 5-.19 5-4.88.5-7 2.9-3.38 7.29-3.38 7.29c-8.13.21-10.39 9.77-8.93 13.87s6.5 5.09 6.5 5.09a41.64 41.64 0 0 0 1.32 6.78c1 3.63 4.15 6.13 5 6.22s16.67.24 17.76 0 3.86-2.22 5.51-6.31a63.64 63.64 0 0 0 2.68-8.86 11.47 11.47 0 0 0 4.34-2.45 7.88 7.88 0 0 0 1.29-8.71zm-23.15-27.63c0-.82 1-1.42 1.46-2.55s.24-1.79.71-1.74a5.36 5.36 0 0 1 2.4 4 2.64 2.64 0 0 1 -2.64 2.78 2.15 2.15 0 0 1 -1.93-2.49zm-.75 7.21a3.6 3.6 0 0 1 2.26-.71c0 .14-.1.94.28 1.13s.94-.05 1-.33.09-.75.09-.75 2.5-.33 2.59.94-.14 10.5-.37 12.11-.85 2.35-2.5 2.3-2.35-.7-2.59-1.55c-.45-1.54-1.14-12.6-.76-13.11zm14.43 35.7a7.37 7.37 0 0 0 -1.81-.89c-.33 0-.7.47-.7 1 0 .41 1.33.93 2 1.18-.19.51-.4 1-.61 1.53a10.78 10.78 0 0 0 -2.79-1.3.7.7 0 0 0 -.8.89c.11.35 2.27 1.18 3.11 1.49-.24.48-.48.93-.72 1.32a11.89 11.89 0 0 0 -2.72-1.39c-.71-.19-.94.33-.9.66a13 13 0 0 0 2.89 1.71 5 5 0 0 1 -1.32 1 20.74 20.74 0 0 0 -2.89-1.77c-.18-.1-.84.37-.84.8 0 .27 1 1 1.71 1.52-.64.06-1.27 0-1.86 0-1.79 0-5.6-.23-9.23-.09s-3.78.24-5.05-.57-1.46-3.39-2.41-5.56-1.41-3.39-1.41-3.39a15.46 15.46 0 0 0 4.33-.47 24.37 24.37 0 0 0 3.77-1.79 9.68 9.68 0 0 0 6.45 2.21 14.86 14.86 0 0 0 6.55-2.69 20.75 20.75 0 0 0 4.1 1.37 6.72 6.72 0 0 0 2.12.23s-.38 1.33-.97 3.03zm.47-5.76c-3.62-.71-4.8-2-5.89-1.93s-3.62 3.39-7.34 2.92-4.76-3.3-5.56-3.2-5.52 4.94-9.9 3.11-4.8-5.47-3.48-8.91 5-5.46 8-4.8c0 0 .42-4.48 2.68-7a11.74 11.74 0 0 1 5.49-3.18s.43 6.69 1.18 7.59a4.54 4.54 0 0 0 3.72 1.41 3.52 3.52 0 0 0 3.21-2.73c.14-1.18.37-6.13.37-6.13s4.38.66 6.17 4 .05 6.08.15 7 1 1.23 1.17 1.32 6.08 1 6.65 3.72-3.01 7.52-6.62 6.81zm-19.71-19.27c-.33.38-.61 1.09-.05 1.27s1.51-.14 1.46-.89-1.03-.81-1.41-.38zm-1.53 4.45c-.43.54-.81 1.57-.06 1.84a1.42 1.42 0 0 0 1.92-1.3 1 1 0 0 0 -1.86-.54zm4.32-1.14c-.52-.13-1.39-.07-1.39.51a1 1 0 0 0 1.48.89.73.73 0 0 0 -.09-1.4zm1.92 3.16c-.53-.13-1.39-.07-1.4.51a1 1 0 0 0 1.48.89.73.73 0 0 0 -.08-1.4zm9.18-1c-.52-.13-1.39-.07-1.39.51a1 1 0 0 0 1.48.89.73.73 0 0 0 -.12-1.44zm-24.67 7.15a1 1 0 0 0 .75 1.56.73.73 0 0 0 .7-1.22c-.37-.39-1.13-.84-1.45-.34zm2.21-3.44a.87.87 0 0 0 .62 1.3.61.61 0 0 0 .57-1c-.3-.36-.91-.7-1.19-.3zm2.28 3.53a.87.87 0 0 0 .61 1.3.61.61 0 0 0 .58-1c-.27-.34-.89-.7-1.19-.3zm29.12-.36c-.52-.12-1.39-.06-1.39.52a1 1 0 0 0 1.48.89.74.74 0 0 0 -.06-1.41zm-7.32-11.44c-.52-.13-1.39-.07-1.39.51a1 1 0 0 0 1.48.89.73.73 0 0 0 -.09-1.4zm2.61 9.88c-.62-.15-1.65-.08-1.65.61a1.25 1.25 0 0 0 1.77 1.07.88.88 0 0 0 -.12-1.68zm-18.5 13.9c-.37-.24-1.3.07-1.17.37a37.87 37.87 0 0 0 2.35 4.81c.28.09.66 0 .94-.57s-1.74-4.38-2.12-4.61zm6.22 1a21.1 21.1 0 0 0 -.13 3.85c.14.24.71.14 1.13-.05s.33-3.15.14-3.62a.71.71 0 0 0 -1.14-.15zm7.87-1.85c-.42-.14-1.6 1.52-1.51 2a1.11 1.11 0 0 0 1 .56c.47 0 .85-1.13 1-1.88s-.07-.54-.49-.68z" fill="#1d1d1b"/></svg>