<svg height="64" viewBox="0 0 64 64" width="64" xmlns="http://www.w3.org/2000/svg"><path d="m26.83 3c-.67.38-1.15 14.14-1.34 14.43s-.58.09-1 0 .19-14-.1-14.14-1.83-.39-2.12.09-.82 13.24-1.11 13.62-.29.1-.67-.09 0-13.66-.49-13.85-2.11-.49-2.69.19-1 15.87-.77 21.93 4 8 4 8-.63 23.17-.54 24.32 1.06 3.85 3 3.85a3.34 3.34 0 0 0 3.36-2c.2-.87.29-26.55.29-26.55a13.3 13.3 0 0 0 2.21-5.39c.29-2.69.77-23.18.58-23.85s-1.93-.99-2.61-.56zm1.17 20.56a1.91 1.91 0 0 0 -1.3-.56c-.39.1-.39.83-.29 1.13s1 .73 1.44 1c-.07.79-.15 1.49-.24 2.05-.68-.58-1.92-1.41-2.28-1.2s-.59.59-.49.74 1.6 1.27 2.4 1.89c-.25.41-.51.79-.76 1.14a17.09 17.09 0 0 0 -2.62-1.85 1.09 1.09 0 0 0 -.94.83 12.72 12.72 0 0 0 2.63 2.21c-.55.66-.94 1.09-.9 1.2s.14 25.11.07 26.05a1.8 1.8 0 0 1 -1.81 1.58c-.86 0-1-.93-1-3.75s.51-23.95.22-24.24-3.33-1.38-3.54-4.78-.15-22.15-.08-22.8a1.91 1.91 0 0 1 .65 0c.22.07.36 12.63.65 13.13s.72 1 1.23 1 .72.14.94-.29.79-13.25 1.02-13.54.79-.43.79-.22-.43 13.42-.36 13.64a2 2 0 0 0 1.8.57 1.88 1.88 0 0 0 1.37-1.44c0-.29.58-12.41.8-12.62s.86-.36.94-.15.09 12.15-.34 19.28zm19.52-20.07c-.08-.72-.72-1.08-2-1.23s-4.26-.72-5.7.51-3.39 8.37-3.68 11.47-.43 13.78.36 16.52 3.95 3.24 3.95 3.24-1.09 21.8-1.09 24.25 1.45 3.75 4 3.75 2.82-.94 3-2.09 1.23-55.7 1.16-56.42zm-2.35 20.39a3.82 3.82 0 0 0 -1.61-.41c-.35.05-.3.83-.2 1.42.07.43 1.2.71 1.79.82v1.35a7.55 7.55 0 0 0 -1.93-.7c-.34 0-.49.89-.44 1.23s1.67 1 2.35 1.34v1.53a18.76 18.76 0 0 0 -2.72-1.35c-.34-.1-.54.44-.44.88s2.15 1.41 3.15 1.9c-.16 13.87-.42 27.87-.68 28a3.36 3.36 0 0 1 -2.09.07c-.79-.14-.86-.79-.94-1.88s1.45-24.17 1.23-24.81-4-2.1-4.47-2.89c-.72-1.08-.58-7.36-.07-13.64s2.59-12 3.46-12.41 3.46-.14 3.68.29c.05.19.03 8.85-.07 19.26z" fill="#1d1d1b"/></svg>