<svg height="64" viewBox="0 0 64 64" width="64" xmlns="http://www.w3.org/2000/svg"><path d="m50.09 23.53c-.26-2.89-2.06-5.31-4.17-5.66s-8.68-.44-8.68-.44 1-1.66 1-6.4-2.45-9.3-6.24-9.03-5.26 2.1-6.09 6.53a16.48 16.48 0 0 0 1 8.69 57 57 0 0 0 -8.69.09c-3.22.39-4.11 3.81-4.37 5.69s-.22 25.58 0 29.79a10.28 10.28 0 0 0 3.33 7.76c1.58 1.54 3.42 1.45 8.29 1.5s17.47-.27 19.4-.18a5.27 5.27 0 0 0 4.39-1.87c1.18-1.27 1-2.94 1.05-5.36s.04-28.21-.22-31.11zm-2 13.38a4.71 4.71 0 0 0 -1.36-.35c-.39 0-.17.57-.13.79s1.27.69 1.49.78v2.16a4.8 4.8 0 0 0 -1.84-.92c-.53 0-.22.53-.18.79a11 11 0 0 0 2 1.55v2.51a4.41 4.41 0 0 0 -2.19-1.22c-.57.05-.31.44-.22.75a14.43 14.43 0 0 0 2.39 1.82v2.57a11.9 11.9 0 0 0 -2.59-1.85c-.48-.13-.66.4-.57.71a27.29 27.29 0 0 0 3.11 2.56v1.91a16 16 0 0 0 -3.35-2.47c-.57-.09-.53.35-.44.92s2.69 2.15 3.79 2.84c0 1.28 0 2.18-.05 2.54v.05a30 30 0 0 0 -3.86-3.56c-.31 0-.57.44-.39.88a47.63 47.63 0 0 0 4.11 3.81 5 5 0 0 1 -.68 1.8 37.31 37.31 0 0 0 -4-4.17.7.7 0 0 0 -1 .62c0 .39 3.25 3.14 4.49 4.17a3.27 3.27 0 0 1 -1.46.7h-.23a32.67 32.67 0 0 0 -3.93-3.6c-.31-.18-.88.3-.84.52s2.28 2.32 3.29 3.28c-.62 0-1.38.06-2.22.08a13.2 13.2 0 0 0 -3.13-3c-.53-.13-.79.13-.83.53s1.83 1.78 2.73 2.46c-5.2.11-12.77.05-15.87-.18-4.61-.35-6.5-1-7.33-3.91s-.53-9.91-.61-17-.09-15.57 0-16.58.92-2.5 3.33-2.55 8.21-.09 8.21-.09a11.92 11.92 0 0 0 1.49 2.29c.4.22 1.8-.22 1.62-1.1a12.84 12.84 0 0 0 -1.24-2.75c-1.46-2.93-2.32-7.07-1.45-10.23s3.12-4.12 5.36-3.16 3.77 5.79 2.72 9.57-2.94 6.58-2.64 7.15 1.23 1.05 1.58.7a24.42 24.42 0 0 0 1.54-2.63s6.58-.18 8.42.57a4.73 4.73 0 0 1 2.87 4.18c.07.73.08 6.43.07 12.76zm-13.49-27.46a2.79 2.79 0 0 0 -5-1 3 3 0 0 0 .79 3.77c1.14 1.05 4.83.04 4.21-2.77zm-3.6 1.75a1.69 1.69 0 0 1 -.43-2.2 1.6 1.6 0 0 1 2.89.6c.35 1.65-1.76 2.23-2.46 1.6zm-11.18 10.27a2.15 2.15 0 0 0 -1.76 1.62c-.09.4-.13 4.52-.13 4.52.13.62 1.23.4 1.4.22s0-4.16.36-4.56 3.37-.13 3.77-.35.17-1 0-1.36-2.46-.22-3.64-.09z" fill="#1d1d1b"/></svg>