<svg height="64" viewBox="0 0 64 64" width="64" xmlns="http://www.w3.org/2000/svg"><path d="m34.41 24.09a24.44 24.44 0 0 0 0 3.73c0 .23.65.26.91.13s.26-3.57.1-3.8a.78.78 0 0 0 -1.01-.06zm17.25-11.09c-.3-.74-5.28-4-6.32-4.55a3.28 3.28 0 0 0 -3.42.55c-.57.69-2.3 9.92-2.3 9.92l-1.12-.09-2-.17.35-7.54.86.26c.44.13 1.17 1.39 1.35 1.48a.72.72 0 0 0 .73-.26c.26-.26-.48-2.65 1.13-4.42a8.35 8.35 0 0 1 3.76-2.25c.35-.22.31-.18.35-.65s-1.26-.65-3.12-1.13-6.27-1.15-6.27-1.15a1.15 1.15 0 0 0 -.22-.48 2 2 0 0 0 -2.16-.43c-1 .34-.65 1.47-.65 1.47s-7.45 5.07-8.1 5.84.39 1.26.39 1.26a9.89 9.89 0 0 0 1.1-.37c.56-.21 1.26-.52 2.86.57s.95 3 .95 3.16.48.3.74.21.34-.34 1.56-1.47a8.68 8.68 0 0 1 2.72-1.64l-.34 7.57a19.25 19.25 0 0 1 -1.95 0c-1.6 0-3.33.17-3.33.17a8.69 8.69 0 0 0 -2.6-5.24 8.41 8.41 0 0 0 -11.74.13c-4.11 3.86-3 9.57 0 12.78s7.79 1.64 7.79 1.64a67.63 67.63 0 0 1 1 11c.13 6.71-1.13 16.8-1.21 18.27a2.6 2.6 0 0 0 1.51 2.86c1.09.48 3.6 1.91 12 1.69s11.04-3.5 11.04-3.99-.09-.69-.91-4.59-.57-9.7-.44-16.76 1.25-14.75 1.03-15.65-3.16-1.65-3.16-1.65l1.73-5.59s3.42 2.82 3.85 3a2.07 2.07 0 0 0 2.17-.52 4 4 0 0 0 .39-3.24zm-12.5 7s-.23 1.07-.52 1.11-2.47-.1-2.47-.1v-1.21zm-3.54-15.95c.13 0 7.5 1.17 7.34 1.3a25 25 0 0 0 -3.09 2.11 8.85 8.85 0 0 0 -1.23 3.05c0-.1-3.41-5.72-3.35-6s.2-.43.33-.46zm-4.94 7.17c-.1-.13-1.69-2.5-3.87-2.3 0 0 6.08-4.32 6.4-4.32s.36.1.39.29a63.21 63.21 0 0 1 -2.92 6.33zm3.6-1a24.15 24.15 0 0 0 -2.66 1.26s2.7-6.43 3.12-6.33 2.47 4.78 2.26 4.85a7.64 7.64 0 0 0 -2.72.22zm-3.18 9.51a21.89 21.89 0 0 1 3.35 0v1.24a34.86 34.86 0 0 1 -5.81-.29 8.92 8.92 0 0 1 2.46-.95zm-8-5.16c.48.1 2.4 1.85 2 2.24a21.14 21.14 0 0 1 -3.54 2.11c-.32.07-.49 0-.39-.29.09 0 1.49-4.16 1.98-4.06zm-2.57 6.37c-.84-.13-.91-.69-.62-1.08a1.13 1.13 0 0 1 1.4 0 .73.73 0 0 1 -.73 1.08zm-1.46-6.5c.36-.29 2.79-.42 2.73 0s-1 3.93-1.6 3.86c.05-.03-1.44-3.57-1.08-3.86zm-2.37 1.75c1.33-1.13 1.36-1.07 1.49-.94s1.62 3.35 1.33 3.61-3.8-.26-4.28-.49a3.88 3.88 0 0 1 1.51-2.18zm-1.53 5.88s-.29-2.43.1-2.63a8.19 8.19 0 0 1 3.41.52 1.05 1.05 0 0 1 0 .78c-.08.1-3.2 1.56-3.46 1.33zm.46 1c-.11-.38 3.08-1.79 3.47-1.79s.75-.22.75.17a33.27 33.27 0 0 1 -1.27 4.35c-.05.04-2.42-.9-2.9-2.69zm3.41 2.5c-.04 0 1.44-3.57 1.77-3.57s.42-.29.48 0 .62 3.35.59 3.51-1.07.82-2.79.1zm3.05-5c-.07-.16-.2-1-.07-1.07s3.32-2.34 3.61-2.08 1.07 3.34.75 3.31-4.18.01-4.24-.15zm1.46 2.14c.16-.1 3.25 0 3.25.2a8.19 8.19 0 0 1 -1.27 2.37 7.52 7.52 0 0 1 -1.23.91 23.83 23.83 0 0 1 -.7-3.47zm19.49 21a118.35 118.35 0 0 0 .74 12.11c.36 1.95.23 2.18.23 2.18s-3 1.36-9.19 1.49-9.82-.95-10.02-1.37a1.1 1.1 0 0 1 -.06-.78 117 117 0 0 0 1-16.92 81.9 81.9 0 0 0 -.88-11.27s.52.85 2.63.46 2-.85 3.34-.43 1.86 1.37 3 1.17 1.46-.91 2.08-.91.78-.09.85.1-.72 3-.52 3.15.61.23.68 0a21.85 21.85 0 0 1 .81-2.79 2.4 2.4 0 0 0 2.08.26c1.19-.39 1.98-1.16 2.82-1.16s1.56.26 1.56.45-1.19 9.87-1.1 14.22zm1.52-21.4c.1.26-.13 5.55-.45 5.68a13.09 13.09 0 0 1 -2.08.13 22.57 22.57 0 0 0 .49-3.73 1.92 1.92 0 0 0 -1.27.13 31.25 31.25 0 0 1 -.68 4.22 4.45 4.45 0 0 1 -1.95.32c-.52 0-1-.06-1-.16a33.13 33.13 0 0 0 1-3.57c-.06-.23-.65-.39-.71-.17s-1 3.61-1.14 3.61a8.09 8.09 0 0 0 -1.82 0c-.39.13-.52.45-.87.52a2.81 2.81 0 0 1 -1.3-.2 4.61 4.61 0 0 0 -2.56-1.09c-1.42 0-1.49.75-2.46.81a5 5 0 0 1 -2.37-.23c-.82-.29-.75-1.52-.75-1.52a11.18 11.18 0 0 0 2.08-1.59 6.45 6.45 0 0 0 1.36-2.5s4.39.26 9.09 0 7.34-.97 7.44-.7zm4-8.54a4.58 4.58 0 0 0 -.39.87l-3.87-3s.52-1 .26-1.17a.76.76 0 0 0 -.91.23c-.16.23-.84 1.56-.45 1.75s1.17.75 1.17.75-2.11 7.47-2.4 7.63a3.32 3.32 0 0 1 -2.15-.06c-.08-.06 2.21-9.33 2.54-10.36s.71-2 2.92-.91a17.21 17.21 0 0 1 4.29 3.34 3.54 3.54 0 0 0 -.93.89zm.88 2c-.75-.59-.1-2.27.71-2.34.29 0 .88.16.81 1s-.7 1.89-1.44 1.31zm-15.03 28.09a71.6 71.6 0 0 0 1.73-8.25c-.07-.26-.74-.27-.82 0s-1.46 7.7-1.49 8.06.36.23.58.19zm.1 7.38c-.06-.2-.75-.26-1-.43s.32-4.19.35-4.48-.89-.06-1 0-.78 4.68-.43 5a3.2 3.2 0 0 0 1.92.48c.23-.02.23-.38.16-.57zm2.7-9.36c-.2.26-2.34 8.64-2.34 8.9s.45.39.68.39a91.58 91.58 0 0 0 2.45-9.06c-.08-.23-.66-.41-.79-.23zm3.24-10.62c-.32 0-2.18 7.17-2.17 7.28 0 .42.49.35.71.32a56.63 56.63 0 0 0 2-7.31c.01-.35-.21-.32-.54-.29zm-10.45 2.74c.87.45 1.39-.29 1.33-1.07a.84.84 0 0 0 -1.37-.65c-.58.38-.87 1.22.04 1.72zm4.64-.23a7.41 7.41 0 0 0 .32-2c0-.26-.57-.32-.68-.13a7.07 7.07 0 0 0 -.39 2.08c0 .43.56.04.72.01zm-4.32 2.73c-.29.49-.16 1.49.49 1.62s.81-.78.71-1.23-1.04-.76-1.23-.43zm.19 3.64c-.39.35-.29 1.07.23 1.13s1-.42.78-.87a.68.68 0 0 0 -1.04-.3zm-1.33 6.56c.49.26 1.43-.59 1.27-1.11s-1.09-.46-1.46-.19c-.71.44-.32 1 .16 1.26zm.1 5.78a.7.7 0 0 0 .2 1.23c.61.29 1.13-.49 1.07-.81s-.75-.97-1.3-.46zm1.2 4.8c-1.13 0-1.6-.59-1.69-.45-.58 1 .07 1.27.82 1.4a5.85 5.85 0 0 0 2.14-.07 1.52 1.52 0 0 0 .19-.71c-.03-.24-.35-.17-1.49-.21zm9.75-14.98a.54.54 0 0 0 0 1c.42.22 1 .06.91-.43a.7.7 0 0 0 -.91-.57zm-.52 4.58a.9.9 0 0 0 .42 1.47c.68.25 1.72-.46 1.36-1.3s-1.63-.4-1.78-.17zm-.1 3.84a1.24 1.24 0 0 0 .78 2.2 1.31 1.31 0 0 0 1.23-1.92 2.07 2.07 0 0 0 -2.01-.28zm.07 4.12c-.52.52-.17 1.2.58 1.2a.71.71 0 0 0 .62-1.1.83.83 0 0 0 -1.2-.1zm-5-.36a.66.66 0 0 0 .33 1.2c.55.07 1-.45.84-.87a.74.74 0 0 0 -1.21-.33z" fill="#1d1d1b"/></svg>