<svg height="64" viewBox="0 0 64 64" width="64" xmlns="http://www.w3.org/2000/svg"><path d="m52.16 21.22c-3.53-11.69-11.84-18.22-14.64-18.9s-6-1-12.72 3.9-10.38 12.93-12.13 18.78a39.59 39.59 0 0 0 -2.13 15.15c.46 8.05 5.95 16.58 8.46 18.5s3.16 3.67 14.33 3.35 11.67-1.83 12.58-2.56 2.28-1.82 3.89-5.57 5.89-20.96 2.36-32.65zm-35.69-.59c3.58-7.45 12.01-14.46 14.71-15.63s5.49-1.71 9.6 2.36 8.73 13.08 9.81 18.18c.08.38.15.77.21 1.16a5.19 5.19 0 0 0 -1.8-.77.79.79 0 0 0 -.08.89 9.88 9.88 0 0 0 2.08 1.43c0 .42.1.85.14 1.27a8.89 8.89 0 0 0 -2-1.17c-.41 0-.3.59-.26 1s1.6 1.35 2.43 1.89c0 .48 0 .95.06 1.4a9.66 9.66 0 0 0 -2.49-1.85c-.37 0-.44.7-.44 1a23.77 23.77 0 0 0 3 2.78v1.47c-1.15-1.23-3.18-3.22-3.52-3.22s-.37.51-.3.95a34.34 34.34 0 0 0 3.71 3.78v.27a2.09 2.09 0 0 1 -.44.32 34.6 34.6 0 0 0 -4-3.67c-.26 0-.56.52-.52.77a46.25 46.25 0 0 0 3.3 3.49c-.34.14-.72.28-1.17.43a19.25 19.25 0 0 0 -2.96-3.16c-.22-.08-.66.33-.7.66a17.49 17.49 0 0 0 2.09 2.93c-.34.1-.71.19-1.09.28a14 14 0 0 0 -2.25-2.95c-.33-.15-.59.51-.66.77a13.18 13.18 0 0 0 1.61 2.46 60.92 60.92 0 0 1 -9.1 1c-11.27.49-19.9-1.18-22.25-3.92-.26-.23-.3-9.15 3.28-16.6zm32.4 29.11a8.44 8.44 0 0 0 -2-1.79c-.3 0-.59.62-.56.84a21.79 21.79 0 0 0 2.16 2.14c-.21.55-.43 1.07-.64 1.54a13.45 13.45 0 0 0 -2.36-2.47c-.41-.14-.7.44-.74.74a17.92 17.92 0 0 0 2.65 2.53 6 6 0 0 1 -.86 1.29 12 12 0 0 0 -2.41-2.72c-.3-.07-.7.52-.7.74a28.12 28.12 0 0 0 2.41 2.66c-.31.28-.66.57-1 .86a13.29 13.29 0 0 0 -2.18-2.42.78.78 0 0 0 -.74.55c-.06.31 1.47 2 2 2.54-.3.2-.61.39-.94.58-.45-.88-1.91-2.94-2.24-2.94s-.59.45-.59.74a19.23 19.23 0 0 0 2 2.65c-.38.19-.78.36-1.19.53a14.72 14.72 0 0 0 -1.54-2.26c-.3-.37-.81.22-.88.51a8.54 8.54 0 0 0 1.29 2.16 22.64 22.64 0 0 1 -8 1.07c-8-.3-9.12-.74-12.5-5a26.12 26.12 0 0 1 -5.84-14.66c0-.7 7.55 3.87 20.25 3a86.61 86.61 0 0 0 17.89-2.7 74.1 74.1 0 0 1 -2.74 9.29zm-20.32-39.88c-.29-.08-1.8.81-4.92 4.63s-4.08 7.4-4 7.57 1.4.41 1.62.37 1.1-3.6 2.61-5.77 5.24-5.66 5.24-5.85-.25-.88-.55-.95zm5.08 23.6c-.15-.46-1.88-.46-2.69-.46s-1.93.22-2 .92a23.91 23.91 0 0 0 1.69 5.29c.3.29.63.18 1.22 0s1.92-5.21 1.78-5.75zm-2.21 4.08c-.29.08-.4.41-.55 0a15.71 15.71 0 0 1 -.52-3c0-.19 1.7 0 1.81.14s-.44 2.79-.74 2.86zm-15.99 5.46a3.94 3.94 0 0 0 .11 2c.22.3.66.19.92 0s-.11-1.77-.22-2a.55.55 0 0 0 -.81 0zm5.88 1.29a4.15 4.15 0 0 0 .37 2.24c.26.22.48.08.77 0s0-1.95-.11-2.24-.95-.19-1.03-.02zm8.75.66c-.44.22 0 1.88.07 2.13s1 .08 1.25 0-.07-2-.18-2.13-.88-.15-1.14-.02zm7.06 0a5.16 5.16 0 0 0 -.51 2.09c0 .3.55.23 1 .11s.52-1.69.48-2-.85-.34-.97-.15zm6.65-.85c-.33.33-.29 1.84-.22 2.1s.52.26 1 0 .73-2 .66-2.17-1.33-.03-1.44.09zm3.57-.1a4.86 4.86 0 0 0 -.29 1.55c0 .18.88.14 1.14 0s.44-1.21.55-1.54-1.29-.12-1.4-.01z" fill="#1d1d1b"/></svg>