<svg height="64" viewBox="0 0 64 64" width="64" xmlns="http://www.w3.org/2000/svg"><path d="m62 28.85c-.16-.64-4.59-3.29-4.59-3.29a18.46 18.46 0 0 0 -.16-3.12c-.25-2.22-2.25-5.23-4.64-5.35a4.91 4.91 0 0 0 -3.88 1.91l-3.56-1.74a9.25 9.25 0 0 0 -1.17-3.26c-.95-1.51-3-2.65-5.7-1.39s-3.93 5.39-3.93 5.39-.36-.39-1.15-1.3-3-1.86-5.7-.6-3.68 5.74-3.68 5.74l-3.68 1.86a7.75 7.75 0 0 0 -2.93-2.89c-2-1.06-4.79.2-6.41 2.18s-2 5.62-2 5.62-6.39 3.39-6.51 3.6-.59 3.92-.31 4.71 6.45 3.64 6.45 3.64a6.13 6.13 0 0 0 3.95 4.44c3.48 1.39 5.15.28 5.15.28l5 2.5s1.15 2.65 2.81 3.28a7.29 7.29 0 0 0 3.56.24s.95.51 1.19.59 10.25-5.66 15.44-8.43 16.36-9.98 16.45-10.26a31 31 0 0 0 0-4.35zm-9.7-10.73c3.14-.07 3.93 3.7 4.11 6.38a4.27 4.27 0 0 0 -1.4-.63c-.27 0-.36.42-.21.77a5.17 5.17 0 0 0 1.66 1v1.14a14.81 14.81 0 0 0 -2-1.26c-.15 0-.53.33-.5.54a12.58 12.58 0 0 0 1.89 1.5 5.85 5.85 0 0 1 -.65.39 8.87 8.87 0 0 0 -2-1.57.8.8 0 0 0 -.63.72c0 .25 1 .92 1.59 1.28a7.49 7.49 0 0 1 -2 .26c-3 0-4.44-1.35-4.83-2-.1-.09.14-8.4 4.96-8.52zm-12-5.06c2.33 0 3.34 2.37 3.77 4.63a3.94 3.94 0 0 0 -1.1-.44c-.2 0-.23.45-.17.74s1 .67 1.46.84c.05.46.09.88.11 1.26a5.89 5.89 0 0 0 -1.78-1.09c-.24 0-.45.42-.39.69a12.47 12.47 0 0 0 2.19 1.54v.34a4.36 4.36 0 0 1 -.44.55 9.1 9.1 0 0 0 -2.21-1.87c-.33-.09-.65.3-.65.47s.43.42.78.67a2.64 2.64 0 0 0 -.49 0 4.61 4.61 0 0 0 -2.85 1.22 6.52 6.52 0 0 0 -1.11 1.11 8.44 8.44 0 0 1 -1.86-.87 7.74 7.74 0 0 0 -.31-2.37 8.57 8.57 0 0 1 -.45-1.48s1.2-5.9 5.5-5.94zm5.7 17.66c0 .49.06.91.07 1.21a11.58 11.58 0 0 0 -2.18-1.74c-.23 0-.59.45-.5.6s1.7 1.53 2.26 2c-.15.13-.35.29-.58.46a8.83 8.83 0 0 0 -1.8-1.74c-.24 0-.56.36-.47.5s1.19 1.3 1.58 1.7c-.18.11-.37.21-.58.32a7.5 7.5 0 0 0 -1.48-1.33c-.12 0-.65.44-.62.59a9.17 9.17 0 0 0 1.12 1.14 5.44 5.44 0 0 1 -1.41.29c-2.61.18-4.41-.29-5.41-1.6 0 0-.2-6.88 2.45-9s3.64-2.26 5.66.32a10.93 10.93 0 0 1 1.75 5 3 3 0 0 0 -1-.55c-.24 0-.36.68-.36.68zm-19.15-12.83c2.89-1.9 4.71-2 6.29.23.91 1.3 1.28 3.72 1.42 5.58-.47-.46-1.27-1.12-1.44-1.08s-.5.51-.39.72 1.36 1.16 1.89 1.58a8.15 8.15 0 0 1 0 1.32 6.38 6.38 0 0 0 -2-1.42c-.3-.06-.6.57-.57.68a20.91 20.91 0 0 0 1.78 1.5 5.85 5.85 0 0 1 -.52.37 4.68 4.68 0 0 0 -1.7-1.25c-.33-.06-.57.26-.54.62s.87.88 1.26 1.14c-.21.09-.43.17-.65.24a5.29 5.29 0 0 0 -2.62-.64 4.59 4.59 0 0 0 -2.57.56 6 6 0 0 1 -2.14-1c-.26-.31-.35-7.26 2.5-9.15zm5.47 18.11a24.67 24.67 0 0 0 2 1.58 11.42 11.42 0 0 1 0 1.21 12.69 12.69 0 0 0 -2.32-1.71c-.3 0-.56.36-.5.53a28.86 28.86 0 0 0 2.32 2 5.69 5.69 0 0 1 -.53.43 18 18 0 0 0 -2.39-2c-.2-.09-.56.3-.56.59s1.55 1.52 2 1.9a5.35 5.35 0 0 1 -.68.27 13.82 13.82 0 0 0 -2.35-2c-.24 0-.65.51-.62.74a10.19 10.19 0 0 0 1.78 1.55 9.71 9.71 0 0 1 -1.8.16c-4 0-5.54-1.14-6.06-1.58-.15-.13.56-9.3 3.72-10.53s5.42-.67 6.81 2.62a15 15 0 0 1 1.06 4.48 5.23 5.23 0 0 0 -1.54-1c-.22.06-.4.59-.34.76zm-21.22-11.66c2.17-2.5 4.27-3.53 6-2.26a8.14 8.14 0 0 1 3.56 6c.11.77.19 1.39.24 1.89a9.07 9.07 0 0 0 -1.78-1.13c-.18 0-.39.71-.39.83s1.64 1.35 2.29 1.85a3.06 3.06 0 0 1 0 .36l-.53.21a14 14 0 0 0 -2.08-1.86c-.24-.06-.54.42-.51.54s1.13 1.23 1.57 1.68l-.77.22a6.53 6.53 0 0 0 -1.7-1.59c-.35-.06-.53.36-.53.54a8.13 8.13 0 0 0 1.07 1.38 12.86 12.86 0 0 1 -2.54.2c-3.08 0-4.94-.87-5.66-1.7.01 0-.42-4.67 1.76-7.16zm-2.66 6.29a14.53 14.53 0 0 0 .08 1.74c.08.24 1.86 1.82 6.26 1.74s7.2-1.66 7.44-2a16.71 16.71 0 0 0 -.36-5.34 12.6 12.6 0 0 0 -.95-2c0-.12 2.57-1.15 2.57-1.15s-.08 3.76 0 4.08.87.67 1.23.75l.91.2s-1.82.63-2.81 4.08a25.46 25.46 0 0 0 -1.07 7.71c.16.44 2.69 1.86 5.34 2.14a10.9 10.9 0 0 0 6.69-1.66c1.63-1 1.82-1.62 1.82-1.82s-.16-3.6-.27-4.55a13 13 0 0 0 -1.9-4.55 5.84 5.84 0 0 0 -1.07-1.07 4.3 4.3 0 0 0 2.06-.83c.71-.68 1.14-1.15 1.14-1.39v-3a1.23 1.23 0 0 0 .68.6c.47.16.75.23.75.23a6.92 6.92 0 0 0 -1.7 4.2 17.1 17.1 0 0 0 -.16 4.19 4.82 4.82 0 0 0 .79 1.67c.44.39 1.82 1.34 5.11 1.14a9.58 9.58 0 0 0 6-2.77 20.27 20.27 0 0 0 -.83-6.17 42.51 42.51 0 0 0 -1.82-4s.91-.43.95-.87 0-3.16 0-3.16l2.65 1.38a7.55 7.55 0 0 0 -1.42 3.68 13 13 0 0 0 .15 3.8c.12.44 1.35 2.1 4.36 2.18a7.68 7.68 0 0 0 5.26-1.47 5.07 5.07 0 0 0 1-.95s2.26 1.11 2 1.47-20.76 11.94-24.6 14.28-4.55 2.53-5.14 2.53-10.49-5.82-14.29-7.44-10.57-5.11-10.53-5.38a28.12 28.12 0 0 1 3.68-2.22zm4.12 13.46c-1.58-.84-2.3-2-2.3-2.66 0-.39 6 3 6 3a6.26 6.26 0 0 1 -3.7-.34zm15.16 6.41a3.87 3.87 0 0 1 -2.26-.32 1.86 1.86 0 0 1 -1-1.46c.11-.2 3.54 1.66 3.26 1.78zm32.77-18.09s-.13.09-.3.21a7.28 7.28 0 0 0 -.06-1.52c-.08-.27-.55.08-.71.24a6.18 6.18 0 0 0 0 1.76l-.63.38a7.29 7.29 0 0 0 0-1.74c-.08-.24-.68 0-.84.16a9.22 9.22 0 0 0 .05 2.1l-.54.31c0-.57 0-1.52 0-1.75s-.55 0-.71 0a9.52 9.52 0 0 0 .07 2.12l-.35.21a5.57 5.57 0 0 0 -.28-1.42c-.11-.24-.31-.08-.55.2a4.48 4.48 0 0 0 -.15 1.8c-5.35 3.09-13.23 7.66-16.49 9.53-5.15 3-8.47 4.91-9 4.95s-25.67-13.5-25.91-13.66a4.92 4.92 0 0 1 0-2.53c.2 0 23.75 12.42 24.5 12.74s1.23.4 2.69-.44 28.93-16.66 29.17-16.54a7 7 0 0 1 .04 2.89zm-48.21-5.15c.12-.07.16-.51.64-1.26a7.15 7.15 0 0 1 1.38-1.47.73.73 0 0 0 -.28-.35c-.19-.12-.71 0-1.34.63s-1.26 1.59-1.19 1.86.67.67.79.59zm15.44-4.84c.12-.06.09-.3.15-1.34a1.65 1.65 0 0 1 1.18-1.36 1.47 1.47 0 0 0 -.06-.57c-.08-.18-.26-.5-1.42.42a2.44 2.44 0 0 0 -1 2.37 2.14 2.14 0 0 0 1.15.48zm.06 8.46c-.18-.09-.51-.24-1.46.65a2.64 2.64 0 0 0 -.86 2c.09.09.74.24.89.12s.15-.75.39-1.13 1.1-1.16 1.24-1.37.02-.15-.2-.27zm12.22-6.06c-.24-.09-.51-.15-1.34.89a3.5 3.5 0 0 0 -.86 1.84c.15.18.89.21.95.06a9.14 9.14 0 0 1 .44-1.13 5.6 5.6 0 0 1 1.07-1.36.41.41 0 0 0 -.26-.3zm-2.1-7.21c.12-.06.12-.18.33-.83s1.12-1.19 1.18-1.34.06-.27-.15-.38a1.47 1.47 0 0 0 -1.33.53 3 3 0 0 0 -.93 1.63c.1.27.78.45.9.39zm13.27 4.33a6.71 6.71 0 0 1 .29-.71c.27-.48 1-.92 1-1a.42.42 0 0 0 -.26-.41c-.21-.12-.54-.15-1.22.53a2.67 2.67 0 0 0 -.83 1.54c.1.2.93.17 1.02.05z" fill="#1d1d1b"/></svg>