<svg height="64" viewBox="0 0 64 64" width="64" xmlns="http://www.w3.org/2000/svg"><path d="m14.36 38.25c-.88.32-1 2.12.24 2.88s3.23 0 2.8-1.72-2.13-1.49-3.04-1.16zm44 1.36c-3-2.31-5.39-6.42-6.27-14.33s2.27-11.45 2.35-12-.83-.76-1.67-.68a20.69 20.69 0 0 0 -8.1 4.63 22.61 22.61 0 0 0 -5.39 8s-1.52-.84-3.52-1.79a32.16 32.16 0 0 0 -4.63-1.68 9.51 9.51 0 0 0 .12-1.92 4.8 4.8 0 0 0 -1.47-3.15c-.76-.56-2.24-.92-4.63.2a34.63 34.63 0 0 0 -7.47 5.75c-.79 1-3.67 1.87-6.5 3.79a21.24 21.24 0 0 0 -7 7.34c-1.59 3-3.07 8-1.83 10.26a6.13 6.13 0 0 0 4.07 2.68c1 2.39 3.87 4.94 11.61 4.83s9.26-2.08 9.26-2.08 3.08.84 6 1.48 4.47-.08 5.07-.72a1.8 1.8 0 0 0 .28-2.24 28.29 28.29 0 0 0 -2.64-1.9 20.84 20.84 0 0 0 3.52-1.56 24.14 24.14 0 0 0 4-3.35 54.24 54.24 0 0 0 8.12 2.83 18.45 18.45 0 0 0 9.46-.28s.92-.72 1-1.31-.68-.48-3.71-2.8zm-33.22-21.83c2.43-1.28 4.27-1 4.75.4a9.83 9.83 0 0 1 .24 3.51 15.11 15.11 0 0 0 -4.91-.16c-3.08.32-6 1-6 1a30.32 30.32 0 0 1 5.92-4.75zm-2 30c-.36.8-.52 1.24-.76 1.32a58.9 58.9 0 0 1 -8.7-.1c-2.23-.36-3.51-.88-3.71-1.24s-.56-.64-.2-.6a8.39 8.39 0 0 0 3.39-1c.84-.6 1.12-1 1-1.28s-.76-.8-1-.72a9 9 0 0 1 -4.16.72c-2.39-.12-4.55-1.56-4.83-3.07a15.31 15.31 0 0 1 3.44-9.22c2.91-3.2 5.54-4.11 6.1-4.15a13.6 13.6 0 0 1 8.63 7.56 19 19 0 0 1 .76 11.75zm34.77-5.46c-.12.19-4 0-7.39-1s-6.58-2.36-6.9-2.44c-.13 0-.49.31-1 .83a14.86 14.86 0 0 0 -2.11-2.58c-.27-.16-.87.2-1 .68s1.57 2 2.24 2.65l-.75.6a16.06 16.06 0 0 0 -2.57-2.14c-.28-.08-.6.56-.56 1s1.36 1.39 2.06 1.95c-.31.2-.63.4-1 .59a16.86 16.86 0 0 0 -2-1.5c-.2-.12-.88.24-1 .64s1 1 1.72 1.49c-2.55 1.22-4.06 1.29-4.31 1.22s-1.56-1-1.84-1-.55.56-.32.8 2.2 1.68 4.12 3 2.51 1.35 2.47 1.71-1 .92-1.4 1a18.67 18.67 0 0 1 -6.56-.82 19.85 19.85 0 0 1 -5.27-2.27 18 18 0 0 0 -1-10.7c-2.39-5.23-6.18-7.27-9-8.74a20.22 20.22 0 0 1 13.25-3.71c7.53.66 11.21 4.42 12.04 4.58a.89.89 0 0 0 1.07-.52 12.55 12.55 0 0 1 3.52-7.15c3.31-3.55 6.66-5.19 6.74-4.71s-2.67 9.06-.76 15.22a26.32 26.32 0 0 0 6.91 10.7c.48.47.69.39.56.59zm-31.26-13.49c0-1-2.37-1.09-3.27-.59s-.8 2.11.92 2.31 2.39-.68 2.35-1.72zm-2.07.93c-.66-.08-.66-.73-.35-.9s1.25-.17 1.27.23-.25.75-.92.67zm4.19 5.94a1.76 1.76 0 0 0 -2.59-1c-1 .68-.52 2.28.63 2.6a1.46 1.46 0 0 0 1.96-1.6zm-2-.27a.76.76 0 0 1 1.11.41.62.62 0 0 1 -.84.7.64.64 0 0 1 -.27-1.11zm1.23 5.7c-.72.12-1.47 1.75-.76 2.27a1.4 1.4 0 0 0 2-.92 1.18 1.18 0 0 0 -1.24-1.35zm5.35-9.86c-.08-.4-1.12-.74-1.56-.56-.67.28-.87 2.44.24 2.67s1.41-1.71 1.33-2.11zm-.08 5.39c-.48.16-1.56 1.27-.8 2.15s1.84-.52 2-1.23-.73-1.07-1.19-.92zm4.73-5.11a1.65 1.65 0 0 0 -.68 2.91 1.42 1.42 0 0 0 2.2-1.08c-.01-1.07-.68-1.99-1.52-1.83zm-.21 2.1a.66.66 0 0 1 .21-1.17c.35-.07.62.3.61.74a.58.58 0 0 1 -.87.43zm7.21 1.17c-.31.08-.23.84.12 1.12a49.14 49.14 0 0 0 4.88 1.36s.48-.36.52-.56a26 26 0 0 0 -5.52-1.92zm4.08-4.63c.28-.36-.08-.4-.2-.48a26.32 26.32 0 0 0 -4.3 1.29c-.24.24.08.92.51 1a15 15 0 0 0 4-1.81zm-4.08-2.91c.48 0 2.92-1.88 3.08-2.2s.08-.16-.16-.4-3.32 1.58-3.39 1.8a.55.55 0 0 0 .47.8z" fill="#1d1d1b"/></svg>