<svg height="64" viewBox="0 0 64 64" width="64" xmlns="http://www.w3.org/2000/svg"><path d="m23 26a5.61 5.61 0 0 0 3.52.59c.12-.06.19-.53.12-.68s-.9.09-2.17-.16-2.34-1-3.49-2.86-.12-4.79-.09-5 .46-.47.5-.34a13.61 13.61 0 0 0 .09 3.51 5.32 5.32 0 0 0 2.52 3.79 5 5 0 0 0 2.68.43c.12-.09.09-.31.09-.59s.09-.12-1-.22-2.64-.93-3.42-3.45a9.89 9.89 0 0 1 .5-6c.25-.46-.09-.46-.31-.43a5.38 5.38 0 0 0 -2.12 2.39 7.81 7.81 0 0 0 -.87 5 5.73 5.73 0 0 0 3.45 4.02zm1.9-2.89a1.86 1.86 0 0 0 1.59.34c.15-.06.15-.16.06-.31a9.94 9.94 0 0 1 -2-2.09c-.93-1.4-.44-4.85-.5-5.13s-.48-.26-.59-.13a11 11 0 0 0 -.22 3.89 4.28 4.28 0 0 0 1.63 3.43zm1-2.12c.43.72.65 1 .81 1s0-.32-.1-1.09a3.41 3.41 0 0 0 -.84-1.84c-.25-.12-.37.23-.31.37a4.49 4.49 0 0 0 .44 1.57zm7.59-4.2a5.13 5.13 0 0 0 1.28 3.27s-.63.71-.5 3.64 3.3 4.94 6.53 4.85 5.63-1.77 5.51-6.32-3.74-5.44-3.74-5.44a3 3 0 0 0 -.06-1.31 5 5 0 0 0 -4.45-2.7c-2.58-.04-4.69 1.86-4.57 4.01zm11.51 3.92a5.3 5.3 0 0 1 -1.15 5.6 5.12 5.12 0 0 1 -5.72.81c-1.84-.81-3.21-2-2.8-6.32a5.06 5.06 0 0 1 4.45-3.54 4.81 4.81 0 0 1 5.22 3.45zm-7.87-4.54a1.7 1.7 0 0 1 1.87-.56 1.36 1.36 0 0 1 .93.9 3.89 3.89 0 0 0 -1.65.09 5.07 5.07 0 0 0 -1.46.87 1.15 1.15 0 0 1 .34-1.3zm1.53-2.37a3.74 3.74 0 0 1 2.83 1.46 2.53 2.53 0 0 1 .34 1.22h-.83a2.28 2.28 0 0 0 -1.53-1.62 3.11 3.11 0 0 0 -3.82 3.67l-.53.84a3.08 3.08 0 0 1 -.45-3.37 3.87 3.87 0 0 1 4.02-2.2zm-2 7.2c-.31 3.46.74 4.43 2.15 5.08a3.8 3.8 0 0 0 4.39-.65 4.42 4.42 0 0 0 .89-4.5 3.72 3.72 0 0 0 -4-2.78 4 4 0 0 0 -3.39 2.85zm3.5-1.75a2.92 2.92 0 0 1 3.17 2.05 3.07 3.07 0 0 1 -.7 3.31 3.17 3.17 0 0 1 -3.47.48c-1.12-.48-2-1.2-1.7-3.74a3.07 3.07 0 0 1 2.74-2.1zm-.58 4.94a2.16 2.16 0 0 0 2.42-.33 2.07 2.07 0 0 0 .47-2.23 2 2 0 0 0 -2.14-1.38 2.06 2.06 0 0 0 -1.82 1.42c-.2 1.71.36 2.19 1.11 2.52zm-.15-2.19a1.09 1.09 0 0 1 1-.75 1.05 1.05 0 0 1 1.14.73 1.07 1.07 0 0 1 -1.57 1.33c-.36-.17-.66-.43-.57-1.31zm-8.27 14.76c2.08.35 3.67-.4 5.35-1.33a3.71 3.71 0 0 0 2.08-3.68c-.15-1.21-1.27-2-2.86-2.55a6.7 6.7 0 0 0 -5.79.59c-1.86 1.37-2.14 2.71-2.08 3.83a3.82 3.82 0 0 0 3.3 3.14zm-.07-6.53c1.05-.55 3.15-.4 4.64 0s2 1 1.93 2a4.68 4.68 0 0 1 -3.55 3.42 5.38 5.38 0 0 1 -4.82-.84c-.96-.81-1.03-3.09 1.8-4.58zm1.78 4.17c1.77-.22 3.64-1.53 3.33-2.71s-2.82-1.24-4.08-.81a2.39 2.39 0 0 0 -1.68 1.87c-.12.81.65 1.87 2.43 1.65zm-.19-2.77c.84-.35 2.52-.28 2.46.37a2.26 2.26 0 0 1 -2.14 1.65c-1.31.16-3.43-.71-.32-2.02zm-9.68 12.69a10.7 10.7 0 0 0 1.68 3c.38.16.44-.28.47-.47a15.64 15.64 0 0 0 -1.59-2.76c-.21-.2-.5-.09-.56.23zm19.08-1a.78.78 0 0 0 .31.81 82.31 82.31 0 0 0 7.5-3.49c.12-.12-.1-.65-.25-.78a76.37 76.37 0 0 0 -7.56 3.47zm-28.81 13.92a1 1 0 0 0 -1.34-1.16 1.05 1.05 0 0 0 -.28 1.62.93.93 0 0 0 1.62-.46zm4.51-1.84a1 1 0 0 0 -1.34-1.15 1.06 1.06 0 0 0 -.28 1.62.94.94 0 0 0 1.62-.47zm18.22-46.79a2.52 2.52 0 0 0 -2.7-2.68 2.43 2.43 0 0 0 -2.42 3 2.56 2.56 0 0 0 2.73 2.27 2.41 2.41 0 0 0 2.39-2.59zm-4.09.29a1.45 1.45 0 0 1 1.45-1.76 1.5 1.5 0 0 1 1.58 1.6 1.43 1.43 0 0 1 -1.39 1.52 1.53 1.53 0 0 1 -1.69-1.36zm23.79 29.29c-1-1-4.32-2.08-4.32-2.08s.22-17 0-18.95-1.49-3.08-3.92-4.29a53.52 53.52 0 0 0 -7.75-2.55 39.94 39.94 0 0 0 -.03-4.32 3.91 3.91 0 0 0 -2.61-3.76 30.76 30.76 0 0 0 -6.63-.24c-2.8.19-3.67 2-3.7 2.49s.12 5.63.12 5.63l-2.05.44a5.18 5.18 0 0 1 -1-1.06c-.65-.84-.93-2.18-1.33-2.24a1.54 1.54 0 0 0 -1.37.93c-.1.5-.19 3.46-.19 3.46s-1.21.31-2.83.9-3.21 1.52-3.36 2.11.37 37.53.37 37.53-5.47 2.45-6.59 3.17a2 2 0 0 0 -1.12 2.08c0 .78 1.21 2.55 2.05 3.77s1.52.78 1.87.71 1.55-.59 4.26-1.65 6.81-3 6.81-3 23 .18 24.18.12 2.77-.09 3.76-1 .84-1.84.9-2.93 0-11.07 0-11.07 5.23-2.59 5.35-2.77.1-.46-.87-1.43zm-34-25.79c.31-1.74.18-3.33.37-3.48s.5 0 .59.18a12.76 12.76 0 0 0 3.14 4c1.81 1.3 4.33 2.48 5.05 3.48a4.67 4.67 0 0 1 1.15 4.25c-.41 2.46-1.34 4.17-1.81 4.45s-.56.38-.71.41-.47-.47-.32-.56 1.4-.59 1.37-3.33-.28-4.05-1.43-5.42-1.49-1.38-1.58-1.38-.5.16-.38.35a7.38 7.38 0 0 1 1.93 2.8 9.56 9.56 0 0 1 .44 4.76c-.28.9-.44 1.24-.62 1.3s-.13.22-.19.07.78-3.71-1.06-6.6-2.8-3.83-3.3-3.92-.65.12-.71.28a.42.42 0 0 0 .12.47 7.12 7.12 0 0 1 3.45 4.49c.75 3.11.78 3.82.57 4.66s-.22 1.87 0 1.93.5-.06.53 0a4.14 4.14 0 0 0 .38.53s.37 0 .43.22.25.25.47.37.75.25.68.44-1.12.34-1.8 1a12.41 12.41 0 0 0 -1.06 1.22c-.09 0-.19 0-.25-.22a4 4 0 0 1 -.06-1.62 3.42 3.42 0 0 1 .47-.37l.43-.5a3 3 0 0 0 -.87-.09 2.46 2.46 0 0 1 -1.4.53 7.23 7.23 0 0 1 -4.79-1.5 6.89 6.89 0 0 1 -2.24-6.38c.31-2.37 2.7-5.08 3.01-6.82zm-5 3.36a13.55 13.55 0 0 1 3.42-1.83 24.62 24.62 0 0 0 -2.15 3.95 9.27 9.27 0 0 0 .31 6.25 8 8 0 0 0 4.72 3.64 4.89 4.89 0 0 0 2.84 0 10.91 10.91 0 0 0 .56 2.68c.37.74.59.74.8.68a3.14 3.14 0 0 0 .63-.34s0-1.21.22-1.31.43.1.74-.12.66-.66.94-.84a2.29 2.29 0 0 1 1-.25c.44-.06.94-.06 1-.31a1.1 1.1 0 0 0 -.22-1 3.44 3.44 0 0 0 -.93-.5 7.48 7.48 0 0 0 2.52-6.22c-.47-3.76-2.06-5-3.74-6.07l-3.28-2.17s2.43-.63 2.56-1 0-5.94.12-6.25.53-.94 3.77-1.09 5.1.84 5.25 1.21 0 5.88.16 6.32 1.62.9 4.57 2 5.51 2 6.32 2.74.84 2.08.87 3-.13 16.77-.13 16.77a52.9 52.9 0 0 0 -11.66.72 43.26 43.26 0 0 0 -11.45 3.7 44.26 44.26 0 0 0 -5.46 3.15c-.71.53-.8.9-.68 1.21s2.83 4.11 2.64 4.36-5.84 2.58-5.84 2.58-.65-35.25-.46-35.66zm-7.19 40c.16-.32 7.28-3.3 10-4.29s3.48-1.68 3.8-1.37 2.48 3.08 2.3 3.3-11.67 5-12.76 5.54-1.27.59-1.4.52-2.13-3.41-1.98-3.72zm16.65-1.18c-.07.12-13.38 5.91-14.19 6.25s-1.21.41-1.65.1a14.33 14.33 0 0 1 -2.12-3.38c0-.35.12-1.06.46-1.06s2 3.61 2.18 3.73a.92.92 0 0 0 .87 0c.22-.15 14.25-6.5 14.34-6.22s.13.44.07.56zm23.45-6.58c-.33-.39-.83-.9-.94-.87s-.43.74-.4.93 1 1.14 1.3 1.56c0 .89 0 1.73-.09 2.43a15.14 15.14 0 0 0 -1.9-2.81c-.21 0-.49.22-.71.62s1.77 3 2.43 3.86a1.91 1.91 0 0 1 -.63 1 43 43 0 0 0 -2.36-3.72c-.16-.15-.66.09-.9.47s1.66 3 2.25 3.77l-.57.09h-.48a15.16 15.16 0 0 0 -1.92-3.33.84.84 0 0 0 -.84.43c-.13.31 1.19 2.2 1.68 2.89h-1a21.88 21.88 0 0 0 -1.53-2.97c-.25-.28-1 .37-1.09.62s1.09 1.86 1.44 2.33h-1.42a6.11 6.11 0 0 0 -1.07-1.89c-.25-.13-.77.34-.84.53a5.2 5.2 0 0 0 .69 1.35c-6.05 0-14.22-.11-14.22-.11l23.15-11.88s.01 2.28-.03 4.7zm5.81-8.75c-.18.19-9.77 4.76-15.86 7.66s-12.2 6.53-12.36 6.38-6-8.84-5.81-9.15c.07-.12 6.72-4.33 11.76-5.76a55.45 55.45 0 0 1 13.94-1.83 16.36 16.36 0 0 1 7.12 1.86c1 .59 1.4.69 1.21.87z" fill="#1d1d1b"/></svg>