<svg height="64" viewBox="0 0 64 64" width="64" xmlns="http://www.w3.org/2000/svg"><path d="m58.9 19.93c-1.44-.18-16.56.24-16.56.24l-27.8.76s-8.4.12-9.41.19-1.94 1.88-1.94 3.1a14.79 14.79 0 0 0 1.51 5c.47.62 2.52.51 2.52.51s2.31 9.58 3 11.27 2.67 2.56 5.08 2.77 20.71.4 27.41.33 6.66-.11 8.39-.54 2.63-1.52 3.71-5 2.19-9.77 2.19-9.77a9.62 9.62 0 0 0 2.59-.14c.32-.26 1.22-4 1.22-6s-.47-2.54-1.91-2.72zm-4.62 11.73a10.06 10.06 0 0 0 -1.46-1.86c-.29-.11-1 .58-1 .58.08.25 1.38 1.72 2.18 2.62-.16.66-.31 1.32-.47 2a25 25 0 0 0 -2.37-3c-.32-.18-1.08.68-1.08.68.11.22 2.12 2.22 3.18 3.27-.2.79-.39 1.54-.58 2.21a27.13 27.13 0 0 0 -3.25-3.67c-.25 0-1 .75-1 .75a49.62 49.62 0 0 0 3.89 4.2 12.59 12.59 0 0 1 -.47 1.34 57.61 57.61 0 0 0 -4-4.71c-.25-.11-1.08.54-1 .65.12.29 2.77 3.48 3.77 4.67-.4.06-.9.11-1.47.16-.7-1-3.58-4.34-3.71-4.44s-1.21.44-1.18.62 2.34 2.83 3.29 3.92l-1.77.08a23.72 23.72 0 0 0 -3.11-3.46c-.36-.07-1 .55-1 .68a22.69 22.69 0 0 0 2.33 2.8c-3.43.1-7.39.13-10.53.15-6.74 0-19.52-.25-20.39-.68s-2.7-8.94-3.38-11.85-.7-3.78-.54-3.78c.51 0 11.93 0 24.5-.15s22.11-.86 22.11-.65-.67 3.32-1.49 6.87zm4.62-4.17c-.18 0-1.51 0-1.51 0s.61-3.1.36-3.49-.39-.62-1.4-.62-15.38.83-22.3 1-24.34-.32-25.71-.18-1.84.65-1.8 1.08.28 3 .28 3-1.22.11-1.36 0a21.36 21.36 0 0 1 -1.09-4.43 1.76 1.76 0 0 1 1.3-1.51c.47 0 19.2-.11 29.39-.5s21.58-.9 23.16-.76 1.4.79 1.51 1.44a21.34 21.34 0 0 1 -.83 4.97zm-47 .87c-.14.18 2.34 9.11 2.45 9.25s1 0 1.19-.28a86 86 0 0 0 -1.48-8.9c-.14-.32-1.97-.3-2.16-.07z" fill="#1d1d1b"/></svg>