<svg height="64" viewBox="0 0 64 64" width="64" xmlns="http://www.w3.org/2000/svg"><path d="m15.76 34.38c.28-.1-1.16-7-1.37-7.2s-1.23-.24-1.23 0 1.3 7 1.48 7.24.83.07 1.12-.04zm5.8-17.86a76.31 76.31 0 0 0 -1.37-7.85c-.18-.22-1.13 0-1.26.21a60 60 0 0 0 1.65 7.89c.22.36.87-.03.98-.25zm37.34 21.36c-1.44-.18-8.46-.26-8.46-.26s.22-.14 1.33-3.52a30 30 0 0 0 1.34-5.26 5.64 5.64 0 0 0 2.41-.36c.86-.47 1.58-2.34 1.55-4.51s-1.19-3.31-2.27-3.49-8.83-.4-8.83-.4a23.55 23.55 0 0 0 1-3.92c.44-2.41.94-5.51.94-5.51a11.65 11.65 0 0 0 2.16-.25c.4-.18 2.05-5.91 1.77-6.59s-1.34-1.37-4.51-1.55-10.79-.4-16.23-.26-13.54.54-15.24.72-3.92.5-4.21 1 .36 6 .58 6.56 1.87.32 1.87.32.4 2 1 5.19a22.23 22.23 0 0 0 1.52 4.93s-6.31 0-7.85.15-2.23.51-2.67 1.13-.28 2.92 0 4.64 3 1.84 3 1.84.75 3.46 1.62 6.27a8.85 8.85 0 0 0 3.28 4.35s-7.85-.11-8.86 0-1.95 1.9-1.95 3.06a14.85 14.85 0 0 0 1.51 5c.47.61 2.52.5 2.52.5s2.31 9.58 3 11.28 2.67 2.55 5.08 2.77 20.71.4 27.41.32 6.66-.1 8.39-.54 2.63-1.51 3.71-5 2.19-9.75 2.19-9.75a9.28 9.28 0 0 0 2.59-.15c.32-.25 1.22-4 1.22-6s-.46-2.53-1.91-2.71zm-44.8-28.42s-.65.22-.76 0-.9-4.61-.61-4.86 3.21-1.15 12-1.48 24.27.36 25.17.58 1 .65.86 1.22-.97 4.08-1.36 4.14a6.26 6.26 0 0 1 -1.26 0 31.42 31.42 0 0 0 -.08-4c-.18-.43-.75-.68-1.62-.68s-12.75.36-21 .75-11.2.98-11.44 1.2a14.55 14.55 0 0 0 .1 3.13zm1.9-2.7c.43-.15 13.72-.9 21.76-1s8.93 0 9 .15-.62 3.66-1.28 6.91a15.87 15.87 0 0 0 -2-2.23c-.22 0-.72.83-.69 1.12a21.88 21.88 0 0 0 2.39 2.5c-.12.6-.25 1.16-.36 1.66-.62-.74-2.28-2.57-2.6-2.54s-.83.75-.72.93 2.31 2.24 3 2.9c-.08.32-.16.57-.21.74s-.16.44-.23.63a29.22 29.22 0 0 0 -3.2-3c-.32-.1-.79.51-.82.8a32.7 32.7 0 0 0 3.45 3.41c-.14.21-.25.3-.32.3l-1.37-.05a28.73 28.73 0 0 0 -2.84-3.12c-.29-.11-.83.21-1 .47s1.68 1.93 2.38 2.61c-2.53-.07-6.46-.13-10.52 0-6.73.18-10.87.36-11 .29s-1.15-4.33-1.91-7.64a42.46 42.46 0 0 1 -.91-5.84zm-7 17.75c-.18.4.07 2.27-.07 2.38s-1.28.11-1.53-.25-.54-4-.14-4.25 3.42-.68 15.59-.94 23.38-.36 26.26-.32 5.83.5 6.48 1.4.36 3.53 0 4.22-.72.54-1.19.68a2.45 2.45 0 0 1 -1 0s.68-2.38-.07-3.06-.83-1-4.65-.94-26.4-.18-31.95.11-7.6.58-7.73.97zm4.54 10.63c-1.52-2.59-2.24-9.83-2.13-9.94s5-.65 13.47-.79 21.94.07 24.17.14 2.7.18 2.7.65c0 .22-.73 3.09-1.54 6.06a9.91 9.91 0 0 0 -1.74-2c-.36-.14-.9.72-.9.83s1.66 1.73 2.3 2.37c-.14.52-.28 1-.42 1.52-.79-1-2.74-3.12-2.89-3.21s-.61.25-.79.61 2.45 3 3.28 4c-.15.5-.29.95-.41 1.33a29.89 29.89 0 0 0 -3.34-3.49c-.25 0-.68.4-.75.8s2.76 3.06 3.65 3.91c0 .07-.07.12-.09.12l-1.63.12a26.48 26.48 0 0 0 -3.23-3.47c-.29-.11-.76.4-.86.54a29 29 0 0 0 2.81 3c-2.11.13-5.41.3-10 .5-8.57.36-14.63.36-16.17 0a7.63 7.63 0 0 1 -5.54-3.6zm40.74 14.46a10.25 10.25 0 0 0 -1.46-1.85c-.29-.11-1 .57-1 .57a32.2 32.2 0 0 0 2.18 2.57c-.16.66-.31 1.33-.47 2a25 25 0 0 0 -2.35-3c-.32-.18-1.08.68-1.08.68.11.21 2.12 2.22 3.18 3.26-.2.8-.39 1.54-.58 2.21a27.13 27.13 0 0 0 -3.25-3.67 4.44 4.44 0 0 0 -1 .76 51.22 51.22 0 0 0 3.89 4.2c-.18.58-.34 1-.47 1.34a57.61 57.61 0 0 0 -4-4.71c-.25-.11-1.08.54-1 .64.12.3 2.77 3.48 3.77 4.67-.4.06-.9.11-1.47.16-.7-1-3.58-4.33-3.71-4.43s-1.21.44-1.18.61 2.34 2.83 3.29 3.93l-1.77.08a23.88 23.88 0 0 0 -3.11-3.47c-.36-.07-1 .56-1 .69a22.69 22.69 0 0 0 2.31 2.86c-3.43.1-7.39.13-10.53.15-6.74 0-19.52-.25-20.39-.69s-2.7-8.93-3.38-11.85-.7-3.78-.53-3.78c.5 0 11.92 0 24.49-.14s22.11-.87 22.11-.65-.67 3.31-1.49 6.86zm4.62-4.16c-.18 0-1.51 0-1.51 0s.61-3.1.36-3.5-.39-.61-1.4-.61-15.38.83-22.3 1-24.34-.27-25.71-.13-1.84.65-1.8 1.08.28 3 .28 3a4.54 4.54 0 0 1 -1.36 0 21 21 0 0 1 -1.08-4.43 1.73 1.73 0 0 1 1.29-1.51c.47 0 19.2-.11 29.39-.51s21.58-.9 23.16-.75 1.4.79 1.51 1.44a21.54 21.54 0 0 1 -.83 4.92zm-47 .87c-.14.18 2.34 9.11 2.45 9.25s1 0 1.19-.29a86.27 86.27 0 0 0 -1.48-8.89c-.14-.33-1.97-.31-2.16-.07z" fill="#1d1d1b"/></svg>