<svg height="64" viewBox="0 0 64 64" width="64" xmlns="http://www.w3.org/2000/svg"><path d="m60.92 26.91a13.05 13.05 0 0 0 -3.18-.75l.91-1.52a2.26 2.26 0 0 0 -.08-1.59c-.37-.68-3.25-2.72-4.24-2.72s-7 6.28-7 6.28-7 .3-7.27.3 3.6-3.91 3.6-3.91a18.34 18.34 0 0 0 3.71-.46c.46-.3.53-3.1.3-3.78s-3.1-.61-3.1-.61.08-2.12-.45-2.42a2.45 2.45 0 0 0 -2.88-.07c-1.14.9-.83 3.7-.83 3.7l-4.32 3.87.15-6.06s4.39-3.56 5-4 2.5-1.52 2.12-3-2.8-4.3-3.56-4.37-4.31 2.27-4.31 2.27.07-2.43 0-3.18-.61-2.27-1.74-2.27-6.74.15-7.12.6-.45 4.24-.45 4.24a23.71 23.71 0 0 0 -3-1.36c-.53-.08-1.67.76-2.73 2.19s-2 2.65-1.74 3.26 7.42 5.22 7.72 5.83 1.06 7.72 1.06 7.72-5.29-4.77-5.45-5-.15-4.09-.37-4.46-3.33-.76-3.86-.53-.64 3.89-.64 3.89-3.86-.46-4.16.22 1.36 4.7 1.59 4.85a18.59 18.59 0 0 0 3-.08l3.56 3.41-6 .07s-4.77-7-6-7-5.45 3.33-5.3 4.16 2.14 3.27 2.14 3.27-1.39.1-2.15.1a1.57 1.57 0 0 0 -1.74 1.21c-.38 1.06-.15 6.44.45 7s3.44.7 3.44.7a7.93 7.93 0 0 0 -1.28 2.27c-.08.68 2.42 3.7 3.78 3.55s6.59-6.13 6.59-6.13l8.1.15-3 3.33s-3 .31-4 .46a3.11 3.11 0 0 0 -2.27 1.13c-.31.61-.46 3.94.37 4.17a9.3 9.3 0 0 0 3-.31 26 26 0 0 1 -1 3.11c-.38.75.61 1.66 1.44 1.66s2.65.76 2.95.38a48 48 0 0 0 1.29-5.22l5.75-6.06-.07 8.4s-4.39 3.34-5.15 4.47a2.76 2.76 0 0 0 .23 3.1c.45.53 1.81 2.43 2.64 2.27a8.33 8.33 0 0 0 2.43-1.51 16.82 16.82 0 0 0 .3 3.33c.3 1 1.89 2.12 4.47 1.89s3.93-.6 4.46-1.43.3-3.94.3-3.94 2.27 2 2.8 2a7 7 0 0 0 3.41-2.58 2.27 2.27 0 0 0 0-2.8c-.6-1.06-5.9-6.43-5.9-6.43l-.08-6.21 4.36 4.04s.08 3.2.08 3.5.22.68.91 1.21 3.4.91 3.93.38.61-4 .61-4 .91-.08 1.66-.08 1.89.08 2-1.28a3.81 3.81 0 0 0 -1.75-3.26c-.75-.38-4.08-.22-4.08-.22l-5.91-4.7 7.72-.15s4 6 4.77 6.59a3 3 0 0 0 3.41-.38c.83-.83 2.72-2.35 2.8-3s-1.67-2.88-1.67-2.88a36.6 36.6 0 0 0 4.09-.37c.76-.23 1.44-2 1.52-3.79s-.33-4.2-1.09-4.66zm-1.55 6.32c-.38.08-7-.37-7.23-.15s0 1.25.61 1.78 3 3.37 2.72 3.71a6.36 6.36 0 0 1 -1.93 1.48c-.26 0-6.28-7.12-6.7-7.19s-9 .15-9.35.15-1.36 1.17-.83 1.78 8.25 6.66 8.59 6.73 3.33 0 4 .19 1 2.31.76 2.39-3.25-.23-3.71.3 0 3.71-.38 3.67-2.49-.11-2.72-.61.11-3.74 0-4a84 84 0 0 0 -6.2-5.76 2.27 2.27 0 0 0 -1.2.3 2.81 2.81 0 0 0 -1.48-1.32.85.85 0 0 0 -.58.7 8.29 8.29 0 0 0 1.26 1.89v1.91a13.71 13.71 0 0 0 -1.65-2.5c-.28-.15-.75.32-.9.63s2.46 3.91 2.46 3.91 0-.1.08-.24v2a16.49 16.49 0 0 0 -1.68-2c-.22-.09-.53.2-.56.52a31.67 31.67 0 0 0 2.25 3.33 3.93 3.93 0 0 0 0 .75c.11.19 6.73 6.09 6.66 6.43a4.91 4.91 0 0 1 -1.18 1.48c-.11 0-3.82-2.69-4-2.69a2.16 2.16 0 0 0 -1.48 1.63c-.11 1 0 4.12-.26 4.27a14.38 14.38 0 0 1 -4.24 0 1.67 1.67 0 0 1 -.5-1.36c0-.23.12-4.43 0-4.69s-.76-1.06-1.48-.57-2.87 2.92-3.1 2.84-1.36-1-1-1.59 5.77-5.15 5.88-5.33.23-9.12.19-9.54-1.55-1.67-2.23-1.21a95.42 95.42 0 0 0 -7.38 7.42c-.19.49-.76 4.73-1 4.88s-2.54-.3-2.5-.61 1.32-4 1.25-4.27a1 1 0 0 0 -1.1-.38 16.6 16.6 0 0 1 -2.5.26c-.26 0-.26-2.31.34-2.53s4-.5 4.51-.57 4.92-4.54 5.41-5.26.07-1.86-1.21-2.2-9.35-.34-9.77 0-5.45 6.54-5.75 6.47-1.7-1.48-1.44-1.82a37.78 37.78 0 0 0 2.88-3.25c.11-.41-.27-1.06-1.93-1.1s-3.75.19-3.94 0-.23-4.39.08-4.43 3 0 3.52-.15 1.78-1.44 1-2.38-2.27-2.12-2.31-2.33 2.27-2.12 2.73-1.74 4.61 6.36 4.84 6.47 7.15 0 7.65 0 1.89-1.36 1.21-2.34-4.17-4.43-4.73-4.51a22.79 22.79 0 0 1 -2.88 0 12.55 12.55 0 0 1 -.72-2.76c.11 0 3.07.08 3.37 0s.68-1 .68-1.25a13.55 13.55 0 0 1 .23-2.61c.15 0 1.85-.26 1.93.19s0 3.75.15 4.09 5.75 5.56 6.28 6 2.73.45 2.69-1.1-.15-8.52-.23-9-4.69-3.48-6-4.31-2-1.37-2-1.59 1.47-1.9 1.77-1.82 3.75 2.16 4.17 2.08a2.3 2.3 0 0 0 1.13-1.21c0-.23-.19-4.28-.07-4.43a20.29 20.29 0 0 1 4.27 0c.16.16.34 4 .38 4.17a4.85 4.85 0 0 0 1.89 1.13c.21-.16 4.15-2.46 4.38-2.46a7.45 7.45 0 0 1 1.46 2.53c-.15.11-7.6 5.07-7.76 5.52s-.07 8.9.23 9.12 1.4 1.06 2 .68a77.11 77.11 0 0 0 6-6.35c.11-.34-.23-2.39.11-2.65s1.78-.68 1.89-.31-.22 2.31.15 2.54 3.22.23 3.3.45.15 2-.08 2.12-3.4.08-3.82.23a50.11 50.11 0 0 0 -5.6 6.21c0 .38.45 1.06.94 1s10 .07 10.41-.11 5.45-5.87 5.87-5.83 1.85 1.21 1.7 1.44-2.76 2.68-2.72 3.14a1.79 1.79 0 0 0 1.74 1.27c.9 0 4.16-.15 4.27.3s.12 3.86-.26 3.93z" fill="#1d1d1b"/></svg>