<svg height="64" viewBox="0 0 64 64" width="64" xmlns="http://www.w3.org/2000/svg"><path d="m48.81 26.48s2.93-9.24 2.93-10-2.73-.8-2.73-.8.2-1.19.33-2.92.6-5.45.53-5.72a3.52 3.52 0 0 0 -1.79-1.8 11.43 11.43 0 0 0 -4.26.8c-.33.27 0 1.13 0 1.13l-1.66.4a9.51 9.51 0 0 0 -.26-1.57c-.14-.26-1.27-2.33-1.93-2.59s-3.66.73-3.66.73l-.07 3.86-1.13-.14s.07-3.45.07-3.72a7.63 7.63 0 0 0 -2.73-2.14 10.35 10.35 0 0 0 -3.26.66 29.22 29.22 0 0 0 -.06 3.33h-1.13a26.48 26.48 0 0 0 -.34-2.66 3 3 0 0 0 -1.92-1.33 14.41 14.41 0 0 0 -3.33 1c-.4.13-1 1.06-1 1.06l-2.06.54s-.73-.87-1.26-.94a8.79 8.79 0 0 0 -3.46 1.8c-.4.53.33 3.39.33 3.39s-3.19.73-3.52.93 1.46 4.79 1.46 4.79a2.33 2.33 0 0 0 -.6 1c-.06.46 3.33 10.24 3.33 10.24s-3.79 3-4.06 3.85 4 23.15 4.59 26.67 2.46 5.32 3.46 5.52 5-.6 9-.6a97.25 97.25 0 0 1 11 .73 4.83 4.83 0 0 0 5.19-2.33c1.2-2.12 6.45-24.33 6.65-25.4s1.2-3.79 1.13-4.59-3.78-3.18-3.78-3.18zm.9 3.23a9.74 9.74 0 0 1 -1.71-.07s.3-1.1.47-1.06 1.31 1.03 1.24 1.13zm1-12.77c-.14.23-3.56 12.4-3.86 12.47a9.68 9.68 0 0 1 -2.66-.07s3.42-12.3 3.52-12.4 3.13-.23 3 0zm-1.57-9.54c0 .16-1.09 8-1.19 8.08s-1.3-.07-1.3-.07 1.23-7.88 1.36-8 1.13-.18 1.13-.01zm-1.26-1.5c.3 0 .8.5.73.6a13.69 13.69 0 0 1 -3.42-.23s2.39-.4 2.69-.37zm-3.19 1.17c.3.06 2.49.46 2.49.69s-2.46 15.63-3 18a16.2 16.2 0 0 1 -1.06 3.53l-2.06-.2s3-14.06 2.76-14.43a3.32 3.32 0 0 0 -.77-.73s1.34-6.93 1.64-6.86zm-4.69 10.1c.1.37-2.09 9.68-2.29 9.51a33.19 33.19 0 0 1 -.74-4c0-.17 1.9-6.72 2.17-6.68s.76.81.86 1.17zm-.13-2.06s2.06 0 2.39 0 .73 1.13.67 1.29a7 7 0 0 1 -2.07.3 12.69 12.69 0 0 1 -.99-1.59zm1 2.63a6.91 6.91 0 0 1 1.93.1s-2.52 11.37-2.66 11.4-2-.06-2-.06 2.52-11.28 2.72-11.44zm1.13-9.38c.1 0 1.43-.06 1.43.14a51.71 51.71 0 0 1 -1.07 5.41.66.66 0 0 1 -.53.14s.1-5.69.17-5.69zm-.87 5.82a12.35 12.35 0 0 1 -1.53.1s-.26-7.81-.13-7.91a4.56 4.56 0 0 1 1.66 0c.03.13.13 7.74.03 7.81zm-1.36-9.91c.13.07 1.16 1.1.83 1.23a4.06 4.06 0 0 1 -1.6.17c-.06-.1-1.13-1-1.26-1.16a18.29 18.29 0 0 1 2.03-.24zm-2.5.9a3.09 3.09 0 0 1 1.1.77c.07.16.57 8.44.5 8.64a12.79 12.79 0 0 1 -1.3 1.33s-.46-10.74-.3-10.74zm-2.27 3.59c.37 0 1.23-.07 1.3.17s.89 10.87.79 11-.53.14-.53.14-1.06-6.85-1.26-7a.81.81 0 0 0 -.47-.17s-.22-4.17.17-4.14zm2.09 20.55h-3.19s-2.25-14.31-2.11-14.53a8.13 8.13 0 0 1 2.49-.93c.17.15 2.79 15.46 2.79 15.46zm-2.94-24.47c0 .23-.07 7.94-.17 8s-1.43.2-1.43.2-.2-7.38-.06-7.45 1.63-.98 1.66-.75zm-1.73-2.06c.27.1 1.46 1.13 1.33 1.39a2.64 2.64 0 0 1 -1.7.6 9 9 0 0 1 -1.69-1.43 9 9 0 0 1 2.06-.56zm-2.42 1.53c.14-.07 1.43 1.09 1.47 1.19s.13 8.22 0 8.32-1.07.53-1 .73 1.16 7.05 1.8 10.57.66 4.42.53 4.42l-2.43-.13s-.51-25.04-.37-25.1zm-1.74 2.76c.2 0 .9-.14.9.06s.1 3.53 0 3.56a9 9 0 0 1 -1-.07 21.15 21.15 0 0 1 .1-3.55zm.44 4.75-.1 17.92s-2.93 0-3 0 .26-17.92.36-17.92zm-1.07-1.2a5.23 5.23 0 0 1 -1.26 0s-.87-6.12-.77-6.28a2.84 2.84 0 0 1 1.2-.47c.13 0 .9 6.65.83 6.75zm-2-8c.3.1.87.44.77.6a9.23 9.23 0 0 1 -1.4.83 9.66 9.66 0 0 1 -1.86-.4 11.68 11.68 0 0 1 2.46-1.01zm-2.75 2.09a10.94 10.94 0 0 1 2.22.19 47.74 47.74 0 0 1 .7 5.69.9.9 0 0 0 -.5.37c-.1.16-.86 3.69-.86 3.69s-1.76-9.91-1.56-9.94zm0 23.57c.2.33.33.66.6.46a14.41 14.41 0 0 0 1.19-1.74 15.2 15.2 0 0 1 -.13 3 19 19 0 0 1 -2 0s-1.79-5.05-1.79-5.25a50.84 50.84 0 0 0 1.79-6.75c.34-2.59.6-4 .87-3.92s.93 3.92 1.13 4.25a1.21 1.21 0 0 1 .2.54v5.65s-2.06 3.48-1.86 3.76zm-1.3-23.44c.2.2 1.63 7.45 1.6 7.71a.4.4 0 0 1 -.27.33s-2.76-7.38-2.59-7.61 1.06-.63 1.26-.43zm-2 1.79c.13.17 2.63 6.19 2.59 6.39s-.73 5.92-1.16 6.05c0 0-2.93-11.67-2.79-11.84s1.27-.76 1.4-.6zm-2.56 6.49s-.8 1.19-.93 1.29-2.2.5-2.2.5a7 7 0 0 1 1.57-1.73 6.77 6.77 0 0 1 1.6-.06zm-1.36-6a5.27 5.27 0 0 1 1.66.6c.23.2 1.39 4.19 1.16 4.36s-1.39 0-1.39 0-1.66-4.95-1.39-4.95zm2.36 6.15c.13.07 2.52 6.89 2.62 7.22a9.88 9.88 0 0 1 -.46 2.76s-3.25-8.47-3.18-8.64.92-1.39 1.06-1.33zm-.02-8.53c.3 0 1.26.73 1.23 1s-1.7 1-1.7 1-2-.7-2-.93a16.45 16.45 0 0 1 2.47-1.07zm-5.6 6.18c.14-.13 2.8-1.09 3.06-.86a10 10 0 0 1 .7 2.29 6.09 6.09 0 0 0 -1.06.07c-.14.07-1.57 1.4-1.57 1.4a18.8 18.8 0 0 1 -1.13-2.9zm1.5 4.59a11.52 11.52 0 0 1 2.66-.51s5.05 15.09 4.79 15.16-2.6-.13-2.6-.13-5.12-14.25-4.85-14.52zm2.53 12.9c.2.13.93 1.73.66 1.86a4.72 4.72 0 0 1 -2.46-.46c-.48-.49 1.6-1.53 1.8-1.4zm30.78 14.05a8.65 8.65 0 0 0 -1.69-1.38c-.17 0-.63.36-.63.66s1.53 1.31 2.06 1.67c-.17.65-.35 1.29-.53 1.94a15.07 15.07 0 0 0 -1.86-1.68.72.72 0 0 0 -.5.67c0 .27 1.54 1.38 2.14 1.81-.13.49-.27 1-.4 1.45a14.2 14.2 0 0 0 -2.21-1.87c-.23 0-.63.6-.6 1a11.48 11.48 0 0 0 2.49 2c-.14.51-.28 1-.41 1.48-.8-.84-2.2-2.16-2.34-2.28s-.93.33-1 .7 2.06 2 3 2.7c-.15.53-.29 1-.42 1.52-.89-.84-2.62-2.23-2.74-2.33s-1 .57-1 .74 2.47 2 3.43 2.67l-.49 1.73a23.87 23.87 0 0 0 -2.88-2.54c-.33-.13-.69.6-.66.86a34.27 34.27 0 0 0 3.1 3.07 5.16 5.16 0 0 1 -.64 1.2 45.25 45.25 0 0 0 -3.33-3.25c-.26-.13-1.06.47-1.06.73a37.59 37.59 0 0 0 3.46 3.4 3.54 3.54 0 0 1 -1.58.35 21.07 21.07 0 0 0 -3.15-2.78c-.23 0-1 .46-1 .69a16.12 16.12 0 0 0 2.24 2c-2.28-.12-5.74-.35-8.55-.2-3.73.2-7.48.27-8.38.27s-2-1.66-2.46-3.49-4.62-23.2-4.39-23.47 7.88-.73 17.23-.86 18.54.13 18.54.23-1.28 5.07-2.79 10.59zm-27.62-6.14a1.19 1.19 0 0 0 -.2-1.06 5.32 5.32 0 0 0 -2.26.37c-.27.16 1.72 7.91 1.72 7.91.2.17 1.2.17 1.27-.27s-1.63-6.41-1.67-6.55 1-.3 1.14-.4z" fill="#1d1d1b"/></svg>