<svg height="64" viewBox="0 0 64 64" width="64" xmlns="http://www.w3.org/2000/svg"><path d="m11.51 44a2.76 2.76 0 0 0 -1.24.15c-.34.07-.3.6 0 .67a1.49 1.49 0 0 1 .93.34c.53.37.27 1.5.38 1.87s.48.11.75-.07.37-.72.26-1.54a1.71 1.71 0 0 0 -1.08-1.42zm8.34-23.89a1.41 1.41 0 0 0 .57-.49c.11-.26-.34-.56-.45-1s1-1.31 1.05-2.17-.19-.79-.79-1.68.6-2.7.64-2.93-.3-.67-1 0-.5 3.16-.5 3.16.3.6.56 1.09 0 1.16-.52 1.8.26 2.19.44 2.23zm4.53-5.58c.38.83-.86 1.87-.86 1.87a1.43 1.43 0 0 0 -.07.83c.11.34.82 0 1-.38a4.09 4.09 0 0 0 .79-2.24c0-1.31-.9-1.65-1.09-2.21a12.32 12.32 0 0 1 .19-2.85 6.1 6.1 0 0 0 .11-1.34.58.58 0 0 0 -.86-.12c-.3.27-.26 4.23-.19 4.87s.6.76.98 1.58zm32.73-3.07c-.23-3.78-2-4.6-4.68-6.1a17.45 17.45 0 0 0 -5.17-1.86s.22-.83-.3-1.09a16.91 16.91 0 0 0 -4.27-.41c-.48.12-.78.9-.78.9s-2.14 0-4.53 0-6.14.56-7 1.54-2.17 16-2.17 16-1.21.77-5.06 3.56-12.69 8.72-13 9.62.71 6.85.71 6.85-2.46 1.59-3.17 2.23-1.09 2.21-.64 4.15a4.4 4.4 0 0 0 3.26 3.56 4.5 4.5 0 0 0 3.18-.9s.15 3.93.49 4.42.26.26 2.13 1.53a102.9 102.9 0 0 0 11.2 5.66c2.24.9 4.6 1.2 5.95.71s5.16-3.71 9-6.93 6.54-5.5 7.06-6.9 2.51-17.74 2.51-17.74 1.23-2.74 3-7.38 2.5-7.63 2.28-11.41zm-14.23-8.37c.22-.12 2.92-.08 3 .26s-.82 4.9-1.19 5a7.35 7.35 0 0 1 -2.36-.64 20 20 0 0 1 .55-4.62zm2 6.4c.3-.08.26-.38.49-.34s3.67 1 4.42 1.31 1.21.54 1.21.79-1.87 10-2.39 12.13-.9 4.19-1.16 4.15-13.11-5.91-14.53-6.25c0 0 1.46-13.14 2-13.25s6.36.26 6.51.3.22.22.41.34a16.67 16.67 0 0 0 3.06.82zm-12.88-3.97c.48-.37 3.33-.79 5.65-.82a37.39 37.39 0 0 1 3.86.11s.15 2.58-.08 2.66-6.29-.15-6.92 0-.87 1.24-1 1.68-.63 4.65-1 7.49-.51 4.36-.51 4.36l-2.17-.71s1.63-14.4 2.17-14.77zm-2.86 16.62c1-.33 9.77 3.86 13.22 5.24a38.31 38.31 0 0 1 7.56 4.12c0 .19-3.82 3.9-3.82 3.9a6.27 6.27 0 0 0 -.1-1.61 6.35 6.35 0 0 0 -1.31-.23s1.16-1.46 1.46-1.5.52.64.71.72.45-.15.49-.27a.35.35 0 0 0 -.11-.41c-.19-.19-.53-.34-.49-.45s.86-.93.82-1.08a3.29 3.29 0 0 0 -1.68-1.2c-.68-.08-.86 0-1 .22l-.83 1-1.53-.93s.26-1.05 0-1.2a12.17 12.17 0 0 0 -2.27-.46 1.61 1.61 0 0 0 -.6.18l-.9-.63s0-1.24-.22-1.31a9.2 9.2 0 0 0 -2.1 0c-.11.07-.07.3-.26.18a20.08 20.08 0 0 1 -3.6-1.79 5.51 5.51 0 0 0 -2.17-1.2 4.14 4.14 0 0 0 -1.57.26c-.19.15-8.57 5.88-10.71 7.3s-3.85 2.32-3.89 2.58a2 2 0 0 0 .6 1.17l3.33 2.13-1.17.59s-5.13-3-5-3.49 16.13-11.49 17.14-11.83zm7 14.38c-.08-.11-.41-1 0-1.12s9.29-1.24 9.25-1 .37 1.24-.15 1.43-9.06.69-9.06.69zm8.38.15a6.35 6.35 0 0 1 -1.23.86c0-.15-.15-.94.07-.94s1.32-.15 1.2.08zm-22.27-5.24c.23.07.49.22.56-.15a20.13 20.13 0 0 1 .11-2.17c.15-.23 1.88-1.2 1.91-1a7.58 7.58 0 0 1 0 2.28c-.18.22-1.08 1.72-1.53 1.72s-5.28.08-5.39-.22a19.76 19.76 0 0 1 4.19-2.44c.11.14-.1 1.9.15 1.98zm.94 1.5c0 .15.07.67-.38.71s-6.06.18-6.21.07-.19-.6-.08-.63 6.67-.3 6.67-.15zm-.12 1.34c.23-.26 5.55-8.35 6-8.5s1.65 0 1.58.15-5.54 7.23-5.77 7.75a2.34 2.34 0 0 0 .12 1.76c.23.3 1.35.3 1.61.38s.41.41.41.41a1.64 1.64 0 0 0 -.6.3l-.42.48-.48.07s-1.35-2.28-1.8-2.39a4.62 4.62 0 0 0 -2.21.41l-2.81 1.2-1.94-1.61s6.09-.14 6.31-.41zm2.51-5.58a6.79 6.79 0 0 1 .3-1.87c.23-.26 2.4-2.06 2.51-1.87s-.34.71-.52 1a29.58 29.58 0 0 1 -2.29 2.74zm15.76 5.25a4.17 4.17 0 0 1 -.74 0c0-.11.11-1.69.11-1.69s1.23-2 1.46-1.91 1.23.83 1.2 1a15.56 15.56 0 0 1 -2.03 2.6zm4.09-3.94c.3.11 1.19.48 1.08.67s-3 3-3.14 3-.71-.12-.71-.12 2.47-3.66 2.77-3.55zm-5.06 1.46-.37-.93-.74.07c0-.11.74-2 1.16-2s1.38.41 1.31.71a22.38 22.38 0 0 1 -1.36 2.16zm-.78-.12a7.25 7.25 0 0 1 .29 2.32c-.15.12-11.53 2.25-11.68 2.18a8.24 8.24 0 0 1 -.3-1.8c.1.01 11.57-2.84 11.69-2.69zm-4.39 8.36c-.26-.07-1.79-.37-1.79-.37s1.57-.71 1.68-.53 0 .6.38.57.86-.27.82 0 0 1.87-.11 2.09-.86.45-.86.45.15-2.13-.12-2.21zm-7.37.49c-.19-.08-.08-.71-.08-.71a62.25 62.25 0 0 1 6.59-1.31c.08.18.45.26-.11.56a51.51 51.51 0 0 1 -6.4 1.46zm4.17 1.27a.85.85 0 0 1 -.56 0c-.15-.07-1.5-.89-1.5-.89.26 0 2-.6 2.13-.34s.1 1.19-.07 1.23zm-1.21-10.46c-.19 0-2.74 0-2.85.3a1.83 1.83 0 0 0 0 1.08 1.93 1.93 0 0 1 .19.45l-1.53-.15s3-4.41 3.37-4.3 1.46.56 1.38.78-.35 1.84-.56 1.84zm3.33.56c0 .19.15.37-.08.49s-5.05.86-5.05.86-.3-.94-.19-1.05a32.31 32.31 0 0 1 5.32-.32zm-7.23 2.13c.12.19-.11.75 0 1s.38.63.38.63-.34.27-.53.15-1.19-.41-1.19-.67.07-1.16.26-1.2.97-.11 1.08.07zm.34 3.26s8.09-1.61 8.16-1.42a8.82 8.82 0 0 1 -.11 1.57l-8 1.57zm5.84 3.52c.3 0 1.69-.11 1.65.15s-.11 2.17-.41 2.17-1.31-.9-1.31-.9-.23-1.44.07-1.44zm6.14-11.64c-.15.22-.9 1.87-1.05 1.94a1.68 1.68 0 0 1 -.6 0s.79-2.62 1-2.54.8.35.65.58zm-1.35-.9c-.11.15-1 3.14-1.23 3.26a19.2 19.2 0 0 1 -2 .41c.11-.23 1.8-4.91 2.06-4.87s1.42.23 1.42.38a2.34 2.34 0 0 1 -.25.8zm-3.63 2.73a1.32 1.32 0 0 1 -.64 0c0-.11 1-4.15 1.43-4.11s.78.3.75.45a22.94 22.94 0 0 1 -1.54 3.64zm-1.31-.15a10 10 0 0 0 -1.23.19 43.46 43.46 0 0 1 1.72-4.49c.18 0 .63.15.67.33a25.44 25.44 0 0 1 -1.16 3.95zm-1.42-2.23a6.81 6.81 0 0 1 -1.35-.6 14 14 0 0 0 1.54-2.47c-.08-.26-.64-.22-.94-.26s-1.54-.11-1.54-.11 0-.45.34-.53a2.37 2.37 0 0 1 1.54 0c.6.26 1.64.93 1.61 1.2s-.94 2.77-1.2 2.77zm-4.91 12a5 5 0 0 0 1.28.67c.75.27 1 .08 1.19.19s4.57 2.51 5.25 2.51 5.91-4.68 6.21-4.75 1.76-.15 1.65 0-7.3 6.62-8.13 6.77-8.72-4.64-8.72-4.64zm10.41-1c.26-.07 2 0 1.8.19a24.12 24.12 0 0 1 -2 1.5c.01-.22-.06-1.64.2-1.72zm-1.31-.82s-.11-.64.08-.67 7-.75 6.89-.53-.19.71-.19.71zm-19.88-4.6c-.19.19-.45.15-.75 0s.13-.63.49-.71c.19-.07.45.52.26.71zm-3.81 1.42a24.57 24.57 0 0 1 4.11 2.66c-.11.15-3.78 1.84-3.78 1.84s-.52-4.42-.33-4.5zm1.19 12.32c-2 1-1.91 1.39-3.37.75s-1.91-3.59-.56-4.75c.32-.28 13-7.49 13.85-7.27s1.13 1.35 1.24 2a15.65 15.65 0 0 1 .15 1.67l-.55.39a6 6 0 0 0 -.69-1.47c-.15-.15-.41 0-.71.22s.51 1.35.73 1.72l-.56.39a4.54 4.54 0 0 0 -1.07-1.62c-.3-.15-.48.22-.6.41s.67 1.31.95 1.72l-.46.32a4.67 4.67 0 0 0 -1.2-1.66c-.26-.12-.41.11-.52.33s.67 1.39.95 1.86c-2.84 1.93-6.43 4.39-7.58 4.99zm21.15 5.4v1.94c-.37-.78-.93-1.85-1.08-1.82s-.49.44-.49.82a20.64 20.64 0 0 0 1.5 3c0 .85-.09 1.45-.14 1.86a22.65 22.65 0 0 0 -2.33-3.88c-.26 0-.52.38-.52.6s1.72 3.48 2.25 4.48a2.63 2.63 0 0 1 -.65.31 35.35 35.35 0 0 0 -2.43-4.25c-.22-.19-.9 0-1 .19s1.69 3.17 2.32 4.26a5 5 0 0 1 -1-.08 36.33 36.33 0 0 0 -2.53-3.92c-.26-.26-.71.07-.83.37s1.42 2.32 1.99 3.12c-3-1.25-9.65-4.7-11.57-5.62a12.09 12.09 0 0 1 -2.51-1.38s-.59-4.12-.52-4.49c0-.13 9.92-6.85 9.92-6.85s5.17 3.29 6.85 4.19a4.19 4.19 0 0 0 2.4.75s.45 1.15.37 6.4zm14.86-11.94a12.7 12.7 0 0 0 -1.68-1.73c-.11 0-.37.48-.41.71a17.82 17.82 0 0 0 1.89 2.37c-.09.6-.17 1.14-.25 1.57a12.72 12.72 0 0 0 -1.75-2.63c-.26-.11-.56.34-.64.67a17.92 17.92 0 0 0 2.21 3.19c-.1.43-.22.85-.35 1.24a22.41 22.41 0 0 0 -2.22-2.89c-.22-.11-.45.15-.6.52s1.7 2.47 2.45 3.4a9.43 9.43 0 0 1 -.41.88 15.92 15.92 0 0 0 -2.71-3.23c-.34-.07-.38.23-.45.56a22 22 0 0 0 2.46 3.48c-.29.25-.73.61-1.27 1a13 13 0 0 0 -1.77-2.57c-.18 0-.41.23-.6.56s1.31 2 1.79 2.48c-2.37 1.92-6 4.79-7.1 6a14.62 14.62 0 0 1 -2.51 2.17c.07-.23.15-6.29 0-9.25s-.15-3.37-.15-3.37 7.08-5.69 10.78-9.36 4.05-4.53 4.24-4.08c.08.25-.47 4.8-.95 8.31zm5.51-23.93a86 86 0 0 1 -4.49 12.46c-.15-.07-1.65-1.61-1.65-1.61s2.58-13.55 3-15.38-.08-2.25-.75-2.74a35.28 35.28 0 0 0 -5.09-1.53s.78-3.11 1.12-3.15 5 1.05 7.07 3.34 1.84 4.3.79 8.61z" fill="#1d1d1b"/></svg>