<svg height="64" viewBox="0 0 64 64" width="64" xmlns="http://www.w3.org/2000/svg"><path d="m55.21 2a7.92 7.92 0 0 0 -5.21 2.47 27.63 27.63 0 0 0 -2.83.14 82.55 82.55 0 0 0 -16.17 3.39c-10 3-20.11 9.41-23.41 12.31s-2.59 5.34-2.5 6.21c.45 3 5 7.84 14.88 14s17.3 6.24 17.3 6.24 7.42 14.16 8.41 14.79 4.22.58 5 .36a3 3 0 0 0 1.66-3.1c-.09-1.71-5-16.18-5-16.18s.4-.27 2.74-4 3.92-7.82 5.21-14.74a52.39 52.39 0 0 0 .41-14.16 10.09 10.09 0 0 0 3.06-2.88 3.52 3.52 0 0 0 -3.55-4.85zm-48.21 23.82c-.34-.45 2.07-5.35 11.87-10.29s20.96-8.18 26.49-8.63 7.06.67 7.37 1.3-.45 1.75-.9 2.25-7.23 6.65-20.18 11.55-17.43 5.13-19.91 5.13-4.13-.55-4.74-1.31zm47-8.92a10.41 10.41 0 0 0 -2.72-1.1c-.45 0-.72.72-.67.85s2.68 1.31 3.32 1.6q-.06.88-.15 1.83a34.88 34.88 0 0 0 -4.78-2.08c-.31 0-.58.59-.58.81a50.25 50.25 0 0 0 5.19 2.53c-.08.64-.18 1.3-.29 2a55.16 55.16 0 0 0 -5.08-2.61c-.32 0-1 .63-.86.85s4.39 2.39 5.69 3.05c-.12.59-.26 1.18-.41 1.78-1.22-.7-5.4-2.89-5.63-2.89s-.59.67-.5.81 4.43 2.39 5.84 3.13c-.17.59-.36 1.17-.57 1.75-1.33-.75-5-2.46-5.13-2.46s-.5.72-.45.9 4 2.18 5.12 2.76c-.22.57-.45 1.1-.67 1.62a35.77 35.77 0 0 0 -5-2.31c-.22 0-.27.76-.22.9s3.71 1.93 4.72 2.43c-.19.42-.38.83-.57 1.21a39.74 39.74 0 0 0 -4.38-2.34c-.22 0-.45.72-.4 1a34.78 34.78 0 0 0 4.3 2.32q-.37.75-.75 1.41a27.29 27.29 0 0 0 -4-2.11c-.23 0-.59.63-.54.9a30.71 30.71 0 0 0 4 2.21c-.27.44-.52.85-.75 1.21-1.07-.69-4-2.3-4.12-2.3s-.45.54-.54.81 3.12 1.95 4 2.43c-.95 1.36-1.56 2-1.6 2.15-.09.32 5.66 17.08 5.35 17.62s-3.17.23-3.17.23-8-15-8.32-15.24a36.13 36.13 0 0 1 -15.37-5.21c-8.9-5.22-12.67-8.14-14.52-10.43 0 0 8.05 1.39 22.74-4.63s18.07-9.12 19.38-10.16a21.81 21.81 0 0 0 2.92-3.19 49 49 0 0 1 .17 5.96zm2.9-11.22c-.23.59-1.89 1.8-1.89 1.8a3.37 3.37 0 0 0 -2.65-2.43 8.71 8.71 0 0 1 3.32-.85c1.19.14 1.41.9 1.19 1.48zm-41.2 16.86a59.41 59.41 0 0 1 7.5-4.54c5.17-2.65 8-2.92 8-2.92s.09-.9-.13-.94-2.84.4-7.92 2.69a38.16 38.16 0 0 0 -8.31 5.08.91.91 0 0 0 .86.63zm6.07 8.09a13.9 13.9 0 0 1 -5.71.31c-.18.18-.27.86.09 1s2.25.49 5.93-.23a15.12 15.12 0 0 0 6.29-2.56.84.84 0 0 0 -.18-.81 50.71 50.71 0 0 1 -6.42 2.29z" fill="#1d1d1b"/></svg>