<svg height="64" viewBox="0 0 64 64" width="64" xmlns="http://www.w3.org/2000/svg"><path d="m56 39.55c-3.71-2.67-9.12-5.2-10.43-6.07s-1.75-3.11-.27-5.11 4.72-3.24 7.17-6.38a6.29 6.29 0 0 0 -1.23-8.61c-1.92-1.17-5.15 0-8 1.8s-6.34 3.27-6.64 3.45-.18.08-.39-.05.87-2.79 1.22-5a11.35 11.35 0 0 0 -4.76-10c-4.1-2.77-9.56-1.81-13.18 1.33s-4.15 6.68-2.62 11.09a9.14 9.14 0 0 0 4.84 5.76c.62.39-1.26 1-4.58 1.57s-8.61.83-10.57 1.92c-6.73 3.75-2.88 9.1.22 10.19s9.69.61 11 .7 2.71.74 3.06 1.48-.44 3.28-2.27 7.17-3.32 6.9-3.71 9.52-.4 5 1.74 6.68 4.55 1.27 7.43-.35 8-6.37 10.83-9 4.63-3.23 6.25-2.7 9.3 3.45 13.8 3.23 6.11-2.71 6.24-5.46-1.39-4.5-5.15-7.16zm-12.62-21.8s4.93-3.19 6.77-2 1.48 3.54-.18 5.51a6.86 6.86 0 0 1 -3 2.31s-.35-1.09-1-1-.91.44-1.31 0 .61-1.44.13-2.14-.43-.35-1-.44-.74-.22-.69-.87a6.62 6.62 0 0 1 .28-1.37zm-30 16.08c-.53 0-6-.31-7.34-1.18s-1.4-3.41.57-4.94 5.67-1.35 5.67-1.35a1.4 1.4 0 0 0 .39 1.64c.83.61 2 .61 1.66 1.09s-.74 1.13-.21 1.48 1.13.13 1.09 1.05a3 3 0 0 1 -1.79 2.21zm13.93 21.05a14.45 14.45 0 0 1 -5.2 3.84c-2.4.92-3.23 1.14-4.33 0s-.26-5.37.66-8.08a2.65 2.65 0 0 1 2.23.22c.43.48.17 1.57 1 1.48s1.66-.78 2.36.09.21 1.27 1.22 1.22 1.35-.35 1.75 0a1.33 1.33 0 0 1 .31 1.23zm19.3-7.88c-.44.74-.52.92-.52.92s-5.11-2-7.08-1.7c-.86.13-2.72 1.44-4.59 2.92a20.06 20.06 0 0 0 -1.42-3.43 1.13 1.13 0 0 0 -.73.88 17.2 17.2 0 0 0 1.1 3.41l-1.06.89a32.63 32.63 0 0 0 -1.31-3.66c-.13-.19-.73.23-1 .55s.72 2.76 1.17 4l-1 .85a13.09 13.09 0 0 0 -1-2.74c-.28-.42-.78.36-.92.64a14.66 14.66 0 0 0 .92 2.93l.2-.06-.21.21c-.7.74-.83 1-.92.74s0-2.36-1.09-2.31-1.57.7-2.1.22-.61-1.71-1.57-1.66-1.14.39-1.44.17-.22-.74-1-1.13a4.35 4.35 0 0 0 -2.1-.22s4-7.43 4.46-10.27-.4-4.32-2.3-4.93-6.16-.39-6.16-.39 2.15-1.27 1.66-2.71-1.44-1.05-1.44-1.62.57-1.09.18-1.57-1.62-.44-1.79-.66-.35-.78 0-1c0 0 5.33-.66 7.78-2.1s3.05-2.4 2.53-3.23-2.88-1.18-4.54-5-1.23-7.67 2.61-10.24 9.57-2.54 11.62 1.79 1.79 7.25.83 9.48-1.13 2.31-1.05 2.75.79 1.44 1.31 1.53a9.62 9.62 0 0 0 4.24-1.25c1.92-1 2.75-1.75 3.1-1.7s.57-.05.39.26-.52 1.66.13 1.88 1-.13 1 .56-.3 1.4-.13 1.88.61 1 1.09.92 1.14-.22 1.27.09-.22.56-.22.56-3.71 3.24-4.06 5.29 1.14 4.06 2.93 5.55a40.35 40.35 0 0 0 6.07 3.58c1.26.7 1.66 1 1.48 1.09s-1.44.48-1.92 1.31.09 1.09-.52 1.62-1.4.78-1.44 1.39.39 1.1.08 1.49-1.08.46-1.52 1.23zm9.13 2.53c-2.53.49-7-1-8.17-1.57-.28-.15.31-.7 1-1s1.14-.48 1.09-1-.87-1.35.22-2 1.14-.56 1.23-1.13-.09-1.05.52-1.49a3.36 3.36 0 0 1 1.83-.78c.4.08 4.85 2.92 5.24 4.93s-.43 3.51-2.96 4.01zm-24.11-19.53a1.7 1.7 0 0 0 .7-2.79 1.82 1.82 0 0 0 -2.71.65 1.62 1.62 0 0 0 2.01 2.14zm-7.63-19.35a1.48 1.48 0 0 0 -2.21.53 1.32 1.32 0 0 0 1.64 1.75 1.39 1.39 0 0 0 .57-2.28zm6 .83a1.38 1.38 0 0 0 .57-2.27 1.48 1.48 0 0 0 -2.21.53 1.32 1.32 0 0 0 1.64 1.74zm3.8 22.13a1.82 1.82 0 0 0 -2.71.65 1.62 1.62 0 0 0 2 2.14 1.7 1.7 0 0 0 .68-2.79zm-.79 7a1.62 1.62 0 0 0 2 2.14 1.71 1.71 0 0 0 .7-2.8 1.81 1.81 0 0 0 -2.71.69zm-2.66-26c0-.3-.44-.7-.66-.57a13.18 13.18 0 0 1 -2.79 1.66 6.09 6.09 0 0 1 -3.19 0c-.44 0-.13.61 0 .79s1.18.83 3.49.39 3.16-1.88 3.12-2.23z" fill="#1d1d1b"/></svg>