<svg height="64" viewBox="0 0 64 64" width="64" xmlns="http://www.w3.org/2000/svg"><path d="m51.59 16.82c-.27-1.34-2.45-3-2.27-3.12s1.29-.89 1.47-1.47a32.09 32.09 0 0 0 -.23-5.89c-.17-.54-1.38-1.92-5-3.12s-11.45-1.65-20.32-.94-11.87 3.43-11.95 3.88-.09 6.07 0 6.38a12.31 12.31 0 0 0 2 1.69 11.52 11.52 0 0 0 -2.9 4c-.4 1.34-.13 33.58 0 35s1.43 3.93 4.55 5.58a35.66 35.66 0 0 0 16.23 3.19 36 36 0 0 0 15.21-4.42c2-1.29 3-2.41 3.3-4.5s.18-34.92-.09-36.26zm-18.46-12.67c12.66.32 14.58 2.41 14.58 2.95s-7.45 3.3-14.94 3.07-14.89-2.27-15.92-3.39c-.24-.26 3.61-2.94 16.28-2.63zm-17.66 2.95a24.18 24.18 0 0 0 5.26 2.45c4.06 1.34 11.46 1.78 16.06 1.47a35.7 35.7 0 0 0 10.56-2.59c1.12-.53 1.34-.84 1.43-.66a19.54 19.54 0 0 1 0 3.25c-.09.14-3.66 3.21-10.53 4.06a53.58 53.58 0 0 1 -15.69-.45c-2.32-.49-6.87-2.58-7.14-3-.11-.14-.22-4.49.05-4.53zm34.21 36.9a2.66 2.66 0 0 0 -1.48-.67c-.4.09-.36.58-.36 1s1.23 1.38 1.83 1.88v3.08c-.62-.76-1.79-1.9-2-1.84a.81.81 0 0 0 -.49.94 21.19 21.19 0 0 0 2.42 2.79 14.86 14.86 0 0 1 -.3 1.82 30.58 30.58 0 0 0 -2.79-3.64c-.27-.14-.94.62-.94.84s2.4 3.12 3.26 4.18a4.22 4.22 0 0 1 -.83 1.08c-.59-1.13-2.49-3.64-2.78-3.64a.7.7 0 0 0 -.72.58 37.41 37.41 0 0 0 2.58 3.81c-.29.2-.63.42-1 .64a18 18 0 0 0 -2.45-3.64c-.26-.09-1 .62-1 .89a32.74 32.74 0 0 0 2.46 3.28c-.42.21-.89.42-1.4.62a10.48 10.48 0 0 0 -2-3c-.36-.09-.62.22-.8.53s1 2.05 1.62 3c-.45.15-.93.3-1.42.43a6.47 6.47 0 0 0 -1.27-2.1c-.27-.09-.45.23-.72.49s.33 1.31.68 1.92a26.22 26.22 0 0 1 -3.71.54 40 40 0 0 1 -16.1-2 8.8 8.8 0 0 1 -5.66-5.53c-.22-.67-.09-32.46.27-33.35a19.16 19.16 0 0 1 3.08-3.75c.32-.24 4.41 2.23 14 2.18a47.54 47.54 0 0 0 15.7-2.54 8.68 8.68 0 0 1 2.36 2.54c-.01.28-.01 17.32-.04 26.64zm-18-16c-8-.27-12.09-1.69-12.62-1.87s-1 .57-1 .85c0 .8-.71 18.14-.35 18.46s4.29 3.13 14.44 3.22 14.49-2.28 14.58-2.72.36-18.42.36-18.42a2.36 2.36 0 0 0 -.14-.85c-.13-.22-7.31 1.61-15.29 1.33zm13.89 17.22c-.13.41-4.28 2.72-12.4 2.55s-14.27-2.41-14.53-2.9.44-17.3.75-17.44 4.78 1 13 1.43a65.78 65.78 0 0 0 13.69-.8c.11.13-.38 16.76-.51 17.16zm-26.22-23.22c.45-.09.53-1.88.53-2.23s-.31-.41-.75-.41-.82 1.76-.72 2.19a.94.94 0 0 0 .94.45z" fill="#1d1d1b"/></svg>