<svg height="64" viewBox="0 0 64 64" width="64" xmlns="http://www.w3.org/2000/svg"><path d="m51.89 25.08c-.11-.74-1.36-3.46-4.26-6.32a20.63 20.63 0 0 0 -4.55-3.67v-3.86a7.32 7.32 0 0 0 1.1-.4 1.85 1.85 0 0 0 .3-2.72c-1-1.1-4.92-1.76-4.92-1.76v-1.35c0-.33-.74-3-8.12-3.09s-8.3 1.77-8.48 2a13 13 0 0 0 -.07 2.61 10.3 10.3 0 0 0 -3.09.84 2.19 2.19 0 0 0 -.92 2.13c.12.66 1.84 1.47 1.84 1.47v3.41c-.66.74-8.34 8.78-8.63 9.44s.77 30.44.77 30.62.15.74 1.47 2.65a12.71 12.71 0 0 0 7.2 4.55c2.71.48 14.72.7 18.65 0s5.73-1.44 7.12-2.57 1.69-1.95 2.13-4.48 2.57-28.77 2.46-29.5zm-20.6-21.85c4.71.07 6.71.95 6.79 1.36s-4 .7-6.86.62-6.17-.21-6.32-.55c-.05-.1 1.73-1.5 6.39-1.43zm-7 2c.14 0 .91.81 6.49.92s7.5-.26 7.53-.11a10.28 10.28 0 0 1 -.07 1.58c0 .11-2.9.8-7.31.62s-6.57-1-6.68-1.14a3.54 3.54 0 0 1 .03-1.85zm-1.78 2.88a5.61 5.61 0 0 1 .7 0s2.31.92 8 1.06 7.82-.8 7.93-.8 2.64.07 2.71.95-5.36 1-12.15.74-7.6-.52-8-.81-.4-.95.81-1.14zm25 44c-.51-.67-1.32-1.58-1.57-1.58a.56.56 0 0 0 -.51.66 18.91 18.91 0 0 0 1.92 2.41 10 10 0 0 1 -.39 1.95 48.12 48.12 0 0 0 -3.48-3.77c-.22-.11-.77.4-.77.7a47.64 47.64 0 0 0 3.76 4.11 3.86 3.86 0 0 1 -1.16 1.15 41.91 41.91 0 0 0 -3.67-4.74c-.25-.15-1 .37-1.1.59a50.7 50.7 0 0 0 3.52 4.74 14.14 14.14 0 0 1 -1.53.47 29.58 29.58 0 0 0 -3.35-4.3 1.17 1.17 0 0 0 -1.1.41c-.12.21 2.35 3.2 3.16 4.17-.58.11-1.19.21-1.83.29a23.37 23.37 0 0 0 -2.94-3.73 1.28 1.28 0 0 0 -.85.7c0 .15 1.74 2.31 2.45 3.19-1.45.14-3 .22-4.47.22a90.68 90.68 0 0 1 -12.67-.75c-2.42-.48-5.17-3-5.39-4.78s-1.29-28.52-.96-29.22a99 99 0 0 1 6.42-7.89c.26 0 .41.48.41.48s.11.55.51.66 1.47-.26 1.43-.63-.51-6.42-.51-6.42a56.67 56.67 0 0 0 8.89.77c4.95 0 9.07-.26 9.07-.26s-.15 5-.08 5.47.11.74.63.85a8.78 8.78 0 0 0 1.21.14s0-.73.25-.73a27.51 27.51 0 0 1 4.81 4.74c1.91 2.31 2.1 3.19 2.1 3.37s-1.72 21.14-2.25 26.55zm-27.38-30.89a31 31 0 0 0 -3.05 4.78c0 .29.88.59 1.06.55a34.36 34.36 0 0 0 2.86-4.82c0-.25-.64-.6-.87-.51zm10.39-1.47c3.89 0 5.91-1 6-1.17a.92.92 0 0 0 -.33-.81 31.21 31.21 0 0 1 -5.65.66 18.71 18.71 0 0 1 -5.73-.88c-.26.07-.11.84 0 1.06s1.82 1.14 5.71 1.14zm13.36 11.72a62.09 62.09 0 0 1 -12.41 1.1c-7.6-.08-10.5-.85-10.9-.92s-1.21.73-1.21 1.06c0 0 .07 14.51.47 15.35s3.64 1.84 12.17 1.94 11.79-1.5 11.93-1.84.33-13.62.37-15.05-.12-1.61-.42-1.64zm-1 15.71c-.15.29-4.74 1.58-10.54 1.47a53.31 53.31 0 0 1 -11.42-1.36c-.07-.15-.47-14.32-.47-14.43s3 .7 10.94.73 11.35-.77 11.61-.59 0 13.89-.11 14.18z" fill="#1d1d1b"/></svg>