<svg height="64" viewBox="0 0 64 64" width="64" xmlns="http://www.w3.org/2000/svg"><path d="m51.77 24c0-.33.11-1.46-3.41-5.09s-5.56-4.47-5.56-4.47v-2.4a6.61 6.61 0 0 0 1.86-1.12 2 2 0 0 0 0-3c-1.21-.92-5.02-1.47-5.02-1.47s0-2.25-.11-2.65-4-1.74-8.36-1.85-6.93.8-7 .94-.17 3.45-.17 3.45a5.2 5.2 0 0 0 -1.49.11c-.83.19-3.85.73-3.89 2.51s2.29 2.73 2.29 2.73v2.87a17.79 17.79 0 0 0 -3.82 3 39.1 39.1 0 0 0 -4.7 5.44c-.22.44 0 .36-.11 2.8s-.11 13.66.18 18.78a33.62 33.62 0 0 0 2.22 11.16c1.09 2.65 2.14 4 5.38 4.9s11.26 1.69 16.94 1.36 9.12-1.85 10-3.45 1.27-5 2.68-14.14 2.13-20.12 2.09-20.41zm-19.77-20.78c2.73.11 6.21.69 6.29 1s-3.86.51-6.62.47-5.81-.51-5.88-1c-.04-.29 3.5-.58 6.21-.47zm-7.07 1.42c.21 0 1.23.83 6.75.94s6.94-.47 7-.29a24.26 24.26 0 0 1 0 3.2 31.93 31.93 0 0 1 -7.11.51c-3.45-.11-6.39-.69-6.61-1a17.08 17.08 0 0 1 -.03-3.36zm-3.86 3.85a9.32 9.32 0 0 1 2.15-.33c.4.07.91.11.91.11a2.33 2.33 0 0 0 1.23 1.05c.91.37 2 .62 6.5.66s6.76-.51 7.16-.77a1.45 1.45 0 0 0 .55-.65 7.48 7.48 0 0 1 2.29.26c1 .32 1.27.58 1.16.9s-4.29 1.28-11.52 1.17-9.7-.89-10.5-1.24a.59.59 0 0 1 .07-1.16zm-6.79 15.84c.11-.26 5.92-7.38 6.61-7.45s2.29.18 2.36-.47-.14-4.36-.14-4.36a78.22 78.22 0 0 0 8.54.47 60.18 60.18 0 0 0 9-.33s0 4.25 0 4.51a1.63 1.63 0 0 0 .76 1.05 1.21 1.21 0 0 0 1.13-.29 5.92 5.92 0 0 0 .29-.91h.51a61.61 61.61 0 0 1 4.65 5c1.6 2.07 1.74 2.32 1.67 2.72s-.11.58-.11.58a2.36 2.36 0 0 0 -1.55-.59c-.84 0-1.46.94-1.89.94a1.31 1.31 0 0 1 -.66-.14.58.58 0 0 0 -.58-.4l-.91.07a.75.75 0 0 0 -.83-.69c-.8 0-1 .11-1.09.29s-.33.43-.44.4-.54-1-1.45-1a1.53 1.53 0 0 0 -1.38.55c-.33.29-1.09.58-1.38.43s-.84-1.09-2-1.09a4.38 4.38 0 0 0 -2.37.62 2.26 2.26 0 0 1 -1 .44 4.15 4.15 0 0 0 -1.27 0c-.55.14-.84.11-1.17.36s-.51.44-.72.47-.37-.43-1-.39a1.81 1.81 0 0 0 -1.06.39l-.39-.29s-.37-1.59-1.31-1.7-2.1.99-2.1.99a16.34 16.34 0 0 0 -2 .29 1.89 1.89 0 0 0 -1.42.84c-.18.25-.94.87-1.19.8s-.69-.73-1.42-.69-.95 0-1.2.25-.51.65-.76.69a5.89 5.89 0 0 1 -.69 0 16.75 16.75 0 0 1 -.04-2.36zm32.44 25.47c-1.12 6.21-1.23 7.7-2.94 8.64s-7.7 1.64-14.78 1.38-10.8-1.63-12.58-5.12-2-9.19-2.07-16.31 0-10.57 0-10.57a2.54 2.54 0 0 0 1.2-.26c.29-.25.51-.72 1.27-.72s.58 1.23 2 .79 1.18-1.45 2.29-1.63 1.74.11 2.33-.32.14-.84 1.23-.95.95 1.16 1.42 1.49a1.93 1.93 0 0 0 1.56.36c.44-.14 1-.25 1-.1s0 1.27.51 1.27.61 0 .65-.11-.29-1 .33-1.42a2.62 2.62 0 0 1 1.89-.29c.43.11.4.65.36.91s-.22.58-.07.65.87.22.94-.29.18-1.41.18-1.41.84-1.2 1.82-.88.87.44 1.2.37a1.62 1.62 0 0 1 .76.07s.4.36.44.51a1.94 1.94 0 0 1 0 .43 5.66 5.66 0 0 0 -1.09.29 1.28 1.28 0 0 0 -.73 1.2c.07.26 0 .37.47.26s.11-.37.88-.51 1.59 0 1.59.76-.14 1.42.11 1.46.51.21.69-.26a3.61 3.61 0 0 0 .19-2.32 2.74 2.74 0 0 0 -1.17-.88s.15-1.12 1.09-1.3a2 2 0 0 1 1.89.87c.15.25 0 .43 0 .62s-.07.47 0 .5 1 0 1 .77a1.53 1.53 0 0 1 -.58 1.2c-.07.11-.11.72.18.87s.51.18.62 0a2.82 2.82 0 0 0 1.2-1.82 2.15 2.15 0 0 0 -.62-1.6c0-.11-.14-.72.84-.8s2.14 0 2.29 1.13-.15 2.18.11 2.25.83 0 .83-.18.36-1.56.07-2-.43-.58-.47-.69.26-.66 1-.59 1.74.62 1.74 1-1.94 17.06-3.07 23.28zm-28.23-24.71a5.84 5.84 0 0 1 1.13-2.43c.91-1 1.2-1 1.24-1.31s-.08-.76-.29-.87-1.46 1.05-2.26 2.1-.76 2.33-.51 2.48.51.39.69.03zm11.56-5.67c4.47.11 7.05.11 7.3-.14s0-.69-.14-.84-1.28 0-6.36-.07-6.1-.74-6.36-.47a1 1 0 0 0 -.07 1c.14.23 1.16.41 5.63.52zm7.59-1.74a14.09 14.09 0 0 0 0-3c0-.29-.87 0-.87 0a18.39 18.39 0 0 0 0 2.84c.23.23.69.23.87.16zm1.93.76c.22 0 .14-4.25 0-4.43a1 1 0 0 0 -.94 0 31.48 31.48 0 0 0 0 3.64 1.44 1.44 0 0 0 .94.79zm5.59 4.65c.22 0 .29-.14.29-.43a16.52 16.52 0 0 0 -3.16-2.95c-.32-.07-.67.31-.62.4a22.53 22.53 0 0 0 3.49 2.98zm1.16-.76c.3.15.7-.18.77-.4a14 14 0 0 0 -2.51-2.65c-.33-.18-.78.31-.65.43s2.07 2.47 2.39 2.62zm-1.27 22.53c.11-.73 0-9.27-.07-11.19s-.54-2.55-1-2.62-3 .22-10.79.4c-2.22.05-4.14 0-5.79 0h.09c.14-.11 0-.48-.15-.62s-.25-1.09.69-.8.26 1.13.37 1.31.83.11.83.11a2 2 0 0 0 .51-1c0-.51-.14-.73-.87-1.09s-2.14-.55-2.62.58a1.49 1.49 0 0 0 .17 1.54c-2.94-.13-4.85-.35-5.84-.36a3.36 3.36 0 0 0 0-1.72 2.5 2.5 0 0 0 -3.63-.66 2.71 2.71 0 0 0 -.95 3.26c.22.4 1.24.11 1.27-.25s-.65-2.18.91-2.44 1 1.24 1.13 1.56c.06.15.31.22.57.25-.84.45-.61 2.31-.61 2.44s-.07 11.74 0 12.39a3 3 0 0 0 1.16 1.64c.62.58 1.49 1 3.52 1.27a50.22 50.22 0 0 0 9.45.36c2.44-.29 5.67-.11 8.5-1s3.04-2.64 3.15-3.36zm-1.3.4c-.22.69-.77 2.07-4.33 2.61a88.16 88.16 0 0 1 -14.6.07c-2.26-.25-4.25-1.52-4.47-2s-.22-11.34 0-12.35.07-1.35.33-1.49c.49-.28 4 .32 11.7.4s10.82-.5 11.18-.25a1.32 1.32 0 0 1 .51 1c.04.31-.07 11.32-.32 12.01zm-19.95-15.52c.11-.29-.47-1.2.4-1.74s1.23.8 1.42.83.5-.29.47-.87a1.63 1.63 0 0 0 -2.58-1.09 1.83 1.83 0 0 0 -.76 2.62c.25.29.94.51 1.05.25zm8.65.62c.14-.15-.11-.55.83-.76s.26 1 .62 1.23.76-.11.91-.62.25-2.1-1.82-2-1.62 1.73-1.52 1.93a.89.89 0 0 0 .98.22zm15.36.33c-.69-.37-1.88 0-2 .54s.26.62.51.58a1.37 1.37 0 0 1 1.05.18c.47.3.07.91.18 1.2s.48.22.73 0 .22-2.14-.47-2.5zm-31.71 6c.14-.18.22-.22.76.26s.29 1.3.36 1.7.58.11.58.11.51-.32.44-1.56a1.86 1.86 0 0 0 -2.07-1.89.94.94 0 0 0 -.94 1.16c0 .21.77.39.87.21zm1 5.92c0-.21-.29-.4-.29-.83s.69-.84 1.16-1.09.22-.47 0-.77-.81-.24-1.2-.14c-1.6.4-1.27 2.43-.87 2.83s1.21.21 1.25-.01zm1.27 3.71c.18-.4-.36-1-.72-1-1.57.11-1.86 2-1.49 2.87s1.09 1 1.27.77-.29-.44-.26-1.31 1.07-.94 1.25-1.34zm-.07 3.89c-.29.18 0 .8.33.87s.32 0 1.09 0 .54 1.16.65 1.42a.55.55 0 0 0 .69.21c.26-.07.8-1.27-.33-2.43a1.73 1.73 0 0 0 -2.38-.08zm-.55 3.23c-.36.11-.07.84.15 1s.91 0 1.2.14 0 1 .18 1.35.58.14 1-.18 0-1.86-.62-2.4-1.47-.04-1.86.08zm6.54 2.29c-.32-.51.69-.8 1-1s-.36-1.06-.65-1.06a1.93 1.93 0 0 0 -1.64 1.47 1.65 1.65 0 0 0 1.13 1.86 1.55 1.55 0 0 0 1.74-.21c.13-.31-1.2-.56-1.53-1.07zm2.33-5.09a1.42 1.42 0 0 0 -1 1.46c0 1 1.27 1.23 1.49 1.23s.29-.22.26-.58-.44-.11-.55-.44.62-.69.8-.8.07-.43-.14-.76-.42-.32-.81-.12zm4.21 3.24c.22-.48-.47-1.53-1.56-1.35a1.74 1.74 0 0 0 -1.38 1.6c.07.44.76.87.95.47s.1-.83.47-.83.54.51 1 .65.36-.08.57-.55zm.77 1.45a2.57 2.57 0 0 0 -2 .18.68.68 0 0 0 .25 1.16c.44.08.54-.4 1-.21s.11.61.26 1 .25.18.72 0 .65-1.74-.18-2.14zm2.79-4.18a3.4 3.4 0 0 0 -2.58.11c-.47.22 0 .8.3.87s.61-.29 1.38-.22.43 1.13.58 1.6.36.33.94.26.38-2.16-.57-2.63zm5 1.31a1.55 1.55 0 0 0 -.39-2.23 2.59 2.59 0 0 0 -2.4.44c-.36.33.29.58.62.65s.73-.25 1.2-.11.36.95.36 1.09.31.26.64.15zm-1.39 1.12c-1.71-.73-2.15.53-2.25.69-.33.47.4.65.69.65s.61-.62 1.16-.22 0 1 .14 1.31.26.25.66.33 1.28-2.04-.4-2.76zm2.11 2.9a2 2 0 0 0 -2 .37c-.43.43.26.9.47.94s.62-.33 1.13-.25.29.61.47.83.4.18.77 0 .32-1.37-.87-1.89zm2.51-3.48a.71.71 0 0 0 -.15.77c.11.14.26.11.59.32s-.11.91 0 1.2.58.15.9 0 .37-1.29.04-1.79a1.73 1.73 0 0 0 -1.38-.5zm1.67-4.1c-.65.14-1.26.35-1.38.73-.18.54.65.5.91.32s.51 0 .83 0a.82.82 0 0 0 .73-.54c.11-.3-.44-.67-1.09-.52zm2.22-11.66c-.33.11-.8.65-.66 1.05s.62.29.84.18.62 0 .94-.22.22-.76 0-1.16-.55-.09-1.12.14zm-22.57.36c0-1.09 1.78-1.64 1.93-2a1.19 1.19 0 0 0 -.15-.87c-.21-.15-1.45.36-2.39 1.63s-.44 2.15.14 3.06 1.53 1.33 1.53 2.28-1.27 1.92-1.6 2.07-.47.36-.43.54.29.62.54.65a3.13 3.13 0 0 0 2.4-2 2.82 2.82 0 0 0 -.36-3.16c-.73-.94-1.64-1.12-1.61-2.21zm3.6-1.53c0 .29-.07 8.43.07 8.61s.69.11.84-.18 0-4.61 0-4.61a3.2 3.2 0 0 0 1.55-.67c.51-.5 1.13-2.39.47-3.23s-2.94-.06-2.93.07zm1.78 2c-.18.11-.54.33-.62.11a10.16 10.16 0 0 1 0-1.42c.18 0 .8 0 .91.22a1.38 1.38 0 0 1 -.29 1.08zm2.18-.76c0 .18-.25 7.19-.07 7.41s.76.07.91 0 .11-7 .07-7.23-.91-.19-.91-.19zm4.87-.84c-.25-.07-1-.12-1.2.08-1.89 1.81-1.52 5.19-1.05 6.57a2.4 2.4 0 0 0 2.18 1.56c.22 0 .25-1 .22-1.19s-.51 0-1.31-.59-.8-1.81-.26-3.74 1.53-1.45 1.78-1.67-.11-.95-.36-1.03zm2.4 7.78a25.67 25.67 0 0 1 0-2.91c0-.18 1.52-.11 1.67-.18s.07-.54 0-.8-1.67-.11-1.67-.11 0-2.65 0-2.94 1.78-.26 2.11-.44.22-.69.11-1-2.6.11-2.8.25-.51.08-.54.58-.11 8.83.22 9a9.9 9.9 0 0 0 3.13-.44 1.39 1.39 0 0 0 .18-1c-.05-.2-2.34.09-2.41-.02z" fill="#1d1d1b"/></svg>