<svg height="64" viewBox="0 0 64 64" width="64" xmlns="http://www.w3.org/2000/svg"><path d="m42.77 31.1c.08-.31-9-.13-9.2 0s-.24 12.27.07 12.9 1 .4 3.86.4a27.5 27.5 0 0 0 6.06-.87s-.24-1.34-.79-3.7-.08-8.41 0-8.73zm-.77 11.54a53.32 53.32 0 0 1 -7.29.26c-.48-.16-.11-10.7 0-10.8a32.07 32.07 0 0 1 6.66 0c.1.21.1 5.4.1 6.61s.67 3.77.53 3.93zm-2.59-8.44c.27-.11.11-1 .11-1a17.64 17.64 0 0 0 -2.83-.11 2.45 2.45 0 0 0 0 1.11 9.89 9.89 0 0 0 2.72 0zm1 1.83s-4.3-.16-4.62-.1v.94s4.51.11 4.67 0-.05-.87-.05-.87zm-4.67 1.78a3.19 3.19 0 0 0 -.05.79c.05.21 2.62 0 2.83 0s.11-.47 0-.73-2.78-.06-2.78-.06zm3.73 3.19a1.08 1.08 0 0 0 0 .84c.21.31 1.46 0 1.67-.1s.06-.48 0-.69-1.31-.14-1.67-.05zm-17.47-27.63c.16-.21-.21-.68-.53-1s-.68.32-1.83.69a13.16 13.16 0 0 1 -2.2.31c-.27.16.15 1.15.15 1.15s1.21 0 2.05-.05a5.21 5.21 0 0 0 2.36-1.1zm-2.26 5.3c-.31.11-.15 1 0 1.31s1.58-.26 2.31-.21a5.32 5.32 0 0 0 2.36-1c.16-.16-.37-1.11-.58-1.16s-.63.42-2 .84a5.08 5.08 0 0 1 -2.14.22zm12.17 1.1c.47-.05 1-.84 1-1s-.58-.11-1.37-.11-2-.1-2.2-.1-.11.94.26 1.15a7.13 7.13 0 0 0 2.26.06zm.42 1.58s-.26.89 0 1.1a7.57 7.57 0 0 0 2.89-.16c.21-.16 0-.73-.16-.84a15.23 15.23 0 0 0 -2.78-.1zm19.3 24.93c-.16-1-2.91-3-3.3-3.38s2.59-3 2.75-3.46 1.18-15.26.71-15.42a3 3 0 0 0 -1.34.08 5.53 5.53 0 0 0 0-3.93 8.4 8.4 0 0 0 -3.22-2.84l1.33-5.58a4.75 4.75 0 0 0 1.81-.55 3.39 3.39 0 0 0 1-4.25c-.87-2.28-3.94-.39-3.94-.39s0-1.19-2-1.34a2.4 2.4 0 0 0 -2.84 2.67c0 1.58 2.6 3.23 2.6 3.23l-1.87 5.58-2.44.24a6.08 6.08 0 0 0 -.94-1.1 6.08 6.08 0 0 0 -1.73-.71s1.33-5.82.94-6.21a5.18 5.18 0 0 0 -2-.56s.35-4.36-.15-4.48a14.69 14.69 0 0 0 -4.8.39c-.79.4-.47 2.91-.47 2.91s-.24 0-1 .08a5 5 0 0 0 -2.75 1.5c-.39.63 1.42 6.61 1.42 6.61a3.66 3.66 0 0 0 -1.26.86 15.16 15.16 0 0 0 -1 1.42s-4.27-10.23-5.38-12.83-3.93-3.93-7.31-1.88-2.28 5.66-2 8.1 4.75 12.96 4.75 12.96-2.59-1.49-3.46-1.42-1.26.87-1.42 2 3.54 8.42 3.54 8.42-1.65 7.31-1.86 8.72 3.62 6.3 3.69 6.69a84.23 84.23 0 0 1 -2.93 9.59c-.55 1.1.87 2 1.58 2.36s4.24-.16 6.37-.08a28.6 28.6 0 0 1 5.27.55c.63.24 2.28.79 10.31 1.18s13.21-2.13 13.53-2.68-.08-12.02-.24-13.05zm-5.14-35.48c-.1-.36-2-1.57-2.25-2.25s-.21-1.79.73-2 1.26.2 1.42.68.52 1 .68 1 .47.16.68-.1.42-1.16 1.1-1.21 2.26.47 1.89 1.58a3 3 0 0 1 -2 1.83c-.52.11-1.1.21-1.21.47s-1.25 6.14-1.53 6.14a8.67 8.67 0 0 1 -1.36-.42 45.58 45.58 0 0 0 1.85-5.72zm.27 7.71c2.57.89 2.83 5 2.62 5s-1.68-1-3.1-.74-3.88 3-4.45 2.84-2.21-1.85-2.89-1.61a8.7 8.7 0 0 1 -1.57.52 4.71 4.71 0 0 1 1.63-4.52 7.33 7.33 0 0 1 7.76-1.49zm-13.9-13.27a8.91 8.91 0 0 1 3.2-.36c0 .21-.68 5.87-.53 5.92s.74.37.79.06a13.14 13.14 0 0 1 .68-1.58s1 .16 1.1.32-.73 5-1 5a22.46 22.46 0 0 1 -3.83-.16s-.73-8.99-.41-9.2zm-4 4.2a5.91 5.91 0 0 1 2.2-.94c.11.15.53 2.88.69 2.88s.42 0 .42.21a18.45 18.45 0 0 1 0 2.88c-.16.06-2.15.42-2.15.42s-1.41-5.19-1.15-5.45zm3.42 6.56c3.41-.32 5.77-.11 6.45.36a4 4 0 0 1 1.1 1.26s-.49.32-1.09.79c-1 0-3.14 0-3.42.1s0 .79 0 .95c0 0 1.29.15 2 .22a3.19 3.19 0 0 0 -.82 1.25 21 21 0 0 0 -.16 4.61s-.79.63-1.26.47-3-2.36-3.67-2.41a9.08 9.08 0 0 0 -1.94.26s-1.73-4.77-1.73-5 1.13-2.55 4.54-2.86zm-18.78-6.14c0-1.89-.68-4.83 2.36-6a3.92 3.92 0 0 1 5.35 2.2c.69 1.47 7.35 18.46 7.08 18.73a2.32 2.32 0 0 1 -1.41.42c-.16-.11-3-2.42-3.78-2.31a8.08 8.08 0 0 0 -2.46 1.36c-.63.42-1.73.79-2.05.58 0 .02-5.09-13.09-5.09-14.98zm36 48.3a1.93 1.93 0 0 1 -.49.26 24.08 24.08 0 0 0 -3.68-3.19c-.47-.16-.68.31-.63.63a31.13 31.13 0 0 0 2.92 3l-1 .27a27.9 27.9 0 0 0 -2.89-2.63c-.16 0-.68.31-.73.73s1.31 1.56 2.07 2.24a31 31 0 0 1 -8.68.38c-6.92-.7-10-2.12-13.85-2s-5.5.63-5.43.16 2.92-9.21 3.23-9.6 5.43-2.76 5.35-3-.47-.4-.94-.32-4.57 1.42-4.57 1.42a61 61 0 0 1 -4-4.72c.08-.24 1.81-9.05 2.44-8.89s4.72.71 4.72.71l.24-1s-5.2-1.18-5.43-1.41-3.07-6.06-3-6.14c.35-.35 3.38 2.36 4.09 2.2s2.83-2.12 3.54-2 3.78 2.67 4.8 2.36 2.28-2 3-1.81 3.38 2.75 4.4 2.67 3.46-2.36 4.17-2.28 2.68 2 3.39 1.65 4.24-3.3 4.87-3 1.73.79 1.81 1.18-.71 12.97-.71 12.97-2.91 3.3-2.75 4 3.07 4.56 3.23 4.88c.06.13.22 1.81.35 3.78a6.29 6.29 0 0 0 -2.06-1c-.42 0-.21.74-.1 1.16a9.1 9.1 0 0 0 2.28 1.68c0 .71.07 1.4.09 2a12.25 12.25 0 0 0 -3.11-2.35c-.52 0-.63.53-.52.89a32.76 32.76 0 0 0 3.65 3.07 2.73 2.73 0 0 1 -.11 1.05zm-8.93-34.93c.57.27 1.52-.15 1.31-.57a1.46 1.46 0 0 0 -1.68-.48c-.31.16-.2.82.37 1.05zm3.3-2.88c-.1-.58-.5-.9-1-.63a.75.75 0 0 0 -.15 1.21c.37.26 1.28 0 1.15-.58zm1.79 1.15c.52.32 1.31-.21 1.2-.57a.84.84 0 0 0 -.94-.63c-.37.05-.79.89-.26 1.2z" fill="#1d1d1b"/></svg>