<svg height="64" viewBox="0 0 64 64" width="64" xmlns="http://www.w3.org/2000/svg"><path d="m58.51 21.56a3.81 3.81 0 0 1 -2.27-1.69 23.36 23.36 0 0 1 -1.46-2.45s3-7.78 2.64-9.37-2-3.59-6.5-4.82-13.51-1.59-24-1-15.52 1.77-17.47 2.68-2.23 2.87-1.91 4.87 2.54 6.59 2.54 6.59-3.08 2.18-4.22 3.23-2.19 1.77-2.32 4.27 1.36 2.73 1.82 2.73a4.9 4.9 0 0 0 2.54-.77c1.32-.73 2.37-1.41 2.37-1.41s.09 13.82.22 20.28.14 9.18 1 11.68 2.77 4 6 4.73 9.05.73 14.87.91 13-.32 15.14-1a7.67 7.67 0 0 0 4.78-5.36c.86-2.78.68-5.19 1-14s.36-16.59.36-16.59.5.31.87.59a3.28 3.28 0 0 0 2.91.45 4.72 4.72 0 0 0 3-3.09c.14-.87-.96-1.02-1.91-1.46zm-48.79-13.56c.46-1.23 7.19-3 15.37-3.55s18.41-.35 23.46.65 7 2 6.91 3.91-2.18 7.09-2.54 7-2.73-1.31-4.87-1.45-4.59.14-7.18-.59a35.75 35.75 0 0 0 -9.6-1.14 72.61 72.61 0 0 0 -12 .86c-3.45.73-7.27 1.73-7.27 1.73s-2.73-6.19-2.28-7.42zm41.38 29a11.38 11.38 0 0 0 -2.1-1.12c-.36-.09-.41.36-.32.91s1.91 1.21 2.42 1.4l-.1 1.75a9.69 9.69 0 0 0 -2.22-1.38c-.36 0-.41.46-.32 1s1.69 1.42 2.48 1.91c0 .69 0 1.36-.08 2a16.13 16.13 0 0 0 -2.86-2.09c-.27 0-.41.5-.23.91a27.37 27.37 0 0 0 3.07 2.63c0 .71-.06 1.38-.09 2a13.7 13.7 0 0 0 -3.11-2.52c-.55-.09-.37.63-.23 1a30.49 30.49 0 0 0 3.28 2.77c-.07 1.18-.13 2.19-.2 3-1-1.14-3.15-3.57-3.54-3.57s-.63.59-.63 1 2.85 2.87 4 3.92v.22c-.13.58-.25 1.2-.42 1.81a31 31 0 0 0 -3.9-3.76 1.25 1.25 0 0 0 -.86.87c0 .3 3.19 3.1 4.33 4.07a6.29 6.29 0 0 1 -.79 1.34 24.52 24.52 0 0 0 -3.86-4c-.46-.1-1 .54-1 .77s3.06 3.12 4 4a5.91 5.91 0 0 1 -1 .6 47.25 47.25 0 0 0 -4-3.91c-.32-.19-.77.22-.86.59s2.47 2.82 3.45 3.77c-.25.06-.5.1-.77.14h-.47a22.46 22.46 0 0 0 -3.53-3.28c-.36-.09-.59.5-.64.77a18.77 18.77 0 0 0 2.46 2.66c-5.26.36-14.11.28-18.28.16-4.82-.14-7.37-.64-9.32-2.41s-2.23-3.23-2.14-8.32-.36-25.19-.36-25.19a5.68 5.68 0 0 1 3.64-.09c1.45.64 3.77 1.64 5.5 1s4.27-3.36 7.59-3.59 5.28 2.46 6.87 3 3.13-.23 4.41-.82 3-1.41 4-1.23 1.59 1.68 3.5 2.46a14.26 14.26 0 0 0 3.55.63c.02 0-.12 5.87-.32 12.22zm8-13.45c-.19.59-2.32 1.63-3 1.63s-2.59-2.09-3.59-2a10 10 0 0 1 -4 0c-1.23-.46-2.23-2.82-4.41-3s-5.51 2.82-7.32 2.5-3.64-3-6.92-3-8.86 3.6-9.73 3.6-2.63-2-6.13-1.28-7.14 3.55-8 3.55-2.19-.28-1.59-2.32 3.36-3.64 3.82-4a17.67 17.67 0 0 1 8.77-4.09c5-1 13.19-1.63 17.37-1.13s7.46 1.13 10.41 1.5 6.5.36 7.87 1.82 3 4.09 4.46 4.86 2.22.81 2.04 1.37zm-44.6-10.27c.22-.27-.91-3.77-1.19-4.09s-.54 0-.77.36 1.27 3.91 1.27 3.91a.8.8 0 0 0 .69-.18zm2.91-.68c.22-.27-.91-3.46-1.37-3.91s-1 0-1.23.36 1.82 3.68 1.82 3.68.55.14.78-.13zm2.68-.77a28.34 28.34 0 0 0 -.87-3.83.89.89 0 0 0 -1.13.41c-.18.45 1.45 3.55 1.45 3.55zm25.37.68c.32-.14.23-4.28.14-4.64s-.55-.32-.87 0 0 4.51 0 4.51.41.26.73.13zm2.5.13c.27-.09.32-4.18.23-4.5s-1-.41-1.09-.23-.05 4.55-.05 4.55a2 2 0 0 0 .95.18zm3.5-4c-.09-.37-.68-.23-1-.14s-.41 4.46-.41 4.46a1.9 1.9 0 0 0 .68.18 21.27 21.27 0 0 0 .73-4.54zm-35.69 18.51s-.37 16.59 0 17.05.91.18 1.19-.05.18-16.46.13-16.87-1.09-.28-1.32-.13zm22.23 1.68c-3.23-.83-11.64-.83-14.41-.55s-3 3-3 3.73-.31 9.1-.22 11.1 0 3.36.86 4.86 2 1.78 4.59 1.82 10.19 0 12.69-.18 3.23-1.36 4-3 .73-7.95.41-12.36-1.69-4.6-4.92-5.42zm3.41 17.28a3.64 3.64 0 0 1 -2.68 2.27c-1.18.23-12.28.23-13.69.18a3.48 3.48 0 0 1 -3.41-3.18c-.41-2.32-.13-12 0-12.91a5.62 5.62 0 0 1 .73-2.09c.41-.61 1.23-1.09 3.37-1.09s10.09.22 12.32.77 3.45 1.23 3.64 3.41-.14 11.73-.28 12.64z" fill="#1d1d1b"/></svg>