<svg height="64" viewBox="0 0 64 64" width="64" xmlns="http://www.w3.org/2000/svg"><path d="m52 44.18a26.53 26.53 0 0 0 1.34-10.28c-.26-6.4-1.91-9.57-2.11-9.77a2.11 2.11 0 0 0 -1.32-.19c-.39.06-.53 1.38-.72 2.24s-.93 2.82-.93 2.82 0-.33-.19-4.82a14.08 14.08 0 0 0 -3.43-9c-1.65-2-2.91-1.19-3.17-.86s.33 1.58.2 4.49-1.39 3.95-2.9 2-1.39-6.86-1.06-9.17 1.12-8.64.79-9.27-1.45-.53-2.11-.07-2.24 3.43-5.14 7.59-2.25 8-2.51 8.18-.59-.4-1.12-1.65a14.41 14.41 0 0 1 -.6-4.55.87.87 0 0 0 -1.18-.87c-.79.2-3.23 3.1-4.62 8.44a23.13 23.13 0 0 0 -.13 10.29s-.86 0-1.45-1.65a12.87 12.87 0 0 1 -.46-4.68 1.09 1.09 0 0 0 -1.18-1.05c-.73 0-2.64 2.25-4.09 7.19a14.1 14.1 0 0 0 1 9.57 1.27 1.27 0 0 1 -.73-.33c-.39-.33-1.65-2.31-1.91-2.51s-.53-.33-1.12 0-1.27 5.94 2.16 12.53 7.69 7.12 7.69 7.12c-.27.6.19 1.92 1.32 2.84a17.26 17.26 0 0 0 9.68 3.3c4.48-.07 5.8-1 5.8-1s1.91.07 7.32-2.18 7.59-7.85 8-11.08-1.12-3.62-1.12-3.62zm-1-4.59c-.09.54-.19 1-.29 1.53a12.31 12.31 0 0 0 -1.87-1.95c-.3-.11-.68.43-.78.77a13 13 0 0 0 2.28 2.63c-.14.49-.29.94-.44 1.34a17.65 17.65 0 0 0 -1.85-2.18c-.22-.09-.52.2-.55.53a19 19 0 0 0 1.92 2.81c-.14.3-.28.57-.41.81a22.5 22.5 0 0 0 -2.24-2.88c-.22-.12-.74.57-.82.78a26.29 26.29 0 0 0 2.49 3.09c-.23.34-.4.54-.44.63a2.54 2.54 0 0 0 -.13 1.71c.23.3.49.56.85.5s2-2 2.28-2.12.36 0 .46.2a10.49 10.49 0 0 1 -2.18 4.55c0-.13 0-.25 0-.36-.1-.62-1.5-1.37-1.77-1.28a.86.86 0 0 0 -.46.79 9 9 0 0 0 1.57 1.69l-.77.85a13 13 0 0 0 -2.37-2.66c-.29-.11-.68.43-.78.76s1.4 1.8 2.3 2.74c-.21.22-.44.43-.67.63a19.57 19.57 0 0 0 -2.27-2.78c-.21-.08-.52.21-.54.53a20.21 20.21 0 0 0 2 2.92l-.64.46a23.24 23.24 0 0 0 -2.11-2.63c-.22-.12-.74.56-.82.78a15.32 15.32 0 0 0 1.92 2.43 11.52 11.52 0 0 1 -2.6 1 41.3 41.3 0 0 1 -7.35.83c-.27.13-.43.65-.43.65a21.28 21.28 0 0 1 -6.07-.69c-2.7-.82-3.17-1.09-3.2-1.55s0-.62.17-.56 3.1.46 3.85.1a1.89 1.89 0 0 0 .9-1.85c-.17-.26-2 .23-5.87-.85s-5.91-3-8-6.76-2.8-7-2.57-7.16.66 1.94 3.6 2.7 3.69.3 3.59-.72-2-.6-3.3-3.6a15.49 15.49 0 0 1 -.29-9.43c.72-2.11 1.38-2.9 1.48-2.64s-.1 2.54 1.19 4.26 2.77 1.91 3.43 1.75 1.09-1.49 1.09-1.49a26.61 26.61 0 0 1 -.5-8.38 26 26 0 0 1 1.68-6.66c.17-.49.76-1.42.89-1.22s.76 3.33 1.85 4.78 3.17 1.75 3.5 1a2 2 0 0 0 .23-1.16 13.57 13.57 0 0 1 1.12-7.19c1.68-3.26 3.63-6.23 4-6.1a.38.38 0 0 1 .23.53s-1.94 6.73-1.12 10.62 2.67 5.94 3.53 6.59 2.87.5 3.86-1.78.46-4.61.72-4.65 1.85 2.11 2.35 5.35.33 6.79-.33 8.08-.66 1.88-.37 2.27 1.19 1.49 1.85 1.06 1-.5 2.24-3.07 1.16-3.17 1.45-3.13.43.13.5.46a36.37 36.37 0 0 1 .09 9.17 2.79 2.79 0 0 0 -1.48-.77.84.84 0 0 0 -.46.8 10.79 10.79 0 0 0 1.73 1.79zm-24.11-4.11a4.44 4.44 0 0 0 -.56 2.8c.13.4.69.27 1.06 0s0-.43.13-1.35a3.17 3.17 0 0 1 .86-1.78c.29-.33.19-.53-.07-.79s-.69.1-1.42 1.12zm-.79 13.59c-.16-.24-.55.07-.53.26a6.07 6.07 0 0 0 2.35 3.82c.32 0 .59-.52.59-.75s-.43-.43-1.09-1.32-1.15-1.78-1.32-2.01zm5.64-16.86a11.52 11.52 0 0 0 1.39-2.63.45.45 0 0 0 -.37-.43c-.26-.07-.16.43-.82 1.18a16.78 16.78 0 0 0 -1.88 2.25c0 .33.53.82.79.72s.26-.16.89-1.09zm-6.07 8.68c-.16-.43-.67.15-.76.39a33.34 33.34 0 0 0 -.06 4.42c.13.56.86.13 1.09 0a19.89 19.89 0 0 0 -.27-4.81zm9.17-14.22a1.62 1.62 0 0 0 -.43 1.33c.07.43.69.46.83.39s.13-.06.1-.59a2.8 2.8 0 0 1 .36-1.32c.13-.33-.5-.1-.86.19zm4.95 21.24c-.3 0-.23.46-.63 1.91s-1.93 2.33-1.91 2.44a.75.75 0 0 0 .82.53c.4-.1.93-.33 1.52-1.48a8.09 8.09 0 0 0 .92-3c-.03-.5-.43-.43-.72-.4zm-7.55 9.17c-.7-.26-1-.92-1.29-1.06s-.6.37-.43.7a3.2 3.2 0 0 0 1.95 1.41 1.23 1.23 0 0 0 .69-.65c.03-.17-.23-.14-.92-.4zm6.53-21.37a3.18 3.18 0 0 0 -.77-1.78 7.27 7.27 0 0 1 -.86-2.9c0-.3-.69-.14-.89.13a6.36 6.36 0 0 0 .07 1.45 1.69 1.69 0 0 0 .49 1.09c.4.56 1.16 2.34 1.29 2.4s.6-.23.67-.39zm1.38 2.6c-.23-.13-.73 0-.66.27s.33 1.42.69 2.8a12.23 12.23 0 0 1 .07 3.3c.07.1.3 0 .63 0s.52-1 .39-3.07-.89-3.16-1.12-3.3z" fill="#1d1d1b"/></svg>