<svg height="64" viewBox="0 0 64 64" width="64" xmlns="http://www.w3.org/2000/svg"><path d="m18.07 37.54c-.59.27-1.92 2-.46 3s2.74.37 3.2-1.19-1.59-2.35-2.74-1.81zm1.62 1.74a.78.78 0 0 1 -1.31.48c-.59-.43-.05-1.12.19-1.23.43-.22 1.31.11 1.12.75zm2.45 2.09a1.84 1.84 0 0 0 1.18 3.29 2 2 0 0 0 2.33-2.56c-.41-1.32-2.84-1.23-3.51-.73zm1.14 2.29a.81.81 0 0 1 -.28-1.51 1.06 1.06 0 0 1 1.56.73c.09.55-.51.96-1.28.78zm7.39-5.35c-2.28 1.24-.86 4 1 4s3.29-1.24 2.88-2.93-2.98-1.55-3.88-1.07zm.92 2.7c-1.46-.37-1.1-1.6-.05-2a1.41 1.41 0 0 1 1.87.87c.09.58-.36 1.49-1.82 1.12zm-3.66 3.06c-1.05.68-.77 2.23.78 3.06s4.38-.05 3.52-2-3.68-1.47-4.3-1.06zm1 2.33c-1.05-.6-1.1-1.56.14-1.74.77-.12 2 .09 2.1 1.05s-1.17 1.29-2.23.69zm9.59-8.95c-1.65.54-2.29 2.51 0 3.42a2.2 2.2 0 0 0 3.06-2.42c-.18-1-2.16-1.3-3.05-1zm.48 2.55c-1.05-.46-.73-1.33.18-1.6.66-.2 1.51.09 1.6.68s-.7 1.33-1.78.92zm-7.46-14.88c-.46-.23-.46-.18-.64.27s1.65 2.06 2 2.19c0 0 .51-.32.51-.68s-1.41-1.55-1.87-1.78zm.14-2.38c-.18 0-.5.28-.41.64s1.78 1.74 1.78 1.74a1.39 1.39 0 0 0 .32-.78c.04-.5-1.51-1.55-1.69-1.6zm1-2.14a.51.51 0 0 0 -.6.73c.28.59 1.19 1 1.37 1.14 0 0 .64-.23.6-.64s-1.19-1.14-1.41-1.23zm-6.17-1.92a.87.87 0 0 0 .73-.36c.14-.23-1.41-1.88-1.73-2s-.88.16-.69.55a11.14 11.14 0 0 0 1.65 1.81zm2.1-1.55c.14 0 .37 0 .64-.28s-1.25-1.85-1.5-1.91-1 .48-.91.64a11.75 11.75 0 0 0 1.73 1.55zm2.39-1.55c.27-.23-.5-1.24-.78-1.33s-.79.08-.73.23c.14.32.32 1.19.69 1.51s.58-.19.82-.41zm-16 10.95a.82.82 0 0 0 .32 1.56c1 .09 1.46-.73 1.14-1.19a1.17 1.17 0 0 0 -1.46-.37zm5-2.87c-.27-.5-1.59-.35-2.05-.05-.78.5.09 1.55 1.05 1.42s1.22-.87.94-1.37zm3.34 2.1c-.46.27-.14 1 .54 1.09s1.19-.64.78-1a1.61 1.61 0 0 0 -1.38-.09zm-4.11 3.7a.85.85 0 0 0 -.23 1.32 1.35 1.35 0 0 0 1.37.23c.46-.23.73-1.19.32-1.46a1.38 1.38 0 0 0 -1.52-.09zm32.9-24.46c-1.64-1-3.83-.41-4.2.68s-5.71 16.52-5.71 16.52a3.65 3.65 0 0 0 -.54-1 11.06 11.06 0 0 0 -1.33-1.33s3.7-12.78 4-14.42.22-3.11-2-3.47-3.19.68-3.56 1.32-.14 1.32-.68 4.06-2 9.45-2 9.45 0-.18-.41-.59-.55-.36-.55-.36a3.38 3.38 0 0 0 0-1.15 2 2 0 0 0 -1.05-1.55c-.87-.41-2.14-1.64-3-1.73s-1.33-.28-2.15-.41a7.4 7.4 0 0 0 -2.69.63 17.26 17.26 0 0 0 -1.69.64 10.4 10.4 0 0 0 -3.7 2.88c-.59.78-.36 3.24-.36 3.24a9.74 9.74 0 0 0 -3 .23c-.92.37-.87.78-1.28 1.19s-1.51.36-3 1.6-1.23 3.78-1.23 3.78-.78.23-1.19 1.83 1.19 3.69 1.19 3.69a2.14 2.14 0 0 0 -1.37 1.05c-.18.23-.91 1-.36 4.66s2.14 6.85 6.34 10.5 10.78 4.06 10.78 4.06v2h-1.19c-1.19 0-9 .91-9 4.33s7.17 4.8 13.43 4.71 11.55-1.19 12.55-3.29.19-3.86-2.18-4.75-7.49-1.19-7.67-1.23a8.5 8.5 0 0 1 -.05-2.19s2.24-.1 9.09-3.29 9.08-12.4 9.12-14.29-1-2.28-1-2.28a3.85 3.85 0 0 0 -1.28-2.92 11.5 11.5 0 0 0 -4.29-1.65s8.17-15.43 8.81-16.48.05-3.67-1.6-4.67zm-10.64 18.57c0 .13-1.69 3.37-1.87 4.15s-.18 1.28-.36 1.46a2.49 2.49 0 0 1 -1.92.14s1.28-3.29 1.83-5.48.77-2.37.91-2.33a10 10 0 0 1 1.41 2.06zm-.49 4.06c.32 0 1.92-.05 1.92.14a2.79 2.79 0 0 1 -.92 1.32 1.78 1.78 0 0 1 -1.65-.41s.32-1.05.65-1.05zm-1.15-24.34c.43-.29 2.28-.82 3.24.14s-.36 1.92-1.92 1.64-2.05-1.27-1.32-1.78zm-.14 2.2a9.12 9.12 0 0 0 1.74.68c.77.14 1.55-.18 1.41.18a22.47 22.47 0 0 1 -2.46 2.88 2 2 0 0 1 -1.65.41s.55-4.29.96-4.15zm-1.27 6c.18-.28 3.88-2.88 3.92-2.56a24.13 24.13 0 0 1 -1.55 5c-.37.36-3 2-3.33 1.73 0-.04.77-3.92.96-4.19zm-1 5.66c.22-.09 3-2.06 3-1.74a41 41 0 0 1 -1.37 4.59c-.13.14-2.32 1.92-2.74 1.88a22.88 22.88 0 0 1 1.06-4.75zm1.23 4.47-.92 3.47s0 .23-.63.73a5.55 5.55 0 0 1 -2 .78s.23-2.1.28-2.24.09-.18.68-.55a33.63 33.63 0 0 0 2.54-2.21zm-2.51 7.86a5.92 5.92 0 0 1 -1.28 0c-.23-.05 0-1.33.18-1.69s1.78-1 2.06-1.14-.74 2.71-1.01 2.81zm-1.51-12.67a1.59 1.59 0 0 1 .86.64s.37.45.37.59-2.33 10.78-2.47 11-1.09-.28-1.82 0-1.05.18-1.05.18c-.41-.13-.83-1.41-.92-2.69a4.45 4.45 0 0 0 -.62-2.53c-.55-.87-1.37-2.1-1.1-3.29s0-.78 1.05-.82 1.69-.14 1.78-.55a2.26 2.26 0 0 1 1.27-1.57c.73-.28 1-.14 1.42-.41s.58-.83 1.23-.55zm-12.56-1.23a9.3 9.3 0 0 1 5.75-3.15 7.14 7.14 0 0 1 5.53 1.68c.86 1 1.14 1.28.73 1.79s-.64.45-1.19.68-.64-.18-1.73.27-1 1.88-1.6 2.06-1-.28-1.87.27-.55 1.74-1.15 1.74a3 3 0 0 1 -.95-.5c-.46-.37-1-1.19-1.51-1.42a7.14 7.14 0 0 1 -1.78-.73 5.76 5.76 0 0 1 -.73-.69c-.19-.22-.32-.82.5-2zm11.37 40.68a2.8 2.8 0 0 0 .18-1 14 14 0 0 1 5.48.82c2.28 1 1.92 1.55 1.55 1.83s-4 2-9.86 2a30.66 30.66 0 0 1 -10.81-1.91c-.69-.27-1-.73.55-1.5s3.74-1.24 7.17-1.37c.2 0 .32 1.05.95 1.27s.87-.13.87-.27-.32-5 0-5 1.51-.18 1.6.09.09 5 .23 5.3.64.41 1 .45.91-.44 1.09-.71zm15.8-23.79a21.22 21.22 0 0 1 -2.46 7.53 11.58 11.58 0 0 0 -1.56-2.91 1 1 0 0 0 -.73.73 17.76 17.76 0 0 0 1.66 3.18 16 16 0 0 1 -1.06 1.47 11.75 11.75 0 0 0 -1.65-3c-.37-.14-.78.27-.78.64a22.32 22.32 0 0 0 1.74 3.15 13.52 13.52 0 0 1 -1 1 12 12 0 0 0 -1.81-2.9c-.42-.27-.64.23-.69.6a17 17 0 0 0 1.67 2.93 12.27 12.27 0 0 1 -1.2.77 11.6 11.6 0 0 0 -1.52-3.06c-.41-.37-.73 0-.91.32s1 2.43 1.46 3.24c-.4.2-.81.38-1.22.55a7.46 7.46 0 0 0 -1.54-2.71c-.37-.09-.64-.09-.78.32a10.17 10.17 0 0 0 1.31 2.78c-.48.17-1 .33-1.46.48a7.36 7.36 0 0 0 -1.13-2.12c-.27-.18-.36 0-.63.32s.46 1.43.84 2.06c-5.62 1.45-11.36.88-15.5-1.56-5.43-3.19-8.4-8.9-7.85-12.1 0-.27 7.07 2.47 17.8 2s15.94-2.42 17.17-3.06 1.78-1.02 1.83-.65zm-1.26-3.2c.83.64.78 1.33.46 1.6s-4.46 2.83-11.71 3.33a113.52 113.52 0 0 1 -19-.36c-3.56-.46-4.29-1.05-4.29-1.37 0 0 .32-.46.46-.41s1.32.77 1.64.55.18-1.33-1.19-2a4.63 4.63 0 0 1 -2.55-2.83c-.14-.87 1.18-1.92 1.27-2.46s-.59-1.65.74-2.88 1.09-.44 2.42-1.44 2-1.6 3.65-1.69a5.34 5.34 0 0 1 3.74.87c1.19.77 1.69 1.37 2.65 1.87s.82.32 1.05 1a4.7 4.7 0 0 0 .78 1.92c.5.5.54.45.68 1.69s.37 1.09.46 2.05a6.08 6.08 0 0 1 -.09 1.92c-.09.55-1.19 1.37-1.78 1.6s-1.51.09-1.56.41-.5.36.41.5a5.83 5.83 0 0 0 1.83-.14c.69-.05 1.46-1.19 1.78-1.65s.09-.86.46-1 1 .05 2.05 0 1.14-.18 1.33-.27.32-.23.45-.14-.09.32.69.59a2.94 2.94 0 0 0 1.82-.09c.14-.05.78.32 1.42.27a2.74 2.74 0 0 0 1.37-.54c.36-.23.23-.46.5-.51s.87.6 1.28.46 1.37-.23 1.78-.41.46-.55.78-.32.45.18.45.69-.09 1.41.1 1.55.82 0 1.05-.64a1.65 1.65 0 0 0 -.19-1.74 2.48 2.48 0 0 0 -1-1c-.18-.09-.41-.18-.41-.18s.37-.77.55-.77a20.46 20.46 0 0 1 3.67 1.97zm-4.93-2.64a2.84 2.84 0 0 1 -1.82-.19 10.58 10.58 0 0 1 1.14-2.1 9.49 9.49 0 0 1 2.65-.64 11.69 11.69 0 0 1 -1.95 2.93zm2.51-4.25c-.32.23-2.05.73-2.64.18-.27-.25 1-2.69 1.27-2.92s1.05-.23 2-.69 1.69-.5 1.65-.32a30.72 30.72 0 0 1 -2.26 3.75zm2.47-5.11c-.59.41-2.38 1.23-3.06 1.05-.27-.08 1.46-4 1.69-4.07a11.86 11.86 0 0 0 2.78-1.09c1.1-.69 1.6-1.05 1.65-.83a25.82 25.82 0 0 1 -3.04 4.94zm2.83-5.94c-.37.23-3 2-4 1.41 0 0 1.65-4.33 1.87-4.29a13.71 13.71 0 0 0 1.88 1.19c.86.32 1.82.18 1.73.5s-1.09.96-1.46 1.19zm2-2.92a2.77 2.77 0 0 1 -2.88-.32c-1.06-.78-1.2-1.37-1.11-2.09 0-.37 1.33-.59 2.69 0s1.79 2.09 1.28 2.41z" fill="#1d1d1b"/></svg>