<svg height="64" viewBox="0 0 64 64" width="64" xmlns="http://www.w3.org/2000/svg"><path d="m50.66 23c-.49-1.7-2.74-2-2.74-2a29.75 29.75 0 0 0 .5-3.55 4.25 4.25 0 0 0 -1.17-3.19c-1-1.07-.18-.67-.67-3.54a12.09 12.09 0 0 0 -4.58-7c-2.07-1.66-2.74-.45-4.76-.5s-2.34-1-4-1.25a8.05 8.05 0 0 0 -3.72.58c-.59.18-1 0-4.36.45s-4.94 4.49-4.94 4.49a8.6 8.6 0 0 0 -2.92 2.51c-1.34 1.8-.89 5.53-.89 5.53s-.23 0-.63 1.07.9 3.95.9 3.95a5.32 5.32 0 0 0 -3.37 2.79c-.09.58 2 10.64 2.29 11.49s3.1 2.16 3.32 2.38 4 21.06 4.58 21.86 2.6 3.06 7.32 3 7.5-2.11 7.81-3.19 5.07-21.07 5.07-21.07.36-.18 1.13-.49a4.6 4.6 0 0 0 2.29-1.75c.44-.85 4.04-10.91 3.54-12.57zm-33.13-.22c.94.31 1.48.72 1.79.58s.32-.72.32-.72a6 6 0 0 1 -2.47-3.23c-.54-2.06-.45-2.6-.09-2.92s.31-.09.45-.54-.63-3.63.72-5.16a14.57 14.57 0 0 1 2.65-2.2c.27-.31 1.75-4 4.17-4.35s2.87.09 3.82-.23 2.11-1.35 3.86-1.01 2 1.35 3.72 1.4 3.24-1.08 5.3.85 3.5 3.64 4 6.06-.27 2.2.58 3.64 1.44 1.48 1.17 3.36-.81 4.27-1.3 4.72-.14.76-1.13 1.3-8 .94-15.84.85-10.87-.8-11.86-1.07a2.86 2.86 0 0 1 -1.34-.68 1.31 1.31 0 0 1 1.48-.7zm20.96 28.22a4.81 4.81 0 0 0 -1.34-.7c-.36 0-.45.4-.45.67s1 .85 1.53 1.22a1.74 1.74 0 0 0 0 .22c-.15.77-.29 1.43-.43 2a9.48 9.48 0 0 0 -1.9-1.72.75.75 0 0 0 -.68.72 13.92 13.92 0 0 0 2.33 2 12.35 12.35 0 0 1 -.43 1.39 14.57 14.57 0 0 0 -2.48-2.26.89.89 0 0 0 -.76.67c-.08.34 2 2.11 2.73 2.69a2.87 2.87 0 0 1 -.74.83 12.37 12.37 0 0 0 -2.58-1.81.68.68 0 0 0 -.81.63 10.18 10.18 0 0 0 2.09 1.79 10.89 10.89 0 0 1 -5.54.23c-2.52-.54-3.46-1.39-3.68-1.93s-3.37-15-3.69-16.52-.53-3.24-.22-3.19a62.21 62.21 0 0 0 10.1 1.21c4.49.05 10.06-.72 10.28-.49s-2.17 7.25-3.33 12.35zm8.51-20.25a7.78 7.78 0 0 0 -2.07-1.56c-.41 0-.68.32-.63.77s1.44 1.45 2.26 2.08c-.18.5-.35 1-.51 1.39a11.49 11.49 0 0 0 -2.38-1.9.69.69 0 0 0 -.63.72c0 .31 1.73 1.84 2.48 2.48a1.56 1.56 0 0 1 -.19.35 3.81 3.81 0 0 1 -.87.51 7.44 7.44 0 0 0 -2.68-2.09c-.49 0-.4.23-.31.63a9.38 9.38 0 0 0 1.6 1.93 28.31 28.31 0 0 1 -5 .81c-5.12.45-10.6-.22-15.4-.76s-5-2.11-5.75-4-1.8-6.42-1.62-6.56c.52-.38 4.63 1.26 13.2 1.44s13.88-.23 16.53-.76 3.27-1.31 3.5-.86a30.16 30.16 0 0 1 -1.53 5.38zm-28.7-2.9a28.51 28.51 0 0 0 1.62 5.07c.18 0 .36 0 .4-.4a21.7 21.7 0 0 0 -.85-4.67c-.28-.18-1.15-.26-1.18 0zm2.47.67s.5 3.86.63 4.18.4.13.76 0 0-3.73-.27-4.13-.81-.09-1.13-.05zm4.4-10.6c-.94.32-.72 1.49.63 1.67s1.66-.45 1.57-.95-1.51-.95-2.21-.72zm-2.07-4.22c.76.63 3.18.27 2.91-1.12s-2.2-1.47-2.82-1.3c-1.35.36-.86 1.8-.09 2.42zm7.18-4.44c1.08.36 2.2-.81 1.93-1.53s-1.79-1.73-2.56-1.07a1.49 1.49 0 0 0 .63 2.6zm1.72 5.12a.79.79 0 0 0 1.3-.72c0-.76-.15-1.15-.81-1a1 1 0 0 0 -.49 1.72zm9.83-2.79a1.05 1.05 0 0 0 -1.3-1c-.72.23-.81 1-.18 1.62a.84.84 0 0 0 1.51-.62zm-8.23 7.91c1 .49 1.3-.63 1.17-1s-.71-.92-1.26-.62a.87.87 0 0 0 .09 1.62zm6.47 1.61c.85.14 1.25-.45 1.07-1.12a.94.94 0 0 0 -1.3-.72c-1.08.27-.63 1.73.23 1.84zm-16.35 19.13c-.22.49 1.49 9 1.89 9.2s.76.18.81-.4a70.62 70.62 0 0 0 -1.75-8.8c-.32-.41-.79-.34-.95 0zm3.15 3.68c-.23.36 1 8.08 1.34 8.31a.62.62 0 0 0 .81 0c.32-.18-.85-8-1-8.36s-.96-.26-1.15.05zm11.13-.09a5.82 5.82 0 0 0 -1.12.76c-.28-.69-.59-1.44-.88-2.12a8.21 8.21 0 0 0 1.64-1.6c.23-.68-.18-.27-.4-.41a8.67 8.67 0 0 0 -1.67 1 7.67 7.67 0 0 0 -.67-1.35c-.18 0-.86.15-.8.49a10.3 10.3 0 0 0 .58 1.49l-2 1.45a14.66 14.66 0 0 0 -1.25-2.31c-.32-.09-.65.39-.68.58a19.82 19.82 0 0 0 1.05 2.4 10.59 10.59 0 0 0 -1.09.88s-.05.72.36.85a3.53 3.53 0 0 0 1.22-.69c.33.7.68 1.42 1 2.09l-1.78 1.43s.18.77.45.72a17.34 17.34 0 0 0 1.74-1.31l1 2s.72 0 .77-.36a19.28 19.28 0 0 0 -1-2.33l1.98-1.49a8.69 8.69 0 0 0 .7 1.3c.22.13.4 0 .54-.32a6.78 6.78 0 0 0 -.5-1.6c.63-.54 1.08-.93 1.13-1 .18-.28-.05-.51-.32-.55zm-3.84 2.88c-.31-.67-.63-1.38-.95-2.06.61-.45 1.29-1 1.93-1.48.3.68.63 1.39.93 2-.6.5-1.27 1.03-1.91 1.54z" fill="#1d1d1b"/></svg>