<svg height="64" viewBox="0 0 64 64" width="64" xmlns="http://www.w3.org/2000/svg"><path d="m57.28 40.94c-.75-2.51-9.91-18.31-14.35-25.94s-7.23-12-10.44-12.77-9.69.22-16 3.54-8.95 6.69-10.13 11.23 1 9 3.48 13.55 14.42 24.45 16.06 26.94c2 3 4.18 3.1 5.84 2.57s8.26-4.77 8.26-4.77a28.43 28.43 0 0 0 4 5.46c1.87 1.72 3.58 1.5 5.46.54s1.93-2.52 1.87-4.23-3.69-6.53-3.69-6.53 9.15-5.52 9.9-6.11.46-.96-.26-3.48zm-7.07 17.4c-.32 1.45-2.79 3.43-4.5 2.2s-4.5-6-4.5-6l5.41-3.16s3.91 5.52 3.59 6.96zm3.53-15a76.92 76.92 0 0 0 -7.55-2.44c-.32 0-.37.86-.21 1.18a51.66 51.66 0 0 0 6.15 2.51l-1.55 1a30.85 30.85 0 0 0 -5.67-1.4c-.86-.05-.38.59-.32 1.12s2.66 1.08 4.17 1.44c-2.8 1.78-6.22 3.86-8.67 5.31-4.71 2.78-9.16 5.35-9.75 5.41s-2.24-2.31-3.15-4c-1.27-2.39-14.46-23.82-16.44-27.63s-2.84-7.17-.48-11.19 6.53-6.05 10.12-7.87 8.61-3.37 12.2-1.66c.71.34 1.9 1.78 3.41 3.88a13.21 13.21 0 0 0 -3.25-.55c-.27.16.16 1 .43 1.29a25.29 25.29 0 0 0 4 1c.54.82 1.1 1.71 1.68 2.64a20.93 20.93 0 0 0 -3.86-.6c-.16.11 0 .8.48 1.13a37 37 0 0 0 4.4 1.19c.48.79 1 1.6 1.46 2.43-1.34-.54-3.82-1.24-4.14-1s-.06.8.37 1 3.66 1.17 4.64 1.46c.5.84 1 1.7 1.48 2.55-1.46-.52-4.23-1.34-4.51-1.18s.11.7.48 1a49.14 49.14 0 0 0 5 1.84l1.17 2.07a23.05 23.05 0 0 0 -4.66-.8c-.32.16 0 .69.27 1.07s4 1.2 5.39 1.53l1.17 2.24a37.64 37.64 0 0 0 -5.65-1.43c-.64.05.06.91.16 1.23s4.85 1.68 6.57 2.18l1.66 3.09a44.25 44.25 0 0 0 -5.55-1.52c-.43 0 0 .69.27 1s4.94 2 6.34 2.58c.77 1.47 1.29 2.52 1.47 2.94a61.78 61.78 0 0 0 -6.83-2.3c-.53 0-.21.64 0 1s5.47 2.25 7.52 3a2.12 2.12 0 0 1 -.22 2.25zm-39.83-26.65c.21-1.55 2-2.09 2.25-2.36s-.11-.85-.43-1.23-.59-.32-1.66.43a4.79 4.79 0 0 0 -1.77 4c.22 1.29 2.83 6.81 3.21 6.86s1.4-.22 1.4-.59-3.22-5.56-3-7.11z" fill="#1d1d1b"/></svg>