<svg height="64" viewBox="0 0 64 64" width="64" xmlns="http://www.w3.org/2000/svg"><path d="m14.25 11.25c-1.34-.93-2-3.15-2.06-3.4s-1.13-.16-1.09.25a6.69 6.69 0 0 0 1.24 3.36 5.26 5.26 0 0 0 2.89 1.75 1 1 0 0 0 .93-.88c.05-.33-.57-.15-1.91-1.08zm46.49-5.25c.46-2.07-1.7-3.41-3.25-3.77s-5.73-.31-16.2-.2-29.83.56-33.64.87-5.06 2.1-4.18 5.46 3.3 7 9.08 10.63 16.56 3.61 16.56 3.61l.1 4.7s-6.5.77-9.65 1.34-8.2 3.92-9.9 7.89-2 18.17-2 19.71a5.37 5.37 0 0 0 1.75 4.13c1.19 1 2.58 1.55 11.25 1.65s25.59 0 30.49-.31 6.6-2.11 6.85-3.82.16-6.65-.93-16-4.07-10.77-7.22-12.63-12.43-2.07-12.43-2.07l-.05-5.19s3.66-.41 11.81-3.86 11.09-10.09 11.56-12.14zm-15.58 24.29c5.41 1.19 8.15 4.7 9.18 9.44.15.68.28 1.41.4 2.18a5.31 5.31 0 0 0 -2.21.09c-.2.26 0 .67.16.93a7.55 7.55 0 0 0 2.25.45c.08.61.15 1.23.22 1.86a7.54 7.54 0 0 0 -2.57-.4c-.47.16-.16.41.15 1s1.82.81 2.56 1c.06.7.11 1.39.16 2.06a21.83 21.83 0 0 0 -2.72-.59c-.31 0-.41.67-.26 1.13s2.11.93 3.09 1.2c0 .79.08 1.52.1 2.17a17.52 17.52 0 0 0 -3.14-1.2c-.2.05-.41.51-.25 1.08s2.52 1.51 3.45 2v.1a10.9 10.9 0 0 1 0 1.84c-1.11-.64-3.53-1.71-3.76-1.79s-.68.46-.62.87 2.61 1.74 3.79 2.37a3.2 3.2 0 0 1 -1.64.93 25.24 25.24 0 0 0 -3.5-2.56c-.46-.21-.77.36-.72.93 0 .37 1.26 1.28 2.09 1.86-4.47.31-13.45.67-24.22.67s-13.57-.21-14.55-.52a2.85 2.85 0 0 1 -2-2.84c-.05-1.65.25-12 .67-15.48a14.27 14.27 0 0 1 2.47-6.5c1.27-1.83 6-3.92 12.39-4.28s13.61-1.19 19.03 0zm-14.5-7.84a25.8 25.8 0 0 0 3.34-.05l2.17-.21-.17 4.81s-3.5.05-5.31.05zm14.94-5.36a23.87 23.87 0 0 0 -2.92-3.09c-.15 0-.77.56-.67 1a19.41 19.41 0 0 0 2.22 2.57l-1.23.34-1.14.28a14.59 14.59 0 0 0 -2.21-2.6c-.26-.11-.57.36-.78.77s1 1.52 1.61 2.17c-9.54 2.23-16.14 1.95-23.18-.57-7.64-2.74-10.3-7.43-11.1-8.82a4.13 4.13 0 0 1 -.31-3.41c.52-.62 10.84-1.08 21-1.19s27.5-.72 29.2-.31 2.28 1.35 1.6 2.77a13.45 13.45 0 0 1 -.78 1.48 9.8 9.8 0 0 0 -2.78-2.77c-.41 0-.82.21-.72.72s2.15 2.33 2.86 3a18.74 18.74 0 0 1 -1.35 1.68 19.85 19.85 0 0 0 -3-3.38c-.37-.1-1.4.26-1.35.52s2.5 2.84 3.4 3.82a20.9 20.9 0 0 1 -1.67 1.42 17.18 17.18 0 0 0 -3.48-3.49c-.46-.1-.77.36-.83.78s2.21 2.83 3 3.68c-.47.31-1 .61-1.53.91a28.74 28.74 0 0 0 -4-3.87c-.31 0-.62.46-.62.77a37.7 37.7 0 0 0 3.35 3.73c-.8.4-1.66.75-2.59 1.09zm-25.21 18.62a.62.62 0 0 0 -.05-1c-.36-.21-2.07-.11-4.18 2.16a6 6 0 0 0 -1.81 5c.21.31 1.4.15 1.65-.05s.31-2.17 1.14-3.82 2.86-2 3.25-2.29zm-3.61 10.16a69.4 69.4 0 0 0 .1 7.12 3.19 3.19 0 0 0 2.58 2.89c1 0 23.07-.36 26.63-.51s3.5-1.55 3.66-2a24.83 24.83 0 0 0 .25-8.27c-.51-4.85-4.59-9.86-8.77-10.73a33.55 33.55 0 0 0 -17.07 1c-6.16 2.2-7.38 9.78-7.38 10.5zm25.69-9c2.94 1.29 5.16 3.2 5.42 9.29s.31 7.43-.72 7.79-16.41.21-21 .42-6.09 0-6.66-.16-.46-1.6-.56-2.63c-.16-1.59 0-6.76.72-8.82s3.92-5.73 9-6.61 10.86-.55 13.8.74zm-10.24 10.83c-.66 1.89.18 2.76 1.63 2.76a1.92 1.92 0 0 0 1.91-2.68 2.19 2.19 0 0 0 -2.61-1.18 18.44 18.44 0 0 0 -3.69-3.6c-.62-.2-1.15.76-.88 1s2.59 2.81 3.64 3.7zm-10.6 2.09s-.1.83.05 1a10.54 10.54 0 0 0 2.84-.25c.15-.11 0-.67-.16-.78a10.11 10.11 0 0 0 -2.73.03zm0-4.64a12.92 12.92 0 0 0 2.78 0c.21-.1.21-.62.06-.77s-2.62-.67-2.79-.16c-.1.31-.21.83-.05.93zm5.42-3.25a1.35 1.35 0 0 0 .46-.67c.16-.47-.77-1.86-1.19-2.07s-1.07.39-1 .68a20.94 20.94 0 0 0 1.73 2.06zm5.41-1.75a6.74 6.74 0 0 0 -.25-2.79c-.21-.31-.85-.13-1.14.15a5.48 5.48 0 0 0 .62 2.58c.31.31.57.16.77.06zm4.08-.15c.26 0 1.13-2.68 1.08-2.84s-1.08-.2-1.34-.1a25.24 25.24 0 0 0 -.36 2.79c.08.45.36.15.62.15zm3.25 1.34c.26.16 2.17-1.44 2.63-2.06s-.25-.83-.57-.62a23.17 23.17 0 0 0 -2.52 2.17c-.33.45.2.4.46.55zm3.21 3.19a9 9 0 0 0 2.52-.53 1.14 1.14 0 0 0 -.11-1.13c-.25-.26-2.37.88-2.58 1 0-.01 0 .61.17.66zm.57 5.93c.1.26 2-.05 2.27-.05s.26-.87.26-.87l-2.33-.06c-.21.06-.32.73-.21.98z" fill="#1d1d1b"/></svg>