<svg height="64" viewBox="0 0 64 64" width="64" xmlns="http://www.w3.org/2000/svg"><path d="m47.6 32.92a2.81 2.81 0 0 0 .43 2 1.39 1.39 0 0 0 2.08 0 2.08 2.08 0 0 0 -.4-2.34 1.56 1.56 0 0 0 -2.11.34zm13.79-12.66c.94-2.54 1.48-7.57-1-11.52s-4.69-4.59-5.36-4.65-22.84-.21-29.14-.09-8.74-.5-12.15.91a9.09 9.09 0 0 0 -4.66 4h-2.95c-1 0-1.4.27-1.67.8s-.27 5.06-.2 7.34.2 2.64.9 2.91a12.19 12.19 0 0 0 2.84.23 11.36 11.36 0 0 0 1 4.29 3.28 3.28 0 0 0 3 1.31 5.06 5.06 0 0 0 .1 1.14c.14.7.31 1.2.74 1.4a8.57 8.57 0 0 0 1.5.1v3c-6.47 0-12.09.11-12.24.19-.36.18-.45 8.66.49 13.71a15.56 15.56 0 0 0 4.24 8 14.1 14.1 0 0 0 -2.48 1.28 4 4 0 0 0 -1.5 3.78c.2.54.8 1.61 1.24 1.61s4.48 0 10.55-.06 41.86.16 43.77.06 2.21-.77 2.28-1.5a63.68 63.68 0 0 0 .03-7.5c-.23-.77-.9-.74-3-3.69s-3-8.07-3.49-11.35-.67-7 .84-9 5.39-4.15 6.32-6.7zm-53.31-1.37a8.67 8.67 0 0 1 -2.28 0c-.17-.2-.2-.47-.27-2.82s-.07-5.76.37-5.86a18.17 18.17 0 0 1 2.54.1 23.28 23.28 0 0 0 -.5 4.49 37.28 37.28 0 0 0 .14 4.09zm51.44.11c-.27.43-.6.93-.6.93s-34.47-.37-34.6-.5 0-1.77.47-1.91c.19-.05 16.64-.2 24.31-.13s10.75.2 10.75.2a4.06 4.06 0 0 1 -.33 1.41zm-46 8.47c-.13-.07-.16-1.24 0-1.31 0 0 6.74 0 6.77.2a4 4 0 0 1 -.07 1.31c-.09-.01-6.55-.17-6.69-.24zm8.48-.68a17.85 17.85 0 0 0 4.19-.58 2.78 2.78 0 0 0 1.81-2.45s11.61.08 11.83.13.94.54 2.06 2.05a12.81 12.81 0 0 1 2.11 7.28c0 3.26.31 7.5-2 12.73a13.29 13.29 0 0 1 -8.22 7.14c-.71.09-3.53 0-3.53 0a8.63 8.63 0 0 0 1.52-1.78 16.46 16.46 0 0 0 2.72-8c.14-3.17.36-11.43-.49-11.7-.41-.13-7.85-.15-15.44-.13 0-.81 0-2.27 0-3 1.75 0 3.26-.07 3.37-.11.25-.14.07-1.58.07-1.58zm-4.91 4.66h-1.47c.05-.67.11-2.22.11-3h1.37c-.03.81-.1 2.26-.02 3zm-12.09 14.67c-1.21-3.69-1.35-10.49-1.35-12.23 0-.25 28.57-.17 28.64 0s0 10.25-.07 11a11 11 0 0 1 -1 2.65 8.33 8.33 0 0 0 -1.32-1.28c-.17 0-.5.24-.47.57a6.84 6.84 0 0 0 1.34 1.55c-.22.39-.46.79-.72 1.18a16 16 0 0 0 -1.93-1.89 1.08 1.08 0 0 0 -.73.6c-.06.21 1.38 1.58 2 2.19l-.19.26-.52.64a21.78 21.78 0 0 0 -2.43-2.18c-.17 0-.57.3-.57.5a25.71 25.71 0 0 0 2.32 2.49c-.16.18-.29.32-.41.43a37.55 37.55 0 0 0 -2.89-2.73c-.17-.07-.67.23-.74.5a18 18 0 0 0 2.54 2.73h-1.27a24.4 24.4 0 0 0 -2.52-2.35c-.3-.17-1 .34-1 .5a13.88 13.88 0 0 0 1.64 1.86c-5.12 0-13.78 0-13.89 0a20.11 20.11 0 0 1 -4.46-6.99zm52.24 3.81c.94.91 1.24 1 1.31 1.44v.66a11.18 11.18 0 0 0 -2.21-1.09 1.23 1.23 0 0 0 -.57 1.1 13.48 13.48 0 0 0 2.8 1.77v1.09a31.41 31.41 0 0 0 -3.47-2.12c-.23 0-.9.54-.83.84a34.92 34.92 0 0 0 4.28 2.65v1.11a42.53 42.53 0 0 0 -4.91-3.23c-.37 0-.84.54-.77.77a54.43 54.43 0 0 0 4.56 3.08h-1a41.66 41.66 0 0 0 -4.14-2.53c-.43-.16-.87.41-.87.67a14.26 14.26 0 0 0 2.58 1.86c-6.35 0-18.18-.18-26.73-.14-12.16.07-22.07-.17-22.07-.17 0-.16 1.71-2 2.81-2.11s25.92-.26 26.83-.46 5.63-2.25 8.71-8.31 2.74-10 2.61-13.43-.16-4.08-.16-4.08a4.15 4.15 0 0 1 3-1.3c2.18-.2 2.64.23 2.64.23s.17 8.58 1.58 13.2 3.12 7.57 4.05 8.5zm-5.69-23.1a10.52 10.52 0 0 0 -3.82 0 10 10 0 0 0 -2.48 1.5 11.72 11.72 0 0 0 -2-4.15c-1.38-1.81-1.85-2.18-2.25-2.18s-14.24-.33-14.37-.23-.64 2-1.27 2.34-1.31.3-5.83.4a65.61 65.61 0 0 1 -6.67 0 3.27 3.27 0 0 1 -2.44-2.54s-.3-10.59-.2-11.06a8.25 8.25 0 0 1 4-4.05c2.54-1.17 6.93-.57 11.75-.5s18.32 0 22.81 0 6.22-.2 8.13 1.38a8.89 8.89 0 0 1 3.18 5.69 15 15 0 0 1 0 2.78s-30.68.17-33.23.27-3.45.4-3.81 1.64 0 2 .93 2.21 34 .77 34 .77-2.38 1.77-4.08 3.28a15.27 15.27 0 0 0 -2.32 2.45zm-43.91 10c-.06-.23-1.89-.22-1.91-.07a16.89 16.89 0 0 0 .27 4.63c.43 2.48 1.23 3.79 1.54 3.89a2.7 2.7 0 0 0 1.57-.7 18 18 0 0 1 -1.11-2.85 15.39 15.39 0 0 1 -.33-4.89zm6.47-20.46c.06-.27-.17-4.56.1-5.13a4.35 4.35 0 0 1 2-1.54 3.82 3.82 0 0 0 1.64-1.44c0-.17-.77-.33-2.18.2a5.52 5.52 0 0 0 -2.68 2c-.17.43-.13 5.79-.13 5.79.14.39 1.21.39 1.28.13zm3.58 5.46c-2.28 0-4.06-.33-4.12-.24a3.73 3.73 0 0 0 -.07 1.21c.07.13.27.06 2.82.2a48.86 48.86 0 0 0 5.06 0 4.68 4.68 0 0 0 .06-1 29.22 29.22 0 0 0 -3.72-.16zm18.05-6.1c.67.13.91-.33.91-.57s-.34-.2-.54-.27a.57.57 0 0 1 -.3-.7 1 1 0 0 1 1.24-.27.46.46 0 0 1 .1.7 1.46 1.46 0 0 0 .54.47c.3.14.33.14.63-.3a1.59 1.59 0 0 0 -1.47-2.21 2 2 0 0 0 -2.35 2.12 1.4 1.4 0 0 0 1.27 1.04zm15 7.37a14.63 14.63 0 0 0 -2.54.27c-.2.23 0 .93.23 1a17.24 17.24 0 0 0 2.92-.17c.26-.1.16-.4.16-.6s.17-.46-.77-.49z" fill="#1d1d1b"/></svg>