<svg height="64" viewBox="0 0 64 64" width="64" xmlns="http://www.w3.org/2000/svg"><path d="m21 40.3c0 .3.72 8 .84 8.33s.3.13.59 0-.17-8.29-.25-8.63-1.27-.11-1.18.3zm3.37-4c-.09.42.42 10.94.42 10.94s.55.51.71.47.17-11.41.09-11.62-1.19-.09-1.25.17zm4.25-4.33c-.08.21 0 10.43 0 10.94s.55.67.8.63.17-11.53 0-11.74-.76-.05-.83.13zm3.66.25a41.11 41.11 0 0 0 .21 5.51c.17.42.38.47.55.47a53.11 53.11 0 0 0 .29-5.94c-.07-.26-1.02-.32-1.08-.08zm-21.37 13.85c-.91.93-1.05 1.93-.33 3.32s3.74 0 3.36-1.93a1.9 1.9 0 0 0 -3.03-1.39zm.33 2.61a1.36 1.36 0 0 1 .18-1.83 1 1 0 0 1 1.66.77c.21 1.03-1.45 1.82-1.84 1.06zm42.56-46.55c-2-.63-3.75.34-6.52 2.44s-10.69 10.77-12.13 12.58a9.74 9.74 0 0 0 -1.81 3.46s-7.15 6.48-10.77 10.05-13.76 13.89-14.69 15.24-.88 2.52-.75 4.54 4.33 8.88 5.55 10.15 1.73 1.81 3.32 1.26 6.28-3.85 15-11.49a78.32 78.32 0 0 0 14.3-16.75c.33-.63.8-1.73-.76-3.7s-4.84-5.91-4.84-5.91 4.59-4.25 9.47-8.54 7.49-6.1 7.74-8.88-1.13-3.82-3.11-4.45zm-7.8 8.21c.57-.44 1.31.33 1.14 1a.84.84 0 0 1 -1.39.43c-.54-.47-.16-1.14.25-1.43zm-1.35 21.8c.05.63-4.2 8-13.88 16.75s-14.26 11.74-15.31 11.91a2.05 2.05 0 0 1 -2.15-1c-.42-.63-5.38-8.67-5.43-9.64a6.66 6.66 0 0 1 1.22-4.26c1.14-1.39 11.37-11.87 16-16.37s8.75-7.79 8.75-7.79a10.22 10.22 0 0 0 2.44 2.11 3.86 3.86 0 0 0 2.28.71s6.01 6.95 6.05 7.58zm7.89-22.14c-2.78 2.7-5.22 4.17-9.35 7.83s-4.5 4.17-5 4.08a6.89 6.89 0 0 1 -2.4-2.19c.21-.52 8.76-9.17 8.76-9.17s-.3 2.19 1.18 2.27a2.34 2.34 0 0 0 2.48-2.44c-.21-1.14-2.32-1.3-2.32-1.3a43.67 43.67 0 0 1 4.5-4.08c1.26-.75 2.78-.92 3.62 0s1.3 2.35-1.47 5zm-1.9-3.91c-1.64 1.17-2.14 2.44-1.13 3.28s2.9-.76 2.94-1.94a1.32 1.32 0 0 0 -1.81-1.3zm-.33 2.4c-.38-.3-.17-1.18.63-1.52.27-.11.63.51.59.8s-.85 1.05-1.22.76z" fill="#1d1d1b"/></svg>