<svg height="64" viewBox="0 0 64 64" width="64" xmlns="http://www.w3.org/2000/svg"><path d="m61.8 9.39c-.51-3.1-2.41-5.14-4.12-5.46s-5 .37-7.64 2.63-9.81 8.66-12.91 11.44a51.8 51.8 0 0 0 -6 6.52s-7.79 6.62-14.13 12.72-12.91 12.08-14.58 14.54 1.35 7.82 1.72 8.22.88.09 1.62-.1.6-.83 1.62-2.26 2.59-.79 3.19-1 .51-1.81 1.29-2.59 2.23-.61 2.64-.93.46-1.29 1.71-2.54 2.32-.56 2.87-.84.37-1.71 1.39-2.87 2.08-.88 2.41-1.15.46-1.07 1.34-2.41 2.27-1.2 3-1.34.88-2.59 1.53-3.7 2.13-.47 2.68-.65.37-1 1-2 1.72-.51 2-.65.65-.92 1.34-1.71a3.36 3.36 0 0 1 2.32-.83c.6-.09 4.25-2.68 11.1-7.82s9.5-6.76 11.26-8.61 1.85-3.51 1.35-6.61zm-24.8 21.75c-.23.18-1.57.51-2.13 1.25s-.55 1.34-1.15 1.52a6.09 6.09 0 0 0 -2.09.74c-.41.42-.69 1.58-1 1.81s-2.27-.33-3.1 1.11-1 3.33-1.43 3.47-1.95.18-2.73 1.16a21.33 21.33 0 0 0 -1.48 2.31 7.3 7.3 0 0 0 -2.78 1.67c-1 1.15-.88 2.17-1.2 2.45a15.51 15.51 0 0 0 -3 1.71c-1 .93-.93 1.57-1.34 1.76a9.69 9.69 0 0 0 -2.69.88c-.69.55-1.15 2.22-1.43 2.4s-1.67.19-2.5 1.07-1.24 2.45-1.61 2.41-.46.13-.65-.19-2.64-3.67-1.25-6.34 19.07-18.79 22.86-22.07 5.69-5.05 5.51-4.77c-.39.59 3.28 3.66 4 4.44s1.41 1.07 1.19 1.21zm22.4-17.68c-1.57 2.45-15.6 11.15-17.31 12.86s-3 2.73-3.42 2.64-4.54-4.86-4.21-5.27 12.94-11.57 15.12-13.61 5-4.3 7.26-3.52 4.16 4.44 2.55 6.9zm-11.8 1.62a2.13 2.13 0 0 0 0 2.87c.65.88 3.56.28 3.7-1.62s-2.81-2.11-3.71-1.25zm2.4 1.66c-.18.51-1.11.88-1.48.42a1.06 1.06 0 0 1 .56-1.53c.85-.34 1.15.61.92 1.11zm6.53-7.17c-1.44-1-3.6.28-3.89 1.25-.14.46-.28 2.31.42 2.73a2.93 2.93 0 0 0 3 .09c1.29-.64 1.94-3.05.51-4.07zm-.1 2.13c-.27.93-1.75 1.53-2.36.88a1.49 1.49 0 0 1 .65-2.22c.85-.36 2.03.41 1.75 1.34zm-43.73 33.3a30.14 30.14 0 0 0 -.88 5.32 2.63 2.63 0 0 0 .88 0 41.88 41.88 0 0 0 1.06-5.32c-.09-.21-.83-.12-1.06 0zm3-1.81c-.33.24-.46 4.49-.46 4.49 0 .23.41 0 .64-.14a22.17 22.17 0 0 0 1-4.39c-.11-.26-.88-.15-1.22.06zm4.76-4.85c-.41 0-1.31 4.52-1.2 4.67s.51 0 .83-.09 1.3-4 1.3-4.4-.55-.21-.97-.16z" fill="#1d1d1b"/></svg>