<svg height="64" viewBox="0 0 64 64" width="64" xmlns="http://www.w3.org/2000/svg"><path d="m54.32 31.08c-1.09.07-10.37 6-11.26 6.61a1.5 1.5 0 0 0 -.68 1.51l-1.57.8a15.49 15.49 0 0 0 -2.05-3c-1.5-1.77-2.52-2.79-2.52-2.79l.89-.89a7.5 7.5 0 0 0 3.87-1.42c2.39-1.51 8.12-6 9.9-10.65s.13-6.48-.75-7-2.73-.2-4.44 1.23-12.28 12.15-12.62 13a1.08 1.08 0 0 0 .34 1.3l-.75.82a9.57 9.57 0 0 0 -2.46-1.84c-1.77-1-3.2-1.71-3.2-1.71l.98-2.25a11.43 11.43 0 0 0 5.67-4.64c1.77-3.27 4-10.71 3.54-13.37s-1.57-5-3.34-4.85-3 1.3-4.64 4.17-7.66 14.05-7.86 14.89a2.08 2.08 0 0 0 .34 1.57l-1.3 2.32a40.53 40.53 0 0 0 -4.71-1.16c-1.84-.27-6.34.41-7.64 3.82s.68 25.45.94 29.25a5.49 5.49 0 0 0 4.36 5.11c.89.14 25.45.35 28.25-.27s4.57-3.34 4.5-7.71-3-9.75-3-9.75l.89-.48a1.83 1.83 0 0 0 .75.61c.48.21 3-.47 6.21-2.93s5-4.78 5.39-7.16-.94-3.22-2.03-3.14zm-7.64-14.88c1.57-1 3.61-1 3.89.75s-.75 5.33-5 9.21a21 21 0 0 1 -7.3 4.71c-.75.41-1.3.48-1.5.34s-2.26-2.79-2.26-2.79 10.6-11.19 12.17-12.22zm-12.68 14.33a18 18 0 0 1 2.25 2.32s0 1.09-.55.89a16.93 16.93 0 0 1 -2.45-2.53s.46-.68.75-.68zm-3.42-24.53c1.63-2.52 2.72-3.07 3.68-3s2.32 2.18 1.84 5.46-2.25 9.54-3.89 11.77a10.38 10.38 0 0 1 -4.77 3.55c-.28-.07-4.78-1.91-5.12-2.12 0 0 6.62-13.17 8.26-15.66zm-7.58 17.16c.34 0 3.76 1.09 3.62 1.5s-.62 1.85-.89 1.85-3.89-.82-3.89-1.1c0 0 .82-2.25 1.16-2.25zm20.5 29.28a10.49 10.49 0 0 0 -1.69-1.6c-.36-.14-1 .77-.91 1a30.44 30.44 0 0 0 2.8 2.71v1.57a21.15 21.15 0 0 0 -3-3.15c-.27 0-.68.55-.68.73s2.51 3.13 3.35 4.13a2.15 2.15 0 0 1 -.74.79 34.63 34.63 0 0 0 -3.34-4c-.27-.05-.68.41-.73.63a38.64 38.64 0 0 0 3 3.83 5.74 5.74 0 0 1 -.91.22 19.86 19.86 0 0 0 -3-3.91c-.32-.09-.78.09-.82.36a31.42 31.42 0 0 0 2.33 3.68h-.88c-.59-.83-2.4-3.38-2.59-3.46s-.68.27-.86.59 1.35 2.12 2 2.89h-1a10.61 10.61 0 0 0 -2.11-2.72 1.21 1.21 0 0 0 -1.05.37 11 11 0 0 0 1.65 2.36h-.94a11.46 11.46 0 0 0 -2.07-2.64 1 1 0 0 0 -.91.37c-.14.17.87 1.59 1.37 2.27-4.81 0-10.32 0-12.61 0a49.14 49.14 0 0 1 -6-.19c-.63-.13-1.41-1.72-1.5-3.82s-.86-17.46-1.18-20.87.48-6.23 1.33-7.19c1.06-1.19 5.53-1.53 8.6-.27s8.76 1.7 14 8.46 6.16 8.14 7.84 12a18.58 18.58 0 0 1 1.25 4.86zm.38-9.44a14.11 14.11 0 0 1 -1.36.41l-1-2.39s.89-.75 1.09-.61 1.54 2.4 1.27 2.59zm11.12-7.9c-.82 1.91-3.34 4.16-5.53 5.73s-3.68 2.17-4.09 1.85a15.28 15.28 0 0 1 -1.91-4.17s10-6.2 10.78-6.27 1.57.95.75 2.86zm-1.77-1.1c-.75-.41-2.67 1-2.94 1.3-.54.61-.75 1.16.34 1.7a2 2 0 0 0 2.53-.47c.41-.61.84-2.11.07-2.53zm-1.61 2.22c-.41-.1-.37-.45.07-.68.19-.11.58-.17.58.2s-.27.59-.65.49zm-5.49-14.22c.92.1 2.15-1.4 2.22-2.36a1.35 1.35 0 0 0 -1.47-1.4 5 5 0 0 0 -2.32 1.64c-.75 1.47.65 2.05 1.57 2.12zm.17-2.46c.4-.14.68.24.51.75a.61.61 0 0 1 -1 .34c-.46-.26.01-.88.49-1.05zm-14.91-8.9c.76.58 2.26 1 2.9-.41s.55-2.59-.54-3.13-2.64.81-2.83 1.6a1.62 1.62 0 0 0 .47 1.94zm1.3-2.18c.27-.15.72-.07.72.65s-.72.68-1.06.24-.03-.68.34-.89zm-17.49 19.91a2.43 2.43 0 0 0 -2.54 1.18 25.57 25.57 0 0 0 0 5.92c.18.27 1.27.22 1.37 0s.09-2.77.09-3.18a4.17 4.17 0 0 1 .27-2c.36-.64 2.18 0 2.32 0s.18-.32.09-.77-.73-1.01-1.6-1.15z" fill="#1d1d1b"/></svg>