<svg height="64" viewBox="0 0 64 64" width="64" xmlns="http://www.w3.org/2000/svg"><path d="m58.74 3.4c-1.13-.57-5.27-.57-6.54.52s-14.93 16.24-15.69 17.14a3.21 3.21 0 0 0 -.8 1.69s-2.59 2.59-7 7.21-25.49 27.59-26.38 28.63-.14 2.17 1.22 2.31 4.38.33 9.94-1.75a87.23 87.23 0 0 0 20.29-11.39c8-5.79 14-11.12 14.27-11.77s1.37-2 .71-3.16-5.23-5.13-5.23-5.13l8.57-7.82c5.28-4.8 9.66-7.82 9.94-10.64s-2.17-5.24-3.3-5.84zm-10.92 30a3.56 3.56 0 0 1 -1.27 2.5 154.17 154.17 0 0 1 -17.33 13.69c-6.5 4.1-16.44 9.23-19.17 10s-7 .94-7 .42a1.13 1.13 0 0 1 .42-.94c.19-.14 10.22-11.11 13.33-14.5s19.2-20.4 19.57-20.78c.1-.11 11.35 9.21 11.45 9.65zm11.44-23.17c-.38.8-16.25 15.3-16.58 15.3s-3.72-3.72-3.58-4 14.23-15.16 14.74-15.59a3.34 3.34 0 0 1 4.1.19 3.4 3.4 0 0 1 1.32 4.1zm-10.36 2.12a2 2 0 0 0 .94 3.34 2 2 0 0 0 2.45-2.59c-.52-1.37-2.55-1.48-3.39-.75zm1.2 2.42a1 1 0 0 1 -.48-1.69 1.15 1.15 0 0 1 1.71.38 1 1 0 0 1 -1.23 1.31zm5.63-7.42c-1.6-.84-3.35.83-3.53 1.7a2.52 2.52 0 0 0 4.56 1.69 2.33 2.33 0 0 0 -1.03-3.39zm-1.18 3.3a1.42 1.42 0 0 1 -.89-2.21c.37-.43 2-.57 2.3.47a1.31 1.31 0 0 1 -1.41 1.74zm-24.89 25.46c0 .29.71 8 .84 8.33s.29.13.59 0-.17-8.29-.26-8.62-1.23-.13-1.17.29zm4.34-5.37c-.09.21 0 10.43 0 10.94s.54.67.8.63.16-11.53 0-11.74-.8-.01-.8.17zm4.37 6.26a52.84 52.84 0 0 0 .3-5.93c0-.25-1-.28-1.05 0a39.57 39.57 0 0 0 .21 5.51c.17.34.38.42.54.42z" fill="#1d1d1b"/></svg>