<svg height="64" viewBox="0 0 64 64" width="64" xmlns="http://www.w3.org/2000/svg"><path d="m59.94 3.34a4.68 4.68 0 0 0 -3.89-1.34c-1.75.16-4.79 2.48-7.77 5s-13.89 12-14.65 13a3.51 3.51 0 0 0 -.57 2.37s-4.65 3.75-8.44 7.16-17.16 14.54-18.35 15.77-2.75 3.27-2.89 4.7-1 11-.38 11.52 1.38.9 3.8-.14 7.67-3.28 17.58-10.05 18.35-16.6 19.2-18.03a4.83 4.83 0 0 0 .42-3.93 53.39 53.39 0 0 0 -4.74-4.17 13 13 0 0 0 1.74-1.47c1.24-1.19 19.11-13.09 20-15.36a4.92 4.92 0 0 0 -1.06-5.03zm-16.94 26.79c.14.33.71 1.37-1.28 3.6a83.52 83.52 0 0 1 -18.62 16.92c-11 7.26-17.4 10.24-18.39 10.29s-1.38 0-1.33-1.47 1-9.81 1.9-11.28 9.15-8.44 16.83-15 11.89-9.6 11.89-9.6c.23 0 1.56 1.89 2.6 2.18s1.8-.05 2 .09 4.22 3.94 4.4 4.27zm14.47-21.13c-2.18 1.85-12 7.49-15.55 10.62s-3.65 3.49-4.17 3.38-1.75-1.5-1.52-2 10.24-9.79 14.42-13.11 5.54-3.88 7-3.27 2 2.52-.18 4.38zm-8.39 1c-.9.43-2 1.23-.8 3.08s3.31-.66 3.36-1.56a2 2 0 0 0 -2.56-1.52zm0 2.47a.88.88 0 0 1 .19-1.47c.43-.19 1.42.24 1.33 1a.93.93 0 0 1 -1.52.45zm6.45-6.47c-1-.14-2.25 1.28-2.56 1.71-.9 1.23.57 2.56 1.28 2.51a5 5 0 0 0 2.75-2.14c.42-.85-.43-1.99-1.47-2.08zm0 2.56c-.29.33-1 1.09-1.52.66a1 1 0 0 1 -.14-1.42c.33-.23.75-1 1.51-.71s.48 1.09.2 1.42zm-40 35.08a17.11 17.11 0 0 0 -.19 5.5c.09.14.33.19.61-.09a18.45 18.45 0 0 0 .48-5.65c-.25-.52-.58-.14-.86.19zm4.12-3.84c-.28.43-.86 7.16-.43 7.16.15 0 .38-.14.62-.57a39.25 39.25 0 0 0 1.23-6.87c-.15-.43-1.07-.2-1.38.23zm4.54-3.8c-.33.09-1.32 9-1 9.05s.47 0 .62-.43 1.37-8.06 1.28-8.43-.57-.28-.9-.19zm3.56-2c-.38.14-.81 3.27-.81 3.93 0 .29.52 0 .71-.23a18.12 18.12 0 0 0 1.09-3.47c-.04-.31-.61-.4-.99-.23z" fill="#1d1d1b"/></svg>