<svg height="64" viewBox="0 0 64 64" width="64" xmlns="http://www.w3.org/2000/svg"><path d="m16.75 45.48c-.15.3-.69 5.76-.74 6.1s.49.15.83-.15.79-5.51.69-5.9-.65-.32-.78-.05zm4.08-3.64a65.83 65.83 0 0 0 -1.08 6.84c.09.64.44 0 .63-.1a42.7 42.7 0 0 0 1.43-6.79c-.1-.54-.88-.29-.98.05zm3.78-1.84c-.24.45-1 5.86-.78 6.25s.24.1.54-.34a49.88 49.88 0 0 0 1.42-5.91.64.64 0 0 0 -1.18 0zm37.28-34.69a4.52 4.52 0 0 0 -4.72-3.31c-2.31.25-4.62 1.43-7.23 4.18s-18.94 18.7-20.56 20.27a6.66 6.66 0 0 0 -1.82 3.49s-5.8 5.12-10.57 10-11.16 12.33-12.24 13.8a32 32 0 0 0 -2.75 6.59 10.87 10.87 0 0 0 .2 1.72 8.31 8.31 0 0 0 2.65-.54 67.56 67.56 0 0 0 16.15-7.72c6.54-4.32 14.85-11.55 15.58-12.73a8.85 8.85 0 0 0 1.18-3.69c.15-1.18-3.34-3.64-3.59-3.84s2.46-2 6.25-5.55 17.78-13.63 19.21-15.89 2.65-4.96 2.26-6.78zm-25.33 33.09c0 .69-4.18 6.44-14.55 13.08s-15.74 8.17-16.77 8.52-2.07.93-2.12.59a30 30 0 0 1 2.88-6.4 177.5 177.5 0 0 1 13-14.76 102.47 102.47 0 0 1 9.14-8.26c.41 0 2.81 3.2 3.5 3.35s1.47-.4 1.67-.25 3.2 3.44 3.25 4.13zm21.84-28.77c-1.87 2.86-9 7.48-14.56 12s-11 10-11.51 9.89a8 8 0 0 1 -2.26-2.71c.33-.44 18.39-17.9 21.64-21.19s4.72-3.54 6.64-3.35 1.92 2.51.05 5.36zm-7.58 1.68c-1.27-.4-3.43 1.72-3.78 2.36-.49.88.59 1.77 1.13 2a3.2 3.2 0 0 0 3-1c1.03-1 .93-2.97-.35-3.36zm-.78 3c-.64.45-1 .59-1.43.3a1 1 0 0 1 -.15-1.43c.48-.59 1.63-1 2.07-.64s.15 1.37-.53 1.81zm6-8.11a4.76 4.76 0 0 0 -3.4 2.3c-.49 1.28 1.09 2.07 1.92 1.82s2.66-1.23 2.9-2a1.51 1.51 0 0 0 -1.46-2.08zm.44 2.16a2.74 2.74 0 0 1 -1.77.89c-.69.05-1-.74-.74-1 .5-.51 1.43-1.13 2-1a.8.8 0 0 1 .46 1.15z" fill="#1d1d1b"/></svg>