<svg height="64" viewBox="0 0 64 64" width="64" xmlns="http://www.w3.org/2000/svg"><path d="m62 30.13a27.42 27.42 0 0 0 -12.88-21.93c-9.57-6.34-19.51-6.71-27.12-3.57-11.58 4.76-18.52 12.68-19.84 23.58s3.24 20.08 12.29 27.79 24.1 6.4 34.54-.33a29 29 0 0 0 13.01-25.54zm-9.66 18.79a7.07 7.07 0 0 0 -1.9-2c-.33-.06-.66.6-.66 1s1.59 2 1.59 2c-.37.37-.77.72-1.18 1.07a9.37 9.37 0 0 0 -2.19-2.57.62.62 0 0 0 -.73.66 14.17 14.17 0 0 0 2 2.63c-.49.38-1 .74-1.53 1.1a6.23 6.23 0 0 0 -1.64-2.34c-.53-.2-.92.4-.86.73a17.32 17.32 0 0 0 1.54 2.24c-.45.28-.9.54-1.37.79a15.44 15.44 0 0 0 -1.75-2.37c-.27-.14-.93.26-1 .66a8.86 8.86 0 0 0 1.58 2.3l-1.12.53a5.48 5.48 0 0 0 -1.32-1.91c-.33-.06-.93.27-.93.6a9.05 9.05 0 0 0 1 1.81c-.52.2-1 .39-1.56.56a6.6 6.6 0 0 0 -1.31-1.91c-.33-.13-.53 0-.73.39s.43 1.29.8 1.93a26.56 26.56 0 0 1 -18.43-1.07c-11.01-5.08-15.37-14.39-15.7-23.44s4.06-19.31 17.37-24.77c8.62-3.54 18.29-1.65 25.36 2.71s10.33 12.55 10.83 18.95c.44 6.08-.38 13.4-6.16 19.72zm-12.66-38.8c-6.47-2-14.51-.88-19.16 1.65-3.76 2-9.24 6-11.42 12.28s-.66 15 3.56 20.54 11.76 9 21 8.06 15.26-4.65 19.82-12.95 1.19-16.44-1.12-20.07a22.37 22.37 0 0 0 -12.68-9.51zm.55 1.14a18.74 18.74 0 0 1 6.16 3.44c1.59 1.36 2.42 2.37 1.46 3.43s-9.12 6.6-11.63 8.5-2.86 2.07-2.86 2.07-.84-.44-.79-.58c.11-.34 4-15.54 4.31-16a2.87 2.87 0 0 1 3.35-.86zm-15.23-.26c5.6-1.45 8.77-.79 9.43-.31a2.9 2.9 0 0 1 .92 2.25c0 .66-3.79 15.19-4.4 15.41s-.66.18-.84.35-.22.35-.4.22-9.21-10.39-10.53-13.56c-.3-.74.22-2.95 5.82-4.36zm-15.59 15.89a17.24 17.24 0 0 1 3.21-6.78c2.2-3.08 3.7-4.27 4.76-3.52s10.43 11.75 10.87 12.33.75.66.57.92a.84.84 0 0 1 -.57.31s-10.35 0-14.4.22c-.83 0-3.47.4-4 0s-.66-2.16-.44-3.48zm4.59 14.62c-.44 0-1.54.18-2-.22s-3.26-6.56-2.78-7.71 1.41-2.11 4.28-2.29 14.57-.22 14.88 0 .53.49.31.71-5.69 3.39-8.76 5.59-5.37 3.96-5.93 3.92zm9.41 7.49c-.41.3-1.41.3-3.26-1s-4.84-2.9-5.15-4.71c-.1-.6 4.58-4.31 7.48-6.3s6.17-4 6.7-4 .7.09 1.05.09.71.13.71.39-3.13 6.74-4.8 10.39-2.29 4.91-2.73 5.14zm11.23 1.19c-.14.57-.62.79-1.32.88a45.13 45.13 0 0 1 -5.68-.71c-1.68-.26-2.47-.13-2.56-.44s-.26-.17.22-1.85 4-8.63 4.71-10.3.88-2.46 1.15-2.42 1.14 4.62 2 8.72 1.61 5.59 1.48 6.16zm10.74-3.35c-.31.22-3.08 1.72-4.8 2.51s-2.73 1.15-3.3 1-1.19-.57-1.72-1.76-3-12-3.26-13.12a8.58 8.58 0 0 1 -.22-2.42c.1-.3.27 0 .75-.18s.66-.44.84-.39a44.93 44.93 0 0 1 7.48 7.35c3.52 4.32 4.54 4.89 4.63 5.68s-.09 1.15-.4 1.37zm7.75-8.84c-1.1 2.86-3.26 5.64-4.32 6.3s-1.27.75-1.8.44-5.51-6.56-8.37-9.25-4.49-3.83-4.58-4 .18-.7.31-.74 11.32.13 14 .08 4.09-.08 4.93 1.63.93 2.71-.17 5.54zm-.35-8.5c-1 .18-8.68.31-12.33.4s-6.08 0-6.12-.31 13.16-8.82 14.35-9.59 1.76-1.1 2.16-.88 3.21 6.43 3.35 7.44-.44 2.8-1.41 2.97zm-40-1.61c.76.16 3.7.36 4.13 0a1.24 1.24 0 0 0 -.1-1.69c-.46-.4-2.89-.08-3.46.07-1.58.42-1.35 1.48-.59 1.65zm3.5-1.16c.24.16.33.4-.09.53s-2.55 0-2.55-.4 2.36-.27 2.62-.1zm3.11-3c.36.43-.33.93-.53 1.09s0 .47.17.7.66.13 1-.07a1.51 1.51 0 0 0 .6-1.95 3.31 3.31 0 0 0 -2.61-1.45c-.3.13-.23.73 0 1s.98.28 1.35.7zm6.35-5.73c.86-.53.4-1.68.1-2.34s-.79-.8-1-.43-.07.43.16.69.5.89.1 1.26-.79-.66-1.12-.8-.83 0-.63.4c.65 1.33 1.53 1.79 2.39 1.22zm4.2 2.51a1.51 1.51 0 0 0 1.32-1.95 3.46 3.46 0 0 0 -1.69-2.11c-.43-.13-.5.53-.66 1-.63 1.91-.03 3.23 1.03 3.1zm0-2.38c.23 0 .53.43.47.9s-.3.66-.63.49-.31-1.28.12-1.35zm7.26 4.87c.76.1 1.62-1.42 1.92-1.85s.26-.76-.17-.89-2.39 1.23-2.51 1.42a.91.91 0 0 0 .76 1.32zm2.28-5.05c.4-.23.82-3 .36-3s-1.8 2.22-1.78 2.45c.07.77 1.02.74 1.42.51zm2.51 1c.33 0 .49-.39.82-.69s.47 0 .9 0 .46-.16.62-.53-.56-1-1.42-1-1.54.93-1.61 1.15c-.14.36.36 1.12.7 1.05zm4.85 4.79c-1.28.07-2.73 1.37-3.07 1.55s-.06.8.43 1a9.15 9.15 0 0 0 3.11-.07 1.64 1.64 0 0 0 1.22-1.45c.13-.59-.4-1.11-1.69-1.05zm.3 1.72a5.19 5.19 0 0 1 -1.55.13c-.13-.07-.46-.3-.17-.49a3.57 3.57 0 0 1 1.72-.4c.23.11.3.64 0 .74zm2.44.76c-.39.46-.39 1.45.6 1.45s1.29-.49 1.12-1.15-1.46-.62-1.72-.32zm-6.27 8.32c.2-.2-.36-.5-.53-.69s.13-.14.63 0 .76.66 1.22.86.5 0 .63-.26-.66-1.45-1.72-1.98-2.51-.58-2.81-.23c-.85 1 1.46 2.44 1.92 2.51s.46-.03.66-.23zm4.76-.5c-1 1.19.29 2.48.85 2.75a2.3 2.3 0 0 0 2 .06c.69-.36.59-1.42-.1-2.15s-2.46-1.02-2.75-.7zm2.44 1.82c-.2.36-.5.46-1 .2s-.89-.93-.53-1.26 1.73.68 1.53 1.04zm-7.17 1.78c-.56.37 0 1.79.86 2.38a1.69 1.69 0 0 0 2 .1c.52-.3.39-1.25-.07-1.72s-2.19-1.16-2.79-.78zm1.66 1.8a1.09 1.09 0 0 1 -.56-1.09c0-.36 1.29.33 1.25.79s-.27.5-.69.3zm-8.82-1.78a1.48 1.48 0 0 0 -1.22.43c-.39.79 1.06 3.07 1.32 3.2s.8.36 1.26-.89-1.13-2.61-1.4-2.74zm.7 2.21c-.13.4 0 .59-.43.26s-.56-1.22-.23-1.32.78.66.62 1.06zm2.71 3.43c-.5.17-.33 1.59.36 2.38s1.06.89 1.52.73 1.15-1 .72-1.69a4.65 4.65 0 0 0 -2.64-1.42zm1.91 1.89a.45.45 0 0 1 -.76.19.87.87 0 0 1 -.13-1c.22-.28.95.51.85.81zm-11.6-1.46c-.29-.26-.76.16-.82.43-.47 2.08.49 3.57 1.19 3.67s1.48-.73 1.48-1.69-1.55-2.14-1.85-2.41zm.27 3a1.6 1.6 0 0 1 -.07-1.62c.21-.16.89.56.93 1.06a.58.58 0 0 1 -.86.6zm-10.17-5.01c-.33.49.07.86.8 1.06a2.47 2.47 0 0 0 2.13-.78c.37-.5.73-2.31.2-2.61s-2.91 1.94-3.13 2.33zm1.75.06c-.36.2-.89.1-.79-.29s1.32-1 1.49-.83-.37.93-.74 1.12zm-3.11-8.78c-.86-.43-3.9.93-4.26 1.19-.86.63.43 1.49 1.26 1.36s3.86-2.09 3-2.55z" fill="#1d1d1b"/></svg>