<svg height="64" viewBox="0 0 64 64" width="64" xmlns="http://www.w3.org/2000/svg"><path d="m52.14 9c-1.4-5.81-2.91-5.81-3.89-6.54s-4.67-.77-9.39.47-30.76 9.07-33.31 10.26-2 3.56-1.5 5c.93 2.75 10.53 37 11.62 39.95s2.39 3.89 4 3.94 7.58-2.34 18.16-5.34 16.5-3.53 18.83-4.52 3.84-2.12 3.68-5.24-6.8-32.18-8.2-37.98zm4.46 40.61c-.62.31-10.38 2.28-19.3 4.88s-16.3 4.82-17.3 4.98-1.4-.52-2.23-2.6-6.87-24.22-8.69-30.71-2.7-10.06-2.54-10.48c.23-.61 16.29-5.29 23.08-7.42a133.42 133.42 0 0 1 16.24-3.83c1.51-.21 2.7.31 3.94 3.89s7.73 34.6 8 37.55-.58 3.43-1.2 3.74zm-36.11-25.94c.16-.36-1.81-6.64-2.49-7s-5.59 1.46-5.65 2 1.19 6.48 1.87 7.11 6.12-1.78 6.27-2.11zm-1.4-.67c-.31.31-3.58 1.45-4 1.19s-1.35-4.67-1.35-4.93 3.27-1.45 3.68-1 1.98 4.43 1.67 4.74zm27.91-7.21c.31-.37-1.71-6.44-2.12-6.85s-23.33 6.37-23.5 6.9c-.11.31 1.71 6.79 2.07 7s23.24-6.69 23.55-7.05zm-23.81 1c.21-.2 20.8-6.43 21.11-6.27a16.38 16.38 0 0 1 1.51 4.25c-.1.21-20.91 6.85-21.27 6.54a16.69 16.69 0 0 1 -1.35-4.49zm.26 16.92c.1-.42-1.71-6.49-2.13-6.65a27.74 27.74 0 0 0 -6.12 2.08c-.15.42 1.87 6.48 2.34 6.74s5.81-1.73 5.91-2.14zm-1.45-.8a14.06 14.06 0 0 1 -3.74 1.29 33.23 33.23 0 0 1 -1.5-4.36c.15-.15 3.63-1.4 3.84-1.19a19.32 19.32 0 0 1 1.4 4.26zm4.36.2c.25.21 22.72-7.31 23.08-7.68s-1.5-5.49-1.82-5.75-22.62 6.59-22.92 6.74 1.4 6.49 1.66 6.69zm20.8-11.77c.36.26 1 3.26 1 3.26s-20.55 6.9-20.81 6.7a19.24 19.24 0 0 1 -1.09-3.74c.04-.26 20.53-6.48 20.9-6.22zm-22.93 16c-.26-.31-5.86 1.42-5.86 1.86 0 .16 1.6 6.13 2 6.33s5.45-1.66 5.6-1.81a40 40 0 0 0 -1.74-6.35zm-3.11 6.66a15.48 15.48 0 0 1 -1.3-3.89c.08-.28 3.68-1.14 3.68-1.14a38.68 38.68 0 0 1 1.09 3.79 9.27 9.27 0 0 1 -3.47 1.24zm28.58-14.47c-.42-.26-21.77 6.08-22.15 6.75-.21.36 1.61 5.65 2.07 5.91s22-6.64 22.05-6.95-1.56-5.45-1.97-5.71zm-19.14 11c-.42-.31-1.3-3.52-1.3-3.52.16-.11 19.3-6.33 19.66-6a10.68 10.68 0 0 1 .94 3.42c-.06.34-18.86 6.46-19.3 6.15zm-3.63 6c-.47-.16-6.08 1.91-6.28 2.23s1.81 6.38 2.23 6.38a44.65 44.65 0 0 0 6.12-2.26c0-.21-1.61-6.12-2.07-6.28zm-3.32 7c-.26-.15-1.46-3.68-1.2-3.84a24.15 24.15 0 0 1 3.95-1.29 26 26 0 0 1 1.14 3.68 11.35 11.35 0 0 1 -3.89 1.52zm6.69-7.53c-.26.31 1.09 5.29 1.66 5.86s21.53-6.69 21.53-7-1-4.78-1.4-5-21.32 5.61-21.79 6.14zm2.49 4.25a14.81 14.81 0 0 1 -1-3.26c.26-.32 19.4-5.61 19.66-5.35a12 12 0 0 1 .73 2.39s-18.98 6.72-19.39 6.25z" fill="#1d1d1b"/></svg>