<svg height="64" viewBox="0 0 64 64" width="64" xmlns="http://www.w3.org/2000/svg"><path d="m31.29 15.23c-.31-.05-.62.1-1.34 1.49a6 6 0 0 0 -.41 3.28c.1.15 1.18 0 1.23-.46a11.14 11.14 0 0 1 0-1.76c.16-.82 1.09-1.75 1.14-2s-.31-.5-.62-.55zm27.14 3.92c.16-4.8-1-9.59-4.32-12.37s-7.57-5.4-14.27-4.78a15.9 15.9 0 0 0 -10.35 5.4 3 3 0 0 0 -1.49-.2c-.62.15-4.07 5.87-4.22 6.43s1.22 2.17 1.22 2.17a26 26 0 0 0 -.36 6.69c.16 4.84 2.94 7 2.94 7s-20.45 25.51-21.53 26.79-.15 3.86.62 4.53 2.47 1.81 3.91.93 23.75-28.07 23.75-28.07a40.88 40.88 0 0 0 6 .46 22.54 22.54 0 0 0 7.47-1.08 8.6 8.6 0 0 0 2.48.62c.61-.1 4.73-4.17 4.84-4.79a16 16 0 0 0 0-2.37 10.3 10.3 0 0 0 3.31-7.36zm-48.43 41.46c-.42.31-1.4 0-2-.52s-1.28-1.75-1-2.09 1.8 0 2.52.57.86 1.73.48 2.04zm1.54-1.7c-.15-.1-.62-1.7-1.65-2.16s-1.89-.83-1.89-.83 23.75-29.92 24.58-30.44 2.11-.15 3.09.82a3.18 3.18 0 0 1 1 2.58c-.13.26-25 30.12-25.16 30.03zm36.4-27.6a23.11 23.11 0 0 0 -1.22-3.82 1.14 1.14 0 0 0 -1.13.21 24 24 0 0 0 1.13 4c-.31.07-.64.13-1 .19a22.69 22.69 0 0 0 -1.42-4.12c-.26-.26-1.08 0-1.19.31a28.22 28.22 0 0 0 1.43 3.92c-.22 0-.45 0-.68 0h-.54a11.83 11.83 0 0 0 -1.47-3.61c-.41-.21-.93.36-1 .51s.75 2 1.19 3.09a46.18 46.18 0 0 1 -5.93-.51 28.38 28.38 0 0 0 2.22-3.45c.15-.62-1-2.06-2.58-3.25a4.8 4.8 0 0 0 -4.27-.67 35.75 35.75 0 0 0 -2.68 3.19s-2-2-1.86-6.49.41-5.66.67-6.07l.62-1s7.57.31 12.57 4.53 9 11.74 8.86 12a4.62 4.62 0 0 1 -1.75 1.04zm5.94-2.17c-.1.15-2.58 2.42-2.58 2.42a26 26 0 0 0 -9.22-13.81c-7.41-5.56-14.11-5-16.32-5.15-.16 0 2.26-4 2.73-4.12s9.47.83 15.09 5.46 9 9.07 9.94 11.69.48 3.37.33 3.51zm-.93-9.74c.48.76 1.55 2.67 2 3.49a10 10 0 0 1 -.74 1.11s-4.64-7.11-10-11.18a31.69 31.69 0 0 0 -12.31-5.2c.1-.21 9.37-7.52 19.26 0 4.79 3.61 5.66 7.58 5.29 10.71-.32-.52-.77-1.22-1.12-1.75-.56-.88-1.44-1.8-1.75-1.8s-.72 1-.72 1 .46.2 1.7 1.7a11 11 0 0 1 1.51 2.52 12.29 12.29 0 0 1 -.68 1.9 32.28 32.28 0 0 0 -2.78-4.65c-.31-.21-.87.16-1 .46a9.25 9.25 0 0 1 1.31 1.69zm-12.18-13.18a7.44 7.44 0 0 0 -3.25 1.23c-.36.31-.05.67.47.83s.56 0 1.69-.57a5.13 5.13 0 0 1 2.22-.26c.31-.1.31-.56.36-.77s-.1-.57-1.49-.46z" fill="#1d1d1b"/></svg>