<svg height="64" viewBox="0 0 64 64" width="64" xmlns="http://www.w3.org/2000/svg"><path d="m14.69 10.86c-.29.28-.14 15.41.21 16.48s.57.36 1.29.22 1.21-15.63 1.07-16.2-2.36-.71-2.57-.5zm21.48-.14c-.5 0-.15 1.14.28 1.64a4.28 4.28 0 0 0 1.82.39c0 1.34 0 4.21-.07 7.81-.79 0-1.43 0-1.53-.07-.36-.07 0 1.36.28 1.5a5.81 5.81 0 0 0 1.22.11c0 2.87-.09 6.1-.15 9.32a6 6 0 0 0 -1.57.06c-.28.29-.28 1.29.07 1.5a6.12 6.12 0 0 0 1.47.11c-.05 3-.09 6-.13 8.66a15.73 15.73 0 0 0 -1.76.08s-.1 1.17.14 1.17a14 14 0 0 0 1.6.05c-.05 3.09-.07 5.57-.06 6.85a12.57 12.57 0 0 0 -2 0 3.8 3.8 0 0 0 .07 1.5c.22.36 5.07.36 5.5.22s.35-1.22.28-1.43a9.74 9.74 0 0 0 -2.33-.19c.05-1.27.11-3.77.18-6.93a9.19 9.19 0 0 0 1.52-.07c.36-.14.21-.64.14-1 0-.13-.72-.2-1.58-.22.05-2.63.1-5.62.15-8.66h2.22a2.18 2.18 0 0 0 .23-1.12c0-.2-1.21-.36-2.48-.46 0-3.25.09-6.51.12-9.4a6.93 6.93 0 0 0 1.79-.14c.36-.21.14-.71-.14-1.07a4.18 4.18 0 0 0 -1.63-.28c0-3.6 0-6.47 0-7.78a12.34 12.34 0 0 0 2.61-.07c.43-.22.35-.79.43-1.29s-6.33-.79-6.69-.79zm25.76 4.42c-.14-3.35-1.79-3.78-2.57-3.78s-7.92-.22-7.92-.22a48.45 48.45 0 0 0 0-6.42c-.29-1-3.5-.93-14.7-.93s-33.25-.35-34.25-.07-.43 1.57.14 2.64 5.85 8.49 5.85 8.49-.57 35-.5 35.54a10.05 10.05 0 0 0 1.86 4.5c1.35 1.71 5.49 5.42 9.06 5.49s23.33-.38 24.47-.78a11.26 11.26 0 0 0 3.93-2.93 35.64 35.64 0 0 0 3.42-6.42c.5-1.57.36-30.76.36-30.76s2.93-.28 3.43.07.64 19.63.78 20.27a3.81 3.81 0 0 0 3.28 2.07 3.22 3.22 0 0 0 3.36-2.36c.21-1.21.14-21.05 0-24.4zm-13.42 33.75c-.28 2.07-2.71 6.71-4.78 7.85s-11.27 1.07-16.91 1.14a89.38 89.38 0 0 1 -9.71-.14c-.42-.14-6.13-3-6.49-7.21s.71-35.18.36-36.1-5.64-8.21-5.57-8.5 12.85-.14 25.69.07 18 .14 18.13.42-.43 40.4-.72 42.47zm11.28-9.56c-.36.36-2.22.43-2.14-.07s-.08-19.41-.5-20.41a4 4 0 0 0 -2.07-2.14c-.64-.14-3.21.43-3.57.07s-.14-3.14-.14-3.14 6.92-.14 7.56.14.93 2.14.86 5.21.35 20.01 0 20.34z" fill="#1d1d1b"/></svg>