<svg height="64" viewBox="0 0 64 64" width="64" xmlns="http://www.w3.org/2000/svg"><path d="m61.82 42.74a26.57 26.57 0 0 0 -3.82 0 6.57 6.57 0 0 0 -.41-3.55 3 3 0 0 0 -2.78-1.52s.85-3.46-1.4-4.86a6.4 6.4 0 0 0 -4.62-.76s-.79-2.74-2.79-3.73-4.72.58-4.72.58-.27-2-3-2.78a3.31 3.31 0 0 0 -3.91 1.34 8.41 8.41 0 0 0 -5.57-2.6 5.16 5.16 0 0 0 -4.76 3 4.29 4.29 0 0 0 -3.19-2 3.55 3.55 0 0 0 -3.19 1.39s-.85-.59-2.69 1.17-.5 4.53-.5 4.53l-1.8.36c-1.79.36-2.33 3.15-2.33 3.15s-2-1-2.65 2a5 5 0 0 0 1.8 4.85s-5.08.27-6.2.31-1.72 1.72-1.09 2.62 4.31 3.06 4.49 3.15a5.13 5.13 0 0 1 1.39 1.26c.9 1 3.87 3.46 5.44 3.37s33.33-.36 35.13-.45a5.8 5.8 0 0 0 3.87-1.49 10 10 0 0 0 2.6-3.59 9.83 9.83 0 0 0 2.74-1.21c2.16-1.17 3.69-2.07 4-2.74s.22-1.62-.04-1.8zm-11.06-9.74c1.53.18 3.91 1.58 3.42 3s-1.49 1.89-1.66 2.39-.59.85 0 .89.67 0 .9-.18 2.16-.8 3 .14.31 3.37 0 3.5-4.8 0-4.8 0a6.55 6.55 0 0 0 -.54-3.87c-1-1.57-3-1.52-3.51-1.52-.18 0-1.21-.68-1.17-1.22s.86-.71 1.13-1.39a3.37 3.37 0 0 1 3.23-1.74zm-6.87 6.7s1.08-2.29 2.16-1.89 1.79.86 2.2 1 1.75 0 2.11.9.36 3 0 3.05-7 0-7.18-.09c0 0 .89-1.52.8-2s-.09-.94-.09-.94zm-.58-10.47a3 3 0 0 1 3.63 1.08c1.08 1.35 1.31 1.89.9 2.29s-.9.54-1.26 1a5.71 5.71 0 0 1 -.49.58s-1.48-1.84-2.34-2-1.75-.27-1.75-.27-.13-2.25 1.31-2.65zm-1.31 3.77c.72 0 .81-.36 1.3.23s.67 1.21 1.3 1.44 1 .22 1 .67a4.09 4.09 0 0 1 -.18 1.71c-.18.22-.59.18-1.26.81a5.19 5.19 0 0 0 -1 1.21 5.67 5.67 0 0 0 -2.7-1.89l-1.93-.45c-.09-.27-.72-2.51-.45-3.19s2-1.39 2.52-1.07a2 2 0 0 0 1.4.53zm.54 8.72c-.5.63-.63 1.12-1.31 1.17s-5.66-.23-5.66-.23-1.52-1.61-.85-2.83 2.83-1.48 3.91-1.66a5.1 5.1 0 0 1 3.46.94 2.18 2.18 0 0 1 .41 2.64zm-6.29-14.66a3 3 0 0 1 3.51 1.71c.49.94.76.76.94 1.12s.4.4.31.72.18.81-.18.9a3.35 3.35 0 0 0 -2.2.36 14.18 14.18 0 0 0 -1.57 1.21 6.32 6.32 0 0 0 -2-1.53c-.06-.04-.88-4.09 1.19-4.49zm.41 7.19a4.87 4.87 0 0 1 .71 2.06 2.63 2.63 0 0 1 -.44 1.26c-.14.09-2.66.54-3.19 2.2s1 3.1.44 3.28-4.67.27-4.67 0 1.4-1.75.36-3.37a21.26 21.26 0 0 0 -1.93-2.6 2.19 2.19 0 0 1 -.27-2.56c.67-1.22 1.75-1.62 2.38-1.35s.81.58 1.39.31a5.28 5.28 0 0 1 2.56-.76 4 4 0 0 1 2.66 1.53zm-8.54 9c-.36.05-7.55-.13-7.55-.13-.27 0-.76-.59-.81-1.62s1.85-3.46 2.92-3.55.77.54 2 .5 1.75-.54 2.25-.27 2.38 1.39 2.2 2.65-.72 1.57-.77 2 .12.36-.24.4zm-.4-16.84a5.77 5.77 0 0 1 5.57 1.39c.76.9.63.76.72 1s.09 2.07.17 2.43-1 .18-1.93.4-1.08.63-1.3.68-.45-.32-1.17-.23-.85.18-.85 0-.41-2-1.8-2.39a4.55 4.55 0 0 0 -2.13-.07c-.16-.62.11-2.56 2.72-3.23zm-3.37 4.29c3.19.13 3.95 1.3 3.86 1.75s-.81.81-1.21 1.55-.05 2.83-.32 2.92a8.31 8.31 0 0 1 -2.83.14 3.58 3.58 0 0 1 -.72-.41 3.88 3.88 0 0 0 -1.52-2.11c-1.35-.81-1.8-1.17-1.58-1.62a4.25 4.25 0 0 1 4.32-2.22zm-8.54-1.7a24.42 24.42 0 0 1 3.19-1.54c.76-.45 1-.54 2.38-.13s2.34 1.35 2.25 1.75-.32.63-1 .72a5.16 5.16 0 0 0 -2.43.72c-.9.58-.94 1.53-1.3 1.66a9.74 9.74 0 0 1 -2.79.27c-.24-.12-.94.09-1.07-.4a2.52 2.52 0 0 1 .77-3.05zm-7 10.06c.27-1.48 1-1.71 1.48-1.66s1 .13 1.12-.18.18-2.34 1.21-2.74 2.25 0 3-.54a2.76 2.76 0 0 1 3-.59 7.93 7.93 0 0 1 3.19 3.28c.05.45-.09.54-.31.68a5.13 5.13 0 0 0 -2.7 2.51c-.63 1.67.13 3 0 3.24s-8 .09-8 .09-2.22-2.57-1.95-4.05zm46.59 7.41a7.49 7.49 0 0 1 -2 .77c-.72.13-17.7.22-17.92.49s-.5.67-.14.76 17.48-.31 17.57 0c0 .12-.31.63-.81 1.17a2.94 2.94 0 0 0 -1.26-.9.93.93 0 0 0 -.9.45c0 .15.68.91 1.14 1.39a2.58 2.58 0 0 1 -1.09.54h-.12a6.76 6.76 0 0 0 -1.27-1.67 1.28 1.28 0 0 0 -1.4 0c-.1.17.75 1.19 1.27 1.73-2.64.13-8.38.24-18.29.38-12.72.18-16.36-.18-17-.22s-3.35-2.36-2.99-2.36 12.31-.11 12.81-.2.68-.72.45-.8-13.97.13-14.45 0-3.86-2-3.77-2.39 15.72-.49 30.23-.49 23.05-.4 22.87-.09a15.11 15.11 0 0 1 -2.89 1.48zm-31.28-23.72c.5.45 1.21.22 1-.86s-1.12-.89-1.9-1.79-.13-1.94.59-2.83a7.87 7.87 0 0 0 1.75-4.14c.18-1.84-.63-3.1-1.08-3.14s-.49.22-.49.76a17 17 0 0 1 .4 2.88c.05 1.88-2.6 3-2.92 5.12s2.31 3.68 2.65 4zm7.46-2.92a1 1 0 0 1 -.41 1.75c-.62.22-.08 1.17.32 1.17a2.21 2.21 0 0 0 .63-4c-.59-.41.18-2-.14-2.29s-.85-.27-1.25.85a2.18 2.18 0 0 0 .85 2.52zm8.54 1.79c-1.13 1.49.26 3.06.8 3.55a1 1 0 0 0 1.44-.36c.14-.36-.58-.94-1.12-1.66s.27-1.21 1-2a5.81 5.81 0 0 0 1.08-4.31 5.48 5.48 0 0 0 -2.88-4c-.4 0-.45.59-.36 1.08s1.35 1.3 2.07 2.65a2.74 2.74 0 0 1 -.5 3.33 7.27 7.27 0 0 0 -1.53 1.72zm-27.68 18.87c.45.27 1.21-.58 1.08-1a1 1 0 0 0 -1.26-.5c-.81.6-.26 1.23.18 1.5zm4.27-4c.22-.45.67-.32.72-.81s-.88-.66-1.17-.4c-.72.62-.76 1.43-.41 1.75s.63-.03.86-.49zm1.93-6.43c.45.23.85-.36.85-.76s-.71-.41-1 0a.48.48 0 0 0 .15.81zm5.71 4.36c.45-.13.89-.81.54-1.26a1 1 0 0 0 -1.35 0c-.32.77.36 1.45.81 1.31zm-.72 5.93c-.63.27 0 1.13.13 1.22a2 2 0 0 0 1.26 0c.54-.18.58-.54.4-1s-1.57-.26-1.79-.17zm8.37-5.56c-.58.54.18 1.25.77 1.34s1.21-.53.94-1-1.71-.34-1.71-.34zm-.85-5.53c.54-.13.49-.67 0-1.08a1 1 0 0 0 -1.21.05c-.27.13-.23.72 0 1.08s.65.09 1.19-.05zm5.57.14c.72.22.63-.41.54-.81s-.45-.38-.72-.27a.6.6 0 0 0 .16 1.08zm1.39 1.66c.59.36 1.26-.41 1-.86s-.86-.63-1.08-.45c-.57.5-.52.95.06 1.31zm7 .85a.76.76 0 0 0 .85-1.08 1 1 0 0 0 -1.3-.22c-.73.45-.5 1.21.4 1.3zm-2.61 3.28a.7.7 0 0 0 -1.12-.36c-.27.27-.23.63.18.94s1.07-.13.89-.58zm8.18-.09c-.18-.45-.74-.75-1.12-.36s-.23.63.17.95 1.08-.14.9-.59zm3.46 5.84a.7.7 0 0 0 -1.14-.36c-.27.27-.22.63.18 1s1.09-.19.91-.64zm1.86-.58c-.18-.45-.74-.75-1.12-.36s-.23.63.18.94 1.14-.13.94-.58zm-8.36.76a.7.7 0 0 0 -1.12-.36c-.27.27-.22.63.18 1s1.14-.19.96-.64zm-11.59-.63c-.27.27-.22.63.18.95s1.12-.14 1-.59a.7.7 0 0 0 -1.16-.36z" fill="#1d1d1b"/></svg>