<svg height="64" viewBox="0 0 64 64" width="64" xmlns="http://www.w3.org/2000/svg"><path d="m51.2 14.46c-.05-.72-.05-.45-1.08-2s-4.19-6.22-4.19-6.22a24.6 24.6 0 0 0 0-3.06 7.34 7.34 0 0 0 -2.12-1.26c-.23 0-2.21.09-11.71 1.21s-13.64 1.87-13.77 2.14a24 24 0 0 0 -.18 3.2c0 .31-4.24 2.61-4.28 3 0 0 .09.76.09 4.54a163.7 163.7 0 0 1 -.68 16.8c-.67 6.57-.45 18.51-.45 18.91a.85.85 0 0 0 .36.77 21.41 21.41 0 0 1 3 2.11c2.29 1.9 7.83 7.21 9 7.39s3.33 0 10.67-1.85 10.54-3 12.29-3.46a3.16 3.16 0 0 0 2.48-2.35c.18-.72.09-3.06.13-10.44s.48-28.71.44-29.43zm-31.52-4.46c.18.13 4 5.85 3.65 5.81s-6.31-4-6.44-4.05 2.61-1.9 2.79-1.76zm5.18 49.49c-.36 0-3.52-3.65-6.31-5.63s-3.33-2-3.55-2.79a164.06 164.06 0 0 1 .36-17.83c.45-2.66.54-11 .63-15.32s-.18-5-.05-5.08c.49-.17 5.09 2.56 6.49 3.42s1.84.94 2 1.44.45 19.68.59 29.67.2 12.12-.16 12.12zm24.14-26.8v9.21a9 9 0 0 0 -1.31-.9c-.27-.13-.59.41-.63.63s1.35 1.13 1.91 1.5v2.23a13.89 13.89 0 0 0 -2.63-2.15.47.47 0 0 0 -.45.67 38.82 38.82 0 0 0 3.08 3c.03 1.12.03 2.21.03 3.12-1-1.21-3.07-3.38-3.38-3.38s-.31.68-.09 1 2.43 2.8 3.43 3.92a13.3 13.3 0 0 1 -.2 2.6 28.07 28.07 0 0 0 -3.9-4.76c-.41-.14-.81.49-.81.81a47.29 47.29 0 0 0 3.65 4.48l-1.37.48a29.38 29.38 0 0 0 -3.32-4c-.36-.18-.86.4-.81.76a34.34 34.34 0 0 0 3.08 3.56l-1.28.53a12.11 12.11 0 0 0 -2.76-3c-.5-.09-.59.5-.5 1a13.16 13.16 0 0 0 2 2.39c-1.66.49-3.54 1-5.53 1.53-6 1.53-7.61 2.07-9 2.16s-2.25 0-2.34-.27c0 0 .18-6.13.23-12.39s-.27-22.06-.45-26.29-.5-4.82-1.17-5.72-3.29-4.87-3.65-5.59-.83-2.82-.39-3.15 9.37-1 13.74-1.53 9.54-1.22 9.73-.86 0 2.61.22 3 4.87 6.72 4.87 7.27.08 9.63 0 18.14zm-29.73 17.79c-.31-.13-.81.34-.58.68a34 34 0 0 0 3.38 3.42c.4.18.49-.14.67-.41s-3.15-3.55-3.47-3.69zm1-2.52c-.54-.23-.87.46-.63.77a47.11 47.11 0 0 0 3.56 3.82.48.48 0 0 0 .63-.4 26.57 26.57 0 0 0 -3.57-4.15zm1.27-2.3c-.46-.09-1 .52-.82.81a17.67 17.67 0 0 0 2.53 2.39.53.53 0 0 0 .67-.31 9.31 9.31 0 0 0 -2.39-2.89zm7.52-20.85a25.86 25.86 0 0 0 0-4.23c-.13-.49-.68-.18-.9.05s0 3.69 0 3.87c.07 0 .84.72.89.31zm4.81 5.77c-.31 0-2 2.79-2.25 2.88s-1.75-1.26-1.89-1.4a.54.54 0 0 0 -.72.14c-.23.27.05 5.94 0 6.12 0 0 .95.23 1.13 0a23.24 23.24 0 0 0 0-3.92c-.05-.49 1.26.63 1.62.68s1.53-1.8 1.66-2 .09 4.23.14 4.54.76-.09 1-.13 0-6.67 0-6.94-.38-.02-.7.03zm2.21.67v6.17s1 .09 1 0a59.43 59.43 0 0 0 -.22-6.26c-.07-.16-.79-.11-.79.09zm3.15 4.24v-4.78s-.87 0-.94.23a41.71 41.71 0 0 0 0 5.81 5.51 5.51 0 0 0 2.47-.41c.32-.22.09-1.12.09-1.12zm4.23-2.34c-.13-.1 1.63-2.26 1.72-2.62s-.81-.27-1-.27l-1.61 1.74c0-1.17-.09-2.18-.11-2.29 0-.27-.72 0-.85.09v6.2c0 .18.85 0 1 0a11.18 11.18 0 0 0 0-1.86c.59.54 1.76 1.5 2 1.68s.9-.14 1-.23a18.34 18.34 0 0 0 -2.16-2.44zm-3.16-19.23c.09-.23-.09-3.65-.13-4s-1.58-3.21-6.17-2.92-5.45 2.48-5.5 2.7.07 3.8.14 4.06c.32 1.12 2 2.7 6.48 2.61s5.09-2.23 5.18-2.45zm-6.12-6.13c3.69-.13 5.22 2.16 5.18 2.57s-1 2.12-4.91 2-4.77-1.67-4.77-2c0-.54.81-2.43 4.5-2.57zm5.36 6c-.09.27-1.76 1.71-5 1.67s-4.91-1.53-5-1.8a3.78 3.78 0 0 1 .09-1.66 10.14 10.14 0 0 0 5 1.44c2.75-.05 4.73-1.4 4.78-1.17a5.54 5.54 0 0 1 .13 1.51z" fill="#1d1d1b"/></svg>