<svg height="64" viewBox="0 0 64 64" width="64" xmlns="http://www.w3.org/2000/svg"><path d="m15.59 23.14c.71 0 1-.61.75-.94a.73.73 0 0 0 -1.17-.14.63.63 0 0 0 .42 1.08zm.66 1.51a.74.74 0 0 0 -1.18-.14c-.28.28-.28 1.08.42 1.08s.99-.59.76-.94zm2.75-1.74c.7 0 1-.61.75-.94a.74.74 0 0 0 -1.18-.15c-.25.29-.25 1.09.43 1.09zm3.77-1c.7 0 1-.61.75-.94a.74.74 0 0 0 -1.18-.14c-.25.24-.25 1.04.46 1.04zm5.23-.27c.7 0 1-.62.75-.95a.74.74 0 0 0 -1.18-.14c-.3.29-.3 1.09.43 1.09zm4.71.33c.7 0 1-.62.75-.95a.74.74 0 0 0 -1.18-.14c-.28.29-.28 1.12.41 1.12zm4.94.28c.71 0 1-.61.76-.94a.74.74 0 0 0 -1.18-.14c-.3.28-.3 1.08.4 1.08zm3.86.09c.71 0 1-.61.76-.94a.74.74 0 0 0 -1.18-.14c-.3.28-.3 1.08.4 1.08zm2 2.36c.71 0 1-.61.76-.94a.74.74 0 0 0 -1.18-.15c-.32.29-.32 1.09.38 1.09zm2.88-1.46c.7 0 1-.61.75-.94a.74.74 0 0 0 -1.18-.15c-.32.29-.32 1.09.39 1.09zm-.24 3.11c.71 0 1-.62.75-1a.73.73 0 0 0 -1.17-.14c-.33.34-.33 1.14.38 1.14zm2.64-1.35c.71 0 1-.61.76-.94a.74.74 0 0 0 -1.18-.14c-.28.26-.28 1.08.42 1.08zm2.45 1.93c.71 0 1-.61.76-.94a.74.74 0 0 0 -1.18-.14c-.28.26-.28 1.06.42 1.06zm-.14 4.38a6.46 6.46 0 0 0 3.44-1.51c1.55-1.36 3.91-5.18 3.11-10.92a19.65 19.65 0 0 0 -11.16-14.34c-5.7-2.4-14.13-3.39-22-1.89s-13.89 5.56-16.01 8.48-3.25 7.59-1.27 11.59 7.48 7.72 7.48 7.72-3.2 13.62-3.34 18.7 2 8.25 6.69 10.74 9.42 2.22 16.58 2.12 11.63.1 16.39-3.48 5.74-10.13 4.9-13.52-4.81-13.71-4.81-13.71zm-16.81-25.59c3.67.14 4.8.8 4.66 2.07s-1.55 2-5.37 2.07-4.33-.38-4.66-1.55c-.18-.64 1.69-2.73 5.37-2.59zm-22.56 17.8c.51-1.88 3.91-3.77 13.09-4s19 .09 23.36 1.88 5.61 4 5.09 5.18a4.07 4.07 0 0 1 -2.83 2.07c-.52 0-.56-1.36-1.32-1.5a9.85 9.85 0 0 1 -5-.89 24.6 24.6 0 0 0 -5.7-2.6 29.62 29.62 0 0 0 -11-.85 19.7 19.7 0 0 0 -8 2.12c-2 1-3.44 3.25-3.77 3.3-.06 0-4.44-2.83-3.92-4.71zm36.59 23.88a53.85 53.85 0 0 0 5 2.33 10.92 10.92 0 0 1 -.31 1.9 40.28 40.28 0 0 0 -5.43-2.86 1.1 1.1 0 0 0 -.85 1c0 .43 4.25 2.59 5.72 3.33a8.81 8.81 0 0 1 -1 1.53 52.2 52.2 0 0 0 -5.45-3.51c-.28 0-1.08.47-1 .8a57.72 57.72 0 0 0 5.56 3.9 11.15 11.15 0 0 1 -1.27 1 50.88 50.88 0 0 0 -6.08-4.22c-.37 0-.89.61-.75.94s4.32 3.31 5.46 4.13a14.47 14.47 0 0 1 -1.46.65 61.43 61.43 0 0 0 -5.65-4.12c-.19 0-.94.38-.94.8s3.52 2.93 4.83 3.89a21 21 0 0 1 -2.7.51 42 42 0 0 0 -4.46-3.66.8.8 0 0 0 -1.13.56c-.08.36 2.71 2.56 3.62 3.27-3 .14-6-.11-8.38-.16-4.95-.09-9.37-.52-12.72-2s-4.8-5.14-4.94-8.58 2.07-14.83 3.01-17.54 3.82-5.32 8.81-5.93 9.14-.47 12 .61 4 1.87 5.18 2.35l4.57 1.68c.44 1.17 1.21 3.09 2 5.22a9.29 9.29 0 0 0 -2.31-.53c-.24.1-.14.85.28 1.32a7.26 7.26 0 0 0 2.63.74c.25.66.5 1.32.74 2a10.85 10.85 0 0 0 -2.72-.75c-.28.09-.28.56.1 1a11.47 11.47 0 0 0 3.19 1.13c.2.55.38 1.09.55 1.6a21 21 0 0 0 -3.51-.89c-.33.09-.23.66-.09.94a24.63 24.63 0 0 0 4 1.15c.1.32.19.63.27.92l.21.86a40.22 40.22 0 0 0 -4.55-1.28c-.18 0-.09 1.13 0 1.37a45.82 45.82 0 0 0 4.82 1.57c.09.54.14 1.08.18 1.61a28 28 0 0 0 -4.76-1.72c-.31.1-.45.86-.27 1.14zm-28.4 1.88c-.89-1.13-.94-1.6-.47-6.4s1.55-9.88 1.41-10.13-1.32 0-1.36.19c-.38 1.65-2 15.35-1.56 16.3a5.47 5.47 0 0 0 3.25 2.21c.71-.05.24-.09.29-.47s-.66-.57-1.56-1.7z" fill="#1d1d1b"/></svg>