<svg height="64" viewBox="0 0 64 64" width="64" xmlns="http://www.w3.org/2000/svg"><path d="m47.92 36.68c-.23-5.16-1.23-6.75-4.47-13.85s-6.1-10.47-7.56-13.32-3.24-3.28-3.89-2.89-1.14 1.69-1.53 3.83a8.2 8.2 0 0 1 -2 6.13c-6.27 7.94-10.28 11.09-12.23 21.23-.83 4.37.52 10.93 2.73 13.85s6.12 6 11.05 5.83 9.47-1.36 13.39-6.94 4.74-8.72 4.51-13.87zm-2.29 3.12a17.55 17.55 0 0 1 -.36 2.25 28.6 28.6 0 0 0 -3.27-4.05c-.32 0-.55.42-.55.68s2.67 3.46 3.57 4.54c-.12.43-.24.86-.39 1.3-.06.17-.12.33-.19.49-.68-1.01-3.12-4.12-3.44-4.12s-.48.62-.48.81 2.7 3.8 3.33 4.65c-.17.37-.35.71-.53 1a47.07 47.07 0 0 0 -3.57-4.35c-.23-.07-.49.62-.45.81s2.76 3.58 3.48 4.48a11.34 11.34 0 0 1 -.8 1.09 38.15 38.15 0 0 0 -3-3.79c-.23-.06-.65.42-.68.62s2.3 3.17 3 4a11.13 11.13 0 0 1 -.95.87 27.14 27.14 0 0 0 -3.05-4.31c-.36-.09-.71.65-.68.85s2.12 3.13 2.84 4.16c-.43.3-.88.59-1.34.86a25.44 25.44 0 0 0 -2.73-4 1.31 1.31 0 0 0 -.94.52c0 .13 1.9 3.06 2.62 4.14l-.74.4-.35.16c-.5-1.11-2.41-4.06-2.76-4.09a1 1 0 0 0 -.91.68c0 .22 1.78 3.06 2.35 4a11.85 11.85 0 0 1 -1.2.35 18.52 18.52 0 0 0 -2.25-3.51c-.3-.13-.69.2-.78.49a18.67 18.67 0 0 0 2.13 3.21 11.66 11.66 0 0 1 -8.56-1.84c-3.82-2.6-5.71-8.09-5.51-13.49.36-9.71 5-13.3 12.39-22.69 2.73-3.49 1.75-5.35 1.71-8 0-.28.39-.19.49-.13s1.61 4.16 2.78 6.16 5.51 8.43 7.84 14.14a22.68 22.68 0 0 1 2 9.51 29.13 29.13 0 0 0 -2.49-3.06c-.13.06-.59.32-.59.65a31.28 31.28 0 0 0 3.01 3.56zm-19.14-11.29a11.19 11.19 0 0 0 -4.35 5.67c-.58 1.78-.32 7.26-.25 7.36s1 .13 1 0-.32-4.83.46-7.49 3.73-4.41 3.82-4.6-.46-1.08-.68-.94z" fill="#1d1d1b"/></svg>