<svg height="64" viewBox="0 0 64 64" width="64" xmlns="http://www.w3.org/2000/svg"><path d="m59.23 7.63c-.16-4.43-2.96-5.63-3.7-5.63s-1.06-.05-7.76 0-33.11.16-38.28.27-4.81 3.8-4.7 7.18c0 0 .15 41.19.15 43.72s.43 3.22 1.43 4.49a3 3 0 0 0 2.63 1.04 13.44 13.44 0 0 0 1.32 2.9c.42.32 6.65.11 7.23 0s2.17-3 2.17-3l23.81.06s1.48 2.9 2 3.22 6 0 6.65-.06 2.91-2.79 2.91-2.79 1.21 0 1.84 0a2.1 2.1 0 0 0 2-2c.14-1.45.46-44.96.3-49.4zm-42.35 52.65a54 54 0 0 1 -6 0c-.26-.11-.42-1.53-.42-1.53h7.76s-.92 1.42-1.34 1.53zm34.9.26c-.37.11-5 .06-5.44 0s-1-1.74-1-1.74l8.13.05s-1.32 1.59-1.69 1.69zm4.9-13.08a1.93 1.93 0 0 0 -.94-.38c-.42 0-.63.58-.53 1a8.54 8.54 0 0 0 1.44 1.53q0 1.09 0 2a10.32 10.32 0 0 0 -1.93-1.88c-.32 0-.9.84-.8 1.16a37.91 37.91 0 0 0 2.68 2.73 18.25 18.25 0 0 1 -.14 2.6 1.38 1.38 0 0 1 -.3 0 33 33 0 0 0 -3.74-4.22c-.43-.16-1.11.1-1.11.42a37.7 37.7 0 0 0 3 3.86h-1.5a41.42 41.42 0 0 0 -2.76-3.67c-.26-.31-1.32.16-1.37.43a26 26 0 0 0 2.41 3.25h-2a17 17 0 0 0 -1.77-3.12 1 1 0 0 0 -1.27.11c-.21.29 1 2.21 1.51 3h-2.12a16.84 16.84 0 0 0 -1.95-3 1.11 1.11 0 0 0 -1.16.26 16 16 0 0 0 1.67 2.81l-16.21.07c-10 .06-16.53-.05-17.75 0a2.44 2.44 0 0 1 -2.37-2.58c-.14-1.64-.19-45.73-.19-45.73 0-1.32-.16-3.22 1.16-3.33s20.22 0 30.05-.26 14.83-.16 15.68.05 2.32.53 2.43 4.54c.07 2.89.04 25.53-.12 38.35zm-45.35-40.46c-.15-.32-1.26 0-1.26.21s-.37 5.18 0 5.65.9.11 1.11 0a30.26 30.26 0 0 0 .15-5.86zm6.87 5.91c2.69-.26 3.32-1.95 3.43-3.06a3.16 3.16 0 0 0 -3.63-3.32 3.25 3.25 0 0 0 -3.29 3.37 2.9 2.9 0 0 0 3.49 3.01zm-.11-5.11a1.91 1.91 0 0 1 2.16 2 2 2 0 0 1 -2.06 1.84 1.75 1.75 0 0 1 -2.1-1.81 2 2 0 0 1 2-2.03zm7.5 5.48c.85.11 12.36 0 13.2-.21s1.64-.42 1.74-1.05a21.92 21.92 0 0 0 .11-3.81c-.11-.68-.37-1.47-1.53-1.42s-11.3 0-13 0-2 .84-2 1.9c0 0-.05 2.75-.05 3.22a1.73 1.73 0 0 0 1.53 1.37zm.21-5c.47-.35 13.2-.11 13.36.21s.32 3.33 0 3.54-13.16-.12-13.36-.28a9.69 9.69 0 0 1 0-3.48zm21.39 4.72a3.38 3.38 0 0 0 3.48-3c0-.74-.42-2.75-3.32-2.8s-3.49 1.7-3.49 2.8a3.35 3.35 0 0 0 3.33 3zm.37-4.7a1.84 1.84 0 0 1 1.69 2.43 2 2 0 0 1 -2.38 1.16 1.86 1.86 0 0 1 -1.74-1.89c-.08-.78.53-1.94 2.43-1.73zm4.33 15.7a16.65 16.65 0 0 0 0-2.59c-.11-1.74-.9-2.8-1.8-2.85s-31.1.16-32 .32-2.53.1-3.8.9-1.21 4.54-1.21 4.54c-1.06.05-2.17 1.95-2.06 2.9s2.21.69 2.21.69.27 19 .59 21 2.64 1.69 9.08 1.64 24.82-.58 26.77-.69a2.09 2.09 0 0 0 2.22-2.22c0-.79.37-20.11.37-20.11s1.79 0 1.74-1.64-2.11-1.89-2.11-1.89zm-1.27 23.18c-.26 1-.53 1.43-1.21 1.48s-18.49.37-24.14.53-9.66.26-10-.69-.58-20.69-.58-20.69 13.89-.37 22.65-.37 13.47 0 13.47 0 .07 18.74-.19 19.74zm.26-22.38s-12.62.36-21.91.36-14.26.06-14.26.06-.26-3.8.53-4.44 10.77-.9 20.38-1 14.05-.42 14.68.16.58 4.86.58 4.86zm-5.22 17.2c.74-1.48 2.53-6.13-.8-9s-8-.53-8-.53a6.51 6.51 0 0 0 -5.12-1.79 6.64 6.64 0 0 0 -5 2.21 17.55 17.55 0 0 0 -4.22-.58 5.93 5.93 0 0 0 -5.39 5.44c-.21 3.59 1.74 4.38 1.74 4.38a24 24 0 0 0 -2.48.22c-.26.1-.26 1.53 0 1.79s32.37-.1 32.53-.21a3.69 3.69 0 0 0 0-1.74c-.04-.34-3.26-.19-3.26-.19zm-.21-3c-.59 2.16-1.64 3.33-1.91 3.33l-22.65-.16s-2.59-1.69-2.64-3.75a4.9 4.9 0 0 1 5.18-5c3.48.26 4.54 2.95 4.91 2.95s.74-.16.74-.42a2.47 2.47 0 0 0 -.74-1.48 3.86 3.86 0 0 1 -.64-.79 7.8 7.8 0 0 1 5-1.74c2.95.05 4.91 4.06 5.22 4.22s1-.32 1-.53a3.63 3.63 0 0 0 -.74-1.58l-.42-.58s3.06-1.48 5.12-.32a5.31 5.31 0 0 1 2.57 5.85zm-22.82-3.38c-.47-.32-1.16.05-1.58.84a2.86 2.86 0 0 0 -.11 2.17c.11.26.74.53.9.21s-.1-.79 0-1.27.58-.47 1-.84.27-.79-.21-1.11zm2.27 1.48a.91.91 0 0 0 .22 1.42c.63.43 1.58-.21 1.42-.79s-1.28-1.04-1.64-.63zm8.72-1.53a.92.92 0 0 0 -1.43-.57c-.32.37-.37 1.16.11 1.42s1.42-.17 1.32-.85zm-4.23 3.54c-.31.36-.37 1.16.11 1.42s1.42-.21 1.32-.9a.92.92 0 0 0 -1.43-.52zm3.43-1.06c-.31.37-.36 1.16.11 1.42s1.43-.21 1.32-.89a.92.92 0 0 0 -1.43-.53zm5.55-.21c-.32.37-.37 1.16.1 1.42s1.43-.21 1.32-.89a.91.91 0 0 0 -1.42-.53zm4.63-2.11a.91.91 0 0 0 -1.42-.53c-.32.37-.37 1.16.1 1.42s1.39-.21 1.32-.89zm-.16 2.06c-.31.36-.36 1.16.11 1.42s1.43-.21 1.32-.9a.92.92 0 0 0 -1.47-.52z" fill="#1d1d1b"/></svg>