<svg height="64" viewBox="0 0 64 64" width="64" xmlns="http://www.w3.org/2000/svg"><path d="m5.13 24.67a11.31 11.31 0 0 1 4-2.16s.22-.72 0-.84-1.18-.05-4 1.56-3.13 3.42-3.13 3.42c-.17.43.76.47 1 .38a26.58 26.58 0 0 1 2.13-2.36zm7.4 25.91a43 43 0 0 1 -5.71-3.85c-.21 0-.53.5-.42.64a14.53 14.53 0 0 0 1.77 1.73 30 30 0 0 0 6.47 3.59c3.85 1.69 4.27 1.86 4.4 1.73a1.94 1.94 0 0 0 .38-.63c.08-.25-3.26-1.27-6.89-3.21zm23.71-8.16a2.21 2.21 0 0 0 1.06-.25c.38-.17.16-.38-.17-.55a7.18 7.18 0 0 0 -1.91 0c-.17 0-.25.42 0 .63s.55.17 1.02.17zm22.23 6.76a65.63 65.63 0 0 0 -9.34-3 4 4 0 0 0 -.21-1.18c-.17-.3-1.82-.64-1.82-.64a5.69 5.69 0 0 0 .42-.88c0-.21-.33-2.2-2.83-4.91s-6.13-5.7-14.45-9.57-13.32-4.14-18.73-3.89-7.12 3-7 3.51-.25 10.19 0 10.65 1.36 2.07 4.82 4.61 7.65 4.56 16.15 7.48 13.4 2.2 13.82 2.11 3.55-3.8 3.55-3.8a24.91 24.91 0 0 0 2.58 1.23 6.75 6.75 0 0 0 .89-.64s7.68 5.22 10.68 5.9 4.69-.59 5-2.41-.27-3.05-3.53-4.57zm-37.03-21.18c9.51 2.24 14.29 4.95 19 9.6s5 5.41 4.77 5.83a3.8 3.8 0 0 1 -.72.81l-3.22-.24c-.76-.05-2.62-.38-2.62-.38a2.73 2.73 0 0 0 1.22-3.13c-.72-2-1.35-2-2-2a6.43 6.43 0 0 0 -1.4 0s-.34-1.35-1.18-1.65a3.51 3.51 0 0 0 -1.82 0 2.5 2.5 0 0 0 -1.69-1.73 4.13 4.13 0 0 0 -2.71 0c-.12.08-.67-1.31-2-1.74a7.49 7.49 0 0 0 -2.66-.29s.25-1.78-2.63-2.37-3.67 0-4 .3-.34 1.18-.51 1.18a.91.91 0 0 1 -.33-.08s.29-1.36-.85-1.69a4 4 0 0 0 -3.34.33c-1.06.64-1.35 1.31-1.22 1.78a3.63 3.63 0 0 1 .08 1s-4.82-2.66-5.11-4.77c.03-.25 5.43-3.04 14.94-.76zm5.29 9.77a3.28 3.28 0 0 1 -.59-.59 7 7 0 0 0 1.6-.17c.51-.17.89-1 1.06-.89a.63.63 0 0 1 .25.34 1.93 1.93 0 0 1 -.42.55.8.8 0 0 0 -.46.93c.16.5.29.55.46.59a5.21 5.21 0 0 0 .8 0s-.21-.76.43-.76.8.51 1 .46.17-.59.47-.5.71.29.67.46-.13.59-.25.59a1.52 1.52 0 0 0 -1.23 0 4.11 4.11 0 0 0 -1.1.93 1.79 1.79 0 0 0 -1.22-1 9.69 9.69 0 0 0 -1.31-.13s.11-.64-.16-.85zm-5.24.72a10.62 10.62 0 0 1 -1.23-.51l-.38-.3a2.27 2.27 0 0 0 .42-3 7.93 7.93 0 0 0 -1.81-2.4s-.17-1 2.15-.72 2.66 1.31 2.66 1.44-.21.22-.21.22a3.26 3.26 0 0 0 -1.43.29 1.5 1.5 0 0 0 -.72 2 3.25 3.25 0 0 0 1 1.22c.17.09.21.09.13.3s-.3.21-.47.63a1.48 1.48 0 0 0 -.11.79zm-6.6-4.57a5.16 5.16 0 0 0 -.59.21c-.42-.08-2-1.1-1.94-1.73s1.05-1.27 2.32-1.23 1.86.68 1.9.93-.25.51-.25.51a2.12 2.12 0 0 0 -1.1.64c-.34.42.09.5-.34.63zm2.12-.8a2.34 2.34 0 0 1 2.36 1.65 9.94 9.94 0 0 1 -.08 2.74 12.55 12.55 0 0 1 -3.47-2.11c-.2-.26.18-2.24 1.18-2.32zm5.91 1c.84-.2 3.72 0 4.4.59s.51 1.06.3 1.23a5.13 5.13 0 0 1 -2.16.25 25.83 25.83 0 0 1 -3.25-.29c-.55-.24-1.06-1.38.71-1.81zm1.4 3.43c1.82.33 2.07 1.6 2.07 1.94a3.29 3.29 0 0 1 -.25.93 39.17 39.17 0 0 1 -3.89-1.69c-.12-.1.25-1.55 2.07-1.21zm5.75-1.86a2.09 2.09 0 0 1 2 .46c.46.51.63 1 .42 1.14s-.09.34-.38.13-.38-.68-.89-.76a1.68 1.68 0 0 0 -.84 0c-.22 0-.43.17-.64 0a.56.56 0 0 1 .33-1zm-2.41 4.05c.84 0 1.86 1.23 2.24 1.32s.59 0 .59-.09-.3-1.44 1.35-1.39a2.67 2.67 0 0 1 2.16 1.42c.17 0 .59-.29.59-.5a1.61 1.61 0 0 0 -.59-1.33 8.34 8.34 0 0 0 -1.19-.85 1 1 0 0 1 1.48-.76c1.27.55 1.36 1.82 1.74 1.94s1.14-.08 1.77.13a1.71 1.71 0 0 1 1.14 2.16 2.1 2.1 0 0 1 -2 1.56c-.26 0-2.29-.51-5.33-1.35a18.6 18.6 0 0 1 -4.14-1.52s-.66-.81.19-.77zm11.54 11.73a4.75 4.75 0 0 1 -1.17.15 35.12 35.12 0 0 0 1.63-3.37c0-.21-.59-.21-1-.12s-1.4 2.69-1.72 3.48q-.61 0-1.47-.12c.55-.85 1.63-3 1.67-3.11s-.34-.21-.64-.21a18.67 18.67 0 0 0 -2.08 3.19c-.34 0-.7-.09-1.1-.16.45-.8 1.43-2.91 1.54-3.12s-.43-.42-.72-.42-1.43 2.43-1.85 3.34c-.76-.13-1.59-.29-2.52-.48a56.2 56.2 0 0 1 -17.77-7.21c-4.1-2.58-5.2-4.36-5.5-4.74a27.62 27.62 0 0 1 0-6.42c.32-.32 6.8 5 14.67 8.54s16.4 4.77 18.81 5.24a12.11 12.11 0 0 0 3.29.34s-3.65 5.07-4.07 5.2zm6.13-1.53a7.68 7.68 0 0 1 -1.86-1.1s2.53-3.55 2.83-3.55 1.73.47 1.82.81a6.43 6.43 0 0 1 -1.27 2.49c-.51.59-1.27 1.35-1.52 1.35zm15.67 3.93a2.59 2.59 0 0 1 -1.91 1.37 25.73 25.73 0 0 0 1.36-2.34c0-.25-.26-.17-.59-.12s-1.48 2.53-1.48 2.53a3.56 3.56 0 0 1 -1.18-.13 11.94 11.94 0 0 0 1.35-2.78.46.46 0 0 0 -.6-.3 21.83 21.83 0 0 0 -1.53 2.73l-1-.55a6.59 6.59 0 0 0 1-1.72c.09-.33-.21-.29-.5-.33s-.95 1.12-1.21 1.62l-1.54-1c-3.85-2.36-5.71-3.34-5.71-3.34l1-1.39a8.27 8.27 0 0 0 .59-1.1s7.1 2.2 9.59 3.42 2.71 2.67 2.36 3.43zm-38.67-34.28c-.17 1.19.55 2.2 2.5 2.41s3.8-1.48 3.34-3.29-3.43-1.75-4.32-1.4a2.92 2.92 0 0 0 -1.52 2.28zm2.37-1.43c.64-.39 2.32.34 2.2 1.27a1.84 1.84 0 0 1 -1.9 1.57c-.89-.09-3-1.19-.3-2.84zm-2.88-6.26c.93.13 2.2-.84 2-1.86s-1.7-1-2.41-.46c-1.41 1.1-.52 2.2.41 2.32zm.18-1.82a.55.55 0 0 1 .93.47c-.13.38-.76.51-1 .46s-.53-.38.07-.93zm8.58 3.56c1.77.33 3.63-.81 3.42-2.71s-2.7-2-3.68-1.52c-2.45 1.27-1.48 3.89.3 4.23zm.19-3.4c.58-.29 2-.22 2.16.89a1.57 1.57 0 0 1 -2 1.59 1.28 1.28 0 0 1 -.12-2.48zm10.12 5.17c2.32-.21 3.76-2.28 3.42-5.07s-4.61-2.89-5.45-2.54c-1.86.76-2.07 3.05-1.86 4.61a3.52 3.52 0 0 0 3.93 3zm-1.02-6.68c1-.3 3.72.64 3.68 2.58s-2 4.1-4.18 2.79-2.37-4.52.5-5.37zm10.36 8.92a1.63 1.63 0 0 0 1.77-2.45 1.91 1.91 0 0 0 -2.66-.89c-1.34.85-.51 3.17.89 3.34zm-.32-2.52a.9.9 0 0 1 1.25.42.77.77 0 0 1 -.82 1.15c-.65-.08-1.03-1.17-.43-1.57zm-10.16 6c-.26 0-.09.55-.64 3.25a37.69 37.69 0 0 1 -1.56 5.08c0 .33.67.63 1.06.46s.38-.63 1-2.75a29.12 29.12 0 0 0 .84-5.83c-.07-.27-.45-.22-.7-.18zm1.6 7.48c.26 0 .26-.59 1-3a25.75 25.75 0 0 0 .76-6.47c-.05-.46-1-.29-1.19-.12s0 .25.09 1.77a50.4 50.4 0 0 1 -1.19 7.32c-.06.19.28.57.53.53zm9.34.17c.09.59.22.21.38.13a12.61 12.61 0 0 0 -.59-5.75c-.88-2.79-2.41-3.72-2.74-3.72a.85.85 0 0 0 -.72.59c-.05.34.67.63 1.81 2.41s1.78 5.78 1.86 6.37z" fill="#1d1d1b"/></svg>