<svg height="64" viewBox="0 0 64 64" width="64" xmlns="http://www.w3.org/2000/svg"><path d="m61.39 24.45c-.86-1.2-3.31-1.58-7.9-.79a42.22 42.22 0 0 0 -8.13 2.26s-1.09-2-5-3.38a30.14 30.14 0 0 0 -7.94-1.47 2.92 2.92 0 0 0 -1.66-1.07 8.89 8.89 0 0 0 -2.52-.33s.49-2.26-.94-2.94-4.82-.6-7.45.64-1.54 2.9-1.54 2.9a15.58 15.58 0 0 0 -2 .64 9.75 9.75 0 0 0 -2.6 1.73 28.49 28.49 0 0 0 -6.05 2.76c-2.83 1.76-5.12 4-5.61 5.64s.86 3.27 1.13 3.65 1.73 6.59 2.18 7.64 3.31 5.61 17.31 5.34 19.38-4.47 19.76-5.23 1.92-10.23 1.92-10.23a14.12 14.12 0 0 1 2.41-1 22.49 22.49 0 0 1 7.15-1.84c3.34-.3 5.53.45 7-.57s1.35-3.14.48-4.35zm-42.63-3s1.24 2 1.5 2 .64-.42.53-.68-2.07-2.52-1.47-3.57 1.32-1.43 4-1.92 4.06.26 4.18 1.39-1.13 4-.91 4.1a3 3 0 0 0 .76.15l.94-2.11s2.26-.15 2.9.57a2.11 2.11 0 0 1 -.64 3.24c-1.55.94-4.6 1.27-9.6 1.76s-6.4-.9-6.36-2 1.76-2.63 4.17-2.94zm23.44 15.69a6.47 6.47 0 0 0 -1.16-1c-.23 0-.57.3-.57.53a9.11 9.11 0 0 0 1.53 1.5c-.07.32-.14.63-.2.92a9.54 9.54 0 0 0 -2.15-1.61c-.26 0-.49.41-.45.64a21 21 0 0 0 2.33 2.06 5.07 5.07 0 0 1 -.33 1 20 20 0 0 0 -2.39-2.31c-.15 0-.68.26-.64.45a33.48 33.48 0 0 0 2.34 2.49c-.15.11-.33.22-.53.34a23.84 23.84 0 0 0 -2.6-2.42c-.19 0-.87.27-.94.49a17.84 17.84 0 0 0 2.56 2.45c-.45.22-1 .45-1.55.68a10.22 10.22 0 0 0 -2-2.15c-.27 0-.75.3-.75.53a14.51 14.51 0 0 0 1.82 2 42.24 42.24 0 0 1 -12.63 2.16c-10.49.3-16.06-2.75-16.52-3.24s-2.14-6.81-2.07-7 3.2 1.92 11.18 1.73 16-.75 20.81-2.67 5.85-2.71 5.85-2.71-.44 2.66-.94 5.14zm-.86-6.06c-2.53 1.69-9 3.8-17.43 4.36s-14.6 0-17.42-1-3.09-3.06-1.77-4.44a26.79 26.79 0 0 1 8.77-5.5c.1 0-1.39 2 3.23 2.67a28.82 28.82 0 0 0 12.35-.9c3.72-1.05 3.69-3.05 3.69-3.05a19.08 19.08 0 0 1 8.35 1.78c4.1 2 2.75 4.38.23 6.08zm5.87-1-2.79 1-.15-.38a3.78 3.78 0 0 0 1.13-2.15 3.15 3.15 0 0 0 0-1.61c.19-.08.68-.23.68-.23a3.43 3.43 0 0 1 1.13 1.51 4.16 4.16 0 0 1 0 1.88zm11-1.81c-2.34.15-4.71-.18-7.15.42a11.21 11.21 0 0 0 -2.79.86s.3-2.52-1.13-3.31a33.55 33.55 0 0 1 7-1.65c4.33-.61 6.78 0 6.85 1.43s-.46 2.12-2.79 2.27zm-35-8.46c1.77-.27 1.92-.64 2-.83s0-.11-.75-.19a19.52 19.52 0 0 0 -3.24.45c-.81.4.21.85 1.98.59zm-12.96 8.78c-.79 0-3.22 1.8-3 2.64.53 1.8 2.56 1.65 2.48 1.39s-.75-.41-.94-1.24.94-1.32 1.32-1.62.89-1.2.14-1.17zm-2.37 10.13a13.62 13.62 0 0 0 .38 3.16c.15.34.86.07 1-.15a10.57 10.57 0 0 0 -.45-2.94c-.14-.34-.81-.36-.93-.07zm30-8.28a63.53 63.53 0 0 1 -6.74 1.8 22.22 22.22 0 0 1 -6.92.34c-.31.15-.12 1 0 1.13s2 .15 6.89-.52 7.08-2.19 7.11-2.34-.22-.37-.38-.41z" fill="#1d1d1b"/></svg>