<svg height="64" viewBox="0 0 64 64" width="64" xmlns="http://www.w3.org/2000/svg"><path d="m13.38 12.49c-.6.27-1.21.87-.33 1.27s2.95.24 2.95-.6-1.67-1.1-2.62-.67zm9.47-2.29c-.13-1.07-2.23-1.52-4-1.14-2.82.61-1.88 2.22.07 2.69s4.08-.47 3.93-1.55zm-3.85.61c-.54-.14-1-.81.27-1.08s2.55-.06 2.48.61-2.26.6-2.75.47zm11.89.2c1.27-.07 3.62-.74 3-1.95s-3.68-1.67-5.24-1.21c-.67.2-1.54 1-1 2s1.92 1.23 3.2 1.15zm-1.66-2.35c.86-.17 3.23.07 3.5.74s-2.15.87-3.16.67-2.01-1.07-.34-1.41zm9.21 1.28c1.14.13 1.48-.21 1.41-.94s-.85-1-1.61-.74c-.61.2-.94 1.54.2 1.68zm-5.51 3.35a.7.7 0 0 0 .4 1.28c.81.07 1.41-.47 1.21-1s-.91-.63-1.61-.28zm-4.5 2.49c.33-.87-.27-1.61-1.88-2a6.46 6.46 0 0 0 -4.55.52c-.87.61-.74 1.21-.34 1.75s2.62.6 4 .6 2.43 0 2.77-.87zm-5.31.07c-.2-.27-.74-.74.14-1.14a4.52 4.52 0 0 1 3.76.06c.87.61.07 1.08-1.08 1.14s-2.62.21-2.82-.06zm21.43-1.55c1-.07 2.49-.27 2.28-1.34s-3.46-1.63-4.9-1.34-1 1.61-.4 2.08a5.27 5.27 0 0 0 3.02.6zm-1.88-1.88c.73-.11 3 .14 3 .74s-2.15.47-3 .34-1.34-.88 0-1.08zm9.07-.13a1.23 1.23 0 0 0 -1.68-.81s-.87.74-.2 1.21 1.95.31 1.88-.4zm10.08 25.59a4.15 4.15 0 0 0 -3.57-3.63 4 4 0 0 0 -.13-1.68 5.51 5.51 0 0 0 -1.07-1.57 23.07 23.07 0 0 1 2.35-.81c1.41-.4 2-.8 2.35-1.88a28 28 0 0 0 .27-6c-.07-2-1.48-1.95-1.48-1.95s.13-.34.4-1.08a17.63 17.63 0 0 0 .27-4.3c-.07-.94-.07-3.22-5.51-6.71s-13.84-4.58-23.51-4.27-16.86 1.3-21.76 3.79-5.85 5.21-6.18 6.21-.07 5 .26 6.79a5.45 5.45 0 0 0 2.15 2.95 12.6 12.6 0 0 0 -.26 1.82 10 10 0 0 0 .06 2.48c-.74-.06-3.83 1-4.1 2.15s-.8 7.59 0 9.07 4.77 2.74 4.77 2.74a35.38 35.38 0 0 0 .14 5.1 7.29 7.29 0 0 0 1.88 2.6 15.52 15.52 0 0 0 .2 4c.4 1.68.87 2.09 3.56 3.16a54.13 54.13 0 0 0 16.32 3.14 95.82 95.82 0 0 0 21.5-1.74c5.38-1.21 8.73-3.83 9-4.84a35.08 35.08 0 0 0 0-5.38s.41-.4.81-.73a9.57 9.57 0 0 0 1.07-2.69 16 16 0 0 0 .21-6.74zm-3.32-1.41s1.12 0 1.12 1.52.14 2.78-2.37 4.48-6.09 2.33-8.25 2.73a28.58 28.58 0 0 1 -4.16.45 4.17 4.17 0 0 0 1.43-2.1 5.5 5.5 0 0 0 .13-1.39s6.9-.23 9-1.75a9.69 9.69 0 0 0 3.1-3.94zm-37.17-.36c-.45-1.39-.85-2.06-2-1.79s-2.33 2.11-2.79 4.79-.49 3.76-.81 4-1 1-1.21-1.34.85-14.69.85-14.69 5.06.54 9.32.63l6.85.13s-.18 10.16-.31 10.65-.67.8-.81.71.09-2.91-1.7-3-3.36 1.25-3.49 3.71-.18 9.54-.63 10.3a1.62 1.62 0 0 1 -2.15.9c-1.16-.36-1.21-1.16-1.34-2.37s.67-11.24.22-12.63zm-3.54 5.11s1-4.66 1.57-4.79.72.13.72.35-.08 4.75-.08 4.75zm1.79 2.33-.13 1.45h-2.15a5.64 5.64 0 0 1 -1-.22s1-1 1-1.43zm13.22-6.23s2.77.18 4.52.22 3.36 0 3.36 0v4.21s-5.11.09-9.27.09-4.75-.09-4.75-.09v-.35c.05-.14-.13-2 .5-2.69s1-.76 1.16-.45.27 2.11.94 2.55 2.55.45 3.09-.35.45-3.14.45-3.14zm.31-3.13h6.72c.44 0 1.21 0 1.25.18a9.33 9.33 0 0 1 -.31 2.19c-.14.09-2.78 0-2.78 0s1.66-1.52.45-1.79-2.78-.09-2.73.45.62 1.17.49 1.21-3 .36-3.14.09a12.69 12.69 0 0 1 .05-2.33zm0-1.84s0-4.3.32-4.48a56 56 0 0 1 6-.27c.23 0 .09.36.41.59s1.12.26 1.21.4a15.37 15.37 0 0 1 .13 3.72c-.18.17-8.12.04-8.12.04zm-6.36 11.11s4.12.13 9 .13h4.88a3.4 3.4 0 0 0 .9 1.7c.71.67 1.3 1 1.12 1.08s-3 0-8.47 0h-7.57zm15.81-6.09c0-4.66.4-10.39.4-10.39a41 41 0 0 0 5.33-.63 45.77 45.77 0 0 0 4.71-1.08s-.32 8.87-.49 10-.14 1.34-.63 1.43a.93.93 0 0 1 -1.12-.85c-.09-.67.36-3-.45-3.94a2.74 2.74 0 0 0 -3.81.13c-1.16 1.17-1 4.48-1.12 5.6s-.22 4.12-.76 5.24-1.12 1.21-1.52 1-.54-1.88-.54-6.51zm11.64-2.29a11.84 11.84 0 0 1 1.17-.63c.35-.13.8-.58.89-.35a7 7 0 0 1 -.13 3c-.36.94-1.44 1.83-3.72 2.46a24.63 24.63 0 0 1 -4.43.81l-1.12.09s.27-3.32.27-3.77l1.52-.18a2.68 2.68 0 0 0 2.42 2.11c2 0 2.68-.85 2.86-1.88s.27-1.66.27-1.66zm0-3.36c.18-.18.53-.09.76.18s.8.85.62 1.21-1.47.49-1.47.49a6.89 6.89 0 0 1 .14-1.88zm-6.86 3.94c0-.18 0-1.61 0-1.61s.54-.67.76-.58.54 0 .54.54v1.52s-1.25.31-1.25.13zm12.19-8.1c-.18.36-1.3.71-2.33 1.16a13.92 13.92 0 0 1 -2.33.72v-4.93a12.7 12.7 0 0 0 2.46-.89c1.43-.67 1.93-1.26 2.15-1a19.79 19.79 0 0 1 .1 4.94zm-47.36-18.5c5.11-2.62 11.69-3.22 20.89-3.22s15.32 1 19.75 2.95 5.58 3.77 5.65 4.5-2.42 3.5-10.75 4.1-18.71 1.41-25.39 1.14-14.32-2.41-15.32-3.76c0 0 .07-3.09 5.17-5.71zm-5.24 7.12c.34.07 1.41 1.48 9.14 2.49s17 .42 23.67.42a56.56 56.56 0 0 0 14.42-1.74c3.22-.81 5.1-3.45 5.24-3a18.76 18.76 0 0 1 -.27 5c0 .07-.05.14-.07.2a9.94 9.94 0 0 0 -1.63-1.48c-.18 0-.94.54-.85.77a20.5 20.5 0 0 0 2.1 1.74 2.86 2.86 0 0 1 -.65.67 31.81 31.81 0 0 0 -2.57-2.25c-.14-.09-.81.14-.86.41a16.79 16.79 0 0 0 2.54 2.37l-.65.29a16.66 16.66 0 0 0 -2.74-2.57.43.43 0 0 0 -.58.49 19.62 19.62 0 0 0 2.41 2.44l-1 .33a16.83 16.83 0 0 0 -2.36-2.37c-.22-.09-.54.14-.63.5s1.48 1.75 2 2.19a67.43 67.43 0 0 1 -18.21 2.71c-9.38.13-19.38-.34-22.74-1.08a9.37 9.37 0 0 1 -5.71-4.29c-.33-.68 0-4.24 0-4.24zm6.47 14.82a7.88 7.88 0 0 1 -3.31-.18c-1.16-.4-1.57-2-1.61-2.24s0-3.31.27-3.36a24.54 24.54 0 0 0 2.82 1.08c1.43.36 1.92.36 1.92.49a41.93 41.93 0 0 1 -.09 4.21zm-9.22 1.75a4 4 0 0 1 3-2.55c.18 0 .63 2 1.88 2.55s4.25.36 4.25.54 0 2.15 0 2.15a59.16 59.16 0 0 1 -6.63-.36c-1.47-.31-2.77-1.52-2.5-2.33zm2.42 6.9c-2.38-1-2.69-1.34-2.82-1.88a23.71 23.71 0 0 1 .08-3.32s.59.95 3.14 1.48 6.14.63 6.09.81-.4 3.67-.4 3.67a16.71 16.71 0 0 1 -6.09-.76zm2.91 3.09 3.49.36a8.39 8.39 0 0 1 .22 1c0 .18 0 .27-.22.23s-3.77-.5-3.81-.72.32-.87.32-.87zm-.18 4.43c-.05-.44-.09-2.73-.09-2.73a18.83 18.83 0 0 0 5 1.12c2.65.27 5.24.49 5.24.49v3.77a43.33 43.33 0 0 1 -7.07-.94c-2.59-.72-3.04-1.26-3.08-1.71zm49 5.15a5.47 5.47 0 0 0 -1.53-1.25.67.67 0 0 0 -.76.54c0 .21 1.25 1.21 1.76 1.59-.18.15-.4.33-.67.53a11.2 11.2 0 0 0 -2.48-1.81.52.52 0 0 0 -.72.49 12.58 12.58 0 0 0 2.47 1.78c-.3.18-.62.36-1 .55a11.75 11.75 0 0 0 -2.69-2.1c-.35 0-.89.18-.89.49a14.09 14.09 0 0 0 2.51 2.09c-.39.16-.8.32-1.25.48a12.8 12.8 0 0 0 -2.52-2.08.67.67 0 0 0 -.71.49 15.11 15.11 0 0 0 2 2c-.52.15-1.09.29-1.69.42a5.6 5.6 0 0 0 -1.74-1.85c-.4 0-.58 0-.81.32s.79 1.25 1.32 1.77c-.7.13-1.43.24-2.21.33a141.25 141.25 0 0 1 -21.54.76c-3.9-.31-10-2.15-11.6-2.6s-2.15-.89-2.24-1.2-.05-3.68-.05-3.68 3 .67 5.29 1 3.85.45 3.85.45a2.72 2.72 0 0 0 2.24 1.7 4.15 4.15 0 0 0 3.22-1.21 70.36 70.36 0 0 0 12.27.8 57 57 0 0 0 16.93-2.77l3.14-1.12s.18 2.17.1 3.09zm1-7.08a6.65 6.65 0 0 0 -1.12-1.34c-.32-.17-.85.54-.9.68a13.47 13.47 0 0 0 1.42 1.7 4.69 4.69 0 0 1 -.48.53 9.39 9.39 0 0 0 -1.85-1.81c-.27-.09-.9.09-.94.31a13.49 13.49 0 0 0 2 2.14q-.24.16-.54.33a11.07 11.07 0 0 0 -2.39-2.11.66.66 0 0 0 -.72.49 12.12 12.12 0 0 0 2.12 2.09c-.33.14-.71.29-1.13.43a14.36 14.36 0 0 0 -2.47-2.29c-.36-.14-.94.36-1 .53a18.1 18.1 0 0 0 2.33 2.08c-.84.24-1.81.47-2.95.72a88.85 88.85 0 0 1 -17.83 1.38c-5 0-6.58-.17-6.58-.17a11.24 11.24 0 0 0 .23-1.84c0-1.08 0-1.93 0-1.93a158.61 158.61 0 0 0 19.16-.4c7-.81 11.87-3.31 12.68-3.94a12.47 12.47 0 0 0 1.43-1.34 12 12 0 0 1 -.49 3.76zm-1.57-20.1c-.36-.13-.81.4-.81.4.18.14 1.39 1.62 1.62 1.62s.44-.27.58-.5-1.05-1.39-1.41-1.52zm-1.66.94c-.31-.13-.45.4-.4.63a8.67 8.67 0 0 0 1.48 1.16c.27.05.36-.18.54-.36s-1.32-1.3-1.64-1.43zm-45.86 1.3a.66.66 0 0 0 .09 1 .57.57 0 0 0 .76-.58c-.09-.33-.39-.8-.87-.42zm.85 1.7a.66.66 0 0 0 .09 1 .57.57 0 0 0 .77-.58c-.11-.33-.4-.76-.88-.42zm-1-8.16c.56.22 1.34-.27 1.2-.71a.87.87 0 0 0 -1.34-.55.7.7 0 0 0 .05 1.26zm2 2c.56.26 1.34-.33 1.2-.85s-.6-1.14-1.34-.65a.91.91 0 0 0 .05 1.51zm3-1.44c.57.26 1.34-.32 1.2-.84s-.59-1.14-1.34-.65a.91.91 0 0 0 .05 1.5zm.53.93a.9.9 0 0 0 .15 1.49c.56.26 1.34-.32 1.2-.84s-.73-1.13-1.48-.64zm3.6-.73c.42.18 1-.21.88-.56a.63.63 0 0 0 -1-.43.57.57 0 0 0 -.01 1zm-13.02 11.61c.41.18 1-.21.88-.56s-.44-.76-1-.43a.57.57 0 0 0 .12.99zm1.92 1.3c.42.17 1-.21.88-.56a.63.63 0 0 0 -1-.43.57.57 0 0 0 .12.99zm-2.65 2a.57.57 0 0 0 .1 1c.41.17 1-.22.88-.56a.63.63 0 0 0 -.98-.47zm1.83 1.62a.57.57 0 0 0 .1 1c.42.18 1-.21.89-.56a.64.64 0 0 0 -.99-.44zm5.51 8c-.12-.43-.49-.94-1.09-.54a.75.75 0 0 0 .11 1.23c.46.21 1.09-.27.98-.69zm3.77 1.63c.46.21 1.09-.27 1-.69s-.48-.94-1.09-.54a.75.75 0 0 0 .09 1.23zm-2.12.77c.38.16.91-.2.81-.51a.58.58 0 0 0 -.91-.4.52.52 0 0 0 .1.91zm-1.78 3.58a.59.59 0 0 0 .13 1.07c.5.19 1.2-.23 1.07-.6a.79.79 0 0 0 -1.2-.47zm-2.38-14.76a.63.63 0 0 0 -1-.43.58.58 0 0 0 .1 1c.43.17 1-.22.9-.57zm.23 1a.57.57 0 0 0 .1 1c.41.18 1-.21.88-.56a.63.63 0 0 0 -.98-.48zm24.34-9.24a.8.8 0 0 0 .13 1.23c.46.21 1.1-.28 1-.72s-.52-.96-1.13-.55zm3.82 1.54a.84.84 0 0 0 -1.3-.55.71.71 0 0 0 .13 1.26c.55.18 1.31-.31 1.17-.75zm-3.27 9.57c.55.26 1.3-.32 1.17-.84s-.58-1.14-1.31-.65a.92.92 0 0 0 .14 1.49zm2.94 0c.37.18.88-.23.78-.58s-.39-.79-.87-.45a.64.64 0 0 0 .09 1.01zm7.33-10.17a4 4 0 0 0 .09-2.06c-.18-.31-1.12-.22-1.12 0a5.67 5.67 0 0 0 .09 2.11c.25.38.76.15.94-.07zm-15.54 14.13c-1.3.58.09 1.7 1.57 1.7s2.28-.8 1.7-1.52-2.7-.44-3.27-.18zm1.12.94c-.45-.18-.31-.58 0-.71.59-.26 1.17.09 1.21.4s-.76.49-1.21.31zm7.62.85c1.29-.13 1.56-1.21 1.07-1.65a3.83 3.83 0 0 0 -3-.27.84.84 0 0 0 -.18 1.34 2.47 2.47 0 0 0 2.11.58zm-1.17-1.52a.6.6 0 0 1 .85.58c0 .45-.76.27-1 0s-.21-.4.15-.58zm-8.24 4.08c-.36 0-.49.62-.09.89s1.12.18 1.17-.27-.56-.62-1.08-.62zm6.36-.41a.48.48 0 0 0 -.13.85c.35.36.94.23.94-.26s-.33-.72-.81-.59zm-16.08 6.09a.49.49 0 0 0 -.13.86c.36.35.94.22.94-.27s-.33-.72-.81-.59zm-2.24-1.52a.48.48 0 0 0 -.13.85c.36.36.94.23.94-.27s-.33-.71-.81-.58zm-1.74 1.23a.48.48 0 0 0 -.14.85c.36.36.94.23.94-.27a.56.56 0 0 0 -.8-.58zm1.83-24.63c-.31.18-.18 3.36.09 3.63s.67 0 .9-.23a12.44 12.44 0 0 0 0-3.18c0-.33-.81-.34-.99-.24z" fill="#1d1d1b"/></svg>