<svg height="64" viewBox="0 0 64 64" width="64" xmlns="http://www.w3.org/2000/svg"><path d="m44.46 23.31a7.53 7.53 0 0 0 2-1 1.78 1.78 0 0 0 .72-1.75 29 29 0 0 0 -2.47-4.17 10 10 0 0 0 1.79-1.12 6 6 0 0 0 2.38-4.85c-.11-2.42-1.63-4.52-4.82-6.23s-8.3-2.56-13.64-2.19-9 1.61-12.16 4.26-2.74 5.25-2.34 6.74 4.18 3.59 4.18 3.59-2.1 3.17-2.29 5.15 3.19 2.42 3.19 2.42a34.79 34.79 0 0 1 -.85 4.13c-.81 3.37-3.68 15.26-4.36 19.7s-1.07 9.43.41 10.91a11.3 11.3 0 0 0 7.22 2.91c3.14.18 14.9.5 18.94-.09s5.92-1.79 6.42-4.71-.68-13.28-1.62-18.76-2.7-14.94-2.7-14.94zm-23.83-3.59a20 20 0 0 1 1.37-2.56s2.34.27 2.79 0a1.39 1.39 0 0 0 0-2.11c-.81-.86-1.7-.63-3.32-1.26s-3.68-1.61-2.2-4.08 4-3.86 11-4.67 11.89.63 14.67 2.83 1.44 4.75-.09 6.1-4.38 1.03-4.61 1.71a1.22 1.22 0 0 0 .63 1.62 3.75 3.75 0 0 0 1.21.13s.81 1.26 1.31 2 .8.94.53 1.3-.53 1.14-10.23 1.27-11.62.09-12.7-.27-.72-1.07-.36-2.01zm21.05 31.28c0 .41 3.35 3.11 4.52 4.12v.64a5.69 5.69 0 0 1 -.42 1.75 35.57 35.57 0 0 0 -3.93-4.13c-.45-.22-.86.45-.86.85s3.22 3.21 4.28 4.14a3.32 3.32 0 0 1 -1.15.93 26.65 26.65 0 0 0 -4-3.94c-.4-.09-.63.36-.58.8s2.66 2.75 3.53 3.52a12.54 12.54 0 0 1 -2.14.35 16.49 16.49 0 0 0 -3.5-2.88c-.72-.36-.32.27-.45.63s1.66 1.76 2.38 2.35c-1.65.07-3.74 0-6.42-.06-5.65-.23-11.08-.23-12.92-1.21s-2.57-2.66-2.53-4.86a138.82 138.82 0 0 1 2.7-17.27c1.34-5.88 2.55-11.89 2.87-12.12.16-.12 3.45.18 8.34-.09s11-1.08 11.18-.72 1.34 6.78 2.24 13.2a5.05 5.05 0 0 0 -1.61-.36c-.18.09-.23.45 0 .95s1.24.84 1.84 1.09c0 .34.09.68.13 1l.12 1a4.72 4.72 0 0 0 -1.91-.87c-.41.09-.18.45-.14.9s1.45 1.24 2.25 1.74c.09.93.18 1.85.26 2.74a11.29 11.29 0 0 0 -2.51-1.79c-.36 0-.54.68-.45 1.08a20.09 20.09 0 0 0 3.1 2.5c.07.9.13 1.76.17 2.58a15.72 15.72 0 0 0 -3-2.25c-.36 0-.54.27-.5.81s2.6 2.32 3.53 3c0 1 .06 1.93.07 2.7a25.87 25.87 0 0 0 -4.09-3.9c-.44-.18-.44.54-.4 1.08zm-13.78-41.42c0-.77-1.12-1.43-2.46-.86-.63.27-1.8 1.84.17 2.11s2.39-.49 2.29-1.25zm4.22 1.12c2 .27 2.34-.49 2.29-1.26s-1.12-1.44-2.47-.85c-.63.27-1.79 1.84.18 2.11zm6.37 0c2 .27 2.34-.49 2.29-1.26s-1.12-1.44-2.47-.85c-.62.27-1.79 1.84.18 2.11zm-12.79 16.92a68 68 0 0 0 -2.1 9.38c.09.23.89-.13 1.12-.45s1.93-8.3 1.88-8.66-.75-.7-.9-.27zm2.88-.05c-.18.36-.9 3.77-.63 4.4s.54.18.94.05.72-3.91.58-4.27-.71-.54-.89-.18zm1.42 5.7s-.27 17.1.4 17.23a3.61 3.61 0 0 0 1.21.14c.68 0 .81-8.35.81-8.35s4.71-.54 5.25-4.17-1.51-6.73-7.67-4.85zm2.39 6.73s-.84-4.66-.27-4.84c2.16-.68 3.37-.41 3.5 2.15s-3.23 2.69-3.23 2.69z" fill="#1d1d1b"/></svg>