<svg height="64" viewBox="0 0 64 64" width="64" xmlns="http://www.w3.org/2000/svg"><path d="m7.62 29.19c.15-.68.57-.75.57-1s-.18-.35-.32-.53a2.78 2.78 0 0 0 -1.17 1.39c-.22.82.82 1.67 1.24 1.81s.61-.1.54-.32-1-.67-.86-1.35zm54.26-.53c-.71-2.92-5.83-4.84-5.83-4.84s3.7-5.91 4.34-9.54-.39-7.47-4.48-7.9-6.12-.14-9 3.63-6.33 11.1-6.33 11.1-2.35.15-5.34.07a127.44 127.44 0 0 0 -19.86 1c-8.86 1.21-12.77 4.98-13.27 5.82s-.11 7.27 3.06 13.11 7.33 10.75 10.6 12.52a34.09 34.09 0 0 0 13.88 3.92c5.26.21 12 .92 16.65-2.28s8.11-8 11.46-14 4.84-9.7 4.12-12.61zm-12.73-17.94c3.41-3.84 7.18-2.35 8.39-1.17s2.17 4.23-1.24 9.68-7 10.74-7.44 10.92a51.43 51.43 0 0 1 -6.79.82 12.49 12.49 0 0 1 -4.63-.43c-.08-.1 8.29-15.97 11.71-19.82zm4.16 16.87c.18 0 1 .35.78 1s-2.2 1.32-3 1.21c-.02-.04 2.04-2.18 2.22-2.21zm-35.26-.59.63-.1c0 .67 0 1.79.19 1.81s.78.61.85.32.09-1.64.1-2.29l.74-.09a13.25 13.25 0 0 0 -.09 2.45c.14.11.82.54.92.43a22.17 22.17 0 0 0 0-3l1.15-.1a16 16 0 0 0 .17 2.64c.15 0 1 0 1-.1s0-1.92 0-2.62h.32.23c-.06.83-.18 3 0 3.07s.71.22.78 0 .12-2.25.12-3.15h.75a29.57 29.57 0 0 0 .17 3.3c.1 0 .81.14.92 0a29.82 29.82 0 0 0 0-3.31c6.42-.26 10.67-.18 10.67 0a44.76 44.76 0 0 1 -2.56 4.66c-.18.11-14-.46-17.76-.82s-4.69-1-4.59-1.31 1.26-.94 4-1.52a7.76 7.76 0 0 0 .24 1.85c.14.07.71.43.85.14a10.44 10.44 0 0 0 .2-2.26zm37.57 13.8a4.55 4.55 0 0 0 -1.35-1.36c-.25 0-.53.21-.71.71s.92 1.36 1.35 1.75q-.44.66-.93 1.35a8.46 8.46 0 0 0 -1.88-2 .76.76 0 0 0 -.68.6 16.33 16.33 0 0 0 1.83 2.42c-.25.32-.49.64-.75 1a10.43 10.43 0 0 0 -2.39-2.7c-.36 0-.75.42-.82.67a21 21 0 0 0 2.47 2.95l-.12.15-.46.53a18.34 18.34 0 0 0 -2.71-3.2c-.25 0-.85.32-.78.71a28.72 28.72 0 0 0 2.76 3.33c-.32.37-.63.71-.94 1a19.17 19.17 0 0 0 -2.64-3.12c-.32-.07-.71.35-.71.67a22 22 0 0 0 2.57 3.26c-.34.35-.68.69-1 1-.61-1-2.93-3.59-3.23-3.44s-.33.43-.18.82a41.5 41.5 0 0 0 2.68 3.28c-.31.27-.62.52-.92.76a39.76 39.76 0 0 0 -2.62-3.75c-.22-.14-1 .32-1 .46s2 2.85 2.8 3.88c-.26.19-.53.37-.78.53a20.5 20.5 0 0 0 -2.56-3.06c-.28-.11-.78.39-.78.64a24.21 24.21 0 0 0 2.43 3c-.34.18-.67.34-1 .49a20.69 20.69 0 0 0 -2.39-3.13c-.18 0-.89.32-.89.57a29.63 29.63 0 0 0 2.19 2.91l-1 .3a23.75 23.75 0 0 0 -2.12-2.57c-.18-.11-.6 0-.75.49s1.07 1.68 1.68 2.36a25.25 25.25 0 0 1 -3.17.38 40 40 0 0 1 -18.5-3.66c-5.02-2.49-9.57-9.1-11.14-12.45s-2.06-5.76-1.7-6c.14-.11 1.06.46 1.46.67s4.91 2.6 15.83 3.1 21.74-.1 27.86-1.54a57.8 57.8 0 0 0 9.46-3.1c.16.06-.74 3.54-3.77 8.34zm.78-9.23a56.82 56.82 0 0 1 -15.94 3.43c-6.47.35-19.07.28-26.57-1s-9.79-3.16-9.58-4.3 1.25-1.92 3-2.81 5.59-2.64 14.09-3.31a157 157 0 0 1 17.9-.18l-.14.53s-8.54 0-14 .36-13.45 2.12-15.47 3.41 0 2.91 1.78 3.48 12.88 2 21.53 1.82 12.77-.46 16.33-1.24 6.3-2.14 6.26-3.38-1.92-1.85-1.92-1.85l1.07-1.18s4.34 2 4.62 2.85-.22 2.27-2.96 3.37zm-41.4 13.56a42.62 42.62 0 0 1 -5.4-7.61c-.22-.11-.83 0-.86.25-.11 1.06 3.17 5.94 5.41 8.5a11.82 11.82 0 0 0 5.16 3.63c.21-.07.11-.54 0-.71a40.7 40.7 0 0 1 -4.31-4.06z" fill="#1d1d1b"/></svg>