<svg height="64" viewBox="0 0 64 64" width="64" xmlns="http://www.w3.org/2000/svg"><g fill="#1d1d1b"><path d="m8.31 49.43a30.28 30.28 0 0 1 2.83-3c.2 0 .89.62.79.9a14.54 14.54 0 0 1 -2.93 2.67c-.42.09-.8-.39-.69-.57z"/><path d="m24 29.15c-.13-.39 7.63-8.87 8-8.7s.86.66.73 1-7.48 8.39-7.73 8.39-.92-.59-1-.69z"/><path d="m47.61 13.76a17.23 17.23 0 0 1 3.62-2.9c.48 0 .55.65.55.65s-3.14 2.9-3.38 3-.79-.51-.79-.75z"/><path d="m50.06 17.31c.17-.2 3.38-.93 3.45-.69a8.23 8.23 0 0 1 -3 1.76c-.38-.1-.69-.79-.45-1.07z"/><path d="m62 20.24c-.45-1.27-3-2.62-3.28-3s1.42-1.1 1.11-3.28-3.35-1.13-3.83-1.44 2.28-3 2.62-4.11-.45-1.52-1.62-1.8-5.9.35-6.07.25-.27-3.42-1-3.7-2.38.9-4.66 4.11a30.58 30.58 0 0 0 -3.55 7.14 60.73 60.73 0 0 0 -8.78-.41c-2.62.27-5.69 2-8.41 5.35s-20.44 29.4-21.64 31.4c-2.14 3.55-.24 6 1.66 6.17s8.24-2 15.8-4.76 20.65-7.73 23.65-9.11 7.76-5.14 8.28-8.8-.14-9.35-.1-9.62 7.55-.69 8.24-1.07 1.99-2.04 1.58-3.32zm-45.72 30.68c-.28.41-8.28 3.35-8.42 3.21s.41-1.56-.45-2.42-1.24-.93-1.24-.93c.41-.65 4.76-6.83 5-6.87a4.89 4.89 0 0 1 3.69 2.35c1.14 2 1.66 4.24 1.42 4.66zm33.36-17.41c-.11-.45-.25-.93-.41-1.4-.45-1.31-1.1-2.41-1.35-2.34a1.62 1.62 0 0 0 -.69.89c0 .21 0 .14.73 1.21a13.83 13.83 0 0 1 1.08 3.85c-.07.21-.13.43-.21.64a5.51 5.51 0 0 1 -1.39 1.85 25.82 25.82 0 0 0 -.24-3 8.26 8.26 0 0 0 -1.16-3.21c-.21-.17-.9.32-1 .52a22 22 0 0 1 1 2.52 15.11 15.11 0 0 1 .33 4c-.38.28-.8.57-1.25.85a32.29 32.29 0 0 0 -.49-3.43 15.84 15.84 0 0 0 -.94-3.14c-.1-.14-.86.35-.93.59s0 .14.62 1.83a22.85 22.85 0 0 1 .74 4.74q-.63.36-1.29.69a16.71 16.71 0 0 0 -.31-2.85 8.71 8.71 0 0 0 -1-3.34c-.11 0-.73.27-.73.48s.14.28.52 1.83a29.92 29.92 0 0 1 .47 4.42c-.58.27-1.17.54-1.77.8a14.76 14.76 0 0 0 -.29-2.77 8.76 8.76 0 0 0 -1.17-3.24c-.24-.11-.8.31-.86.44s.1.25.69 2.18a15.88 15.88 0 0 1 .66 3.88l-1.1.45a14.73 14.73 0 0 0 -.49-2.37 9.14 9.14 0 0 0 -1.41-3.27c-.21 0-.41.27-.59.51s.07.42.76 2.28a9.66 9.66 0 0 1 .56 3.26c-2.16.83-4.18 1.51-5.59 2-4.73 1.58-13.63 5-13.63 5a10.28 10.28 0 0 0 -1.73-5.56 8.38 8.38 0 0 0 -4.14-3c.1-.38 10.46-15.08 13.25-19.08s5-7.63 12.18-7.15 9.08 1.63 11.25 6.32a18.17 18.17 0 0 1 1.32 11.12zm9.87-12.3c-.55.41-2.38 0-4.59.24s-3.79.76-4 .69-2.63-3.52-4.35-5.1a12.16 12.16 0 0 0 -3.14-2.18 48 48 0 0 1 2.73-5.66c1.45-2.52 2.28-3.24 2.41-3s.38 2.69 1.63 3 5.34-.65 5.31-.24-2.76 2.76-1.93 4.32 1.21 1.38 2 1.55 2.08 0 1.73.45-2.69 2.58-1.45 3.27 4.2 2.25 3.65 2.66zm-25.51 27.02a4.56 4.56 0 0 0 -2.41.93c-.14.24-3 8.63-2.8 9.49s1.45 2 4.14 2.21 4.52-.87 4.77-1.76-1.65-9.56-1.7-9.8a2.32 2.32 0 0 0 -2-1.07zm0 .77c.59 0 1.11.38 1 .76s-.86.48-1.34.45-.93-.38-.93-.59c.01-.44.7-.62 1.27-.62zm2.37 7.77a9.7 9.7 0 0 0 -1.19-1c-.21-.07-.49.28-.52.69s1.14 1.06 1.83 1.47c.07.85 0 1-.14 1.12a1.54 1.54 0 0 1 -.26.18 19.67 19.67 0 0 0 -2.36-2.63c-.21-.07-.59.38-.55.73a14.2 14.2 0 0 0 2 2.3 6 6 0 0 1 -.88.21 11.61 11.61 0 0 0 -1.6-1.79c-.24-.21-.55.28-.58.62s.53.8 1 1.21c-1.72-.14-2.93-.66-3.07-1.55s2.35-7 2.52-7.21.86.13 1.41.1 1-.28 1.21.07a25.87 25.87 0 0 1 1.21 5.31c-.03.08-.03.13-.02.19zm7.26-11.67c-1.17.11-2.24.28-2.48.83s-2.58 6.9-2.59 7.11c-.07.9 1.72 2.86 4.59 3s4.14-1.21 4.24-1.76a79.58 79.58 0 0 0 -1.24-8.15 3.22 3.22 0 0 0 -2.51-1.01zm0 1c.82 0 1.58.45 1.51.79s-.93.55-1.72.55a2 2 0 0 1 -1.66-.72c0-.14 1.09-.56 1.92-.56zm2.76 7.48a1.81 1.81 0 0 1 0 .35 1.83 1.83 0 0 1 -.5.43 21.25 21.25 0 0 0 -2-2.33c-.14-.07-.59.28-.62.52a13.13 13.13 0 0 0 1.83 2.17 5.72 5.72 0 0 1 -.89.19 12.41 12.41 0 0 0 -1.77-2c-.17 0-.52.38-.49.66a5.37 5.37 0 0 0 1.05 1.43 3.44 3.44 0 0 1 -3.06-1.74c0-.52 1.45-5 1.76-5.07a7.43 7.43 0 0 0 2.14.24c1.28-.1 1.59-.31 1.73-.06s.43 2 .67 3.55c-.33-.36-.77-.75-1-.73s-.34.52-.38.83.99 1.12 1.58 1.62z"/></g></svg>