<svg height="64" viewBox="0 0 64 64" width="64" xmlns="http://www.w3.org/2000/svg"><path d="m52.32 34.89c-.28-.15-.7.9-.47 1.08s1.18.85 1.42.76.14-.43.09-.9-.75-.83-1.04-.94zm7.75-2.51a17.9 17.9 0 0 0 -3.68-.57s-.1-10.63 0-11.86a5 5 0 0 0 -1.75-3.83c-1.27-1.18-3.21-1.79-7.47-1.7s-11.91.71-11.91.71a3.66 3.66 0 0 1 0-1c.1-.43.95-.76 1.7-1.28a2.83 2.83 0 0 0 1.28-2.55c.05-1.37-2-4.49-6.43-4.06s-5.86 1.27-7.18 3-.63 3.48 1.37 4.33 1.7 2 1.7 2-2.13.1-6.76.43-7.28.75-10.92 3-2.17 5.9-1.84 7.6.52 5.25.52 5.25a46.71 46.71 0 0 0 -4.92-.28 2.06 2.06 0 0 0 -1.46 1.43c-.19.81-.54.61-.3 3s1 2.84 1.7 3.31 5.2.24 5.2.24.08 9.8.15 12.45a5 5 0 0 0 3.22 4.68 15 15 0 0 0 5.1.94c2.75.24 18.77.15 25.43.24s8.6 0 10.35-1 2-2.36 2.6-4.44.6-12.48.6-12.48a29.36 29.36 0 0 0 3.55 0c.7-.14 1-.56 1.56-2.12a12.16 12.16 0 0 0 .58-3.69c.05-.76-.47-1.28-1.99-1.75zm-51.48 5.86c-.14 0-3.74-.05-4.07-.05s-1.13-.28-1.32-2.08-.22-1.18 0-1.93.52-1.37 1.09-1.47a17.44 17.44 0 0 1 4.44.14c.01.15 0 5.34-.14 5.39zm19-28.36c1.61-1.6 4.35-1.56 5.86-1.27s3.42 1.39 2.05 2.39-2.32 1.18-2.6 2.17-.1 2-.38 2.23a4.44 4.44 0 0 1 -2.32 0 2.38 2.38 0 0 0 -.94-2.65c-1.47-.88-3.26-1.26-1.66-2.87zm-17 16.69s-.81-4.16 0-5.06 3.41-1.94 7.75-2.51 10.87-.9 18.91-1.56 12.57-.76 13.75-.52a3.1 3.1 0 0 1 2.6 2.5c.14 1.37-.05 4.87-.05 4.87a166.89 166.89 0 0 0 -20.32.05c-11.3.72-22.64 2.23-22.64 2.23zm43.32 12.53a17.27 17.27 0 0 0 -2.86-2.42c-.43-.14-.76.43-.81.71s2.89 2.46 3.62 3c0 .74 0 1.46-.08 2.16a32.27 32.27 0 0 0 -3.49-2.8c-.38-.14-.85.43-.76.9s3 2.66 4.18 3.53c-.05 1-.09 2-.13 2.77a29.19 29.19 0 0 0 -4-4.08c-.47-.09-.75.48-.71.85a62.18 62.18 0 0 0 4.63 4.71v.64c0 .44-.07.88-.1 1.31a42.78 42.78 0 0 0 -4.72-4.48c-.43-.1-.62.52-.57.9a67.6 67.6 0 0 0 5.13 5.11 5.57 5.57 0 0 1 -.71 2.09 52 52 0 0 0 -4.37-5.2c-.28-.09-1.08.47-1.08.8s3.45 4.2 4.48 5.4a2.86 2.86 0 0 1 -.84.29c-.26 0-.62.09-1.07.13a40.44 40.44 0 0 0 -3.65-4.65c-.29-.19-1.47.28-1.47.52s2.76 3.18 3.7 4.19l-1.79.08a17.2 17.2 0 0 0 -2.9-3.75 1 1 0 0 0 -1 .66c-.15.4 1.56 2.29 2.35 3.13-5.35.13-13.22.08-19.75-.2-9.92-.43-9.64-.24-10.68-.57s-3.12-1.42-3.12-4.91 0-8.56-.19-13.76-.33-6.95-.15-7.16 10.31-1.28 21.32-1.89 21.74-.38 21.88.14c.09.27-.08 6.19-.29 11.85zm6.71-2.61c-.18 1.23-.66 2.18-1 2.27s-3.12 0-3.12 0l.06-5.62a14.7 14.7 0 0 1 2.69.38c1 .28 1.56.37 1.52.94a12.87 12.87 0 0 1 -.15 2.03zm-47.48-13.49c-.19.23 0 1.22 0 1.22s3-.37 3.78-.56.19-.76 0-1a13.19 13.19 0 0 0 -3.78.34zm1.7 8.6c-.14.33-.28 14.74-.19 15.22s1.33.09 1.51-.1 0-14.7-.23-15-1.01-.34-1.09-.14zm3.36.8c0 .38-.43 5.81-.24 6.43s.85.19 1.23-.1.24-6.05-.05-6.33-.94-.23-.94-.02z" fill="#1d1d1b"/></svg>