<svg height="64" viewBox="0 0 64 64" width="64" xmlns="http://www.w3.org/2000/svg"><path d="m59.83 7.52c-.58-.17-1.29-.26-3.32.48s-11.77 3.55-12 3.64a18.28 18.28 0 0 0 -2.87 2c-2.29 1.68-18.81 13.22-23 16s-7.64 4.61-8.25 5.48-7.62 13.62-8.13 14.2a5.25 5.25 0 0 0 -.26 2.87c.23.87 1.68 3.67 2.62 4.12s3.06.46 7.38-.64 10.29-3 10.81-3.19a24 24 0 0 0 5.64-3.78c3-2.51 8.81-7.35 11.45-9.8s17-14.65 17.51-15.61 4.49-11 4.62-12.13-1.62-3.48-2.2-3.64zm-51.89 47a2.18 2.18 0 0 1 -2.23.35c-.74-.38-2.13-3.25-1.42-3.93.29-.28 1.65-.29 2.74.9s1.23 2.28.91 2.67zm52.31-43c-.1.39-4.06 10.61-4.26 10.84 0 0-.25.24-.65.6a28.41 28.41 0 0 0 -3.06-3.37c-.16 0-.67.38-.71.58s2.55 2.52 3.27 3.24l-.5.45a17.83 17.83 0 0 0 -3.44-2.6c-.36 0-.55.45-.49.65s2.45 1.86 3.33 2.48l-.62.55a22.53 22.53 0 0 0 -3.55-2.19c-.25-.07-.58.45-.54.61a39.86 39.86 0 0 0 3.47 2.14l-.75.67a13.62 13.62 0 0 0 -2.92-1.65c-.32-.06-.51.48-.45.71a17.59 17.59 0 0 0 2.76 1.48q-.41.34-.81.72a11 11 0 0 0 -2.69-1.3c-.29 0-.42.49-.39.71a12.11 12.11 0 0 0 2.47 1.13l-.89.79a7.48 7.48 0 0 0 -2-1.14c-.23-.07-.52.32-.49.61s1.11.8 1.75 1.14c-4.21 3.74-9.21 8.12-12.49 10.92-6.6 5.61-11.18 9.22-13.34 10.32s-12.94 3.61-12.94 3.61-.16-3-2.19-3.78a3.91 3.91 0 0 0 -2.84-.29.63.63 0 0 1 .07-.77c.15-.09 6.38-11.93 8-13.61s22.45-15.19 26-17.58 6.19-4.42 7.25-4.77 12.45-4.1 13.29-3.94 1.45 1.62 1.35 2zm-40.35 27.48c-2.45-2.42-4.52-3-4.9-2.74s-.1.9.19 1 1.94.26 4.52 3.32 2.61 7.32 2.71 7.45.67 0 .87-.06.13-.32 0-1.16-.94-5.43-3.39-7.81zm.71-4.38c-.39 0-.63.42-.51.58a12.15 12.15 0 0 0 1.16 1.09 29.67 29.67 0 0 1 1.87 2.33c.22.19.61-.1.67-.36s-.12-.68-1-1.84-1.8-1.84-2.19-1.84zm28.67-21.43c-.25-.09-.74.39-.74.52a34 34 0 0 1 3.61 2.87 12.88 12.88 0 0 1 3.1 4.51 1.23 1.23 0 0 0 .61-.51c.13-.32-1-2.26-2.54-4.07a17.54 17.54 0 0 0 -4.04-3.32z" fill="#1d1d1b"/></svg>