<svg height="64" viewBox="0 0 64 64" width="64" xmlns="http://www.w3.org/2000/svg"><path d="m13.64 10.81c-.4.27-1 1.68-1.21 3.83a4.73 4.73 0 0 0 1.21 3.55l.47-.13a12.33 12.33 0 0 1 -.67-3.06c-.14-1.67.8-3 .87-3.49s-.39-.88-.67-.7zm44 26.91c-.06-1-5-14.83-11.4-22.88s-12.54-11.74-16.83-12.55a27.28 27.28 0 0 0 -14.29 1.54c-3.9 1.75-6.51 6.51-7.39 10.47s-1.61 18.79-1.34 20.47 4 12.21 9.4 16.44 9.21 6.79 14.15 8.52 9.46 2.68 10.54 2.21 2.55-3.69 3-9.46c0 0 .47-1.68-.67-2.42s-9.13-3.15-11.88-6.64-6.17-9.19-5.23-11.2 6-3.76 9.59-1.82 10.29 7.79 13.11 12.42 4.49 6.1 5.5 6.57 2.41-.47 2.75-1.41a87.77 87.77 0 0 0 1-10.26zm-28.43-32.54c5.43 1.47 11.67 5.23 16.57 12.82s8.52 15.9 8.12 15.84a.94.94 0 0 1 -.61-.41s-6.77-9.86-12.14-13-9.06-2.61-10.07-2.41a5.19 5.19 0 0 0 -1.87.87s-.54-4.23-3.63-5.63-3.35-1.68-3.42-2.08.54-.41.67-.88a1.4 1.4 0 0 0 -.67-1.47c-.6-.47-1.14-.74-1.41-.47s-.47.47-.74.13-2.21-2.64-2.14-3.11 5.9-1.68 11.34-.2zm.67 50.32c.38.11 1.22-5.52 1.43-7.69.81.4 1.62.77 2.41 1.12 0 2 0 6.8.18 6.9s1-4.55 1.18-6.31c1.06.45 2.06.85 2.93 1.2 0 1.77.11 5.46.32 5.52s.91-3.67 1.13-4.94a7.52 7.52 0 0 1 1.82.84c.14.41-.94 7.92-1.54 8.12s-11.07-1.47-19.26-8.18-11.2-15.23-11.67-17.58-.2-13.62 0-13.82 1.34 6 3.62 9.52l.37.54c0 1.83-.1 4.68-.1 5.7 0 1.55.07 2.49.34 2.55s.4.14.47-.33.27-4.22.36-6.45c.74 1 1.62 2.06 2.62 3.23.05 2.7.13 9.9.57 10.06s.6-6 .65-8.66c.74.83 1.52 1.67 2.32 2.49 0 2.21.16 8.63.39 8.86s.64-5.43.81-7.65c.53.53 1.07 1 1.61 1.53 0 2.35.09 9.08.26 9.14s.68-5.88.87-8.13c.79.68 1.58 1.3 2.34 1.86 0 2.24-.07 9.62.21 9.62s.94-6.58 1.15-8.72l.19.13c.74.44 1.51.86 2.29 1.26-.15 2.11-.67 8.16-.27 8.27zm-.41-10.33s-10.6-7.12-15.16-15.23-4.76-12.48-4.76-14.36 1.54-5.3 3.15-7 2.89-2.58 3.56-2.26 2.95 3.22 2.81 3.55-1.4 1-1.34 1.75.61 1.81 1.34 1.54 1.14-1.16 1.55-1.16 1.21 1.55 2.68 1.88 1.81.47 2.48 2a33.4 33.4 0 0 1 1.55 3.76c0 .34-.2.54-.41.94s-3.69 4-4 8.25.18 9.83 6.55 16.34zm25.43 1.83-.53.14-1-1.51a2.27 2.27 0 0 0 .24-.57 13.86 13.86 0 0 0 .27-2.82 9.11 9.11 0 0 0 -.4-2.82.41.41 0 0 0 -.74 0 14.52 14.52 0 0 0 .08 2.58 5.17 5.17 0 0 1 -.29 2.56c-.53-.74-1.15-1.59-1.83-2.5.12-.67.2-1.71.25-2.34a22.71 22.71 0 0 0 -.54-4.7c-.2-.33-.67-.13-.87 0s.13.74.2 3v2.78c-.84-1.1-1.73-2.22-2.61-3.27.06-.46.14-1.05.17-1.52a32.6 32.6 0 0 0 -.4-4.76c-.13-.47-1.14-.41-1.14-.41s0 .41.2 2.35a25.08 25.08 0 0 1 .1 3.09c-.62-.69-1.22-1.34-1.78-1.88l-.93-.9a14.37 14.37 0 0 1 0-1.85 22.11 22.11 0 0 0 -.2-3.82c-.07-.47-1.14-1.08-1.34-.94s.13.73.27 2.21c.09 1 .15 2.52.18 3.37-.81-.75-1.6-1.44-2.36-2.05a38.87 38.87 0 0 0 -.57-5 .76.76 0 0 0 -1.08-.07c-.21.26.32 3.05.56 4.26a13.16 13.16 0 0 0 -2.73-1.46 16.68 16.68 0 0 0 -1.08-4.45.79.79 0 0 0 -1 .13 21.33 21.33 0 0 0 .93 4 9.09 9.09 0 0 0 -1.4-.23c-.27 0-.53 0-.79 0a22.28 22.28 0 0 0 -1-4.12c-.21-.27-.61 0-.81.4a16.58 16.58 0 0 0 .72 3.71 12 12 0 0 0 -6.22 1.72s1.34-6.71 4.76-8.45 9.73.27 15.77 6.24a42.35 42.35 0 0 1 9.13 13.49c.08.35.35 6.32-.19 6.41z" fill="#1d1d1b"/></svg>