<svg height="64" viewBox="0 0 64 64" width="64" xmlns="http://www.w3.org/2000/svg"><g fill="#1d1d1b"><path d="m38.73 26.75s3-2.34 3.19-8.8-2.52-11.49-9.61-11.45-10.15 5.07-10.42 10.77a14.41 14.41 0 0 0 3 9.48c-2.42.54-3.91 3.63-3.68 6.69s3.82 15.35 5 18.72 2.25 4.67 4.54 5.07 6.78.58 8.44-1.17 3.09-14.14 3.59-21.37-4.05-7.94-4.05-7.94zm-10.42-17c2.06-1.4 8-.63 9.47 2.47a12.3 12.3 0 0 1 -.13 11.53 7.18 7.18 0 0 1 -9.88 2.61c-2.77-1.54-6.28-11.96.54-16.58zm11.4 35.35a11 11 0 0 0 -1.71-1.1c-.36-.18-.54.4-.76.89s1.36 1.61 2.15 2.25c-.09.54-.17 1.07-.25 1.55a9.46 9.46 0 0 0 -2.31-1.91c-.45-.09-.63.45-.72.81s1.89 2.41 2.69 3.15l-.27 1.54a26.6 26.6 0 0 0 -3.26-2.91c-.22 0-.49.45-.54 1s2.27 2.63 3.33 3.57a2 2 0 0 1 -1.06 1.06 30.65 30.65 0 0 0 -3.88-3.93c-.18 0-.54.36-.76.81s1.71 2.45 2.6 3.41c-1.7.1-4 0-5-.67-1.42-1.07-5.33-14.62-5.96-18.4s-.58-7.41 2-7.27a20.86 20.86 0 0 0 5.86 1.05c3.81.14 5.21-1.39 6-1.39s2.88.59 2.83 6.33a81.29 81.29 0 0 1 -.98 10.16z"/><path d="m27.59 15.75a3.12 3.12 0 0 1 1-2c.63-.59 1.48-.68 1.66-.32s.27.54-.14.81-1 .27-1.25.94a4.08 4.08 0 0 1 -.54 1.17c-.1.07-.68-.35-.73-.6z"/><path d="m26.47 31.42c.57-.15 1.84.45 1.8 1.07s0 .63-.45.81-1.12-.45-1 .59 1.4 3.77 1.18 4.11-.18.4-.45.31a12.7 12.7 0 0 1 -2-4.58c-.29-1.64.38-2.18.92-2.31z"/></g></svg>