<svg height="64" viewBox="0 0 64 64" width="64" xmlns="http://www.w3.org/2000/svg"><path d="m44.3 24.35a9.38 9.38 0 0 0 2.7-5.22c.45-3.2-.74-11.63-6.78-12.45s-8.75 4.65-8.75 4.65-2.87-5.18-7.88-4.81-7.84 7.68-7.47 12.12a11.27 11.27 0 0 0 4 7.23 15.08 15.08 0 0 0 -2.9 3.13c-1 1.64-1 4.44.7 10.31a96.35 96.35 0 0 1 2.71 12.86c0 .45.05.78 1 2.09s5.67 3.25 6.49 3.25 3.16.12 4.31-1.93a28.58 28.58 0 0 0 2-6 8 8 0 0 0 4.89 1.69c2.54-.21 4.1-.7 5.34-2.72s3-12.57 3.24-17.78-3.6-6.42-3.6-6.42zm-5.71-15.45c1.8-.14 6.36 2.34 6.16 7.72s-2.38 7.28-6.12 7-5.34-4.93-5.55-8.26a6.08 6.08 0 0 1 5.51-6.46zm-19.89 8.18c-.28-3.58 1.73-7.52 5-8.06 1.72-.27 6.49 1.81 6.77 7.69s-2.22 8.91-5.91 8.34-5.56-4.4-5.86-7.97zm13.3 32.21a12.81 12.81 0 0 0 -2.29-1.94c-.16 0-.82.54-.82.78a27.54 27.54 0 0 0 2.67 2.87c-.14.42-.25.79-.35 1.12a31.47 31.47 0 0 0 -3.06-2.68c-.2-.13-.45.57-.53 1s2.16 2.17 3.19 3a4.08 4.08 0 0 1 -.53 1.36 35.28 35.28 0 0 0 -3.36-3.37c-.25-.13-.45.33-.58.66s1.56 2 2.44 2.89a10.38 10.38 0 0 1 -3.05-.59 5.54 5.54 0 0 1 -2.59-1.57c-.08-.2-2-11.05-3.08-15.32s-.9-6.74-.33-7.72a8.12 8.12 0 0 1 2.18-2.42 11.83 11.83 0 0 0 4.52.24 22.63 22.63 0 0 0 3.57-.66s4.15.08 4.11 5a90.75 90.75 0 0 1 -2.11 17.35zm2.15-22.72s-.94-1.15-1.56-1.32-1.52-.33-1.52-.33a8.33 8.33 0 0 0 1.15-3.2 17.1 17.1 0 0 0 1.89 2.34c1.15 1.19 1.64 1.31 1.64 1.31a6.81 6.81 0 0 0 -1.07.7c-.33.33-.49.5-.49.5zm9.49 17.21a9.5 9.5 0 0 0 -1.76-1.88 1.66 1.66 0 0 0 -.86.82 15.06 15.06 0 0 0 2.17 2.67c-.18.57-.34 1-.49 1.37a14.83 14.83 0 0 0 -2.3-2.89c-.24 0-.69.66-.69 1a25.09 25.09 0 0 0 2.13 3.19l-.16.09a6.23 6.23 0 0 1 -.94.32 30.59 30.59 0 0 0 -2-3c-.16-.16-.78.17-1 .54s1 1.81 1.73 2.66a4.61 4.61 0 0 1 -2.1-.32 12.71 12.71 0 0 1 -2.55-1.32s1.11-9.61 1.4-13.88-.47-5.15-.47-5.15.7-1.15 3.41-1.6 5.67-.16 6 2.38-.54 11.22-1.48 15zm-21.81-12.57a40.13 40.13 0 0 0 .78 5.58c.08.21.37.17.61.17s-.29-5.51-.37-5.92-.97-.04-1.02.17zm.49-14.5c.37-.25 0-2 1.07-3.21a2.16 2.16 0 0 1 2.38-.65c.12 0 .2-.37.16-.58s-1.19-1.36-3.12.16a4.48 4.48 0 0 0 -1.64 4c.04.28.83.57 1.15.28zm14.62-3.08c.29-.09 1.11-1.24 1.6-1.4s1-.17 1.07-.45-.74-.95-1.52-.58a4.61 4.61 0 0 0 -1.8 1.8c.04.34.37.71.65.63z" fill="#1d1d1b"/></svg>