<svg height="64" viewBox="0 0 64 64" width="64" xmlns="http://www.w3.org/2000/svg"><path d="m29 38c-.36-.13-.89.18-.8.4a5.63 5.63 0 0 0 1.24 1.56.57.57 0 0 0 .8-.4c.09-.38-.94-1.45-1.24-1.56zm32.81-17.94a1.73 1.73 0 0 0 -2-.63c-.53.27-11.43 6.57-11.43 6.57a1.33 1.33 0 0 1 -.84-.05c-.45-.18-.14-.35-.27-.84s-.58-1.29-2.05-1.07-1.95 2.4-2.09 2.85-1.51 1.64-1.69 1.51a2 2 0 0 1 -.13-1.4 18.49 18.49 0 0 1 1.07-2.31c.18-.35-.18-.66-.62-.71s-1.52 1.11-1.52 1.11.23-1.95.27-2.27 0-.57-.53-.53a10.08 10.08 0 0 0 -3.43 2.89c-.89 1.25-.75 3.47-.89 3.47s-.4-.27-.67-.44-.88-.32-2.22.22-1.69 2.49-1.69 2.49l-1-.05a2 2 0 0 0 -1.6 1 3.27 3.27 0 0 0 -3.25 1.51 8.86 8.86 0 0 0 -.93 4.9s-1.52 1.11-1.87 1-.22-1.74-.13-3.07a7.64 7.64 0 0 1 .8-2.67c.17-.54.13-.76-.36-1s-2.49 2-2.49 2a11.52 11.52 0 0 0 -.31-1.92c-.18-.44-.27-.44-.62-.44s-.94.44-2.1 2.22a5.69 5.69 0 0 0 -.8 3.74 12.55 12.55 0 0 0 -1.77-.18c-.76 0-2.18 2.45-2.76 2.85s-1.29.09-2.14.18-2.58.8-2.84 3.73 1.09 3.36 1.09 3.36-4.85 3.33-5.47 3.82a1.13 1.13 0 0 0 -.45 1.51c.27.49.89.76 2.09.23s6.54-3.25 6.76-3.25.4.8.63 1.2 1.73.62 3 .62 1.65.94 2.45 1.16 1.2-.27 2.8-1.91a12.77 12.77 0 0 0 2.45-4.36 3.27 3.27 0 0 0 .57-.05 5.44 5.44 0 0 0 3.17-.89c1.86-1.06 1.78-1.78 1.6-2.44s-.49-.94-1.74-1-1.46-.62-1.46-.62l2.17-1.55 1 .62a5.83 5.83 0 0 0 3.33.44c1.25-.18 3.07-3.2 3.07-3.2s.4.45 2.14.62a3.11 3.11 0 0 0 2.71-1.2 4.14 4.14 0 0 0 .62.58 8.32 8.32 0 0 0 3.25.67c1.6 0 3-.67 3.16-1.16s-.23-1.11-1.69-1.6a2.51 2.51 0 0 1 -1.74-1.38s0-.27.27-.18a1.68 1.68 0 0 0 2 .18c1.2-.58 1.11-.8 1.2-.93s1.06.22 1.91.35a4.49 4.49 0 0 0 3.38-1.78c.53-1 .31-2.26-.4-2.49a1.34 1.34 0 0 1 -.89-.8s10.54-6.18 11.47-7a1.56 1.56 0 0 0 .45-2.23zm-40.34 26.94c-.31.58-2.17 3.3-2.84 4.19s-1 1.24-1.38 1.06-.36-.8-1.78-.89-2.36.14-2.85-.35-.49-1.74-1.73-2.72a5.8 5.8 0 0 0 -2.18-1.19c-.62-.4-1.2-1.43-.58-3s1.25-2.21 2.23-2.1a2.68 2.68 0 0 0 2.58-.8c.84-.89 2-2.93 3.33-2.31s1.34 2.13 2.4 2.58 1.29 0 1.65.93a9.61 9.61 0 0 0 .93 2.41 2 2 0 0 1 .22 2.19zm4.05-3.42c.85.22 1.29.36 1 .93a4 4 0 0 1 -2.05 1.25 12.06 12.06 0 0 1 -1.73 0 20.26 20.26 0 0 0 -1.44-3.76c-.67-1-.76-1.29-1.12-1.42a3.64 3.64 0 0 1 -1.64-1.11c-.8-.85-1.42-1.6-1.42-1.6a4.37 4.37 0 0 1 .44-2.27c.31-.49 1.11-1.78 1.2-1.29s-.27 3.2.18 4a4.07 4.07 0 0 0 1.51 1.69c.45.13.36-.72.36-.72a8.1 8.1 0 0 1 -1-2.44c-.13-1 .49-1.38.89-1.83s1.07-.71 1-.53a9.72 9.72 0 0 0 -.54 3.2 7.7 7.7 0 0 0 1.6 4.32 5.79 5.79 0 0 0 2.76 1.54zm6.63-4a3.67 3.67 0 0 1 -3.07 1.15c-.76-.09-1.73-.44-1.69-.75s.13-1.25-.4-1.69a3.49 3.49 0 0 0 -1.51-.58 1.74 1.74 0 0 1 -.71-1.82 4.78 4.78 0 0 1 3.15-2.89c1.34-.17 1.74.85 2.23.85s.84 0 .71-.49-.18-.49-.45-.67a.39.39 0 0 1 .09-.71 3.88 3.88 0 0 1 3.12 2.45 5.67 5.67 0 0 1 -1.47 5.11zm5.07-1.69a3.37 3.37 0 0 1 -1.91-.05 1.8 1.8 0 0 1 -.85-.31 4.76 4.76 0 0 0 -.31-4.18 22.16 22.16 0 0 0 -2.15-2.44s1.07-1.78 2-1.82.53.62 1.38.8 1.73-.05 1.82.26a2.62 2.62 0 0 1 -.27 1.69c-.31.4.14 1.29.49 1.51a1.39 1.39 0 0 1 .85 1.47c-.12 1.03-.34 2.72-1.05 3.03zm7.16-.27c0 .31-1.51.85-2.67.49a12.94 12.94 0 0 1 -2.71-1.42s.58-2.67-.18-3.47-.75-.58-.8-.93.18-2-.4-2.58a7.05 7.05 0 0 0 -.89-.8 3.83 3.83 0 0 1 .27-2.27c.4-1.11 2-3.07 2.23-2.67a3.81 3.81 0 0 1 0 2.22 5.4 5.4 0 0 0 -.84 2.63c0 1.38.08 1.73.35 1.87s.49.17.45-.09a6.41 6.41 0 0 1 .22-2.54c.31-.49.67-.93.75-.71s-.8 5.25 1.2 7.61 3.02 2.31 3.02 2.62zm5.91-6.27c.18.89-2.09 2.58-2.8 2.31s-.75-1-1.42-.89-1.34 1.69-2.31 1.51-1.29-.66-1.38-1.77.18-1.38-.14-1.69-.35-1.21-.17-1.25a5.24 5.24 0 0 0 2-2.22c.31-1 .54-2.45 1.34-2.45s.93.85 1.15 1.51-.31.54.58.8 1.29-.09 1.51.54-.4 1.25.35 2.14 1.12.53 1.29 1.42zm-18.54 4.1a.62.62 0 0 0 -.89.48 3 3 0 0 0 1.14 1.38c.35.14.62-.17.75-.35s-.56-1.29-1-1.51zm-1.51 1.33c-.32-.09-.64 0-.67.36a2.89 2.89 0 0 0 1.43 1.69.7.7 0 0 0 .66-.45c.04-.22-1.11-1.51-1.42-1.6zm-17.53-1a.74.74 0 0 0 1-.67c-.09-.36-1-.8-1.25-1.69s1-2.54 1.29-3.51a4 4 0 0 0 -1-3.25c-.49-.22-.49.62-.49.89a11.76 11.76 0 0 1 .31 1.73c.14 1.38-.93 2.14-1.29 3.61s1.2 2.75 1.43 2.87zm9.48-6.32c.09-.49-.14-.49-.54-1.24s1-1.87 1.25-3.38a3.15 3.15 0 0 0 -.71-3c-.72-.75-.27-3.42-.32-3.73s-.26-.45-.62-.27-.31.27-.44 1.82.13 2.58.66 3.07.54 1.16.23 2.49-.73 1.62-.94 2.67a2.41 2.41 0 0 0 .31 1.87c.32.17 1.03.17 1.12-.32zm6.81-1.22c0-.36-.18-.49-.85-1.56s-.15-1.78.22-2.68a20.45 20.45 0 0 0 1.47-4 2.76 2.76 0 0 0 -1.43-2.53c-.26 0-.31.4-.26.71s.17.31.44.93a3.43 3.43 0 0 1 -.36 2.49c-.4.85-1.53 2.09-1.6 3.29a5.12 5.12 0 0 0 1.07 3.56.69.69 0 0 0 1.3-.21zm4.8-4.71c.49.13.58-.05.76-.36s-.32-1.38-.45-2.76.89-2.75 1.11-3.91a4.49 4.49 0 0 0 -1.06-3.25c-.67-1 .08-1.91.31-2.4s-.05-.62-.36-.76-1.37.28-1.24 2c.22 2.89 1.11 3.34 1.2 4.49s-1.2 2.58-1.2 4 .39 2.81.88 2.95zm-17.17 20.63c-.58-.35-.23-.31-.67-1a2.36 2.36 0 0 0 -1.78-1 1.16 1.16 0 0 0 -1.16.49c-.4.62.67.84 1.16.8s.76.31 1.07.84.89.76 1.42 1.42.09 2.54.36 2.85.44.31.8.18.58-1.34.4-2.54a2.76 2.76 0 0 0 -1.6-2.04zm11.6-9.25c-.13-.31-.48-.58-1.15-.18a2.06 2.06 0 0 0 -.89 1.87c.13.58.89.49 1.07.31s0-.53.17-1 .94-.69.8-1zm16.06-6.36c-.67.05-.36.71-.22 1.11s.71.23 1.15.31.36.81.4 1.12.18.4.58.44.8-1.24.36-2.09-1.82-.92-2.27-.89z" fill="#1d1d1b"/></svg>