<svg height="64" viewBox="0 0 64 64" width="64" xmlns="http://www.w3.org/2000/svg"><path d="m60.91 27.57c-.84-.73-6.12-3.6-10.11-5.73s-8-5.28-8.48-5.28-5.12 1.8-5.12 1.8a5.75 5.75 0 0 0 -1.12-2c-.62-.5-1.07-.33-2-.33s-.79-1.18-2-1.24a5.66 5.66 0 0 0 -2.19.34c-.56.11-.22 0-1.91.16s-3 2.25-3.37 3.21-1.12 1.4-2.08 2a5.07 5.07 0 0 0 -1.57 2.08s-2.7 1.13-7 2.42-10.96 3.36-11.7 3.75.11 1.35.33 1.52 3.09 1.73 6.86 3.82a56.88 56.88 0 0 1 11 7.25c3.54 3.14 8.09 7.36 8.77 7.75s2 0 3.15-.56 7.86-5.9 13.14-9.44a100 100 0 0 1 10.68-6.35 43.31 43.31 0 0 0 5.81-3.65c.21-.34-.24-.79-1.09-1.52zm-40.62-2.78c.82-.48 1.35-.7 1.49-1.43a3.05 3.05 0 0 1 1.22-2.14 6.53 6.53 0 0 0 2.34-2.39c.39-.92 1.79-2.53 2.58-2.69s1.88.14 2.42-.12a3.06 3.06 0 0 1 1.66-.47c.54.08 0 .89 1.24 1.2s1.83-.11 2.42.54.53 1.74 1.23 2.3 1.49.93 1.58 1.71-.17 1.72.5 2.56 1 .11 1.74 1.43.37 1.83 1.18 2.2.9.05 1.46.56.2.76.79 1.06a9.74 9.74 0 0 1 1.29.62c.48.34 1.3 1.3 1.13 1.58s-.59.16-1.35.75-.37.71-1 .9a5.77 5.77 0 0 0 -2 .57c-.85.5-.71.7-1.16.7s-3.17-.4-3.54 0-.39 1.21-1.18 1.35-1.48-.06-2.13.31-.51.42-1.1.47a19.37 19.37 0 0 1 -2.64 0c-.67 0-.9.06-1.18 0a6.87 6.87 0 0 0 -1.63-.67 9.39 9.39 0 0 1 -2.69-.51c-.85-.44-.79-1.74-1.8-2s-2.75.14-3.34-.34-.9-1.46-2.11-1.85-1.15-.2-1.8-.42-1.26-.82-.62-1.27c.23-.16 3-1 3.4-1.88s.79-2.15 1.6-2.63zm26.89 11.21c-2.43 1.62-5.74 4-8.71 6.15a10.72 10.72 0 0 0 -1.58-1.46.55.55 0 0 0 -.61.39c-.05.25.92 1.22 1.34 1.68l-.8.59a14.24 14.24 0 0 0 -2.31-2.49c-.26-.06-.76.14-.82.42a16.76 16.76 0 0 0 2.31 2.65l-.74.54a13.15 13.15 0 0 0 -2.78-2.47.48.48 0 0 0 -.59.5 22.67 22.67 0 0 0 2.56 2.53l-.6.43a16.23 16.23 0 0 0 -2.77-2.34c-.28 0-.82.14-.79.39a25.85 25.85 0 0 0 2.83 2.49l-.79.56a30 30 0 0 0 -2.88-2.53.49.49 0 0 0 -.73.42 18 18 0 0 0 2.69 2.72h-.05a2.55 2.55 0 0 1 -2 .08c-.56-.28-7.9-7.87-11.77-10.45s-12.69-7.1-12.75-7.66c0-.35 8.29-2.53 10.82-3.37s3.82-1.23 3.82-1.23a23 23 0 0 0 -1.38 1.88c-.34.59 0 .87-1.24 1.35s-2.55 1.06-2.58 1.54-.25 1.74.9 2 .87-.28 1.85.42 1.58 1.94 2.67 2.05 3.2.2 3.51.56 0 1.63 1.46 1.88 3 .37 3.74.85a3.11 3.11 0 0 0 1.71.39 10.94 10.94 0 0 1 2.39-.36 4.08 4.08 0 0 0 1.69-.31 4.59 4.59 0 0 1 1.49-.45c.7-.06 1.26.11 1.57-.28a9.51 9.51 0 0 1 1.15-1.06 15.75 15.75 0 0 0 3.29.14 3.53 3.53 0 0 1 1.57-1.14c.68-.11 1.32-.08 1.46-.31a2.62 2.62 0 0 1 1.49-1.15c.93-.28 1.24-.45 1.32-.78a3.14 3.14 0 0 0 -.54-1.76c-.28-.31-.73-1.1-.87-1.16s-1.47-.33-1.58-.53.17-.79-.62-1.12-1.15 0-1.46-.54-.25-.81-.59-1.23a10.54 10.54 0 0 0 -1.54-1.63c-.37-.23-.56-.17-.73-.48s-.17-2.3-.48-2.73a6.79 6.79 0 0 0 -.48-.59c-.14-.16-.39-.3-.25-.44a31.91 31.91 0 0 1 3.68-1.38c.2 0 5.51 4.13 10 6.46s7.76 3.85 7.67 4.1-7.18 3.67-12.57 7.27zm-26.78-6.94c.26-.09.26-.48.4-.59s1 0 1.26-.23-.22-.67-1.21-.61a1 1 0 0 0 -1.06 1c-.06.29.36.51.61.43zm6.69-1c.31.08.45 0 .59-.31s0-1-1.1-1.35a1.68 1.68 0 0 0 -1.85.62c-.17.19.06.76.37.73s.67-.37 1.09-.51.59.76.9.81zm-3.93 4c.25 0 .39-.19.84-.53s1.07 0 1.32-.14-.28-.9-1.15-.93a1.33 1.33 0 0 0 -1.29.76c-.17.34.02.84.28.84zm7.3-1.06c-.56-.23-1.44.57-1.52.73s.12.76.48.76.45-.42.7-.56 1.13-.06 1.32-.17-.44-.57-.98-.76zm4-2.89c.34-.17.11-.48-.2-.85s-1.13 0-1.34.12a.87.87 0 0 0 -.29 1c.17.25.71.16 1-.14s.48 0 .82-.16zm2.75-2.25c.43.05.65.64.79.9s.25.22.53.11.06-1.18-.39-1.49a1.66 1.66 0 0 0 -1.63-.28c-.17.08-.11.36.06.56s.21.11.63.17zm-6.21-6.86a5.23 5.23 0 0 1 1 0c.37.09.56.51.73.7s.37 0 .59-.39-.45-.95-.93-1.12a3.18 3.18 0 0 0 -1.43 0c-.44.11-.13.81.04.81zm-3.54 1.68c.19-.05.19-.22.47-.22s.45.65.93.81.25-.05.39-.36-.39-1.12-1.15-1.38a1 1 0 0 0 -1.23.34c-.31.4.39.9.59.84zm-3.46 3.69c.25 0 .37-.37.53-.56s.51 0 .62.05a.63.63 0 0 0 .51-.11c.19-.14 0-1.15-.68-1.15a2.12 2.12 0 0 0 -1.43.81c-.34.48.2.96.45.96zm5.08-.45c.15.19.2.08.57 0s.42.45.78.51.4-.45.2-.93-1.22-.62-1.57-.39-.12.61.02.81zm3.35-2.19a.79.79 0 0 0 -1-.09c-.14.14-.11.4 0 .76s.65.37.9.25.29-.65.1-.92zm.62 1.43c.14.28.19.06.53.11s.25.23.59.37.45-.09.56-.34-.14-.82-.78-.9a2 2 0 0 0 -1 .08c-.18.12-.04.4.1.68zm2.69-2.16c.31-.19-.19-.51-.45-.53-.42 0-.42.42-.25.67s.39.08.7-.14zm-6.66-2.9c.31-.19-.19-.51-.44-.53-.43 0-.43.42-.26.67s.4.06.7-.14zm-1.79 6.6c.31-.19-.2-.51-.45-.53-.42 0-.42.42-.26.67s.42.06.71-.14zm3.65 2.56c.31-.2-.2-.52-.45-.53-.42 0-.42.42-.25.67s.39.06.7-.14zm-3.79 6c-.42 0-.42.42-.26.67s.4.06.71-.14-.2-.56-.45-.57zm11.4-1.32c.31.05.31-.14.48-.28s.73.11 1-.12-.25-.64-.67-.76a1.6 1.6 0 0 0 -1.07.2c-.38.27-.05.86.26.92zm5-.9a.54.54 0 0 0 0-.79c-.22-.2-.67-.07-.89 0s-.34.45 0 .76.61.1.84-.01zm-13.48 2.88c-.31.14-.34.45 0 .76s.67.11.9 0a.55.55 0 0 0 0-.79c-.23-.2-.68-.07-.9.03zm-2.53-3.92c-.31.14-.34.45 0 .76s.68.11.9 0 .25-.59 0-.79-.68-.03-.9.03zm6.46 1.25c-.31.14-.34.45 0 .76s.68.11.9 0 .25-.59 0-.79-.68-.07-.9.03zm2.7-2.78c-.31.14-.34.45 0 .76s.67.11.9 0a.55.55 0 0 0 0-.79c-.23-.2-.68-.07-.9.03zm-10.62-6.8a.55.55 0 0 0 0-.79c-.23-.19-.68-.07-.9 0s-.34.45 0 .76.67.14.9.03zm-12.81 6.66a3.71 3.71 0 0 0 -2.19 0c-.23.08-.28 1.09 0 1.35s.31.14.87.14a6.84 6.84 0 0 0 1.32.05c.42-.08.65-.59.67-1.06s-.22-.4-.67-.48zm-.34.93c-.28 0-.7 0-.95 0s-.2-.37 0-.45 1-.09 1.07.11.16.31-.12.34zm3.18 3a1.81 1.81 0 0 0 -1.52.2 1.16 1.16 0 0 0 -.42 1.2c.14.23.28.23.84.4a3.6 3.6 0 0 1 1.15.56 2.69 2.69 0 0 0 1.43.17c.4-.06 1-.93.57-1.41a3.39 3.39 0 0 0 -2.05-1.09zm1.12 1.8c-.42 0-.84-.37-1.18-.42a6.45 6.45 0 0 1 -.76-.2s-.14-.42.45-.42c.14 0 1.32.14 1.52.45s.39.62-.03.62zm3.23 1.63c-.62.17-.39 1-.17 1.2a1.84 1.84 0 0 0 1.41.23c.5-.08.28-.82.11-1.15s-.81-.39-1.35-.25zm5.84 2.72c-.45.11-.78 1-.36 1.35a1.87 1.87 0 0 0 1.57.34.86.86 0 0 0 .79-1.1c-.2-.61-1.48-.69-2-.56zm11.18-1c-.36.11-.53.42-.33.59a1.21 1.21 0 0 0 .9.2c.28-.06.5-.48.31-.68a1 1 0 0 0 -.88-.12zm5.12-15.68a1.12 1.12 0 0 0 -1.18-.17c-.45.22-.17.81.42 1.37s1.09-.14 1.18-.42-.02-.51-.42-.78zm5.64 2.95a7.27 7.27 0 0 0 -3.14-.45c-.82.19-.48 1.15-.23 1.49a4.73 4.73 0 0 0 2.59 1.09c1.26.17 1.66-.11 2-.45s.02-1.18-1.22-1.68zm.06 1.23a2.77 2.77 0 0 1 -1.85.06c-.68-.31-1.3-1.13-.62-1.1.39 0 1.29-.05 1.52.17s.78.28.95.54.25.25 0 .33zm3.26 1.74c-.48.09-.39.82-.14 1a1.06 1.06 0 0 0 .93.14.67.67 0 0 0 .5-.9c-.11-.32-1.01-.28-1.29-.24z" fill="#1d1d1b"/></svg>