<svg height="64" viewBox="0 0 64 64" width="64" xmlns="http://www.w3.org/2000/svg"><path d="m37.78 22.58c1.22-1.58 3.78-6.08 3.82-10.26s-1.2-6.93-5.15-9-8.84-1.69-10.88.53-3.57 4.52-3.07 8.43 1.42 5.72 4.4 9.82a15.6 15.6 0 0 1 2.93 8.52 7.3 7.3 0 0 0 -2.62 3.2c-.22.93 0 20.26.22 23.32a5.82 5.82 0 0 0 2.4 4.62 11 11 0 0 0 4.35.18 4.15 4.15 0 0 0 3-3.78c.27-2.09.18-21.94-.09-23.72s-2.53-3.19-2.53-3.19a15.84 15.84 0 0 1 .18-4.18c.38-2.67 1.84-2.89 3.04-4.49zm-2.78 28.07a3.34 3.34 0 0 0 -1.32-.57c-.27 0-.36.31-.27.66s1.2.89 1.59 1.09v1.13.75a9.19 9.19 0 0 0 -2.22-1.77c-.36 0-.49.31-.36.76a13.14 13.14 0 0 0 2.58 2.07v1.44a14.94 14.94 0 0 0 -2.58-2.05c-.31 0-.58.31-.54.71a18 18 0 0 0 3 2.57 9.29 9.29 0 0 1 -.19 1.22 15.44 15.44 0 0 0 -2.79-2.28c-.36-.08-.4.49-.36.94s1.74 1.68 2.46 2.24c-1 .31-3 .33-3.46-.15s-.89-2.14-.89-4.94-.17-19.14 0-19.89a2.41 2.41 0 0 1 1.16-1.58c.68-.1 2.57-.49 3.51 1.2.78 1.43.68 11.4.68 16.45zm-2.15-22.91a10.56 10.56 0 0 1 0 3 1.2 1.2 0 0 1 -1.34-.18s-.13-4.13-1.19-5.64-4-5.2-5.07-7.6-2.31-5.9-1-9 4.18-5.2 9.33-4.71 6.58 4.71 6.62 7.64a15.29 15.29 0 0 1 -3.86 10.75c-3.27 3.47-3.58 4.67-3.49 5.74zm-1.06-21.74a3.29 3.29 0 0 0 -3.79 1.26 5.85 5.85 0 0 0 -1.12 4.58c.09.44 1.07.75 1.29.39a23.48 23.48 0 0 1 .67-3.06c.71-2 2.75-1.87 3.11-2.22a.57.57 0 0 0 -.16-.95zm0 12.17c-.49-.18-.79.53-.63.85a14.81 14.81 0 0 0 2.71 2.44c.49.27.49-.27.49-.53a11.54 11.54 0 0 0 -2.57-2.79zm1.59-1.69c-.31-.13-1.11.62-.88.85a34.88 34.88 0 0 0 3 2.22c.26.09.26-.18.4-.53s-2.2-2.43-2.52-2.57zm3.16.32c.31 0 .18-.18.22-.49s-1.51-1.87-1.78-2-1 .64-.93.8a10.57 10.57 0 0 0 2.49 1.66z" fill="#1d1d1b"/></svg>