<svg height="64" viewBox="0 0 64 64" width="64" xmlns="http://www.w3.org/2000/svg"><path d="m13.25 32.81a2.52 2.52 0 0 0 -2.25 1.86c-.21.67.85.67 1.06.53s.56-1.13 1.55-1.2a2.2 2.2 0 0 1 1.59.5.78.78 0 0 0 .49-.36c.17-.31-.57-1.62-2.44-1.33zm3.42-1.81c.35-.11.42-.28.81-.28s.42.32.56.42.64 0 1-.39-.24-.81-1.23-1a2.81 2.81 0 0 0 -2.15.5c-.4.44.66.87 1.01.75zm2.64 15.14a2.15 2.15 0 0 0 -1.44 1c-.32.35.45.7.91.7s.14-.35.67-.56.92.1 1.16.07.21-.21.21-.56-.49-.85-1.51-.64zm-.42-3.06c.1-.14.07-1.06-1.48-1a1.39 1.39 0 0 0 -1.41 1.68c.07.21.7.28.91.1s0-.53.39-.81 1.48.18 1.59.04zm-9-4.37c.25 0 .18-.14.11-.7s-1.59-1.38-3-.57a2.4 2.4 0 0 0 -.88 2.86c.1.28.91.38 1.09.07s0-.92.67-1.55 1.75-.06 1.99-.1zm2.86-.42c-1.84.28-1.85 1.34-1.91 1.58s.5.92.78.78.53-.78 1.16-1.09 1.34.14 1.62.07.25-.07.35-.43-.19-1.2-2.02-.9zm-2.95 4.52a2 2 0 0 0 -1.3 2.6c0 .28.53.46.84.21s-.28-1 .81-1.58 1.59.49 1.8.6.46 0 .53-.46a1.91 1.91 0 0 0 -2.68-1.37zm11.8-13.42c.25 0 .46-.21 1.23-.07s1 1 1.27 1.23a.54.54 0 0 0 .77-.21c.18-.25.11-1.16-.88-1.76a2.72 2.72 0 0 0 -2.39-.28.65.65 0 0 0 0 1.09zm9.54 11.94a1.41 1.41 0 0 0 -1.86.42c-.25.28.17.67.95.56s.42.39.84.67.32.11.78-.07.35-.91-.71-1.58zm.46-6.69c-1-1.17-2.71-.1-2.92.07s.28.81.56.95.92-.28 1.55 0 .25 1.51.35 1.93.5.5 1 .36.45-2.15-.54-3.31zm.81 5.07c-.28.53.18.88.7 1a.68.68 0 0 0 .71-1 .91.91 0 0 0 -1.41 0zm-11.16-4.71c.17-.39-.81-1.66-2.22-1.27s-1.66 1.13-1.66 1.55.67.74.88.7.29-.66 1-.95 1.4.39 1.65.36.17-.01.35-.39zm2.92 5.84c.25.15.42.18.81-.07s.14-2.28-1.87-2.6-2.11 2.18-2.11 2.31.7.39.91.35-.07-1.12 1.13-1.23.88 1.09 1.13 1.23zm1.13 3a2.2 2.2 0 0 0 -2.12.88c-.14.28.18 1.09.53 1.13s.35-.67 1.09-.7.85.56.95.63.53-.14.67-.49-.24-1.18-1.12-1.43zm-.3-11.28a1.8 1.8 0 0 0 -2 1.44c-.07.42.18.81.43.81s.1-.71 1.23-.92 1.51.78 1.86.78.18-.07.39-.39-.28-1.65-1.91-1.72zm33.71-27.4c-2-.42-4.5.39-7.57 2.54s-22.89 18.52-22.89 18.52a1 1 0 0 1 -.73.18c-.53 0-.5-1.24-1.62-1.45s-1.84.39-2.72.43-.91-.38-4.18-.38-3.52 2.08-3.73 2.22a7.94 7.94 0 0 0 -2.79.21c-1.86.53-2.07 3.55-2.14 3.8s-.18.14-1.84.42-2 2.15-2.21 2.54-1.26.32-1.62.67c-1.8 1.75-3.07 4.6-2.67 8.93a16.21 16.21 0 0 0 6 11.06c3.59 3.06 7.93 5 15 3.7s10.57-4.79 14.2-10.11a15.06 15.06 0 0 0 2.6-10.56 15.29 15.29 0 0 0 1.2-1.66c1-1.41 9.69-12.08 13.84-17s7.29-7.33 7.22-9.58a4.43 4.43 0 0 0 -3.35-4.48zm-21.71 38.95c0 .1-2.32 6.2-7.11 9s-6.34 3.45-13.06 3.13-10.83-6.53-11.25-7.38-.53-1.26-.18-1.19c.2 0 4.44 3.24 8 3.76a41.3 41.3 0 0 0 11.8 0 15.26 15.26 0 0 0 8.73-4.65c2.07-2.11 2.88-3.16 3.07-3.16s.06.38 0 .49zm-1.48-2.32a18.68 18.68 0 0 1 -8.8 6.9c-5 2-13.13.67-16.48-.11a7.75 7.75 0 0 1 -5.88-6.3c-.49-2.82-.25-3.7-.11-4s.32.07.57-.77.35-1.83 1.27-2.11c.54-.17.7 0 1-.46s.67-1.9 1.3-2.22 1.94.28 2.65-.49.7-2.08 1.44-3a2.33 2.33 0 0 1 1.87-1c.31.07 1.09.42 1.54 0s.92-1.76 2.86-2 2.32.42 3.59.25 2.85-.53 3.27-.14.25 1.33 1.13 1.86 1.37.32 1.76.6.92 1.45 1.48 2 .56.63 1.2.7 1.86-.07 2.22.39-.07 1.2.74 1.55.59-.18 1.33.56.6 2 1 2.33.77.31.84.84a7.87 7.87 0 0 1 -1.77 4.62zm17.93-23.1c-.18.21-13.84 15.49-14.37 16s-1.06 1.8-1.41 1.59-.6-.29-.56-.57.21-.38.07-.77-.46-1.2-.46-1.2 16.36-15.62 16.61-15.44.31.17.14.39zm6-8.39c-.45 1.06-11.45 11.24-15.53 15.01s-7.78 7.69-7.78 7.69a1.36 1.36 0 0 1 -1.23-.53c-.46-.63-.14-1.83-1.44-2.07s-2.4.14-2.68-.39 0-1.16-.74-1.52a7.94 7.94 0 0 1 -1.13-.63c.08-.12 19.37-15.55 22.08-17.63s5.81-3.13 6.94-2.71a2.33 2.33 0 0 1 1.48 2.78z" fill="#1d1d1b"/></svg>