<svg height="64" viewBox="0 0 64 64" width="64" xmlns="http://www.w3.org/2000/svg"><path d="m61 14.58c-.08-.63-2.21-3.34-6.15-4.6s-9.85-1.7-16.15-1.89a116.38 116.38 0 0 0 -23.36 1.61c-8.15 1.5-12 4.1-12.28 4.57s.43 9.17.55 9.53a22.12 22.12 0 0 0 3.15 2.2s2.24 21.82 3.24 23.52 7.09 4.56 12.28 5.71 15.44 1 22-.79 10-4.73 10.36-5.63 2.68-24.58 2.68-24.58l1-.43a5.4 5.4 0 0 0 2.36-1.89c.32-.59.32-6.7.32-7.33zm-6.48 17.26a6.16 6.16 0 0 0 -1.68-1.07c-.28 0-.63.59-.59.79a7.12 7.12 0 0 0 2.11 1.69c-.06.52-.12 1-.19 1.59a7.57 7.57 0 0 0 -2-1.19c-.44 0-.52.83-.48.94a13.37 13.37 0 0 0 2.31 1.89c-.06.48-.11 1-.17 1.44a10.09 10.09 0 0 0 -2.55-1.75c-.39 0-.55.62-.55.74a19.38 19.38 0 0 0 2.93 2.45c-.06.5-.12 1-.18 1.45a14.63 14.63 0 0 0 -2.91-2c-.39 0-.46 1.08-.39 1.26a17.48 17.48 0 0 0 3.11 2.3c-.08.7-.16 1.35-.24 1.94a22.49 22.49 0 0 0 -3.27-2.86c-.31 0-.76 1-.67 1.15a49.59 49.59 0 0 0 3.73 3.27c-.06.49-.12.88-.16 1.16a28.44 28.44 0 0 0 -3.92-2.78c-.39 0-1 .67-1 .79a32.83 32.83 0 0 0 4 3.27c-.23.19-.5.39-.82.62a21.83 21.83 0 0 0 -3.49-2.67c-.31 0-1.16.51-1.1.79a23.64 23.64 0 0 0 3.16 2.79c-.31.19-.65.37-1 .55a16.93 16.93 0 0 0 -3.74-2.79c-.47-.08-.93.67-.86.94a21.6 21.6 0 0 0 3 2.62 26.91 26.91 0 0 1 -7.5 2c-8.16 1-16.66.12-20.8-1.42s-6.26-2.74-6.46-3.13-2.67-21.5-2.52-21.94a64.42 64.42 0 0 0 18.63 2.6c10.28-.11 18.31-1.37 21.54-2.27s5.44-1.85 5.44-1.54c0 .07-.31 2.84-.72 6.38zm4-10.84c-.2.44-7.09 4.37-17.06 5.12s-19.1.87-24.81-.23-10.25-2.8-10.76-3.31c-.34-.34-.47-6.7-.31-7.13s4.76-2.84 15.36-4.06 23.63-.82 29.34.2 8.27 3.47 8.38 3.82a33.82 33.82 0 0 1 -.11 5.59zm-39.04 2.17c-5.79-.67-11.48-2.33-11.93-2.25s-.28.79 0 1.07 5.67 1.34 11 2.16a116.47 116.47 0 0 0 13.89.85 4.56 4.56 0 0 0 -.08-.94c-.08-.22-7.09-.22-12.88-.89zm37.45-3.27c-.2-.08-.71.39-7.36 1.81s-11.14 1.13-11.42 1.34-.16.95.23 1 2.33-.11 8.78-.82 9.89-2.48 10.05-2.72-.08-.51-.28-.61zm-49.38-2.17c-.08.2.78.4.9.36a8.77 8.77 0 0 0 0-1.81c0-.24-.28-.36-.75-.36s-.08 1.63-.15 1.81zm4.05 1.34a4.71 4.71 0 0 0 0-2.12c-.12-.2-.72-.31-.87-.12a5.11 5.11 0 0 0 0 2.13c.27.23.67.19.87.11zm3.74.87a4.75 4.75 0 0 0 0-2.13c-.12-.19-.72-.3-.86-.12a4.8 4.8 0 0 0 0 2.13c.23.24.67.18.86.12zm3.78.35a4.7 4.7 0 0 0 0-2.12c-.11-.2-.72-.31-.86-.12a4.8 4.8 0 0 0 0 2.13c.23.23.67.19.86.11zm4.93.44a5.05 5.05 0 0 0 0-2.13c-.12-.2-.72-.3-.87-.12a4.8 4.8 0 0 0 0 2.13c.24.24.67.2.87.12zm3.78 0a4.9 4.9 0 0 0 0-2.13c-.12-.2-.72-.3-.87-.12a4.8 4.8 0 0 0 0 2.13c.24.24.67.2.87.12zm3.35.08a4.9 4.9 0 0 0 0-2.13c-.11-.2-.71-.3-.86-.12a4.8 4.8 0 0 0 0 2.13c.23.23.68.19.86.12zm2.87-2.29a4.8 4.8 0 0 0 0 2.13c.16.23.59.2.79.12a5.05 5.05 0 0 0 0-2.13c-.04-.2-.64-.3-.79-.12zm4.57 1.89a4.71 4.71 0 0 0 0-2.12c-.12-.2-.72-.31-.87-.12a4.75 4.75 0 0 0 0 2.12c.25.24.67.2.87.12zm3.94-.31a5.05 5.05 0 0 0 0-2.13c-.12-.2-.72-.3-.87-.12a4.8 4.8 0 0 0 0 2.13c.24.24.67.2.87.12zm3.11-.51c.16.11.51 0 .75-.12s0-.4-.12-1.07-.44-1.3-.71-1.37a.9.9 0 0 0 -.71.07 7.24 7.24 0 0 0 .35 1c.2.38.28 1.37.44 1.49zm3.33-2.41c.47.59.31 1.38.43 1.54s.83 0 1-.43a3.31 3.31 0 0 0 -.78-2.13c-.36-.24-1.54.12-1.54.12-.11.31.43.31.89.9zm5.15.48a3.77 3.77 0 0 0 -.66-1.93c-.24-.12-1.15.27-1.15.27a4.48 4.48 0 0 1 .91 2.09c.14.2.85-.09.92-.43zm1.42-.24c.24.35.67 0 .87-.16s-.12-1.49-.28-1.69-1.18-.16-1 0c.43.43.2 1.49.43 1.85zm-40.13 13a.63.63 0 0 0 .08-.67c-.16-.44-1.69-.67-2.44-.4s-.92 1.18-1.07 1.46.71.79 1 .83.28-.52.87-1a1.92 1.92 0 0 1 1.58-.22zm3.15.94a9.8 9.8 0 0 1 1.5.43c.2 0 .47-.15.71-.35s-.48-1-1.22-1.26a2.76 2.76 0 0 0 -1.89.12c-.24.19-.08.63.07.94s.5.12.85.12zm4.45 1.3a1.17 1.17 0 0 0 -1.42 0c-.39.36-.39 1.3.48 1.26s1.24-1.02.96-1.26zm2.44.63a8.19 8.19 0 0 0 1.34-.79c.71-.39 1.46.36 2 .51s.44 0 .67-.35-.59-1.22-2.05-1.34a2.8 2.8 0 0 0 -2.56 1.06.65.65 0 0 0 .62.91zm6.74-.39c.35.11.75-.08 1.3-.2s1.3.2 1.61.16.2-.24.16-.59-.47-.91-1.42-.91a3 3 0 0 0 -1.73.39c-.22.25-.26 1.03.1 1.15zm10.38 1.61c.19-.39-.28-1-1.46-1.1s-2.14 1.28-2.32 1.77c-.28.67.47 1.22.74 1.22s.44-.23.59-.71a1.27 1.27 0 0 1 .87-.86c.47-.2 1.38.08 1.58-.32zm4.68-2.32c.44-.24 0-1.62-.94-1.85a2.74 2.74 0 0 0 -1.85.12c-.4.15-.4.63 0 1s.51.12 1.22.12.71.63.94.79.2.05.63-.18zm1.81-1.62a.78.78 0 0 0 0 1c.23.35.39.12.82.31s.32.83.59 1.11.36 0 .59-.2 0-1.38-.31-1.73-1.35-.94-1.69-.49zm-30.71 5.79c-.12.2.23.75.55.83s.31-.2.67-.35 1.06.15 1.41-.08-.11-.67-1.06-.91a1.63 1.63 0 0 0 -1.57.51zm-1.86 8c.4-.4-.43-10.2-.82-10.44a1.07 1.07 0 0 0 -.95.08c0 .39.32 10.24.55 10.44a1 1 0 0 0 1.22-.08zm1.11 1.45a2.33 2.33 0 0 0 -2.37.87c-.35.51.52 1.3 1 1.1s.31-.67 1.06-.67 1.1.79 1.3.91.36.2.59-.12-.09-1.77-1.58-2.09zm3.15-3.81a2 2 0 0 0 -2.25.52c-.35.31.16 1.14.48 1.18s.67-.43 1.33-.47.75.7.75.7a1.39 1.39 0 0 0 .87-.15c.28-.29.12-1.39-1.18-1.78zm6.34-.63a2.44 2.44 0 0 0 -1.34 2.8c.2.32.91.59 1.14.36s-.12-1.07.71-1.66 1.77-.27 2.17-.39.27-.16.19-.55a2.2 2.2 0 0 0 -2.87-.61zm-1.73 6.23a2.46 2.46 0 0 0 -3 .63c-.16.47 0 .94.47 1s.79-.67 1.78-.55 1 1.3 1.22 1.5a.8.8 0 0 0 .71.23c.31-.11.19-2.19-1.18-2.86zm-.63-10.87c.39 0 .47-.24.86-.44s.83.32 1.1.4.44-.12.56-.44-.52-1.1-1.5-1.1a2.55 2.55 0 0 0 -1.81.71c-.24.38.39.78.79.82zm6.49.43c.24.16.32 0 .59-.2s0-1-.55-1.26a2.46 2.46 0 0 0 -1.81 0c-.31.24 0 .83 0 1s.47 0 .95 0 .57.3.82.41zm2.56 2c.08.12.56-.08 1.46 0s.59 1.46.63 1.61a.93.93 0 0 0 .87.48c.43 0 .19-2.8-.67-3.19a3.14 3.14 0 0 0 -2.1.04c-.66.11-.26.9-.19.98zm0 3.7c-.23.16-.19.83-.07 1s.31.15.94.39.63.71 1 .91a.47.47 0 0 0 .67-.16 2.09 2.09 0 0 0 -.6-1.81 1.68 1.68 0 0 0 -1.98-.41zm-2.71 3.47c-.36.23-.16 1 .19 1.1s.79-.2 1.3 0 .48.83.59 1.14.48.67.83.59.4-2.2-.43-2.91a2.29 2.29 0 0 0 -2.52 0zm-.2 4.13c-.55.28-.59.83.16 1.22s1.57-.23 1.42-.63a1.26 1.26 0 0 0 -1.62-.67zm7-4a1.15 1.15 0 0 0 -1 1.49.66.66 0 0 0 .51.32c.23 0 .47-.28 1-.55s.87.11 1.3 0 .43-.16.4-.63-1.11-.92-2.2-.68zm0 4.13a1.66 1.66 0 0 0 -1.18.91c-.36.71 0 .82.31 1s.67-.08.87-.35.92-.82 1.1-1.15-.26-.54-1-.46zm4.25-.31c-.63.39-.31.94.16 1.06s1-.43.83-.79a.69.69 0 0 0 -.94-.32zm1.85-5.73c-.51-.23-1.54.66-1.61 1.11a.66.66 0 0 0 .87.75c.51-.2.71-.6 1.18-.91s.05-.71-.44-.95zm-1.06-7.24c-1.81.12-1.65 1.62-1.73 2s.79.74 1.14.59.24-1 1-1.15.91.83 1.26 1 .4-.08.67-.63-.56-1.93-2.37-1.81zm3.94-3.11a.9.9 0 0 0 -.12.9c.12.24.4.12.91.36s.47.78.63 1.1.47.24 1 0 .28-.75-.23-1.66a1.94 1.94 0 0 0 -2.22-.7z" fill="#1d1d1b"/></svg>