<svg height="64" viewBox="0 0 64 64" width="64" xmlns="http://www.w3.org/2000/svg"><path d="m16.56 46.72c-.09.17 1.09 6 1.21 6.34s.3.17.6.12-.39-6.06-.51-6.32-1.21-.28-1.3-.14zm6.44 6.28c-.18.09-.13.67.05.81a41.87 41.87 0 0 0 4.74-.23 44 44 0 0 1 4.54.23 1.57 1.57 0 0 0 .07-.88 15.12 15.12 0 0 0 -4.79-.49 34.43 34.43 0 0 0 -4.61.56zm-8-14.61c-.88-.18-1.49-.5-1.65-.44s-.23.54-.23.81.65.26 1.48.37a4.87 4.87 0 0 0 1.35.1.79.79 0 0 0 0-.54c.05-.13-.03-.11-.95-.3zm-2.6-3.21c-.25 0-.14 1.76-.14 1.76s.74 0 .81 0a6.11 6.11 0 0 0 0-1.6c-.07-.14-.42-.21-.67-.16zm3 1.83a4.93 4.93 0 0 0 .19-1.65c-.07-.3-.9-.23-1-.18a5.84 5.84 0 0 0 0 1.73c.03.21.77.23.86.09zm2.32-1c-.19.12-.13 1.59-.07 1.69s.85.16 1 0a2.82 2.82 0 0 0 -.03-1.7.81.81 0 0 0 -.85 0zm3.63.42c-.3.07-.18 1.5-.16 1.57s.65.25.81.07a3.7 3.7 0 0 0 .05-1.55c-.05-.16-.35-.16-.65-.09zm3.38.11c-.3.07-.18 1.51-.16 1.58s.65.25.81.07a3.54 3.54 0 0 0 0-1.55c.02-.17-.3-.17-.6-.1zm4.95 0c-.3.07-.18 1.51-.16 1.58s.65.25.81.07a3.7 3.7 0 0 0 .05-1.55c-.02-.17-.38-.17-.65-.1zm3.8 0c-.31.07-.18 1.5-.17 1.57s.65.25.81.07a3.4 3.4 0 0 0 0-1.55c.03-.2-.29-.2-.59-.13zm4-.7c-.31.07-.18 1.51-.17 1.58s.65.25.81.06a3.54 3.54 0 0 0 .05-1.55c.03-.2-.29-.2-.59-.13zm2.52-1c-.3.07-.18 1.51-.16 1.58s.64.25.81.07a3.54 3.54 0 0 0 0-1.55c.07-.23-.25-.23-.55-.16zm-17.61-16a50.44 50.44 0 0 0 .65 6.8c.25.39.85.19 1 0s-.67-6.53-.71-6.76-.73-.43-.84-.13zm11.21 8.22a34.73 34.73 0 0 0 -6 .87c-.23.05 0 1.12.51 1.05a50.21 50.21 0 0 1 5.55-.61c1.69 0 4.91.26 5.12.17s.09-.54 0-.77-2.38-.77-5.18-.71zm21.93-21.06c-.11-.6-1.9-2.68-6-3.31s-10.13-.99-19.13-.53-15 2.77-15.48 3.21-.55 5.4.05 7 2.75 1.76 2.75 1.76l2.28 15.61-3.57.67c-2.4.46-6.48 1.76-7.4 2.73s-.73 5.86-.29 6.55a10.64 10.64 0 0 0 2.6 2s2 13.86 2.45 14.87 2.68 3 5.78 4.12 8.15 1.52 13.61 1.32 10.62-3.17 11.15-4.74 1.41-17.26 1.41-17.26a8 8 0 0 0 2.26-1.35c.3-.51-.13-6.2-.07-6.23a16.35 16.35 0 0 0 3.18-2.42c.63-.84.56-16 .74-16a16.19 16.19 0 0 0 3.63-1.5 54.24 54.24 0 0 0 .05-6.5zm-12.24 41.51c-.52-.41-1.5-1-1.62-.86a.69.69 0 0 0 -.21.72 7.37 7.37 0 0 0 1.75 1.31c0 .43-.07.86-.1 1.29a17.32 17.32 0 0 0 -2.36-1.35c-.17 0-.44.51-.35.83a14.57 14.57 0 0 0 2.6 1.85c0 .57-.09 1.11-.14 1.61a12.72 12.72 0 0 0 -2.28-1.56.86.86 0 0 0 -.53.74c0 .33 1.85 1.68 2.67 2.3 0 .51-.1 1-.15 1.29a20.9 20.9 0 0 0 -2.63-2c-.19 0-.68.5-.7.74a21.55 21.55 0 0 0 2.7 2.44 9.24 9.24 0 0 1 -.76.54 12.89 12.89 0 0 0 -2.59-2c-.23 0-.78.37-.76.72a10.9 10.9 0 0 0 2.17 1.95c-.33.17-.7.33-1.09.5a11.85 11.85 0 0 0 -1.91-1.85c-.3-.12-.85.6-.9.69a14.61 14.61 0 0 0 1.57 1.59 22 22 0 0 1 -8.93 1.22c-7.64-.56-12.48-3.56-12.68-4s-2.53-14.08-2.41-14.22a62.53 62.53 0 0 0 14.35 1.21 52.73 52.73 0 0 0 15.81-2.83s-.25 3.44-.52 7.13zm3-10.27a38 38 0 0 1 -14.5 3.76c-8.08.51-18.23-.67-20.92-1.92 0 0-.37-4-.25-4.23s5.46-2.27 7.84-2.87 2.83-.67 2.83-.67a17.7 17.7 0 0 0 10.32 3.79c6.68.44 14.67-2 14.67-2s.06 3.95-.03 4.14zm3.66-18.75c-.35-.24-.94-.5-1.11-.37a1.5 1.5 0 0 0 -.51.95c0 .18 1.06.63 1.56.83 0 .67-.06 1.35-.08 2a6.69 6.69 0 0 0 -2.22-.9.8.8 0 0 0 -.16.83 19.8 19.8 0 0 0 2.31 1.61c0 .6-.05 1.18-.07 1.72a11.25 11.25 0 0 0 -2.13-1.64c-.25 0-.74.48-.72.79a19.41 19.41 0 0 0 2.78 2.4c0 .63-.05 1.13-.07 1.44a16.2 16.2 0 0 0 -3.12-2.36.67.67 0 0 0 -.63.6c0 .3 2.36 2.25 3.17 2.91a5.75 5.75 0 0 1 -.7.62 18.05 18.05 0 0 0 -3.25-2.68c-.41-.12-.71.63-.71.86a21.52 21.52 0 0 0 2.93 2.54 13.76 13.76 0 0 1 -1.4.77 8.85 8.85 0 0 0 -2-2c-.28-.07-.68.3-.72.69s1.06 1.44 1.46 1.84a20.27 20.27 0 0 1 -5.49 1.24 33.11 33.11 0 0 1 -14.16-1.9c-2.31-.79-3-1.53-3-1.62s-2-14.6-2-14.74 6 2 14.3 1.67a103.06 103.06 0 0 0 15.83-2.32c.03.06-.04 1.89-.13 4.22zm3.13-7.49c-.16.39-5.28 2.13-10.9 2.84a67.3 67.3 0 0 1 -13.79.51c-4.63-.25-10.27-1.76-11.64-2.66a27.06 27.06 0 0 1 -.07-4.69 45.24 45.24 0 0 1 11.73-2.62 105.61 105.61 0 0 1 16.59-.38 26.52 26.52 0 0 1 8 2.19c.31.25.24 4.41.08 4.81zm-33.21-2.15a1.87 1.87 0 0 1 .54-.77.51.51 0 0 0 .13-.76c-.2-.26-.37-.28-1 0s-.38 1.06-.35 1.39.59.37.68.14zm2.36.76a3.47 3.47 0 0 0 .21-1.78c-.11-.21-.48-.14-.74 0s-.2 1.58-.16 1.69.51.25.69.09zm2.36.39a2.79 2.79 0 0 0 .14-1.71.68.68 0 0 0 -.73-.12c-.21.12-.1 1.75 0 1.81a.59.59 0 0 0 .59.02zm3.45.35a3.21 3.21 0 0 0 .09-1.76c-.13-.14-.48-.12-.76 0s-.15 1.53-.09 1.65.58.27.72.11zm2.89-1.48c-.25.07-.22 1.42-.09 1.55s.79.16.86 0a5.08 5.08 0 0 0 0-1.46c-.03-.18-.51-.16-.77-.09zm2.46.37c-.23.14-.14 1.52-.1 1.6a1.12 1.12 0 0 0 .93 0 4.23 4.23 0 0 0 0-1.56 1 1 0 0 0 -.83-.04zm3.1 1.6a5.2 5.2 0 0 0 0-1.72 1.55 1.55 0 0 0 -1 0 6.24 6.24 0 0 0 0 1.72c.14.16.93.06 1 0zm3.28-.44c.17.18.7 0 .79-.05s.07-.26 0-.74a1.65 1.65 0 0 0 -.46-1 1.91 1.91 0 0 0 -1.1-.04c-.11.11.26.55.44.76s.17.88.33 1.07zm4.54-.49c.25-.09.09-1.55-.07-1.67s-.93-.11-.93 0a7.06 7.06 0 0 0 .35 1.76c.14.09.39 0 .65-.09zm1.78-2.15a5.86 5.86 0 0 0 .21 1.64c.11.21.6.09.76 0a2.86 2.86 0 0 0 -.14-1.76 1.35 1.35 0 0 0 -.83.12zm3.17-.76a6.56 6.56 0 0 0 .28 1.66c.09.14.67 0 .78-.11a4 4 0 0 0 -.13-1.64 1.14 1.14 0 0 0 -.93.09zm2.43-.23a10.46 10.46 0 0 0 .14 1.57c.09.12.48.05.6-.07a3 3 0 0 0 -.16-1.55c-.16-.17-.37-.07-.58 0zm-28.6 4.86c-3.86-.84-3.75-1.15-4.05-1.23s-.39.74-.28.88.33.37 3.77 1.22 6 .91 6.14.72a.87.87 0 0 0 .07-.62c-.03-.19-1.74-.19-5.65-1.02zm21.84.06a25.16 25.16 0 0 1 -4.07.51 51.32 51.32 0 0 1 -5.16.12c-.16 0-.23.76.07.83a40.31 40.31 0 0 0 4.81 0c3-.12 4.24-.4 4.47-.56s.02-.95-.12-.95z" fill="#1d1d1b"/></svg>