<svg height="64" viewBox="0 0 64 64" width="64" xmlns="http://www.w3.org/2000/svg"><path d="m59.61 23.13c-2.54-5.84-8.61-10.48-14.32-12.53a64.84 64.84 0 0 0 -18.93-3.9c-7.83-.52-15.26 1-19.68 3.22s-4.68 4.84-4.68 5.81a56.55 56.55 0 0 0 .55 9.9 13.19 13.19 0 0 0 5.13 9.22 23 23 0 0 0 7.15 4.15c2.83 1.17 6.4 4.09 9.35 6.66s8.25 7.89 10.56 9.34 6 2.83 12.17 2.31 9.71-2.7 12.63-7.11 2.46-8.69 2.46-12.56a32.36 32.36 0 0 0 -2.39-14.51zm-.78 23c-.36-.34-.9-.73-1.08-.69a.72.72 0 0 0 -.45.78c0 .21.67.69 1.1 1a12.93 12.93 0 0 1 -.85 1.6 5.6 5.6 0 0 0 -1.39-1.16c-.16 0-.61.09-.61.45a7 7 0 0 0 1.28 1.74c-.23.28-.49.56-.75.82a9.62 9.62 0 0 0 -1.93-2 .62.62 0 0 0 -.65.59 15.57 15.57 0 0 0 1.56 2.29c-.33.26-.7.51-1.09.76a17.43 17.43 0 0 0 -2.16-2.4c-.29-.23-.45 0-.68.39s1.06 1.88 1.71 2.67c-.33.17-.67.34-1 .5a31.4 31.4 0 0 0 -2.24-3c-.16-.13-1 .42-1.1.65a20.79 20.79 0 0 0 2.12 2.88q-.65.24-1.32.45a17 17 0 0 0 -2.39-3.12c-.29-.13-.65 0-.84.52s1.26 2.17 1.9 3c-.61.14-1.22.25-1.85.33a19.22 19.22 0 0 0 -2.29-3.41c-.2-.09-.46.07-.69.55s1.16 2.17 1.76 3a12.64 12.64 0 0 1 -5.81-1.06c-6.09-2.91-11.46-8.89-13.77-10.87s-5.71-5.58-9.71-7-6.72-2.89-8.41-4.7a11.84 11.84 0 0 1 -2.4-5.52 8.91 8.91 0 0 1 -.1-3c.2-.32 2.7 2.4 6.24 3.83s7 1.72 11.91 5.84 10 10.3 13.57 12.7 3.58 3.46 8.35 3.53 7.85-.78 10.06-3a25.48 25.48 0 0 0 3.61-4.8c.19-.3 1.26-1.46 1.26.39a14.88 14.88 0 0 1 -.87 4.5zm-1.47-6.7c-1.52 2.24-4.48 5.68-6.23 6.4a16.75 16.75 0 0 1 -7.08.91c-2.72-.2-6.43-3.22-8.86-5.46s-7.37-7.76-10.13-10a29.68 29.68 0 0 0 -10-5.56 18.53 18.53 0 0 1 -7.86-4.15 7.53 7.53 0 0 1 -2.53-5.07c-.2-1.71 2.37-5.52 8.25-7s13.7-1.26 20.32-.16 13.77 2.76 19 7.83 7.11 8 7.46 13.18-.81 6.87-2.34 9.11zm-34-26.94c-4.09-.85-9.88-.17-11.16.48-2.11 1.07-2.57 3.15-2.05 5.29s2.7 2.54 4.19 2.8a19.19 19.19 0 0 1 3.67 1.07 17.49 17.49 0 0 0 7.34.78 4.53 4.53 0 0 0 4.22-4.48c-.06-1.92-2.07-5.07-6.17-5.91zm4.39 6.85a4.5 4.5 0 0 1 -4.75 2.43 32.24 32.24 0 0 1 -5.22-1.2c-1.17-.36-2.6-.78-3.84-1.14a2.59 2.59 0 0 1 -2.14-2.56 4 4 0 0 1 1.75-3c1.15-.55 6.63-.91 10.17.07s5.04 3.48 4.07 5.43zm-11.2-4.16c-2.44.13-1.11 2.57.42 3.51a6.06 6.06 0 0 0 4.58 1c1.52-.36 2.46-2.44 1.26-3.25s-5.08-1.29-6.22-1.23zm3.34 3.51c-1.39-.23-2.72-1.69-1.65-1.69.82 0 3.74 0 3.7.71s-.58 1.29-2.01 1.01zm16.79-1.79c0 .16-.29 2.86-.45 5.39s-1.17 7.71-1.23 7.85.26.3.45.26.55-1.23 1.55-5.64a24.87 24.87 0 0 0 .64-8c-.14-.06-.88-.22-.96.14zm6.24 3.47a62.81 62.81 0 0 0 -.65 6.63c-.2 3-.94 8.24-1 8.41s0 .16.33.29 1.17-2.34 1.59-6.07a72.16 72.16 0 0 0 .55-9.39c-.14-.24-.82.13-.82.13zm7.27 4.63c-.16.22.06 2.33-.16 5.29s-1.17 7.92-1.17 8.31.1.13.36.1.71-2.24 1.33-5a44.92 44.92 0 0 0 .78-8.53c-.13-.45-1.02-.32-1.14-.17z" fill="#1d1d1b"/></svg>