<svg height="64" viewBox="0 0 64 64" width="64" xmlns="http://www.w3.org/2000/svg"><path d="m15.33 49.05c-.72-.21-1.81-1-2.1-1s-.55.42-.59 1a3.91 3.91 0 0 0 .71 2.1c.47.17.68-.71.51-1.13s.08-.38.29-.34 1.47.59 1.47.59a3.78 3.78 0 0 0 .63-.71c.13-.34-.25-.3-.92-.51zm6.18 7.31c-.68-.46-1-1.18-.84-1.39s.59 0 1-.21-.09-.25-.55-.46-1.3-1.22-1.76-1.18-.51 1.31.16 2.32a8.72 8.72 0 0 0 2.06 2.14s.68-.13.8-.38-.2-.38-.87-.84zm5.21-3.74c-.34-.25-.34.17-.38 1.68a5.82 5.82 0 0 0 1.05 3.11s.93 0 1.05-.33-.5-.76-.75-.93-.09-.63-.09-.63a6.52 6.52 0 0 0 1.47.55c.26 0 .09-.34-.5-.89s-1.51-2.31-1.85-2.56zm5 3a5.05 5.05 0 0 1 -1 1c-.38.33.21.79.21.79a3.14 3.14 0 0 0 1.05-.84 1.9 1.9 0 0 0 .38-1.51c-.13-.3-.36.12-.64.59zm12-1.52c-.38-.29-.34-1.17-.42-1.3s-.72.24-.63.55c.17.58.5 1.47.76 1.51a.85.85 0 0 0 .71 0c.32-.18-.06-.43-.44-.73zm9.42-6.3c.21 0 .46-.55.71-1a7.46 7.46 0 0 1 1.15-1.49 1.17 1.17 0 0 0 .25-.76c0-.13-.88 0-1.39.5a17.74 17.74 0 0 0 -1.26 1.73c-.07.38.31 1.05.52 1.05zm-4.5-7.11c-.25-.08-.51.21-.59.72s1.85 2.27 2 2.39a1.83 1.83 0 0 0 .67-.37c.13-.18-1.85-2.62-2.1-2.71zm1.26-1.85c-.29 0-.38.05-.55.43s2.06 2.48 2.15 2.69c0 0 .71-.13.71-.34a13.45 13.45 0 0 0 -2.33-2.75zm2.42-.84a.81.81 0 0 0 -.93.38c-.08.25 1.85 2.52 1.94 2.73 0 0 .75-.17.88-.46s-1.6-2.53-1.89-2.65zm-14.17-3.54c-.33 0-.54-.12-.54-.33s-.11-.93-.47-.89-.88 1.31-.5 1.68 1.43 0 1.81-.08.04-.38-.3-.38zm23.85-4.96c-.26-1.13-1.56-3.82-8.37-6.56s-15-2.31-15-2.31v-1.26c0-.71-.17-1.89-1.13-2.14s-10-.21-13.2-.13-6.64.17-7.19.76-.42 3.87-.42 3.87-2.35.33-6 1.21-5.3 1.77-7.27 3.54-1.56 3.9-.63 5.75 7.07 12.77 7.07 12.77a7.31 7.31 0 0 0 -2.81.92c-.34.3-.34.76.12.85s.84.16 1.77 1 1.22 2.48 3 5 3.15 2.82 3.15 2.82a8 8 0 0 0 .33 1 6.66 6.66 0 0 0 2.36 2.69 3.84 3.84 0 0 0 2.48.59s.33.38 2.27.46a6.41 6.41 0 0 0 3.15-.58l1.93.25a1.49 1.49 0 0 0 .59.25 5.74 5.74 0 0 0 4.32-.25 6.08 6.08 0 0 0 2.77-3 5.06 5.06 0 0 0 2.44.38 3.75 3.75 0 0 0 2.36-1.51s.46.33.79.63 1.06.92 3.16.8 2-1.47 2-1.47a31.23 31.23 0 0 0 2.86 2.94c1.77 1.6 3.62 1.64 5.76.42a4.47 4.47 0 0 0 2.31-5c-.29-1.85-2.64-3.91-2.64-3.91a6 6 0 0 0 2.27-1.89c1.09-1.43 1-2.82 1-4.67a9.33 9.33 0 0 1 .8-3.44c0-.26-.88-.3-.88-.3s3.87-7.9 4.08-8.19a3.14 3.14 0 0 0 .4-2.29zm-44.28-10.8c.26-.3 6.27-.93 10.13-.84s8.83 0 9.13.33a9.18 9.18 0 0 1 .5 2.44 183.88 183.88 0 0 0 -19.71.63 8.54 8.54 0 0 1 -.05-2.56zm-12.94 9.2c1.76-1.8 5.38-2.77 11.68-3.78a80.74 80.74 0 0 1 19.84-1.05c8.54.5 14.38.84 18.83 2.9s4.5 3.41 4 4.25a9.49 9.49 0 0 1 -3.7 2.35c-1 .29-1.77.46-1.77.46s.59-1.34-1-1.34a3.58 3.58 0 0 0 -2 .33s0-1.34-2-1.51-2.52.34-2.52.34a9.62 9.62 0 0 0 0-1.81c-.13-.55.08-.42-.42-.38a10.24 10.24 0 0 0 -3.41 1.68 6.51 6.51 0 0 0 -1.55 1.47 2.32 2.32 0 0 0 -2.61-1.17 5 5 0 0 0 -2.56 1 3.38 3.38 0 0 0 -2.59-.42 3 3 0 0 0 -2.1 1.69 5.06 5.06 0 0 1 -1.3-.72 1 1 0 0 1 0-1.09 1.68 1.68 0 0 0 -.13-1.43c-.21-.13-1.3 1-2 1.64s-.67 1-.88.92-.5-.21-.42-.42.55-2.14 0-2.35a2.07 2.07 0 0 0 -1.34.21s-1.83 1.33-2.4 1.93-.92 1-.92 1a2.11 2.11 0 0 0 -2.69-1 5 5 0 0 0 -2.44 1.52 6.2 6.2 0 0 0 -2.44 0c-.88.29-1.09.88-1.3.88a29.08 29.08 0 0 1 -6.43-2.35c-1.52-.99-3.21-1.94-1.43-3.75zm42.54 5.26c.25.38 1.42 1.39 1 1.47s-3.65.67-4.7.17c-.47-.22 1.93-1.73 2.27-2.06s1.09-1.52 1.3-1.56 2.48.21 2.69.76.34.84-.08 1.18-.8.58-.89.46a4.94 4.94 0 0 1 -.8-1c-.16-.42-.25-.59-.46-.38s-.59.58-.33.96zm-6.94 1.26a.56.56 0 0 0 -.8.38c0 .25 0 .71-.21.8s-7.14.46-9.46-.05a5.64 5.64 0 0 0 1-.54c.76-.46.68-.93.68-.93a2.48 2.48 0 0 0 2 .55 3.65 3.65 0 0 0 2.48-1.26c.25-.38-.17-.63.21-1.14s2.1-1.47 3.11-.75 1.3 2.39 1.85 2.86.55.29.76.54.29.42 0 .51a9.2 9.2 0 0 1 -1.43 0s.23-.8-.19-.97zm-12.11 1.26a7.68 7.68 0 0 1 -1.47-.08s-.5-.59-.46-.8a13.92 13.92 0 0 1 1.22-1.6c.38-.5.38-1 .59-1.26s.63-.72.63-.34-.21 1.26.5 1.77 1.43.46 1.26.88-1.42.59-1.84 1 .16.35-.43.43zm3.87-2.52c.13 0 .93.21 1.14-.13s.08-1 .59-1.09 1.47.21 1.34 1-1.13 1-1.93 1-1.56-.66-1.14-.78zm9-.84a14 14 0 0 0 2.73-1.39c.51-.5 1-1.34 1.3-1.09s.3 2.14-.54 2.86-2 1.93-2.19 1.76-1.39-1.81-1.26-2.14zm10 .5c.93-.33 1.6-.17 1.72.09s-.12.58-.12.58-1.6.34-2.1.47a.71.71 0 0 1 -.72-.13 2.17 2.17 0 0 1 1.22-1.01zm-25.51 1.35a3.7 3.7 0 0 0 -2-.47 1.93 1.93 0 0 0 -1.37 1.3c0 .29.34.46 0 .46s-5.63-.46-7.65-1.26a1.64 1.64 0 0 1 1.39-.2c.88.25 1 .34 1.13.09s.3-2 2.19-1.64 2 .58 2 .92-.17.76.16.84a.46.46 0 0 0 .51-.21 4.21 4.21 0 0 1 1.59-2.14c1.31-1 1.9-1.64 1.94-1.26s-.55 1.47-.17 1.93a2 2 0 0 0 1 .59zm0 1.55a13.91 13.91 0 0 1 -2.48-.46s-.13-.46.88-.46a2 2 0 0 1 1.68.59c.17.21.21.29-.04.33zm-10.39 15.22c-.37.08-.58.88-.58.88l.34 2.44a10.16 10.16 0 0 1 -2.81-2.52c-1.18-1.6-1.14-3-1.9-4.16a4.1 4.1 0 0 0 -1.72-1.52s2.44-.75 3.53.13 2.15 1.6 2.48 1.47.34-.71.34-.71-.3-1.73 0-1.81.71 1 1.22 1.55a8.76 8.76 0 0 0 1.75 1.31s-.71 1.72-1 2.69a4 4 0 0 0 -.26 1.31 1.42 1.42 0 0 1 -.63-.3c-.25-.26-.38-.85-.76-.76zm8 8.32a11.37 11.37 0 0 1 -2.66-.26c-.25-.21-.63-.46-.63-.46s-.5.54-2.06-.59a5 5 0 0 1 -2.14-3.28 8.19 8.19 0 0 1 0-2.06c.19-.24.71.8 1.26.8s.59-.34.59-.34a7.77 7.77 0 0 1 .4-3.27c.58-1.47 1.59-3.23 1.8-2.94s-.16 2 .26 2.9a4 4 0 0 0 1.72 2 12 12 0 0 0 1.26.59 6.37 6.37 0 0 0 .23 3.65 37.36 37.36 0 0 0 2.19 3 3.53 3.53 0 0 1 -2.27.26zm11.39-3.57a6 6 0 0 1 -3.45 3.61 6.15 6.15 0 0 1 -2.52.26l-1.76-.72c-.3-.25-2.9-2.23-2.9-4.5a6.14 6.14 0 0 1 1.34-4l1.35-1.64s.75 2.6 2.14 2.94 1.93-.88 2.35-1.22a7 7 0 0 0 1.05-1.72 5.4 5.4 0 0 1 .13 2.86c-.42 1.13 0 1.72.29 1.85a.68.68 0 0 0 .76-.09c.13-.17 1-1.09 1-1.09a4.81 4.81 0 0 1 .17 3.46zm5.37-1.94a4.41 4.41 0 0 1 -2.77 2.91 1.48 1.48 0 0 1 -1.56-.59s.13-.72.17-1.31 0-1.51 0-1.51.59.25 1.68-1 1.3-2.44 1.51-2.31a6.1 6.1 0 0 1 .97 3.81zm5.51 1.64c-.09.13-.26.84-1.9.84a3.94 3.94 0 0 1 -2.73-1.3 4.7 4.7 0 0 0 .21-1.6 10.47 10.47 0 0 1 0-1.3 14.79 14.79 0 0 1 1-1.39 1.44 1.44 0 0 0 .92 1.1 3.53 3.53 0 0 0 1.39.29s.63 2 .88 2.52.27.72.19.84zm9 1.1c-.46 1-1.89 1.68-3.78.84s-7.28-11.86-7.28-11.86.55-1.55 1.6-1.47 8.4 8.2 8.91 9.42.92 2.1.46 3.07zm-12.51-13.92a4.44 4.44 0 0 0 -1 2.9c-.13 0-1.47 0-1.39-1.09a4.64 4.64 0 0 1 2.78-3.82c2-.89 3.82-.68 4.33.42s.17 1.59.17 1.59-1.73-1.47-2.27-1.47a4.65 4.65 0 0 0 -2.62 1.47zm14.5 3a5 5 0 0 1 -1.55 3 5.78 5.78 0 0 1 -1.39.88l-2.21-2.45a6.13 6.13 0 0 1 2.31-3.66 7 7 0 0 1 3-1s-.18 2.42-.14 3.26zm2.65-12-1.65 2.9a7.21 7.21 0 0 0 -1.21-1.22c-.21-.12-.84.42-.88.59a11 11 0 0 0 1.59 1.69c-.32.59-.63 1.14-.88 1.59-.35-.64-1.9-2.56-1.9-2.56s-.84.13-.93.47 2.48 3 2.36 3l-.84 1.68a4.6 4.6 0 0 0 -3.25 2.29c-1.22 2.06-1.09 2.23-1.09 2.23l-2.78-2.9a3.31 3.31 0 0 0 -1-3.45c-1.72-1.64-4.79-.38-6.55 1.18s-1.56 4.79-.51 5.29a4.41 4.41 0 0 0 2.06.43l1.14 1.76a3.81 3.81 0 0 0 -1.31.88 17 17 0 0 0 -1 1.94l-1-1.89s-.46-1.9-.75-1.85-.63.54-.63.54a24.69 24.69 0 0 1 -1.22 3.15 4.4 4.4 0 0 1 -1.47 1.22s-.45-1.3-.7-1.53-.46-.08-.72.25a5 5 0 0 1 -.8.76 4.32 4.32 0 0 0 -.08-2.73 29.69 29.69 0 0 1 -1-3.28.64.64 0 0 0 -1-.38c-.21.21-.21.89-.21 1.18a7.63 7.63 0 0 1 -.84 3c-.55.68-.84.72-1 .72a2.73 2.73 0 0 1 -1.56-1.89c-.21-1.18-.25-1.94-.42-2s-.75.34-1.13 1-1.77 2.27-2.1 2.85a2.24 2.24 0 0 1 -.85.84s-.79-.75-1.3-1.21-1-.51-1-.84a23.48 23.48 0 0 1 -.16-3.49c.16-.42.46-.59.08-.72a2.08 2.08 0 0 0 -1.55.38c-.13.25-.89 1.81-.89 1.81l-1.85-2a10.39 10.39 0 0 1 -.71-1 12.16 12.16 0 0 0 0-2.22c-.13-.26-.71-.21-.88 0a2.93 2.93 0 0 0 -.78 1.55 15.11 15.11 0 0 0 -.13 2.82 7.37 7.37 0 0 0 -2.1-1.51s-6.36-11.06-6.15-11.31.63-.09.8 0 4.41 3.11 15.3 4a97.62 97.62 0 0 0 23.07-.38 62.45 62.45 0 0 0 12.07-3.11 18.71 18.71 0 0 1 2.48-1.09c.12.12-.17.62-.17.62zm-35.06-19c.21.21.76 0 1-.42s-.29-.54-.59-1.17.13-.51.21-.8a2.87 2.87 0 0 0 .3-1.43c0-1-.47-1.14-.72-1.72s.34-1.6.3-2.19-.51-1-.76-.88 0 1.26-.21 1.93-.34.63-.38 1.26.59 1.14.72 1.64-.68 1-.76 1.72.91 2.15.91 2.15zm5.13 0c.25-.33-.12-.37-.12-1.34s.67-1.18 1.05-2.48-.53-1.75-.74-2.52a41.8 41.8 0 0 1 -.13-4.41c0-.55-.5-.42-.88-.13s-.17 4.12-.17 4.5.55.67.76 1.43a5.36 5.36 0 0 1 -.84 3.07 2.09 2.09 0 0 0 0 1.89c.04.21.85.42 1.09.08zm4.12.21c.17-.25-.21-.92-.34-1.68s.3-.75.55-1.22a6.51 6.51 0 0 0 0-2.52c-.09-.63-.46-.67-.8-.5s0 .46 0 1.59-.42 1.06-.59 1.64a6.34 6.34 0 0 0 .44 2.91.45.45 0 0 0 .76-.13z" fill="#1d1d1b"/></svg>