<svg height="64" viewBox="0 0 64 64" width="64" xmlns="http://www.w3.org/2000/svg"><path d="m61.43 6.37a4.76 4.76 0 0 0 -4.43-1.43c-2.09.26-5.49 2.69-8 5.06s-12.7 11.75-12.7 11.75a57.88 57.88 0 0 0 -14.62.1c-6.86 1.15-13.68 5.06-15.68 7.43s-4.8 6.56-3.87 10.19a13.23 13.23 0 0 0 4.16 6.19 22.9 22.9 0 0 0 3.8 5.46c2.43 2.53 7.83 6.86 13.42 7.73s11.79-.37 16-3.87 7.43-11.08 8.06-12.55 2.76-5.46 2.66-9.66-4.56-6.85-4.56-6.85 15.5-13.06 16.06-14.79a6.16 6.16 0 0 0 -.3-4.76zm-17 39.26c-.17.23-4.5 9-12.12 10.82a21.76 21.76 0 0 1 -17.85-3.53c-3.29-2.63-5.06-5.43-4.79-5.56s4.49 2 8.82 2.46a42 42 0 0 0 13.51-.82c5-1 12.78-5.66 13-5.62a6.09 6.09 0 0 1 -.58 2.25zm2.33-15.32a9 9 0 0 1 -1.33 10.12c-2.67 3.07-9.09 6.46-17 7.36a35 35 0 0 1 -19.31-3 8.34 8.34 0 0 1 -4.79-6.29c-.53-1.7.6-6.13 5.83-9.59s10.55-5.43 20.34-5.29 14.62 3.86 16.25 6.69zm12.24-18.71c-1.8 2.19-15.15 13.22-15.15 13.22s-4.49-2.5-5.46-2.63c-.19 0 13.59-12.39 16-14s4.41-1.35 5.11-.79 1.27 2-.5 4.2zm-17.78 36.29c-.2-.1-.8.9-4.29 2.47-.36.15-.71.3-1.07.43a5.11 5.11 0 0 0 -.06-1.07c-.14-.26-.86.1-.84.27s0 .52 0 1.12c-.8.27-1.58.48-2.3.65a2.72 2.72 0 0 0 0-.64c-.1-.17-.83-.08-.86 0s0 .35 0 .81c-.68.14-1.26.24-1.66.3 0-.37 0-.64 0-.71 0-.3-.9-.16-1 0s-.05 1.75-.07 3.15a1.83 1.83 0 0 1 -.4 0c-.1 0-.2.7 0 .77a2.13 2.13 0 0 0 .43 0 7.09 7.09 0 0 0 0 .91c.1.23.44 0 .64-.07a2.86 2.86 0 0 0 .16-.91c.57 0 1.25-.13 1.9-.22v.57s.44-.14.67-.37a.89.89 0 0 0 .09-.32c.41-.07.78-.14 1-.21s.9-.26 1.39-.41a.24.24 0 0 0 0 .07c0 .11.31-.08.5-.24a5.12 5.12 0 0 0 1.56-.69 1.24 1.24 0 0 0 .14-.66s-.49.2-1.46.5c0-.45.06-1 .08-1.63.55-.21 1.14-.45 1.81-.74 3-1.3 3.7-2.43 3.8-2.7s.04-.32-.16-.43zm-11.22 6.69c0-.55.07-1.16.1-1.68.27 0 .67 0 1.26-.08h.43v1.55c-.69.08-1.31.16-1.79.21zm3.7-.58-1 .23c0-.48 0-1 0-1.53a15.11 15.11 0 0 0 2.3-.64v1.56zm-9.52-.09-.12-1a6.22 6.22 0 0 0 2.55-.06c.4-.16.13-.53.1-.66s-1.25 0-2.77-.14c-.09-.63-.15-1.1-.16-1.16s-.73-.17-.77 0a5.29 5.29 0 0 0 .08 1.07 7.8 7.8 0 0 1 -2.14-.7c-.14-.07-.4.7-.3.83s.56.34 2.43.7h.12l.15 1h-.11c-3.59-.29-4.27-1.71-4.63-1.86s-.63.83-.46 1.1.56.6 3.23 1.43a10.39 10.39 0 0 0 2.14.42l.12.78s.6.07.7 0a2.49 2.49 0 0 0 0-.69 18.41 18.41 0 0 0 3.09-.08s.07-.57-.06-.67a15.85 15.85 0 0 0 -3.19-.36zm8.62-11.41c.23 0 .4-.57.3-.7s-1.63-.63-4.8 0a9.21 9.21 0 0 0 -4.62 2.23c-.17.2.73.9 1 .8a11.91 11.91 0 0 1 3.79-1.83 10.73 10.73 0 0 1 4.33-.5zm11.29-5a22.32 22.32 0 0 1 -1.94 2.5 9.86 9.86 0 0 0 -1.76-.93c-.31-.14-.63-.26-1-.38.37-.57.75-1.18 1.14-1.81.73.45 1.08.82 1.14.82s.27-.16.34-.4-.36-.57-1.08-1.1a14.28 14.28 0 0 0 1.23-2.71 25.56 25.56 0 0 1 2.18 1.38c.26.1.26-.3.26-.56a8 8 0 0 0 -2.21-1.59 10.11 10.11 0 0 0 .45-4 1.6 1.6 0 0 0 -.93-.23 16.23 16.23 0 0 1 -.56 3.7 20.57 20.57 0 0 0 -3.34-1.36 19 19 0 0 0 .22-2.22 5.16 5.16 0 0 1 .81.38s.3-.3.3-.5-.16-.4-1.12-.82a2.9 2.9 0 0 0 -.18-1.05c-.16-.17-.9-.17-.9-.17s0 .26 0 .81c-.5-.16-1.09-.34-1.83-.54-1.07-.29-2.11-.52-3-.69a1.72 1.72 0 0 0 -.11-.74 3.52 3.52 0 0 0 -1.1-.17s0 .25 0 .71c-1.57-.24-2.63-.27-2.67-.11s-.1 1.2 0 1.27 1.11 0 2.7.1c0 .71.05 1.61.06 2.68a20 20 0 0 0 -3.19-.09c-.27.13 0 1 .13 1.06s1.17.06 3.1.23v1.17a32.3 32.3 0 0 1 -.62 5.86 28.17 28.17 0 0 0 -3.11.35 34.35 34.35 0 0 0 .06-3.46c1.45-.07 2.43 0 2.51 0s.2-.6.13-.77a10 10 0 0 0 -2.67-.08c0-.62-.09-1.24-.16-1.85a21.79 21.79 0 0 0 -1.37-6.08c-.13-.19-.73.07-1 .1 0 0 .24.9 1 4.53a27.17 27.17 0 0 1 .46 3.37 26.88 26.88 0 0 0 -3.45.48c-.24-1-.47-1.89-.67-2.66a8.59 8.59 0 0 0 1.33-.29c.2-.2.14-.3.17-.46s-.52-.25-1.71-.07c-.13-.68-.23-1.11-.25-1.11s-.64 0-.83.13c0 0 .05.43.2 1.2a21.31 21.31 0 0 0 -3.66 1.45c-.06-.63-.07-1-.11-1.15-.13-.37-.83-.1-.83.1a10.9 10.9 0 0 0 0 1.51 26.74 26.74 0 0 0 -3.59 2.34c-.12-.23-.24-.46-.35-.69-.26-.6-.48-1.18-.66-1.7l.1-.1c3.85-3.48 9.76-5.09 9.85-5.28s-.1-.36-.57-.36a34.3 34.3 0 0 0 -9.67 4.74 18.34 18.34 0 0 1 -.45-1.91s-.79-.08-.9.16a6.56 6.56 0 0 0 .32 2.49 13.57 13.57 0 0 0 -2.73 2.72c-.32-.75-.46-1.26-.5-1.31s-.5.47-.6.67a12.8 12.8 0 0 0 .48 1.6 4 4 0 0 0 -.61 2.22s.66.47.8.34 0-.8.27-1.46a10.4 10.4 0 0 0 1.38 2.29l.14.15a5.25 5.25 0 0 0 -.34 1s.7.76.84.69a4.07 4.07 0 0 0 .33-.83 20 20 0 0 0 3.23 2.53s.3-.23.3-.4-.82-.76-3.08-3.27a5.2 5.2 0 0 1 .32-.62 7 7 0 0 1 1.8-2c0 .05.06.1.09.14a24.24 24.24 0 0 0 1.75 2.28c.15.27.37.61.48.59a10.29 10.29 0 0 0 2.33 2 1.5 1.5 0 0 0 .47-.27c.1-.13-.17-.27-.87-1-.23-.26-.67-.74-1.18-1.35a16.77 16.77 0 0 1 2.17-1.75c.09.19.16.38.26.58a20 20 0 0 0 1.62 2.74 11.82 11.82 0 0 0 -2.88 2.69c-.23.3.6.56 1 .4.21-.1 1.15-1.09 2.62-2.16a12.42 12.42 0 0 0 2.14 2.19c.1 0 .37-.2.33-.43s-.45-.64-1.6-2.35a16.5 16.5 0 0 1 2.18-1.18c.21.8.36 1.33.36 1.33s.29.1.49-.43a4.36 4.36 0 0 0 -.14-1.18 2.85 2.85 0 0 1 .31-.12 17.46 17.46 0 0 1 2.12-.57v.93s.24.07.44.07a3 3 0 0 0 .22-1.12 26.43 26.43 0 0 1 3-.3c-.26 1.14-.48 1.88-.5 2s.34.24.63.07a6.38 6.38 0 0 0 .7-2.06h2c.39-.1.33-.66.23-.83a7.88 7.88 0 0 0 -2.08-.16 36.67 36.67 0 0 0 .75-5.48c0-.5 0-1 .07-1.45 1.12.11 2.45.26 4 .48l.56.1c0 .23-.06.48-.09.73q-.12.89-.33 1.83a11.26 11.26 0 0 0 -2.7-.26c-.2.1-.14.8.1 1.13s1.09.21 2.29.35a65 65 0 0 1 -2.53 7.11c0 .1.34.33.54.27a58.54 58.54 0 0 0 2.74-7.27 10 10 0 0 1 1.72.41 9.15 9.15 0 0 1 1.23.51c-.35.67-.73 1.34-1.12 2a6.4 6.4 0 0 0 -2.18-.46 1.14 1.14 0 0 0 -.14.87 8.13 8.13 0 0 0 1.76.44c-1.21 1.85-2.32 3.26-2.36 3.32s.4.5.6.4a31.21 31.21 0 0 0 2.55-3.53 10.68 10.68 0 0 1 2.66 1.16c-.75.83-1.35 1.44-1.35 1.44a2.41 2.41 0 0 0 .27.63c.1.07.63 0 2.86-2.73s2.83-4.16 2.8-4.33a1.09 1.09 0 0 0 -.73-.53c-.2.03-.23.53-1.33 2.33zm-34.16 1.5a14.25 14.25 0 0 1 -1.49-2.35 32 32 0 0 1 2.66-2.63 15.36 15.36 0 0 0 1.09 2.27 11.93 11.93 0 0 0 -2.26 2.71zm5.18-.42a22.4 22.4 0 0 1 -1.45-2.08l2.26-1.73c.3-.23.6-.44.91-.64a14.34 14.34 0 0 0 .7 2.59 15.26 15.26 0 0 0 -2.42 1.9zm2.6-5a16.5 16.5 0 0 1 3.72-1.49c.07.31.15.64.25 1s.25 1 .43 1.64c-.39.1-.78.2-1.16.33a15.28 15.28 0 0 0 -2.54 1.1 13.21 13.21 0 0 1 -.7-2.51zm3.11 7c-.31-.47-.65-1-1-1.61a15.46 15.46 0 0 1 -.91-1.66 19.28 19.28 0 0 1 2.57-1.24l.93-.32c.32 1.2.69 2.54 1 3.65a15.88 15.88 0 0 0 -2.59 1.21zm3.32-1.45c-.22-1-.52-2.34-.84-3.64a21.09 21.09 0 0 1 3.3-.49c.09 1.31.13 2.56.14 3.53a24.7 24.7 0 0 0 -2.6.63zm12.8-8.67-.68-.15c-1.42-.25-2.77-.42-3.94-.53 0-1 0-1.93 0-2.65.67.08 1.4.19 2.18.35 1.1.23 1.94.46 2.61.66-.01.63-.11 1.4-.17 2.35zm1.69 4.38a11.51 11.51 0 0 0 -1.43-.49c.14-.48.28-.94.39-1.37s.2-.79.28-1.16a18.23 18.23 0 0 1 3.31 1.18c-.15.5-.32 1-.52 1.57-.14.37-.31.75-.48 1.13a14.78 14.78 0 0 0 -1.55-.83zm-1.37 8.46c-.23 0-.94.06-1 .2s-.2 1.06 0 1.23 1-.4 1.16-.67.07-.73-.16-.76zm-3.36 1.26c-.2-.07-1 .5-2.1.8a10.62 10.62 0 0 1 -2.8-.07c-.17.17-.1.8 0 1s.9.5 3.09 0 2-1.23 2-1.23.01-.43-.19-.5z" fill="#1d1d1b"/></svg>