<svg height="64" viewBox="0 0 64 64" width="64" xmlns="http://www.w3.org/2000/svg"><path d="m61 25.68s.23-.37.41-.64a10.45 10.45 0 0 0 -.23-4.69 3.77 3.77 0 0 0 -2.62-3 8.3 8.3 0 0 0 -.64-3c-.55-.87-1.89-.6-2.16-1s-.18-.87-.32-1.6a2.82 2.82 0 0 0 -2.44-2.42c-1.88-.33-3.49 1.33-3.86 1.42s-.09-.41-.18-.69-.59-1.61-2.96-1.74-4.82 2.75-5.56 3-1.19-2.16-3.26-2-5.05 3.26-5.79 3.4-2.16-1.75-4-1.57a4.45 4.45 0 0 0 -3 2.12 11.71 11.71 0 0 0 -1.11-.46 2.45 2.45 0 0 0 -2.57 1 5.27 5.27 0 0 0 -1.18 3.19 5.88 5.88 0 0 0 -3.17.64c-2 .87-2.76 3.77-2.76 3.77a3.1 3.1 0 0 0 -2.8-.65c-1.61.46-.78 3.31-.78 3.31s-.69-.37-1.93.78-.46 3.08-.46 3.08l-1.42-.14c-.51 0-1.15.05-1.43 1.7a2.71 2.71 0 0 0 1.43 2.57c-2.49 3.08-3.86 6.66-4.21 11.63s1.74 8.4 6.29 10.7 10.61 1.19 15.25-.55 22.05-11 30-15.9 7.77-5.69 8.36-8.13a4.81 4.81 0 0 0 -.9-4.13zm-4.31-10.84a2.64 2.64 0 0 1 .82 1.93c.05.64 0 .78-.22.82a1.29 1.29 0 0 1 -.56-.09s-.23-2.25-1.1-2.57a.89.89 0 0 1 1.06-.09zm-1.24 4.59c.73.28 3 .23 3.44 1.15a6.5 6.5 0 0 1 .23 2.8 7.59 7.59 0 0 0 -3.21-2.2 13.6 13.6 0 0 1 -2-.65s.36-2.57-.69-3-3 1.74-3 1.74a55.74 55.74 0 0 0 -8 0 53.4 53.4 0 0 0 -8.5 1.15 2.69 2.69 0 0 0 -2.53-.1 2.54 2.54 0 0 0 -1.51 2.07c-.09.14-1.89 1.24-3 2.11l-1.78 1.41a3.35 3.35 0 0 0 -2.57-.69c-1.33.32-2.25 2.39-2.16 3.21s.28 2.3.28 2.3a7.13 7.13 0 0 0 -3.86.92c-1.57 1.06-2.44 3.86-2 4.23s1 .5.92 1-2.11 3.59-2.85 4.64-1 1.84-1.19 1.75a2.65 2.65 0 0 1 -.65-3.22c.2-.46 3.31-.78 2.62-3s-2.44-3.05-1.86-4.57a3.86 3.86 0 0 1 3.26-2.21c1.06-.14 2.44.37 3.17-1s.46-4.22 2.16-5.83 3-.83 4.09-.69a3.77 3.77 0 0 0 2.52-.51c.42-.32 3-4 4.92-4.73s2.89-.14 3.54.42.73 1.33 2.34 1 5.37-3.59 7.26-3.22 2.29 1.93 3.76 1.84 3.08-1.61 4.14-1.43a2 2 0 0 1 1.79 1.43c.18.73.18 1.61.92 1.88zm-2.3.69a5.74 5.74 0 0 1 -1.51-.73c-.24-.12.59-.92 1.1-.65s.78 1.38.41 1.38zm-29.31 6.66c-.27.46-2 1.84-2.15 2.07a1.56 1.56 0 0 1 .18-2.34c1.24-.88 2.25-.19 1.97.27zm-4.41 5.22c-.32.42-1.74 1.75-2.38 2.57a5.42 5.42 0 0 0 -.83 1.34 1.49 1.49 0 0 1 -.55-2 4.4 4.4 0 0 1 2.57-2c.87-.26 1.52-.35 1.19.09zm16.45-16.75c0-.41.64-.78 1.65-.69s1.66.69 1.38 1-1.1 1.15-1.7.92c-.31-.11-1.38-.82-1.33-1.23zm-15.25 1c.37-1.25 1.37-2.79 2.25-2.56s.73.51.69.73-.92 1.2-1.33 2a8.23 8.23 0 0 0 -.6 1.38 1.14 1.14 0 0 1 -1.01-1.58zm-9.23 5.29c.82-.27 1.93.79 1.93.79s-.28 2.57 0 2.89a6.39 6.39 0 0 0 -1.57-1c-.55-.13-.64 0-.73-.22s-.46-2.18.37-2.46zm-2.9 5.52c.32-1.7.87-2.07 1.7-1.93s2.25 1.24 3.17 1.24 1.06-.14 1.1-.74a10 10 0 0 1 .33-4.45 4 4 0 0 1 3.95-2.94c1.37.18 2.2.69 2.71.55a1.39 1.39 0 0 0 .82-.46 39.23 39.23 0 0 1 3.49-4.82c1.38-1.43 2.44-1.47 3.4-1s1.11 1.56 2.48 1.24 3.72-2.8 5.1-3.17 1.52.78 2.48 1.29 1.06.6 1.56.46 2.53-1.9 4.21-2.45 2.16-.55 2.71.23.18 2.06 1.1 2.06 2-1.79 3.68-1.65 2 1.24 2 1.93a2.62 2.62 0 0 1 -.18 1.33c-.14.09-1.66-.55-2.9.09s-1.65 1.2-2.16 1.06-2.43-2.3-3.76-2-4.88 2.41-5.49 2.07-1.1-1.43-2.52-1.29a5.73 5.73 0 0 0 -2.58 1s-1.51-.73-4.4.51-4.5 4.78-5.37 4.99-3.08-.87-5.51.51-3.68 5.51-3.91 6.28a1.49 1.49 0 0 1 -.64 1 5.35 5.35 0 0 0 -3.21.5c-1.7.83-2.07 2-2.53 1.84a4.71 4.71 0 0 1 -.83-3.28zm.37 14.74c.46 2.9 1.29 2.76 1.1 3.22s-.41.82-1.15.36-2.16-2.75-1.51-5.69 1.61-4.41 2.06-4.46 1.38 1.2 1.15 1.84-2.11 1.84-1.65 4.73zm-3.17-12.31c.37-1.15 1.7-.64 2-.23s.82 1.33.68 1.43-1.47.73-1.47.73-1.58-.78-1.21-1.93zm53.83.4a18.87 18.87 0 0 0 -3.12-2.37.69.69 0 0 0 -.82.73 27.61 27.61 0 0 0 3.62 2.51 7.32 7.32 0 0 1 -1.05 1.47 35.87 35.87 0 0 0 -4.83-2.69c-.41-.05-.87.64-.68 1a41.61 41.61 0 0 0 4.73 2.46c-.44.36-1 .76-1.63 1.2a36.88 36.88 0 0 0 -3.84-1.88s-.92.51-1 .78 2.52 1.32 3.71 1.82c-.68.44-1.42.91-2.22 1.39a5.48 5.48 0 0 0 -2.23-1.09c-.6-.09-.64.78-.5 1.1s.89.57 1.44.77c-5.24 3.1-12 6.7-15.45 8.55-5.7 3-13.78 7.4-18.42 7.91s-9.24-1.41-11.31-3.55-2.66-6.93-.74-12.35c.1-.27.33-.14.23.18s-.87 5.17.58 7.92 3.49 3.45 5.69 1.56 4.27-6.56 7.67-11.16 9.54-11.15 15.14-13.15 11.94-1.52 15.21-.87 8.26 3.21 9 4.82a4.4 4.4 0 0 1 .82 2.94zm-42.39 18c-.23-.14-.74.22-2.25 1.28s-1.75.51-2 .74c-.6.59 0 .92.51 1s.46 0 1.38-.46a10.61 10.61 0 0 0 2.48-2c.2-.36.11-.45-.12-.58zm2.86-4.89a.92.92 0 0 0 .46 1.65c1 .14 1.33-1.1 1.19-1.56s-1.05-.53-1.65-.09zm10.57-10.5c-.19-.66-1.41-.69-2.23-.13a1.35 1.35 0 0 0 .66 2.3c1.31.19 1.74-1.57 1.56-2.22zm-8.14 5.63a1 1 0 0 0 1 1.43c.92 0 1.24-.69 1-1.52s-1.81-.65-2.01.04zm12.72-9.37c-.27-.83-1.77-.6-2 .09a1 1 0 0 0 1 1.43c.95-.05 1.27-.74.99-1.57zm7.91 2.8a1 1 0 0 0 1 1.43c.91 0 1.24-.69 1-1.52s-1.82-.65-2.01.04zm-6.67 2.76a1 1 0 0 0 1 1.42c.91 0 1.24-.69 1-1.51s-1.81-.65-2.01.04zm-6 4.59a1 1 0 0 0 1 1.43c.92 0 1.24-.69 1-1.52s-1.78-.65-1.98.04zm-5.31 4.09a1 1 0 0 0 1 1.43c.91 0 1.24-.69 1-1.52s-1.8-.56-2 .09zm22.83-16.59a1 1 0 0 0 1 1.43c.92 0 1.25-.69 1-1.52s-1.8-.6-2 .09zm-25.09 20.36a.67.67 0 0 0 .66.92c.59 0 .8-.45.62-1s-1.1-.37-1.28.08zm20.07-9.47a.68.68 0 0 0 .66.93c.6 0 .81-.45.63-1s-1.18-.38-1.29.07zm-6 1.88a3.36 3.36 0 0 0 -2.39 1.24c-.23.33.36.92.78 1s.37-.14.82-.55.56-.23 1.06-.28.46-.14.74-.46-.05-.95-.96-.95zm7.48-12.49c.65-.09.28-.05.51-.55s-.46-1-1.7-1a1.94 1.94 0 0 0 -1.79 1.52c-.14.32.27.87.82.87s.33-.37.69-.73.88-.02 1.52-.11z" fill="#1d1d1b"/></svg>