<svg height="64" viewBox="0 0 64 64" width="64" xmlns="http://www.w3.org/2000/svg"><path d="m36.21 40.33s.31-33-.07-35.14-2.24-3.32-6.95-3.25-6.26 1.24-6.26 3.4.31 34.91.31 34.91c-4.48 3.25-5.41 5.75-5.18 11.28a10.85 10.85 0 0 0 11.74 10.47c7-.46 12.21-3 12.28-11.27s-5.87-10.4-5.87-10.4zm-6.56 18.38c-3.86-.08-8.73-2.62-9-8.34s5.35-8.37 5.45-8.88-.24-35.49-.1-35.99c.19-.69 1.85-1 3.09-1s4.32.23 4.48.93v1.36a6.49 6.49 0 0 0 -2.12-1c-.42 0-.21.73-.11 1.15a8.88 8.88 0 0 0 2.24 1.66v1.55a9.14 9.14 0 0 0 -2.24-1.6c-.52 0-.63.52-.52.89a20.18 20.18 0 0 0 2.75 2.37v1.54a17.62 17.62 0 0 0 -2.32-1.86c-.48-.16-.69.32-.63.63a31.57 31.57 0 0 0 2.94 3.07c0 10.8-.12 26.73.13 26.94s4.87 1.46 5.33 8-5.51 8.66-9.37 8.58zm10.66-43.41a8.34 8.34 0 0 0 1.35.12 10.36 10.36 0 0 0 0 1.31c.08.27.85.35 1.16 0a3.69 3.69 0 0 0 .18-1.3 4.87 4.87 0 0 0 1.52-.2c.61-.31.07-.54-.08-1.08-.07-.24-.66-.38-1.42-.46a18.55 18.55 0 0 0 -.02-2.09c-.07-.27-1.12-.12-1.27.11v1.93a11.27 11.27 0 0 0 -1.75.12s-.37 1.39.33 1.54zm5.48 22.7c0-.27-5.7-.34-5.83-.15a2.68 2.68 0 0 0 -.08 1.43c.12.23 5.64 0 5.95-.12s0-.92-.04-1.16zm-13.9 6.6s.05-27.9.05-28.68a2 2 0 0 0 -2.06-1.64 1.92 1.92 0 0 0 -1.9 1.9c-.06.93.3 28.47.3 28.47-2.72.47-3.29 3.2-3.14 5s1 4.63 4.28 4.38 5.56-1.39 5.51-4.79a5.24 5.24 0 0 0 -3.04-4.64z" fill="#1d1d1b"/></svg>