<svg height="64" viewBox="0 0 64 64" width="64" xmlns="http://www.w3.org/2000/svg"><path d="m56.78 30.86a19 19 0 0 0 -5.54-11 21.4 21.4 0 0 0 2.18-2.86 2.93 2.93 0 0 0 -1.09-3c-1.33-1.06-3.42-2.25-4.33-2s-3.1 2.82-3.1 2.82-2.55-1-4.83-1.68a29.09 29.09 0 0 0 -4.29-.87v-1.55a21 21 0 0 0 3.48-.22c.43-.22.7-4.61.38-5s-14.07-.54-15-.16-.27 5.26.05 5.59 4.13-.05 4.13-.05l-.06 1.63s-.43 0-2.87.54a26.52 26.52 0 0 0 -5.6 2.12s-1.84-3.26-2.49-3.59-5.65 3.59-5.92 4.42 2.06 3.59 2.06 3.59a31 31 0 0 0 -6.57 12.41c-1.09 4.73-.22 11.51 4.83 18.3s20.58 13.14 32.42 4.35 13.14-16.73 12.16-23.79zm-8.2-17.64c.6-.06 3.91 2.55 3.75 2.87s-1.74 2.66-2.12 2.61a42.09 42.09 0 0 1 -3.91-3.26s1.7-2.17 2.28-2.22zm-22.75-3.7c-.3-.12-.22-2.87.06-2.87s11.78-.11 11.89.27.27 2.17-.27 2.33-11.41.38-11.68.27zm8.47 2.61c-.21.11-3.74 0-3.74 0s-.28-1.35-.06-1.41 3.91-.22 3.91.06.11 1.22-.11 1.35zm-21 4a15.67 15.67 0 0 1 4-2.93c.49 0 2.12 2.12 2 2.44s-4.3 3.22-4.3 3.22a15.75 15.75 0 0 1 -1.71-2.77zm36.8 29.87c-5.05 7.28-17.86 12.54-26.87 8.53s-14.77-11.34-13.63-19.32 4.07-13.42 9.72-16.46 8.09-4.07 12.38-4.07c4.78 0 13.52 1.74 18 8.42s5.45 15.64.4 22.9zm-17.7-28.55c-15.4 1.36-18.08 12.22-17.92 18.55s6 16.23 16 16.39 19.65-6.19 18.78-19a16.42 16.42 0 0 0 -16.86-15.94zm-1.83 33.44c-9.1-.15-14.47-9.25-14.62-15s2.29-15.72 16.41-17a15 15 0 0 1 15.41 14.6c.8 11.73-8.1 17.51-17.2 17.4zm.66-29.2s.77 12.37.77 12.44-10.87-6.42-11.85-6.13-3.26 5.54-2 10.43 4.08 9.94 12.47 10.26 15-2.52 14.66-15.39-14.05-11.61-14.05-11.61zm12.13 17.5a14.21 14.21 0 0 1 -.72 1.81 6.52 6.52 0 0 0 -2.17-1.05c-.42 0-.21.73-.1 1.15.05.23.84.78 1.53 1.22a10 10 0 0 1 -.8 1.1c-1-1.05-3.57-3.23-4-3.23s-.63.52-.53.89a35.79 35.79 0 0 0 3.75 3.13 10.43 10.43 0 0 1 -1 .85 22.61 22.61 0 0 0 -3.32-2.87c-.47-.16-.68.32-.63.63a28.08 28.08 0 0 0 2.8 2.92c-.29.15-.59.29-.89.41a29.84 29.84 0 0 0 -2.9-2.65c-.16 0-.68.32-.74.74s1.54 1.76 2.24 2.38c-.31.08-.62.17-.94.23-4.09.75-8.39.57-11.32-2a11.94 11.94 0 0 1 -4.24-9c0-3.09.82-6.43 1.47-6.19s12 6.85 12.3 6.44-.41-12.38-.16-12.87c.16-.33 5.79 0 8.55 3.58a13.52 13.52 0 0 1 1.82 12.38z" fill="#1d1d1b"/></svg>