<svg height="64" viewBox="0 0 64 64" width="64" xmlns="http://www.w3.org/2000/svg"><path d="m13.79 34.31c-.38 0-1.42.59-3.15 2.78a6.19 6.19 0 0 0 -1.36 4.51s1.25.38 1.46.21a13.34 13.34 0 0 1 1.32-3.58 25.48 25.48 0 0 1 2.22-2.81c.07-.28-.28-1.09-.49-1.11zm17.6-13.64a5.66 5.66 0 0 0 -4.65 2.22 4.39 4.39 0 0 0 -.8 4.1l.55-.21a18.18 18.18 0 0 1 2.09-3.26c1.56-1.77 3.19-1.84 3.4-2.12s-.07-.59-.59-.73zm27.89 6.67a4.37 4.37 0 0 1 .07-1c.11-.32-.45-.84-.66-1.12s-.66-.17-.9-.45-.17-.52-.45-.69a21 21 0 0 0 -3.19-.1 4.79 4.79 0 0 0 -2.78-1.81 28.28 28.28 0 0 0 -6.07-.42s-1.28-3.5-3.64-5.13a14.13 14.13 0 0 0 -5.55-2s.41-.49.69-.91a8.2 8.2 0 0 0 1-2.46c.1-.73.14-1.59-.14-1.63s-.69.31-1.66 1-2.74 2.08-2.74 2.08a21.08 21.08 0 0 0 -.18-3.19c-.17-.35-3.47-.42-3.78-.18s.07 3.23.07 3.23a8.8 8.8 0 0 0 -1.91-.17 6.76 6.76 0 0 0 -2.88.45c-.52.31 0 1 .35 1.28s1.7 1.6 1.7 1.6a12.86 12.86 0 0 0 -5.28 4.23c-2.39 3.19-1.7 7.81-1.7 7.81h-3.81a.5.5 0 0 1 -.1-.42 4.47 4.47 0 0 0 .14-1.21c0-.32-.32-.28-.73-.32s-.21.56-1.43 1.46a6.56 6.56 0 0 1 -1.87 1.08s-.38-2.6-.38-2.85a.64.64 0 0 0 -.66-.66 6.08 6.08 0 0 0 -2.26.84c-.31.31 0 3.6 0 3.6s-.62.11-1.52.18-2.12-.07-2.78-.07-.83 1.03-.14 1.61 2 1.57 2 1.57a15.83 15.83 0 0 0 -4.11 8.71c-.38 4 .83 10.24 8.19 12.77s14.85-1.42 18-5.55a12.56 12.56 0 0 0 2.64-8.43 5.51 5.51 0 0 0 3 .66c2 0 2.63-.87 2.63-.87a13.64 13.64 0 0 0 5.59 5c4.09 2.16 7.77 2.43 13.46-.55s6.59-7.88 6.56-11.56a6.59 6.59 0 0 0 -2.79-5.41zm-.1 5.44a2.63 2.63 0 0 1 -1.39.18 24.92 24.92 0 0 1 -2.43-1.18 1 1 0 0 0 -.76-.25c-.21.07-.59.39-.56.73s-.55 2.33-.24 3a12 12 0 0 1 -.94-1.91 6.18 6.18 0 0 1 -.13-1.21 19.11 19.11 0 0 1 2.36-1.67 11.41 11.41 0 0 0 2.81 1.77c1.24.3 1.35.44 1.28.54zm-1.25-2a2.82 2.82 0 0 1 -1.53-.21c-.31-.18-.66-.49-.69-.77 0 0 .62-.65.87-.52s1.59 1.39 1.35 1.53zm-3.3-5.9c.46-.13 3.16.17 3.2.93s-1.46.63-2.57.42-1.74-1.01-.63-1.32zm-.63 3.57c.24-.94.35-1.29.35-1.29a14.72 14.72 0 0 0 2.29.35c.34 0 .1.31-.42.8a33.14 33.14 0 0 1 -3.89 3.12c-.31 0-.72-.24-.59-.31a8.4 8.4 0 0 0 2.26-2.67zm-3.09 1.28c.24-.21 0-2.22.28-2.26s1.46 1 1.35 1.22-1.59 2.71-2 2.78-2.16-.21-2-.8a2.56 2.56 0 0 0 1.08-.28c.31-.24.1-.62.35-.66s.71.21.95 0zm-3.05-1.18c-.31-.21-.38-.94-.11-1a2.83 2.83 0 0 1 1.5 1c.01.17-1.07.21-1.38 0zm-11.42-17a.35.35 0 0 1 .25.45 12 12 0 0 1 -1.43 2.4 12.15 12.15 0 0 1 -2.18 0c0-.11-.07-.63-.07-.63s3.16-2.36 3.44-2.26zm-6.21-1.18c.35-.07 1.74-.17 1.84.18s.24 3.47 0 3.61a3.51 3.51 0 0 1 -1.77 0c-.1-.24-.41-3.76-.06-3.83zm-4.13 3.23c.05-.35 2.57.14 3 .24s.45.07.48.25-.21.41-.21.41a7.47 7.47 0 0 1 -1.7.35c-.17-.14-1.59-1.01-1.56-1.29zm-16.64 12.9c.24-.14.86-.52 1.07-.24a8.67 8.67 0 0 1 .66 2.74 3.66 3.66 0 0 1 -1.7.1s-.28-2.46-.03-2.6zm-4.27 3.85s1 0 2 .14a7.24 7.24 0 0 0 1.35.07l-1.86 1.29s-1.42-1.01-1.49-1.5zm20.58 16.42a10.93 10.93 0 0 1 -1.4 1.49 12 12 0 0 0 -1.94-2.81 1 1 0 0 0 -.83.76c-.08.39 1.17 2.15 1.71 2.95-.32.24-.67.48-1 .71a15.29 15.29 0 0 0 -2-3.07 1 1 0 0 0 -1 .52 19.82 19.82 0 0 0 1.69 3.27c-.37.19-.76.38-1.16.55a16.38 16.38 0 0 0 -2.06-3.44c-.38-.27-1.08.18-1.22.49s1.41 2.45 2.07 3.39a10.88 10.88 0 0 1 -8.83-.82c-6.8-3.85-7.91-16.45 4.79-20.54 2.48-.8 8.64.41 11.56 4.58s1.7 9.2-.38 11.97zm10-9a5 5 0 0 1 -3.36.41c-1.77-.38-1.95-.69-1.95-.69s-.2-4.06-3-6.21a19.1 19.1 0 0 0 -5.31-2.95s-1-7.19 5.69-10.17 10.27-.52 12.25.73a9 9 0 0 1 3 3.43s-4.92 1.39-6.55 6.08a21.24 21.24 0 0 0 -.75 9.42zm21.34 1.66a17.62 17.62 0 0 1 -2.41 2 8.75 8.75 0 0 0 -.57-.93 15.72 15.72 0 0 1 -.94-2c-.1-.17-.69 0-.87.14s0 1 .39 1.63a18.87 18.87 0 0 0 1.2 1.73 12.37 12.37 0 0 1 -1.64.78 4 4 0 0 1 -.93-1 17.87 17.87 0 0 1 -1-2.67c-.14-.28-1 0-1 .14a2.16 2.16 0 0 0 .31 1.42c.26.48 1.15 1.86 1.56 2.49a9.21 9.21 0 0 1 -1.68.28c-.17-.23-.4-.56-.65-1-.52-.87-1.21-2.47-1.21-2.47a2.9 2.9 0 0 0 -.83.07c-.32.11-.32.52 0 1.25a19.76 19.76 0 0 0 1.43 2.14 10.85 10.85 0 0 1 -1.46-.16c-4.58-.83-7.57-4.13-8.3-5.87-1-2.37-.69-8 2.5-10.58s7.25-2.25 8.09-2.22a1 1 0 0 1 1 .62s-1.11.39-.79 1.08.62.87.59 1.08-.42.27-.42.27a8.44 8.44 0 0 1 -1.39-1c-.59-.56-.55-.9-.83-.73a2.29 2.29 0 0 0 -.57 2.08 3.05 3.05 0 0 0 1.07 1.45c0 .14.18.21-.17.38s-.83 0-.83.32a3.27 3.27 0 0 0 2.46 2.43 6.57 6.57 0 0 0 2.64.27s.35 2.74 1.42 3.33a1.31 1.31 0 0 0 1.84-.38c0-.14-.1-3.12-.1-3.12a2.34 2.34 0 0 0 2.22 1.08 18.7 18.7 0 0 1 2.46.06 9.27 9.27 0 0 1 -2.57 5.66z" fill="#1d1d1b"/></svg>