<svg height="64" viewBox="0 0 64 64" width="64" xmlns="http://www.w3.org/2000/svg"><path d="m11.15 10.92a.75.75 0 0 0 -.94-.47 11.31 11.31 0 0 0 -1.64 3c-.94 2.07-1.46 3.44-1.33 3.83s.77.47 1.08.35.47-1.21 1.2-2.93 1.81-3.27 1.63-3.78zm48.3 27.4c-1.76-1.47-4.68-2.28-5.85-2.93s-3.69-1.55-5.24-3.39a43.51 43.51 0 0 0 -7.27-6.28c-1.38-.73-4.34-1-5.38-1.59s-1.71-1.43-4.71-4.48-4.39-2.75-8.21-4.22-4.97-4.17-6.69-5.63-5.55-2.84-5.85-3a3.75 3.75 0 0 0 -2.19.09c-.6.43-3.14 5.37-4.26 9.11a53.79 53.79 0 0 0 -1.8 16.21c.47 4.79 4.85 13.07 7.3 15.79s9.08 8.73 21.51 9.24 17.33-3 22.49-6.62a30.59 30.59 0 0 0 8.7-9.42c.29-.73-.78-1.42-2.55-2.88zm-44.68-28.09a21.27 21.27 0 0 1 2.53 2.62 11.56 11.56 0 0 0 5 3.83c2.45.82 4.25.6 6.36 2.45s5 5.12 6.58 6.07 3.62.13 6.28 2.11 5.89 5.85 7.66 7.22 7 3.1 7.05 3.49-4.39 5.5-10.41 7.74-13.29 3.44-19.14 1.59-10.32-4.82-13.55-9.64a23.44 23.44 0 0 1 -3.65-14c.21-3.53 2-7.83 2.53-9.21a24.65 24.65 0 0 1 1.99-3.5c.12-.34.59-.77.77-.77zm34.28 40.34c-1.45.79-2.71 1.44-3.88 2a13.86 13.86 0 0 0 -.55-3.3c-.22-.17-.61 0-.78.26a24.15 24.15 0 0 0 0 3.61c-.69.27-1.37.51-2.06.71-.09-1.06-.39-3.74-.46-3.85s-.6.09-.77.43a26.29 26.29 0 0 0 -.06 3.74c-.48.1-1 .2-1.49.28a21 21 0 0 0 -.43-3.5c-.13-.22-.34-.17-.69.13s-.11 2.55 0 3.52c-.51.06-1 .11-1.6.14a25.34 25.34 0 0 0 -.22-3c-.08-.26-.43-.18-.64.08a13 13 0 0 0 -.1 3c-1.27.07-2.7.1-4.33.11a28.61 28.61 0 0 1 -18.11-6.76c-2.63-2.28-7.88-10.67-8.61-16.17s.99-13.34 1.73-16 3.31-7.87 3.7-7.82 3.7 1.29 3.65 1.63-3 4.82-3.91 8.9-1.94 13.37 2.4 19.29 9 8.68 13.25 10.06 9.46 1.29 13.5.82a29.86 29.86 0 0 0 12.35-4.56 36 36 0 0 0 5.85-4.65c.51-.69.51-1 .9-1s2.24 1.51 2.15 1.81a31.44 31.44 0 0 1 -10.79 10.09zm-30.33-27.18c1.08-1.55 1-5 .91-5.37s-1.21-.28-1.68 0c-4.22 2.45-5.08 5-3.79 6.19a3.15 3.15 0 0 0 4.56-.82zm-2.53-3a4.53 4.53 0 0 1 2.58-1.5c.44 0-.05 3.31-1.12 4.17s-2.37.86-2.8.26.39-1.86 1.34-2.9zm10.62 11.39c1.07-.52 4-5.46 4-6.58s-1.16-1.05-1.55-.95a21 21 0 0 0 -4.6 3.31 2.76 2.76 0 0 0 -.26 3.57 2.06 2.06 0 0 0 2.41.65zm-1.46-3.18a12.43 12.43 0 0 1 3.95-3.23c.49 0 0 1.51-1.07 3.05s-1.89 2.28-2.41 2.24-1.25-.9-.47-2.06zm-9.08 5a2.63 2.63 0 0 0 -.51 2.84 2.23 2.23 0 0 0 2.32 1.59c1.25-.22 2.75-2.58 3.1-4.17a4.86 4.86 0 0 0 0-2.8c-.17-.39-1-.69-1.94-.21a12.84 12.84 0 0 0 -2.97 2.78zm4.17-.82a8.76 8.76 0 0 1 -1.8 3.79c-.56.38-.91.64-1.77-.05s.05-2.1.61-2.75a11.58 11.58 0 0 1 2.45-1.94c.41-.13.47.29.51.98zm7.88 2.88a26.92 26.92 0 0 0 -3.75 3.34 2.6 2.6 0 0 0 -.3 3 2.16 2.16 0 0 0 2.15 1.07c1-.17 1.94-1.81 2.54-2.88a9.29 9.29 0 0 0 1-4.09c-.18-.58-.96-.6-1.64-.41zm-1.9 6.54c-.73.13-1.93-.65-1.33-1.76a18 18 0 0 1 3.44-3.66c.35-.17.47 0 .47.52s-1.85 4.8-2.58 4.93zm7.4 2.84c1 .43 1.68.08 2.45-1a11.72 11.72 0 0 0 1.29-4.81c-.13-.35-.75-.29-1.07-.05a22.72 22.72 0 0 0 -3.23 3.27 1.66 1.66 0 0 0 .56 2.62zm.43-1.76c.34-.65 1.89-2.5 2-2.71s.6.12.48.51a11.63 11.63 0 0 1 -1.92 2.92c-.34.08-.9 0-.56-.69zm1.46-6.2a3 3 0 0 0 2.29.12c.56-.35 2.8-5.34 2.75-5.68a1.21 1.21 0 0 0 -1.46-.77c-.77.21-3.66 3.62-3.91 4s-.14 2.1.33 2.36zm.69-2.36c.23-.31 2.62-3 3.05-2.93s.65 0 .48.35-1.93 3.86-2.37 3.98a.91.91 0 0 1 -.94-.08 1 1 0 0 1 -.22-1.29zm8.39 6.66c.56 0 3.31-4.69 3.44-5.2s-.52-.86-1.12-.82-3.44 3.1-3.66 3.61a2.5 2.5 0 0 0 -.08 1.51 1.61 1.61 0 0 0 1.42.93zm2.06-4.73a.4.4 0 0 1 .09.56c-.13.17-1.68 2.71-2.07 2.75s-.6-.56-.6-.56a24.31 24.31 0 0 1 2.58-2.72z" fill="#1d1d1b"/></svg>