<svg height="64" viewBox="0 0 64 64" width="64" xmlns="http://www.w3.org/2000/svg"><path d="m41.52 12.25a4.46 4.46 0 0 0 -4.24-4.06s-.87-4.19-3.19-5.42a7.1 7.1 0 0 0 -8.43 1.31c-2.45 2.58-3.06 6-3.32 8.65a17.86 17.86 0 0 0 1.88 9.87 37.42 37.42 0 0 0 5.28 7.26c.57.57.27 4.1.27 4.1a3.88 3.88 0 0 0 -2.1 2.63c-.22 1.26-.57 20.92-.09 22.89s2.54 2.62 4.2 2.58 2.36-.35 3.1-1.92 1.18-20.89 1-22.72a5.1 5.1 0 0 0 -1.71-3.15s.13-4.06.66-5.15 3.23-3.28 4.85-5.34 2.49-7.47 1.84-11.53zm-5.24-2.05a29.11 29.11 0 0 1 0 7.86c-.48 2-2.36 4.46-4.42 4.63s-3.06-1.35-3.49-5.07.17-7.2 1.92-7.64 2.23.44 2.23.44a16.4 16.4 0 0 1 -.83 1.48 11.57 11.57 0 0 0 -1.36 5.81c.05 2.67 1.4 3.67 2.54 3.37s1.88-1.66 2.14-5.16a9.15 9.15 0 0 0 -.87-5.07c.04-.17 1.92-.85 2.14-.65zm-3.11 1.8c.22-.16 1 2.66.66 4.59s-.44 3.05-1.18 3.23-1.22-.44-1.09-2.8a10.63 10.63 0 0 1 1.61-5.02zm.23 39.08a2.36 2.36 0 0 0 -.92-.33c-.27 0-.36.31-.27.66s.69.61 1.18.87v1.65a7.82 7.82 0 0 0 -1.78-1.32c-.36 0-.49.31-.36.76a9.51 9.51 0 0 0 2.12 1.75v1.33a13.14 13.14 0 0 0 -2.13-1.62c-.31 0-.58.32-.53.72a14.28 14.28 0 0 0 2.56 2.22 6.3 6.3 0 0 1 -.2 1.09 13.52 13.52 0 0 0 -2.32-1.8c-.35-.09-.4.48-.35.93 0 .27 1.07 1.16 1.86 1.79a1.91 1.91 0 0 1 -2.36-1.51c-.43-1.84-.35-20.1-.17-20.71a2.29 2.29 0 0 1 1.27-1.37c.62-.14 2.18.09 2.4.92.09.56.06 8.31 0 13.96zm4.6-27.34c-1.49 1.66-4.15 3.67-4.72 5.42s-.35 4.8-.57 5-1.09-.08-1.44-.35a12.58 12.58 0 0 0 -.3-4.28c-.57-1.4-2.23-3.41-4.64-6.2s-2.75-7.43-2.49-11.1 1.56-6.53 4.16-8.02 5-1.22 6.3.39a7.73 7.73 0 0 1 1.5 3.59 4.66 4.66 0 0 0 -1.4.74 10.91 10.91 0 0 1 -1 .83s-.26-1.62-2.58-1.49-3.93 2.49-4 5.82.69 8 2.4 9.69 3.67 1 5.72-1a9.47 9.47 0 0 0 2.89-6.68c.13-2.36-.05-5.9-.05-5.9s2.1-.31 2.71 3.23-1.02 8.65-2.49 10.31z" fill="#1d1d1b"/></svg>