<svg height="64" viewBox="0 0 64 64" width="64" xmlns="http://www.w3.org/2000/svg"><path d="m39.85 7.4a7.89 7.89 0 0 0 -12.19-3.95c-4.09 2.93-5 6.56-4.09 11.63s4.7 9.72 4.7 9.72 0 29.49-.14 32.18 1.49 4.93 3.76 5.07a4.07 4.07 0 0 0 4.24-4.28c-.05-2.55-.89-31-.89-31.11a33.12 33.12 0 0 0 3.63-5.26 19 19 0 0 0 .98-14zm-7.49 52c-1.4-.14-1.81-1.16-1.72-2.93 0-.28.79 1 1.81.84s1.44-.7 1.49-.42-.18 2.65-1.58 2.51zm-.6-4.74c.6-.34 1.58-.23 1.62.56s-.79 1.58-1.44 1.16a1.14 1.14 0 0 1 -.18-1.72zm6.18-37.86c-1.63 5.3-5.12 8.37-5.07 9.07s.65 27.58.65 27.58a4.57 4.57 0 0 0 -1.39-.19 4.73 4.73 0 0 0 -1.54.56s0-27 0-27.91-.19-1.21-1.91-4.69-3-5.91-3-10.33c0-2.84 2.23-6.47 7.39-6.28s6.5 6.88 4.87 12.19zm-6.14-9.54c-.23-.32-1.39-.28-2.56 1.16a5 5 0 0 0 -1.24 3.82c.14.37 1.21.14 1.4-.37a19.34 19.34 0 0 1 .65-2.38c.51-1.3 1.54-1.07 1.81-1.3s.14-.6-.06-.93zm.61 11.54c-.33-.14-.87.46-.7.74a18.68 18.68 0 0 0 2.37 2.14c.51.33.51-.14.7-.46s-2.05-2.28-2.37-2.42zm1.39-2.47c-.51-.32-.87.53-.74.79a17.59 17.59 0 0 0 2.37 2.05c.37.14.46-.23.56-.51s-1.68-2-2.19-2.33zm1.72-1.44c-.37-.09-.79.42-.7.56s1.35 1.44 1.54 1.39.23-.32.23-.65a2.27 2.27 0 0 0 -1.07-1.3z" fill="#1d1d1b"/></svg>