<?xml version="1.0" encoding="UTF-8" standalone="no"?><!DOCTYPE svg PUBLIC "-//W3C//DTD SVG 1.1//EN" "http://www.w3.org/Graphics/SVG/1.1/DTD/svg11.dtd"><svg width="100%" height="100%" viewBox="0 0 2450 1112" version="1.1" xmlns="http://www.w3.org/2000/svg" xmlns:xlink="http://www.w3.org/1999/xlink" xml:space="preserve" xmlns:serif="http://www.serif.com/" style="fill-rule:evenodd;clip-rule:evenodd;stroke-linejoin:round;stroke-miterlimit:2;"><clipPath id="_clip1"><rect x="0" y="0" width="1111.11" height="1111.11"/></clipPath><g clip-path="url(#_clip1)"><path d="M477.257,1111.11c-22.643,0.764 -45.112,-4.255 -65.278,-14.583c-68.923,-37.5 -307.812,-535.764 -310.764,-540.972c-10.65,-21.449 -20.098,-43.474 -28.298,-65.973l-2.084,-5.902c-5.561,-24.177 -7.144,-49.099 -4.687,-73.785c1.389,-56.424 11.285,-158.334 59.896,-196.181c44.097,-34.201 177.604,-96.875 325.347,-152.257c112.674,-42.534 170.312,-61.458 213.194,-61.458c18.039,-0.138 35.867,3.903 52.084,11.806c46.18,22.916 88.889,109.722 147.048,254.861c18.403,45.486 52.084,118.75 84.549,189.409c55.729,121.528 78.819,173.611 82.292,192.535c5.03,21.421 0.804,44.001 -11.632,62.153c-3.057,4.726 -5.673,9.724 -7.813,14.93c-2.778,7.292 -5.903,13.716 -8.68,19.618c-2.778,5.903 -4.341,9.028 -5.556,12.153c5.208,7.118 11.458,14.757 17.361,22.049c8.642,9.976 16.589,20.533 23.785,31.597c17.361,29.861 1.389,69.445 -24.827,91.667c-21.18,17.361 -221.701,113.021 -324.132,152.604c-74.305,28.993 -150.868,55.729 -211.805,55.729Z" style="fill:#fff;fill-rule:nonzero;"/><path d="M198.264,517.708c-6.076,21.355 -2.778,49.48 18.75,50.868c21.528,1.389 28.125,-23.437 19.444,-42.882c-8.68,-19.444 -32.639,-27.777 -38.194,-7.986Zm811.111,310.764c-7.986,-13.368 -28.125,-34.722 -41.493,-53.646c-13.368,-18.923 1.389,-34.722 11.979,-61.632c10.59,-26.909 22.917,-28.125 17.361,-58.854c-5.555,-30.729 -123.09,-272.396 -163.889,-375.173c-40.798,-102.778 -91.84,-218.23 -130.729,-237.153c-38.889,-18.924 -82.986,-7.292 -239.757,51.042c-156.771,58.333 -280.034,119.097 -316.146,147.395c-36.111,28.299 -45.659,120.486 -46.875,171.355c-1.589,20.112 -0.715,40.343 2.605,60.243c8.155,23.827 18.019,47.036 29.513,69.444c28.125,61.632 246.528,498.264 295.139,525.174c48.611,26.909 142.882,-1.042 250,-42.361c107.118,-41.32 300.174,-135.417 314.931,-147.396c14.757,-11.979 25.347,-35.07 17.361,-48.438Zm-850.694,-310.764l-22.743,-55.034c-0,-3.993 10.763,-160.764 20.138,-156.25c9.375,4.513 41.493,75.52 40.105,78.645c-14.528,19.706 -24.599,42.337 -29.514,66.32c-5.344,21.7 -8.026,43.971 -7.986,66.319Zm67.013,128.646c-2.604,-2.778 -46.875,-91.146 -50.868,-97.222c-3.993,-6.076 1.91,-52.083 11.98,-89.757c10.069,-37.674 20.833,-46.875 22.916,-44.792c2.084,2.084 58.16,122.57 57.466,127.257c-11.235,15.27 -20.021,32.198 -26.042,50.174c-10.764,32.986 -13.368,56.944 -15.452,54.34Zm182.119,269.792c-2.605,26.215 -0,59.722 -2.605,58.333c-2.604,-1.389 -156.25,-283.333 -161.458,-293.403c-0.88,-23.682 3.017,-47.3 11.458,-69.444c13.368,-41.493 21.355,-44.792 25.348,-42.882c3.993,1.91 144.097,299.306 144.791,303.299c-8.539,13.478 -14.487,28.434 -17.534,44.097Zm-32.813,-241.146c-52.083,-108.507 -187.5,-387.153 -190.972,-397.743c-3.472,-10.59 22.048,-27.431 76.215,-56.945c54.167,-29.513 197.222,-96.527 264.931,-115.277c67.708,-18.75 125.173,-42.882 150.694,-32.118c25.521,10.764 28.82,24.826 64.931,100.694c36.111,75.868 205.555,445.833 214.062,463.889c6.924,11.938 4.996,27.146 -4.687,36.979c-6.771,5.208 -64.41,25.347 -180.903,63.542c-116.493,38.194 -302.952,112.673 -307.118,110.59c-4.167,-2.083 -34.896,-64.93 -87.153,-173.611Zm594.271,162.847c-82.344,46.329 -167.132,88.173 -253.993,125.347c-88.368,36.112 -190.972,75.695 -221.702,71.528c-30.729,-4.166 -75,-75.694 -26.736,-143.923c8.681,-12.327 243.056,-94.445 336.979,-127.952c93.924,-33.507 129.862,-44.965 131.945,-40.798c2.083,4.166 -8.16,9.375 -6.076,36.111c0.87,21.151 8.612,41.453 22.048,57.812c10.07,10.417 20.486,17.361 17.535,21.875Zm-190.972,-402.604c22.743,-21.354 20.139,-52.083 8.68,-81.597c-11.458,-29.514 -104.166,-201.042 -114.583,-208.334c-10.417,-7.291 -74.306,6.077 -165.972,42.362c-91.667,36.284 -221.181,78.125 -235.938,90.104c-14.757,11.979 -16.146,23.784 -6.597,57.465c6.076,21.528 79.687,198.958 89.062,213.715c7.666,15.973 24.543,25.558 42.188,23.959c26.215,1.389 76.389,-10.07 182.812,-56.25c106.424,-46.181 177.605,-59.896 200.348,-81.424Zm-384.549,115.278c-19.271,-4.688 -19.965,-4.688 -28.125,-23.438c-8.16,-18.75 -85.764,-196.354 -86.806,-204.34c-1.041,-7.986 -7.465,-23.437 1.91,-27.431c6.25,-2.604 133.334,-56.944 226.563,-87.847c93.229,-30.903 142.534,-43.403 156.25,-38.021c13.715,5.382 107.118,193.577 111.111,209.549c7.843,17.335 0.709,38.047 -16.146,46.875c-22.049,12.153 -113.715,45.66 -204.861,81.771c-91.146,36.111 -140.452,47.917 -159.896,42.882Zm3.472,-160.764c20.66,-2.083 33.507,-18.75 30.729,-26.736c-2.777,-7.986 -7.291,-11.459 -11.284,-9.375c-3.993,2.083 -7.466,17.361 -24.132,15.972c-16.667,-1.389 -39.584,-20.139 -22.917,-34.722c16.667,-14.584 19.445,-9.375 22.917,-12.674c3.472,-3.298 -2.084,-17.361 -4.688,-17.361c-7.291,-3.646 -50.347,11.285 -41.666,47.57c8.68,36.284 30.208,39.236 51.041,37.326Zm54.167,-35.59c22.049,18.229 75,-8.681 60.937,-52.084c-14.062,-43.402 -62.847,-31.25 -71.701,-21.354c-21.354,25.347 -10.59,55.382 10.764,73.438Zm3.819,-56.598c4.279,-3.291 9.529,-5.077 14.927,-5.077c10.365,-0 19.657,6.583 23.094,16.362c0.662,2.177 0.998,4.44 0.998,6.715c0,12.667 -10.423,23.09 -23.09,23.09c-3.537,0 -7.027,-0.812 -10.199,-2.374c-7.21,-4.79 -11.554,-12.891 -11.554,-21.547c-0,-6.326 2.32,-12.437 6.519,-17.169l-0.695,0Zm133.507,7.813c4.721,-21.329 -1.844,-43.651 -17.361,-59.028c-15.561,-8.236 -35.095,-2.873 -44.271,12.153c-9.187,22.193 -0.548,48.036 20.139,60.243c4.732,2.975 10.21,4.553 15.8,4.553c11.824,0 22.569,-7.065 27.256,-17.921l-1.563,-0Zm-34.722,-10.07c-5.829,-2.951 -9.518,-8.954 -9.518,-15.488c-0,-4.12 1.467,-8.109 4.136,-11.248c3.646,-5.729 16.146,-4.687 20.833,8.681c4.688,13.368 -4.166,22.743 -14.93,17.882l-0.521,0.173Zm83.16,7.987l-6.771,-14.063c14.736,1.118 29.535,1.118 44.271,0c7.291,-2.083 4.687,-11.458 2.604,-16.146c-2.083,-4.687 -38.195,-1.909 -43.576,-5.208c-5.382,-3.299 27.604,-41.667 27.604,-43.576c-1.482,-4.623 -5.916,-7.697 -10.764,-7.466c-6.771,0 -29.514,36.285 -30.903,38.889c-1.389,2.604 -14.062,-27.43 -17.361,-31.423c-3.299,-3.994 -14.063,1.562 -14.063,5.902c0,4.341 30.903,77.084 32.813,79.167c1.91,2.083 16.667,-6.076 16.667,-6.076l-0.521,-0Zm-188.889,138.888c-0,0 -0,-26.215 -21.528,-26.909c-16.404,-0.669 -32.235,6.253 -42.882,18.75c-10.647,12.497 34.722,82.465 37.5,84.548c2.778,2.084 15.972,-4.166 25.347,-10.764c9.375,-6.597 40.278,-21.527 32.118,-48.958c-8.159,-27.43 -30.034,-16.84 -30.034,-16.84l-0.521,0.173Zm-37.5,8.681l-4.688,-12.674c0,0 10.07,-8.68 15.278,-3.472c5.208,5.209 6.077,10.07 2.778,13.542c-3.299,3.472 -12.847,3.125 -12.847,3.125l-0.521,-0.521Zm52.083,24.132c-8.327,9.779 -19.3,16.953 -31.597,20.66c-1.91,-1.91 -14.063,-24.653 -10.59,-26.736c7.224,-6.061 16.009,-9.972 25.347,-11.285c0.6,-0.069 1.203,-0.104 1.807,-0.104c8.667,0 15.798,7.132 15.798,15.799c0,0.498 -0.023,0.996 -0.07,1.492l-0.695,0.174Zm34.722,-73.09c-28.645,18.75 -9.375,68.402 24.132,62.326c33.507,-6.076 29.514,-44.792 18.75,-58.333c-11.56,-11.123 -29.396,-12.856 -42.882,-4.167l0,0.174Zm21.007,43.923c-0.742,0.109 -1.491,0.164 -2.241,0.164c-8.476,-0 -15.451,-6.975 -15.451,-15.452c0,-8.476 6.975,-15.451 15.451,-15.451c4.011,-0 7.867,1.561 10.748,4.35c4.688,5.903 6.598,23.438 -8.507,26.216l0,0.173Zm50.695,-69.444c-4.137,6.136 -6.349,13.37 -6.349,20.771c0,18.655 14.052,34.563 32.564,36.868c1.115,0.105 2.235,0.158 3.355,0.158c19.524,0 35.59,-16.066 35.59,-35.59c0,-6.688 -1.885,-13.242 -5.438,-18.909c-5.317,-12.067 -17.317,-19.893 -30.504,-19.893c-12.148,-0 -23.371,6.641 -29.218,17.289l-0,-0.694Zm27.951,37.5c-8.913,-1.4 -15.548,-9.158 -15.548,-18.18c-0,-3.387 0.935,-6.708 2.701,-9.598c3.218,-4.816 8.642,-7.715 14.435,-7.715c6.226,-0 11.993,3.349 15.079,8.757c2.188,2.979 3.368,6.58 3.368,10.276c0,9.524 -7.837,17.361 -17.361,17.361c-0.895,0 -1.789,-0.069 -2.674,-0.207l0,-0.694Zm88.715,-37.5c8.612,-12.579 15.776,-26.091 21.355,-40.278c-2.07,-5.091 -7.188,-8.316 -12.674,-7.986c-6.076,-0 -32.812,44.792 -32.812,44.792c-0,-0 -7.466,-22.049 -12.848,-25.348c-5.382,-3.298 -12.673,5.382 -13.368,7.987c-0.694,2.604 26.216,67.013 26.216,67.013c5.381,0 18.75,-3.993 18.75,-7.465c-0,-3.472 -10.07,-19.965 -5.382,-19.965c4.687,-0 46.18,11.979 50.173,11.979c3.993,0 5.382,-9.375 5.382,-13.368c-14.237,-7.265 -29.268,-12.858 -44.792,-16.667l0,-0.694Z" style="fill:#1d1d1b;fill-rule:nonzero;"/></g><g transform="matrix(3.125,0,0,3.125,-357.084,-1059.36)"><text x="454.688px" y="485.609px" style="font-family:'LucidaGrande', 'Lucida Grande', sans-serif;font-weight:500;font-size:88.889px;">My</text><text x="605.042px" y="485.609px" style="font-family:'LucidaGrande', 'Lucida Grande', sans-serif;font-weight:500;font-size:88.889px;">Recipe</text><text x="454.688px" y="574.498px" style="font-family:'LucidaGrande', 'Lucida Grande', sans-serif;font-weight:500;font-size:88.889px;">Book</text></g></svg>