<svg height="64" viewBox="0 0 64 64" width="64" xmlns="http://www.w3.org/2000/svg"><path d="m10.94 21.24c-.41.41-.15 4.13 0 4.65 0 0 .78.36 1 .1s.11-4.29 0-4.8-.58-.36-1 .05zm42.54-5.78a18.89 18.89 0 0 0 -13.42-6.3 26.49 26.49 0 0 0 -12.13 2.68l-.88-1.75a5 5 0 0 0 2.22-3.51 4.2 4.2 0 0 0 -2.89-4.24c-1.7-.67-5.78-.87-9.91 2.43a25.25 25.25 0 0 0 -8.26 12.49c-1.29 4.49-1.4 9.55.41 11.72s3.36 1.76 5 1.09 1.6-3.36 1.6-3.36l2.84.16a24.1 24.1 0 0 0 .2 5.11 14.23 14.23 0 0 0 2 5.31 27.12 27.12 0 0 0 -3.36 2.28 1.54 1.54 0 0 0 -.15 1.55 56.22 56.22 0 0 0 4.13 6.29c.31.26.67.26 1.85.21s4.39-2.68 4.39-2.68a19.66 19.66 0 0 0 3.88 2.11 20.07 20.07 0 0 0 8.67 1.6c.57-.15 18-25.91 18-26.53s-1.29-3.62-4.19-6.66zm-26.43-3.1c-.31.21-1.34.72-1.34.72s-1.29-2.17-1.14-2.42 1.35-.47 1.35-.47 1.44 1.96 1.13 2.17zm-13 7.9a34 34 0 0 0 -1.05 6.66c-.16.77-.52 1.49-1.19 1.55s-2.81-.42-2.62-5.32 2.58-9.71 5.68-13.48 7.59-5.88 9.75-5.52 2.74 2.43 2.22 3.25-5.05 1.14-7.64 3.41-4.2 6.09-5.2 9.45zm4.18 5.52s-2.47-.15-2.78-.2a6 6 0 0 1 0-1.71c.15-.31 2.94.52 2.94.52zm.42-2.68-3.1-.52a31.24 31.24 0 0 1 2.22-6.19c1.81-4 5.21-5.12 5.73-5s1.29 2.32 1.34 2.48a17.6 17.6 0 0 0 -3.35 3.51 23.66 23.66 0 0 0 -2.85 5.72zm6.29 20.49c-.41.26-2.37 2.27-2.78 2s-3-3.67-3.1-4.75c0-.4 2.17-1.71 2.48-1.4s1.13 1.45 2.06 2.53 1.75 1.37 1.33 1.62zm23.23-19.87a37.79 37.79 0 0 0 5.66.22l-.74 1.13c-1.76 0-5 0-5.13.25a1.91 1.91 0 0 0 0 1.29 15 15 0 0 0 4 .05c-4.68 7-13.16 19.46-13.57 19.46-.57 0-8.21-.41-12.44-5.73s-6.28-10.68-4.47-16.39a16.69 16.69 0 0 1 5.52-8.23c2.84-2.43 8-4.7 15.23-3.62a14.87 14.87 0 0 1 6 2.49 44.5 44.5 0 0 0 -5.09.15c-.21.1.2 1.13.46 1.34a46.47 46.47 0 0 0 6.4-.13c.47.39.92.78 1.34 1.18-1.9-.15-5.83 0-6 .34a1.68 1.68 0 0 0 .36 1.34c.17.09 5.48 0 7.17-.12.35.38.65.75.92 1.09-1.63 0-6.57.28-6.7.32s.26 1.14.47 1.24 5.3.14 7.37 0a1.34 1.34 0 0 1 .22.53s-.08.14-.18.31c-1.89-.08-6.74.05-6.74.05s-.23 1.23-.06 1.44zm-22.93 9.6c-1.7-2.38-1-5.94-1.08-6.14s-1.2 0-1.14.25a11.22 11.22 0 0 0 .73 6.25c1.44 3 3.46 3.36 3.46 3.36a3.75 3.75 0 0 0 .67-.62c.12-.21-.88-.73-2.64-3.1zm-12.49 20.6c.21-.21.21-2.07.78-4.23a5.29 5.29 0 0 1 2.11-2.95c.11-.26-.74-1.18-1-1.08a9.34 9.34 0 0 0 -2.06 3.2 15.48 15.48 0 0 0 -.66 5.14c.08.33.62.13.83-.08zm4.65-4.92c.15-.25-.47-.93-.78-1a17.37 17.37 0 0 0 -2.37 4.6 13.79 13.79 0 0 0 -.72 5.11s.72 0 .92-.21 0-1.91.62-4.13a14.79 14.79 0 0 1 2.33-4.37zm1 3c0-.26-.52-.77-.72-.47a8.1 8.1 0 0 0 -1 3 6 6 0 0 0 .21 3.2c.26.26.72-.26.78-.47a12.4 12.4 0 0 1 .1-2.17c.23-1.38.66-2.87.66-3.09zm1.91 4a13.39 13.39 0 0 0 .36-2.22 29.51 29.51 0 0 1 1-3.71c.06-.42-.89-.73-.93-.57a11.8 11.8 0 0 0 -1 3.2c-.2 1.7-.26 3.15 0 3.46s.5.03.6-.16zm3.1-3.82c-.26.16.1 1 .1 1s.83-.16 1.14.36-1 1.39-1.24 1.49-.11.57.36.83 2.22-.67 2.27-2.53-2.28-1.33-2.6-1.17zm-11.62 7.9c-.88.47-2.79 1-3.72-.15s1.09-1.6 1.4-1.76 0-.82.15-.93.73-.15.93-.51-1.44-.57-1.49-2 1.44-2.11 1.7-2.47-.29-1.23-.57-1.09a6.05 6.05 0 0 0 -2.34 2.83c-.57 1.55 1 2.74 1 2.74a3.86 3.86 0 0 0 -2.27 1.65c-.83 1.34.31 2.79 2.37 3.3s3.87-1.18 4.13-1.39a.43.43 0 0 0 .1-.62c-.12-.19-.48-.08-1.36.38zm10.31-2.86c-.31-.15-.42 0-.73.26s.11.41.36.72.31 1.35-1.18 2-5.24-.45-5.42-.31c-1.3.93.36 1.91 2.78 2.11s4.13-.46 5-2.16a1.82 1.82 0 0 0 -.81-2.62z" fill="#fff"/></svg>