<svg height="64" viewBox="0 0 64 64" width="64" xmlns="http://www.w3.org/2000/svg"><path d="m60.53 15.44c-.59 0-.79.52-1.24.91s-.65 2.35-3.13 2.29-3.16-1.83-6.06-2.64a16.09 16.09 0 0 0 -9.32.39 4.77 4.77 0 0 0 -2.87 2.67 29.41 29.41 0 0 1 -4.89.26c-4.17.07-4.43-1.5-11.4-2.08a18.19 18.19 0 0 0 -16.23 6.94c-3.46 4.49-4.83 11.4-1.7 16.62s6.52 6.84 14 7.62 13.36-1.89 20.46-5.34a68.54 68.54 0 0 0 12.19-7.63 3.73 3.73 0 0 0 1.5.2c.85-.07 4.36-1 5.6-5.61s-.39-6.78-.39-6.78a7.35 7.35 0 0 0 2.09-.91 7.06 7.06 0 0 0 2.86-3.35c.29-1.08-.89-3.56-1.47-3.56zm-10.53 17.34c-.26 1 0 .65-.26 1a69 69 0 0 1 -6.74 4.58 4.6 4.6 0 0 0 -1.33-1.76.75.75 0 0 0 -.92.52c0 .26.81 1.29 1.27 1.83l-1.12.66c-.35-.8-1.37-2.27-1.71-2.27a.58.58 0 0 0 -.65.61 12.6 12.6 0 0 0 1.24 2.29l-1 .55a9.35 9.35 0 0 0 -1.78-2.54.69.69 0 0 0 -.83.48 19.89 19.89 0 0 0 1.58 2.56q-.45.24-.9.45a12.73 12.73 0 0 0 -1.55-2.49c-.3-.26-.91 0-1 .48a11.09 11.09 0 0 0 1.37 2.55l-.89.41-.32.13a7.21 7.21 0 0 0 -1.81-2.7.57.57 0 0 0 -.87.48 13.16 13.16 0 0 0 1.51 2.71c-.42.18-.85.35-1.28.51a11.79 11.79 0 0 0 -1.45-2.66.64.64 0 0 0 -1 .27 10.68 10.68 0 0 0 1.44 2.8c-.34.13-.68.25-1 .36a19.9 19.9 0 0 0 -1.79-2.86c-.22-.13-.79.09-.79.35a26.74 26.74 0 0 0 1.58 2.83c-.55.17-1.11.34-1.67.49a22.63 22.63 0 0 0 -2.13-4c-.26-.13-1 .08-1.09.47a22.91 22.91 0 0 0 1.89 3.86c-.5.12-1 .23-1.5.32a16.3 16.3 0 0 0 -2.11-3.67.65.65 0 0 0 -.87.39 22 22 0 0 0 1.86 3.48l-1 .12a37.59 37.59 0 0 0 -2.52-4.37c-.26-.22-.87.09-1 .39s1.52 3 2.14 4.11c-.39 0-.78 0-1.18 0a41.83 41.83 0 0 0 -2.82-4.29c-.26-.26-.57.26-.65.56a24.85 24.85 0 0 0 2.11 3.73 17.23 17.23 0 0 1 -7-1.82c-7.46-3.82-7.85-9.6-7.33-13.07s4.6-9.22 9.87-10.91a24.48 24.48 0 0 1 13.64-.13c3.09.87 7.78 1.69 11.36.09 0 0 .52.84 2 .45s4-1.5 5.28-1.17 1.63 1 .26 2.41-3.2 2.61-3.07 4.5.14 2.28 2.35 2.15a49.61 49.61 0 0 0 5.61-1.11c1.1-.13 1.23.26.71 1.63s-1.91 2.28-2.14 3.26zm10.79-13.47a11.39 11.39 0 0 1 -3 2.69c-.95.44-1.78.52-1.74.74a9.23 9.23 0 0 1 .57 5.52 10.42 10.42 0 0 1 -3.78 6c-.87.65-2.22.69-2-.66s2.48-2.86 2.52-5-1.3-1.95-2.09-1.91-4 1.13-5.08 1.17-2.56-.26-1.43-1.69 3.69-3.57 3.3-5.52-2.26-2-4.13-1.65-2.56 1.26-3.69 1.22-1.65-.79-1.17-1.35a9.58 9.58 0 0 1 8.77-2.35c5.13 1.13 5.3 3 8.13 3s4.13-2.56 4.43-2.43.6 1.91.39 2.22zm-40.93 3.61c-2 .17-4.91 1.56-7.48 4.64s-2.38 5.7-2.38 5.7c0 .34.78.43.92.17s0-.48.08-1.39a9.07 9.07 0 0 1 2.78-4.69 10.78 10.78 0 0 1 6.17-3.26c2.48-.52 2.83.39 3.26.3s.26-.3.05-.74-1.45-.91-3.4-.73z" fill="#fff"/></svg>