<svg height="64" viewBox="0 0 64 64" width="64" xmlns="http://www.w3.org/2000/svg"><path d="m55.8 41.85c-.8-3.68-1.59-10.16-2.8-15.91s-2.48-12.14-2.48-12.14.81-.34.9-.69a18.56 18.56 0 0 0 -1-5.66c-.85-2.66-2.7-5.19-3.17-5.4s-3-.18-7.85.77-16.34 4.85-17.4 5.02a6 6 0 0 1 -1.8 0 4.21 4.21 0 0 0 -2.2 1.16c-.21.26-1.2 1.85-3 6.74s-2.58 10.55-3.48 18-3.52 12.7-4.03 14.38a4.83 4.83 0 0 0 1.33 4.46c.9.73 3.18 1.2 6.18 1.84s7.29 6.7 7.59 7.17.9.6 2.06.34 7-3.43 14.72-7.12 12.22-4 14.24-4.89a5.12 5.12 0 0 0 3-3.05c.09-.55 0-1.33-.81-5.02zm-18.19-36.72c4.89-1.11 8.28-1.33 8.92-1a8 8 0 0 1 1.79 3 8.64 8.64 0 0 0 -1.32-.49c-.13 0-.26.55-.21.85s1.31.78 2 1.07a10.16 10.16 0 0 1 .26 1.21c0 .23.06.45.08.65a15.83 15.83 0 0 0 -2.27-1.55c-.25 0-.51.43-.56.68a17.86 17.86 0 0 0 2.89 2.22c0 .78-.15 1.17-.31 1.3 0-.34-3-2.53-3.22-2.57a.55.55 0 0 0 -.56.47 21.27 21.27 0 0 0 2.71 2.42l-1.2.31a31 31 0 0 0 -2.61-2.65.85.85 0 0 0 -.82.56 16 16 0 0 0 2.4 2.39l-1.31.33a7.91 7.91 0 0 0 -2-2.12c-.38 0-.43.13-.56.39s1.29 1.4 1.76 1.89c-2.45.62-5.36 1.36-7.88 2.1-5.58 1.63-9.87 3.94-10.72 4a3.09 3.09 0 0 1 -1.63-.34 13.08 13.08 0 0 0 -.13-5.75c-.77-3.3-1.2-4.68-1.2-4.68.17-.1 10.81-3.57 15.7-4.69zm-16.61 5.45c.2-.1 1.58 4.33 1.54 6.48s-.13 2.79-.43 2.83-.64.3-1-2.27-.36-6.91-.11-7.04zm3.2 44.5a77.19 77.19 0 0 0 -6.08-5.59c-.43-.17-.43.26-.64.56s5.46 5.19 6.7 6.26a15.43 15.43 0 0 1 -.18 3c-.26 0-4.08-5.36-7.17-6.52a51.13 51.13 0 0 0 -5.83-1.63 2.28 2.28 0 0 1 -1.33-2.79 78.1 78.1 0 0 0 4.07-14.15c1.12-6.87.47-8.71 2.15-14.33s3.43-9.57 3.69-9.74.25-.13.25.22-.38 6.39.3 8.49 1.63 2.23 1.85 2.32a3.64 3.64 0 0 0 .64.13 51.12 51.12 0 0 0 .47 6 67.6 67.6 0 0 1 .56 7.63 4 4 0 0 0 -1.71-.51c-.22.09-.13.82 0 1a8.75 8.75 0 0 0 1.78.85c0 .45 0 .92.07 1.41a8.71 8.71 0 0 0 -2.2-1.1c-.3 0-.3.47-.3.86s2 1.34 2.58 1.63c0 .44.05.88.08 1.33s0 .64.06 1a11.76 11.76 0 0 0 -2.5-1.66c-.22 0-.39.35-.17.9a12.51 12.51 0 0 0 2.66 2.16c0 .57.05 1.15.07 1.74a23.43 23.43 0 0 0 -3-2.22c-.21 0-.43.51-.47.81s2.63 2.16 3.52 2.8v1.84a26.72 26.72 0 0 0 -3.9-3.22c-.26 0-.35.38-.43.85s3.3 3 4.35 3.75v1.79c-1.14-1.18-4.78-4.32-5.1-4.25s-.39.39-.22.82 4.33 4 5.32 4.87c.08.96.08 1.87.07 2.69zm28.75-7a76.7 76.7 0 0 0 -14.54 5.07c-8.32 3.77-13.17 6.3-13.3 6.3s0-15.1-.13-20.07a106.54 106.54 0 0 0 -.9-12.53c-.51-3.69-.9-5.53-.9-5.53a2.75 2.75 0 0 0 2.53.13 98.26 98.26 0 0 1 13.6-4.9c5.75-1.41 9.14-2.44 9.53-2.14s2.18 9.82 3 16.13 2.57 14.93 2.66 15.61-.94 1.75-1.5 1.92zm-41.48.65c-.26 0-.17.9 0 1s2.23 0 2.57 0 .39-.47.26-.82-2.3-.19-2.82-.19zm14.38-31.5a36.52 36.52 0 0 0 -.85-5.75c-.17-.3-.8 0-.77.22.08.56.72 5.79.72 5.79s.77.13.9-.26zm2.53 17.37s-.12-1.84-.12-2.18 1.28-.35 1.45-.52a.93.93 0 0 0 0-.9 4.41 4.41 0 0 0 -2.57.3c-.43.39 0 .77.17 3.48s.22 6.82.22 6.82.9.08 1-.35-.06-5.25-.06-5.25a10.75 10.75 0 0 0 1.59-.77c.13-.17 0-.77 0-1s-1.68.37-1.68.37zm6.14 3.78c-.09-.17-1.2.21-1.37.21s-.86-7.93-.91-8.19-.71-.08-.81.13.6 9.27.73 9.48 2.19-.56 2.44-.69 0-.77-.08-.94zm3.26-.38c.26-.18 1.11-.3 1.41-2.23s.13-4.68-.77-5.8a1.9 1.9 0 0 0 -2.66-.38 4.08 4.08 0 0 0 -.86 2.27c-.12 1.16-.08 4 .69 5a2.37 2.37 0 0 0 2.19 1.14zm-1.12-7.6c.62-.09 1.46.77 1.63 1.89s.22 3.94-.43 4.42-1.45.21-1.8-1-.25-5.18.6-5.31zm5.58 6a1.37 1.37 0 0 0 1.59-1.07 59.25 59.25 0 0 0 -.13-6.86c-.13-.39-1 .08-1 .08s.34 5.75.21 6.22-.34.82-.81.35-.9-6.1-1-6.31-.72-.17-.86 0 .05 1.85.39 4.38.71 3.09 1.61 3.17zm6-6.05a4.88 4.88 0 0 0 .12-3.9c-.81-1.46-3.14-.22-3.3.09s.39 9.22.52 9.43.64 0 .94-.25-.52-8.58-.52-8.58 1.76-.81 1.89.94a2.28 2.28 0 0 1 -1.29 2.36c-.21.22 0 .65 0 1s2.4 4.19 2.4 4.19.56-.21.64-.55-2.14-3.86-2.14-3.86zm-8.32 18.24c-3.69 1.24-5.41 2.13-5.57 2.36s-.13 1.2.21 1.2 2.06-1.07 4.68-2.15a47.19 47.19 0 0 1 5.87-1.67c.18-.13.22-.9 0-1s-1.5.02-5.19 1.26z" fill="#fff"/></svg>