<svg height="64" viewBox="0 0 64 64" width="64" xmlns="http://www.w3.org/2000/svg"><path d="m6.7 22.84c-.1-.23-.89-.12-.89.09a8 8 0 0 0 .75 2.2c.23.47.6.05.79-.09s-.56-1.97-.65-2.2zm2.1 6.83c.2-.28-.8-2.52-.93-2.67s-.7-.06-.66.19a9.64 9.64 0 0 0 .84 2.62c.38.47.56.19.75-.14zm4.4 11.42c.33 0 .09-4 .05-4.31s-.52 0-.7 0a35.51 35.51 0 0 0 0 4c.14.73.32.31.65.31zm-.61 1.91c0 .42-.28 4.31-.19 4.59s.38.28.61 0a30.31 30.31 0 0 0 .52-4.59c0-.18-.92-.19-.94 0zm-1.21 7.63a17.06 17.06 0 0 0 -.66 2.34 19.47 19.47 0 0 0 -.56 2.2c0 .28.28.23.7-.05s1.45-4.07 1.45-4.35-.79-.48-.93-.18zm20.4-10c-5.57.28-11.52.24-11.75.52a83.82 83.82 0 0 0 0 9c.14.42.56.38 2.9.47a73.75 73.75 0 0 0 13.24-.42c6.27-.8 9.83-2.2 10.2-2.43s-1-8.52-1.5-8.8-7.52 1.37-13.09 1.65zm13.48 6.13c-.52.52-5.48 1.83-9.88 2.48a63.29 63.29 0 0 1 -11.7.52c-2.43-.14-2.43.28-2.57-.33s.05-7.35.09-7.44 6.6 0 13.48-.61 9.32-1.51 9.5-1.38 1.59 6.24 1.08 6.75zm5.94-10.58c.19-.42-.84-2.81-1.17-3s-.75.19-.75.19a21 21 0 0 0 1.22 3.32c.28.14.5-.09.7-.51zm-.47 1.63a38.5 38.5 0 0 0 2.53 5.85c.28.24.7-.28.93-.46s-2.48-5.67-2.66-5.81-.8.19-.8.42zm6.83 4.82a116.36 116.36 0 0 1 -5.14-13.1 4.06 4.06 0 0 0 1.12-.53 4.21 4.21 0 0 0 1.73-1.92c.33-.94-.09-9.45-.14-10.11s-.89-1.36-1.83-1.82-3.79-.15-3.79-.15a3.06 3.06 0 0 0 -.51-1.43 2.42 2.42 0 0 0 -1.68-1 3.48 3.48 0 0 0 -1-2.85c-1.31-1.41-2.41-.68-2.41-.68a5.58 5.58 0 0 0 -2-3.37 3.67 3.67 0 0 0 -3.3-.42 7.37 7.37 0 0 0 -3.37-3.16c-2.1-.77-3.65 1.33-3.93 1.4s-1.94-1.87-3.98-1.49-2.52 2.88-2.52 2.88a7.19 7.19 0 0 0 -3.3.07c-1.41.49-2.32 2.66-2.32 2.66a10 10 0 0 0 -3.65 1.48c-1.54 1.16-1.17 3.91-1.17 3.91l-1.78.65a7.59 7.59 0 0 0 -3.09 2.69s-1.87.84-4.3 2-2.81 2.34-3 3.28 2.06 9.17 2.53 9.92a15.59 15.59 0 0 0 3.09 2.34 9.83 9.83 0 0 1 .28 1.87 46.93 46.93 0 0 1 -1.22 11.7 76.91 76.91 0 0 1 -3.09 9.74c-.37 1.17 1.21 2.71 3.75 3.13a25.24 25.24 0 0 0 6.27 0c1.68-.1 7 2.15 16 1.73s14.41-3.18 21.29-6 8.71-2.39 9.17-2.53 1.08-1.08 1.41-2.39-1.54-3.35-4.12-8.5zm-45.3-27.7c2.53-1 3.19-1.22 3.23-1.36s-1.12-2.76 1.41-4 3.1-1.24 3.1-1.42a2.48 2.48 0 0 1 2-2.15c1.78-.37 2.86.28 3.23 0s.52-3.18 2.72-2.9 3 1.5 3.41 1.4 1.45-1.68 3.28-1.21 2.25 2.71 3.18 3 1.55-.61 3.18.38 2 3.18 2.39 3.36 1.4-.6 2.25.57.46 2.24 1 2.76 1.07.47 1.54 1.31.37 1.17.37 1.17-4.23 3.54-14.34 4.16a141 141 0 0 1 -21.9-.38c-2.57-.33-3.09-.79-3.09-.79a5.46 5.46 0 0 1 3.04-3.9zm-5.47 15.87c-.37-.66-2.95-8.71-2.81-9.27.19-.77 2-1.64 2.48-1.87a3.22 3.22 0 0 1 .94-.28s-.28 1.35.37 1.73.56.61 9.08.93a149.78 149.78 0 0 0 22.37-.79 24.06 24.06 0 0 0 9.55-3.14c1-.7 1.07-1 1.59-1.26s2.29 0 2.52.51.61 8.85.24 9.18l-.36.31a14 14 0 0 0 -1-3.5c-.28-.28-.75 0-.89.52a17.57 17.57 0 0 0 1 3.68c-.24.17-.51.36-.82.56a22.83 22.83 0 0 0 -1.33-3.68c-.23-.28-.61 0-.75.38s1.19 3.12 1.45 3.68c-.3.18-.62.36-1 .55-.24-.92-1.38-4-1.5-4.23s-.79.09-.84.42a43.1 43.1 0 0 0 1.48 4.25 37.67 37.67 0 0 1 -5.74 2.2c-7.16 2.16-15 2.2-21.9 2s-11.92-1.48-12.73-1.95-1.03-.28-1.4-.93zm52.74 20.68a6.73 6.73 0 0 1 -1.23.41 35.77 35.77 0 0 0 -4.15-3.5c-.42-.19-.89.42-.89.56s2.59 2.27 3.8 3.26l-1 .25a26.5 26.5 0 0 0 -3.4-2.67c-.28-.23-.8.1-1 .52s1.78 1.87 2.77 2.56l-1.31.35a16.15 16.15 0 0 0 -2.49-2.44 1.87 1.87 0 0 0 -1.31.61c-.25.32 1.45 1.62 2.25 2.25-4.31 1.27-7.82 4.78-17.36 5.65-9.69.89-14.46.28-17-.51s-2.25-1-3.28-.84-1.45.79-4 .65-4.26-.59-3.84-1.78 2.57-8.09 3.55-12.91a43.45 43.45 0 0 0 .8-9.36 71.87 71.87 0 0 0 18.76 1.17c10.39-.7 14.46-2.53 17.74-3.65l4-1.36s1.78 7.58 4.63 12.5c1.31 2.25 2.39 4.09 3.11 5.47a29 29 0 0 0 -3.53-2.43c-.23 0-.61.65-.61 1s3.84 3 5.14 3.91c-.02.15-.05.27-.15.33zm-42.07-33.88c.23-.05.14-.52.65-.75s.75.42 1 .47a1.72 1.72 0 0 0 .94-.14c.28-.14.19-1.55-1.73-1.59s-2 1.4-2 1.4c.06.47.9.66 1.14.61zm8.7-1.45a4.78 4.78 0 0 1 1.36-.1c.33 0 .28-.09.51-.37s-.7-.75-1.4-.75a2.34 2.34 0 0 0 -1.31.42c-.51.38.37.94.84.8zm-5.38-3c.42-.1.28-.33.89-.61a3.1 3.1 0 0 1 1.4-.14c.33 0 .33-.28.29-.56s-.75-.75-1.83-.57a2.44 2.44 0 0 0 -1.64 1.08c-.23.34.47.85.89.76zm7.91-4.78c.37-.09.75-.18 1.26-.28s.38-.18.47-.42-.61-.75-1.26-.56a3.3 3.3 0 0 0 -1.31.65c-.19.24.47.67.84.57zm1.4 4.54c.19.24.24.05.61-.09s.89.19 1.17.23.38-.23.42-.47a1.1 1.1 0 0 0 -1.17-.93 2.42 2.42 0 0 0 -1.07.47c-.33.33-.14.52.04.75zm5.29-4.49a1.3 1.3 0 0 1 1 .61.89.89 0 0 0 .62-.23 1.13 1.13 0 0 0 -.75-1.5 2.44 2.44 0 0 0 -1.73.1c-.19.09-.23.47 0 .84s.25.14.86.14zm.14 6.55c-.79.19-1.05.91-.93 1.17.18.42.74.14 1.26-.14s1.31-.14 1.36-.51-.89-.75-1.69-.56zm4.78-1.77a.94.94 0 0 0 1.21-.75c0-.47-1.11-.49-1.45-.37-.7.23-.42.98.24 1.12z" fill="#fff"/></svg>