<svg height="64" viewBox="0 0 64 64" width="64" xmlns="http://www.w3.org/2000/svg"><path d="m7.13 34.85a35.83 35.83 0 0 0 .07 4.73c.14.24.7.21.91-.15a27.06 27.06 0 0 0 0-4.41c-.04-.31-.9-.33-.98-.17zm54.13-10.51a3.41 3.41 0 0 0 -2.63-.34 6.45 6.45 0 0 0 -1.47-2.21 4.86 4.86 0 0 0 -2.91-.91 2.72 2.72 0 0 0 -1.12-1.36 6.2 6.2 0 0 0 -2.8-.46 3.21 3.21 0 0 0 -1.15-1.33 4.83 4.83 0 0 0 -2.7-.31 2.43 2.43 0 0 0 -.88-.91 6.51 6.51 0 0 0 -2.31-.21 3.47 3.47 0 0 0 -.94-.74 5.7 5.7 0 0 0 -2.59-.14 2.7 2.7 0 0 0 -.84-.94 14.71 14.71 0 0 0 -5.39-.48 8.58 8.58 0 0 0 -4.1 1.26s-.7-.7-2.7-.6a7.42 7.42 0 0 0 -3.92 2 9.21 9.21 0 0 0 -3.53 0 4.11 4.11 0 0 0 -3.23 2.17 7.06 7.06 0 0 0 -3.46-.17 4.59 4.59 0 0 0 -2.84 2.06 4.48 4.48 0 0 0 -1 .14 4.61 4.61 0 0 0 -1.33.77 3.88 3.88 0 0 0 -2 .32c-.91.45-3.64 2.76-3.5 4.73a5.37 5.37 0 0 0 1.36 3.18s.25 11 .32 11.31-.11.91.45 1.33 12.36 7.84 31.62 7.67 23.87-5 24.43-5.74.95-15.43.95-15.43a3.18 3.18 0 0 0 .8-1.16c.25-.69.49-2.72-.59-3.5zm-54.8-.34c.4 0 1.23 1.23 1.75 1.19a.81.81 0 0 0 .7-.38s-1.78-1-1.26-1.9a1.63 1.63 0 0 1 1.65-.91c.52.07.73.18 1 0s1.08-1.82 2.66-2.1 2.69.42 3.36 0 1.82-2 3.4-2.24 2.9.35 3.5 0a12.84 12.84 0 0 1 3.64-1.65c1.5-.31 1.92.6 2.59.32a13.32 13.32 0 0 1 6-1.05c2.8.24 2.94 1.22 4 1.47s1.68-.39 2.45.07a5.73 5.73 0 0 0 1.86.94 4 4 0 0 1 2.17.53 4 4 0 0 0 1.68.66 2.3 2.3 0 0 1 1.4.67 2.86 2.86 0 0 0 1.3.91c.28.07 1.82-.46 2.62.45s.91 1.3 1.4 1.51 1.51-.39 2.45.42a5.68 5.68 0 0 1 1.3 1.64c.14.14.42.29.45.5s-.91 1.92-5.77 3.11-11.18 2.38-23.16 2.42-17.78-.58-20.44-1.89-3.12-2.63-3-3.26-.08-1.43.3-1.43zm52.65 8.11a2.53 2.53 0 0 0 -1-.27c-.31 0-.38.63-.31.84a5.86 5.86 0 0 0 1.27.92c0 .41 0 .85-.05 1.3a12.61 12.61 0 0 0 -2.73-1.17c-.24 0-.38.49-.31.74a24.4 24.4 0 0 0 3 2c0 .49 0 1-.08 1.48a28.7 28.7 0 0 0 -3.56-2.12c-.24 0-.63.49-.56.7s3.09 2.33 4 3c0 .66-.08 1.28-.12 1.83a46 46 0 0 0 -4.29-3.21c-.25-.07-.63.35-.63.73s3.86 3.12 4.8 3.86a3.36 3.36 0 0 1 -.15.84 2.45 2.45 0 0 1 -.73.44 24.81 24.81 0 0 0 -4.27-3.14c-.28 0-.63.49-.6.84a25.77 25.77 0 0 0 3.52 2.88l-1.24.4a40.92 40.92 0 0 0 -3.69-2.84c-.24-.1-.84.56-.84.84a22.76 22.76 0 0 0 3.31 2.41c-.45.15-.94.29-1.45.44-.89-.68-2.83-2.14-3-2.22s-.6.39-.63.7 1.44 1.34 2.22 1.9a56.48 56.48 0 0 1 -19.45 1.57c-14.35-1.47-18.42-3.47-21.32-4.55a20.9 20.9 0 0 1 -4.66-2.38s-.31-9.42-.24-9.63 3.38 2.52 16.76 3.36 22.09-.31 27.24-1.36 9.69-3.12 9.8-2.66a15.5 15.5 0 0 1 -.01 1.56zm1-5.66c-.07.63-.66 1.72-2.55 2.7s-11.43 3.91-27.36 3.85-22.62-2.28-24.44-3.68-2.48-3.54-1.08-4.52c.2-.14.38-.07.38.18a3 3 0 0 0 .94 2.66c1.16 1 3.33 2.34 8.54 3.11a99.34 99.34 0 0 0 15.06 1.19 114.08 114.08 0 0 0 19-1.85c4.45-.84 7.46-1.75 8.93-2.59s1.68-1.54 2-1.51.67-.14.6.49zm-44.83-1.9a14.24 14.24 0 0 1 1.9-.35c.17-.1-.39-.7-1.62-.66a2.06 2.06 0 0 0 -1.92 1.12c-.07.56.59.25 1.64-.11zm2.07-2.55c.21 0 .35-.17.67-.52s1.26-.35 1.5-.6-.17-.56-1.43-.45-1.54.51-1.54.94.59.7.8.63zm3.85 4c.25-.25 1.16-.07 1.51-.14s.35-.18.42-.53-.63-.59-1.72-.56-1.26.38-1.29.63c-.07.52.88.87 1.08.6zm4.55-5.89a2.9 2.9 0 0 1 2.14-.31s.52-.07.66-.35-.49-1.05-2.52-.67-2.11 1.24-1.89 1.68c.11.24.42.31 1.61-.32zm3.43 3.05c.56 0 .53-.21.91-.49s.77-.07 1.27-.11.52-.42.56-.73-.92-.49-2-.21-1.35.81-1.37 1 .07.53.63.57zm6 2.17a1.24 1.24 0 0 0 1-.24c.38-.25 1.36-.21 1.47-.5s-.6-.66-1.3-.63a2.48 2.48 0 0 0 -1.36.49.51.51 0 0 0 .22.91zm.84-6.2c.28.11.38 0 1.33.07a2.69 2.69 0 0 1 1.68.95s.77-.95-.67-1.75a2.71 2.71 0 0 0 -2.55-.25c-.32.14-.04.91.24 1.01zm8.98 2.87a2.31 2.31 0 0 1 1.33.42s.42 0 .53-.24 0-1.05-1.06-1.26-1.22 0-1.36.07c-.94.38-.17 1.08.56 1.01zm-1 4c.52 0 .8-.42.56-.74a.74.74 0 0 0 -1-.07c-.48.31-.13.81.44.81zm7.18-.18c.52-.14.77-.66.38-.8a1 1 0 0 0 -.91 0c-.39.24-.04.9.49.76z" fill="#fff"/></svg>