<svg height="64" viewBox="0 0 64 64" width="64" xmlns="http://www.w3.org/2000/svg"><path d="m33 36.79a59.16 59.16 0 0 1 -13.43-1.7 45 45 0 0 1 -11.33-4.66c-.39-.22-1 .48-1 .48 0 .22 1 1.05 3.92 2.35a45.36 45.36 0 0 0 14 3.92c7.49 1 11.5.61 11.76.44s0-.48-.17-.78-.45.04-3.75-.05zm-21.92-.35a29.41 29.41 0 0 1 -2.88-3.35c-.18-.09-.73.21-.61.52a4.73 4.73 0 0 0 1.48 2.22 11.7 11.7 0 0 0 3.31 2.4c.26 0 .31-.09.35-.26s-.04-.13-1.61-1.53zm48.1-14.16c-.09-.78 2.57-5.05 2.79-5.66s-1.4-2.22-2.53-2.62-4.31.57-4.58.87-1.78 3.84-3 6.36-2.44 4-10.59 7.93-14.81 2.53-22.27 1.36-12.89-5.67-13.72-5.75-3.08 2.53-3.28 3a14.44 14.44 0 0 0 1.31 6.28c1.14 2.52 3.45 5.84 9.69 10.28s15.6 6.19 24.79 5.75 15.25-4 18.91-7.58 5.53-7.62 5.4-12.16-2.83-7.27-2.92-8.06zm-.7-7.45c1.09.09 1.79.44 1.66 1a1.86 1.86 0 0 1 -2.14.79c-1-.27-1.7-.4-1.78-1a2.88 2.88 0 0 1 2.26-.79zm-1 18a14.51 14.51 0 0 0 1.91 1.34 9.87 9.87 0 0 1 -.41 1.48 16.07 16.07 0 0 0 -2.55-1.82c-.26 0-.61.4-.57.74a15.17 15.17 0 0 0 2.64 2.23 12.11 12.11 0 0 1 -.87 1.48 26.45 26.45 0 0 0 -3.38-2.66c-.22-.09-.43.39-.48.7a22.89 22.89 0 0 0 3.13 3c-.37.46-.78.94-1.25 1.42a19.19 19.19 0 0 0 -3.71-3c-.22 0-.74.22-.74.52a32.8 32.8 0 0 0 3.58 3.33 14.63 14.63 0 0 1 -1.63 1.32 26.52 26.52 0 0 0 -3.34-3.6c-.35-.22-.74.09-1 .39s2.46 3.11 3.23 3.92c-.54.33-1.11.65-1.7.95a24.07 24.07 0 0 0 -3.58-3.47c-.39-.22-.57.3-.52.74a23.3 23.3 0 0 0 3 3.25c-.58.26-1.18.5-1.8.73a29.47 29.47 0 0 0 -2.61-3c-.48-.53-.61.26-.74.61s1.54 2.22 2.09 2.84a36.17 36.17 0 0 1 -14.37 1.6c-8.81-.87-16.81-4.19-20.47-7.2s-7.59-8.93-7.06-11c.07-.29.87 0 1.35-.52s.74-1.48 1-1.48a52.92 52.92 0 0 0 5.62 3.33c3.09 1.4 11.72 2.92 18.43 3s12.42-3.13 16.43-5.7 5.79-4.54 6.8-6.37 2.09-4.83 2.48-4.83.22.22.74.43 1.83-.17 1.74.22-1.78 3.92-1.87 4.58 2.09 2.39 2.44 6.84a22.37 22.37 0 0 1 .06 3.73 7.67 7.67 0 0 0 -1.85-.9c-.3 0-.39.61-.21.87zm-1.48-5.45c-.44-.09-2.53 2.35-6.8 4.66a38.38 38.38 0 0 1 -8.41 3.14c-.26.22-.13.7.52.74s4-.91 8.76-3.31 6.49-4.61 6.49-4.61-.13-.53-.56-.62z" fill="#fff"/></svg>