<svg height="64" viewBox="0 0 64 64" width="64" xmlns="http://www.w3.org/2000/svg"><path d="m47.89 29.35c-1.8.38-1.58 3-.41 3.56a2.1 2.1 0 0 0 2.76-2.08c-.03-1.57-1.45-1.67-2.35-1.48zm.11 2.65c-.53-.25-.63-1.43.18-1.6.41-.09 1 0 1.07.67a.94.94 0 0 1 -1.25.93zm-10.74-2.14a2 2 0 0 0 1.45 3.33c2.2.19 2.82-1.48 2-2.8a2.55 2.55 0 0 0 -3.45-.53zm1.54 2.31a.9.9 0 0 1 -.66-1.52 1.15 1.15 0 0 1 1.56.24c.39.6.1 1.36-.9 1.28zm-10.22-1.75c-1 2 .35 3.77 1.61 3.4a2.34 2.34 0 0 0 1.6-3.11c-.6-1.36-2.79-1.02-3.21-.29zm1.56 2.34c-.59.17-1.23-.67-.75-1.59a1 1 0 0 1 1.5.13 1.11 1.11 0 0 1 -.75 1.46zm-10.71-2.31c-.75 1.36-.09 3.37 1.54 3.05a2.09 2.09 0 0 0 1.36-3c-.44-.8-2.53-.71-2.9-.05zm1.36 2c-.63.06-.73-1.1-.41-1.51a.62.62 0 0 1 1 .28c.16.49.03 1.18-.59 1.25zm-10.57-3.35a2.43 2.43 0 0 0 -.22 2.77 2.1 2.1 0 0 0 2.77.78c.66-.53 1.57-2.29.82-3.33a2.31 2.31 0 0 0 -3.37-.22zm1.1 2.52c-.91-.79-.66-1.48 0-1.92.37-.26 1.7.19 1.67 1.07s-.76 1.63-1.67.85zm43.23-9.37a31.2 31.2 0 0 0 -7.23-1.79s1.63-4.69 1.29-6c-.17-.62-1.48-1.13-2.86-1.41 0-.29 0-.58 0-.83a1.78 1.78 0 0 0 2-1.43 4.36 4.36 0 0 0 -.79-3.46c-.75-1-1.63-3.68-1.95-3.59s-.31.88-.38 1.7-1 2-1.63 3.68c-.58 1.5.82 2.68 1.9 3v.78a4.13 4.13 0 0 0 -2.39.15c-.82.66-.7 6.66-.7 6.66s-.72-.09-2.23-.22-4.43-.25-4.43-.25a38 38 0 0 0 .63-5.18c-.06-1.42-.06-2-2.39-2.83a9 9 0 0 0 -1.59-.39 9.45 9.45 0 0 0 0-1.68c2.17-.5 2.29-2.29 1.66-4.15s-2-3.11-2.45-3.11-.38.22-.5.85-.88 1.13-1.32 1.54-1.19 2.81-.26 4.09a2.12 2.12 0 0 0 1.52 1 12.62 12.62 0 0 0 .2 1.43 3.28 3.28 0 0 0 -2.51.65c-.59.76 0 7.71 0 7.71s-1.19 0-3.27.12a12.93 12.93 0 0 0 -3.36.66s0-5.31-.16-6.54c-.13-.85-1.6-1-2.91-1a4.51 4.51 0 0 0 0-.52 1.22 1.22 0 0 0 .49-.15c.57-.32 1.23-1.2.88-3.4s-2.55-3.27-3-3.14-.37.34-.4.69a2.34 2.34 0 0 1 -.41 1.17 3.68 3.68 0 0 0 -.41 3.18 2.86 2.86 0 0 0 1.78 1.42 6.89 6.89 0 0 0 0 .79l-.45.05a2.67 2.67 0 0 0 -2.33 1.57c-.12.63 1.1 6.92 1.1 6.92a26 26 0 0 0 -5.15 1.16c-2.83 1-4.53 2.93-5 7.39a13.14 13.14 0 0 0 1.66 7.8s.41 16.69.45 17 .31.92 1.91 2.17 7.44 5.16 18.99 5.49 17.64-1.42 21.6-3.24 4.68-2.89 5-3.93.63-14.4.63-14.4a1.8 1.8 0 0 0 .88-.5c.53-.47 1.48-5.38 1.79-9.5s-.76-6.86-3.9-8.18zm-10.72-13a10.88 10.88 0 0 1 1.29-2.1c.22-.38.19-.6.44-.54s1.82 2.56 1.44 3.44-.76 1.13-1.86 1-1.4-.87-1.31-1.79zm-.6 4.34a3.67 3.67 0 0 1 1.62 0v.38a.81.81 0 0 0 .78.12s.06-.17.08-.39a4.72 4.72 0 0 1 1 .24c.72.31.88.53.54.66a10.24 10.24 0 0 1 -2.52-.1c-.73-.11-1.73-.5-1.5-.9zm-.31 1.41a19.85 19.85 0 0 0 2.67.62c1.67.19 1.92-.06 1.89.38s-2.11 8.54-2.48 8.83a3.16 3.16 0 0 1 -2.36-.35c-.44-.35.06-9.48.28-9.48zm-13.36-7.78a2.31 2.31 0 0 1 .15-2c.38-.41 1.2-1 1.48-1.38s.38-.1.63.22 1.32 2.07 1 3.08-2.7 2.16-3.26.08zm-.35 4.47c.65-.06 5.06.31 5 1.32s-3.3.84-4.43.31-1.26-1.57-.57-1.63zm5.13 2.86c0 .12-1 8.3-1.48 8.48a4.61 4.61 0 0 1 -3-.15c-.63-.47-.69-8.46-.63-8.68s1.51.38 3 .41 2.07-.19 2.11-.06zm-18-5.13c-.25-1 .29-1.29.44-1.76s.22-1.16.52-1.13a3 3 0 0 1 1.57 2.47c-.06 1.16-.38 1.67-.94 1.7a1.78 1.78 0 0 1 -1.55-1.28zm1.48 3.87c1.73-.19 2.14.09 1.92.34a1.94 1.94 0 0 1 -1.29.63c-.63.07-3 .6-3.3-.06a5.69 5.69 0 0 1 2.71-.91zm-2.17 2.1c.14-.14 1.17.1 2.36-.06s2.3-.94 2.33-.69.37 8.68-.1 9.15a2.5 2.5 0 0 1 -1.63.56c-.35 0-1.16 0-1.95-2.7a23.2 23.2 0 0 1 -.97-6.26zm37.86 39.36a6.25 6.25 0 0 1 -1.16.91 10.26 10.26 0 0 0 -2-1.27c-.28 0-.63.49-.59.84a5.07 5.07 0 0 0 1.34 1.21c-.33.17-.68.35-1.08.54a19.23 19.23 0 0 0 -1.66-1.26c-.25-.1-.84.56-.84.84s.58.57 1.17 1l-1.21.44c-.53-.37-1-.72-1.16-.77s-.59.39-.63.7c0 .11.18.29.42.49a33 33 0 0 1 -4.23.87c-8.2 1.16-18.17.47-23-.72s-8.87-4.09-9-4.47a8 8 0 0 1 -.13-2.7 3.2 3.2 0 0 1 2.17.31 8.34 8.34 0 0 0 3.24 1.73c1.29.25 3.2-.15 3.64.19a5.92 5.92 0 0 0 2.93 1.57c1.54.26 3.46-.47 4.59-.19s1.85.99 3.14.99 3.74-.62 4.44-.4a3.83 3.83 0 0 0 2.6.72c2.3.09 4.06-.69 5.13-.76a28.81 28.81 0 0 0 3.74-.15c1-.22 1.76-1 3-1.07a7.62 7.62 0 0 0 2.29-.13c.6-.22 2.89-1.6 2.92-1.35a10.12 10.12 0 0 1 -.07 1.89zm.13-3.3a20.07 20.07 0 0 1 -1.89 1.1c-.88.6-1.26 1-1.88 1a5.72 5.72 0 0 0 -2.86.09 14.3 14.3 0 0 1 -4.09.85 19.94 19.94 0 0 0 -3.49.57 37.26 37.26 0 0 1 -3.74.25 4.63 4.63 0 0 0 -2.17-.6c-1.2 0-1.67.41-3.62.35s-2.54-1.29-4.21-1.13a20.13 20.13 0 0 1 -3.46.37c-1.19-.09-2.32-1.41-3.74-1.85s-3.11.25-4.09-.31a16.86 16.86 0 0 0 -2.29-1.51c-.66-.19-2.23.15-2.45-.16a4.69 4.69 0 0 1 .09-2.11s1.76 1.67 3 1.76 2.61-.53 3.55.19a7.28 7.28 0 0 0 3.21 1.61c1.25.22 4.46-.35 4.84-.13s3.68 2.61 5 2.2 2.92-1.35 4-1 2 1.23 3.24 1.23 2.45-.76 3.58-.85 3.43.16 4.47-.16 1.54-1.38 2.64-1.35 1.6.6 3.14.16 3.14-1.29 3.21-1.13a.78.78 0 0 1 .01.56zm.06-2a7.45 7.45 0 0 1 -3.9 1.61c-1.66 0-2.17-.41-3.08 0a8.55 8.55 0 0 1 -4.78 1.35c-2.83 0-2.26 0-3.8.31s-.91.79-2.36.51-1.63-1.42-3.08-1.32-2.55 1.1-3.83 1-3.31-2-4.88-2.23-2.83.85-4.59.57-1.88-1.83-3.33-2-3 .13-4-.62a13.87 13.87 0 0 0 -2-1.51c-.29-.07-.57 0-.57-.13s0-2.48 0-2.48 2-.38 2.77.19a5.32 5.32 0 0 0 4.15 1.76c2.39-.13 4.84-1.1 6.25-.76s2.42 2.36 5.44 1.92 4.47-1 5.85-.69.69.6 2.73.47 3.87-1 4.91-.72 1.51 1.29 4 .75 3.46-1.35 4.78-1.26a27.86 27.86 0 0 0 3.36-.06s.02 3.24-.04 3.36zm.06-4.71a7.36 7.36 0 0 1 -2.73.6c-1.29 0-2-.26-3.36.28s-1.86 1.16-3.21 1.07-1.38-1.2-3.65-1-2.48 1.17-4.24 1-2.36-1-4.18-.88-2.93 1-4.5.75-3.27-1.6-5.28-2-4.21 1.1-6 .91-3.52-1.85-4.59-2a9.14 9.14 0 0 0 -2.61.09l.07-1.88a2.91 2.91 0 0 1 1.88.09c.85.41 1.64 1.73 4.59 1.89s3.49-.85 4.66-.57 1.54 1.51 4.4 1.32 3.93-1.1 5.56-.63 1.43 1.22 4.21 1.04 2.64-.6 4.62-.28 2.67.63 4.21.44 2.89-1.45 4.4-1.42 1.35.41 3.08.29 2.67-.51 2.71-.32a6.92 6.92 0 0 1 -.04 1.23zm.1-2.49a6.1 6.1 0 0 1 -3.33.76c-1.54-.25-2.46-.63-3.37-.44s-2.83 2-4.87 1.51a14.11 14.11 0 0 0 -3.87-.79 15.53 15.53 0 0 1 -4.43.63c-2.2-.09-2.48-1.16-3.65-1.35s-3.2.91-5.12.78-3.52-1.35-4.84-1.42-1.79 1.13-4.28.66-3.46-1.7-4.56-1.82a20 20 0 0 1 -2.2-.1 2.48 2.48 0 0 1 -.12-1.23 3.55 3.55 0 0 0 2.54.51 5 5 0 0 0 2.74-1.26 4.39 4.39 0 0 0 3.8 2.31 5.5 5.5 0 0 0 4.15-2s.79 2.1 3.93 2a5.06 5.06 0 0 0 4.28-2.14 4.62 4.62 0 0 0 4.15 2.17 6.76 6.76 0 0 0 4.59-1.82 5.66 5.66 0 0 0 3.46 1.6c1.91 0 3.89-2.14 3.89-2.14s.44 1.32 2.52 1.16a4.33 4.33 0 0 0 3-1.44 5.47 5.47 0 0 0 1 1.51c.38.22.66.15.66.25s-.07 2.12-.07 2.12zm1.76-4.52a3.27 3.27 0 0 1 -1.54 0c-.1-.1-1.16-2.2-1.6-2.17s-2.48 2.53-3.37 2.16-1.66-1.8-2.51-1.8-2.17 2.33-3.78 2.36-2.39-1.7-3.17-1.7-3 1.92-4.59 2-3.15-2.16-4.18-2.38-2.14 2.8-4.69 2.52-2.86-2.29-3.36-2.23-2.39 2.23-4.24 2.14-2.93-2.63-3.71-2.74-2.27 1.79-4.19 2-3.2-3.46-3.14-8c0-3.44 2.23-5.16 5.06-6a23.88 23.88 0 0 1 3.49-.94 3 3 0 0 0 3.24 2.33c2.8-.1 2-3.27 2-3.27a20.45 20.45 0 0 1 4.5-.69l2.61-.13a2.28 2.28 0 0 0 .94 2.42 5.84 5.84 0 0 0 4.62 0c.69-.53 1-2.42 1-2.42s2 .13 4 .32a9.32 9.32 0 0 1 2.61.47s-.5 2.23.31 3a5.12 5.12 0 0 0 3.62.76c.44-.22 1.1-2.3 1-3.05a26.54 26.54 0 0 1 7.29 1.6 3.92 3.92 0 0 1 2.45 4.12 3.12 3.12 0 0 0 -2 .19 2.18 2.18 0 0 0 -.28 3.21 1.56 1.56 0 0 0 2.2.22s-.21 5.56-.59 5.72zm-.57-6.54c-.78-.38-.59-1.83.35-1.83.66 0 .94.26 1 .73s-.56 1.5-1.35 1.12z" fill="#fff"/></svg>