<svg height="64" viewBox="0 0 64 64" width="64" xmlns="http://www.w3.org/2000/svg"><path d="m44.09 33.91c.14 0 .33-.33.33-.8s-1.79-2.11-2.12-2.22-1.19.41-1 .71a16.92 16.92 0 0 0 2.79 2.31zm-1.79 2.22a.79.79 0 0 0 1.08-.47c.1-.33-2.88-2.79-3.11-2.88s-1 .39-.81.8a13.21 13.21 0 0 0 2.84 2.55zm-.3 8.78c3.82-2.5 5.57-9 5.94-12s.48-5.57.19-6.32-2.22-.8-2.22-.8a41.24 41.24 0 0 0 -.91-10.48c-1.24-5.47-5.11-13.78-12-13.31s-10.91 5.67-13 10-1.75 13.26-1.75 13.26-.71 0-1.65 0-1.14 2-.57 5.66 2.36 9.3 5.05 12.79a10.78 10.78 0 0 0 6.66 4l.26 4.47a18.11 18.11 0 0 0 -3.73.14c-2.83.29-6.89 2.13-7.17 4.25s.94 4.49 5.24 5.1 16.75.52 20.34-.38 6.13-4.29 2.87-6.29-9.3-2.17-9.3-2.17v-5a22.85 22.85 0 0 0 5.75-2.92zm-19.2-32.19c2.41-5.1 6.66-8.31 11.33-7.93s7.55 7.36 8.36 11.52a55.06 55.06 0 0 1 .7 9.53s-22.37-.23-22.8-.33c0 0 0-7.69 2.41-12.79zm13.34 32.36c-1.49.9-2.36 1.29-2.39 1.58 0 .56-.09 9.91.1 10.19s2 .43 2.26 0a2.52 2.52 0 0 0 .19-1.32s4.91-.05 6.8 1.08.33 1.84-.8 2.22-3.92 1-11.8.85-10.25-1.31-10.63-1.98.62-1.7 1.94-2.36 6.56-.75 6.56-.75.1 1.27.52 1.37 1.65-.19 1.65-.62.05-7.6-.09-8-4.2-2.17-6.28-4.11-3.54-5.43-4.53-8.35-1.61-6.75-1.37-7 27.52.33 27.57.81.6 6-2.36 10.31a53.6 53.6 0 0 0 -4.53-4c-.38-.28-1 .38-.76 1s3.51 3.21 4.52 4a10.79 10.79 0 0 1 -.89.9l-.09.09a34.51 34.51 0 0 0 -4.39-3.53c-.47-.15-1 .52-1 .8a49.55 49.55 0 0 0 4.43 3.55c-.35.3-.7.58-1 .84a32 32 0 0 0 -4.63-3.21c-.38 0-.85.23-.85.61s3.18 2.51 4.45 3.38c-.49.35-.94.66-1.36.94a33.84 33.84 0 0 0 -3.84-2.9c-.43-.24-.81.33-.81.61a30.78 30.78 0 0 0 3.41 3zm-10.32-34.53c-1.74 2.78-1.65 4.07-1.56 4.34s1.09.42 1.37.09.43-1.41 1.23-3.49a3.52 3.52 0 0 1 2.64-2.31s.24-.8-.09-1.14-1.84-.28-3.59 2.51zm-3.59 20.45c-.28-.29-1.3-.15-1.27.19a14.64 14.64 0 0 0 1.65 4.81c.29.19.95.42 1.14-.05s-.05-.34-.75-1.95-.48-2.73-.77-3z" fill="#fff"/></svg>