<svg height="64" viewBox="0 0 64 64" width="64" xmlns="http://www.w3.org/2000/svg"><path d="m44 24.94a4.34 4.34 0 0 0 -1.56-3.06c-1.62-1.65-6.59-6.65-6.59-6.65s-.14-3.93-.15-4.05.37-.09.82-.44a9.59 9.59 0 0 0 1.81-1.9 17.49 17.49 0 0 0 -.15-4.18c-.22-.49-2.33-2.29-5.6-2.25a8 8 0 0 0 -5.53 2c-.28.38-.19 2.12-.07 3.77a3.5 3.5 0 0 0 1.72 2.52l.13 5c-.8.81-9 9.33-9.13 9.87s-.23 29.13-.05 29.54 2.57 1.89 6.35 3.89 5.74 2.58 6.61 2.6 2.22-.35 4.58-1.86a70.57 70.57 0 0 0 6.81-4.9c.2-.33.43-.79.46-4.39s-.36-25.06-.46-25.51zm-11.33-20.84c2.35 0 3.41.78 3.41 1s-1.26.7-3.49.75-3.24-.37-3.33-.7a4.75 4.75 0 0 1 3.41-1.05zm-4 4.08a14.63 14.63 0 0 1 -.05-2.18 9.61 9.61 0 0 0 3.83.76c2.19 0 3.82-.84 3.91-.59a15.73 15.73 0 0 1 0 1.94c0 .25-.84 1.35-4.06 1.26s-3.45-.78-3.58-1.19zm11.64 39.12a22.19 22.19 0 0 0 2 1.7v1.58a12.21 12.21 0 0 0 -2.6-1.87c-.21.07-.23.59-.19.84a21.59 21.59 0 0 0 2.79 2.15v1.34a24.63 24.63 0 0 0 -3-2c-.25 0-.33.56-.26.78a27.68 27.68 0 0 0 3 2c-.13.14-.29.31-.49.5a12.74 12.74 0 0 0 -2.67-1.74c-.4 0-.51.6-.47.82a16.16 16.16 0 0 0 2.35 1.6l-.68.56a11.41 11.41 0 0 0 -2.25-1.7c-.25 0-.44.81-.35.93s1.14.93 1.77 1.42c-.34.26-.68.52-1 .74a23 23 0 0 1 -4.89 2.56 1.22 1.22 0 0 1 -.62 0s.25-31.69.07-32.18-1.13-.34-1.16 0c0 .17.09 7 .14 14.21-.42-.34-1.24-.91-1.4-.84s-.21.53-.14.9 1.17 1 1.55 1.22v1.28a7.8 7.8 0 0 0 -1.81-1.5c-.28 0-.33.51-.29.82a14.14 14.14 0 0 0 2.13 2.06v1.6a16.67 16.67 0 0 0 -2.27-2c-.22 0-.42.6-.29.87s1.85 2 2.56 2.66v1.88a33.2 33.2 0 0 0 -2.64-2.86c-.25-.09-.45.57-.47.88a31.66 31.66 0 0 0 3.1 3.64v1.9a31.61 31.61 0 0 0 -3.15-3.89c-.22 0-.48.63-.45.88s3 3.83 3.57 4.59c0 .74 0 1.38-.07 1.92a61 61 0 0 0 -3.73-5.28c-.31-.15-.57.76-.53.91s3.16 4.52 4.08 5.82c0 .16-.06.26-.09.26a4.56 4.56 0 0 1 -1.3-.42 36.48 36.48 0 0 0 -3.33-4.84c-.28-.09-.58.1-.7.48a18.79 18.79 0 0 0 2 3.53 49.17 49.17 0 0 1 -6.65-3.48c-.26-.49-.26-27.29-.06-27.67s9.17-10.12 9.23-10.7-.08-5.16-.08-5.16a8.38 8.38 0 0 0 1.79.29 5.22 5.22 0 0 0 1.49-.08s.08 4.92.21 5.08 7.59 7.16 7.95 8.23c.23.69.34 12.44.35 20.74a3.82 3.82 0 0 0 -1.23-.76c-.18 0-.23.34-.2.65s1 .84 1.43 1.1v1.49a7.45 7.45 0 0 0 -1.74-1.37c-.24.03-.41.71-.31.93zm-16.78-18.76c-.08.18.21 4.18.21 4.18s.59.23.8 0a19.17 19.17 0 0 0 -.14-4.37c-.13-.24-.78 0-.87.19zm18.09 1.38c-.12-.92-.82-1.68-1.77-1.16s-1.21 2.24-1.21 2.24-.07-.33-.14-.55-.5-1.35-1.21-1.18-.79 1.54-.54 2.81 1 1.46 1 1.46v1.76c-2.37.62-2.59 2.92-2.52 4.41s1.91 1.87 3 1.38 1.62-2.31 1.61-3.89a1.66 1.66 0 0 0 -1.2-1.8l.36-2.18s.71-.11.83-.15.41.18.75-.11a5.5 5.5 0 0 0 1.04-3.04zm-2.53 7.61c0 1.11-1.06 3.16-2.16 2.81s-1.84-1.68.24-3.85a1.33 1.33 0 0 1 1.92 1.04zm-.22-4.77c-1 .12-.59 0-.74-.08s-.66-.17-.73-.69-.2-1.48.14-1.43.69 1.31 1 1.31 1.27-2.4 1.9-2.29.7 1 .53 1.57a2.84 2.84 0 0 1 -2.1 1.61z" fill="#fff"/></svg>