<svg height="64" viewBox="0 0 64 64" width="64" xmlns="http://www.w3.org/2000/svg"><path d="m45.51 20c-.4-3.35-2.77-5.31-5.13-6.76a9.83 9.83 0 0 0 -5-1.32v-1a4.24 4.24 0 0 0 1.56-.71c.44-.44.57-1.76.47-3.72s-.54-3.17-1.62-3.85-2.95-.79-5.99-.64a4.5 4.5 0 0 0 -4.12 2.77c-.07.23-.34 3.61.14 4.46s2.53 1.52 2.53 1.52v1.18a13 13 0 0 0 -8.28 5.54c-2.06 3.21-1.79 6.83-1.28 14.43s2.33 24.8 2.46 25.34 4.23 4.92 10.75 4.82 10.88-3.24 11.11-3.72.61-2.53.85-6.35 1.96-28.62 1.55-31.99zm-13.71-16c2.56 0 3.37.71 3.41 1s0 .65-.24.71-1.92.1-3.24.14-3.18-.28-3.35-.85c-.04-.17.85-1 3.42-1zm-3.89 4.37a11.39 11.39 0 0 1 .14-2.37 12.7 12.7 0 0 0 3.61.71 17.26 17.26 0 0 0 3.89-.44 11.17 11.17 0 0 1 -.07 2.29c-.14.21-1 .95-3.62.92s-3.71-.87-3.95-1.11zm14.56 36.25a15 15 0 0 0 -2.19-1.62c-.21 0-.34.59-.34.94a13.31 13.31 0 0 0 2.45 2.22c0 .73-.08 1.43-.12 2.11a15.47 15.47 0 0 0 -2.33-1.94c-.25 0-.52.59-.52.94a17.43 17.43 0 0 0 2.77 2.51c0 .55-.06 1.09-.09 1.59a24.15 24.15 0 0 0 -2.93-2.61c-.24 0-.59.52-.55.9a28.89 28.89 0 0 0 3.38 3.34c0 .57-.07 1.09-.1 1.55a19.34 19.34 0 0 0 -3.21-2.38.73.73 0 0 0 -.45.83c.09.41 2.68 2.62 3.54 3.34 0 .44-.07.71-.08.73a2.47 2.47 0 0 1 -.49.39 20.82 20.82 0 0 0 -3.08-2.79c-.34-.07-.48.62-.45.83a31.76 31.76 0 0 0 2.5 2.5c-.37.19-.79.38-1.27.58a12.16 12.16 0 0 0 -2.37-2.43c-.42-.1-.62.31-.62.62a13.06 13.06 0 0 0 1.72 2.23 17.72 17.72 0 0 1 -6.18.81c-5.75-.31-8.28-3.38-8.45-3.65s-2.26-25.95-2.53-30.1.44-6.73 2.26-8.86 5.88-3.34 5.88-3.34 0 2 .2 2.06 1.66 0 1.66-.24-.17-4.49-.17-4.49.68.07 1.52.17a7.48 7.48 0 0 0 1.72 0s-.2 5.16 0 5.33a3.89 3.89 0 0 0 1.93.24c.33-.14.13-3 .13-3a7.58 7.58 0 0 1 4.36 1.49 8.47 8.47 0 0 1 3.48 5.33c.13 1.19-.45 13.84-.98 23.87zm-16.47-28.44a9.74 9.74 0 0 0 -2.7 3.07 8.13 8.13 0 0 0 -.47 4.19c.2.2 1.11.14 1.18 0a13.2 13.2 0 0 1 .17-3.15c.37-1.58 2.5-3.17 2.5-3.17s-.52-1.05-.68-.94zm1 15.64c-1.58.64-1.28 4.93-.7 6.52s2 1.66 2.6.85a9.86 9.86 0 0 0 .67-5.88 2 2 0 0 0 -2.57-1.49zm1.32 6.35c-.27.37-.91.44-1.45-.67s-.3-4.09.44-4.33c.3-.09 1.15-.1 1.35 1.22a8.51 8.51 0 0 1 -.38 3.78zm3-5.84c-.06.27 0 5.77.07 6s1.08.17 1.28 0a48.2 48.2 0 0 0 0-6c-.03-.17-1.29-.22-1.35 0zm4.5 5.54c-.17-.07 0-5.44-.1-5.71s-1.15-.15-1.22 0a66.1 66.1 0 0 0 0 6.89 16 16 0 0 0 3.61-.2c.07-.1.17-.78 0-.94a17.07 17.07 0 0 0 -2.29-.04z" fill="#fff"/></svg>