<svg height="64" viewBox="0 0 64 64" width="64" xmlns="http://www.w3.org/2000/svg"><path d="m61.21 27c-.44-.06-10-.32-10-.32s2.94-5.8 3.19-7.78 0-3.64-.51-3.83-9.5-.19-9.5-.19a6.48 6.48 0 0 0 .76-1.59 28.66 28.66 0 0 0 1.66-5.11c.32-2-.89-2.36-1.47-2.42s-26.21-.13-27 0-2.16 1.65-1.34 4.24a22.08 22.08 0 0 0 2.49 5s-7.53-.32-8.74-.25-2.54 2.54-2.35 4.78a23.19 23.19 0 0 0 2 5.93s-5.4-.19-6.34-.13-2.29 2.36-2.06 6.51 2.1 7.46 4.91 12.5 10.33 9 10.33 9c.07.83 1.47 4.34 2.43 4.72s23.21.38 24.49-.13 2.49-4.33 2.49-4.33l2.74-1c2-.77 4.59-2 8.48-10.27s4.04-12.28 4.13-13.24-.34-2.04-.79-2.09zm-42.07-16.83c-.6-1.44-.17-2.42.51-2.51s25.42-.08 25.42.26a27.31 27.31 0 0 1 -1.17 3.71 8.42 8.42 0 0 0 -1.9-1.8c-.34-.08-.63.34-.72.68s1.48 1.73 2.11 2.31a3.13 3.13 0 0 1 -.2.41c-.13.25-.23.46-.32.64a13.9 13.9 0 0 0 -2.48-2.59.55.55 0 0 0 -.64.51 21 21 0 0 0 2.43 3.21l-.12.05s-.32 0-.77 0a15 15 0 0 0 -3.06-2.95c-.34-.09-.6.47-.64.68a15.48 15.48 0 0 0 1.66 2.27c-5.49 0-17.11-.15-17.31-.15a42.92 42.92 0 0 1 -2.8-4.73zm-6.85 6.83c1.11 0 16.54 0 24.75.08s15.73-.38 15.77-.17a20 20 0 0 1 -1.81 5.93l-.05.1a7.52 7.52 0 0 0 -2.16-2c-.39 0-.68.51-.73.77a18 18 0 0 0 2.33 2.46c-.19.38-.35.7-.5 1a25.29 25.29 0 0 0 -2.63-2.54c-.26-.13-.64.17-.77.51s1.76 2.42 2.52 3.29a.5.5 0 0 1 -.22.11h-.75a14.1 14.1 0 0 0 -2.41-2.54c-.3-.09-.47.17-.73.42s.89 1.42 1.5 2.1c-7.95-.12-32.83-.61-33.26-.61a35.37 35.37 0 0 1 -2.21-5.78c-.47-2.22.25-3.2 1.36-3.13zm42.71 26.17a10.06 10.06 0 0 0 -2-2.43c-.3 0-.64.56-.64.81a28.75 28.75 0 0 0 1.88 3c-.25.4-.49.77-.73 1.13a14.22 14.22 0 0 0 -2.12-2.95c-.3 0-.43.09-.64.56s1.37 2.61 2 3.5c-.26.37-.52.71-.78 1a26 26 0 0 0 -2.45-3.56c-.21-.08-.8.43-.85.64a44.66 44.66 0 0 0 2.33 3.96 11.94 11.94 0 0 1 -1.06 1 44.57 44.57 0 0 0 -2.71-3.75c-.21 0-.59.26-.76.55s1.9 2.91 2.61 3.82a9.11 9.11 0 0 1 -1.08.55 20.71 20.71 0 0 0 -2.79-3.63c-.38-.13-.72.38-.76.59a34.94 34.94 0 0 0 2.55 3.47 12.92 12.92 0 0 1 -1.33.34 21.14 21.14 0 0 0 -2.52-3c-.34-.13-.6.08-.77.42s1.26 1.9 2 2.81l-.89.09c-5.14.38-5.14.72-5.27 1s-.6 1.53-.26 1.65 4.13 0 5.15-.08 1.74-.38 1.74-.26a6.43 6.43 0 0 1 -1.57 2.13c-.51.21-8.68.3-14.76.13s-7.31-.09-7.82-.38-1.57-2.39-1.23-2.43a15.75 15.75 0 0 1 1.78.09c.85 0 1.07-.09 1.19-.17a4.12 4.12 0 0 0 .3-1.53c0-.26-1.79-.17-6.8-2.6s-7.73-6.85-9.6-11.15-2-9.06-1.51-10.23c.16-.41 17.67.39 29.47.52s25.51.31 25.7.51-2 8.36-5 13.88zm-30.8-31.17c.21-.34-.81-2.21-1-2.55s-1.2-.38-1.2.04c0 .26 1.32 2.68 1.32 2.68s.68.17.88-.17zm-8.64 12.63c.22.13 1-.34.94-.6a11.9 11.9 0 0 0 -.81-1.65 7.17 7.17 0 0 1 -.69-3.07c0-.21-1.15-.08-1.23.09a3.25 3.25 0 0 0 .23 2.6 9.63 9.63 0 0 0 1.56 2.63zm-5.23 7.74c-.12-.21-1.47-.19-1.44 0a16.45 16.45 0 0 0 1.32 5.44c1.19 2.64 2.8 4.55 3.1 4.59a.91.91 0 0 0 .89-.76c.05-.47-.8-1-2.42-4.13a11.89 11.89 0 0 1 -1.45-5.14z" fill="#fff"/></svg>