<svg height="64" viewBox="0 0 64 64" width="64" xmlns="http://www.w3.org/2000/svg"><path d="m62 31.7c-.39-6.6-4.16-11.27-11.19-12.13s-10.09 1.63-10.09 1.63a12.34 12.34 0 0 0 -9.39-3.3 17.8 17.8 0 0 0 -10.21 3.77s-.68-.21-3.12-.67-5.36-.86-10 2.14a12.8 12.8 0 0 0 -6 10.11c-.22 6.51 1.58 8.62 5.14 11.06s12.27 1.69 20.54 1.69 24.44.26 28.17-1.46 6.56-6.23 6.15-12.84zm-2 2.51c0 .6-.12 1.19-.21 1.77a13.17 13.17 0 0 0 -3-2.13.6.6 0 0 0 -.52.68 23.47 23.47 0 0 0 3.08 3.08 9.23 9.23 0 0 1 -.68 1.65 30.29 30.29 0 0 0 -3.67-3.61c-.34-.17-1 .34-.94.73a40 40 0 0 0 3.89 4 6.53 6.53 0 0 1 -1.64 1.44 32.83 32.83 0 0 0 -3.71-4.1.76.76 0 0 0 -.81.6c0 .32 2.35 3.2 3.16 4.17a7.61 7.61 0 0 1 -1 .33c-.23.06-.53.11-.86.17a27.36 27.36 0 0 0 -3.6-4.07.79.79 0 0 0 -.85.6c-.1.33 2 2.62 3 3.65q-1 .11-2.16.18a15.79 15.79 0 0 0 -2.68-3.23c-.47-.22-.77 0-1 .43s1.27 2 2.07 2.89l-1.62.07a16 16 0 0 0 -2-2.41 1.73 1.73 0 0 0 -1 .43 8.92 8.92 0 0 0 1.4 2c-9 .29-21.33.16-24.68.19-4.93 0-7.54.47-10.76-1.46a9.77 9.77 0 0 1 -4.67-10c.32-2.72 1.58-5.92 6.94-8s9.35-1 11.88 1.11 2.66 2.92 3 3 1.76-.86 1.54-1.46a6.43 6.43 0 0 0 -2.4-2.87 21.29 21.29 0 0 0 -2.4-1.41 15.25 15.25 0 0 1 8.66-2.75c4.85.13 7.38 2.06 9.22 4.93s2.23 3.86 2.7 3.91 1.85-.82 1.46-1.51a20.11 20.11 0 0 0 -2.14-3.4c-.86-.94-1.11-1.07-.94-1.28s5-1.63 10.46-.34c5.24 1.22 7.48 6.26 7.48 10.48a10.4 10.4 0 0 0 -1.84-.79c-.22-.05-.39.51-.43.81s1.47 1.09 2.27 1.52zm-50.11 1.35c-.3-.34-1 .43-1 .65a4 4 0 0 0 2 2.78 3.61 3.61 0 0 0 3.38.22c.13-.26-.55-.13-2.18-.86s-1.9-2.44-2.2-2.79zm.9-7.29c.9.13 1.41-.6 1.2-1.15s-1.27-.54-1.72-.3c-.64.34-.38 1.32.52 1.45zm4.93-2.1c-.64.35-.39 1.33.51 1.46s1.42-.6 1.2-1.16-1.27-.53-1.71-.3zm-2.72 5.15c.9.13 1.41-.6 1.2-1.16s-1.27-.54-1.72-.3c-.62.34-.36 1.33.52 1.46zm5.44-2c-.64.34-.38 1.32.52 1.45s1.41-.6 1.2-1.15-1.25-.51-1.7-.27zm11.37-7.42c-.65.34-.39 1.33.51 1.46s1.42-.6 1.2-1.16-1.25-.51-1.69-.27zm4.11 1.63c-.64.34-.38 1.33.52 1.45s1.41-.6 1.2-1.15-1.26-.51-1.7-.27zm14.67.13c-.65.34-.39 1.32.51 1.45s1.42-.6 1.2-1.15-1.25-.51-1.69-.27zm-1.59 3.34c-.65.34-.39 1.33.51 1.46s1.42-.6 1.2-1.16-1.29-.51-1.71-.3zm5.4-1.63c-.64.34-.39 1.33.51 1.46s1.42-.6 1.2-1.16-1.29-.5-1.73-.27zm-1 3a.77.77 0 0 0 .4 1.34.83.83 0 0 0 .93-1.06c-.17-.51-.99-.49-1.33-.28zm-15.18-2.23a.77.77 0 0 0 .4 1.34.83.83 0 0 0 .93-1.06c-.17-.51-.98-.49-1.33-.28zm-6.86-.68a.76.76 0 0 0 .4 1.33.82.82 0 0 0 .93-1.06c-.17-.51-.98-.49-1.33-.27z" fill="#fff"/></svg>