<svg height="64" viewBox="0 0 64 64" width="64" xmlns="http://www.w3.org/2000/svg"><path d="m57.07 26.67s.84-.93 1.2-4.45-.8-9.29-6.85-11.34-11.7 1.2-11.7 1.2a13.78 13.78 0 0 0 -3.25-3.47c-2.27-1.78-10.23-5.47-17.13-1.87a12.7 12.7 0 0 0 -7.07 10.19 13.76 13.76 0 0 0 -9.52 9c-.85 2.7-1.87 8.57 1.64 13.78s10.06 4.49 10.06 4.49a27.64 27.64 0 0 0 -.36 2.8 9.11 9.11 0 0 0 3.65 8.23c3.65 3 9 5 16.33 2.31s7.56-7.61 7.56-7.61a17 17 0 0 0 3.29 1.65 13.11 13.11 0 0 0 10.15-1c4.09-2.18 6.71-4.4 7-12.68s-5-11.23-5-11.23zm-5.65 23.09c-6.1 1.47-10.06-3.78-10.5-4s-1.07 0-1.11.4-.63 5.16-3.78 7.43a14 14 0 0 1 -13.4 1.65c-5.42-2.09-6.4-6.36-6.4-8.1a4.89 4.89 0 0 1 1-3.42c.49-.41 3.83-2 4.14-2.63a1.44 1.44 0 0 0 -1-1.78c-.67 0-4.27 2.4-6.36 2.54s-7.44-1.65-9.01-6.5 0-12.46 5.74-15.08c2.1-1 3.11-1 4.18-.54s1.73 1 2.27 1 1.24-.84 1.06-1.16a6.63 6.63 0 0 0 -2.13-1.69 4.94 4.94 0 0 0 -1.47-.49s-.35-3.15 3.34-6.45 8-3.64 12.9-2.27 7.56 4.94 7.47 5.25-1.78 2.54-1.69 3.43.71 1 1.07 1.16.8-.4.8-.4a7.69 7.69 0 0 1 5.46-5.36c4.36-1 9.65-.63 11 4.22a14.65 14.65 0 0 1 .13 8.32s-1.82-1.06-6-.49-5.61 1.87-5.74 2.63.18 1.47 1 1.2a14 14 0 0 1 8.54-1.16c4.72.85 7.07 6.41 6.9 11.26s-2.32 9.56-8.41 11.03zm-25.36-21.76c.27.31.13.09.36-.31s-.18-.67-1.78-2.31-3.16-3-3.83-3.12-.71.46-.71.72.67.62 1.87 1.51 3.82 3.16 4.09 3.51zm12.46-6.72c0-.31-.75-.63-1.07-.4a11.39 11.39 0 0 0 -2.23 3.92 8.79 8.79 0 0 0 -.75 4c.09.49.35.13.62-.09s.45-1.83 1.16-3.6 2.27-3.55 2.27-3.87zm-1 13.08c.14-.44-1.19-.1-1.38.14s-.26 2 .72 4.89a9.6 9.6 0 0 0 3.21 4.61c.27.13.94.18 1 0s-.94-1-2.58-3.83a8 8 0 0 1 -1-5.85zm-8.32 1.61c.23-.27.18-.36.09-.58s-.84.35-2.31 1.06a28.67 28.67 0 0 1 -3.38 1.12c-.18.13-.09.89.31 1a8 8 0 0 0 2.67-.8 8.89 8.89 0 0 0 2.59-1.84zm-19.73-5.92a1.22 1.22 0 0 0 .62 1.95c.71 0 1.51-.4 1.2-1.43a1.14 1.14 0 0 0 -1.82-.52zm7-2.31a1.21 1.21 0 0 0 .62 1.91c.71.05 1.51-.4 1.2-1.42a1.14 1.14 0 0 0 -1.79-.49zm-2.23 5.87a1.22 1.22 0 0 0 .62 1.92c.72 0 1.52-.41 1.2-1.43a1.14 1.14 0 0 0 -1.79-.49zm15.57 9.7a1.14 1.14 0 0 0 -1.81-.49 1.21 1.21 0 0 0 .62 1.91c.73.05 1.53-.4 1.22-1.42zm16.09-3.74a1.22 1.22 0 0 0 .62 1.92c.72 0 1.52-.4 1.21-1.43a1.15 1.15 0 0 0 -1.83-.49zm4.72-3a1.21 1.21 0 0 0 .62 1.91c.71 0 1.51-.4 1.2-1.42a1.13 1.13 0 0 0 -1.82-.51zm-1.38-17.28c.71 0 1.51-.4 1.2-1.43a1.14 1.14 0 0 0 -1.82-.49 1.22 1.22 0 0 0 .62 1.92zm-23.49-4.36c.71 0 1.51-.4 1.2-1.43a1.14 1.14 0 0 0 -1.82-.5 1.22 1.22 0 0 0 .62 1.93zm-11.49 11.77a.88.88 0 0 0 -1.4-.37.93.93 0 0 0 .48 1.47c.55.03 1.16-.31.92-1.1zm4.38 5.72a.94.94 0 0 0 .48 1.48c.55 0 1.17-.31.93-1.1a.88.88 0 0 0 -1.41-.38zm3.06-14.36c.55 0 1.17-.31.93-1.1a.89.89 0 0 0 -1.41-.38.94.94 0 0 0 .48 1.48zm3.57 2.26a.93.93 0 0 0 .48 1.47c.55 0 1.16-.3.92-1.09a.88.88 0 0 0 -1.4-.38zm3.65 27.9a.93.93 0 0 0 .48 1.47c.55 0 1.16-.31.92-1.1a.87.87 0 0 0 -1.4-.37zm-3.47 2.89a.93.93 0 0 0 .48 1.47c.55 0 1.16-.31.92-1.1a.88.88 0 0 0 -1.4-.37zm25.55-7.11a1 1 0 0 0 .48 1.48c.55 0 1.17-.31.93-1.1a.88.88 0 0 0 -1.41-.38zm3.78-5.87a.94.94 0 0 0 .48 1.47c.55 0 1.17-.3.93-1.09a.88.88 0 0 0 -1.43-.35zm-1.91-6.09a.93.93 0 0 0 .48 1.47c.55 0 1.17-.31.93-1.1a.89.89 0 0 0 -1.43-.34zm-7.87-10.47a.93.93 0 0 0 .46 1.43c.55 0 1.16-.31.92-1.1a.88.88 0 0 0 -1.38-.33zm1.7 10.62c-.93.09-1.82 2-.8 2.58s2 .22 1.83-.45-1-.84-.45-1.11 1.34.36 1.74.67.66-.31.53-.71c-.25-.75-1.91-1.07-2.85-.98zm-1.23-12.4c1-.62 1.1-1.63.45-1.82s-1.2.48-1.19-.12.93-1 1.39-1.23 0-.74-.39-.8c-.78-.13-1.83 1.2-2.18 2.07s.9 2.52 1.92 1.9zm-13.57-3.6c-.65-.19-1.2.48-1.19-.12s.93-1 1.39-1.23 0-.74-.38-.8c-.78-.13-1.83 1.2-2.18 2.07s.9 2.52 1.92 1.9 1.1-1.63.44-1.82zm-8.5 30.52c.57-.2 1.28.52 1.64.88s.7-.22.62-.63c-.15-.78-1.76-1.31-2.7-1.34s-2.06 1.71-1.13 2.46 1.92.47 1.87-.21-.86-.96-.3-1.16z" fill="#fff"/></svg>