<svg height="64" viewBox="0 0 64 64" width="64" xmlns="http://www.w3.org/2000/svg"><path d="m7.11 35.62a25.86 25.86 0 0 0 .89 4.88c.25.38.66.12.79-.1a36.68 36.68 0 0 0 -.67-4.65c-.12-.41-.91-.35-1.01-.13zm54.94-17.62c-.15-.47-4.9-2.31-9.11-4s-8.36-3.55-9.18-3.9a14.78 14.78 0 0 0 -3.1-1.17c-.51 0-11.93 5.89-18.67 9.69s-19.85 11.38-19.99 12 2 7.5 2 7.85a41.88 41.88 0 0 0 1.62 6.08 37.48 37.48 0 0 0 5.19 3.51c4.17 2.56 10.6 6.9 11.07 7s6.9-4 18-11.43 16.45-11.11 16.64-11.24 1.55-1.55 3.07-5.85 2.62-8.1 2.46-8.54zm-20.38-6.8c.48.16 6.11 2.85 10.07 4.4s8 2.94 7.91 3.1-1.12.79-2.68 1.85a6.3 6.3 0 0 0 -.68-1.09c-.19-.25-.82.13-.85.25a7.29 7.29 0 0 0 .77 1.29c-.3.21-.61.42-.94.63a5.17 5.17 0 0 0 -1-1.57c-.19 0-.67.19-.67.42a10.38 10.38 0 0 0 .94 1.65l-1 .69a6.67 6.67 0 0 0 -1-1.65c-.26-.19-.83.1-.92.19a14.36 14.36 0 0 0 1.07 2l-1 .67a11.69 11.69 0 0 0 -1.3-1.94c-.12-.06-.6-.06-.69.29a7.92 7.92 0 0 0 1.14 2.22l-.84.6a18.54 18.54 0 0 0 -2-2.93c-.19-.1-.63.41-.63.6s1.31 2.24 1.73 2.92l-.93.61a23.05 23.05 0 0 0 -1.94-3.15 1 1 0 0 0 -.86.38 23 23 0 0 0 2 3.26l-.88.57a42.31 42.31 0 0 0 -2.37-3.61c-.09-.06-.38.16-.54.47s1.39 2.39 2 3.47c-1-.47-6.52-2.88-6.69-3s2.31-13.79 2.78-13.63zm3.33 17.11c-.12.16-20.91 13.39-21.1 13.33s-5.67-3.36-5.8-3.52c0 0 20-12.5 20.7-12.4a40.17 40.17 0 0 1 6.2 2.59zm-21.11-8.45a176.57 176.57 0 0 1 16.64-8.76c.1.09-2.62 13.92-2.78 14s-6.11 3.32-11 6.55-9.31 6.23-9.53 6.14-11.72-6.88-12.04-7.23c-.07-.09 11.33-6.3 18.71-10.7zm-1.44 28.39-.26 1.51a19.76 19.76 0 0 0 -1.59-3.41c-.29-.13-.64.35-.64.63s1.47 3.36 1.93 4.37c-.12.57-.22.93-.28.92a3.13 3.13 0 0 1 -.52-.24c-.35-1.06-1.93-4.66-2-4.79s-.67 0-.76.22a30.18 30.18 0 0 0 1.36 3.8l-1.12-.65a35.38 35.38 0 0 0 -1.57-3.72c-.26-.32-.67-.1-.86 0a12.67 12.67 0 0 0 1 2.85c-1.37-.81-2.91-1.74-4.36-2.74-3.93-2.69-5.32-3.26-5.48-3.57s-3.16-10.94-3.13-11.26.41-.15.41-.15 9 5.44 13.17 8.13 5.44 2.88 5.44 3.13-.19 1.44-.44 3.06c-.27-.51-.74-1.31-.92-1.29s-.41.61-.41.86.75 1.68 1.03 2.34zm34.38-20.49a2.43 2.43 0 0 0 -.92-.78.64.64 0 0 0 -.6.6c0 .28.62 1 1 1.34-.26.55-.47 1-.62 1.26-.37-.54-1.51-1.7-1.74-1.65s-.41.19-.54.54 1.12 1.41 1.6 1.85l-.78.56a12.81 12.81 0 0 0 -2-2.06.92.92 0 0 0 -.66.76c0 .31 1.15 1.43 1.7 1.94l-.89.6a10.63 10.63 0 0 0 -1.86-2c-.22-.1-.63.31-.6.6a13 13 0 0 0 1.6 2c-2.07 1.36-4.65 3-7 4.68-4.97 3.35-21.39 14.27-21.52 14.21s.57-2.22 1-5.19a30.15 30.15 0 0 0 .35-3.8c.09 0 4.24-2.25 8.73-4.91s16.19-10.57 20.08-13.13 6.55-4.08 6.55-3.86-1.64 3.79-2.88 6.44zm-26.14-8.09a59.44 59.44 0 0 0 6.05-2.94 2.09 2.09 0 0 0 -.1-1.43c-.22-.19-5.92 2.76-6.23 3.07s-.04 1.27.28 1.3z" fill="#fff"/></svg>