<svg height="64" viewBox="0 0 64 64" width="64" xmlns="http://www.w3.org/2000/svg"><path d="m61.85 21c-.62-2.46-3.46-5.11-9.57-7.6s-12.45-2.5-21.63-2.14-16.01 1.58-21.86 4.74-7.4 6.4-6.69 9.31 2.6 3.57 2.9 4.18c1.3 2.91 6 14.61 6.8 15.94s8.05 6.43 13.19 7 14.32.58 18.07-.2 7.15-2.49 8.86-5.39 8.25-19.6 8.25-19.6l1-1.55a5.75 5.75 0 0 0 .68-4.69zm-6.18 13.08a6.85 6.85 0 0 0 -1.06-1.08c-.2-.13-.75.38-.75.48s1 1.08 1.39 1.53l-.37.85a11.15 11.15 0 0 0 -2.21-1.67c-.26-.06-.49.29-.46.52a22.57 22.57 0 0 0 2.27 2.05c-.2.46-.41.91-.61 1.37a10.56 10.56 0 0 0 -2.63-2.26c-.32 0-.35.42-.32.71a21.82 21.82 0 0 0 2.51 2.53l-.51 1.14a15.09 15.09 0 0 0 -2.65-2.73c-.51-.19-.77.49-.81.71a32 32 0 0 0 3 3.1l-.68 1.48c-.68-.91-2.6-3-2.89-3s-.55.45-.58.84 2.19 2.65 2.88 3.35c-.23.5-.45 1-.65 1.37-.69-.94-2.56-3.16-2.85-3.13a.6.6 0 0 0 -.55.65 30.93 30.93 0 0 0 2.86 3.5 7.06 7.06 0 0 1 -.52.89 14.79 14.79 0 0 0 -2.84-3c-.29 0-.61.16-.58.42s1.94 2.43 2.57 3.3c-.2.13-.42.27-.7.42a18.44 18.44 0 0 0 -2.73-3.2c-.23 0-.71.42-.75.68a26.54 26.54 0 0 0 2.46 3c-.32.15-.66.3-1 .45a18.84 18.84 0 0 0 -2.61-2.88c-.36-.12-.49.33-.58.59a15.34 15.34 0 0 0 2.13 2.69c-.47.15-1 .3-1.51.45a12.32 12.32 0 0 0 -2.34-2.51c-.29-.09-.71.29-.78.52a13.12 13.12 0 0 0 1.78 2.29 35.76 35.76 0 0 1 -9.78.59c-11.22-.75-17.45-5.17-18.22-6.27s-6.27-13.45-6.15-13.65a36.79 36.79 0 0 0 12.45 3.75 79.11 79.11 0 0 0 23.77-.55 37.91 37.91 0 0 0 11.51-4c1.35-.84 2.19-1.42 2.19-1.22s-.89 2.16-2.1 4.93zm-34.79-1.29a3.31 3.31 0 0 1 1.27-.74c.74-.23 1.71-.2 1.71.06a11.26 11.26 0 0 1 -.2 1.2s-2.52-.2-2.78-.52zm12.13-8a13.71 13.71 0 0 0 4.59-1l2.65 9.21s-4.88.78-14.55.16l2.59-9.57a7.83 7.83 0 0 0 4.71 1.18zm-4.4-2c-.16-.28 2-1.48 4.92-1.58s4.2 1.36 4 1.65a7.32 7.32 0 0 1 -4.3 1.1c-2.23-.09-4.33-.71-4.62-1.23zm13.19 8.35a6.9 6.9 0 0 1 1.88.48c.84.39.94.78.94.78a16.65 16.65 0 0 1 -2.4.26zm18.11-7-.08.21a23.21 23.21 0 0 0 -3-3.05c-.29-.07-.61.19-.61.61s2.55 2.89 3.14 3.49a5.81 5.81 0 0 1 -.57.79 31.25 31.25 0 0 0 -3.61-4c-.38-.16-.67.39-.64.61s2.88 3.24 3.63 4a9.37 9.37 0 0 1 -.73.6 26.12 26.12 0 0 0 -3.44-3.57c-.32 0-.52.39-.45.65s2.24 2.59 3.06 3.46c-.31.2-.64.4-1 .6a44.46 44.46 0 0 0 -3.67-4.19c-.19 0-.94.13-.94.45a45.14 45.14 0 0 0 3.72 4.2l-.91.45c-.72-.93-3.4-3.94-3.57-4a1 1 0 0 0 -1 .55c-.08.3 2.8 3.07 3.66 3.9l-.85.39a28.29 28.29 0 0 0 -3.52-4 .59.59 0 0 0 -.81.52 39 39 0 0 0 3.28 3.89l-.94.38a24.47 24.47 0 0 0 -2.78-3.3c-.23 0-.75.39-.72.68a27.36 27.36 0 0 0 2.6 2.95l-1 .31a11.65 11.65 0 0 0 -1.92-2.26c-.32-.13-.51.19-.55.42a13.39 13.39 0 0 0 1.6 2.12c-.37.09-.57.12-.57.12a5.22 5.22 0 0 0 -2.49-1.55 11.67 11.67 0 0 0 -2.62-.39s-2.39-8.31-3-9.18-2.75-2-6.18-1.72-4.98 1.72-5.53 2.55-2.56 8.83-2.56 8.83a7.37 7.37 0 0 0 -3.26.64 7.11 7.11 0 0 0 -1.84 1.46 24.89 24.89 0 0 1 -9.24-2.62c-4.72-2.43-6-4.79-6.17-5.95-.22-1.31.25-4.46 9.21-8.08s21.52-3.2 26.96-2.91 13.86 2.94 16.74 4.8a7.35 7.35 0 0 1 3.16 3.55 19.5 19.5 0 0 0 -1.48-1.32c-.36-.22-.84.39-.84.65a23.86 23.86 0 0 0 2.47 2.59 3.36 3.36 0 0 1 -.14.62zm-46.79 12.11c0 .32 1.49 5.79 1.49 5.79s1 .12 1.23 0-1.45-5.59-1.58-5.91-1.14.12-1.14.12zm16.14-5.63a25.6 25.6 0 0 0 1-4.33c0-.58-.81-.29-.91-.23s-1.13 4.53-1.13 4.53c0 .41.88.29 1.04.03zm-12.61-13c-.32-.16-1.71.1-4.62 1.56s-3.82 2.48-3.82 2.71c0 .42.65.74 1 .65a26.31 26.31 0 0 1 3.1-2.2 17.11 17.11 0 0 1 4.69-1.74c.1-.1 0-.84-.35-1.01z" fill="#fff"/></svg>