<svg height="64" viewBox="0 0 64 64" width="64" xmlns="http://www.w3.org/2000/svg"><g fill="#fff"><path d="m9.06 21.34c.44-.55 3.52-2.18 9-3.62s9.74-1.64 9.91-1.3.1 1.27-.14 1.3a32.63 32.63 0 0 0 -9.74 1.57c-5.74 1.71-7.09 3.35-7.69 3.35s-1.47-1.12-1.34-1.3z"/><path d="m62.06 22.47c-.1-.78-3.08-5.43-7-7.55a38.72 38.72 0 0 0 -12.66-3.73 70.7 70.7 0 0 0 -23.87.62c-9.53 2.08-12.95 4.95-14.84 7.31a9.17 9.17 0 0 0 -1.5 7.76s.41 1.88 1.27 6.43 1.84 12.62 2.08 13.23 3.59 3.25 9.34 4.93 16.78 2.94 28.89 1.33 16.89-7.18 17.16-7.49 1.23-22.05 1.13-22.84zm-42.06-8.65a58.31 58.31 0 0 1 30.78 1.92c4.65 1.71 8.07 5 8.1 7.42a5.3 5.3 0 0 1 -1.73 3.7c0-1.48-.27-5.32-.32-5.52s-.55 0-.72.18.14 4.89.22 6.13c-.36.32-.72.61-1 .87-.1-.47 0-6.42-.1-6.66s-.65-.11-.79 0 .28 5.6.39 7a10.17 10.17 0 0 1 -1.06.57c.07-1.47-.12-7-.18-7.16s-.69-.07-.82.1.13 6.08.19 7.44l-.59.26c0-1.32-.43-6.65-.49-6.78s-.45.07-.65.35a65.5 65.5 0 0 0 .38 6.75l-1.06.42c0-1.63-.19-6-.25-6.25s-.71 0-.82.31.09 4.77.15 6.29l-1 .38c0-1.24-.21-5.92-.27-6.13s-.61 0-.71.24 0 4.64.11 6.06a10.09 10.09 0 0 0 -1-.61 40.59 40.59 0 0 0 -.12-4.18c-.07-.21-.42-.21-.76 0s-.17 2.74-.12 3.69c-.24-.11-.49-.21-.77-.32a19.1 19.1 0 0 0 0-3.27c-.1-.31-.58-.14-.79 0a14.18 14.18 0 0 0 -.2 2.98 17.29 17.29 0 0 0 -2.18-.55c-3.9-.68-11.39-.27-15.73.38a32.72 32.72 0 0 0 -8.55 2.77 26.9 26.9 0 0 1 -8.68-2.87c-3.7-2.19-4.55-4.34-4.69-6.09-.06-.83 1.68-6.84 15.83-9.82zm26.06 18.47c-.07.13-5.51 1.57-13.71 1.81s-12.93-.89-13.2-1.1 5.47-2 12.27-2.46a42.74 42.74 0 0 1 13.34 1.13c.89.33 1.37.48 1.3.62zm-4.75 18.77a63.6 63.6 0 0 1 -7.68.49 23.8 23.8 0 0 0 -1.8-4.08c-.17-.07-.75 0-.78.24s1.17 3 1.51 3.85h-1.07a26.08 26.08 0 0 0 -1.71-4.22c-.2-.27-1.06.14-1.06.14l1.63 4-1.56-.07a40.06 40.06 0 0 0 -1.71-3.94c-.14-.2-.82-.17-1 0a26.7 26.7 0 0 0 1.47 3.86l-1.31-.11a38.43 38.43 0 0 0 -1.59-3.71c-.14-.28-.82 0-.89.13s1 2.64 1.33 3.45l-1.09-.09a43.29 43.29 0 0 0 -2.3-3.9c-.14-.07-.48.27-.55.51a22.56 22.56 0 0 0 1.62 3.22c-9.77-1.62-14.94-4.9-14.94-4.9s-.55-5.4-1.23-9.2-1.37-7-1.37-7a22.5 22.5 0 0 0 6.29 3.73c4.28 1.81 8.65 2.43 16.31 3a59.5 59.5 0 0 0 13-.55c0 .14.38 4.65.48 9.27s0 5.88 0 5.88zm18.16-16.28a10.74 10.74 0 0 0 -1.86-1.26c-.1 0-.2.65-.17.82a18.84 18.84 0 0 0 2 1.6c0 .66-.05 1.32-.08 2a14.64 14.64 0 0 0 -2.55-2.13c-.24 0-.2.62-.13.89s2.13 2 2.62 2.47c0 .54-.05 1.06-.07 1.55a15.57 15.57 0 0 0 -2.62-2c-.21 0-.14.72-.07 1a28 28 0 0 0 2.63 2.24c0 .67-.08 1.22-.11 1.6a21.35 21.35 0 0 0 -2.72-2.44c-.18 0-.41.58-.41.86a24.16 24.16 0 0 0 2.6 2.73 25.56 25.56 0 0 1 -7.36 4.24c-4.89 2-8.85 2.29-8.89 2.05s-.72-14.83-.51-15.14a37.81 37.81 0 0 0 7.18-2 37 37 0 0 0 9.61-5.44c.72-.51 1-1.16 1.13-1s-.07 3.58-.22 7.36z"/><path d="m39.05 39.84c-.07-.27-.07-.61-.72-.58a22.22 22.22 0 0 0 -4 .62c-.14.3 0 9 .34 9.33s3.87.31 4.07.07.38-9.16.31-9.44zm-1 8.72a6.06 6.06 0 0 1 -2.43-.14c0-.17-.47-7.55-.41-7.79s2.84-.27 2.88 0 .21 7.79 0 7.93z"/><path d="m37.24 41.55s6.9-2.87 7.38-2.73.51 10.08.21 10.15-7.56-1-7.59-1.2-.35-.78 0-.71 6.66 1.33 6.76.94a70.79 70.79 0 0 0 -.07-7.76c-.2 0-6 2.22-6.36 2.22s-.44-.81-.33-.91z"/><path d="m54.88 38.58c0-.34-.48-.34-.48-.34a12.29 12.29 0 0 0 -.27-3.05c-.31-.54-5.34 1.2-5.47 1.44s.1 3.35.07 3.62-5.82 1.54-6.09 1.75c0 0-.17 4.31.07 4.58s2.56.07 3.66-.17 3.14-.85 3.14-.85a8.51 8.51 0 0 0 .1 1.74c.14.21 1.13 0 1.61-.17a17.69 17.69 0 0 0 3.25-1.67 6.88 6.88 0 0 0 0-2.23 2.32 2.32 0 0 0 .48-.37c.13-.21-.07-3.94-.07-4.28zm-5.3-1.2 1.81-.58c1.27-.41 2.12-.79 2.16-.62s.1 2 .1 2a36 36 0 0 1 -4.1 1.51zm4.17 7.62a12.94 12.94 0 0 1 -3.25 1.26c-.2-.14-.07-1.09-.07-1.09s1.24-.52 2.12-.82a5.81 5.81 0 0 0 1.24-.55 3.57 3.57 0 0 1 -.04 1.2zm.38-2.64c-.14.24-1.78.93-5.47 2.12s-5 1.34-5.1 1.2a13.76 13.76 0 0 1 0-2.94 25.32 25.32 0 0 0 5.68-1.74c3.76-1.57 4.76-2.12 4.89-1.88a15.35 15.35 0 0 1 0 3.25z"/><path d="m9.3 36.15s.89-.27 1 .2 1 6.81.85 7-.82.28-.88.11-.9-7.07-.97-7.31z"/></g></svg>