<svg height="64" viewBox="0 0 64 64" width="64" xmlns="http://www.w3.org/2000/svg"><path d="m59.61 11.08a40 40 0 0 0 -3.3-2.55s2.29-2.91 2.51-3.26-.35-.93-1.1-1.37-5.59-2.2-6.08-1.9a49.65 49.65 0 0 0 -3.52 4.4s.79-2.16.84-2.6.17-1.5-.58-1.72a27.08 27.08 0 0 0 -5 .05c-.66.09-1.45.61-3 3.61a79.72 79.72 0 0 0 -3.35 8.94c-4 .48-6.07 1.23-8.8 3.26s-7.72 8.43-10.23 12.43-12.43 21.63-13.48 23.74-1.24 4.67.26 6.39 3.88 1.94 6.26 1 8.72-5.37 14.35-8.85a214.15 214.15 0 0 0 19-13.39c4.8-3.92 6.83-6.43 7-10.74s-1.63-6.26-1.63-6.26l3.57-3.17c2.37-2.11 6.29-4.58 6.6-4.93a2.57 2.57 0 0 0 -.32-3.08zm-10.36 18.28a20.3 20.3 0 0 0 -3.07-1.28c-.39 0-.53.53-.44.93s2.26 1.15 3.26 1.51a9.63 9.63 0 0 1 -.69 1.7 28.3 28.3 0 0 0 -3.12-1.32c-.35-.09-.57.49-.57.75a15.25 15.25 0 0 0 3.1 1.54c-.07.1-.12.21-.19.31a10.19 10.19 0 0 1 -.7.86 14 14 0 0 0 -3.13-1.3c-.23 0-.4.44-.36.7a13.82 13.82 0 0 0 2.57 1.57 67.35 67.35 0 0 1 -9.57 7.15c-4.1 2.65-14.93 9.74-18.5 12.25l-1.31.9a2.37 2.37 0 0 0 -.41-1.08 3.73 3.73 0 0 0 -1.54-1.32c-.22 0-.26.35-.26.35l.88 1.1a2.51 2.51 0 0 1 .62 1.42c-2.82 1.9-5.4 3.26-6.72 3.47a2.81 2.81 0 0 1 -2.91-4 28.8 28.8 0 0 1 1.46-3 2.43 2.43 0 0 1 1.23 0c1 .26 1.23.53 1.36.4a.59.59 0 0 0 .14-.58 5.58 5.58 0 0 0 -2.15-.9c2.87-5.2 8-13.63 11.39-18.83 1.31-2 2.5-3.73 3.6-5.27a4.31 4.31 0 0 1 1.2.3c.8.35 1 .57 1.28.57s.62-.05.53-.22a9.67 9.67 0 0 0 -2.23-1.66 51.58 51.58 0 0 1 3.83-4.74 2.47 2.47 0 0 1 .87.28c1.1.57 1.28.75 1.41.61s.31-.52.22-.7a3 3 0 0 0 -1.78-.94 17.89 17.89 0 0 1 1.45-1.31 10.55 10.55 0 0 1 5.25-2.11c.26 0 3.74-.35 5.28.26s2.55 1.76 4 2.56a10.21 10.21 0 0 1 4.18 5.19 8.85 8.85 0 0 1 .34 1 14.77 14.77 0 0 0 -2.85-.94c-.31 0-.13.93 0 1.1a26.1 26.1 0 0 0 3.07 1.36 7.74 7.74 0 0 1 -.02 1.36zm3.36-11c-2.2 1.77-3.48 2.95-3.48 2.95a20.57 20.57 0 0 0 -4.8-4.31 14.21 14.21 0 0 0 -6.25-2.38c.09-.15 3.92-10.62 5.06-11.2s4.63-.53 4.63-.22a53 53 0 0 1 -1.46 5.55 28.28 28.28 0 0 0 -2.42 4.05c.13.18.44.44.66.31s6.92-9.69 7.45-9.87 5.28 1.54 5.28 2-9.11 10-9 10.3.13.53.53.58a2.93 2.93 0 0 0 .66 0 5.3 5.3 0 0 0 1.36.93c.18 0 .31-.22.4-.44s-.74-.72-1.24-1.06l.37-.41c.53.35 1.41.76 1.53.86s.4-.18.53-.45-.75-.81-1.33-1.22c.12-.12.23-.25.35-.38a16 16 0 0 0 1.77 1.12s.57-.18.57-.48-1-1-1.59-1.48l.52-.59c.52.43 1.46 1.09 1.56 1.19s.75-.14.84-.36-1-1.1-1.69-1.64l.36-.43.15-.16c.57.47 1.77 1.26 2 1.4s.44-.27.48-.58-1.1-1.22-1.7-1.72c.71-.87.89-1.1 1.09-1.1s3.74 3.4 3.65 3.79-4.64 3.72-6.84 5.48zm-35.61 27.78a6.81 6.81 0 0 0 -2.16-1.06c-.3.14-.3.93-.3.93s.61.22 1.36.57a9.83 9.83 0 0 1 1.89 1.54c.18.13.44-.22.58-.44s-.37-.79-1.37-1.54zm4-.84c-.4-.13-.62.49-.62.49a9.6 9.6 0 0 0 .84 1.1 14.88 14.88 0 0 1 1.31 2.11c.13.22.4 0 .53-.22s0-.79-.48-1.58a5.8 5.8 0 0 0 -1.58-1.9zm1.1-4.71a8.09 8.09 0 0 0 -2.43-1.85c-.39-.09-.83.84-.83.84.09.26.53.17 1 .39s2 1.15 2.11 1.15.32-.12.1-.53zm5.5-5.9c.05-.18-.53-.93-1.67-1.54a8.36 8.36 0 0 0 -2.51-.8.78.78 0 0 0 -.09.84c.18.22.66.18 1.72.49a7.63 7.63 0 0 1 2.15 1.32c.31.17.31-.13.35-.31zm-1.94 5.77a.47.47 0 0 0 -.22.66c.09.13.58.4 1.28 1a7.14 7.14 0 0 1 1.54 2.2c.09.26.27.09.35-.22a5.83 5.83 0 0 0 -1.14-2.38 2.33 2.33 0 0 0 -1.86-1.26zm7.8-5.73c-.31-.22-.84.44-.84.44 0 .22.44.62 1.37 2a12.49 12.49 0 0 1 1.28 2.69c.08.13.26 0 .48-.36s0-.88-.44-2.11a7.4 7.4 0 0 0 -1.9-2.66zm-.84-6.07c-.48-.09-.61.66-.53.83a12.17 12.17 0 0 1 1.41.84 12.44 12.44 0 0 1 1.85 1.94s.53.13.75-.05-.22-1-1.14-2a4.66 4.66 0 0 0 -2.39-1.56zm2.82-7.23c-1.19-1-1.76-.88-2-.79a.66.66 0 0 0 -.22.88s.74-.13 2.29 1.32 1.8 2.07 2.15 2.12.58-.05.44-.31a16 16 0 0 0 -2.71-3.22zm4.89 10.48c-.22-.08-1 .47-.88.58a12.26 12.26 0 0 1 .92 1.36c.53.88.88 2.42 1.06 2.6s.31.18.49 0a7.4 7.4 0 0 0 -.53-2.55 4 4 0 0 0 -1.11-1.99zm2.55-7.09c-.26 0-.82.32-.7.44.31.31.4.75.84 1.37s.79 1.85 1 2.07.31 0 .4-.22a6.48 6.48 0 0 0 -.53-1.94c-.35-.88-.79-1.72-1.06-1.72z" fill="#fff"/></svg>