<svg height="64" viewBox="0 0 64 64" width="64" xmlns="http://www.w3.org/2000/svg"><path d="m56.35 2.18c-2.55-1.05-5.92 1.55-8.57 4.14s-10 12.35-11.16 14a4.22 4.22 0 0 0 -.62 3.55 7 7 0 0 1 -3.1 2.6c-2.42 1.23-3.47 1.09-5.24 2.37s-23.99 23.83-24.66 24.83.6 2.51 1.1 2.37 21-20.55 22.51-21.92 3.83-1.5 4.37-.68a3.65 3.65 0 0 1 -.45 3.74c-.87.86-20.24 21.46-21.15 22.6s.64 2.23 1 2.28 1.32-.5 6.74-6.2 19-20.1 19.42-21 .23-5.29.41-5.56 2.49-2.3 2.49-2.3a4.5 4.5 0 0 0 1.74.59c.59 0 2.23-1.64 6.06-4.83s10.21-8.37 11.76-10.24a8.35 8.35 0 0 0 2.15-5.65c-.1-1.78-2.25-3.64-4.8-4.69zm-20.51 27c-.09.31-.41 4.74-.63 5.42s-24.25 26-24.43 26a.42.42 0 0 1 -.32-.68c.27-.46 21.78-23.15 22-23.74a3.46 3.46 0 0 0 -.54-3.33c-1.05-1.55-3.29-1.64-5.11-.09s-22.23 22.24-22.55 22.01-.77-.46-.45-.87 22.51-22.37 24-23.7 4.65-2.37 5.61-2.78a30.61 30.61 0 0 0 3.52-2.42c.32-.22 1.41 1.18 1.41 1.18a38.61 38.61 0 0 0 -2.51 2.98zm22.84-20.12c-.6 2.87-10.39 9.48-13.08 11.8s-4.29 3.83-4.6 3.83-2.92-2.23-2.78-3 7.47-9.57 9.61-12.12 5.29-5.47 7.52-5 3.92 1.62 3.33 4.49zm-8.21 2.37c-1.59-1-3.55.8-3.73 2.05-.14.91.68 2.23 2.55 1.73s2.78-2.82 1.18-3.78zm-.18 2.23a1.31 1.31 0 0 1 -2 .5c-.51-.59-.14-1.18.63-1.64s1.51.48 1.37 1.14zm5.65-6.66a2.5 2.5 0 0 0 -3.74 1.28c-.09 1.33.51 1.51 1.87 2.15s3.74-2.28 1.87-3.43zm-.5 1.73a1.13 1.13 0 0 1 -1.73.51c-.46-.41-.28-1.46.23-1.6.71-.23 1.73.28 1.5 1.05z" fill="#fff"/></svg>