<svg height="64" viewBox="0 0 64 64" width="64" xmlns="http://www.w3.org/2000/svg"><path d="m61.12 20c-.14-1.36-1-4.64-8.41-7.33a45 45 0 0 0 -15-2.41s.17-5.68-.14-6.21-1.85-2.4-6.42-2-7 2.86-7 3.35 1 5.23 1 5.23l-1.36.07c-.63 0-8.79.63-13.88 3s-7.23 5.86-7 7.08 1.43 2.22 1.79 3.64a74.24 74.24 0 0 1 1.92 15.08c.18 7.18-.24 15.28.07 16s2.17 2.69 6.77 4.19 14.58 2.89 25 2.16 14.17-2.2 16.85-3.28 2.83-2.9 3.07-4.19.07-13.32.49-20.65 2.39-12.41 2.25-13.73zm-29.8-16.54c3.46-.28 5.38 1.54 5.45 2.33s.17 6.32-.56 7.64-2 2.24-5 2.17-3.32-1-3.87-2.34a50.44 50.44 0 0 1 -1.84-7.64c.04-.31 2.37-1.89 5.82-2.16zm24.88 33.38c-.12 3.3-.1 8-.14 11.72a9.25 9.25 0 0 0 -1.5-1.49c-.24-.07-.73.66-.8.87a19.36 19.36 0 0 0 2.24 2.7c0 .9 0 1.68-.09 2.26a37.74 37.74 0 0 0 -2.75-3.15c-.18 0-.8.67-.8.81s2.4 2.86 3.25 3.84a3.83 3.83 0 0 1 -.66.94 36.15 36.15 0 0 0 -3.12-3.77c-.24-.14-.83.52-.87.7s2.31 2.86 3.15 3.84a8.36 8.36 0 0 1 -1.07.67 26.48 26.48 0 0 0 -2.95-3.61c-.25-.1-.8.39-.91.67a24 24 0 0 0 2.54 3.51l-.24.08c-.4.11-.87.24-1.44.37a19.3 19.3 0 0 0 -2.6-3c-.25-.1-1 .56-1.08.77a17.2 17.2 0 0 0 2.24 2.52c-1.88.36-4.61.77-8.87 1.25a81.74 81.74 0 0 1 -23.24-1.54c-4.81-1.25-6.7-2.37-6.94-2.86s-.35-12.13-.55-17.4a90.14 90.14 0 0 0 -1.71-12.35s4.5 1.68 17.86 2 20.65-.39 26.09-1.57a51.6 51.6 0 0 0 7-1.82 81.84 81.84 0 0 0 -2.04 13.04zm-14.44-12.28c-9.63.56-24.32.11-28.47-.45s-7.75-1.78-7.82-3.87c0-.71 2.51-3.32 8.13-5.2a37.34 37.34 0 0 1 10.89-2h1.32a5 5 0 0 0 2.19 3.08c1.67.84 4.22.77 5.69.66a6 6 0 0 0 3.45-1.88 4.09 4.09 0 0 0 .6-1.9 24.13 24.13 0 0 1 9.95 1.11c6 1.78 10.64 4.12 10.85 5.51s-7.16 4.38-16.78 4.94zm-8.62-16.85c.24-.21.14-.87.07-1.08s-3.84 0-4.64-.07-.7-.8-.7-1.12-.84.21-.84.21-.66.77-.45 1.22.45.81 1.78 1a19.86 19.86 0 0 0 4.78-.16zm-14.83 35.17c-.1.1-.42.94-.77 1.12s-1-.21-1.11-.77a32.45 32.45 0 0 1 .28-6.94c.41-1.5.38-1.5.66-1.61s.59-.07.66.18.21.94.38.94.53.07.6 0a2.37 2.37 0 0 0 -.28-1.95 1.24 1.24 0 0 0 -1.5-.63c-1.26 0-1.71 1.47-1.92 4.19s-.11 6.31.56 7.32a2 2 0 0 0 2.79.28 1.93 1.93 0 0 0 .49-1.92c-.15-.31-.74-.31-.84-.21zm2.93-7.26c-1.24.6-1.24 7.38-.77 8.38a1.93 1.93 0 0 0 2.45.77c.62-.28 1.18-1.43 1.22-4.68s-.42-4.08-.77-4.46-1.69-.21-2.13-.01zm1.64 7.54c-.1.24-1.15.35-1.33 0a32 32 0 0 1 .11-5.79c.17-.28 1.22-.1 1.33.07a51.79 51.79 0 0 1 -.11 5.72zm2.93-7.68c-.49.6-.7 7-.45 8.13a1.6 1.6 0 0 0 1.64 1.47c.63 0 1.19-.35 1.64-1.4s.46-7.15.07-7.92-2.6-.64-2.9-.28zm1.92 7.68c-.24.63-.77.8-1.12.59s-.31-6.59 0-7c.14-.17 1.11-.31 1.32-.07a32.31 32.31 0 0 1 -.2 6.48zm8.34-5.93c0-.28-.39-1.22-.66-1.08s-3.56 3.45-3.56 3.45 0-4.22 0-4.43-.87-.43-1 0 0 9.35 0 9.56.94.07 1.08 0a25.63 25.63 0 0 0 0-3.28.67.67 0 0 1 .53-.07c.24.1 3.55 4.4 3.66 4.43s.66-.63.66-1a44.36 44.36 0 0 0 -3.35-4.36c-.15-.15 2.57-2.94 2.64-3.22zm2.27-1.5c-.07.31-.11 8.44.07 8.65s1.29 0 1.29 0-.07-8.2-.14-8.45-1.17-.45-1.22-.2zm4.29 8.13s-.07-3.07-.07-3.25 1.39 0 1.57-.07 0-1.15 0-1.29-1.36.11-1.47 0a14.21 14.21 0 0 1 0-2.69c.07-.17 1.47-.07 1.75-.21s.24-.73.07-.91a8.19 8.19 0 0 0 -2.9-.1c-.07.31-.38 9.59-.28 9.7a21.42 21.42 0 0 0 3.32 0c.28-.07.14-1 .14-1.18a10.85 10.85 0 0 0 -2.13 0zm5.54-5.76c.07-1.19 1.68-1.92 1.92-2.3s-.62-1.4-.62-1.4a5.08 5.08 0 0 0 -2.69 3.46 4.29 4.29 0 0 0 1.08 2.47 2.44 2.44 0 0 1 1 2.76 2.32 2.32 0 0 1 -2.17 1.85c-.38.1 0 1.11.07 1.32s.25.07 1-.07a3.9 3.9 0 0 0 2.69-3.94c.06-2.72-2.35-2.96-2.28-4.15zm-37.36-9.25c-.28.32 0 7 .24 7.24s.74.23.93.14a60.58 60.58 0 0 0 -.24-7.06c-.09-.23-.62-.68-.93-.32z" fill="#fff"/></svg>