<svg height="64" viewBox="0 0 64 64" width="64" xmlns="http://www.w3.org/2000/svg"><path d="m61.12 20c-.14-1.36-1-4.64-8.41-7.33a45 45 0 0 0 -15-2.41s.17-5.68-.14-6.21-1.85-2.4-6.42-2-7 2.86-7 3.35 1 5.23 1 5.23l-1.36.07c-.63 0-8.79.63-13.88 3s-7.22 5.86-7 7.08 1.44 2.22 1.79 3.64a74.24 74.24 0 0 1 1.92 15.08c.18 7.18-.24 15.28.07 16s2.17 2.69 6.77 4.19 14.58 2.89 25 2.16 14.17-2.2 16.85-3.28 2.83-2.9 3.07-4.19.07-13.32.49-20.65 2.39-12.41 2.25-13.73zm-29.8-16.54c3.46-.28 5.38 1.54 5.45 2.33s.17 6.32-.56 7.64-2 2.24-5 2.17-3.32-1-3.87-2.34a50.44 50.44 0 0 1 -1.84-7.64c.04-.31 2.37-1.89 5.82-2.16zm24.88 33.38c-.12 3.3-.1 8-.14 11.72a9.25 9.25 0 0 0 -1.5-1.49c-.24-.07-.73.66-.8.87a20.12 20.12 0 0 0 2.24 2.7c0 .9 0 1.68-.09 2.26a37.74 37.74 0 0 0 -2.75-3.15c-.18 0-.8.67-.8.81s2.4 2.86 3.25 3.84a3.83 3.83 0 0 1 -.66.94 36.15 36.15 0 0 0 -3.12-3.77c-.24-.14-.83.52-.87.7s2.31 2.86 3.16 3.84a9.25 9.25 0 0 1 -1.08.67 26.48 26.48 0 0 0 -2.95-3.61c-.25-.1-.8.39-.91.67a24 24 0 0 0 2.54 3.51l-.24.08c-.4.11-.87.24-1.44.37a19.3 19.3 0 0 0 -2.6-3c-.25-.1-1 .56-1.08.77a17.2 17.2 0 0 0 2.24 2.52c-1.88.36-4.61.77-8.87 1.25a81.74 81.74 0 0 1 -23.24-1.54c-4.81-1.25-6.7-2.37-6.94-2.86s-.35-12.13-.55-17.4a90.14 90.14 0 0 0 -1.71-12.35s4.5 1.68 17.86 2 20.65-.39 26.1-1.57a51.62 51.62 0 0 0 7-1.82 81.84 81.84 0 0 0 -2.05 13.04zm-14.44-12.28c-9.63.56-24.32.11-28.47-.45s-7.75-1.78-7.82-3.87c0-.71 2.51-3.32 8.13-5.2a37.34 37.34 0 0 1 10.89-2h1.32a5 5 0 0 0 2.19 3.08c1.67.84 4.22.77 5.69.66a6 6 0 0 0 3.45-1.88 4.09 4.09 0 0 0 .6-1.9 24.13 24.13 0 0 1 9.95 1.11c6 1.78 10.64 4.12 10.85 5.51s-7.16 4.38-16.78 4.94zm-8.62-16.85c.24-.21.14-.87.07-1.08s-3.84 0-4.64-.07-.7-.8-.7-1.12-.84.21-.84.21-.66.77-.45 1.22.45.81 1.78 1a19.86 19.86 0 0 0 4.78-.16zm-22.34 21c-.28.32 0 7 .23 7.24s.74.23.93.14a60.52 60.52 0 0 0 -.23-7.06c-.1-.21-.63-.66-.93-.3z" fill="#fff"/></svg>