<svg height="64" viewBox="0 0 64 64" width="64" xmlns="http://www.w3.org/2000/svg"><path d="m56.84 9.38c-3-3.79-9.21-6.64-15.7-6.93s-9.21 3.86-12.71 7.93-10.21 12.62-12.57 18.78-.35 13.84-.35 13.84l-7.57 8.57s-.65-.92-2.72-.78a3.68 3.68 0 0 0 -3.07 4.78c.86 2.22 4.29 1.79 4.29 1.79s-.15 2.43 1.14 3.57 5 .71 5.93-1.07a4.06 4.06 0 0 0 -.22-3.86c-.21-.36 7.21-7.71 7.21-7.71a28.84 28.84 0 0 0 6.79 1.93c3.35.43 6.49-.36 12.92-4.14a103 103 0 0 0 16.42-12.28c2.36-2.43 5.57-5.43 5.43-11.14s-2.22-9.5-5.22-13.28zm-44.4 45.19c-.5 1.07-.43 1.36-.08 1.86a2.29 2.29 0 0 1 -.92 3.64 2.64 2.64 0 0 1 -3.79-1.43 2.08 2.08 0 0 1 -.21-1.07s.85-.28.78-.71-.5-1.29-.85-1.36-1 .72-1.5.64-3.22-.14-3-1.71 1.71-3.14 3.13-2.64 1.65 1.36 2.22 1.21 8.21-8.21 8.21-8.21c.43.43 2.72 2.36 2.72 2.36s-6.22 6.35-6.71 7.42zm28.88-13.19a15.39 15.39 0 0 0 -1.75-3.16c-.36-.21-.79.36-.93.72s1.19 2.17 1.78 3l-1.42.93a15 15 0 0 0 -1.76-2.79c-.29-.29-.64-.07-.93.43s1 2.25 1.51 3.09l-1.15.69-.26.14a11.4 11.4 0 0 0 -1.88-3.35c-.43-.29-.93.21-1.07.57s1.22 2.44 1.8 3.36c-.36.16-.71.31-1.07.44a25.55 25.55 0 0 0 -2-3.16c-.21-.21-.5 0-.93.57-.29.4.92 2 1.69 3a20.1 20.1 0 0 1 -10.18 0c-2.72-.78-5.5-4.78-5-10.42s4.43-14.21 10.57-20.56c0 0-.65 8.71 5.64 13.7s9.35 5.86 11.42 6.5 3.85.5 3.85.79a80.48 80.48 0 0 1 -7.93 5.51zm8.6-9.08c-6.64.5-11.57-3.5-15.35-7.64s-4.79-11.43-.22-16.35c2-2.15 8.93-4.43 15.78-.65s8.64 10.64 8.5 15.57-2.07 8.57-8.71 9.07zm-23.78-5.57c.43-.57-.37-1.58-1-1.43-1.5.36-1.14 1.43-.5 1.79a1 1 0 0 0 1.5-.36zm-4.71 5.78c-.67-.09-1.14.72-1.28 1.19s.52 1 1 1 .14-.57.62-.76 1 1.43 1.42 1.52.72-.24.62-1.47-1.53-1.36-2.38-1.48zm7.47 0c-1.33.24-1.19 1.33-.28 2.14s2.05-.28 2-.9a1.39 1.39 0 0 0 -1.72-1.24zm5.67 2.67c-1 .71-1.81 2.85-.67 3.47a1.73 1.73 0 0 0 2.43-.9c0-.57-.14-1-.62-1s-.9-.38-.43-.71 1.1 0 1.43.33 1.09-.29.71-.86a1.92 1.92 0 0 0 -2.85-.33zm-8.71 5.52c-.71-.09-1.57 1.14-.76 1.85a1.45 1.45 0 0 0 2.23-.85c.15-.81-.33-.86-1.47-1zm23.23-27.32c-2.53-.43-3.67 2.52-4.53 3.23s-2.44-.53-3.42-.23c-2.34.71-.38 4.52 1.09 5.09s1.81.09 2.91-.33 1.38.14 2.47.09 3.62.1 4.81-2.28-.81-5.14-3.33-5.57zm2.57 4.9a3.78 3.78 0 0 1 -3.34 1.72c-1.32-.2-2.32-.67-3.47-.2s-1.57.81-2.14.53-1.91-2-.76-2.72c.58-.34 1.85.57 2.85.05s2.29-3.47 4.33-3.09 3.34 2.61 2.53 3.71zm-2.81-1.81c-.89.36-1.62 1.19-.57 1.67s2.66 0 2.28-.81-1-1.15-1.71-.86z" fill="#fff"/></svg>