<svg height="64" viewBox="0 0 64 64" width="64" xmlns="http://www.w3.org/2000/svg"><path d="m7.76 45.16c-.33.13-.6.94-.33 1a18.27 18.27 0 0 0 3.23 0c.54-.14.2-.54-.07-.88a3.91 3.91 0 0 0 -2.83-.12zm51.76-22.78a2.76 2.76 0 0 0 2.23-4c-.88-1.53-3.37-1.38-3.37-1.38s.06-.41.13-.75a1.26 1.26 0 0 0 -1.08-1.48 3.6 3.6 0 0 0 -3.84 1.23c-1.55 1.61-.2 3.9-.2 3.9l-3.71 3.1a15 15 0 0 0 -3.7-.4 33.88 33.88 0 0 0 -6.61.81s-1.95-.54-3.84-1.21-7.48-2-16.58.13-12.47 6.92-13.81 12.38 2.22 7.62 2.22 7.62l-4 .33c-.68.07-1.22.54-1.35 2.16s.2 4.31.87 4.51 11.73-.47 31.75-.47 25.27.41 25.81.21.87-4 .87-5.33a2.2 2.2 0 0 0 -1.68-2.29c-.81-.07-6.54-.2-6.54-.2s.68-.81 1-3.44a4.06 4.06 0 0 0 -2.15-3.91 8.61 8.61 0 0 0 2.06-3.57c.74-2.36-1-4.78-1-4.78l3.17-3.17a10.49 10.49 0 0 0 3.35 0zm-38.95 2.29c9.1-1.75 15.23-.07 15.23-.07s-7.68 2.23-7.89 7.15 2.43 7.48 3.17 7.68 1.75-.68 1.55-1.08-3.5-3.64-1.82-6.81 5.8-5.79 12.4-6.47 8.29.95 8.56 3.24a4.83 4.83 0 0 1 0 1 5.33 5.33 0 0 0 -1.7-.74c-.48 0-.61.2-.61.6s1.39 1.06 2.1 1.42a7.12 7.12 0 0 1 -1 2.14 7.1 7.1 0 0 0 -2.49-2.21c-.33 0-.6 0-.67.47s1.77 2 2.48 2.6a9.12 9.12 0 0 1 -1.24 1.13 10.85 10.85 0 0 0 -2.32-2.58c-.33-.07-.74.47-.81.74a15 15 0 0 0 2.14 2.52l-.65.38-.48.24a7 7 0 0 0 -1.96-2.02c-.4-.07-.61.2-.74.61s.88 1.49 1.39 2.09c-2.89 1.33-4.74 1.68-5 2s-.47 1.28.27 1.48 2.89-.27 5.12-1 4.4-3.39 4.89-3.18a2.75 2.75 0 0 1 1.15 3.51c-.13.26-.25.48-.36.68a7.1 7.1 0 0 0 -1.46-1.49c-.41-.21-.88.27-1 .6s1.18 1.26 1.77 1.7a2.43 2.43 0 0 1 -1.11.47 17.53 17.53 0 0 0 -2-1.59.62.62 0 0 0 -.81.4c-.1.29.68.94 1.24 1.35-3 .09-11.54 0-21.73.2-11.93.27-14.42.14-14.42.14a7 7 0 0 1 -3.91-5.66c-.42-4.09 3.62-9.89 12.72-11.64zm38.55 19.14c.06.47.6 2.9 0 3s-12.87-.71-30.12-.31-24.33.68-24.66.41-.07-2 .27-2.36c.69-.69 13.74-1 30.66-1s23.78-.21 23.85.26zm-3.64-22.44c-.41.27-3 3.77-3.24 3.43s-1.55-1.55-1.55-1.55 3.84-2.56 3.91-3.16-1.14-1.89-.27-3 2.56-1.88 3-1.34-.2 2.35.48 2.56 2.76 0 3.1.94-.74 2-2.09 2.22-2.94-.37-3.34-.1zm-21.41 11.81c.76.41 1.17-.45 1.12-.9a.88.88 0 0 0 -1.19-.49.79.79 0 0 0 .07 1.39zm4-2.15c.5-.05.32-.27.45-.54s.54-.14.95-.32.27-.36.22-.67-.54-.76-1.53-.54a1.26 1.26 0 0 0 -1.08 1.39c.04.32.54.72 1.03.65zm1 2.56c.27.58.41.54.72.49s.22-.54.54-.63.54.59.85.45.23-.36.18-.85-.63-.59-1.26-.54-1.1.91-1 1.08zm-1.44 1.79c-.4.41-.27.77.23 1a.68.68 0 0 0 .94-.77c-.06-.5-.91-.45-1.14-.23zm-14.42-.27a.68.68 0 0 0 1-.76c-.09-.54-.94-.5-1.17-.27-.43.41-.29.77.2 1.03zm-8.36 1.53a.68.68 0 0 0 .95-.76c-.09-.54-.94-.5-1.17-.27-.37.39-.24.76.25 1.03zm-2.56-2.78c.5-.09.63-.59 1-.9s.14-.68-.54-.68a1.48 1.48 0 0 0 -1.34.86c-.12.4.42.86.91.72zm3.71-3.55c.67 0 1-.54.72-.95a1 1 0 0 0 -1.35.05.62.62 0 0 0 .63.9zm4.45-1.71c.85 0 1.34-.54.94-1s-1.39-.5-1.62-.14a.75.75 0 0 0 .69 1.14zm-1.67 4.72a1 1 0 0 0 .5-1.62c-.36-.36-1.12-.07-1.3.22-.4.63.02 1.58.81 1.4zm5.22-2.07a1.05 1.05 0 0 0 1.17-1.39 1.18 1.18 0 0 0 -1.71-.18c-.46.4-.62 1.48.54 1.57zm2.56-3.86c.9-.14 1.48-1.22.9-1.84s-2 .23-2.2.4c-.94.67.36 1.57 1.26 1.44z" fill="#fff"/></svg>