<svg height="64" viewBox="0 0 64 64" width="64" xmlns="http://www.w3.org/2000/svg"><path d="m49.53 35.55a14.93 14.93 0 0 0 2.38.88c.41 0 .41-.27.34-.68s-1.84-1.09-2.18-1.15-.61.68-.54.95zm9.18-21.16a2 2 0 0 0 -1.22-1.63 2.5 2.5 0 0 0 -3.27 1.15c-.95 1.57.61 3.27.61 3.27a29.67 29.67 0 0 1 -2.58 2.24c-.2 0-.14-.47-.89-.4s-2.31 2-2.31 2a19.58 19.58 0 0 1 -4.35-.75c-3.54-.82-5.65-3.33-9-4.76a13.11 13.11 0 0 0 -7.08-.61l.27-1.57a10.14 10.14 0 0 0 2.39-.54c.95-.41 1.22-2.72.2-3.75s-3.67 0-3.67 0a1.44 1.44 0 0 0 -1.09-.81 2.69 2.69 0 0 0 -3.11 1.77c-.61 1.7 1.7 3.13 1.7 3.13v1.9s-5.26.36-12.15 6.62-5.9 12.79-5.9 12.79a18.68 18.68 0 0 0 -2.26.61c-1.24.45-2.78 1.63-3 5.71s4.54 5.45 4.54 5.45a12.34 12.34 0 0 0 1.76 3.56c1.56 2.38 5.51 1.63 5.51 1.63s.14.54 1.57 1.36 3.81.27 3.81.27 3.12 3.81 10 2.59 8.43-4.77 8.43-4.77 1 .28 5-.2 6.94-2.72 10.41-8.3 2.44-9 1.49-10.14a6 6 0 0 1 -1.43-3.53c.14-.62 4-5 3.95-5.72a2.71 2.71 0 0 0 -.82-1.36l1.47-1.6a4.94 4.94 0 0 0 1.09-.14c.54-.14 3-.61 3.27-3.13s-3.34-2.34-3.34-2.34zm-51.63 29.46c-.48-.27-2.66-1.7-2.73-3.4a3 3 0 0 1 1.23-2.79c.82-.68 1.16-.55 1.16-.55a5.73 5.73 0 0 0 -.14 2.59 34.14 34.14 0 0 0 1 3.74c-.05.27-.05.68-.52.41zm17.55-33.68c.68-1.16 1.63-1.16 2-.61s.68.95 1 .95 1.77-1.5 2.92-.88 1 1.83-.13 2.11-1.84-.14-2.31.47-.41 2.72-.75 2.86a2.71 2.71 0 0 1 -1.1-.07s.41-2.31 0-2.45-2.26-1.22-1.63-2.38zm-6.19 39.39c-.14.82.13 1-.21 1.23s-1.83.54-2.38-.21-.41-1.58-1.22-1.58-3.06.2-4.22-.75a5.75 5.75 0 0 1 -1.5-4.35c.27-.68 1-1.5.89-2.05s-1.57-6.32.2-11.49c.83-2.43 6.67-9.26 11.57-11.64a17.79 17.79 0 0 1 13-.95c2.65 1 6.46 3.67 8.64 4.29s2.86.34 2.79.54-4.08.27-7.89 1.91-8.17 4.69-9.87 9.52-1 7.62-.61 8.71 1.09 1.16.61 1.56-2.38-.88-5.71.55a6.25 6.25 0 0 0 -4.09 4.71zm17 .95a15.1 15.1 0 0 1 -8.17 3c-4.49.27-6.46-2.11-6.53-3a4.41 4.41 0 0 1 3.54-3.74c2.79-.54 3.81.21 4.76.07s1-.27 1.36-.14a16.4 16.4 0 0 0 2.72 2c1.78 1 2.6 1.47 2.33 1.81zm18.78-27.14c-.41.61-3.54 3.67-3.54 5.71s2.39 4.49 2.59 6.26a7.72 7.72 0 0 1 -.51 3.14 38.81 38.81 0 0 0 -3.76-1.48.9.9 0 0 0 -.61.81c0 .31 2.64 1.35 3.93 1.85-.21.44-.45.91-.72 1.38a21.77 21.77 0 0 0 -3.68-1.8c-.62-.07-.69.14-.62.61s2.7 1.59 3.7 2.05a16.21 16.21 0 0 1 -1 1.32 24.45 24.45 0 0 0 -4.21-2.22c-.34-.07-.89.48-.89 1s3.19 1.81 4.23 2.25c-.46.48-1 1-1.51 1.42l-.14.11a36.87 36.87 0 0 0 -4.28-2.35c-.34-.07-.68.54-.48 1s2.53 1.6 3.65 2.16a12.45 12.45 0 0 1 -1.48.85 18.24 18.24 0 0 0 -3.32-2.19c-.68-.28-.75.34-.68.81s1.68 1.38 2.57 1.92a12.08 12.08 0 0 1 -9.38-1.31c-3.6-2-6-6.05-3.12-12.51a15.41 15.41 0 0 1 10.2-8.51c3-.81 4.22-.41 6.46-1.56s3.68-2.9 4.38-2.83 2.63 1.5 2.22 2.11zm6.26-5.65a4 4 0 0 1 -2.38 1.16 2.59 2.59 0 0 0 -1.84.95c-.41.48-1.22 1.23-1.22 1.23l-1.04-1.43s2.31-2.45 2.18-2.66a1.9 1.9 0 0 1 -.68-1.83c.27-1 .27-1.7 1.09-1.43s1.49.34 1.29.88 0 1 .2 1.09 1-.27 1.63 0 1.86 1.23.77 2.04zm-45.74 11c-.77 1-.09 1.55 1.09 1.55s1.59-.68 1.31-1.32-2.14-.59-2.4-.21zm6.76-3.62c-.23-.64-1.69-1.26-2.27-.82-1.13.86-.36 1.9.68 2.09s1.82-.62 1.59-1.25zm3.4 3.62c1 .19 2.09-.9 1.63-1.63a1.62 1.62 0 0 0 -2-.36c-.85.88-.63 1.83.37 2.01zm1.41-5.3c1.36.27 1.76-.86 1.36-1.45a1.27 1.27 0 0 0 -2-.28c-.41.52-.67 1.48.64 1.75zm5.62.18c.5-.18-.05-.64.09-1s1-.37 1-1-1-.76-1.63-.32a1.69 1.69 0 0 0 -.72 1.54 1 1 0 0 0 1.26.8zm1.22 14.4c-.58 0-1.19-.81-1.36-.41-.31.77.14 1.27 1.18 1.36s1.64-.68 1.5-1.13-.73.18-1.32.18zm5-6a1.26 1.26 0 0 0 -1.67-.23c-.55.64-.64 1.64.45 1.68a1.1 1.1 0 0 0 1.21-1.45zm3.18-3.13c-.68.45-.09 1.41.63 1.45s1.27-.45 1.14-1-1.41-.69-1.78-.44zm-1.33 4.64c-.31.18-.45 1.45.5 1.27s1.32-.55 1-1.05a1.25 1.25 0 0 0 -1.5-.22zm-2 2.85c-.41.46-.32 1.14.59 1.09s1.05-.72.77-1.09-1.27-.14-1.36 0zm-23.45.37c-1.18 0-.77-.64-1-1a.6.6 0 0 0 -1 0c-.68.73 0 1.73.31 2a1.3 1.3 0 0 0 1.18.23 6.23 6.23 0 0 1 1.27-.28c.78-.13 1.27-.4 1.32-.77s-.94-.14-2.12-.18zm9.94-2.18c-.05-.32-2 .05-3.09.09s-.72-.27-.95-.59-.81.08-.91.32a1 1 0 0 0 1 1.18 8.23 8.23 0 0 0 2.94-.18c.92-.19 1.01-.5.97-.82zm.51 13.74c-.41.18-.82.46-.32.86s1.23.05 1.18-.36a.66.66 0 0 0 -.86-.5zm4-.63a.55.55 0 0 0 .23 1c.68.14 1.18-.59.91-.82a1.23 1.23 0 0 0 -1.14-.18zm-2 2.22c-1 1 .68 1.45 1.36 1.45s1.09-.59.82-1a2.56 2.56 0 0 0 -2.24-.45z" fill="#fff"/></svg>