<svg height="64" viewBox="0 0 64 64" width="64" xmlns="http://www.w3.org/2000/svg"><path d="m12.32 20.6a17.3 17.3 0 0 0 1.33 2.88c.27.18.58-.05.89-.27s-.62-2.08-.89-2.52-1.44-.37-1.33-.09zm6.3 9.88c-1-1.28-1.24-1.9-1.46-2.08a1.41 1.41 0 0 0 -1.16.09 5.52 5.52 0 0 0 1.07 2.08c.75 1 1.42 1.86 2 2s.67 0 .8-.45-.23-.35-1.25-1.64zm3.28-5.58a1 1 0 0 0 .31 1.59.92.92 0 0 0 1.37-1.1c-.31-.89-1.37-1-1.68-.49zm-.18 3.63a1 1 0 0 0 .31 1.6.93.93 0 0 0 1.38-1.13c-.31-.87-1.41-1-1.69-.47zm3.1 2.26a1 1 0 0 0 .31 1.6.93.93 0 0 0 1.38-1.11c-.31-.89-1.38-1-1.69-.49zm.62-4.3a1 1 0 0 0 .32 1.6.92.92 0 0 0 1.37-1.09c-.31-.91-1.38-1-1.69-.51zm2.49 2.84a1 1 0 0 0 .31 1.6.92.92 0 0 0 1.37-1.11c-.31-.89-1.38-1-1.68-.49zm1.19-4.43a1 1 0 0 0 .31 1.59.92.92 0 0 0 1.38-1.1c-.31-.89-1.38-1-1.69-.49zm-3.72-.71a.92.92 0 0 0 1.37-1.11c-.31-.89-1.37-1-1.68-.49a1 1 0 0 0 .31 1.6zm15.07-.62c-.31-.89-1.38-1-1.68-.49a1 1 0 0 0 .31 1.6.92.92 0 0 0 1.37-1.11zm-4.47 4.83a.92.92 0 0 0 1.37-1.11c-.31-.89-1.37-1-1.68-.49a1 1 0 0 0 .31 1.6zm-.13 2a1 1 0 0 0 .31 1.6.92.92 0 0 0 1.37-1.11c-.27-.89-1.34-1.01-1.64-.5zm3.54 0a1 1 0 0 0 .31 1.6.93.93 0 0 0 1.38-1.11c-.27-.89-1.34-1.01-1.65-.5zm3.46-1.59a1 1 0 0 0 .31 1.59.92.92 0 0 0 1.37-1.1c-.27-.9-1.33-1.01-1.64-.5zm-3.19-1.95a1 1 0 0 0 .32 1.58.92.92 0 0 0 1.37-1.1c-.28-.89-1.37-1-1.65-.49zm3.54-2a1 1 0 0 0 .32 1.59.92.92 0 0 0 1.46-1.06c-.36-.89-1.43-1-1.74-.49zm14.32-3.24a13.39 13.39 0 0 0 .67-1.24c.35-.75.93-2.53.93-2.53a4.84 4.84 0 0 1 .84-.08 1.7 1.7 0 0 0 1.73-1.56c.09-1.28-.93-1.68-1.91-1.9s-11.17-.27-23.58-.14-25.31.4-28.1.54-3.95.62-3.82 2.61 2.8 1.73 2.8 1.73a15.12 15.12 0 0 0 .44 2.13s-.58 0-1.51 0a4.34 4.34 0 0 0 -3.14 1.33c-1.16 1.24-1.43 3.49.11 4.34s6.79.8 6.79.8a28.84 28.84 0 0 0 4.53 6.35 19.66 19.66 0 0 0 8.33 5.45s-2.13 3.76-3.65 6.55 1.64 3.55 3 3.68 18.62.31 20.39-.22 2.26-2.08 1.82-3.72a64.42 64.42 0 0 0 -3.16-6.74 23.29 23.29 0 0 0 8.29-5c4.16-3.82 5.49-6.57 5.49-6.57a15.41 15.41 0 0 0 3.24-.43c2.26-.45 4-1.51 4-3.46s-4.49-1.88-4.49-1.88zm-52.62 3.5c-.93-.27 0-1.46.75-1.69a7.87 7.87 0 0 1 2.27 0l.79 1.86a19.7 19.7 0 0 1 -3.81-.17zm37.41 22a.59.59 0 0 1 -.2.11 18.25 18.25 0 0 0 -3.39-3.75c-.62-.26-.75.31-.84.62s2 2.47 2.84 3.36c-.48 0-1 .07-1.68.1a14.14 14.14 0 0 0 -2.36-2.76c-.44-.26-.75.27-.88.58s1 1.51 1.62 2.22c-1.54 0-3.3.08-5.08.13-4.83.13-10.59 0-11-.49s3.5-6.69 4.07-7.14c0 0 1.82.84 6.48.8a28 28 0 0 0 7.44-1.06c.19.04 3.38 6.78 2.98 7.27zm12.42-24.3a11 11 0 0 1 -1.64 2.49 23.73 23.73 0 0 0 -3.33.13.94.94 0 0 0 -.62 1.51c.49.53 2.17.57 2.17.57a18.66 18.66 0 0 1 -10.06 8.65c-7.31 2.7-11.79 3.06-18.71.62s-10.37-9.45-10.06-9.63 2.79 0 3.06-.13.18-2.18-.18-2.31-4.25.09-4.25.09-2.18-3.46-2-6.12c0 0 6.78-.88 24.2-.8s23.32.05 23.32.05a35.12 35.12 0 0 1 -1.9 4.87zm3.32 2.31a14.55 14.55 0 0 1 -2.17.09l.88-1.73s2.71 0 2.75.58-.79.93-1.46 1.05z" fill="#fff"/></svg>