<svg height="64" viewBox="0 0 64 64" width="64" xmlns="http://www.w3.org/2000/svg"><path d="m61.12 16.21c-.73-3.49-3.7-7.29-8.33-11s-11.37-3.6-14-2-7.92 7.14-8 7.29a.5.5 0 0 1 -.62.21c-.26-.1-2-3.91-4.48-4.27s-5.74.68-8.39 5-.94 11.78-.94 11.78-12.82 14.05-13.19 14.67a3.94 3.94 0 0 0 -.52 3c.42 1 2.66 4 9.9 10.58s11.88 9.69 12.3 9.85a5.2 5.2 0 0 0 3 .36c.94-.36 7-6.77 12.61-12.87s17.41-19.18 19.29-23 2.1-6.1 1.37-9.6zm-2.18 4c-.42 2.31-3.44 6.79-11.89 16.79s-20.17 21.79-20.9 21.74-7.34-4.74-13-10-8.36-8.6-7.48-10.12c.25-.42 12.93-13.81 13.19-14.33a2.14 2.14 0 0 0 0-1.41c-.05-.2-1.36-4.79-.16-8.39a7.6 7.6 0 0 1 6.67-4.9c1.46.16 3 2.66 3.13 3.55s.36 2.29.83 2.4a8 8 0 0 0 1.46.05 17.52 17.52 0 0 1 7.4-8.76c5.68-3.38 11.16-.62 14.91 2.4s6.25 8.6 5.84 10.94zm-47.64 17.42a1 1 0 0 0 -.52-.93c-.31-.11-2.5 1.9-2.5 2.13s.52 1 .83.94a9.48 9.48 0 0 0 2.19-2.14zm5.16-5.1a.78.78 0 0 0 -.47-.79 29.68 29.68 0 0 0 -3.7 2.92c-.1.16.47 1.05.78 1a19 19 0 0 0 3.39-3.13zm2.61-4.43c-.26-.06-1.84 1.3-1.78 1.72s.32.93.58 1 1.67-1.57 1.72-1.93a.83.83 0 0 0 -.52-.79zm2.76-2.1a10.79 10.79 0 0 0 1.25-2.81c.05-.37-.31-.37-.57-.37a9 9 0 0 0 -1.72 2.5c0 .22.83.68 1.04.68zm.42-6.36a10 10 0 0 0 .05-2.76c-.05-.42-.63-.26-.94-.05s-.2 2.61-.05 2.76a.72.72 0 0 0 .94.06zm1-7.5a4.44 4.44 0 0 0 -1.72 2.19c0 .15.68.41 1.09.31s.05-.16.26-.73 1.2-1.3 1.2-1.56-.17-.51-.79-.2zm3 3.13c.37.36 0 .88.05 1.4s.68.16.89 0a4 4 0 0 0 -.11-2.19 1.13 1.13 0 0 0 -1.08-.66 2.7 2.7 0 0 0 -.11.93c0 .42.11.16.42.53zm5.27 2.73a.86.86 0 0 0 .26-.84c-.1-.2-.36-.1-1.09.11s-1.32-.19-1.41 0 .26 1.2.94 1.25a1.82 1.82 0 0 0 1.3-.52zm3.65-5.16c-.26 0-1.9 1.74-1.82 2s.15.78.36.83a10.68 10.68 0 0 0 2-2.39c.19-.35-.28-.4-.54-.4zm4.74-3.44c.11-.21-.31-.52-.83-.47a2.38 2.38 0 0 0 -1.41 1.25.58.58 0 0 0 .58.68 7.26 7.26 0 0 0 1.66-1.42zm6.57-.52c.31-.16.1-.47-.52-.89a6.06 6.06 0 0 0 -3.18-.31c-.16.16-.47 1.09.36 1.09a27.72 27.72 0 0 0 3.34.15zm6.31 4.9c.31.26.57-.37.67-.63s-.21-.78-.83-1.61a5 5 0 0 0 -2.76-1.67c-.47 0-.26.73-.16.88s.16.16 1.2.79 1.56 2.02 1.88 2.28zm.78 2.34s.26.84.52 1.62-.05 1.82.15 2.08.68.21 1 .05.1-.67 0-1.77a4.43 4.43 0 0 0 -.63-2.08c-.21-.22-1.04.14-1.04.14zm-.16 7.56a22.72 22.72 0 0 0 -2 3.65c0 .31.47.31.73.41s2.08-3.49 2.13-3.75-.69-.48-.86-.27zm-5 6.62a35.42 35.42 0 0 0 -3.41 3.42s.21.73.62.84 3.15-3.18 3.38-3.56-.33-.66-.59-.66zm-6.93 8.13a18.75 18.75 0 0 0 -2.71 2.71s.26.67.47.78a15.54 15.54 0 0 0 2.76-2.92c.1-.27-.32-.53-.52-.53zm-7 6.82a26.89 26.89 0 0 0 -3.18 3.13s.32 1 .52 1a40.11 40.11 0 0 0 3.55-3.33c.22-.13-.51-.81-.88-.76zm-24.38-4.07c-.26-.11-.73.62-.73.62a28.47 28.47 0 0 0 2.4 2.61c.31.1.63-.21.78-.63s-2.19-2.5-2.45-2.6zm4.69 4.22c-.36-.21-.76.8-.57 1a14.73 14.73 0 0 0 2.61 2.4c.57.15.52-.52.57-.89s-2.24-2.3-2.61-2.51zm5.84 4.9c-.26-.16-.92.49-.83.62s2.45 2.4 2.65 2.5.47-.46.58-.78-2.14-2.19-2.4-2.34zm7.5 2a17.26 17.26 0 0 0 -2.44 2.29s.31.47.67.47 1.64-1.58 2.09-2.06-.05-.72-.32-.67zm-7-6.25c-.36.52 1.93 4.11 2 4.32 0 0 .47.16.68 0s-1.3-4.37-1.67-4.87-.62.06-.99.58zm5.79 5.21c.36-.16-1.52-5.84-1.78-6s-.78.16-.93.68 1.92 5.26 2 5.42a1.25 1.25 0 0 0 .73-.07zm.2-6.2c-.15.41 1.41 4.32 1.46 4.58 0 0 .47.21.73-.05s-1.09-4.85-1.3-5.11-.71.19-.87.61zm2.71-1.25a14.78 14.78 0 0 0 .73 3.54s.53 0 .68-.37a13.5 13.5 0 0 0 -.47-3.85c-.19-.28-.77.08-.92.71z" fill="#fff"/></svg>