<svg height="64" viewBox="0 0 64 64" width="64" xmlns="http://www.w3.org/2000/svg"><path d="m16.45 32c-.05.46 0 5.1 0 5.51s.72.45 1 .44-.08-5.5-.13-5.81-.84-.53-.87-.14zm2.16 1.55s.08 5.56.18 5.71 1 .14 1.07-.07.14-5 0-5.35-1.25-.32-1.25-.32zm26.24 13.79c.15-.11-.16-8.41-.22-8.67s-.73-.3-.87-.09 0 8.31.12 8.72.82.14.97.04zm6.67-4.94c2.95-.09 3.44-1.47 3.28-2.29a3.59 3.59 0 0 0 -3.45-2.11c-1.88 0-3.21 1.17-3.28 2.34-.07.66.49 2.15 3.45 2.06zm-2-3c.64-.33 3.25-.35 3.82.15a.8.8 0 0 1 -.42 1.45 8.71 8.71 0 0 1 -3.26 0 .87.87 0 0 1 -.17-1.58zm-1.06 6.86c0 .74.55 2.43 3.84 2.33s3.84-1.64 3.65-2.55-1.72-2.17-3.82-2.14-3.62 1.1-3.7 2.38zm5.94-.67a.9.9 0 0 1 -.43 1.54 9.63 9.63 0 0 1 -3.63 0 1 1 0 0 1 -.2-1.7c.69-.36 3.6-.38 4.23.18zm-31.18-21.59a16.91 16.91 0 0 0 -3.22 1.8s.57.56.78.56 2.68-1.72 2.68-1.72.12-.64-.24-.64zm4.39 0c.1-.26-.36-.2-.67-.25a26 26 0 0 0 -3.33 2.25 2.82 2.82 0 0 0 1.38.29c.71-.1 2.52-2.02 2.62-2.29zm.49 2.13c.3 0 1.25-1.29 1.5-1.6s-.1-.3-.41-.3-1.66 1.4-1.81 1.66a1.18 1.18 0 0 0 .72.26zm33.9 23.21c-.12-1.17-5.45-14.4-6.06-14.54s-16.16.06-16.16.06l.06-2.6a6.54 6.54 0 0 0 2.16-.94c.91-.68 1.8-2.48 1.07-3.69a2.85 2.85 0 0 0 -2.46-1.09 37.73 37.73 0 0 0 -.11-4.13c-.17-1.52-2.79-2.71-2.79-2.71s5.4-8.39 5.84-9.11a2.14 2.14 0 0 0 -.36-2.59 2.31 2.31 0 0 0 -2.46-.88c-.61.21-6.62 11.41-6.62 11.41s-9.29-1-14.88.4-6.89 3.26-7.24 4 .21 4.33.21 4.33a3.34 3.34 0 0 0 -1.67.43c-.51.41-.77 3.68-.09 4.84s2.36.79 2.36.79v1.78s-2.5 0-2.85.5-8 11.94-8 12.7.14 6.63.45 7.13.82.3 4.14.51 37.38 1.06 42.46 1.06 12.69-.38 12.89-1a45.17 45.17 0 0 0 .11-6.66zm-49.52-17.11c-.05.15-1.13-.39-1.24-.54a15.44 15.44 0 0 1 0-2.65c0-.31 1.17-.43 1.17-.43s.11 3.47.07 3.62zm24.58-2.63c.16.15 1 .09 2.39-.44a13.61 13.61 0 0 0 2.28-1.16c.31-.16.36.35.37.81s.06.81-2.06 1.91a5.66 5.66 0 0 1 -3.51.66c-.2.11-.15.61 0 .87s1.33.18 1.33.18 0 .76 0 1.78a7.6 7.6 0 0 0 -1.86-.31c-.41.05-.09.66.06.81a13.12 13.12 0 0 0 1.79.65v1.44a16.21 16.21 0 0 0 -2.49-.75c-.2.05-.3.41-.25.61a18.55 18.55 0 0 0 2.75 1.34v1.49a20.17 20.17 0 0 0 -2.94-1.42c-.26-.05-.46.31-.5.62s1.87 1.29 2.75 1.76c-.19.19-.41.39-.67.61a14.21 14.21 0 0 0 -2.5-1.32c-.3-.1-.66.31-.65.62a8.73 8.73 0 0 0 2.06 1.51 18.07 18.07 0 0 1 -9.7 3.23c-7.69.31-10.3-4.14-10.61-4.49s-.73-12.28-.73-12.28 1.63 2.22 11.63 1.73 12.3-3.13 12.3-3.13a16.2 16.2 0 0 1 0 1.63c0 .31-1.06.32-1.31.43s-.08.46.07.61zm-21.41-3.89c-.07-.35 3.08-2.39 9-2.72s7 0 7 0-2.13 4.42-2.54 4.53-13.02.63-13.46-1.81zm17.7.63 1.8-2.42s1.49.48.68 1.46a3.55 3.55 0 0 1 -2.48.96zm5-2.93a2.67 2.67 0 0 1 -1.46 1.65s0-1.78-1.35-2l1-1.23s1.95.51 1.77 1.58zm2.9-14.87a1.08 1.08 0 0 1 1.39 1.2c-.09.92-10.82 17.38-11.18 17.49a2.69 2.69 0 0 1 -1 0c.15-.23 10.14-18.43 10.75-18.69zm-26.96 14.79c.9-1.08 4-2.75 9.85-2.88a60.34 60.34 0 0 1 8.72.28l-.59 1.19a26.31 26.31 0 0 0 -10.45.08c-5.18 1.24-7 2.29-7.25 3.41a1.5 1.5 0 0 1 -.28-2.08zm-.4 19.23a16.45 16.45 0 0 0 4.88 2.89c3.13 1.23 7.11 1.69 12.3.7a14.67 14.67 0 0 0 7.6-3.93c.15.05.93.91.32 1.63s-4.79 3.63-12.54 3.59-10.73-1.85-12.17-2.74-1.41-2.02-.39-2.14zm-.89-1.31s-1.41 1.14-.94 2.46 1.11 2.68 5.2 3.55a44.65 44.65 0 0 0 13.26.53c4.18-.47 7.93-1.9 9.29-3.34s.47-2.35.17-2.6-.52-.46-.52-.46a.39.39 0 0 1 .15-.51c.3-.21 1.94.84 2.12 2.68s-3.05 4.32-7.83 4.79-14.77.65-18.1-.26-5.33-2.42-5.56-4.09 1.59-3 2.76-3.61zm-2.45-3.74c.25-.26 2.24-.13 2.24-.13v2s-3.06 1.15-3.38 3.62.93 4.78 5.43 5.64 15.21 1.06 21.57.11 6.57-4.43 6-6.61a3 3 0 0 0 -2.63-2.26v-2.8s14.83-.41 14.93-.26 4.27 10.24 4.69 11.36.43 1.52.18 1.68-16.36.12-28.65.19-26.59-1.34-26.79-1.34 6.17-10.94 6.42-11.2zm49.15 17.32c0 .08 0 .14-.06.15a9.68 9.68 0 0 1 -1.4 0 17.33 17.33 0 0 0 -2-2.23c-.21-.1-.87.21-.81.52a10 10 0 0 0 1.5 1.73h-1.27a5.75 5.75 0 0 0 -1.44-1.52c-.41-.15-.92.37-.91.57a3.53 3.53 0 0 0 .69.95c-9.26-.15-27.55-.62-35.75-1-11.17-.46-13.82-.37-14-.62a10.14 10.14 0 0 1 .06-3.52c.31-.26 15.41 1 33.3 1.07s22 .11 22 .11.06 1.15.08 2.21a5.33 5.33 0 0 0 -1.39-1.17.62.62 0 0 0 -.66.67 13 13 0 0 0 2.06 2.08z" fill="#fff"/></svg>