<svg height="64" viewBox="0 0 64 64" width="64" xmlns="http://www.w3.org/2000/svg"><path d="m11.42 29.82c-.35 1.23-.16 2.85 1.08 2.93s1.62-1.35 1.12-2.47-1.88-1.6-2.2-.46zm46.72 17.9c-.46-.77-1.62-2-2.39-3.09s.08-2 .69-3.55 1.32-1.62 1-3.39-7.09-15.69-9.44-21.61-5.29-12.57-7.53-13.66-4.78-.42-13.81 2.94-16.13 6.86-18.21 8.49-2.63 6.94-2.7 9.87a14.26 14.26 0 0 0 .15 3.47 30.17 30.17 0 0 0 1.7 4c1.62 3.55 14.2 28.7 17 30.25s8.23-.06 14.4-2.44 17.29-7.8 18.14-8.49 1.46-2.02 1-2.79zm-49-17.9-1.31-3.17c0-.23.62-9.26 1.16-9s2.39 4.35 2.31 4.53a9.73 9.73 0 0 0 -1.7 3.82 15.86 15.86 0 0 0 -.46 3.82zm3.86 7.41c-.15-.16-2.7-5.25-2.93-5.6s.11-3 .69-5.17 1.2-2.7 1.32-2.58 3.35 7.06 3.31 7.33a10.51 10.51 0 0 0 -1.5 2.89c-.62 1.9-.77 3.28-.89 3.13zm10.49 15.54c-.15 1.51 0 3.44-.15 3.36s-9-16.32-9.3-16.9a10.17 10.17 0 0 1 .66-4c.77-2.39 1.23-2.58 1.46-2.47s8.3 17.24 8.34 17.47a7.38 7.38 0 0 0 -1.01 2.54zm-1.89-13.89c-3-6.25-10.8-22.3-11-22.91s1.27-1.58 4.39-3.28 11.36-5.56 15.26-6.64 7.21-2.47 8.68-1.85 1.66 1.43 3.74 5.8c1.25 2.64 5.27 11.35 8.38 18.12a14.44 14.44 0 0 0 -2.94-.8c-.27.11-.12.73 0 1a22.55 22.55 0 0 0 3.61 1.34l.89 2a38.67 38.67 0 0 0 -4.08-1.45c-.31 0-.15.7 0 1a39.33 39.33 0 0 0 4.75 2c.28.6.53 1.14.74 1.61a37.15 37.15 0 0 0 -4.6-1.43c-.23.07-.12.58.19 1a35.23 35.23 0 0 0 5 1.81l.27.58a2.28 2.28 0 0 1 .21 1.14c-1.38-.68-5.23-2.26-5.38-2.29s-.62.65-.62.85 3.65 2 5 2.67l-1.09.42c-1-.58-4.47-2.13-4.7-2.23s-.65.73-.61.93a32.77 32.77 0 0 0 3.54 1.92l-1.46.5a24 24 0 0 0 -3.44-1.5c-.3 0-.69.66-.61.89a12.07 12.07 0 0 0 2.2 1.23l-3.63 1.2c-6.71 2.2-17.43 6.46-17.67 6.37s-2.01-3.74-5.02-10zm34.23 9.38a151 151 0 0 1 -14.63 7.22c-5.09 2.08-11 4.36-12.77 4.12s-4.32-4.36-1.54-8.29c.5-.71 14-5.44 19.41-7.37s7.48-2.59 7.6-2.35-.47.54-.35 2.08a6.68 6.68 0 0 0 .37 1.77c-2.44.9-18 7.42-18.2 7.57s.08 1.11.31 1.23 15.81-6.24 18.62-7.41l.17.2c.58.57 1.18.97 1.01 1.23zm-25.83 5.13c.42.16 8.25-3.28 8.41-3.47s-.08-.81-.47-.89a77.44 77.44 0 0 0 -8.29 3.32.78.78 0 0 0 .35 1.04zm11.7-4.55c.47.19 6.95-2.39 7.07-2.66s-.12-.89-.47-.93a63.29 63.29 0 0 0 -6.94 2.39.94.94 0 0 0 .34 1.2zm-12.07 7.21c-.31.16-.08 1 0 1.05a9.13 9.13 0 0 0 2.37-.78c.12-.19-.15-.88-.27-1a11 11 0 0 0 -2.1.73zm15.2-31c1.31-1.23 1.16-3 .5-4.7s-6-11.58-6.6-12-4.28.35-9.56 2.44-12.74 4.52-13.59 5.21-.93 1.37-.38 3.31c.35 1.24 4.59 11.46 5.13 12.31a2.45 2.45 0 0 0 2.43 1.38c1.51.08 4.4-.58 10.53-3.24s10.23-3.45 11.54-4.69zm-22.15 6.66c-1.11-.27-1.15-.27-1.62-1.35s-4.94-11.31-5-11.77-.43-1.35.11-1.58c.36-.15 7.68-3.28 13.05-5.06s8.21-2.5 9-2.19 6.17 11.15 6.4 12.07a2.08 2.08 0 0 1 -.93 2.7c-1.27.7-6.55 2.63-11.8 4.71s-8.09 2.76-9.21 2.47zm.2-9.26c1.19-.12 1.93-1.08 1.77-1.54s-.42-.66-.65-.54-.43 1-1.39.92-2.28-1.16-1.32-2 1.12-.54 1.32-.73-.12-1-.27-1c-.42-.21-2.9.65-2.4 2.74s1.74 2.26 2.94 2.15zm3.12-2.05c1.27 1.05 4.32-.5 3.51-3s-3.62-1.8-4.13-1.23c-1.23 1.46-.61 3.19.62 4.23zm.22-3.26a1.41 1.41 0 0 1 2.19.65 1.33 1.33 0 0 1 -1.86 1.58 1.49 1.49 0 0 1 -.29-2.23zm7.69.45a3.67 3.67 0 0 0 -1-3.4 1.93 1.93 0 0 0 -2.55.7 2.79 2.79 0 0 0 1.16 3.47 1.71 1.71 0 0 0 2.48-.77zm-2-.58a1 1 0 0 1 -.31-1.54c.21-.33.93-.27 1.2.5s-.24 1.31-.86 1.03zm4.79.46-.39-.81a16.86 16.86 0 0 0 2.55 0c.42-.12.27-.66.15-.93s-2.2-.11-2.51-.3 1.59-2.4 1.59-2.51a.62.62 0 0 0 -.62-.43c-.39 0-1.7 2.09-1.78 2.24s-.81-1.58-1-1.81-.81.09-.81.34 1.78 4.44 1.89 4.56.96-.35.96-.35zm-10.88 8s0-1.51-1.24-1.55a3.08 3.08 0 0 0 -2.47 1.08s2 4.75 2.16 4.87.92-.24 1.46-.62 2.32-1.24 1.85-2.82-1.73-.97-1.73-.97zm-2.16.5-.27-.73s.58-.5.88-.2.35.58.16.78-.74.18-.74.18zm3 1.39a3.85 3.85 0 0 1 -1.82 1.19c-.11-.11-.81-1.42-.61-1.54a2.9 2.9 0 0 1 1.46-.65.91.91 0 0 1 1.01.99zm2-4.21c-1.65 1.08-.54 3.94 1.39 3.59s1.7-2.58 1.08-3.36a2 2 0 0 0 -2.47-.24zm1.21 2.53a.89.89 0 1 1 .49-1.52c.27.34.38 1.35-.49 1.51zm2.92-4a2.14 2.14 0 0 0 1.51 3.32 2.05 2.05 0 0 0 1.93-3.13 1.92 1.92 0 0 0 -3.44-.15zm1.61 2.16a1.06 1.06 0 0 1 -.74-1.6 1 1 0 0 1 1.7.06 1 1 0 0 1 -.96 1.58zm5.11-2.16a11.66 11.66 0 0 0 1.23-2.32.74.74 0 0 0 -.73-.46c-.35 0-1.89 2.58-1.89 2.58s-.43-1.27-.74-1.46-.73.31-.77.46 1.51 3.86 1.51 3.86c.31 0 1.08-.23 1.08-.43s-.58-1.15-.31-1.15 2.66.69 2.89.69.31-.54.31-.77a11.93 11.93 0 0 0 -2.58-.96z" fill="#fff"/></svg>