<svg height="64" viewBox="0 0 64 64" width="64" xmlns="http://www.w3.org/2000/svg"><path d="m48.13 2.59c-1.66-.59-3.38.07-5.13 3.3s-4.86 15.16-4.86 15.16a5.44 5.44 0 0 1 -2.84.24c-1.43-.33-2.44-2.35-3-2.79s-.86-.78-1.17-.64-.69 1-2.31 2.49a9 9 0 0 1 -3.6 2.11c-.18 0-.62.1-1.24.16a6.67 6.67 0 0 0 -4.94 1.83 6.54 6.54 0 0 0 -1.37 5c-.81-.34-3.12-.21-3.24.51a33.61 33.61 0 0 0 0 6.84 2.28 2.28 0 0 0 2.21 1.69 9.19 9.19 0 0 1 -.09 2.23c-.19 1.2-2.1 6-2.21 9.33s1 7.44 3.73 9.08 10.87 2.72 14.93 2.42 8.31-.12 11.19-2.75 3.37-7 2.9-10.77-1.84-9.69-1.84-9.69a6.3 6.3 0 0 0 .75-.2c.27-.09 1.59-.56 1.8-1.1s.79-7.57-.29-8.08a11 11 0 0 0 -3.61-.42 25.31 25.31 0 0 0 .1-4.13 3.56 3.56 0 0 0 -2-2.41s7.36-13.12 7.59-15.21.2-3.61-1.46-4.2zm-1.8 28.13c.13.17.41 5.36-.16 5.69s-5.89.73-8.47.92-3.06 0-3.19.33-.32 1.74 0 1.77a54.81 54.81 0 0 0 5.86-.33 24.07 24.07 0 0 1 2.8-.24s2.48 6.22 1.88 11.92c-.11 1-.22 1.95-.37 2.75a12.75 12.75 0 0 0 -2.57-1.91c-.23.07-.26.3-.19.63a25.72 25.72 0 0 0 2.47 2.46 5.46 5.46 0 0 1 -.76 1.65 21.15 21.15 0 0 0 -3-2.55c-.24 0-.42.64-.42.74s2 2 2.67 2.64a5.49 5.49 0 0 1 -1.44.82 22 22 0 0 0 -2.65-2.73c-.23 0-.46.34-.42.58a26.75 26.75 0 0 0 2.08 2.48c-.5.14-1 .26-1.67.37a29.16 29.16 0 0 0 -2-2.55c-.27-.23-.59.31-.69.61s.93 1.49 1.43 2.12l-1 .1c-7.37.68-14.81-.73-16.79-1.53s-3.69-5-2.63-9.86 1.58-7.45 1.58-7.68-.28-.52.12-.67 6.05.29 6.35 0 .37-1.52.37-1.52-3.6-.2-5.6-.42-3.32-1.14-3.36-1.4-.18-4.49 0-4.54 5.52 2.63 15.64 1.71a94.1 94.1 0 0 0 14.13-2.36zm-3-4.59c.16 1.36 0 3-.4 3.21s-4.07 1.71-11.36 1.75-10.91-.55-12.74-1.71c-.36-.24-.29-3.16 1.55-4.53s3.24-1.37 3.64-1.24.47.19.47.29a5.85 5.85 0 0 0 -1.64 3c-.13 1.64.08 2.1.24 2.13s.7 0 .74-.05a6.17 6.17 0 0 1 1.17-4.36c1.6-1.9 3.52-2.47 4.47-3.28s1.24-1.6 1.44-1.4a2.6 2.6 0 0 1 -.26 2.14 27.87 27.87 0 0 0 -3 4.49c-.47 1.28-.08 2.7.22 2.83s.41.16.5 0-.37-2.2.63-3.49 1.89-2.64 2.21-3 .38-1.17.65-1.14a7.15 7.15 0 0 1 2.17 3.82c.13 1.56-1 3.12-.8 3.31a.65.65 0 0 0 .67.19 5.26 5.26 0 0 0 1.4-3.46 6.06 6.06 0 0 0 -1.7-3.43 5.71 5.71 0 0 1 -.59-1c.27-.14 1.29.88 2.26 1.16s2.41.42 3.27 2a6.13 6.13 0 0 1 .57 3.73c0 .43 0 .66.15.73a.51.51 0 0 0 .63-.42c.06-.4.57-2.84 0-4a6.94 6.94 0 0 0 -2-2.16 5.45 5.45 0 0 1 3.21.43 4.31 4.31 0 0 1 2.2 3.46zm4.24-17.25c-2.1 5.34-6.42 12.53-6.69 12.53s-1.38-.6-1.78-.56c-.24 0 3.64-11.37 4.66-13.79s2.24-4.06 3.66-3.64 2.24.12.15 5.46zm-24.79 33c-.9.08-1.15.48-1.64 1.43a6.16 6.16 0 0 0 -.34 4.5c.6 1.66 1.53 1.81 1.67 1.74a.75.75 0 0 0 .11-.74 3.39 3.39 0 0 1 -1.08-2.61c0-1.9.68-3 1.11-2.95s.39 1.09.75 1.08.6-.34.59-.91-.54-1.61-1.17-1.55zm5.32 2.69c.32-.64.58-2.78-.39-2.89s-2.51 1.25-2.71 1.64c-.06.14-.28 6.07-.14 6.5s.8.12.93-.08-.11-2.4.09-2.5 1.64 2.16 1.74 2.23.67-.08.76-.35-1.58-2.4-1.75-2.6 1.15-1.32 1.47-1.96zm-2 .64c-.1-.21-.1-1.71-.1-1.71.13-.17 1.15-.85 1.45-.53s-.73 1.82-1 2-.3.46-.37.23zm6-1.82c.17-.1.22-.7.08-1s-2.69.41-2.79.62 0 6.1.09 6.27a15.44 15.44 0 0 0 2.8.07c.14 0 .16-.6.09-.7a15.92 15.92 0 0 0 -1.84-.53v-1.83c0-.13 1-.19 1-.32a1.78 1.78 0 0 0 0-.73c0-.1-1.13.09-1.13.09s0-1.14 0-1.3 1.6-.54 1.71-.65zm2.62 5.92c.26-.31-.18-4 0-4s.75 1 1 1a8.3 8.3 0 0 0 1.28-1.09 39.1 39.1 0 0 0 .18 4c.14.13.67-.08.73-.28s.12-5.53.12-5.7-.44-.19-.74-.15-1.66 1.86-1.79 1.87-.58-2.33-.72-2.52-.73-.09-.93.18-.27 6.61-.3 6.84c.01-.04.92.14 1.18-.16zm7.32-.61c.16-.07 0-.54 0-.64s-1.33-.14-1.44-.23a13.4 13.4 0 0 1 -.13-1.93 7.28 7.28 0 0 0 .86-.22c.13-.07 0-.54 0-.7s-.73 0-.87-.08 0-1.14 0-1.24a8.11 8.11 0 0 1 1.36-.19c.1 0 .09-.6 0-.9s-2.2-.06-2.29.28 0 5.86 0 5.86 2.35.05 2.52-.02zm-19.87 5.88a6.94 6.94 0 0 1 -1-2.52c0-.2-1-.44-1.2 0a4.28 4.28 0 0 0 .34 2.09 7.63 7.63 0 0 0 1.91 2.27c.17 0 .86-.49.88-.82s-.39-.4-.93-1.02z" fill="#fff"/></svg>