<svg height="64" viewBox="0 0 64 64" width="64" xmlns="http://www.w3.org/2000/svg"><path d="m61.82 27.13a13.61 13.61 0 0 0 -2.68-6.72s.47-1.83.52-2.35-2.31-4.23-9-8.42-12.21-2.49-12.21-2.49a2.13 2.13 0 0 0 -.66-1c-.57-.51-2.16-1.08-6.26-.56s-9.59 1-18.81 7.34-10.39 10.68-10.62 12.56 1.6 3.24 1.6 3.24a34.53 34.53 0 0 0 -1.7 10.02c-.15 5 .61 6.07 1.55 8.18a3.65 3.65 0 0 0 2.68 2.31 35.69 35.69 0 0 0 3.67 6.34c2.17 2.83 4.42 3.16 5.83 3.06a4.41 4.41 0 0 0 3.48-3.06 70.65 70.65 0 0 0 .52-7.75 5.86 5.86 0 0 0 .71-.33c.42-.24.65-1.09 1.69-2.5a20.37 20.37 0 0 1 2.44-2.68 12.15 12.15 0 0 0 2.92 2.59c1.08.42 3.29.33 6.3-1.08s4.89-2.12 5.93-3.67.61-4.19.61-4.19a24.74 24.74 0 0 1 3.2-.09c2 0 3.81.75 4.61.71a7.89 7.89 0 0 0 2.53-1.46 46.72 46.72 0 0 0 4.57 2.35 4.84 4.84 0 0 0 5.17-.75c1.32-1.18 2.07-5.13 1.41-9.6zm-45.38 26.48c-.14 1.41-.38 2-1.41 2.07s-5.36-3.29-6.26-7.2a16.1 16.1 0 0 1 4.71-.8c2.44-.14 3.19 0 3.29.29s-.19 4.23-.33 5.64zm4-10.53c-1.13 1.78-1.08 2-1.31 2s-2.64-1.51-7.53-.19-5.6.91-5.6.91-1.93-3.29-1.32-9.4.61-6.3.85-6.4a28.3 28.3 0 0 1 10.11 3.44c4.36 2.56 7.52 6.49 7.36 6.81a17.87 17.87 0 0 0 -2.52 2.83zm17.39-7.85a18.68 18.68 0 0 0 -3.47-1.23c-.47 0-.33.66-.29.85s3.08 1.45 3.73 1.83a12.67 12.67 0 0 1 -.18 1.61 42.77 42.77 0 0 0 -5-2c-.28 0-.61.85-.52 1s3 1.53 4.22 2.12c-.52.26-1.14.54-1.76.82a22.47 22.47 0 0 0 -3.82-1.53.82.82 0 0 0 -.9.75 20 20 0 0 0 3.33 1.4l-.5.25c-1.51.75-3.44 1.27-4 .94s-5-7.24-10.68-10.63-10.49-3.41-11.61-3.76-2.73-2.3-1.27-3.81a54.48 54.48 0 0 1 11.47-10.39 30.27 30.27 0 0 1 14.67-5.17c2.45-.24 3.86 0 4.33.47s1.93 6.35 2.21 15.84c0 .78 0 1.51.06 2.22a11.75 11.75 0 0 0 -3.07-.66c-.19.09-.05.84.09 1.22s2.23.74 3 .89v2.56a13.94 13.94 0 0 0 -3.6-.63c-.19.09 0 .85.42 1.18a18.76 18.76 0 0 0 3.18 1c.04 1.1.02 2.06 0 2.86zm10.35-7.23a27.25 27.25 0 0 0 3.33 2.95c-.28.37-.54.7-.78 1a21.06 21.06 0 0 0 -3.11-2.6c-.43-.14-.94.47-.8.75s2.19 2.2 2.9 2.87a3.87 3.87 0 0 1 -1.1.7 15.93 15.93 0 0 0 -2.74-2.11c-.28-.05-.75.47-.71.75a10.24 10.24 0 0 0 1.71 1.57c-1.86-.06-6.41-.54-6.41-.54s.05-9.92-.28-15.28-.9-8.42-.66-8.65 5.08 0 10.67 3.38 6.73 5.32 6.73 6.31a11 11 0 0 1 -.58 2.83 24.39 24.39 0 0 0 -3.79-2.65c-.43 0-.57.52-.52.9a28.16 28.16 0 0 0 3.88 3c-.19.49-.41 1-.67 1.58a25.85 25.85 0 0 0 -4.39-2.76c-.47 0-.61.38-.51.57s3.28 2.41 4.4 3.2c-.27.54-.57 1.1-.91 1.69-.93-1-3.6-3.26-4.06-3.3a.68.68 0 0 0 -.7.8 47.83 47.83 0 0 0 4.06 3.65l-.26.4c-.21.32-.41.63-.61.91a23.67 23.67 0 0 0 -3.62-2.79c-.28-.04-.56.47-.47.87zm9.08 2.87c.28.61 2.44 1.79 2.44 1.79a3.1 3.1 0 0 1 -.58 1.21 10.15 10.15 0 0 0 -2.57-1.64c-.47 0-.61.43-.61.61a17.73 17.73 0 0 0 2 1.88 3.56 3.56 0 0 1 -2 .15 17 17 0 0 1 -3.43-1.56 38.72 38.72 0 0 0 3.9-4.89c1.17-2 1.79-3.34 2.11-3.1a17.17 17.17 0 0 1 1.29 5.68 10.61 10.61 0 0 0 -2.32-1.36c-.04.13-.49.6-.23 1.21zm-50.26 4.68a52.44 52.44 0 0 0 0 5.32c.1.37.9.09 1.18 0s.23-5.27.09-5.6-1.14-.04-1.27.28zm2.34-12.32c-.9.09-1.08 1.27-.47 1.46s1.55-.1 1.6-.61-.6-.91-1.13-.85zm7.9 3.1c-.89.1-1.08 1.27-.47 1.46s1.55-.09 1.6-.61-.6-.9-1.13-.85zm5.17-6.16c-.89.1-1.08 1.27-.47 1.46s1.55-.09 1.6-.61-.6-.9-1.13-.85zm9.08-8.23c-.9.1-1.08 1.27-.47 1.46s1.55-.09 1.6-.61-.62-.9-1.13-.85zm-2.49 7.39c-.89.09-1.08 1.27-.47 1.46s1.55-.1 1.6-.62-.55-.9-1.13-.84zm-2.63 7.19c-.89.1-1.08 1.27-.47 1.46s1.55-.09 1.6-.61-.56-.9-1.09-.85zm-9.12-8.18a1.17 1.17 0 0 0 -2.07-.52c-.24.33-.61 1.37.33 1.74s2.01-.23 1.78-1.22zm5-4.28c-.23.33-.61 1.36.33 1.74s2-.23 1.74-1.22a1.17 1.17 0 0 0 -2.05-.52z" fill="#fff"/></svg>