<svg height="64" viewBox="0 0 64 64" width="64" xmlns="http://www.w3.org/2000/svg"><path d="m52.76 31.33c-.26-3.57-1.31-4.67-2.89-4.94s-4.78-.52-4.78-.52 0-2.26-.1-4.15-.47-2.31-4.62-2.58-22.95 0-26.16.06-2.89 3-2.89 4.57c0 0 .06 10.5-.1 16.75s-.32 12.71.68 16.6 4.83 4.88 6.36 4.88 17.85.16 21.27-.16 3.94-4 4-4.93.26-7.62.26-7.62a10.41 10.41 0 0 0 5.1-1.36 6.51 6.51 0 0 0 3.73-5.36 85.24 85.24 0 0 0 .14-11.24zm-11.08 16.15a10.46 10.46 0 0 0 -2.52-1.29.66.66 0 0 0 -.42 1 18.16 18.16 0 0 0 2.87 2c0 .8 0 1.47-.07 2a22.13 22.13 0 0 0 -3.22-2.41c-.42-.11-.63.57-.53 1a27.31 27.31 0 0 0 3.69 3.09q0 1-.12 1.86a30.48 30.48 0 0 0 -3.83-3.11c-.26 0-.68.74-.58 1s3 2.64 4.18 3.68a6.33 6.33 0 0 1 -.45 1.48 34.16 34.16 0 0 0 -3.68-3.34c-.16 0-.89.52-.84.73s2.74 2.86 3.64 3.75a2.36 2.36 0 0 1 -.91.4h-.14a39.39 39.39 0 0 0 -3.53-3.23c-.27 0-1 .31-1 .68a20 20 0 0 0 2.53 2.71l-2 .07a10.66 10.66 0 0 0 -2.24-2.41c-.37-.26-1.21.26-1.31.52s1 1.27 1.68 1.92c-5.37.06-12.49-.06-14-.23-2.26-.27-4.83-2.21-5-4.68s.21-30.3.1-31.3c-.05-.53.16-1.63.42-1.68s21.27.05 21.27.05v3.1s-2.1-.37-2.2.94a26.4 26.4 0 0 0 0 4.68 1.91 1.91 0 0 0 1.78 1 15.47 15.47 0 0 0 3.1 0 1.76 1.76 0 0 0 .95-1.58c0-.79 0-4.25-.11-4.46a1.54 1.54 0 0 0 -1.19-.55l-.63.05v-3.1s3.05 0 3.68-.05 1.36-.05 1.47.74c.09.64-.52 16.57-.84 24.97zm-3.68-21.03c.11.21.26 3.57-.1 3.62a14 14 0 0 1 -3-.16c-.26-.16-.05-3.62-.05-3.62a15.62 15.62 0 0 1 3.15.16zm6.78 6.19s2.73-.16 3.15.16.21 8.77-.11 9.51a3 3 0 0 1 -1.82 1.36 10.17 10.17 0 0 1 -1.74.21zm6.77 9.25c-.26 2.15-2.21 5.3-4 5.77a12.07 12.07 0 0 1 -3.26.42v-3.2s3.68.47 4.57-2.21.89-9.76.52-10.4a3.2 3.2 0 0 0 -2.66-1.27c-1-.05-1.78-.05-1.78-.05v-3.66s4.51-.16 5.62.94 1.2 11.5.94 13.66zm-35.34-17.65s-.27 4.83-.11 5.15 1 .15 1.21.15a27.69 27.69 0 0 0 -.1-5.51c-.21-.21-.9.05-1 .21zm17.28 9.66a6 6 0 0 0 -5.15.74 5.09 5.09 0 0 0 -5.34-1.79c-3.46.9-4.09 4.94-3.57 6.88s3.36 3.63 5.62 5.1a4.57 4.57 0 0 1 2.1 4c.11.53 1.16.05 1.37 0s.05-.53.78-1.73 5.57-3.37 6.73-6.2.19-6-2.54-7zm1.62 5.57c-.68 1.84-3.2 3.1-4.72 4.78a10.88 10.88 0 0 0 -2.05 2.75c-.11.26-.37.42-.53.16s.79-1.32-2-3.1-5.41-3.94-5.25-5.78 1.74-4.38 3.89-4.28a4 4 0 0 1 3.42 2.89c.05.21.57.15.63 0a3.09 3.09 0 0 1 3.31-2.1 3.59 3.59 0 0 1 3.3 4.68zm-14.39-23.84c.37.31 1.42-.37 1.16-1s-1.37-1.47-1.31-2.31 1.26-2.52 1.68-3.84-.95-3.2-1.11-3.57-.89-.21-.94.11.79 1.68 1 3-1.74 2.16-2 4.1a3.85 3.85 0 0 0 1.52 3.51zm4.84-.37c.26 0 1.15-.16 1.26-.68s-1.21-1.58-1.47-2.84 1.36-2.31 1.65-3.52-.89-2-1.26-2.89a1.46 1.46 0 0 1 .42-1.84c.42-.26.37-.84.21-1.36s-1.57.1-1.83 1.15a6.1 6.1 0 0 0 1 4.21c.95 1.68-1.47 2.1-1.68 3.78s.95 3.99 1.7 3.99zm3.93.68c.21.05 1.16-.1 1.21-.73s-1-1.42-1.42-2.1 1.63-2.42 1.79-4a3.11 3.11 0 0 0 -1.37-2.99c-.42-.16-1 .42-.89.79a6.14 6.14 0 0 1 1.05 2.31c.26 1.47-1.68 1.73-1.94 3.52s1.57 3.2 1.57 3.2zm5.2-1.68c0-.31-.52-.79-1-1.37s.52-1.47 1.1-2.41a2.23 2.23 0 0 0 -.37-2.36.64.64 0 0 0 -.89 0c-.26.26-.11.57.26 1.36s-1 1.73-1.36 2.78.77 2.11.94 2.32a.77.77 0 0 0 1.32-.32z" fill="#fff"/></svg>