<svg height="64" viewBox="0 0 64 64" width="64" xmlns="http://www.w3.org/2000/svg"><path d="m57.37 15.51c-4.37-4.46-12.47-2-12.47-2l-.37-1.06a14.21 14.21 0 0 0 -5.1-6 16 16 0 0 0 -17.21 1.29c-7.12 5.1-7.08 8.88-7.08 8.88s-2.25-1.06-7.36 1.19-6.85 8.28-5.29 13.8 7.78 6.67 7.78 6.67 5.15 13.34 5.73 14.72a7.76 7.76 0 0 0 2.2 3.41 24.46 24.46 0 0 0 11.8 3.07 56.29 56.29 0 0 0 11.41-1.33 5.61 5.61 0 0 0 3.95-3.15c.83-1.75 5.75-17.39 5.75-17.39a9.43 9.43 0 0 0 4.14-.6c1.93-.83 6-4.28 6.62-9s-.13-8.01-4.5-12.5zm-9.81 26.17a32 32 0 0 0 -3-2.43c-.19-.1-1.11.5-1.06.87a24.85 24.85 0 0 0 3.63 2.88c-.19.61-.4 1.25-.61 1.89a18.61 18.61 0 0 0 -3.6-2.85c-.37 0-.27.64-.18.87s2.48 2.43 3.36 3.25l-.64 1.92a22.14 22.14 0 0 0 -3.46-2.53c-.37 0-.51.55-.42.82a39.42 39.42 0 0 0 3.51 2.9c-.18.54-.37 1.07-.55 1.58a17.41 17.41 0 0 0 -3.83-2.59c-.46.05-.55.37-.51.78s2.8 2.33 3.8 3.07c-.26.68-.49 1.28-.71 1.79a37.16 37.16 0 0 0 -3.95-2.83c-.23 0-.6.59-.6.87a36 36 0 0 0 4 3.09 1.72 1.72 0 0 1 -.34.5 3.85 3.85 0 0 1 -.84.41 17.94 17.94 0 0 0 -4.17-3c-.32 0-.64.32-.6.55a41 41 0 0 0 3.47 2.84c-.61.15-1.33.3-2.14.42a19.93 19.93 0 0 0 -3.44-3c-.37-.14-.83.6-.83 1a12.93 12.93 0 0 0 2.5 2.25 44.47 44.47 0 0 1 -7 .15c-6.53-.37-9.71-2.3-10.3-3.13s-6.4-14.44-6.17-15.59c.05-.25 2.07.6 4.79 0a24.08 24.08 0 0 0 4.46-1.43 14.74 14.74 0 0 0 9.62 3c5.93-.23 11.4-4.92 11.4-4.92a5.23 5.23 0 0 0 2.72 1.79 10.06 10.06 0 0 0 2.94.83s-.51 1.66-1.25 3.98zm10.63-11.4c-1.38 3.17-4.6 5-8.51 4.69s-4.55-1.84-4.83-2.58-.27-1.39-.85-1.52-1.52.79-1.52.79a13 13 0 0 1 -10.67 6.21c-7.27.09-8.32-3.91-8.74-4.14s-5.2 3.58-11.82 1.84a8.52 8.52 0 0 1 -6.6-10.31 8.16 8.16 0 0 1 7.13-6c2.17-.31 2.9-.33 4.28.59s2.48 2 2.9 1.71 1.1-1.43 1-1.71a13.35 13.35 0 0 0 -2.16-2.16 2.22 2.22 0 0 1 -.69-1s1.2-5.43 9.48-8.7 14.41.53 15.41 4.81.46 7.26.69 7.54a.87.87 0 0 0 .88.37 3.86 3.86 0 0 0 1.28-1.71 11.24 11.24 0 0 0 .28-3.22s8.6-2.62 11.45 2.48 2.99 8.84 1.61 12.02zm-49.81-4.74a1.07 1.07 0 0 0 0 1.75 1 1 0 0 0 1.56-.92 1.05 1.05 0 0 0 -1.56-.83zm2.44-4a1.07 1.07 0 0 0 0 1.75 1 1 0 0 0 1.56-.92 1.06 1.06 0 0 0 -1.56-.79zm3.77 2.67a1.07 1.07 0 0 0 0 1.75 1 1 0 0 0 1.56-.92 1.06 1.06 0 0 0 -1.56-.79zm9.7-6.44a1.09 1.09 0 0 0 0 1.75 1 1 0 0 0 1.57-.92 1.06 1.06 0 0 0 -1.57-.79zm.6-4.6a1.06 1.06 0 0 0 -1.56-.83 1.07 1.07 0 0 0 0 1.75 1 1 0 0 0 1.56-.88zm4-2.07a1.09 1.09 0 0 0 0 1.75 1 1 0 0 0 1.57-.85 1.06 1.06 0 0 0 -1.57-.86zm-.82 3.13a1.07 1.07 0 0 0 0 1.75 1 1 0 0 0 1.56-.92 1.06 1.06 0 0 0 -1.56-.79zm4.78-5.53a1.05 1.05 0 0 0 -1.56-.82 1.07 1.07 0 0 0 0 1.74 1 1 0 0 0 1.56-.92zm3.73 5.62a1.07 1.07 0 0 0 0 1.74 1 1 0 0 0 1.56-.92 1.05 1.05 0 0 0 -1.56-.82zm-4 9.88a1.09 1.09 0 0 0 0 1.75 1 1 0 0 0 1.56-.95 1.07 1.07 0 0 0 -1.57-.8zm15.09 1.89a1.07 1.07 0 0 0 0 1.75 1 1 0 0 0 1.56-.92 1.06 1.06 0 0 0 -1.57-.83zm1.2-4.69a1 1 0 1 0 -1.57.92 1 1 0 0 0 1.56-.92zm6.34-2.07a1.09 1.09 0 0 0 0 1.75 1 1 0 0 0 1.57-.92 1.06 1.06 0 0 0 -1.58-.83zm-4.18 0a.72.72 0 0 0 0 1.18.7.7 0 0 0 1-.62.72.72 0 0 0 -1.03-.6zm-13.35-7.43a.72.72 0 0 0 -1.06-.56.73.73 0 0 0 0 1.18.71.71 0 0 0 1.06-.62zm-11.46-2.54a.73.73 0 0 0 0 1.18.7.7 0 0 0 1.06-.62.71.71 0 0 0 -1.06-.56zm-8.69 13.34a.73.73 0 0 0 0 1.18.71.71 0 0 0 1.06-.62.72.72 0 0 0 -1.06-.56zm35.6.14a.73.73 0 0 0 0 1.18.71.71 0 0 0 1.06-.63.71.71 0 0 0 -1.06-.55zm-4-6.13c-.46-.37-1.81.16-2.11.41-.56.46.27 1.15.92.92s1-.18 1.47-.37.18-.59-.28-.96zm-25.53 26a39.65 39.65 0 0 0 1.8 7.18c.23.14.83.28 1 .05a48 48 0 0 0 -1.51-7.27c-.32-.34-1.21-.32-1.29.02zm12.84 0c-.14.28-.74 6.49-.74 6.49a.67.67 0 0 0 .69.18c.42-.13 1.24-6.07 1.29-6.57s-1.14-.32-1.24-.12z" fill="#fff"/></svg>