<svg height="64" viewBox="0 0 64 64" width="64" xmlns="http://www.w3.org/2000/svg"><path d="m16 22.68c-2 .26-3.25 3-1.33 4.18s4.85 0 4.66-2-2.23-2.32-3.33-2.18zm-.43 3.32c-1-.64-.35-2.06.69-2.19a1.47 1.47 0 0 1 1.74 1.19c.1 1-1.43 1.61-2.43 1zm8.39.66a1.88 1.88 0 1 0 2.59 1.52 1.83 1.83 0 0 0 -2.55-1.54zm.33 2.34a.76.76 0 0 1 .1-1.35.74.74 0 0 1 1.05.61.77.77 0 0 1 -1.15.74zm12.58-3.37c-2.41 1.15-1.48 3.63.55 4.14s4.25-.29 3.81-2.55-3.39-2.04-4.36-1.58zm.91 3.37c-1.25-.32-1.81-1.84-.34-2.55.6-.28 2.41-.41 2.68 1s-1.12 1.82-2.34 1.55zm10.92-3.1a1.9 1.9 0 0 0 -.63 3.1 1 1 0 0 0 1.62-.22c.08-.22-.4-.19-.7-.82s.82-.85 1.07-.77.23.66.74.74.63-.56.52-1.33-1.83-.93-2.62-.7zm-12.2-4.32c1.62 1.36 3.1-.45 3.21-1.56s-1.29-1.52-2.44-1.37a1.59 1.59 0 0 0 -.77 2.93zm20.81 4.42a5.24 5.24 0 0 0 -3.66-4.25s-1.77-4.84-3.73-5.88a4.75 4.75 0 0 0 -4.11.15 8.89 8.89 0 0 0 -1.51-2.81 2.65 2.65 0 0 0 -2.41-1s.71-3-.92-4.85-5.66-1.18-5.66-1.18a4.2 4.2 0 0 0 -.92-2.73 4.39 4.39 0 0 0 -5.47-.89 2.54 2.54 0 0 0 -1.52 3.19s-.48 0-1.77 0-4.29-.18-5.63 2.11 1.45 4.25 1.45 4.25-3.18 0-4.55 1.44 0 3.88 0 3.88-.78-.07-2.44-.11a7.35 7.35 0 0 0 -6.95 3.74 5.18 5.18 0 0 0 .11 6 6 6 0 0 0 -.85 5.73 7.72 7.72 0 0 0 4.59 4.21s2.77 16.6 3 17.19a8.76 8.76 0 0 0 3.18 4c2.37 1.89 7.58 3.92 17.38 3.85s15.08-4.75 15.74-5.27 3.14-20.44 3.14-20.44.74-.19 1.92-1.63a11.33 11.33 0 0 0 1.59-8.7zm-27.8-21.14a3 3 0 0 1 3.1-1.14c.93.26 1.22 2.7.71 2.88s-2.33.85-3.11 0c-.38-.47-1.44-.66-.7-1.74zm19.41 49a18.4 18.4 0 0 0 -2.64-1.77c-.28 0-.63.49-.59.84a17.07 17.07 0 0 0 2.8 2.34 9.29 9.29 0 0 1 -1.43 1c-1.1-.88-2.62-2-2.77-2.06s-.84.56-.84.84a13.34 13.34 0 0 0 2.44 1.84 15.72 15.72 0 0 1 -1.64.68c-.89-.67-1.91-1.42-2-1.48s-.6.39-.63.7.64.7 1.31 1.22a37.59 37.59 0 0 1 -12 1.12c-12.86-.59-14.23-6-14.45-6.73s-2.55-14.53-2.37-14.72a15.63 15.63 0 0 0 4.22-.07 5.66 5.66 0 0 0 2.88-1.44s1.11 2.66 5.58 2.36 5.36-2.47 5.36-2.47 1.33 2.18 5 2 5.14-2 5.14-2 .67 1.82 3.59 1.48 3.62-1.85 3.62-1.85a12.13 12.13 0 0 0 1.15.74 7.2 7.2 0 0 0 .66.3s-1.6 12.86-2.39 17.12zm6.36-24.86c-.52 4.44-2.81 5.22-3.7 5.14s-1.15-.18-1.11-.29.59-1.41.19-1.63-1.33.22-1.7.59a4.36 4.36 0 0 1 -3.3 2c-2.18.19-2.66-1.92-3.14-1.88s-2.73 2.44-5.62 2.18-3.62-2.26-4.17-2.33-4 3.29-7.07 2.92-3.58-2.22-4.4-2.44-3.25 2.7-7 1.81-6.51-4.92-4.81-6 2.85-1.81 2.15-2.51-1.85-1.48-2-2.63a3.18 3.18 0 0 1 1-2.32c.77-1 4.18-1.82 6.8-1.48s3.44 1.18 3.44 1.18a67.44 67.44 0 0 0 8.26 2.69c2.63.48 2.15-.33 2.33-.67a1.11 1.11 0 0 0 0-1c-.15-.19-5.18-1.07-8.8-2.7s-4-3.77-3.11-4.33 2.78-.74 3-1.07.19-.74.37-.78a30.94 30.94 0 0 0 7.11 2.55c3.55.59 5.66.62 6.4.44s.62-1.48.44-1.78-2.15.3-7-1.07-6.62-3.36-6.76-3.59-.19-1.15.22-1.3 4.32-.66 5-.26.55.74 3.58.85 4-.29 4.48-.51 2.73-.6 3.44.26a4.2 4.2 0 0 1 .37 3.58c-.37 1-.82.89-.78 1.33s.3 1 .41 1a2.46 2.46 0 0 1 3.1 1c1.41 1.85.74 3.44.45 3.7s-1.15.89-1.08 1.22a1.22 1.22 0 0 0 .85.78 11 11 0 0 0 2.78-1.85c1-.85 2.36-1.59 3.1-1.26s2.22 2.88 2.48 4.47 0 1.59.37 1.85 3.95-.25 3.43 4.14zm-37.38 12.72c-.07.37 2 10.28 2.22 10.5a.8.8 0 0 0 1 0c.44-.22-1.3-10.22-1.52-10.64s-1.6-.11-1.7.14zm4.7 1.82c-.12.44 1.33 9.79 1.33 9.79s.77.48 1 .41-.22-9.72-.33-10-1.92-.54-2-.2zm21.55-2.26a13.82 13.82 0 0 0 -1.44 4.77 53.77 53.77 0 0 0 -.48 7.76c.11.48 1.22.19 1.4 0s0-.92.41-4.77 1.4-7.09 1.26-7.43-.92-.56-1.15-.33zm3 1.11c-.11.33-.34 1.52-.71 3.81a24.49 24.49 0 0 0 -.29 5.17c.07.19 1 .19 1.18.11s.15-.33.41-3.29a36.92 36.92 0 0 1 .81-5.06c0-.3-1.34-1.06-1.44-.74z" fill="#fff"/></svg>