<svg height="64" viewBox="0 0 64 64" width="64" xmlns="http://www.w3.org/2000/svg"><path d="m6.23 34.74s.56 4.9.7 5.55 1 .14 1 .14-.23-5.13-.37-5.55-1.14-.24-1.33-.14zm18.35 8.35c-3.69 1.36-4.25 5.37-2.94 8s6.3 3.32 8.73 2.11 5.51-4.21 3.08-7.94-6.71-2.96-8.87-2.17zm5.24 9.1c-1.93 1-5.91.44-6.95-1.68a4.54 4.54 0 0 1 2.34-6.39c1.72-.63 5.13-1.22 7.06 1.75s-.52 5.35-2.45 6.32zm-6.82-5.13c-.14.28-.65.84-.32 1.26a2.4 2.4 0 0 0 2 .47c.42-.19.42-1.07.38-1.26a4.91 4.91 0 0 0 -2.06-.47zm-6.16 1.73c-.61.51-.56 1.45.23 1.63s1.54-.23 1.45-1a1 1 0 0 0 -1.69-.63zm.7-5.46c-.61.51-.56 1.44.23 1.63s1.54-.23 1.45-1a1 1 0 0 0 -1.69-.63zm4.46-2.8c.8.18 1.54-.24 1.45-1a1 1 0 0 0 -1.68-.61c-.6.49-.55 1.42.23 1.61zm6-.75c.79.19 1.54-.23 1.44-1a1 1 0 0 0 -1.68-.6c-.56.48-.52 1.41.24 1.6zm5 1.77c.79.19 1.54-.23 1.44-1a1 1 0 0 0 -1.68-.61c-.52.49-.48 1.43.32 1.61zm4 4.45c.8.19 1.54-.23 1.45-1a1 1 0 0 0 -1.68-.61c-.66.48-.61 1.41.23 1.61zm.33 4c-.61.51-.56 1.44.23 1.63s1.54-.23 1.45-1a1 1 0 0 0 -1.73-.63zm24.32-31.46c-.42-.56-8.54-.7-8.54-.7s-4.63-.56-15.48-.91-27.24.49-29.63.77-3.5 1.61-3.71 2.24 1.71 10.06 1.71 10.06c-1.9-.21-3.23.49-3.58 1.47s-.21 16.74 0 20.94 2.09 5.59 2.79 6.11 2.8.21 2.8.21a16.89 16.89 0 0 0 1.47 3.09c.42.35 5.53.28 6 .07s1.05-3.09 1.05-3.09 4.9.07 10.29 0 11.21-.28 11.21 0a8.09 8.09 0 0 0 1.19 2.81c.42.28 4.9 0 5.6-.14s1-2.95 1-2.95 3.71.07 4.34-.35 1.06-1.82 1.55-5.18.56-20.59.56-20.8 0-1.89-.84-2.17a17.41 17.41 0 0 0 -3.16-.35 27.93 27.93 0 0 0 .56-3.67c.28-2.87.42-6.37.42-6.37l2.88.14v2.66c0 .35.28.7 1.54.91a41.73 41.73 0 0 0 7.14.21c.84-.18 1.26-4.45.84-5.01zm-54.44 1.86c.84-.88 9.34-1.07 15.41-1.12s19.14-.42 21.85-.09 2.61 0 2.71.33-1.18 9.89-1.18 9.89-7.75-.18-19.65.1-18.12.37-18.12.37-.61-2.9-1-5.51c.54 0 1.53-.13 3.39-.31.05.9.13 1.83.2 2.61-1.23.09-2.1.17-2.21.18s-.14.84.05 1.12a10.71 10.71 0 0 0 2.28 0l.05.52a.6.6 0 0 0 1 0 1.42 1.42 0 0 0 .12-.59c1.77-.1 3.91-.26 5.64-.38 0 .45.08.74.08.74s.6.09.84-.1a2.15 2.15 0 0 0 .07-.71c1.19-.08 2-.14 2.17-.13.51.05.28-.7.09-1.07a7.9 7.9 0 0 0 -2.28-.06c0-.86-.07-1.87-.13-2.77l6.64-.42s.24-.84-.51-.88c-.29 0-3 0-6.19.14a5 5 0 0 0 -.16-1.08.76.76 0 0 0 -1 .14 3.37 3.37 0 0 0 0 1c-1.85.07-3.8.16-5.54.26a13.11 13.11 0 0 0 -.22-1.38c-.18-.61-.32-.47-.84-.28-.15.06-.18.77-.16 1.73-1.52.1-2.76.22-3.49.34a4.74 4.74 0 0 1 .09-2.59zm4.72 3.54c1.51-.14 3.49-.29 5.46-.44.07.88.17 1.87.25 2.73-1.71.08-3.78.22-5.51.34-.03-.8-.13-1.75-.2-2.63zm2.85 36.66a23.37 23.37 0 0 1 -4.77.1 7.94 7.94 0 0 1 -.46-1.92c.13-.06 6.07 0 6.07 0s-.52 1.64-.84 1.82zm29.46-.51c-.28.09-4.39.09-4.39.09l-.56-1.82c.14 0 5.55.14 5.55.14s-.32 1.5-.6 1.59zm5.69-28.2c.07.09-.06 5.25-.24 10.79a11.9 11.9 0 0 0 -1.58-1.5c-.28-.09-.51.51-.37 1.07.1.4 1.23 1.37 1.9 1.91l-.09 2.3a15.18 15.18 0 0 0 -2.51-3c-.42-.1-.52.56-.52.88s2.12 2.53 3 3.63c0 1.05-.08 2.06-.12 3-1.09-1.57-3.4-4.47-3.81-4.47s-.28.47-.23.84a62.9 62.9 0 0 0 3.94 5.09c-.06 1.16-.12 2.11-.17 2.76-.91-1.52-4.18-5.44-4.61-5.56s-.61.33-.7.79 3.36 4.5 4.46 5.81c-.49 0-1.21 0-2.11.05-.76-1-2.73-3.54-2.91-3.61s-.56.28-.66.7 1.59 2.16 2.3 2.93h-2a9.79 9.79 0 0 0 -2.1-2.81c-.42-.1-.65.28-.75.65s.88 1.52 1.42 2.17c-4.72 0-10.84 0-15.84 0-9.53 0-17.56.1-18 0a3.6 3.6 0 0 1 -2.63-2.71c-.28-1.87-.42-20.87-.28-21.2 0 0 14.33-.84 25.35-.74s19.72.04 19.86.23zm10.32-9.48c-.23 0-6.58-.14-6.72-.51a10.51 10.51 0 0 1 .14-2.8c.12-.26 6.81.09 6.81.51s0 2.8-.23 2.8zm-40.43-8.17s-.23-.79-.42-1.68.65-1 .7-1.87a3 3 0 0 0 -1.45-2.19c-.28.05-.33.19-.37.61s.28.6.46 1.26-.42 1-.51 1.82a7.1 7.1 0 0 0 .42 2.43c.14.28 1.17-.38 1.17-.38zm4.18-6.39c.61 1.16-.09 1.58-.61 2.52s0 2.8.05 3.36c.05.28 1.35.32 1.49-.1s-.09-.51-.37-1.68.93-1.86.89-3.08a9.41 9.41 0 0 0 -1-3.55c-.7-1.72.33-2.66.28-3.12s-.47-.28-1.17.42-.6 2-.46 2.84a6.48 6.48 0 0 0 .9 2.39zm4.16 6.06c-.1.47.65.71 1 .57s.56-.57.47-1.87-.19-1-.56-1.68.05-1 .33-1.59 0-.79-.33-1-1.07.35-1.36 1.56.42 1.45.84 2.1-.3 1.52-.37 1.91zm5.36.38a.79.79 0 0 0 1.08-.94c-.14-.65-.79-1.07-1.31-.56a.89.89 0 0 0 .25 1.5zm-2 9.32c0 1.41.06 2.79.06 2.86s.7.28.93.05a12.83 12.83 0 0 0 .19-2.9l5.54.05c0 .66.06 1.22.06 1.22a.76.76 0 0 0 .7.11c.16 0 .22-.63.24-1.31h3.34c-.1.8-.19 1.64-.26 2.35-3.13 0-8.6 0-8.6 0a1.13 1.13 0 0 0 0 1.08c.1.1 5.48 0 8.54-.17a5.14 5.14 0 0 1 -.09.68.72.72 0 0 0 .7.19 2.15 2.15 0 0 0 .3-.92 8 8 0 0 0 1.15-.11c.51-.19.18-.51.18-.7a5.26 5.26 0 0 0 -1.25-.09c.12-.72.23-1.57.33-2.37a12.51 12.51 0 0 0 1.64-.07c.28-.19.18-.61.14-.89a7.73 7.73 0 0 0 -1.65-.14 13 13 0 0 0 .11-1.63c-.1-.42-.42-.19-.8.14a4.55 4.55 0 0 0 -.34 1.45l-3.48-.08c0-.51 0-.92-.05-1s-.38-.28-.7-.14c-.12.05-.17.53-.18 1.13-1.83 0-3.77-.05-5.51-.06a16.13 16.13 0 0 0 -.06-1.91c-.09-.33-.7-.19-1 .14a6.84 6.84 0 0 0 -.15 1.77c-2.42 0-4.21 0-4.33.05s-.14.94 0 1.08 1.89.11 4.35.14zm-7.08 0c-.2.05-.15 1.2 0 2.3l-1.63.09s-.19 1 0 1.17a10.42 10.42 0 0 0 1.76 0c.05.44.09.74.1.78s.52.33.84.14c.1-.06.14-.44.15-1 1.49-.06 3.05-.16 3.22-.21.32-.09.14-.79 0-1a15.36 15.36 0 0 0 -3.25 0c-.05-1-.14-2-.16-2.21-.05-.51-.61-.18-.98-.09z" fill="#fff"/></svg>