<svg height="64" viewBox="0 0 64 64" width="64" xmlns="http://www.w3.org/2000/svg"><path d="m61.42 30.5a8.49 8.49 0 0 0 -2.36-3.5 23.84 23.84 0 0 0 -4.06-.42c-.25 0-.25-.35-.73-1.28a3.57 3.57 0 0 0 -2.88-2.05c-1.32 0-3.26 2-3.92 1.87s-1.04-1.12-1.47-1.38-.94-.38-2 .21-3.26 2.49-3.89 2.77-1.87-.42-1.87-.42a21.2 21.2 0 0 0 -.24-3.6 13.43 13.43 0 0 0 -2-6c-1-1.46-4-1.29-4.52-1.5s-.14-.93-.1-1.42a2.12 2.12 0 0 0 -1.46-2.25c-1.39-.42-4-.14-5.13-.42s-.63-.87-.8-1.8-.35-2.22-2.99-2.67a20.08 20.08 0 0 0 -7.35.36c-2.74 1.42-6.76 5.93-9.54 12.42s-2.84 12.16-.55 16.39 8.29 6.31 11.89 5.51a13.16 13.16 0 0 0 5.55-2.56s.21.93.52 2.53a24.77 24.77 0 0 0 5.72 9.85 20.86 20.86 0 0 0 14.76 6.42c6.83 0 10.2-2.36 14.12-6.8s5.37-7.11 5.82-11.45a26.26 26.26 0 0 0 -.52-8.81zm-39.9-21.68c.52.62-.17 3 1.46 4s5.24.72 5.79 1.14-.77 2.35 1.23 3.04 4.06.42 4.69 2a43.39 43.39 0 0 1 1.21 6.49 4.57 4.57 0 0 0 -2.39-.63c-1 .18-2.5 3.23-2.85 3.12s-.41-.1-.41-.2.17-2.54-1.22-3.13-5-.2-5.44-.62.59-2.74-.32-3.64-3.13-1.39-3.27-1.75.7-2.74 0-3.85-2.46-.7-2.74-1 .38-1.67-.21-2.5a22.18 22.18 0 0 1 -1.7-2.33c-.11-.39 5.65-.76 6.17-.14zm.92 24.42s0 0 0 0c-.14.39-.26.74-.37 1.06a18 18 0 0 0 -2-3c-.25-.1-.7.42-.66.62s1.6 2.76 2.2 3.79l-.34 1a43.81 43.81 0 0 0 -2.52-4.32.67.67 0 0 0 -.83.42 34.79 34.79 0 0 0 2.42 4.53l-.46.21c-.48-1-2.3-4.09-2.62-4.12a.72.72 0 0 0 -.66.73c.06.2 1.82 2.9 2.39 3.76l-.71.26a32.11 32.11 0 0 0 -2.41-3.36c-.24-.18-.83.17-.83.41a34.62 34.62 0 0 0 2.13 3.3l-.88.22a33.57 33.57 0 0 0 -2.22-3.59c-.18-.13-.77.14-.8.35a36.86 36.86 0 0 0 1.88 3.49l-.83.1a41 41 0 0 0 -2.32-3.64 1.37 1.37 0 0 0 -.87.45 34.26 34.26 0 0 0 1.76 3.2h-.27c-4.12-.31-7.21-3.85-8.15-6.73s.31-9.81 2.12-13.63 6.07-8.19 6.73-8.77c.3-.27 1.56 2.15 1.63 2.6s-.07 2.6.59 2.95 2 0 2.39.76-.21 3.26.49 3.92 2.6.73 2.84 1.49-.9 3.68.63 4.41 5.72.07 6.17.79a2.88 2.88 0 0 1 .31 1.7s-1.84-.9-2.32-.76a7.25 7.25 0 0 0 -2 2.17 5.68 5.68 0 0 0 -1.28-1.72 1.45 1.45 0 0 0 -.9.8 10 10 0 0 0 1.51 2c-.16.29-.31.59-.46.91a21.72 21.72 0 0 0 -1.82-2.43c-.17-.13-.86.32-.9.66a18.08 18.08 0 0 0 2.24 3.01zm4.36-3.15c.73.1 2.91 1 3.78.72s3.19-3.81 3.81-3.74 4.38 2.32 5.61 1.93 4.37-3.06 5.1-2.88 2.11 1.63 3.05 1.49 2.71-2.33 3.5-2 1.67 2.64 2.92 2.84 2.74-.34 3.43.25a9.5 9.5 0 0 1 1.81 4 2.22 2.22 0 0 1 -1.32 1.49 5.48 5.48 0 0 1 -1.6.07s-2.11-2.85-10.09-3.71a27.59 27.59 0 0 0 -16.41 3.08 17.64 17.64 0 0 0 -4.54 3.89 13.34 13.34 0 0 1 -2.71-1.35s2.93-6.17 3.66-6.08zm29.07 4.68c0 .17-1.32 1.7-1.84 1.73s-2.46-.93-3.09-.66-4.23 2.85-5.31 2.78-2.84-1.35-3.57-1.28-2.18 1.45-3.82 1.21-4.12-2-5.09-1.94-3.65 2.08-4.79 2.25a1.66 1.66 0 0 1 -1.67-1s5.41-5.65 13-6.28 10.48.42 12.7 1.28 3.48 1.73 3.48 1.91zm2.3 9.88a8 8 0 0 0 -1.4-1.65c-.28-.1-.9.49-.94.69a14.66 14.66 0 0 0 1.68 2.13q-.28.46-.6.93l-.12.17a13.79 13.79 0 0 0 -2.07-2.19c-.21 0-.8.46-.73.73a25.09 25.09 0 0 0 2.08 2.44c-.27.37-.55.72-.84 1.06a16 16 0 0 0 -2.45-2.49c-.28-.07-.8.35-.83.66a17.87 17.87 0 0 0 2.48 2.76 17.22 17.22 0 0 1 -1.27 1.29 17.34 17.34 0 0 0 -2.64-3.08c-.31 0-.62.35-.69.59a24.93 24.93 0 0 0 2.56 3.17l-.74.59a18.69 18.69 0 0 0 -2.76-3.21c-.2 0-.83.42-.86.66a30.71 30.71 0 0 0 2.48 3.32 13.47 13.47 0 0 1 -1.23.7 33 33 0 0 0 -2.64-3.18c-.17-.07-1 .38-1 .72a20.81 20.81 0 0 0 2.4 3c-.35.13-.7.26-1.07.37-.64-.79-2.47-2.66-2.72-2.88s-.73.1-.94.42 1.55 2 2.3 2.81a19.62 19.62 0 0 1 -4.59.38c-7.35-.25-12-5.28-14-7.81s-3.58-7.49-3.79-9.19c-.06-.53 3.85 2.5 5.14 2.46s4.47-2.39 5-2.22 4.23 2.12 5.55 1.91 2.39-1.28 3.29-1.14 2.36 1.31 4.17 1.14 4.26-2.64 5.34-2.53 2.32.9 3.26.31 1.77-2.22 2.32-2.32 2.71-.87 2.85-.66.58 4.27-1.98 9.14zm-18.64-11.82a11.83 11.83 0 0 0 -4.82 1.38c-.18.11.31.73.55.73a20.51 20.51 0 0 1 4.27-1.14 35.31 35.31 0 0 1 5.38 0c.34-.07.27-.45.17-.77s-2.74-.45-5.55-.2z" fill="#fff"/></svg>