<svg height="64" viewBox="0 0 64 64" width="64" xmlns="http://www.w3.org/2000/svg"><path d="m60.59 34.16c-2.43-2.3-.61-4.93-.34-7.69a10.56 10.56 0 0 0 -2.49-8.57c-2.43-2.63-7.89-1.55-9-1.55a3.16 3.16 0 0 1 -2.57-.88 10.11 10.11 0 0 0 -8-4.11c-5.4-.27-8.64 2.36-10.32 3s-4.04-2.87-7.41-2.36-6.55 4.62-8 5.46c-3.31 2-7.29 2.83-9.45 7a9 9 0 0 0 .14 8.9c.85 1.4-1.51 4.71-1.04 7.34s4.38 4.18 6.27 4.39 3.31 3.64 6.21 5.59 4.65.75 8.29.41 3.12-.09 6.95.91 5.47-1 7.17-1.18 1.82.67 3.1 1.35 3.24.74 9-.34 11.27-7.08 12-9.24 1.9-6.14-.51-8.43zm-2.09 6.68c-2 3-6.81 6.4-9.65 7.75a10.22 10.22 0 0 1 -6.81.95c-1.42-.41-2.49-2.23-5-1.62s-4.25 2.16-6.75 1.62-4.17-1.89-7.29-1.49-4.79 1.22-7.15.27-1.89-5.12-5.39-5.8-4.91-.52-5.46-3.3 2-4.66.88-6.48-2.3-7.35.87-9.37 4.25-1.22 7.25-3.51c2.13-1.65 5.4-6.68 7.82-5.94s2 2.77 3.71 3.44 3.85.34 6-.94 7.15-3.17 10.18-1.35 2 4.79 6 4.85 8.5-1.82 9.44 2-2.7 6.88-.94 11.13 4.31 4.82 2.29 7.79zm-36.09-18.42c-6.54 2.43-9 7.29-8.63 11.6s4 10.26 12.88 10.32 16.39-6.07 13.9-14.7-14.49-8.58-18.15-7.22zm.47 18.58c-4.31-2.16-11.8-10.32 1.49-16.46 4.3-2 12.14-.74 13.42 7.15s-10.59 11.51-14.91 9.31zm-.6-11.6c-2 1.61-2 3.62-1.82 4s1.41.87 1.68.47.14-1.62 1.28-3a4 4 0 0 1 2.7-1.28 1.24 1.24 0 0 0 .41-1.55c-.34-.43-2.23-.22-4.25 1.4zm21.65 15c-.27-.34-1.69.68-1.69.68a23.28 23.28 0 0 0 3.85 2.63c.34.06.34.2.74-.41s-2.63-2.55-2.9-2.89zm2.43-1.48c-.47-.07-1 .26-1 .54.14.54 2.7 2.56 3 2.63s1.08 0 1.28-.27-2.81-2.82-3.28-2.89zm2.43-1.22c-.68-.13-1.13.28-1 .54a11.92 11.92 0 0 0 2.84 3c.4.07.81.07 1-.4s-2.17-2.99-2.84-3.13zm2.56-1.41c-.34-.07-1-.17-1 .47 0 .47 1.82 2.16 2.09 2.29s.4 0 .61-.54-1.36-2.15-1.7-2.21zm2-1.49c-.4-.13-.94.61-.94.61a2.57 2.57 0 0 0 1.08 1.28c.27.14.34-.07.61-.47s-.32-1.22-.73-1.41z" fill="#fff"/></svg>