<svg height="64" viewBox="0 0 64 64" width="64" xmlns="http://www.w3.org/2000/svg"><path d="m15.63 19.38c-3.45 1.24-1.63 4.43.33 4.56s3.38-.91 3.38-2.67-2.47-2.34-3.71-1.89zm.37 3.06c-1.11-.52-.78-1.63.46-1.89a1.16 1.16 0 0 1 1.43 1.18c.02.58-.76 1.27-1.89.71zm45.9 7.69c-.72-2-2.48-2.28-5.41-2.47s-9.32.58-10.43.13-2.67-3.72-4.49-5.93a48.38 48.38 0 0 0 -3.46-3.78l.59-.4a15.68 15.68 0 0 0 2.93-3.84 2.48 2.48 0 0 0 -1.37-2.84c-1.3-.72-4.69-.72-9-.2a16.36 16.36 0 0 0 -6.65 2.09 46.87 46.87 0 0 0 -11.47.91c-6.9 1.34-10.14 5.06-10.87 6.1s-.26 4.37 1 8a23.5 23.5 0 0 0 11.32 12.1c5.8 2.67 13.88 2.48 13.88 2.48a7 7 0 0 0 2.15 2 5.07 5.07 0 0 0 3.91.26c1.3-.52 1-2.61 1-2.61a5.06 5.06 0 0 1 1.1-.06 18.31 18.31 0 0 0 2.87-.46 12.58 12.58 0 0 1 .78 2.48 46.39 46.39 0 0 0 3.65 8.14 3 3 0 0 0 4.76.27c1.24-1.31 1.24-5.22 3.39-8.67s6.19-7.17 7.43-8.54 3.11-3.14 2.39-5.16zm-26.9-18.57c3.85 0 5.09.13 5.54 1.17s-3.38 4.89-3.38 4.89a23 23 0 0 0 -10.3-4.69 31.57 31.57 0 0 1 8.14-1.37zm-20 25.94c-.33-.2-5.67-3.52-8.15-6.85s-3.45-7.17-2.74-8.86a19 19 0 0 1 6.59-4.37 39.19 39.19 0 0 1 8.3-1.89 4.62 4.62 0 0 1 1.3.13s5.74 3.46 5.08 9.13a15.55 15.55 0 0 1 -5.66 10.49c-1.94 1.63-4.42 2.41-4.72 2.22zm39 .06c-3.26 4.3-4.37 5.93-5.74 9.26s-1 3.91-1.43 4.1-.85.13-1.5-1.11a24.28 24.28 0 0 1 -2.47-6.71c-.53-2.87-1.05-3.71-1.31-3.84a16.57 16.57 0 0 0 -3.58.39 7.45 7.45 0 0 1 -2.28.13 11.23 11.23 0 0 0 -.26-3c-.33-.65-.59-.91-.79-.85s-.58.07-.52.46a18.81 18.81 0 0 1 .33 3.71c-.07 1.57-.07 3-.52 3.46s-1.31 1-4.43-1.7-3.78-5.28-4.24-5.34-1.17 0-1 .45a5.23 5.23 0 0 0 .91 1.83 13.35 13.35 0 0 1 .83 1.3 25.39 25.39 0 0 1 -3.91-.58 45.62 45.62 0 0 1 -4.82-1.37 16.19 16.19 0 0 0 8-7.95c2.94-6.06.85-11.47-3.38-15-.21-.17 7.42-.39 12.57 3.32a34.41 34.41 0 0 1 8.54 9.2 5.66 5.66 0 0 0 3.91 2.54c1.24.07 7.63-.78 9.65-.71s3.52.84 3.45 1.82-2.8 1.89-6.01 6.19zm-24.73-18.4c.18 0 .83 0 1 .52s-.56.92-.65 1.13.39.44.65.44.79-.52.87-1.52-.56-1.18-.95-1.35a1.1 1.1 0 0 0 -1.09.22c-.05.17 0 .56.17.56zm1.17 3.65c-.26 0-.73.31-.52.52 1.09 1.09 1.18 1.52.87 2.83a1.88 1.88 0 0 1 -1.52 1.56c-.3.09-.17.57-.09.7s.57.08 1-.05a3.54 3.54 0 0 0 1.74-2.91 2.33 2.33 0 0 0 -1.48-2.65zm-1.52 7a.65.65 0 0 0 -.52.73c.09.22.7.53.78.7a1.89 1.89 0 0 1 -.78 2.35 3.42 3.42 0 0 1 -2.47.56c-.26 0-.48.48-.39.83s.65.52 1.78.34a3 3 0 0 0 2.82-2.47c.61-2-.87-3.09-1.22-3.04zm4.48-.81c-.22 0-.87.41-.78.57a2.15 2.15 0 0 1 .17 2c-.3.79-1.39 1.26-1.48 1.48s.26.65.74.57a3.62 3.62 0 0 0 2-2.35 2 2 0 0 0 -.65-2.27zm2.52-2.74a3.23 3.23 0 0 0 0-2.52c-.22-.34-.74-.08-.87.09s.39.57 0 1.78a2.13 2.13 0 0 1 -1.43 1.48c-.35.17.21.95.73.82a2.42 2.42 0 0 0 1.57-1.67zm2-.17a1.53 1.53 0 0 1 .26 1.13c-.09.74-.7 1-.91 1.26s.17.82.6.78 1-.43 1.18-1.43a2.43 2.43 0 0 0 -.31-1.91c-.17-.15-.69.02-.82.15zm-1.22 3.63c-.17 0-.82.27-.65.69s.91 1.18.48 2a2.37 2.37 0 0 1 -1.35 1.22c-.3.09.13.87.3.87a2.62 2.62 0 0 0 2.31-2.17 2.16 2.16 0 0 0 -1.09-2.61zm8.73 9c-.34-.17-.84.58-.78.69a27.55 27.55 0 0 0 2.26 3.59c.22 0 .3-.09.48-.56s-1.61-3.6-1.96-3.77zm1.57-2.83c-.31 0-.44.91-.22 1.17a17.28 17.28 0 0 0 3.52 1.17.8.8 0 0 0 .52-.43c.18-.35-3.43-1.97-3.82-1.91zm5.12-2.89a19 19 0 0 0 -3-.35c-.21.09-.13.87.13 1a12.29 12.29 0 0 0 3.09 0c.18-.15.05-.54-.22-.65z" fill="#fff"/></svg>