<svg height="64" viewBox="0 0 64 64" width="64" xmlns="http://www.w3.org/2000/svg"><path d="m62 30.5a2.12 2.12 0 0 0 -1.23-2.09c-.83-.52-7.57-2.7-7.57-2.7l-.05-.63s4.41-1.83 4.67-2.29-.82-1.79-.82-1.79 1.32-.6 1.44-1.18-1.44-2.04-2.44-1.9-5.2 3.08-5.2 3.08a12.06 12.06 0 0 1 -1.35-.45 3.89 3.89 0 0 0 -1.35-.29s11.18-3.58 12.29-4.64 1.26-2.21 1-3.84-1.61-3.12-3-2.95-15 7.39-15 7.39-.49-.2-1.66.34-22.56 12.22-22.56 12.22-.26-.32-2.73.94-13.44 7.62-14.03 7.83c-.18.05-.32.51-.38.71a34.81 34.81 0 0 0 .06 5.65c.26.65 7.31 5.75 9.74 7.22a56.05 56.05 0 0 0 10 4.81c5 1.92 7.85 3.06 9.66 2.83s3.63-1.77 10.85-6.84 18.94-14.79 19.43-15.5.23-4.79.23-5.93zm-5-8c-.14.12-4.15 1.84-4.15 1.84l-.37-1a33.7 33.7 0 0 1 4.06-1.95c.13.14.62 1 .46 1.11zm-.57-3.95c.26.26 1.15 1 .94 1.26a34.61 34.61 0 0 1 -5.24 2.75 5.51 5.51 0 0 1 -.94-1.14s4.99-3.13 5.25-2.87zm-7.51 2.69a3.55 3.55 0 0 1 1.15.63 3.8 3.8 0 0 1 1.86 2.53c.37 1.77.52 2.6-.51 3.32a93 93 0 0 1 -8.94 4.12c-3.14 1.32-5.61 2.16-5.61 2.16a3.2 3.2 0 0 0 .72-1.66 2.23 2.23 0 0 0 -.17-1s4.12-1.72 6.44-2.87a22.52 22.52 0 0 0 4.27-2.69c.23-.23.34-.58.26-.69s-2.15-4.24-2.15-4.24a4.23 4.23 0 0 1 1.17-.32c.26.11.92.47 1.52.71zm9.55-11.48c.83-.09 2 .77 2.09 2.75s-.83 3-4.55 4.18l-10.23 3.38s-1.72-3.15-1.72-3.3c0 0 13.58-6.93 14.41-7.01zm-15.24 7.42a65.85 65.85 0 0 1 4.16 8.19 42.64 42.64 0 0 1 -8.83 4.63c-4.1 1.4-8.16 2.64-9.88 3.09a8 8 0 0 1 -2.67.35 6.43 6.43 0 0 0 -3.01-2.44c-1.72-.49-3.21 1-3.55 1.32a2.23 2.23 0 0 0 -.51.83s-1.27-.31-2.07-.57a3.24 3.24 0 0 1 -1.34-.92c.28-.25 27.36-14.66 27.7-14.48zm-8.68 16.1a1.56 1.56 0 0 0 .29-1.28l1.83-.37a2.3 2.3 0 0 1 -1.23 2.49 5.22 5.22 0 0 1 -3.52.58c-.78-.26-1.09-1.41-1.09-1.41l.86-.17a.71.71 0 0 0 .57.52c.51.18 1.83.36 2.29-.36zm-2.09-.46 1.54-.37s.17.4-.12.57a2.22 2.22 0 0 1 -1.12.26c-.19-.06-.5-.35-.3-.46zm-12.46 8.34a7.61 7.61 0 0 0 2.46-.46c.23 0 .29.11.26.31s-.09.89-.09.89a4.26 4.26 0 0 1 -2.69.52c-1.78-.15-2.24-.43-2.38-.58s-.29-1.17-.11-1.17 1.55.4 2.55.49zm-2.18-1.87a7.24 7.24 0 0 1 2-1 1.28 1.28 0 0 1 .78.06 7.46 7.46 0 0 0 1.2.43c.46.08.37.11.4.2a1.1 1.1 0 0 1 -.86 1c-.77.26-2.63.52-3.58-.17-.24-.18-.11-.35.09-.52zm4.18-1.6c-1.66-.06-2.15-1.15-2.17-2.41s.17-3.28 1.71-3.28a2.36 2.36 0 0 1 2.1 2.17c.05 1.43 0 3.58-1.64 3.52zm1.64-.12a4.45 4.45 0 0 0 .83-2.69 4.93 4.93 0 0 0 -.52-2.32 1.7 1.7 0 0 1 1.32 1.44c.08 1.06.23 1.89-.4 2.7a5.17 5.17 0 0 1 -1.18 1.14s-.2-.12-.08-.27zm-19.49.49c.25-.24 10-5.9 10.29-5.73a9.87 9.87 0 0 0 2.64 1.35 7.58 7.58 0 0 0 1.94.4 7.94 7.94 0 0 0 .09 2.41 3.14 3.14 0 0 0 .52 1.11 5.84 5.84 0 0 0 -2.47 1.26 2.39 2.39 0 0 0 -.57 2 2.17 2.17 0 0 0 .23 1.34 3.64 3.64 0 0 0 2.35.92 9.1 9.1 0 0 0 2.46-.09 5.07 5.07 0 0 0 1.72-.88 15.12 15.12 0 0 0 0-2.52 2.42 2.42 0 0 0 -.4-.75 3.11 3.11 0 0 0 1.52-.6 3.4 3.4 0 0 0 1.37-2.28 6.4 6.4 0 0 0 .16-1.72 5.56 5.56 0 0 0 1.69-.12l2.4-.48a2 2 0 0 0 1.55 1.66 10.33 10.33 0 0 0 4.21-.09c.66-.17 12.44-4.78 14.58-5.93s2.18-1.37 2.27-1.54.3-.78.3-.78 3.74 1.37 5.7 2.16c-1-.09-2.19-.22-2.32-.18s-.05.43.15.6a31.46 31.46 0 0 0 3.75.64.91.91 0 0 1 -.06.91l-.16.16c-.89-.36-4.56-1.51-4.77-1.51s-.4.43-.37.55 3.41 1.15 4.48 1.53l-.66.55a22.86 22.86 0 0 0 -3.91-1.41c-.34 0-.28.43-.2.61a35 35 0 0 0 3.52 1.26l-.93.76a12 12 0 0 0 -2.76-1.16c-.34-.06-.37.28-.31.63s1.67.88 2.35 1.13l-1 .83a18.32 18.32 0 0 0 -2.5-1.47c-.2-.06-.43.29-.4.57a9 9 0 0 0 2.24 1.37c-3.55 2.85-8.08 6.4-11.12 8.52-5.56 3.87-10.35 7.53-11.89 8.22s-4.41.52-6.33 0a49.89 49.89 0 0 1 -10.2-4.47 67.37 67.37 0 0 1 -9.4-7.07c-1.57-1.49-1.78-1.32-1.83-1.64a2 2 0 0 1 .05-1.03zm56.33-2.58c0 .15-7.22 6-11.8 9.74-2.22 1.78-4.68 3.67-6.91 5.32a11.75 11.75 0 0 0 -.14-1.85c-.09-.17-.58.14-.66.34a13.36 13.36 0 0 0 .09 2l-1.06.79a8.34 8.34 0 0 0 -.13-2 .4.4 0 0 0 -.6.06 16.2 16.2 0 0 0 0 2.42l-.67.48c0-.59-.09-1.8-.12-1.9s-.57-.17-.68 0a16.92 16.92 0 0 0 0 2.48l-.49.35a13.5 13.5 0 0 0 -.31-2.41c-.11-.2-.57.05-.71.23a13.67 13.67 0 0 0 .31 2.67l-.77.52a10.23 10.23 0 0 0 -.17-2.22c-.15-.29-.46.09-.52.23s0 1.8-.06 2.49l-.66.43a21.89 21.89 0 0 0 -.17-2.35c0-.17-.46 0-.57.26a18 18 0 0 0 0 2.56l-.68.39a12.2 12.2 0 0 0 -.2-1.95c-.08-.2-.51.12-.6.26a17.78 17.78 0 0 0 -.08 2.18 4.17 4.17 0 0 1 -1.21.39c-.6.06-5.64-1.63-9.57-3.24a68.12 68.12 0 0 1 -12.43-7.35c-4.21-2.95-5-3.55-5.24-3.81s0-3.21.23-3.18 4.75 5.27 10.1 8.19 5.84 3.24 9.28 4.3a23.17 23.17 0 0 0 7.22 1.26 5.67 5.67 0 0 0 2.09-.75c.12-.11 10-6.67 14.64-10.17s7.62-5.9 9.89-7.76 3.43-3 3.46-2.92-.1 3.38-.13 3.52zm-48.13 5.22a4.26 4.26 0 0 0 1.4.2 5.81 5.81 0 0 0 1.32-.23 3.27 3.27 0 0 0 .86-.8 6.79 6.79 0 0 0 -.2-3.56 2.43 2.43 0 0 0 -2.35-1.74 5.77 5.77 0 0 0 -2.18 1.08c-.51.49-.4 1.78-.2 3.13a2.38 2.38 0 0 0 1.35 1.92zm1.57-5.5a2.7 2.7 0 0 1 1.35 2.23c.06 1.35.14 2.12-.09 2.29s-.6.55-.71.29.28-1.92-.26-3-1.4-1.35-1.4-1.49.86-.41 1.11-.32zm-2.09 1c.43-.15 1.41.43 1.69 1.26a4.6 4.6 0 0 1 0 2.61 1.56 1.56 0 0 1 -1.75-.92c-.6-1.06-.28-2.81.06-2.92zm10.54-.89c-.17.06-.4.46-.63.49s-.48 0-.48-.72 0-.74.31-.83.52.11.58-.09-.09-.83-.41-.77a1.54 1.54 0 0 0 -1.14 1.4c-.09 1 .23 1.67.77 1.84a1.07 1.07 0 0 0 1.09-.26c.2-.17.4-.4.29-.63s-.2-.46-.38-.4zm4.88 9.88a17.6 17.6 0 0 0 2.92 0 2.33 2.33 0 0 0 1.29-.86 3.87 3.87 0 0 0 -1.09-3.72c-1.43-1.18-3.07-1-4.36-.83a2.25 2.25 0 0 0 -1.89 1.32 16.42 16.42 0 0 0 -.05 2.6 6.53 6.53 0 0 0 3.18 1.52zm.14-4.75c1.92.17 3.38 1.34 3.38 2s-.49.66-.95.75a19.53 19.53 0 0 1 -3.06 0c-.46-.09-1.78-.63-1.72-1.87.01-.25.43-1.02 2.35-.85zm-2.52 2.26c.31-.1.51.83 2.29 1.06s3.32 0 3.44.12a.58.58 0 0 1 0 .46 6.32 6.32 0 0 1 -2.53.22 6.61 6.61 0 0 1 -2.8-.68c-.35-.23-.52-.23-.55-.43s-.02-.69.15-.75zm3.61.2c.51 0 .63 0 .66-.23s-.09-.25-.32-.31-1.46 0-1.6-.46.34-.54.68-.46.78-.23.46-.31a2.32 2.32 0 0 0 -1.23-.32c-.57.09-1.52.8-.89 1.35a3.73 3.73 0 0 0 2.24.74zm-5.48 3.93c.71-.23 1.31-1.23-1.44-1.49-1.05-.1-1.2.51-.77.89a2.79 2.79 0 0 0 2.21.6zm-5 .8a6 6 0 0 0 3.53 2.23 9.69 9.69 0 0 0 4.75.35c.58-.14.52-.63.6-1.2a15.22 15.22 0 0 0 -.05-2.58 7.52 7.52 0 0 0 -3.1-2.21 7.89 7.89 0 0 0 -3.26-.72 5.23 5.23 0 0 0 -2.21 1 1.34 1.34 0 0 0 -.4 1.26c.05.44-.01 1.67.14 1.87zm2.44-3.47a8.17 8.17 0 0 1 4.56 1.41c1.55 1.11 1.32 1.54 1 1.8s-1.43.46-4.15-.06-3.15-1.54-3.24-1.89 1.01-1.3 1.79-1.26zm-1.75 2.3a9.74 9.74 0 0 0 3.11 1.54 36.15 36.15 0 0 0 4 .43 3.33 3.33 0 0 1 0 1.35 8.66 8.66 0 0 1 -4-.43c-2.32-.77-3.12-1.66-3.15-1.92s-.17-.95 0-.97zm20.11-3c.2 0 .2-.17.29-.31s-5.39-5.62-5.76-5.62-.51.56-.46.69a54 54 0 0 0 5.89 5.28zm5.07-1.83c.18-.09.12-.11.09-.29a50.94 50.94 0 0 0 -6.33-4c-.37.06-.7.61-.55.75a43.88 43.88 0 0 0 6.75 3.58zm3.3-2.26c.17 0 .23-.23.23-.43a36.68 36.68 0 0 0 -5.5-2.78c-.38 0-.75.45-.46.69s5.56 2.56 5.69 2.56zm-5.82-9.06c-.16.14.17.78.09 1s-.15.43.06.4.51-.09.54-.37a2.75 2.75 0 0 0 0-.86c-.13-.24-.56-.27-.73-.13zm4.19-2.17c-.21 0-.46.28-.41.46a4.2 4.2 0 0 1 .18.83c0 .11.17.17.34.11a.35.35 0 0 0 .29-.4 1.26 1.26 0 0 0 -.09-.63c-.15-.25-.15-.33-.35-.33zm3.26-1.72c-.14-.12-.49.06-.51.14a3.84 3.84 0 0 0 .14 1.09 2.82 2.82 0 0 1 0 .54.47.47 0 0 0 .43-.14c.2-.2.31.06.2-.43s-.16-1.05-.3-1.16zm1.89.26c0 .14.49-.06.6-.18s.09-.31 0-.91-.29-.83-.4-.83a.69.69 0 0 0 -.43.2l.2.54a3.72 3.72 0 0 1 -.01 1.22zm-2-4c.48.45.45 1.23.6 1.29s.37-.18.46-.29a1.38 1.38 0 0 0 -.2-1 1.94 1.94 0 0 0 -.95-.89c-.29-.09-.77.22-.74.43s.3 0 .79.46zm8.25-8.26c1.14-.08 2-.65 1.4-1.86a1.71 1.71 0 0 0 -2.55-.43c-1.21 1.12-.04 2.38 1.11 2.29zm-.44-1.69c.16-.14.73-.28.94.16s-.09.66-.52.69-.92-.43-.46-.85zm-19.79-.31c.19.06 10.29-6.19 10.62-6.42s-.12-.66-.4-.83-10.86 6.13-10.86 6.5a1.2 1.2 0 0 0 .6.75zm5.42-.12c.22-.05 9.45-4.67 9.68-4.92s-.06-.75-.29-.81-10 5.1-10 5.1c-.24.21.34.69.57.63z" fill="#fff"/></svg>