<svg height="64" viewBox="0 0 64 64" width="64" xmlns="http://www.w3.org/2000/svg"><g fill="#fff"><path d="m59.12 37.88c-.75-.1-8.76-.07-8.76-.07a36.29 36.29 0 0 0 1.26-4.13c.46-2 .93-4.81.93-4.81a5.62 5.62 0 0 0 2.8-.46c.93-.61 1.51-2.41 1.51-4.53a3.28 3.28 0 0 0 -2.7-3.26c-1-.22-8.29-.61-8.29-.61s.36-1.19.86-3.49 1-5.85 1-5.85a5.33 5.33 0 0 0 1.72-.14 16 16 0 0 0 2.23-4.6c.18-1.15-.15-2.55-.68-2.69a31.21 31.21 0 0 0 -8.22-1.18c-5.5-.25-16.88-.08-22.23.28s-8.9 1.08-9 1.48a35.23 35.23 0 0 0 .61 6.39c.25.46 1.86.43 1.86.43a34.92 34.92 0 0 0 .83 4c.61 2.3 1.8 6 1.8 6s-6.11 0-8 .07-2.66 1-2.91 1.8a12.15 12.15 0 0 0 .94 5.13c.5.76 2.4.68 2.4.68s.32 1.88 1.36 5.68 3.56 5 3.56 5-8.51-.07-9.16.14-1.47 1.86-1.47 3.23.47 4 1.08 4.56 2.69.65 2.69.65 1.61 7.42 2.19 9.26 1.15 3.41 2.91 4.16 6.06.72 10.08.86 21.58.33 23.7.07 5.38-.32 5.7-.68a12 12 0 0 0 2.91-5.2c.94-3.23 2.08-9.44 2.23-9.37a6.65 6.65 0 0 0 2.44-.25 18.38 18.38 0 0 0 1.33-5.93c.07-2.22-.76-2.5-1.51-2.62zm-45-31.7c-.4.18-.43 1.15-.29 1.44a5.2 5.2 0 0 1 .21 2 3.45 3.45 0 0 1 -.78-.11 48.7 48.7 0 0 1 -.47-4.95c.14-.22 3.55-1 10.12-1.22s19.71-.18 23.84.11 3.84 1 3.88 1.47-1.17 4.24-1.63 4.32a3.54 3.54 0 0 1 -1-.08s.18-3.12-.21-3.77a1.8 1.8 0 0 0 -1.47-.93c-.73-.11-10.79.36-19.32.54s-12.54 1-12.93 1.18zm2.22 5.14c-.79-3.84-1-4.31-.72-4.45s7.17-.65 15.61-.87 15.36-.5 15.43-.11-.54 6.14-.79 6.25a1.32 1.32 0 0 1 -.68 0s-.57-2.26-1.79-2.41a2.62 2.62 0 0 0 -2.09.87s-.5-1.3-1.65-1.19a3.21 3.21 0 0 0 -2 1.26 2.92 2.92 0 0 0 -2.34-1.19 7 7 0 0 0 -2.9 1.4s-.29-1.86-1.22-2-5.32.72-8.3 1.33-3.91 1.14-4 1.72a30.44 30.44 0 0 0 .86 6c.44 1.44.47 1.58 1.05 1.69s2.08.21 2.15.43-4.45.07-4.45.07-1.43-4.96-2.22-8.8zm13.25 7.93a4.71 4.71 0 0 0 1.94-.9 7.58 7.58 0 0 0 .82-2.47 5 5 0 0 0 1.3 2.58c.93.68 1.79 1 1.83 1.11s-.22.26-.36.26h-5.6zm-8.11-.68s-1.08-6.43-.79-6.61 5.67-1.32 7.53-1.68 2.88-.36 2.91 0-.54 8.07-.75 8.18-8.56.54-8.95.11zm13.24-.47a5 5 0 0 1 -1.72-3 14 14 0 0 1 .11-3.37c.41-.55 2-1.54 3.19-.93s1.47 1.9 1.44 3.3-.18 2.37 0 2.48a2.46 2.46 0 0 0 .75.1 15 15 0 0 0 .18-2.8c0-2.22-.07-2.83.14-3s1.55-.76 1.84.14a13.93 13.93 0 0 1 -.33 4.56c-.21.83-.75 1.62-.57 1.8s.5.28.64.17a3.57 3.57 0 0 0 1.3-2.69 26.59 26.59 0 0 1 .31-3.65c.11-.14 2-.83 2 .5a10 10 0 0 1 -1.44 5.42c-1.28 1.8-2.22 1.87-2.97 1.87s-3.77.07-4.92-.9zm8.26.07c1.15-1.32 1.47-2 1.61-1.9a.22.22 0 0 1 .15.25c0 .11-1.19 3.16-1.19 3.16a10.63 10.63 0 0 1 -2.29-.11s.52-.07 1.67-1.4zm-34.37 6.57c-.25.4.22 2.09.07 2.16a5.56 5.56 0 0 1 -1.36-.15c-.11 0-.58-3.76-.25-4s3.08-.89 10-1 10.41-.4 19-.54a128.18 128.18 0 0 1 17.63.72 2.45 2.45 0 0 1 2 3.3c-.61 2.08-1.25 2.08-1.86 2.26a1.83 1.83 0 0 1 -1 .07s.57-3.05.1-3.37-3.37-.79-10-.75-23.73 0-27.1.25-6.98.66-7.23 1.05zm2.55.65c.14 0 .86-.57 8.79-.83s20.9-.25 25.06-.1 6.61.32 6.57.54a11.18 11.18 0 0 1 -.58 1.9 12.36 12.36 0 0 0 -3.45-.43c-1.54.14-4.81 1.22-6.35 1.5a4 4 0 0 1 -3.27-.43c-.93-.57-1.4-1.29-3.08-1.22a21.7 21.7 0 0 0 -5.39.94 10.79 10.79 0 0 1 -4.34.64c-1.73-.07-5.28-1.76-6.68-2a6.14 6.14 0 0 0 -3.7.29c-1.29.53-3.41 1.61-3.41 1.61a14 14 0 0 1 -.17-2.41zm1.72 8.61a13.09 13.09 0 0 1 -1.15-5s3.7-2.08 5.64-2 5.13 1.69 7.25 2 5.17-.68 6.79-1 2.94-.71 4.52-.25 2.26 1.33 3.77 1.51 5.53-1.26 7.3-1.46a9.39 9.39 0 0 1 3.59.46s-.65 3-1.47 5.89-1.24 3.77-1.42 3.85-10.44.61-18.13.79-11-.07-12.52-.5-2.98-1.7-4.17-4.29zm-.88 22.19c-.18-.25-.4-1.43-.25-1.47s2.4-1.9 4.31-1.51 1.79 1.15 3.69 1.55a35.18 35.18 0 0 0 4.1.53 3.14 3.14 0 0 1 -1.19 1.33c-.79.43-1.33.86-4.95.76s-5.58-.94-5.71-1.19zm23.3-7.75a4.68 4.68 0 0 1 2.87-.22c1.72.36 2.51.72 2.76 1.19s-.89 1.4-2.15 1.68-2.37.29-3.2.51-.71.32-1.25.32a1.15 1.15 0 0 1 -.79-.25s1.9-.76 1.86-1.8a11.33 11.33 0 0 0 -.15-1.43zm-7.66 7.36-1.64-.08a7 7 0 0 0 -1.47.08v-.87a5.4 5.4 0 0 0 3.08-1.14c1.3-1.12 1.15-2.09 1.15-2.09a7.2 7.2 0 0 0 1 .29 5.4 5.4 0 0 0 1 .11s-2.41 1.36-2.84 2.26a1.9 1.9 0 0 0 -.28 1.44zm4.88-2.8c2.12.11 3 1.51 2.8 2s-1.33 1.25-3.7 1-2.62-1.35-2.62-1.35c-.07-.4 1.4-1.8 3.52-1.65zm2.4-.5a8.13 8.13 0 0 0 2.52 0 3.23 3.23 0 0 1 -.61.43 3.47 3.47 0 0 0 -.83 1.14 4 4 0 0 0 -.32-.64c-.29-.43-1.05-1.07-.76-.97zm1.76 2.62a9.66 9.66 0 0 1 1.69.43c.25.07.22.18 0 .25a7.67 7.67 0 0 1 -2.37-.22s.29-.5.68-.5zm.83-1.44c.08-.31.93-1.51 4.49-1.43s4.2 1.5 4.12 2-1.12 1.12-4.23 1.15-4.56-1.04-4.38-1.76zm9.33-.32a6.75 6.75 0 0 0 -1.47-1.87s1.51-.11 1.65.07.14.61.58.65a32.6 32.6 0 0 1 4.16.22 1 1 0 0 1 .5 1.25c-.25.4-2.4 1.19-3.48 1.55a10.73 10.73 0 0 1 -2.69.35s1.4-1.08.75-2.26zm-2.84-2.59c-1.8 0-2.12-1.15-1.66-1.61s1.27-1.66 1.66-1.69a4.8 4.8 0 0 1 3.34.75c.82.79 1.25 1.4 1 1.76s-2.54.79-4.34.79zm-1.51.43s-1.33 0-2 0c0 0 .86-.15 1.08-.65zm-11.49.04c-2.36 0-3.15-1.26-4-1.51a5.47 5.47 0 0 0 -1.76-.29c-.32 0-1-.39-.9-.5s1.47-2 5.28-1.72 4.38 1.61 4.38 2.19-.66 1.83-3 1.83zm-3.37.82c0 .61-1.44 1.76-5 1.8s-4.51-1.12-4.69-1.86c-.11-.47 2.73-2.12 4.85-2.16s4.85 1.61 4.81 2.22zm-4-3.77c-.29.4-2.69.43-4.88 1.44a6.9 6.9 0 0 0 -2.75 2.27c-.18 0-3.09 0-3.2-.83a6 6 0 0 1 4.78-3.84c3.42-.58 6.36.57 6.07.96zm-2.31 11.31s-5.57-.07-6.82-.21-1.55-.33-1.73-.54-.53-1.55-.28-1.55a12.35 12.35 0 0 0 3 .87c1.79.21 5.92-.11 5.92.1s-.09 1.33-.09 1.33zm11.52-.11c-.21.15-9.94.33-10.3.25s-.65-1.75 0-2.15a6.39 6.39 0 0 1 4.16-.36 7.36 7.36 0 0 1 2.55 1.77c.15 0 .5-.68.5-1s-1.36-1.47-1.86-1.65l.93-.22a10.22 10.22 0 0 0 2.55 1 7.14 7.14 0 0 0 1.51.22s.18 2-.04 2.14zm4.35-.36c-.15 0-3-.5-3.09-1.07s.46-1.26 3.12-1.33 4.67.36 4.63 1-1.72 1.27-2.15 1.44a8.54 8.54 0 0 1 -2.51-.04zm7.39-.93a2.73 2.73 0 0 0 1 1.29s-2.62 0-4.81-.07c0 0 2-.5 2.08-1.22a2.86 2.86 0 0 0 -.64-1.61 2.85 2.85 0 0 1 1.65-.18 5 5 0 0 1 1.79.43s-1.43.46-1.07 1.36zm6.78.32a4.69 4.69 0 0 1 -3.08.72 8.54 8.54 0 0 1 -2.44-1.68 15.83 15.83 0 0 0 2.9-.94c1.8-.86 3.74-1.79 3.74-1.47s-.36 2.66-1.12 3.37zm1.64-6.24c-.18 0-.94-1-2-1s-3.41.11-3.41.11 1.8-.61 1.87-1.61a2.48 2.48 0 0 0 -.18-1.4s1.11-.51 1.43-.22.29 1.72.79 2.12a12.56 12.56 0 0 1 1.55 1.43c.11.14.15.57-.05.57zm.39-1.11s-1.15-1.62-1.33-1.94-.61-1.94-1.36-2.23-2.37.83-2.37.83-.11-1.62-2.37-1.76-5.19 1.93-5.19 1.93a6.29 6.29 0 0 0 -3.41-1.3 4.73 4.73 0 0 0 -2.94 1.3 6.37 6.37 0 0 0 -4.92-2 14.75 14.75 0 0 0 -5.42 1.19s-.93-1.55-5.49-1-6.82 4.45-6.71 5.2 1.18 1.26 1.18 1.26-1.54 1.25-1.9 1.07c0 0-1.11-3.59-1.62-6.31s-.93-3.78-.54-3.93 8.62-.25 20.47-.25 26-.86 26-.54-2.06 8.48-2.06 8.48zm6.07-10.09a16.91 16.91 0 0 1 -1.08 4.34 5.42 5.42 0 0 1 -1.29.07 23 23 0 0 0 .14-3.66c-.18-.36-1-.68-1-.68s-14.15.57-22.19.83-18.31.14-21.39.25-6 .07-6.21.39a19.15 19.15 0 0 0 .28 3.77 3.33 3.33 0 0 1 -1.47-.14c-.39-.25-1-2.73-.79-3.84s0-2 1.15-2.16 16-.07 28.76-.46 23.4-.61 24.23-.54.91.54.88 1.83z"/><path d="m22.36 12.93c.48-.48 2.48-.79 2.58.72a1.54 1.54 0 0 1 -2.08 1.58 1.46 1.46 0 0 1 -.5-2.3z"/><path d="m30.58 14.55c-.29-1.87-2.75-1.59-3.41-1.44-.93.22-2.37 2.66-.43 3.88a2.53 2.53 0 0 0 3.84-2.44zm-3.2 1.65c-1.08-.68-.28-2 .24-2.17.37-.08 1.74-.24 1.9.8a1.41 1.41 0 0 1 -2.14 1.37z"/><path d="m19.92 29.73c-.83-1.14-3.48-.28-3.81.15-.86 1.15.11 2.51 1.65 2.37s2.98-1.37 2.16-2.52zm-1.92 1.44c-.75 0-1.11-.61-.57-1a1.37 1.37 0 0 1 1.4.07c.26.21-.1.93-.83.93z"/><path d="m22.57 34.29c.31-.21 1.62-.46 1.91.51a1.29 1.29 0 0 1 -1.8 1.54c-1.25-.43-.79-1.58-.11-2.05z"/><path d="m32 29.66c-.47.25-3.05 2.26-1 3.23s3.16-1.07 3.23-2.08-1.51-1.55-2.23-1.15zm-.14 2.19c-.47-.21-.29-.93.46-1.18a.62.62 0 0 1 .76.64c-.08.43-.78.76-1.24.54z"/><path d="m39.91 33.5c.66-.17 2.73-.07 3 .65s-.79 3-3.55 2.05-.13-2.52.55-2.7z"/><path d="m46.48 29.73c.4-.27 1.4-.39 1.65.11a1.17 1.17 0 0 1 -1.25 1.47.86.86 0 0 1 -.4-1.58z"/></g></svg>