<svg height="64" viewBox="0 0 64 64" width="64" xmlns="http://www.w3.org/2000/svg"><path d="m14.42 28.39c-.48-.09-1.54.92-3.44 3.89a9.47 9.47 0 0 0 -1.15 6.49c0 .13 1.15.09 1.15-.4a16.25 16.25 0 0 1 .61-4.55c.67-2.52 3.41-4.73 3.41-4.73s-.09-.61-.58-.7zm14-.4c-1.11.79-3.27 6.1-3.1 11.36a20.39 20.39 0 0 0 3.1 9.81c.17.13.13.08.48-.18s-2.08-4.82-2.25-10.34a18.76 18.76 0 0 1 2.69-9.86c.15-.48-.63-1.02-.95-.78zm19.09-1.11s-.94.42-.8.71.53.13 3 2.25a5.88 5.88 0 0 1 1.83 5.16s.35.31.62.18.4-2.26-.84-5.22a4.64 4.64 0 0 0 -3.84-3.08zm-19-16.61s.17 1 .57 3.23a40.26 40.26 0 0 1 .31 5.83c.05.48.09.17.49.17s.26-1.23.44-4.24-.44-4.95-.71-5.21-.92.13-1.09.22zm5-.49a28.21 28.21 0 0 0 -.93 5.88 28.58 28.58 0 0 0 .53 6.54c.18.31.45.22.53.09s.09-.89-.08-4.95a25.72 25.72 0 0 1 1.06-7.47c-.05-.44-1.11-.09-1.11-.09zm24 17.55c-3.38-4.18-8.62-5.11-14.19-7.56s-4.11-5.7-3.91-9.35 3-7.49 3.12-7.82-.34-.66-1-.66-1.53 1.13-2.12 1.39-1.41-.73-2.72-.86-1.85 1.19-2.78 1.39-.46-1.26-1.79-1.72-3.25 2.05-3.45 2.19-.39.19-1.06-.34a5.86 5.86 0 0 0 -3.61-1.25c-1.46.06-2.18.33-2.45 1.12s1.9 3.76 3.31 7.82-.86 6.52-2.09 7.25c-4.64 2.74-8 2.83-12.72 5.08s-6.9 8.09-7.05 14.65 3.07 10.61 9.5 14.34a25.1 25.1 0 0 0 13.59 3l-1.09 2.41a3 3 0 0 0 -.2 2.12c.27.73.86.73 1.59.73s2.19-1.59 2.72-1.85.46 1.32.6 1.79.53.79 1.39.86 2.19-1.79 2.72-1.92.92 1.26 2.12 1.59 1.39-.33 2.12-.67 1.06 0 1.46-.13.2-.26.46-1.26-1.79-3.11-1.79-3.11 1.59-.27 2.59-.4a38.31 38.31 0 0 0 8.57-2.16c4.31-1.59 9.81-5.7 11.07-10.67s.47-11.83-2.91-16zm-30.36-22.63c.35.4 1.5 1.11 1.94.8s2.39-2.21 2.74-2.08.75 1.58 2.17 1.5 1.68-1.46 2.7-1.37 1.24.75 1.72.71.75-.22.62.35-.49 1.11-.71 1.11-.88-1-1.37-.71-3 2.83-3.71 2.61-1.1-2.12-2.12-2-.84-.14-1.19.48-.75 1.5-1.11 1.11a19.43 19.43 0 0 0 -3.31-2.79 2.62 2.62 0 0 1 1.63.28zm11.31 54.8a15.73 15.73 0 0 1 -1.86 1 1.15 1.15 0 0 1 -1.37-.18c-.13-.26-.66-1.86-1.32-1.77s-2.39 2.45-2.74 2.45-.62-.18-.57-.4-.18-2.08-.76-2.39a1.38 1.38 0 0 0 -1.45.09c-.31.22-1.9 2-2.39 2s-.18-1.77.13-2.43a8.38 8.38 0 0 1 1.77-2.35 14.27 14.27 0 0 1 2.7-.08c1.9 0 3.13-.14 3.62-.18s.57 0 .79.22a6.59 6.59 0 0 1 2 1.37c.99 1.01 1.85 2.38 1.45 2.65zm19.37-20.12a5.09 5.09 0 0 0 -1.78-1.14.86.86 0 0 0 -.62.93 16.2 16.2 0 0 0 2 2.19 11.47 11.47 0 0 1 -.58 1.51 38 38 0 0 0 -3.26-3.22c-.22 0-.79.62-.79.84s2.36 2.64 3.32 3.7a14.32 14.32 0 0 1 -.84 1.2 30.36 30.36 0 0 0 -3.76-3.75 1 1 0 0 0 -.71.8 35.12 35.12 0 0 0 3.7 3.85c-.33.35-.69.69-1.07 1a36.79 36.79 0 0 0 -3.51-3.86c-.27-.13-.89.45-.89.76a41.91 41.91 0 0 0 3.32 3.94c-.41.29-.85.56-1.31.83-.73-.96-3.05-3.65-3.05-3.65s-.84.27-.84.84 1.77 2.55 2.59 3.5c-.37.18-.76.35-1.16.51a16.13 16.13 0 0 0 -2-2.6.73.73 0 0 0 -.88.53 9 9 0 0 0 1.45 2.57l-.61.22-.6.18a8.18 8.18 0 0 0 -1.52-2c-.27-.09-.53.26-.71.62s.55 1.22 1 1.75c-3.88 1.11-6.07 1.36-6.26 1.21s5.52-5.22 4.77-15.34-5.43-14.3-6.05-14.53-1.86.62-1.55 1.55 4.29 3.23 4.51 11.27v3.27a14.64 14.64 0 0 0 -2.86-1.64c-.22.09-.31.76-.09 1.15a21.12 21.12 0 0 0 2.81 2.11c0 .59-.11 1.14-.18 1.66a22.79 22.79 0 0 0 -3.66-2.14c-.31 0-.48.53-.31 1a27.7 27.7 0 0 0 3.73 2.79 15.24 15.24 0 0 1 -.45 1.63 25.87 25.87 0 0 0 -3.94-2.83c-.4-.09-.44.53-.44.92s2.87 2.48 3.86 3.21a11.53 11.53 0 0 1 -.87 1.55 23.56 23.56 0 0 0 -3.88-2.72c-.3 0-.39.4-.39.7a27.73 27.73 0 0 0 3.55 3l-.15.19c-.34.43-.62.78-.87 1.08a10.57 10.57 0 0 0 -2.58-1.7c-.26 0-.57.71-.48 1.06a10.05 10.05 0 0 0 2.18 1.66 1.82 1.82 0 0 1 -1.26.77 24 24 0 0 1 -5.21-.22c-.31-.22-5.13-3.62-6.23-8.39s-1.1-11.45.71-14.76 4.11-3.8 4.15-4.51a1.63 1.63 0 0 0 -1.37-1.5c-.57 0-3 1.06-4.73 4.33a22.59 22.59 0 0 0 -2.18 14.07 22.51 22.51 0 0 0 4.73 10.12c1 1.11 1.37 1.06 1.14 1.24s-2.16 0-6.58-.88-9.57-3.94-11.07-7.65-1.77-10 .62-13.48 6.8-5.34 9.9-6.45 8.3-2.6 9.36-6 0-6.94-1.1-9.37-1.72-3.54-1.72-3.54a1.26 1.26 0 0 1 1.23.31c.49.49 3 3.05 3.72 2.88s1.5-2.35 1.81-2 2 2.61 2.65 2.43a1.39 1.39 0 0 0 .88-.88 19.48 19.48 0 0 1 2.3-1.81c.35-.09.62.44.62.44s-1.59 6.81-.58 10.12 5.93 5.83 9.68 7.25 8.44 3.49 10.25 8.3a14.57 14.57 0 0 1 .99 7.02z" fill="#fff"/></svg>