<svg height="64" viewBox="0 0 64 64" width="64" xmlns="http://www.w3.org/2000/svg"><path d="m51.07 17.16c-.2-1.79-2.09-3.92-2.09-3.92a2.51 2.51 0 0 0 1.1-.86c.23-.5.49-5.45-.44-6.28s-7.84-3.69-10.39-3.95a108.63 108.63 0 0 0 -16.61.23 18.15 18.15 0 0 0 -8.77 3.89 58.39 58.39 0 0 0 0 5.91c.1.3 1.89 1.37 1.79 1.4-1.62.43-2.55 2.59-2.75 3.92s.16 16.91.09 21.5-.46 13.42.57 15.68 3.82 4.15 7.77 5.71 11.76 2.23 16.84 1.26 9.27-3.15 10.6-4.55 1.73-3.12 2-5.41.49-32.69.29-34.53zm-24.28-13.08c6-.17 12.56-.3 16.38 1s4.88 2.48 4.83 2.85-4.39 2.29-11.1 2.46a58.26 58.26 0 0 1 -15.63-1.39c-3.25-.9-3.92-1.2-3.88-2.26 0-.27 3.39-2.5 9.4-2.66zm-11.13 7.3c-.34-.4-.07-4.18.07-4.31s.3-.3.4-.17 1.69 3.06 9.1 3.85 12.79.83 16.61.07a54.75 54.75 0 0 0 6.61-2 9.23 9.23 0 0 1 0 2.29 29.14 29.14 0 0 1 -9.07 3.72c-4.42.87-14 0-16.48-.46s-6.54-2.16-7.24-2.99zm31.34 9.34a9.85 9.85 0 0 0 2.21 1v1.49a14.54 14.54 0 0 0 -2.56-.91c-.3 0-.2.73-.16.89a20.33 20.33 0 0 0 2.7 1.37v1.5a24.69 24.69 0 0 0 -3.45-1.9c-.3 0-.36.69-.36 1.09s3.28 2.14 3.79 2.42v2a21.22 21.22 0 0 0 -3.27-1.75c-.24 0-.34.7-.27.89s3 1.93 3.52 2.27v1.59c-1-.71-3.2-2.13-3.2-2.13a6.45 6.45 0 0 0 -.37 1.07 36.92 36.92 0 0 0 3.56 2.57v2.38a28.13 28.13 0 0 0 -3.43-2.53c-.36-.1-.29.8-.26 1a41.79 41.79 0 0 0 3.55 2.97v1.73a20.13 20.13 0 0 0 -3.6-2.08.93.93 0 0 0 -.09.93 26.62 26.62 0 0 0 3.69 2.76v2a29.57 29.57 0 0 0 -4-2.9c-.27.07-.23.8-.17 1.07s3.04 2.49 4.17 3.34v2a38 38 0 0 0 -4-2.5c-.24 0-.47.56-.4.86a43.33 43.33 0 0 0 4.37 3.18v1.59a45.06 45.06 0 0 0 -4.17-2.84c-.23 0-.36.4-.36.8s3.17 2.52 4.47 3.41a11.19 11.19 0 0 1 -.23 1.37 48.19 48.19 0 0 0 -4.11-3c-.26-.07-.53.33-.6.8s3 2.59 4.27 3.45a7.68 7.68 0 0 1 -.69 1.21 29.41 29.41 0 0 0 -4.14-3c-.33 0-.57.63-.5 1s2.65 2.14 3.79 2.93a5.81 5.81 0 0 1 -.6.49q-.32.23-.75.48a18.54 18.54 0 0 0 -3.85-2.78c-.43-.06-.73.7-.79.9a22.43 22.43 0 0 0 3.17 2.63 26.47 26.47 0 0 1 -10.88 2.25c-6.11 0-11.43-1.16-14-3s-3.77-3.08-3.9-5.08-.2-33.29.1-34.35a3.69 3.69 0 0 1 3.18-2.82 37.92 37.92 0 0 0 14.19 2.27 43.57 43.57 0 0 0 14.78-3.1c.26 0 1.87 1 1.9 6.19a9.53 9.53 0 0 0 -2.3-.67c-.26.07-.1.93.05 1.2zm-28.24.73c-.1.23-.13 19.17 0 19.63s.93.07 1.13-.2-.14-19-.2-19.36a.52.52 0 0 0 -.91-.07zm8.74 28a18.38 18.38 0 0 0 -6.64 2.13c-.24.17.13.73.59.76s2.79-1.36 7-1.86a26.32 26.32 0 0 1 7.94.4c.2 0 .2-.53 0-.93s-5.65-.73-8.87-.5z" fill="#fff"/></svg>