<svg height="64" viewBox="0 0 64 64" width="64" xmlns="http://www.w3.org/2000/svg"><path d="m20.91 32.28a5.67 5.67 0 0 0 3 .93c.24-.07.37-.69.31-1s-1.06-.37-2.36-1.06-1.74-1.94-2-2.08-.82.11-.82.44a4.82 4.82 0 0 0 1.87 2.77zm-1.4 6.29a4.41 4.41 0 0 0 3.45.92c.37-.07.37-.65.34-.82a20 20 0 0 0 -2.53-1.2 3.54 3.54 0 0 1 -1.94-2c-.14-.2-.21-.33-.58-.27-.21 0-.41.24-.45.75s-.06 1.39 1.71 2.62zm4.17 8.32a18 18 0 0 1 -3.35-1.26 9 9 0 0 1 -3.41-3.41c-.14-.21-1.14-.19-1.16.13 0 .48.68 2.5 3.07 4.13a7.41 7.41 0 0 0 4.81 1.52c.24-.12.1-.9.04-1.11zm7.85-26.76c0-.17 1.5-.37 1.7-.68a1 1 0 0 0 -.17-1.09c-.2-.17-2.66.44-2.83.89a18.64 18.64 0 0 0 .07 3.14c0 .2 1 .27 1.19.1s0-2.19.04-2.36zm1.16 3.72c-.17.31-.34 1.23.61 1.27a.83.83 0 0 0 .89-1.23 1 1 0 0 0 -1.5-.04zm4.64.31a.84.84 0 0 0 .89-1.23 1 1 0 0 0 -1.51 0c-.17.28-.34 1.2.62 1.23zm3.67-1.09a.83.83 0 0 0 .89-1.23 1 1 0 0 0 -1.5 0c-.16.27-.33 1.16.61 1.23zm3.36-1.07a.83.83 0 0 0 .89-1.23 1 1 0 0 0 -1.5 0c-.18.23-.35 1.17.61 1.23zm-.89 4.43a.83.83 0 0 0 .89-1.22.94.94 0 0 0 -1.5 0c-.17.25-.34 1.17.61 1.2zm-3.89 1.3a.83.83 0 0 0 .89-1.23 1 1 0 0 0 -1.5 0c-.17.26-.34 1.18.61 1.21zm-3.75.82a.83.83 0 0 0 .88-1.23 1 1 0 0 0 -1.5 0c-.21.25-.34 1.18.62 1.21zm-2.9-.1a1 1 0 0 0 -1.51 0c-.17.31-.34 1.23.62 1.27a.84.84 0 0 0 .89-1.29zm1.16 2.63c-.17.3-.35 1.22.61 1.26a.83.83 0 0 0 .89-1.23 1 1 0 0 0 -1.5-.05zm5.46-1a1 1 0 0 0 -1.5 0c-.18.3-.35 1.23.61 1.26a.83.83 0 0 0 .89-1.24zm2.15-1.3c-.17.31-.34 1.23.61 1.27a.83.83 0 0 0 .89-1.23 1 1 0 0 0 -1.5-.02zm3.3-.9c-.17.31-.34 1.23.62 1.26a.83.83 0 0 0 .89-1.22 1 1 0 0 0 -1.51-.04zm.93 3.76c-.18.3-.35 1.23.61 1.26a.83.83 0 0 0 .89-1.23 1 1 0 0 0 -1.53-.03zm-1.57.92a1 1 0 0 0 -1.51 0c-.17.31-.34 1.23.62 1.27a.84.84 0 0 0 .86-1.27zm-4.16 2.52a.82.82 0 0 0 .88-1.22.94.94 0 0 0 -1.5 0c-.17.27-.34 1.19.62 1.22zm-4.82-.08c-.17.3-.34 1.23.62 1.26a.83.83 0 0 0 .88-1.26 1 1 0 0 0 -1.5 0zm-2.05 1.19a1 1 0 0 0 -1.5 0c-.17.3-.34 1.23.62 1.26a.83.83 0 0 0 .88-1.31zm.67 3.06c-.17.31-.34 1.23.61 1.26a.83.83 0 0 0 .89-1.23 1 1 0 0 0 -1.5-.03zm3.41-1.2c-.17.31-.34 1.23.62 1.27a.83.83 0 0 0 .88-1.23 1 1 0 0 0 -1.48-.04zm4.2-1.26c-.17.31-.34 1.23.61 1.26a.83.83 0 0 0 .89-1.23 1 1 0 0 0 -1.48-.03zm4.95-1.4a1 1 0 0 0 -1.5 0c-.17.3-.34 1.23.61 1.26a.83.83 0 0 0 .91-1.26zm1.53 3a1 1 0 0 0 -1.5 0c-.17.3-.34 1.23.62 1.26a.83.83 0 0 0 .9-1.29zm-3 1.47a1 1 0 0 0 -1.5 0c-.17.31-.34 1.23.62 1.27a.83.83 0 0 0 .93-1.3zm-3.89 1.3a.94.94 0 0 0 -1.5 0c-.17.31-.34 1.23.62 1.26a.82.82 0 0 0 .93-1.29zm-3.92 1.22a1 1 0 0 0 -1.5 0c-.17.31-.34 1.23.61 1.26a.83.83 0 0 0 .94-1.29zm-3.69.75a1 1 0 0 0 -1.5 0c-.17.31-.34 1.23.61 1.26a.83.83 0 0 0 .94-1.29zm-.31 5.6a.83.83 0 0 0 .89-1.23 1 1 0 0 0 -1.5 0c-.12.25-.29 1.17.66 1.2zm5.12-2.52a1 1 0 0 0 -1.5 0c-.17.31-.34 1.23.62 1.27a.83.83 0 0 0 .93-1.3zm2.6-1.4c-.17.31-.34 1.23.61 1.26a.83.83 0 0 0 .89-1.22.94.94 0 0 0 -1.5-.04zm3.68-1.53c-.17.3-.34 1.22.62 1.26a.83.83 0 0 0 .88-1.23 1 1 0 0 0 -1.55-.03zm4.88-1.23a1 1 0 0 0 -1.56-.05c-.17.31-.34 1.23.62 1.27a.83.83 0 0 0 .89-1.22zm-1.31 3.65c-.17.31-.34 1.23.62 1.26a.83.83 0 0 0 .88-1.23 1 1 0 0 0 -1.5-.03zm-3.62 1.71c-.17.3-.34 1.22.62 1.26a.83.83 0 0 0 .88-1.23 1 1 0 0 0 -1.5-.03zm-3.75 1.74c-.17.3-.34 1.23.61 1.26a.83.83 0 0 0 .89-1.23 1 1 0 0 0 -1.5-.03zm-3.65 1.77c-.17.31-.35 1.23.61 1.26a.83.83 0 0 0 .89-1.18.94.94 0 0 0 -1.5-.08zm-4.34 1.78c-.17.3-.34 1.22.62 1.26a.83.83 0 0 0 .88-1.23 1 1 0 0 0 -1.5-.03zm22.11-4.38c-.14-1.32-3.23-15.11-4.83-23.58s-2.87-12.74-3.17-13.2-4.35-2.64-4.35-2.64.09-4.05 0-4.41-6.19-2.49-6.73-2.55-13.29 3.51-13.7 4.06-.36 5.18-.36 5.18-3.37 1-3.78 1.42-1.19 7.05-3.23 14.29-4.28 14.51-5 16.79a19.9 19.9 0 0 0 -.86 5c-.1 1 2.18 3 6.59 6s11.74 7.32 12.6 7.38 3.51-1.27 11.92-5.19 14.25-6.28 14.52-6.55.5-.68.38-2zm-12.67-37.32c0-.27-.09-.95.14-.91s2.5 1.23 2.23 1.5a9.79 9.79 0 0 1 -2.55.46l-.23-.64s.41-.18.41-.41zm-19.33-3.87c.23 0 3.82 2.46 3.78 2.87s-.05 5.55-.23 5.55a31.18 31.18 0 0 1 -3.82-2.05 32.83 32.83 0 0 1 .27-6.37zm-1.18 5.23c.09.28.09 1.05-.05 1.05a10.55 10.55 0 0 1 -1.23-.55c.36-.09 1.22-.77 1.32-.5zm5.41 45.39a3.88 3.88 0 0 1 -.14 1.44 64.53 64.53 0 0 0 -5.05-5.85.76.76 0 0 0 -.61.55 25.15 25.15 0 0 0 2.18 3.11c-1.65-1.09-3.74-2.48-5.9-3.88-4.77-3.09-6.37-4.14-6.55-4.51a1.21 1.21 0 0 1 -.16-1.07c.21-.36 3.28-10.37 5.1-17.16s2.9-15.74 3.3-15.83 6.87 2.86 7 3.27.59 22.3.77 29.45v1.41a4.89 4.89 0 0 0 -1.24-1c-.14 0-.31.48-.31.89s1.1 1.13 1.58 1.43v2.06a20.11 20.11 0 0 0 -2.47-2.68c-.24 0-.65.58-.65.82s2.28 2.62 3.15 3.63v2a51.54 51.54 0 0 0 -3.35-3.83c-.24-.14-.51.41-.55.75a53.53 53.53 0 0 0 3.94 5zm.18-48.75a25.48 25.48 0 0 1 -3.41-2.69c.16 0 11.74-3.5 12.15-3.32s5.37 1.73 5.1 1.91-6 1.64-9.56 2.73-4.01 1.46-4.28 1.37zm13.47 2.05a15.55 15.55 0 0 1 -3.46-1.78 14.66 14.66 0 0 1 -.18-1.54l-.06-.83c2.1-.6 3.77-1 3.83-.86a21.9 21.9 0 0 1 -.13 5.05zm-4.32-4-.23.74c-.18.13-.28.82-.28.82s-7.46 1.73-7.69 1.64.09-.69.09-.69 4.55-1.38 8.11-2.44zm-8.56 8.82c-.32-.23 0-4.14 0-4.14.18-.1 8-2.33 8.42-2.05s4.46 2.36 4.5 2.64-12.6 3.77-12.92 3.55zm24.44 32.86c-.09.36-8.15 3.86-13.88 6.5s-9.24 3.83-9.29 3.64-.09-21.11-.41-28.71-.5-12.47-.27-12.47 16.88-4.64 17.16-4.28 3.91 18.93 5.25 26.17 1.53 8.78 1.44 9.15z" fill="#fff"/></svg>