<svg height="64" viewBox="0 0 64 64" width="64" xmlns="http://www.w3.org/2000/svg"><path d="m43.92 22a7.72 7.72 0 0 0 -2.35-1.89c-.3 0-.9.84-.71.92.35.16 2.45 1.89 2.75 1.94s.39-.66.31-.97zm-.31 3.43c-.91-.67-1.35-1.06-1.63-.82a1.21 1.21 0 0 0 -.41 1c0 .2.51.31 1 .61s1.48 1.13 1.64 1.18.46-.26.56-.51-.24-.89-1.16-1.51zm3.89-6.75c.15-.25-.16-.66-1-1.17a4.29 4.29 0 0 0 -2.1-.61.88.88 0 0 0 -.36.66s1.08.46 1.38.56a16.15 16.15 0 0 0 1.59.87c.33.01.33-.1.49-.36zm-.5 3.78s-.77.57-.72.77.26.26.56.61a17.69 17.69 0 0 0 1.38 1.59c.16.05.56-.21.72-.57s-.26-.66-.87-1.43-.83-.91-1.07-.97zm15-13.28c.16-.61-3.16-3.62-3.62-3.62s-2.71 2.19-2.71 2.19l-2-1a3 3 0 0 0 0-.71 1.44 1.44 0 0 0 -1.07-1.2 11.8 11.8 0 0 0 -3.47-.36c-.36.11-1.43 1-2.5 3.63a23.31 23.31 0 0 0 -1.38 4.75 9.47 9.47 0 0 0 -1.23 0c-.41.05-.61.1-2.35 1.84s-7.05 9.14-7.05 9.14.11-11.74-.2-12.2-3.06-.52-5.26-.52-4.6 0-4.85.52a16.13 16.13 0 0 0 -.31 3.11s-.72-.15-2.3-.66a10.45 10.45 0 0 0 -9.7 1.17c-3.94 2.86-5.57 5.88-6 9.09a8.36 8.36 0 0 0 .87 5.32s-2 .2-2.86.2a2.81 2.81 0 0 0 -2 2c-.05.72 1.49 9.86 2.3 10.37s3.48.36 3.48.36 3.21 11.53 3.7 13.4 2.14 3.53 3.11 3.53 25.08-.26 27.74-.56a5.06 5.06 0 0 0 4.66-3.82c.76-2.24 2.76-12.1 2.76-12.1s2.19 0 2.75-.15a3.25 3.25 0 0 0 1.79-2.3 70 70 0 0 0 1.58-8.12c-.1-.36-.2-1.28-1-1.59s-7.45-.66-7.45-.66 5.82-5.37 6.64-7a3.65 3.65 0 0 0 -.46-3.42s6.39-3.93 6.61-4.81-1.33-2.41-1.33-2.41 3.01-2.79 3.16-3.41zm-8.48-1.38c.26.06 1.28.92 1.18 1.08a23.17 23.17 0 0 1 -2.86 2.6c-.21-.05-.72-.71-.72-.71a17 17 0 0 1 2.4-2.97zm-27 5.88c.17-.33 5.72-.31 5.78 0s.2 19.66-.11 19.87a53.79 53.79 0 0 1 -5.72 0s-.07-19.67.03-19.87zm-2.77 15.17a2.7 2.7 0 0 1 -1.84-1 2.46 2.46 0 0 1 .09-1.61c.19-.26 1.89-1 2-.61s.26 3.12-.25 3.22zm-2.3-3.73c-.31-.05-.82-.61-.57-1s1.84-4.12 2.35-4.12.67-.05.67.46a22.24 22.24 0 0 1 -.1 3.73 7.77 7.77 0 0 1 -2.35.93zm-13.85-2.86c1.49-3.52 4.5-7 8.38-7.51a10.82 10.82 0 0 1 7.02 1.25c.56.3 1 .61 1 .76s-.1 2.2-.1 2.2a1.06 1.06 0 0 0 -1.13.1 8.45 8.45 0 0 0 -1.38 1.18 3.52 3.52 0 0 0 -.51-2c-.56-.61-.46-.76-1.48-.81a12 12 0 0 0 -2.91.15c-.41.15-.51 1.28-.51 1.28a2.9 2.9 0 0 0 -2.09-.46 6.62 6.62 0 0 0 -3.07 2.45 2.14 2.14 0 0 0 0 2.09 10.14 10.14 0 0 0 1.23 1.06s-2.56-.06-2.86.56 0 3.06.2 4 .51 1.07.51 1.07l-1.9.04s-1.88-3.89-.4-7.41zm9 5.67c.41.15 1 .87.67 1.12a18.88 18.88 0 0 1 -4.29.31 11.62 11.62 0 0 1 3.61-1.43zm-5.51.77c-.18-.05-1.69-2.92-1-3.43s5.87 1 6 1.33-4.3 2.3-5.01 2.1zm.41-6.9c-.5-.8 2.39-2.8 3.26-2.55s2.65 5.1 2.34 5.51-4.64-1.58-5.61-2.96zm5.61-3.12c0-.46 2.56-.46 3.07.16s-.51 5.41-1.12 5.51-1.7-2.81-1.96-5.67zm.57 7.46a1.59 1.59 0 0 1 2.75.05c.46 1 .16 2.25-1.27 2.15s-2.06-1.18-1.49-2.2zm28.51 24a4 4 0 0 0 -1.71-.62 1.18 1.18 0 0 0 -.46.8 10.74 10.74 0 0 0 1.83 1.21c-.16.64-.31 1.22-.46 1.72a15.34 15.34 0 0 0 -2.25-1.47c-.31-.08-.84.84-.81 1a20.49 20.49 0 0 0 2.67 1.66 1.22 1.22 0 0 1 -.14.28c-.15.26-.29.48-.42.69a19.71 19.71 0 0 0 -2.68-1.57c-.5-.19-.69.46-.65.77a12.84 12.84 0 0 0 2.63 1.63 2.56 2.56 0 0 1 -1 .54 11.83 11.83 0 0 0 -1.88-1.06c-.27-.12-.61.26-.76.42s.25.5.54.8c-2.87 0-12.07.16-17.74.23-6 .08-7 .08-7.86-.34s-1.84-4.1-2.53-6.71l-2-7.47 19.16-.46c8.12-.19 18 .12 18 .31s-.67 4.18-1.49 7.63zm2-18.06c4 .25 5.21.35 5.26.71 0 .17-.33 1.9-.74 3.71a20.75 20.75 0 0 0 -2.17-1.77c-.25-.1-.61.56-.56.87a19 19 0 0 0 2.41 2.27c-.12.52-.24 1-.35 1.43a23.38 23.38 0 0 0 -3.24-2.83c-.3-.05-.86.2-.91.56s2.42 2.66 3.54 3.73l-1.62-.16a22.41 22.41 0 0 0 -3.41-3.67c-.3-.15-.81.2-.86.46a23.72 23.72 0 0 0 2.46 3.05c-3.42-.25-9.39-.54-18.5-.35-15.38.3-22.84.76-23.35.61s-1.68-6.39-1.89-7.15a1.11 1.11 0 0 1 .46-1.38c.16-.05 7.1-.31 11.24-.56s8.22-.31 8.22-.31-.1 2.81 0 3.27.67 1.38 2.4 1.48 4.86.05 5.88 0 2.25-1.07 2.25-1.94 0-2.81 0-2.81 9.52.51 13.5.77zm4.8-9.3a75.71 75.71 0 0 1 -7.1 7.05c-.41.2-3.93-.31-7.1-.41s-4.19-.15-4.19-.15v-3.95s1-1.17 1.28-1.07a5.93 5.93 0 0 1 1.33.61c.41.31.46.62.71.62s.67-.51.72-.67-.82-1.12-1.28-1.32-.92-.26-.92-.41 6.34-7.92 7.1-8.48a3.31 3.31 0 0 1 3.43.05 46.35 46.35 0 0 1 4.59 4.49c1.35 1.59 1.96 2.71 1.44 3.63zm6.13-8c-.25.31-5.77 4.09-6.13 3.88s-.41-.81-.41-.81 5.16-4.81 5.57-4.6 1.25 1.19.99 1.5zm-7.66 2.3a19.9 19.9 0 0 0 -3.22-3l-2.09-1.48s2.86-6.7 3.37-7 3.12.56 2.86 1.07-2.71 4.24-2.4 4.65 1.84 2 2.2 1.63 5.72-5.82 6.28-5.67 2 1.74 1.89 2.2-8.87 7.57-8.87 7.57zm-30.7 27.83c-.31-.15-5.07-.16-5.21.12s-.08 3 .34 3.25a15 15 0 0 0 4.94-.34 5.45 5.45 0 0 0 -.07-3.03zm-1 2.19a10 10 0 0 1 -3 .07 6.56 6.56 0 0 1 -.07-1.41 16.83 16.83 0 0 1 3.1 0c.12.24.21 1.24-.03 1.34zm12.68-2.53c-.19-.27-6.83-.13-7 0s-.35 2.79 0 3a55.33 55.33 0 0 0 6.7.07c.38-.08.49-2.8.3-3.07zm-1.34 2a26.51 26.51 0 0 1 -4.63 0 4.19 4.19 0 0 1 0-1c.26 0 4.59-.07 4.71 0s.11.88-.08.95zm4-1.8a8.06 8.06 0 0 0 .2 3.3c.26.26 6.89.19 7.2.07s.42-3.06.27-3.22-7.41-.53-7.69-.2zm6.67 2.42c-.19.07-5.52 0-5.55-.08s0-1.23 0-1.23c.3-.07 5.55 0 5.59.27s.13.91-.06.99zm-14.58 3.28c-.34-.12-5.59 0-6.28-.08s-1.43.67-1.15.81c.08 0-.19 3.06 0 3.29a44.93 44.93 0 0 0 7.74-.27c.65-.23.42-2 .3-2.64s-.26-1-.61-1.11zm-.61 2.87a44.31 44.31 0 0 1 -5.58-.15 8.1 8.1 0 0 1 .07-1.46c.31 0 5.48-.19 5.52 0s.14 1.53-.01 1.61zm5.29-2.8s-.12 3.3.3 3.57 7.13.11 7.47 0 .36-3.11.27-3.41-7.28-.31-8.04-.16zm6.74 2.38c-.19.11-5.29.19-5.44-.08a2.28 2.28 0 0 1 0-1 54.65 54.65 0 0 1 5.63.16c.04.08 0 .8-.19.92z" fill="#fff"/></svg>