<svg height="64" viewBox="0 0 64 64" width="64" xmlns="http://www.w3.org/2000/svg"><path d="m61.64 33.13c-.59-.74-2.13-4.5-3.51-7s-2.37-5.13-4.35-6.75-.7-1-4-5-6.88-3.07-8.11-3.32-3.77-3.06-6.67-3.7-5.79.3-6.48.2-2.37-1.48-4.7-1.78-10.14 2.28-13.7 5.29-6.74 10.33-7.19 11.93c-.64 2.28-.94 10.64-1 13.61s.5 6.72 1.49 8.31.9 2.85 1.58 4.88a6.22 6.22 0 0 0 5 4.45c3 .65 2.13 2 4.55 2.38a62 62 0 0 0 6.48.15c1.78.1 2.13 1.13 4.31 1.38a17.8 17.8 0 0 0 8.21-1.16c2.57-1.13 1.83-.54 3.61-.59s1.93.1 6.33-1.83 15.93-9 17.36-10.83 1.38-9.87.79-10.62zm-7.81-9.54a19 19 0 0 1 2.07 3.84c-.37-.12-.77-.24-1.18-.33a10.24 10.24 0 0 0 -1.62-.1 15.28 15.28 0 0 0 -.05-4.24c.28.29.54.56.78.83zm1.68 5.41 1.32.95c-.11.26-.21.53-.28.73a27.73 27.73 0 0 0 -.49 3.43l-.21-.11c-1.35-.79-2.19-.76-4.41-1.42a40.13 40.13 0 0 1 1.35-4.32c1.28.38 1.85.15 2.72.74zm-36.16 1.26c-.54-.44-.69-1-1.14-.74s-1 .5-.29 1a10.29 10.29 0 0 1 1.38 1.14c.3.3.5.64.2.64a8.89 8.89 0 0 1 -2.5-2.18c-.3-.55-.5-1.78-.3-1.93s1.78.64 3.71-.05 3.17-1.34 3.17-1.09-1.58 1.38-1.95 2.67-.35 1.63-.6 1.44a16 16 0 0 1 -1.68-.9zm1.34 8c-.5.1-.5-.15-.6-.35a18.23 18.23 0 0 1 .1-3.56c.25-.3.4-.35.5 0s.49 3.78 0 3.88zm1.83-7.87c1.13-2 2.42-2.67 2.57-3.16s-.5-1.14-.35-1.39 3.91-3.61 6-5.19 2.87-2.18 3.26-2 .4 1 .5 1.44-.05 1.48.15 2.67 1.33 1.88.89 3.81-1.29 3.31-1.39 4.2-.1 6.63-.49 7.42-1.54 1.48-2.18 2.67-1.29 2.72-1.83 2.87-1.09.39-1.34 0-1.13-3.32-2.22-3.86a15 15 0 0 1 -2.23-1.09c-.69-.49-1.33-1-1.48-1.53-.06-.25-1-4.91.14-6.89zm14.29-5c-.23-.91-.55-1.63-.74-2.57 1-.53 2.87-1.39 4.45-.89a17.33 17.33 0 0 1 3 1.38c-.05 1.88-.12 4.1-.18 6.19a20 20 0 0 0 -4.64-.06c-1.19.12-2.17.21-2.81.29.86-2 1.3-2.89.92-4.36zm6.53 5.47c0 .79 0 1.56-.05 2.24a17.88 17.88 0 0 1 -.61 4.38 24.12 24.12 0 0 1 -3.94-.77 5 5 0 0 0 -2.62-.39c-.38 0-.67.08-.89.12a19.29 19.29 0 0 1 .22-5.28 40.57 40.57 0 0 1 7.89-.32zm-10.24 10a5.3 5.3 0 0 0 2-3.05 6.72 6.72 0 0 1 2.79-.07c2.11.34 2 1.18 4.24 1.42a19.64 19.64 0 0 1 -.93 2.05c-.54 1-1 2-1.44 3.11a30.43 30.43 0 0 1 -4.39-1.09 29.69 29.69 0 0 1 -3-1.41 2.73 2.73 0 0 1 .73-.97zm10.44-1.63c3.33 0 4.1-.08 5.67.42-.72 1.91-2.32 3.47-2.75 4.38a10.19 10.19 0 0 0 -.58 1.53c-1.49-.26-3-.55-4-.79l-1-.23c.82-2.01 1.89-3.62 2.66-5.32zm.4-1.58c.27-1.59.48-4 .64-6.54a16.6 16.6 0 0 1 4.7 1.74c.34.18.65.34 1 .49a30.19 30.19 0 0 0 -.68 4.75 4.58 4.58 0 0 1 -.1.63c-2.08-.38-4.06-.83-5.56-1.08zm.79-7.92h-.07c.12-2.06.2-4.12.25-5.82.39.16.83.32 1.35.49 3.19 1.05 3.72 2.69 5.48 3.51a24.78 24.78 0 0 1 -.74 2.75c-.17.53-.33 1.07-.47 1.63-2.28-.83-4.03-2.16-5.8-2.57zm6.33 5.64c0-.6.11-1.12.18-1.59.81.33 1.63.61 2.64.95s1.51.48 2 .71c0 .45-.09.88-.13 1.26a7.8 7.8 0 0 1 -1.06 3.77 12.81 12.81 0 0 0 -4-1.54c.21-.93.23-2.01.37-3.57zm.79-13.11c0 .81.12 1.79.15 2.72a14.15 14.15 0 0 1 0 1.49c-1.31-.84-1.71-2.1-3.76-2.72-1.81-.55-2.55-.71-3.25-.95 0-.41 0-.8 0-1.13a18 18 0 0 0 -.18-3.7 2.94 2.94 0 0 1 2.11.29c1.17.74 4.24 3.84 4.93 3.99zm-6.23-7.81a9.52 9.52 0 0 1 3.8 3.86 8.07 8.07 0 0 0 -3.26-1.74c-.77-.09-1.45-.14-2-.18-.12-.22-.26-.44-.39-.71a9.07 9.07 0 0 1 -.68-1.75 4.84 4.84 0 0 1 2.53.51zm-2.48 3.05c.6.84.5 1.14.45 4.26v.32c-1.12-.7-2.74-1.73-3.9-1.66a13.66 13.66 0 0 0 -3.77 1c0-.32 0-.65 0-1a9.46 9.46 0 0 0 -.28-4 4.91 4.91 0 0 1 3.36-1.24 12 12 0 0 1 4 2.15.85.85 0 0 0 .14.17zm-10.43-7.5a11.73 11.73 0 0 1 4.89 1.48c2 1.06 2.56 1.84 4.15 2.24.11.48.29 1.09.49 1.69a5.5 5.5 0 0 0 -3-1.7 10.27 10.27 0 0 0 -4.17 1.51c-.79-1.49-2-3.72-2.26-4.24s-.45-.85-.1-.98zm-20.53 4.83c.2-.49.4-.39.4-.84a3 3 0 0 0 -.2-.94c.15-.34 6.28-3.76 8.95-4.3s3.36-.15 4.4.35a5.52 5.52 0 0 0 2.72.94c1.19 0 1.59-.3 2.48.34s2.12 3.32 2.32 4.95.2 1.88-.15 2.17a58.63 58.63 0 0 0 -6.38 5c-3.21 3-3.81 4.3-6.87 4.65s-4.41.2-5.1-.1-1.68-2.57-1.75-4.25.45-4.11 0-5-1-2.47-.82-2.97zm-2.92 1.83c1.58-1.88 1.73-2.27 1.93-2a24.84 24.84 0 0 1 .54 3.37 10.55 10.55 0 0 1 -.29 4.1c-.25.15-1.19 0-2 .45s-1.19.84-1.73.79-1.88-.3-1.83-.94a21.42 21.42 0 0 1 3.38-5.77zm-3.56 26.66c-.59-1-.79-3.71-.89-4.4s.3-14.29.74-15c.14-.22.5.5 2 .45s4.11-.89 4.4-.79-.54 2.32 1.19 3.81 2.57 1.53 2.87 2.37-.35.59.49 1.48 2.18 1.69 2.62 2.87.35 3.76.05 4a10.44 10.44 0 0 0 -4.17 3.09c-1.78 2.32-2.23 2.91-3 3.16s-1.73 0-2.87.59-2.42 1.14-2.42 1.14a13.14 13.14 0 0 0 -1.01-2.77zm9.6 10.39c-.45-.3-2.87-1.88-3.86-2a4.4 4.4 0 0 1 -2.87-1.28c-.64-.8-1.09-2.38-.74-3.07.17-.36 1.23-1.56 1.93-1.61s2.82.1 3.46-.75 2.17-3.06 2.57-3 .69.34.94.15a10.71 10.71 0 0 1 3-2.38c1.28-.44 1.18-.59 2.47-.34a8.63 8.63 0 0 1 4 2.62c.94 1.08.69 2 1 2.47s1.38.05 1.68.3.44.24.2.69a26 26 0 0 1 -2.68 2.42 3.17 3.17 0 0 0 -1.23 1.93 9.53 9.53 0 0 1 -3.56 3.86c-1.37.58-5.87.28-6.31-.01zm18.45.29-1 .22c-2.33.6-1.88 1.49-5.4 1.34s-4.5-1.14-4.3-1.43a21.25 21.25 0 0 0 2.75-2.7l1.2-.09c1.14-.05 4.5 0 6.33.19a21.32 21.32 0 0 1 2.18.32c-.63.81-1.26 1.56-1.76 2.15zm-2.75-4c-1.66 0-3.57 0-4.56.07a3 3 0 0 1 .95-1.41 12.21 12.21 0 0 0 3.52-3.8c.3-.52.52-1 .71-1.33 1 .3 3.11.9 4.83 1.43 1 .29 1.87.52 2.75.72-.31.72-.64 1.47-1 2.29a18.83 18.83 0 0 1 -2 3.07 28.76 28.76 0 0 0 -5.2-1.04zm7.62 3.66c-1.29.13-2.12.15-2.83.17.25-.43.59-1 1-1.67 1.07.24 2.07.5 2.7.71a10 10 0 0 0 1.41.34 8.17 8.17 0 0 1 -2.26.4zm4.74-1.92c-1.06-.1-2.63-.23-4.19-.26a11.42 11.42 0 0 1 -1.72-.18 16.78 16.78 0 0 0 2.8-5.36c.93.17 1.78.3 2.51.39 1 .12 1.83.34 2.7.53-.11.32-.23.66-.38 1-.41 1.14-1.08 2.72-1.5 3.71zm1.64-.97a15 15 0 0 1 .75-2.3c.24-.56.43-1 .62-1.53.32.06.63.11 1 .14l3.76.37c-1.87.98-3.9 2.1-6.13 3.32zm6.1-4.58a28.39 28.39 0 0 1 -4.19-.46 16.94 16.94 0 0 1 2.09-3.25 9.16 9.16 0 0 0 1.44-2.42c1.46.52 2.78 1 3.84 1.38-.61 1.36-1.36 3.48-1.82 4.83a8.63 8.63 0 0 0 -1.35-.08zm7.22-3.31a18.71 18.71 0 0 1 -4.19 3 10.83 10.83 0 0 1 .13-1.39 13.21 13.21 0 0 1 .79-2.72 10.09 10.09 0 0 0 2.87.94h.6zm1.23-2.53a2.81 2.81 0 0 1 -.29 1.26 13.82 13.82 0 0 1 -2.26-.17 5.26 5.26 0 0 1 -1.58-.61 12.4 12.4 0 0 1 1.09-1.91 3.19 3.19 0 0 0 .65-2.69l.19.17c.61.61 1.66 1.54 2.26 2.07 0 .83-.05 1.59-.05 1.88zm-2.33-5.55c0-.09 0-.18 0-.28a28.34 28.34 0 0 1 .42-3.34l.37.67c1.48 2.57 1.53 3.11 1.63 4.25zm-41.13-18.63c.64-.05.84-.64 1.73-1.29a9.33 9.33 0 0 1 2.18-.94c.5-.24 1.09-.49 1.24-.89s-.59-.49-2.47 0a5.71 5.71 0 0 0 -3.17 2c-.06.33-.16 1.17.49 1.12zm11.62 20.77c.2-.39-1.14-4.55-1.63-5s-1.09.44-1 .64a31.94 31.94 0 0 0 1.83 4.6c.31.36.6.16.8-.24zm2.62-3.76c.35-.19-1.18-4.05-1.48-4.2s-.94.15-.89.44a22.66 22.66 0 0 0 1.63 4c.41.5.41-.04.74-.24zm-15 13.65c-.25.5 1.13 3.37 1.38 3.81 0 0 .5 0 .64-.29a10.67 10.67 0 0 0 -1.18-4.06c-.53-.54-.63.05-.87.54zm1.92-.64a31.49 31.49 0 0 0 1.85 4.21s.4.29.6.05a16.1 16.1 0 0 0 -1.34-4.7 1 1 0 0 0 -1.14.44zm2.75-.89c-.25.35 1 2.52 1 2.77a1.79 1.79 0 0 0 .89.15c.3-.1-.39-2.77-.64-3.12s-1.06-.1-1.25.2z" fill="#fff"/></svg>