<svg height="64" viewBox="0 0 64 64" width="64" xmlns="http://www.w3.org/2000/svg"><path d="m47.24 9.46a2.22 2.22 0 0 0 -.07-1.24c-.16-.17-7.32 2.28-16 2.38a35.18 35.18 0 0 1 -14.44-2.68c-.13-.07-.5.23-.5.23-.07.24-.13 1 .1 1.11a55.43 55.43 0 0 0 14.85 2.54 57.93 57.93 0 0 0 16.06-2.34zm4.88 6.76a24.19 24.19 0 0 0 -3.48-3.22 6.92 6.92 0 0 0 1.44-.93c.17-.27.17-5.49-.23-6.26s-2.85-2.64-5.72-3.34-9.13-.54-13.13-.47a111.28 111.28 0 0 0 -11.91.74c-4.09.56-6.09 2.47-6.2 2.77s-.07 5.85 0 6.26a15.59 15.59 0 0 0 2.11 2.23 30 30 0 0 0 -3.28 2.74c-.2.44.67 36.33.73 37.13s.24 2 3.65 4.48 10.44 4.45 20.2 3.42 14.82-6.39 14.92-7.13 1.37-37.59.9-38.42zm-6.62-.37a15.06 15.06 0 0 0 -4.18.23 1.31 1.31 0 0 0 -.8.7 3.82 3.82 0 0 0 -2.25.14c-.83.47-.73 1-1.13 1.1s-.5 0-.5 0a1.85 1.85 0 0 0 -1.41-1.27 13.53 13.53 0 0 0 -4.65.84 2.44 2.44 0 0 0 -1.67 1.5 68.92 68.92 0 0 1 -7.66-1.09c-3.75-.8-5.32-1.77-5.29-1.87a9.23 9.23 0 0 1 1-1.47 49.14 49.14 0 0 0 16.69 1.27 90.49 90.49 0 0 0 13.41-2 4.67 4.67 0 0 1 1.37 1.91c0 .3-1.4 1-1.4 1s.38-.93-1.53-.99zm-.1 2.37c1-.33 1.27-.57 1.34-.47a4.39 4.39 0 0 1 -1.74 1.17c-.57.14-1.81.14-1.74-.16s1.14-.2 2.14-.54zm-3.71-.1c-.2-.23-.2-1 .06-1.14 0 0 .3-.43 1.94-.33s2.25 0 2.21.37-1.17.87-2.41 1-1.6.34-1.8.1zm-.47 4.88s1.87 4.81 2.44 6.65 1.24 3.58.9 4.92-8.09 17.77-8.76 18.58-2.07.56-3.61.06a42.58 42.58 0 0 1 -7.19-2.87c-2.38-1.34-3.92-2.51-4-3.12s8-19.9 8.46-20.37 8.33-4.18 8.87-4.35a3 3 0 0 1 1.7 0c.15.15.07.8-.16 1.17a1.16 1.16 0 0 1 -.57.47 4.67 4.67 0 0 0 -1.3-.47 2.24 2.24 0 0 0 -2.2 1.71c-.51 1.64 1.3 2.74 3.27 2.48s2.21-1 2.18-1.88a3.07 3.07 0 0 0 -.57-1.54 3.75 3.75 0 0 0 .47-.73 1.79 1.79 0 0 0 .07-.71zm3.52 21.91a34.14 34.14 0 0 0 2.34 2.93c0 .77-.06 1.47-.08 2.08a29.76 29.76 0 0 0 -1.76-2.41c-.22-.14-1 .32-1 .46s1.79 2.53 2.64 3.67c0 .61 0 1-.05 1s-.07.08-.16.14a20.06 20.06 0 0 0 -2.48-3c-.28-.11-.78.39-.78.64a22.62 22.62 0 0 0 2.35 2.9c-.28.16-.6.33-1 .51a21.17 21.17 0 0 0 -2.34-3c-.18 0-.89.32-.89.57a29.28 29.28 0 0 0 2.18 2.9l-.89.4a23.61 23.61 0 0 0 -2.18-2.66c-.18-.11-.61 0-.75.49s1.39 2 1.89 2.59a29.59 29.59 0 0 1 -6 1.64 29 29 0 0 1 -13.54-1.1 11.07 11.07 0 0 1 -4.84-3.66c-.2-.5-.94-28.5-.7-28.67s2.74.8 4.62 1.2 9.13.77 8.93.91-1.74.67-1.84.9-8.3 19.66-8.41 20.48-.1 1.27 1.7 2.58a39.92 39.92 0 0 0 8.3 4.21c3.37 1.31 4.95 1.58 5.62 1.27s.73-.33 2-2.87 7.63-15.56 8-16.59a6.86 6.86 0 0 0 -.1-3.85c-.45-1.31-2.52-6.69-2.52-6.69s4.68-1.27 4.85-1.14-.35 14-.67 22.47c-.9-1.07-2-2.21-2.22-2.11s-.36.43-.22.82zm-6.36-18.91c.36 0 .43.06.56-.14a6.38 6.38 0 0 1 .61-.63s.73.06.77.63-1 1.61-2.61.91-.94-2.68.9-2c.23.08-1 .6-1 .77a.83.83 0 0 0 .77.46zm1.84-4.82s-.44 0-1 0-.7.1-.7.1-.2-1.14.13-1.21a2.13 2.13 0 0 0 1 .1c.67-.1 1-.3.93-.06a10.16 10.16 0 0 1 -.36 1.09zm.13-2.14a3.45 3.45 0 0 1 -2.31.13c-.13-.23-.4-.67-.13-.87.09-.07 1.2-.8 1.8-.63s.91 1.09.64 1.39zm-3.75.13c0 .24-.57.34-1.13.34s-2.85 0-3.62 0-1.44.07-1.67-.26.13-.61 1.1-.84a14.16 14.16 0 0 1 3.21-.6 5.06 5.06 0 0 1 2.11 1.38zm-21.87-7.87a21.27 21.27 0 0 1 .1-4.92c.16-.27 1-1.64 9-2.17a138.57 138.57 0 0 1 18.7-.1c3.61.3 5.69 2.17 5.75 2.44s0 4.28 0 4.45-5.69 2.81-13.78 2.94a101.72 101.72 0 0 1 -16.5-.8 7 7 0 0 1 -3.27-1.84zm34.92 34.55c-.07 5.46-.47 8.1-.64 8.43s-7.59 6.59-18.16 6-15.69-4.81-16.16-6-1.07-36.16-.93-36.56c0 0 1.2-.91 1.4-.87a45.39 45.39 0 0 0 8.53 2.54 51.77 51.77 0 0 0 5.85 1s.17.77 3.12.94a10 10 0 0 0 4.58-1 7 7 0 0 1 .43 1.23s-4.81 2.81-5.25 2.85a105.46 105.46 0 0 1 -12.42-1.17c-3.65-.74-3.88-.84-4.11-.67s-.2 1.34-.24 1.74.4 27.16.5 27.8.91 3.08 6.23 4.78 7.77 1.37 12.25 1.11a32.89 32.89 0 0 0 12-3.82c1.37-.93 1.6-1.54 1.64-2.11s.9-29.3.73-29.53-.73-.27-1.7.06a29.27 29.27 0 0 1 -3.75 1c-1 .17-1.1.17-1.1.17a6.19 6.19 0 0 0 -.64-1.48 3.17 3.17 0 0 0 -.74-.83 7.13 7.13 0 0 1 .47-1.74c.2-.17.17.27 2.34.16a5 5 0 0 0 3.78-2c.37-.5.21-.43.41-.63a5.83 5.83 0 0 1 1.7-.87.63.63 0 0 1 .6.5c.05.31-.65 23.52-.72 28.97z" fill="#fff"/></svg>