<svg height="64" viewBox="0 0 64 64" width="64" xmlns="http://www.w3.org/2000/svg"><path d="m47.13 25.31c-1.92-.16-2.85 1.24-5 1.66s-2.42-.97-4.13-1.2-3.74 1.56-5.08 1.66-2.65-1-3.84-1.14a9.8 9.8 0 0 0 -4 .37c-1.5.41-2.49-.11-3.63-.42s-3.05-1.85-4.15-1-2.75 3.91-3.58 7.76a46.39 46.39 0 0 0 -.15 13.9 12.34 12.34 0 0 0 4.3 7.47c1.46.93 2.34 1.71 7.21 2.7s6.49.72 14.68.15 9.6-2.75 11.1-4.46a6.12 6.12 0 0 0 1.41-3.37 142.06 142.06 0 0 0 -.47-17.64c-.62-4.42-2.75-6.29-4.67-6.44zm3.87 25.1c-.26 1.35-3.42 4.15-5.6 4.93s-10.67 1.66-13.4 1.56a32.32 32.32 0 0 1 -10.29-1.9c-3.32-1.3-5.39-2.65-6.48-6.12s-1.35-9.57-.73-13.88 2.23-8.82 3.69-8.77c.62 0 2.64 1.5 4.56 1.66s4.2-.88 5.34-.68 2.39 1.61 4.46 1.46 4.52-1.87 5.61-1.61 1.55 1.24 4.09.93 4-2.23 5.61-1.71 2.85 3.84 3.16 7a169.85 169.85 0 0 1 -.02 17.13zm-6.2-19.19c-.52 0-6.75.73-11.57.78s-11.23-.68-11.72-.68-.74.44-.94 1.35c-.1.47-.21 14.89-.15 15.67a2.49 2.49 0 0 0 1.58 1.81c.83.42 5.61 1.35 11.05 1.25s8.35-.26 10.33-.78 2.49-1.66 2.54-2.28.26-13.18.15-15.15-.76-1.97-1.27-1.97zm.26 10.59a7.4 7.4 0 0 0 -1.46-.81c-.15 0-.67.31-.57.63a10.46 10.46 0 0 0 2 1.5v1.78a14.36 14.36 0 0 0 -2.41-1.62c-.26 0-.47.46-.42.62s2.06 1.71 2.8 2.28c0 .79 0 1.44-.07 1.88-.9-.79-3.66-2.87-3.66-2.87s-.68.26-.57.58a47.72 47.72 0 0 0 3.6 3.22 9 9 0 0 1 -1.15.43c-.72-.68-2.54-2.37-2.66-2.37s-.52.68-.47.83 1.35 1.28 2 1.86c-.47.11-1 .23-1.59.33a9.05 9.05 0 0 0 -1.87-1.67c-.31 0-.41.16-.52.42s.58 1 1 1.46a34.94 34.94 0 0 1 -5.62.2c-7.14-.28-11.42-1.49-11.76-2.05s-.41-15.71-.21-16c.09-.13 6.07 1 11.67.94s11.52-.78 11.78-.73.19 4.81.16 9.16zm11.04-9.81c-.46-3.34-4.82-10.89-4.82-10.89a13.52 13.52 0 0 0 1.87-.11 3.56 3.56 0 0 0 2.18-1.25c.38-.54.7-4.36.46-6.61a2.82 2.82 0 0 0 -2.49-2.49s.86-2.73-3.11-5.76-10.43-3.35-21-2.57-12.91 2.34-14.55 3-2.57 4-2.57 4a2.6 2.6 0 0 0 -1.71-.77 2.58 2.58 0 0 0 -2.26 2.54c-.24 1.87 2.17 2.42 2.64 2.73s.55.78.16 1.4-2.18 2-2.49 3.34 1.24 3.12 1.24 3.12a6.7 6.7 0 0 1 0 3.19c-.46 1.24-1.87 1.13-2.1 1.13s-.31.77-.08 1.16.94.24 1.72-.07a3.2 3.2 0 0 0 1.86-2.26 8.1 8.1 0 0 0 -.39-3.66 2.19 2.19 0 0 0 1.79-.85 1.54 1.54 0 0 0 -.31-2.18c-.46-.47.7-1.48.86-1.71s.62-.08 1.09.38.85.94.85.94-1.71 4.59-3.19 9-3.11 10.42-3 15.4 2.15 12.21 4.25 14 8.09 5.85 18.44 5.91 17.27-2 20.07-3.74 4.59-5.6 5-8.55.06-14.4-.41-17.77zm-45.59-12.29a1 1 0 0 1 -.83-1.35c.15-.89.93-1.4 1.09-1.25s.05.68.36 1.14.57 1.75-.62 1.46zm-1.3-9.08a1.32 1.32 0 0 1 2.18-.52 3.64 3.64 0 0 1 .88 1.3 4 4 0 0 0 .31 2.28s-3.89-1.97-3.37-3.06zm44 5a30.46 30.46 0 0 0 .21-3.89 1.57 1.57 0 0 1 1.19 1.4 27.32 27.32 0 0 1 -.31 5.7c-.16.57-1.92 1-2.7 1.14a4.12 4.12 0 0 1 -1.3 0 14 14 0 0 1 -.2-1.71s2.84-.27 3.1-2.66zm-20.7 2.8c-10.51-.49-15.31-1.84-16.3-2.3s-.77-1-.77-1.87a61.23 61.23 0 0 0 19.14 2.13c10.68-.52 16.42-2.6 16.49-2.39a3.05 3.05 0 0 1 0 1.56c-.15.25-8.07 3.32-18.57 2.85zm15.93 2.44a36.84 36.84 0 0 1 -15.51 2.38c-8.46-.46-16.86-2.49-17-2.75a6.91 6.91 0 0 1 .73-2 65 65 0 0 0 15.51 1.82 97.14 97.14 0 0 0 16.08-1.25 6.25 6.25 0 0 1 .18 1.78zm-17.91-16.52c14.84-.15 17.64 1.19 18.83 2.39.89.89.83 1.66.11 2.15a22 22 0 0 0 -3.95-2.2c-.46-.06-.88.2-.78.57a19.45 19.45 0 0 0 3.19 2.15c-.47.1-1.09.21-1.88.33a15.72 15.72 0 0 0 -3.12-2.17c-.42-.11-1 .31-.88.57a19.44 19.44 0 0 0 2.38 1.86c-.58.07-1.22.14-1.92.2a9 9 0 0 0 -2.18-1.24 1.1 1.1 0 0 0 -1 .41c0 .1.53.64.92 1-2.11.14-4.6.24-7.51.24-9.11-.03-16.74-.19-17.74-1.61-.28-.32.7-4.49 15.53-4.65zm-15.82 8.65c-.1-.15-.31-2-.05-2s7.42 2.13 19.45 1.66 17.17-2.54 17.22-2.18.16 1.92-.1 2.08a47.84 47.84 0 0 1 -17.43 2.84 116.73 116.73 0 0 1 -18.26-2.13c-.54-.15-.73-.1-.83-.27zm39.42 37.52c-.26 2.12-3.21 7-10.58 8.25s-14.94 1.86-21.89-.37-7.73-5.13-9-9a33.22 33.22 0 0 1 -.94-13.85c.62-4.46 3.74-13.8 3.94-14.11s8.41 2.75 17.59 2.8a71 71 0 0 0 16.18-2.08c.21.16 3.94 7 4.36 10.12a170.75 170.75 0 0 1 .34 18.24zm-36.88-18.83a1.37 1.37 0 0 0 .42 2.31c.31.16.83-.05.83-.41s-.31-.68 0-1 1-.1 1.14-.21.31-.31.05-.88-1.35-1.16-2.44.19zm-.93 9.31a1.3 1.3 0 0 0 .26 2c.67.37 2.07-.2 1.76-1.34a1.26 1.26 0 0 0 -2.02-.66zm31-8.24c.67.57 2-.58 1.66-1.41a1.55 1.55 0 0 0 -2.18-.67c-.5.39-.14 1.47.54 2.05zm0 9.23c-1 .36-.73 1.81 0 2.38s1.81-.25 1.86-1.4-1.42-1.17-1.84-.97zm-16.11 11.01c-.63 0-1.06-.52-1.25 0s-.05 1.24 1.25 1.24 1.29-.88 1.19-1.14-.57-.04-1.19-.1zm-8.1-18.2a15.65 15.65 0 0 0 0 4.05c.16.57.68.15.94 0s.1-3.43-.05-3.74-.73-.54-.89-.31zm14-.16c-.37-.15-3.69 2.08-3.89 2.08s-2.44-1.82-3-1.87a11.24 11.24 0 0 0 -3.84 2.54c0 .47-.21 3.12-.16 3.69s2.75 2.07 2.75 2.07a19.22 19.22 0 0 0 .37 3.37 9.49 9.49 0 0 0 3.63 2.29c.67 0 4.15-2.18 4.25-2.39s.1-2.91.16-3.11a28.72 28.72 0 0 1 2.59-2.13s.26-3.79.16-4a22.27 22.27 0 0 0 -3.06-2.54zm-9.81 6.23c-.05-.26-.52-2.75-.31-2.91s2.7-2.07 3.11-1.91a11.58 11.58 0 0 1 2.44 1.6 15.44 15.44 0 0 1 0 3.12 10.73 10.73 0 0 1 -2.69 1.5 8.31 8.31 0 0 1 -2.59-1.4zm8.7 4.56a17.54 17.54 0 0 1 -3.11 2 14.76 14.76 0 0 1 -2.6-1.61c-.05-.16-.15-2.44-.15-2.44a28.1 28.1 0 0 1 3-1.87 17.66 17.66 0 0 1 2.7 1.4 6.43 6.43 0 0 1 .16 2.52zm3-4.82a7.76 7.76 0 0 1 -2.45 1.39 18.89 18.89 0 0 1 -2.7-1.35 25.23 25.23 0 0 1 -.05-2.7c.15-.15 2.8-2.07 3.11-1.86a13.23 13.23 0 0 1 2 1.65 10.5 10.5 0 0 1 .02 2.87zm-18.79-31.95c.41-.11 1.14-.31 2.8-.68a19.24 19.24 0 0 1 3.79-.31s.05-.78-.11-.93-.46-.47-3.32-.16a7.43 7.43 0 0 0 -4 1.4c-.3.26.42.78.84.68z" fill="#fff"/></svg>