<svg height="64" viewBox="0 0 64 64" width="64" xmlns="http://www.w3.org/2000/svg"><path d="m16.39 54.46c-.61-.21-1.39 1.07-1.28 1.88a1.42 1.42 0 0 0 1.6 1.23c.76-.11 1.13-.86.81-1s-1.07-.32-.91-.75.43-.37.37-.64a1 1 0 0 0 -.59-.72zm-.53-9.66c.53.22.69-.16.75-.59s-4-6-4.35-6.17-1.06.27-.91.59c.21.49 3.97 5.96 4.51 6.17zm-.49-7.29c.16.27 3.6 5.15 3.6 5.15s.91-.16 1.12-.49-3.48-4.61-3.75-4.88-.97.22-.97.22zm5.26-1.51c-.48-.27-1.18.39-1.07.59a34 34 0 0 0 3.44 4.19c.54.32.7 0 .86-.21s-2.75-4.3-3.23-4.57zm6.17.1c-.43-.27-1.4.43-1.4.43 0 .43 2 2.9 2.42 3.11s.59.11 1-.37-1.59-2.89-2.02-3.16zm3.54-1.28c-.43-.22-1.07.42-1.07.42a11.36 11.36 0 0 0 1.93 2.1c.27.1.37-.22.48-.59s-.91-1.75-1.34-1.92zm5.2-4s.43-.65.7-1a2.85 2.85 0 0 0 .38-1.72 60.9 60.9 0 0 0 -4.83-6.1c-.91-.91-1.56-1.77-2.42-1.77s-2.89 2.1-2.37 2.77 4.45 6.5 4.88 6.92.22.38.05.54-.85-.05-.85-.05-4.29-5.69-5.37-7-2.18-2.1-3.31-1.41a2 2 0 0 0 -1 2.36c.27.59 5.47 7.13 5.69 7.29s-.27.43-.27.43a4.64 4.64 0 0 1 -1-.11c-.43-.1-4.5-5.52-5.09-6.22s-1.55-1.81-2.73-1.17a3.46 3.46 0 0 0 -1.82 3c.16.81 3.91 4.45 3.91 4.45a6.55 6.55 0 0 1 -1.09-.03c-.38-.05-.7.16-1 .16s-2.68-3.59-3.48-3.86-3.38 1.93-3.44 2.47 1 1.82 1 1.82-2.84.06-3.54.11-2.79 1.5-4.13 4.88.11 7 2.52 9.28 5.58 3.11 6.06 4-2.95 3.65-2.3 7.4 4.5 4.19 7.94 3.6 4.56-3.92 4.5-6.44-3.27-6.44-3.27-6.44a27.91 27.91 0 0 0 12.66-6.11c5.47-4.94 5-9.5 4.88-10.57s-1.86-1.44-1.86-1.44zm-7-7.94a.88.88 0 0 1 1-1.18c.75.16 6.55 6.11 6.12 7a2.92 2.92 0 0 1 -2 1.5 76.3 76.3 0 0 1 -5.14-7.28zm-6.07.86c-.1-.38.81-1.08 1.35-.92s6.54 7.67 6.27 8-1.5 1-2 .69c-.09.04-5.53-7.36-5.64-7.73zm-5.22 3.26c.05-.64 1.72-1.71 2-1.5s5.52 6.44 5.25 6.65a7.2 7.2 0 0 1 -3.22-.43s-4.08-4.08-4.03-4.72zm-4.77 3.76c.16-.27 1.07-1.4 1.71-1.23s3.06 2.67 2.81 3.1-2.25.75-3 .53a4.45 4.45 0 0 1 -1.52-2.41zm20.38 8.14a19.86 19.86 0 0 1 -9 6.06c-3.65 1-6.38 1.51-6.76 2.2a4.17 4.17 0 0 0 .38 3.76c.85 1.07 3.37 4.07 3.21 5.31s-2.2 3.27-4 3.38-4.8-1.18-3.52-3.61 3-4.56 2.2-6.28-1.71-1.97-3.48-2.72-4.35-1.82-5.05-4.4-.75-5.2 2-7.18a5.91 5.91 0 0 1 4.08-.49 6.19 6.19 0 0 0 3.7.38c1.55-.38 2.89-1.13 4.07-1.18s2.26.64 3.87.43 6.05-1.56 6.85-1.56 3.38.06 3.81.86-.7 3-2.36 5.04zm26.55-36c-1.45-1.77-4.07-.43-4.66.21s-19.59 16.89-20.55 17.55c-.32.22-.53 1.56.86 2.9s2.09 1.72 2.52 1.77 20.76-17.33 21.42-18.24 1.86-2.46.41-4.23zm-1.34 3.82c-.7.86-20.33 17.27-20.81 17.22a4.35 4.35 0 0 1 -2-2.52c0-.7 20.22-17.28 21-17.81a1.64 1.64 0 0 1 2.2.37 2.44 2.44 0 0 1 -.39 2.74z" fill="#fff"/></svg>