<svg height="64" viewBox="0 0 64 64" width="64" xmlns="http://www.w3.org/2000/svg"><path d="m62 43c-.2-2.79-2.45-8.53-5.47-16.64s-5.53-11.72-5.53-11.72a16 16 0 0 0 1.44-1.74 3.16 3.16 0 0 0 -.93-2.64c-1.1-1.26-2.92-2.72-3.39-2.75s-2.71 2.05-2.71 2.05a10.79 10.79 0 0 0 -2.68-1.05 16.09 16.09 0 0 0 -7.91-.07c-3.18.81-8.53 4.34-10.51 5.89a13.92 13.92 0 0 0 -5 7.14 10.46 10.46 0 0 0 .69 6.28s.07.62.23 1.32a14.46 14.46 0 0 0 1.89 3.48l-8.25 7.38s-1.55-1.75-2.06-1.86-4.3 2-6.47 3.91a9.9 9.9 0 0 0 -3.22 4.81 3.93 3.93 0 0 0 .35 3.26 4.17 4.17 0 0 0 1.7 1.4 2.41 2.41 0 0 0 1.2-.08s-.38.66.55 1.7a4.58 4.58 0 0 0 2.71 1.67c.7 0 6-3.84 7.91-6.24s2.21-3.34 1.79-4.07a6.49 6.49 0 0 0 -1.52-1.52s5-4.28 8.05-6.91c2.11 2.14 3.36 2.07 3.36 2.07s.85 1 2.4 3.21 7 9.35 8.84 11.6 5.43 3.92 7.64 3.57a26.42 26.42 0 0 0 10.82-5c4.2-3.15 4.28-5.67 4.08-8.45zm-13.68-34.14a8.77 8.77 0 0 1 2.4 2.64c.43.81.58.89.43 1.32a4.23 4.23 0 0 1 -.82 1 33.83 33.83 0 0 0 -3.68-3.82s1.28-1.18 1.67-1.14zm-36.89 35.57c1.67-1.36 2.14-1.59 2.29-1.44s0 .54 0 .54-2.6 2.47-4.11 3.61a24.94 24.94 0 0 1 -2.61 1.75 56.67 56.67 0 0 1 4.43-4.46zm-2.94.35a22.51 22.51 0 0 1 -4.27 3.29c-.43.23-.78-.42-.58-.5s3.92-3.8 5.51-4.73 2-1 1.9-.74a20.18 20.18 0 0 1 -2.56 2.68zm6.36-1.44c.15.12.46.12.35.47s-1.21.66-1.48.66.97-1.25 1.13-1.13zm-1-2.33c.74.43.81 1 .7 1.09s-1.09-.31-1.79.15-1.51.9-1.51.9a9.31 9.31 0 0 0 .85-1.32 1.51 1.51 0 0 0 .12-.7 1.79 1.79 0 0 1 1.62-.13zm-10.17 3.99a25.53 25.53 0 0 1 5.39-4.89c2.13-1.35 2.75-1.2 3.06-1s.51 1.21.51 1.21a8.05 8.05 0 0 0 -1.09.19 12.17 12.17 0 0 0 -3.37 1.82c-2.18 1.4-4.58 4.15-5 4.46s-.28-.79.5-1.79zm1.78 4.46a2.79 2.79 0 0 1 -1.36 1.13c-.23 0-1.39-.81-.93-1.28a6.49 6.49 0 0 0 2.29-1c1.28-.81 2.6-1.7 2.6-1.7a34.61 34.61 0 0 0 -2.6 2.82zm.78 1.12a14.53 14.53 0 0 1 2.36-1.42 14.83 14.83 0 0 1 -2.17 2.17c-.23.12-.43-.58-.19-.78zm1 1.4a67.24 67.24 0 0 1 5.5-5.24c1.75-1.39 2.87-1.86 3-1.66s0 .42-.16.66a21 21 0 0 1 -4.53 4.49c-2.76 2-3.34 2.14-3.69 2.18s-.15-.34-.15-.41zm9.73-7.72a.85.85 0 0 1 .82.93c-.08.74-2.68 3.73-5.2 5.94s-3.38 2.44-4 2.63-1.36-.19-1.17-.62a15.45 15.45 0 0 0 6.3-4.14c2.91-3.1 2.91-4.11 3-4.34s.03-.43.22-.43zm-.97-1.89-.74-.12a2 2 0 0 0 .08-1.12 2.3 2.3 0 0 0 -.39-.78s5-4.12 8-6.68l.7.91.4.48zm12.88-5.55c-.42.36-1.56 0-3.12-1.6.81-.71 1.34-1.18 1.37-1.23a.77.77 0 0 0 -.62-1.24l-1.64 1.51c-.24-.28-.48-.56-.73-.89l-.35-.47a10.59 10.59 0 0 0 1.29-1.23.91.91 0 0 0 -.94-.93l-1.14 1.05c-1.55-2.18-2.22-3.68-1.46-4.51.36-.38 3.84-.11 5.62 3.92s2.27 5.16 1.73 5.62zm-.88-6.39a14.77 14.77 0 0 0 -5-4.43s1.47-1.48 1.9-1.4 3.14 1.51 5.12 5.47 1.74 5.93 1.59 6-1.4.93-1.4.93a11.1 11.1 0 0 0 -2.21-6.57zm32 15.12a2.62 2.62 0 0 0 -1-.58c-.35 0-.42.31-.35.58a6.24 6.24 0 0 0 1 1.09 4.79 4.79 0 0 1 -.33.58 6.64 6.64 0 0 0 -1.4-1c-.12 0-.7.47-.58.78a5.89 5.89 0 0 0 1.23 1q-.21.24-.45.48a7.6 7.6 0 0 0 -1.5-1.15c-.43-.15-.47.39-.31.66a7.41 7.41 0 0 0 1.19 1c-.21.18-.44.36-.68.53a6 6 0 0 0 -1.37-1.06c-.27-.08-.46.42-.42.58a7.65 7.65 0 0 0 1 1.05c-.32.21-.65.41-1 .62-4.23 2.4-6.87 3.6-10 3.06s-11.45-11.83-12.92-13.49a27.16 27.16 0 0 1 -1.87-2.28s2.87-.93 2.68-3.34-2.48-6.44-4.27-8.66-3.56-2.37-4.18-2.33-3.07 2.05-3.07 2.05a9 9 0 0 1 1.67-6.78c2.44-3.34 7.91-6.6 11.17-7.76a13.16 13.16 0 0 1 9 0c2.4.93 3.91 2.13 3.45 4.5s-3.26 4.73-4.69 6-2.37 2.68-2.21 3.76 2.56 5 5.5 10 4.66 8 7.1 8.42 3.57-.93 4.07-2.64-1.59-6.9-3.37-11.25-2.79-7.52-3.88-9.19-1.47-2.17-1.47-2.17a4.82 4.82 0 0 0 .77-2.48c0-1.28-.08-1.59-.08-1.59a59.38 59.38 0 0 1 7 13.49c2.91 8 4.15 11.4 4.66 14.7a7 7 0 0 1 -.16 2.82zm-8.54-13.88c2.21 6.33 3.22 9.38 2.54 10.08s-2.79.16-4.23-2.33-4.4-7.91-5.77-10.31-2.6-4-2-4.77 3.65-2.68 4.39-3.8a67.88 67.88 0 0 1 5.07 11.13zm-22-15.75a.7.7 0 0 0 -.62-.58 16.07 16.07 0 0 0 -2.21 1.9c-.12.27.69.58 1 .47a6.75 6.75 0 0 0 1.84-1.79zm2.32 1c0-.19-.11-.85-.58-.82s-2.27 1.8-2.43 1.9.39 1 .81 1 2.18-1.88 2.21-2.07zm1.83 0c-.31.08-3.1 2.36-3.1 2.36-.28.31.27 1.05.58 1.17s3.41-2.06 3.56-2.37-.72-1.19-1.03-1.08zm7.52-4.73c-.11-.24-.66-.47-2-.55a9.22 9.22 0 0 0 -2.76.24c-.42.15-.19 1.08 0 1.12s.35-.12 2-.12 2.75.12 2.75.12a1.63 1.63 0 0 0 .02-.76zm.47 27.22a1.45 1.45 0 0 0 -.39 1.09 17.93 17.93 0 0 1 1.86 3.14 19.39 19.39 0 0 1 1.36 4.19 1.18 1.18 0 0 0 1.32 0c.19-.27-.31-1.36-1.48-4.5s-2.55-3.91-2.66-3.87z" fill="#fff"/></svg>