<svg height="64" viewBox="0 0 64 64" width="64" xmlns="http://www.w3.org/2000/svg"><path d="m29.41 14.15c-.42-.37 1.2-1.2 1.25-5.64s-5.17-6.9-10.24-6.51-8 2.29-9.35 6.06.63 5 .94 5.43.94.68 1.05 1.31-1.52.62-3.24 1.41-3.66 2.14-4 4.23-.55 28.87-.39 32.56 3.66 6.77 5.49 7.84c.88.52 16.77.68 20.47.26s5-3.08 5.12-4.54.32-31.66-.15-35.79-6.53-6.26-6.95-6.62zm1.36 23.56c0 .34 2.32 1.92 3.18 2.5v2.69a21.08 21.08 0 0 0 -3.17-2.26c-.26 0-.37.73-.32 1s2.54 2.36 3.47 3.36v2.46c-1.24-.97-3.53-2.46-3.53-2.46a2.29 2.29 0 0 0 -.21.94 25.44 25.44 0 0 0 3.72 2.75v2.91a29.1 29.1 0 0 0 -4-3.25c-.37 0-.52.42-.63.78s3.19 3 4.62 4.17v2.56c-1.4-1.19-5-4-5.19-4s-.47.47-.42.89 3.71 3.34 5.1 4.47a3.85 3.85 0 0 1 -1.21 1 34.32 34.32 0 0 0 -4.88-3.9c-.47-.15-.79.47-.79.89s2.91 2.65 4.12 3.61a6 6 0 0 1 -.67.15 15.59 15.59 0 0 1 -2 .16 29.18 29.18 0 0 0 -3.79-3.34c-.21 0-.89.36-.89.67a22.93 22.93 0 0 0 2.92 2.7c-4.12 0-9.95-.18-11.33-.29-1.93-.16-5.9-1.73-6.16-6.11s-.21-29.83 0-31a4.65 4.65 0 0 1 1.77-2.5c1.79-1.34 6.17-2.51 5.7-4.24s-2.25-2.4-2.41-4.18.23-5.36 6.08-5.94 7.73 2 7.89 4.44-1.78 4.6-1.62 5.33 1.15 1.2 1.72 1.41 5.59 2.67 5.91 5.12c.07.57.12 2.69.15 5.62a6.36 6.36 0 0 0 -2-.6c-.26.1-.15.62 0 .83a14.32 14.32 0 0 0 2 1v2.3a8.16 8.16 0 0 0 -2.54-1.22c-.26.11-.26.58-.2.89a15.33 15.33 0 0 0 2.78 1.98v2.1a10 10 0 0 0 -2.75-1.61c-.37 0-.32.67-.06 1s2.06 1.7 2.82 2.33v2.79a22.06 22.06 0 0 0 -3-1.88c-.29.04-.23.56-.18.98zm27.58 4.18c-.21-1.52-2.87-3.55-2.87-3.55s.47-.21.78-3.92-3.71-5.23-6.32-5.33-5.54 1.1-5.95 4a6.18 6.18 0 0 0 1 4.6c-1.57.52-3.76 2.61-3.87 3.24s-.42 16.4-.26 17.18 3.24 4.13 9.4 4 8.15-2.61 8.31-3.18-.01-15.53-.22-17.04zm-4.65 9.56c0 .33 1.67 1.37 2.43 1.87v1.78c-1.09-.88-3-2.19-3-2.19s-.53.58-.47.89a34.42 34.42 0 0 0 3.43 3 5 5 0 0 1 -.2 1.53 1.26 1.26 0 0 1 -.3.16 43.89 43.89 0 0 0 -4.82-4.19.92.92 0 0 0 -.62.94c0 .42 2.63 2.79 3.71 3.76-.53.13-1.11.24-1.72.33a33.27 33.27 0 0 0 -3.56-3.09.71.71 0 0 0 -1 .52c-.12.36 1.89 2 2.85 2.75-.32 0-.62 0-.92 0-2.56-.06-6-1.47-6.16-2.25s-.16-15 .1-15.52a8.5 8.5 0 0 1 3-2.4c1.52-.78 2-.94 1.93-1.46s-1.93-1.1-1.93-3.29c0-1.47 1.83-3 3.55-2.88s4.13.79 4 2.93-2 2.77-2 3.55a1 1 0 0 0 .68 1.05c.21.1 2.56.89 3.08 2.71a38.93 38.93 0 0 1 .37 5.92 4.62 4.62 0 0 0 -1.62-.69c-.58 0-.47.94-.47 1.15a10.44 10.44 0 0 0 2.12 1.2v1.79a8.15 8.15 0 0 0 -2-1.11c-.41-.01-.51.79-.46 1.24zm-36.36-43.73a3.38 3.38 0 0 0 -1.1 3.66c.11.31 1.1.52 1.31.26s-.05-1.15.52-2.19 1.36-.68 1.88-.94a.76.76 0 0 0 .26-1.21c-.31-.3-1.21-.99-2.87.42zm-6.34 14.89c-.16.68.1 10.4.26 11s1.1.47 1.46.37.42-10.66.32-11.18-1.94-.55-2.04-.19zm39 10.55c-.68 0-2 1.22-1.62 1.62.1.11.41.58.88.47s.21-.1.47-.57.79-.42 1-.84-.01-.68-.68-.68zm-4.6 9.46c.1.21-.11 5.17.1 5.75s1 .15 1.31 0 0-5.54-.06-5.85-1.52-.23-1.35.1z" fill="#fff"/></svg>