<svg height="64" viewBox="0 0 64 64" width="64" xmlns="http://www.w3.org/2000/svg"><path d="m60.48 13.12c-1.31-7.38-3.48-7.92-8.85-9.12a98.53 98.53 0 0 0 -24.16-2c-9 .47-15.93.85-20.16 3.85s-4.08 8.7-4 11.7 1.85 4.77 2.54 4.84 10.23.08 10.23.08l.16 5.23s-9.32-.07-9.55.08-.61.69-.15 9.39 4.46 9.27 4.46 9.27-1.84 0-3.84-.08-3.7.47-4.24 1.7.16 10.38 1.85 12.08 2.62 1.92 14.93 1.92 35.24-.77 37.7-1.77 2.31-2.08 2.46-6.23.14-25.32.14-25.32a6.63 6.63 0 0 0 .69-1.23c.4-.84 1.1-7-.21-14.39zm-52.07 28.06c-1-4-1.18-11.95-.87-12.15s25.7.2 26 .66a21.28 21.28 0 0 1 .14 3.87 14.72 14.72 0 0 0 -2.81-1.82c-.31-.1-.46.93-.31 1.34a18.46 18.46 0 0 0 3.08 2.17c0 .59 0 1.19-.06 1.76a23.58 23.58 0 0 0 -3.68-2.7c-.36-.05-.36.82-.11 1.28a37.78 37.78 0 0 0 3.7 3.08c-.07 1-.15 1.81-.24 2.31a34.25 34.25 0 0 0 -4.43-4.41c-.46-.11-.57.71-.51 1s3.28 3.47 4.48 4.65a13 13 0 0 1 -.79 1.35 37.39 37.39 0 0 0 -4.33-4.39c-.31-.1-.62.57-.62.82s3.29 3.73 4.15 4.65a7.67 7.67 0 0 1 -.77.86 57.48 57.48 0 0 0 -4.4-4.74s-.67.21-.77.62 3.48 4.24 4.1 4.91a1.7 1.7 0 0 1 -.72.32 5.17 5.17 0 0 1 -.6 0c-.92-1.22-3.91-4.24-4.37-4.28s-.36.52-.31 1a23.31 23.31 0 0 0 3.25 3.3h-1.79a13.12 13.12 0 0 0 -2.74-2.21c-.36-.1-.51.42-.51.72s.79.94 1.41 1.46l-10-.17a7.63 7.63 0 0 1 -4.57-5.26zm9.21-18.67 3 .08v5l-2.92-.15zm24 4.77c1.23 2 1.77 3 1.77 3s-.08 14.31-.62 14.93-1.92.85-4.38 1-7.7.38-7.7.38 4-2.69 4-6.23.39-11.77-.23-12.15-12.23-.54-12.23-.54l-.31-5.47 18.77.39a8.4 8.4 0 0 0 .94 4.69zm16 25.32a15 15 0 0 0 -2.22-2.6c-.31-.06-.87.56-.92.82a36 36 0 0 0 3.13 3.44 18.29 18.29 0 0 1 -.36 4c0-.52-4-5.85-4.31-6.11s-.93.31-1.13.77 2.71 4.3 3.71 5.65c-.53.06-1.18.12-1.92.18a42.05 42.05 0 0 0 -3.84-5.06c-.21 0-.87.15-.87.67s2.32 3.38 3.29 4.5l-1.88.14a28.7 28.7 0 0 0 -3.67-4.42c-.41-.3-.87.26-1 .57s2.29 3 3.11 3.94l-2.64.13c-.38-.87-2.57-3.82-3-3.87s-.62.41-.67.77a19.46 19.46 0 0 0 2.27 3.17c-5.78.25-12.61.42-18.32.37-12.38-.06-18.99-.27-19.61-.66s-2.15-8.69-1.49-9.4 13.49 0 24.37-.47 15.35-1.23 15.7-2.13.46-15.44.71-15.8 2.26 1.13 5.44.87 6.21-1.69 6.31-1.43.1 13.91-.14 21.96zm.24-25.93c-.41.82-3.18 3.13-7.18 2.77s-5.95.3-7-3.39-.36-5.59-1.18-5.9-5.85-.46-16.83-.41-17.18.05-17.18.05c-1.08 0-2.06-.15-2.36-1.49s-.44-7.38 1.77-9.49 6-3.43 14.62-3.89a146.2 146.2 0 0 1 25.75 1.18c5.23.9 8.93 1.07 9.73 6.9s.32 12.85-.09 13.67zm-45-18.11c-.57-.31-1.64.15-2.88 2.15a6.54 6.54 0 0 0 -.98 4.72c.15.36 1 .52 1.18.05a33.68 33.68 0 0 1 .71-3.38c.57-1.64 1.9-1.95 2.57-2.36s.03-.87-.53-1.18zm37.56 12.57c-1.74 1.28-1.79 2.92-.87 4.66s5 1.49 5.34-1.48-2.97-4.31-4.47-3.18zm.26 4a2.23 2.23 0 0 1 .21-2.77 2 2 0 0 1 2.92 1.69c.05 1.8-2.41 2.05-3.13 1.08zm-1.68 13.44c-1.9 2.77-1.33 6 2.21 7.08s6.36-3.59 4.82-6.78-5.76-2.1-7.03-.3zm2.81 5.43c-2.67-.76-3.18-2.82-1.44-5.18a3.22 3.22 0 0 1 4.77.67c1.13 2-.66 5.28-3.33 4.51zm-41.91-12.46c-.21.31.21 5.8.15 6 0 0 .72.51 1.18.21s-.3-5.75-.46-6.31-.66-.21-.87.1z" fill="#fff"/></svg>