<svg height="64" viewBox="0 0 64 64" width="64" xmlns="http://www.w3.org/2000/svg"><path d="m58.09 11.64c-.27-5.61-2.73-9.75-6.92-9.7s-34.45.84-39.53 1.06-5.72 4.34-5.72 7.22c0 1.42-.31 10.8-.26 19.61s.68 23.12 1 26.42 2.73 5.35 3.46 5.35 4.83.11 12.8.21 25.69.47 30.35 0 5.09-4.24 5.09-6.08-.01-38.48-.27-44.09zm-6.19 37.17c.08.32 2.7 1.83 4 2.55v1.88a21.6 21.6 0 0 0 -3.66-2c-.31.06-.26.74-.15 1a34 34 0 0 0 3.76 2.76v.55a4.56 4.56 0 0 1 -.31 1.48 30.12 30.12 0 0 0 -4.2-2.58c-.26 0-.63.58-.42 1.1s2.56 2 3.66 2.65a4.79 4.79 0 0 1 -1.74.66 12.94 12.94 0 0 0 -3-1.73c-.36 0-.47.68-.31 1a5.61 5.61 0 0 0 1.23 1h-.29c-4.14.16-30.09 0-34.55 0s-6.39-.16-6.6-3.94-.57-27.77-.52-35.19.11-9.81.11-9.81c.09-1.43.21-3.9 3.88-4.19s31.93-1.6 35.28-1.54 6.82 1.67 7.24 6c.21 2.23.39 13.4.48 24.08a4.26 4.26 0 0 0 -1.32-.6c-.26 0-.26.68-.16.89s1 1 1.5 1.58v1.89a9.32 9.32 0 0 0 -2.3-.9c-.31.06-.36.58 0 1a10 10 0 0 0 2.31 1.26v2.17a12 12 0 0 0 -2.27-1.23c-.27 0-.58.74-.53 1a29.46 29.46 0 0 0 2.81 2.1v2.05a19.82 19.82 0 0 0 -3.45-2c-.52-.11-.52.73-.36 1.1a29.57 29.57 0 0 0 3.81 2.54v2.38a22.43 22.43 0 0 0 -3.61-2c-.22.1-.43.62-.32 1.04zm-38.85-34.76c.26-.26-.05-2.88 0-3.3s2.68-.47 3-.53.27-.89.21-1.15-3.46-.31-4.14.21-.57 4.43-.47 4.61a.93.93 0 0 0 1.4.16zm-1.26 35.95c-.47 1-.63 3.77.63 4.61a3.77 3.77 0 0 0 4.58-.03c1.79-1.21 1.52-4-.36-5.61s-4.3-.1-4.85 1.03zm2.89 3.88c-1.84-.06-2.78-1.68-1.1-3.73.61-.74 2.77-.63 3.19.74a2.17 2.17 0 0 1 -2.09 3.01zm31.5-6.51c-.94 0-24.27-.36-25.16-.31s-1.21.73-1.26 1.68c0 0-.05 5 0 5.92a2.12 2.12 0 0 0 2 1.73c.89 0 21.7.11 23.27 0s2.31-.68 2.36-1.31 0-5.56 0-6.45-.26-1.24-1.21-1.24zm-.31 7.29c-.58.68-11.06.63-16.78.53s-7.55 0-7.86-.37-.32-6-.16-6.29c0 0 24.85 0 25 .26s.38 5.21-.2 5.89zm-9.49-2.3c-.1.1-.21.89 0 1.1a7.44 7.44 0 0 0 2.62 0 1.07 1.07 0 0 0 -.1-1.1 4.69 4.69 0 0 0 -2.52.02zm4.46-.11c-.16.26 0 1.1 0 1.1l3.25.11c.15 0 .31-.95 0-1.1a12.4 12.4 0 0 0 -3.25-.09zm-27.16-26c-.26.15-.52.89-.63 3.19a4.86 4.86 0 0 0 1 3.57c.1.1 1.2 0 1.15-.37s-.2-.64-.58-2.23a13.52 13.52 0 0 1 -.15-4c0-.41-.53-.3-.79-.14zm.89-5.46c0 .32 1.21.9 1.36.58a8.9 8.9 0 0 1 .9-1.83c.57-.84 1.36-1.73 1.41-1.94s-.52-.84-.73-.95-.58.11-1.42 1.26a9.35 9.35 0 0 0 -1.52 2.9zm7.5-6.44c.52-.06.73-.48 2-1.32a18 18 0 0 1 3.41-1.31c.16-.15.1-1-.16-1.1a7.31 7.31 0 0 0 -2.78.68 33.87 33.87 0 0 0 -3 1.84c-.31.28 0 1.28.53 1.23zm13.47-2.35c1.21.32 2.41 1 2.78 1.05s.58-.31.68-.57-.42-1.26-2.36-1.58a14 14 0 0 0 -3.56-.31c-.21.21.05.73.21 1.05s1.05 0 2.25.36zm10.12 4.1c-.31-.21-1.1.47-1.1.47.79.63 2.46 3.82 2.62 4s.79-.21 1-.37 0-.26-.63-1.52a9.73 9.73 0 0 0 -1.89-2.58zm3.34 10.9c-.06.84-.32 3.25-.27 3.67s1 .47 1.31.26.27-3.62.21-3.83-1.25-.1-1.25-.1zm-5 14.84a3.71 3.71 0 0 0 1.79-1.52c.62-1 1.67-2.31 1.57-2.62a.73.73 0 0 0 -.84-.42s-.52.63-1.1 1.41-2 1.94-2 2.26.3.94.58.89zm-8.14 2.16c-.32 0-.37 1-.21 1.15s.63.16 2.41-.1a6.83 6.83 0 0 0 2.83-.79 2.26 2.26 0 0 0 -.21-1.1c-.1-.21-1.15.31-2.67.58a10.43 10.43 0 0 1 -2.15.26zm-11.17 0c.16.37.89.47 2.15.79a10.48 10.48 0 0 0 3.35.41c.27-.15.37-1 .27-1.15a24.23 24.23 0 0 0 -2.57-.42c-1.84-.36-2.41-.84-2.78-.84-.21.04-.58.88-.42 1.21zm-4.35-2.52c.05-.26-1.31-.94-2.15-1.57s-1.41-2.22-1.57-2.31c-.32-.15-1.21.11-1.26.42a3.88 3.88 0 0 0 1 2.31 9.6 9.6 0 0 0 2.89 1.89c.51.19 1.04-.44 1.09-.7z" fill="#fff"/></svg>