<svg height="64" viewBox="0 0 64 64" width="64" xmlns="http://www.w3.org/2000/svg"><path d="m53.8 2.08c-.37-.37-2.5.59-3.15 1.32s-5.13 10.92-7.48 19.71-5.17 20.8-5.17 20.8-30.55-2.12-31.28-2-1.42 1.49-1.5 2.44 1 12.9 8.06 16 15 1.32 18.61-.51a15 15 0 0 0 5.35-4.84c.22-.08.66.65 1.39.36s1-.51.73-1-1-1.91-.58-2.13 1.32-.29 1.32-1a5.65 5.65 0 0 0 -.52-1.69c-.07-.36 0-1.53.3-1.53s1.31-.44 1.39-.88a3.19 3.19 0 0 0 -.44-1.84c-.29-.29 1.76-11.94 5.93-23.95s5.64-15.23 6.6-15.23 3.22 4.54 3.81 4.62 1.61-.74 1.61-1.18-4.62-7.1-4.98-7.47zm-16.59 47.11a8 8 0 0 0 -1.88-1.54c-.29 0-.58.51-.58 1s1.22 1.45 2 2.13a16.29 16.29 0 0 1 -1 2.26 12.65 12.65 0 0 0 -2.3-2.7c-.37-.08-.73.44-.73.73a25.38 25.38 0 0 0 2.41 3 12.18 12.18 0 0 1 -1.3 1.68c-.92-1.23-3-3.61-3.24-3.55s-.73.44-.73.73a36.52 36.52 0 0 0 3.08 3.68 10.16 10.16 0 0 1 -1.85 1.25c-.7-1.06-2.35-3.17-2.7-3.17s-.95 0-.87.44a25.35 25.35 0 0 0 2.36 3.27q-.7.26-1.41.48c-.73-1.07-2.15-3.09-2.42-3.09s-1.1 0-1.1.44a17.37 17.37 0 0 0 2.13 3 23.5 23.5 0 0 1 -2.48.46 25.17 25.17 0 0 0 -2.07-2.84c-.22-.15-.73.07-.88.59-.1.35.89 1.61 1.53 2.38-4.35.27-8.54-.8-11.27-3.48-4.27-4.15-4.71-11.18-4.34-12.06.17-.41 30 1.76 30.11 2a10.59 10.59 0 0 1 -.47 2.91z" fill="#fff"/></svg>