<svg height="64" viewBox="0 0 64 64" width="64" xmlns="http://www.w3.org/2000/svg"><path d="m9 13.91c-.07.25-.1 6.71-.1 6.71a10.14 10.14 0 0 1 -1.64.25c-.14-.07-.14-6.75-.21-6.92a2.12 2.12 0 0 0 -1.5.05c-.14.21 0 6.71 0 6.85a8.42 8.42 0 0 1 -1.86-.21s-.28-6.57-.41-6.85-1 .07-1 .07a91.32 91.32 0 0 0 -.28 9.52c.11 1.19 3 3.67 3.08 3.84s-1.45 22.18-1.45 23.2.77 1.64 2.13 1.64 1.78-.21 2-1.08 0-23.62 0-23.62a3.12 3.12 0 0 0 1.15-.94 8.05 8.05 0 0 0 1.61-2.62c.14-.77.14-9.47 0-9.71s-1.41-.42-1.52-.18zm-2.23 36.65a2.71 2.71 0 0 1 -1.43 0c-.38-.1-.52 0-.59-.73s1.01-16.04 1.25-18.35.38-2.93.52-3.07.46-.1.46.14.02 21.87-.21 22.01zm1-25.68c-.63.81-1.29 1.26-2.3.74s-2-2.9-1.93-3.92c0-.21 1 .21 2.52.32s2.76-.18 2.79 0a7.16 7.16 0 0 1 -1.1 2.86zm29.81-13.31c-7.23-2.09-14.58 1.55-17.43 3.11-5.41 2.94-9.39 10.9-9 18.24s4.09 15 11.74 18.65 18.34 1.75 23.93-4.12 7.58-12.3 6.08-19.74-8.09-14.04-15.32-16.14zm3.08 36.82a18.15 18.15 0 0 1 -19.32-1.78c-5-3.88-7.44-9.82-6.71-16.91s5.17-12.05 11.37-14.77c2.25-1 9.61-2.52 14.67.8s9.54 8.7 9.89 15.51a18.6 18.6 0 0 1 -9.9 17.15zm-20.19-19.28a3.72 3.72 0 0 0 4.71-1.29 1.84 1.84 0 0 0 1.33.9c1 .18 4.51.25 4.89-2.82a3.44 3.44 0 0 0 -2.24-3.9 1.91 1.91 0 0 0 .56-1.22c.14-.91 0-4.27-4.19-3.39s-3.11 4.4-3.11 4.4a4 4 0 0 0 -3.56 1.64c-1.22 1.57-1.4 4.32 1.61 5.68zm9.71-4.19a2.28 2.28 0 0 1 -2.27 2.79c-1.33.14-1.68-.35-1.85-.66s.9-2.17.24-3.32a4.22 4.22 0 0 1 1.43-.66 2.06 2.06 0 0 1 2.45 1.85zm-4.18-6.47a2.14 2.14 0 0 1 2.62 2.73c-.25.42-.88.49-1.58.8a7.45 7.45 0 0 0 -1.67.84c-.28.28-1.23-1.29-2.1-1.54-.5-.13-.18-2.44 2.73-2.83zm-4.45 4.65a3 3 0 0 1 3.39 1.36 3.18 3.18 0 0 1 -1.5 3.78c-1.37.55-3.64.28-4.13-1.37s0-3.04 2.24-3.77zm11-.91a2.54 2.54 0 0 0 3-1 2.07 2.07 0 0 0 -1.7-3.19c-2.1-.14-3 1.15-3 2.06a2.28 2.28 0 0 0 1.67 2.13zm-.14-3a1.63 1.63 0 0 1 2.41.67c.28 1.05-.6 1.46-1.68 1.39a1.19 1.19 0 0 1 -.76-2.1zm13.66 10.81a2.77 2.77 0 0 0 .7-.46 3.71 3.71 0 0 0 1.15-2.83 3.13 3.13 0 0 0 -1.78-2.9c-.38 0-1 .63-1.61.7s-2.48.39-2.69.39-.14.45-.83-.46a4 4 0 0 1 -.49-2.65c0-.53.17-.39-.49-.53s-1.54.28-3.18 1.82a4.27 4.27 0 0 0 -1.47 3.28c-1.71-.38-4.33.49-3.56 3.22s4.37 1.85 4.37 1.85a4.54 4.54 0 0 0 .55 2.55c.7 1 3 .7 3 .7s.11 1.33.14 1.54a3.83 3.83 0 0 0 1.82 2.55c1.54.94 2.51-1.23 2.51-1.23a2.09 2.09 0 0 0 2.69.25c1.68-1 .39-3.25.39-3.25s.31 0 1-1.82-2.22-2.72-2.22-2.72zm-4.85-3.74a5.06 5.06 0 0 1 3-.84c.46-.07 1.51-.31 1.51-.17a9.36 9.36 0 0 1 -1.68 1.95c-.66.56-.87.7-.8.91a1.11 1.11 0 0 0 .59.49 13.89 13.89 0 0 0 1.71-1.43c.74-.67.91-1.15 1-1.15a2.48 2.48 0 0 1 -.25 2.37 3 3 0 0 1 -1.75 1.33c-.35.1-1.85 0-3.49.1a6.77 6.77 0 0 1 -2.27-.1 11.49 11.49 0 0 1 2.43-3.51zm-4.65 3.91a5.67 5.67 0 0 1 -3.25-.38c-.91-.63-.77-2.31 1.4-2.48.67-.06 2.06 1.5 2.09 2s.11.74-.24.81zm.14-2.79c-.52-.39-1.19-1-.18-2.24a17 17 0 0 1 2.17-2.2c.45-.38.84-.91.87-.52s0 2.06.49 2.55.56.66.49.87-.87.59-1.6 1.33a5.78 5.78 0 0 0 -1.12 1.6 5.85 5.85 0 0 0 -1.12-1.44zm10.29 6.24c-.49.38-1.71.41-1.64.76a1.17 1.17 0 0 0 .66.84c.32.11.91.77.67 1.29s-.67 1-1.4.53-1.05-1.54-1.5-1.57-.6.14-.6.63.28 1.39-.56 1.6-1.67-1.15-1.81-1.6.45-1.72-.32-2.31-2.51-.28-2.93-.49-.39-1.08-.28-1.26a3.87 3.87 0 0 1 2.62-1.18 14.19 14.19 0 0 1 4.19-.18c.07.18-.49.66 0 .8s2.06 0 2.68.35a1.18 1.18 0 0 1 .22 1.79zm-17-.88c-2.69-1-5-1.57-6.74-1.26-4.23.77-4.71 6.08-4.37 8.14s2.62 4.23 4.93 5.07a14.13 14.13 0 0 1 4 2.27 9.34 9.34 0 0 0 4.15 1.4c1.89.35 3.53-.42 5.49-2.59a6.21 6.21 0 0 0 .94-7c-1.1-1.94-5.78-5.05-8.47-6.03zm7.93 9.82a5.46 5.46 0 0 1 -6.29 4.44c-2.79-.62-4.4-2.72-6.25-3.28s-4.33-1.22-5.17-3.49-.35-6.95 3-7.65c.94-.2 4.79-.35 9.15 2.51s5.95 4.67 5.49 7.47zm-13.48-6.74c-2.06.66-1 3.24.59 3.7s3.18-.46 2.87-1.92-2.85-1.98-3.46-1.78zm2.37 2.18c-.17.35-.17.83-1.15.59s-2.41-1.4-.8-1.82c.64-.16.38.56 1.08.74s1.05.16.87.49zm35.25-26.22c-.14-.8-1.85-1.53-2.34-1s-5.1 13.41-5.28 14.14a3.09 3.09 0 0 0 .28 2c.32.38 1.89.8 2.14 1s-.18 21.1-.14 22.15.62 2.69 2 2.48 2-.25 2.17-1.26 1.31-38.7 1.17-39.51zm-2.38 39.51a2.55 2.55 0 0 1 -1.6-.07c-.53-.21 0-24.1-.21-24.49s-1.57-.45-1.88-.73-.17-.94-.07-1.19c.3-.69 4.09-12.22 4.33-12.36s.6-.25.63.14-1.02 38.56-1.2 38.7z" fill="#fff"/></svg>