<svg height="64" viewBox="0 0 64 64" width="64" xmlns="http://www.w3.org/2000/svg"><path d="m24 45.66c.38.13.68-.25.85-.42s-.89-1.78-1.11-1.87-.64.11-.67.3.54 1.86.93 1.99zm2.41-1.78c.13-.25-.67-1.48-.93-1.52s-.89.42-.89.42c.13.21.72 1.48.89 1.65s.8-.29.92-.55zm32.21 0c-.38-5.84-5.68-9.53-5.68-9.53l-.38-21.91a2.18 2.18 0 0 0 .93.25 4.8 4.8 0 0 0 4.16-2c1.22-1.86 1.35-7.79-3.19-8.64a4.89 4.89 0 0 0 -5.76 3.31 43.57 43.57 0 0 0 -8.06 1.4c-6 1.4-16.61 4-16.61 4a9.32 9.32 0 0 0 -7.08.09c-4.11 1.57-4.95 3.64-5 4.7s1.48 3.44 2.5 5.13 3.55 1.32 3.55 1.32a1.93 1.93 0 0 1 -1.23.26 12.59 12.59 0 0 0 -7.16 1.78 7.8 7.8 0 0 0 -4.24 6.44c0 1.31 3.22 6.14 4.24 7s4.2.93 4.2.93a10.12 10.12 0 0 0 -1.36 3.27c-.25 1.56-.13 7.28 6.57 9.79a12.53 12.53 0 0 0 11.78-1.66 18.89 18.89 0 0 0 7.67 10.39 12.22 12.22 0 0 0 15.61-2.2 19.53 19.53 0 0 0 4.53-14.08zm-2.08-38.88c2.75 4.57-1.61 6.86-2.55 6.82a1.71 1.71 0 0 1 -1.27-.47l.17-.8s1.1-.47.47-2-2.59-3.6-3.82-3.39c-.15.01 4.24-4.76 7-.16zm-8.86 21.85c.19.12 2.19 1.34 3.35 2v.88a14.23 14.23 0 0 0 -3.03-1.73c-.43 0-.3.8-.3.8.18.13 2.18 1.34 3.34 2v.89a16.79 16.79 0 0 0 -3.59-2.1c-.42 0-.29.8-.29.8.22.15 2.95 1.8 3.86 2.26a4.44 4.44 0 0 1 -.05.84 19.92 19.92 0 0 0 -5.63-.68 29 29 0 0 0 -5.39.59s4.16-12 4.41-12.33 6.27-8.22 6.49-8 .17 5.19.2 10.25a9 9 0 0 0 -2.37-1.35c-.42 0-.29.8-.29.8.18.13 1.72 1.1 2.67 1.64v1.32a11.87 11.87 0 0 0 -2.84-1.6c-.43 0-.3.81-.3.81.2.13 2.16 1.31 3.14 1.83v1a14.17 14.17 0 0 0 -3.06-1.77c-.45.08-.32.85-.32.85zm-24.11 1.31s9.15-5.3 9.15-5.13-9 10.13-9.37 10.17.65-2.54.22-5.04zm13.56-7.33c.17-.13 8.39-5 8.43-4.83s-13.94 19.24-14.07 19.11-.68-2.67-5.13-2.71c-.13 0 10.64-11.4 10.77-11.57zm4.23 4.45c.43-.13 0 .46 0 .46s-3.22 8.52-3.64 8.73a16.74 16.74 0 0 0 -2 1.19c-.72.47-1.72 1.34-1.72 1.34a8.66 8.66 0 0 1 -.76-1.14s7.7-10.46 8.12-10.58zm.26-16.83a19.61 19.61 0 0 1 5.51-.93c.25.13-.13.89 0 1.27s.29.64.13.68-9.07 1.53-14.37 2.37-7.33 1-7.33 1l-.17-.64s13.18-2.94 16.23-3.75zm-16.27 8.44a12.1 12.1 0 0 0 .08-2.25c.17-.08 15.89-2.5 15.89-2.25a69.47 69.47 0 0 1 -6.48 2.67c-3.69 1.32-9.84 4.24-9.84 4.24s.18-1.4.35-2.41zm14.28-1.78c6.74-2.93 10.59-5.22 10.85-5.17s.5.21.42.33-14.83 8.61-21 12.13-6.44 3.72-6.44 3.72a3.2 3.2 0 0 0 -2.46-3s11.89-5.12 18.63-8.01zm-25.94.25c-.15-.27.85-2 4.37-2.88s5 0 5 .38-2.21 2.14-2.21 2.14-.46-1.15-2.58-.64-2.12 1.4-2.12 1.4-1.99.41-2.46-.4zm2.67 4.92a7.34 7.34 0 0 1 -1.82-2.84 10.54 10.54 0 0 0 4.58-.13c3.05-.59 4.53-2.25 4.78-2s-.21 3.13-.46 3.52-1.4 1-3.43 1.39a6.57 6.57 0 0 1 -3.65.06zm-8.77 10.38c-.6-1.1 1.14-4.58 6-6s8.06.85 7.93 2.08-1.61 2.71-4.41 4.07a10.31 10.31 0 0 1 -1.26.5 16 16 0 0 0 -1.26-2.23c2.93-.93 5.26-.59 5.38-1a2.83 2.83 0 0 0 .13-.8 14.71 14.71 0 0 0 -5.76.63 9.45 9.45 0 0 0 -4.92 3.78 2 2 0 0 1 -1.83-1.03zm5.28-.82a8.45 8.45 0 0 1 .8-.44c.26.56.87 1.63 1.19 2.16-.29.07-.56.13-.83.17a17.5 17.5 0 0 0 -1.16-1.89zm.21 2a14.14 14.14 0 0 1 -2.19.1 4.44 4.44 0 0 1 1.19-1.54 17.08 17.08 0 0 0 1 1.47zm-1.64 4.3a34.77 34.77 0 0 1 -2.44-2.73 9.85 9.85 0 0 0 7.29-.12 26.51 26.51 0 0 0 5.84-3.39 15.47 15.47 0 0 1 -.59 3.17 9.27 9.27 0 0 1 -5.26 2.93c-2.76.51-4.62.34-4.84.17zm3 7.8c-.72-2.25 2-6.19 2.33-6.36a12.68 12.68 0 0 0 3.35-1.1 13.37 13.37 0 0 0 2.5-1.61s4.45-.77 6.44.68 2.54 2.62 1.87 4.7a7.12 7.12 0 0 0 -4.58-2.54 9 9 0 0 0 -7.67 3.56 7.05 7.05 0 0 0 -1.68 5.15 3.37 3.37 0 0 1 -2.59-2.42zm7.16-3.82a6.6 6.6 0 0 1 7.46.13 3.11 3.11 0 0 1 1 1.06 10.49 10.49 0 0 1 -4.11 4 12.12 12.12 0 0 1 -2.16 1 13.17 13.17 0 0 0 -1.57-2.49c-.21-.13-.85.38-.89.51a21.13 21.13 0 0 0 1.35 2.29 7.68 7.68 0 0 1 -.9.15 11.14 11.14 0 0 0 -1.68-2.53c-.21 0-.72.47-.81.77a6.85 6.85 0 0 0 1.11 1.82 12 12 0 0 1 -2.16-.26 6.49 6.49 0 0 1 3.33-6.42zm.72 9.92c-3.43-.09-3.64-1.53-3.64-1.53a11.71 11.71 0 0 0 8-1.61 17.92 17.92 0 0 0 6.4-7 6.6 6.6 0 0 1 -1.4 6.4 11.54 11.54 0 0 1 -9.39 3.77zm12.63 2.46a11.07 11.07 0 0 1 -2.1-4.5 8.12 8.12 0 0 0 2.37-5.59c.13-3.65-.47-4.2-.47-4.2a14.43 14.43 0 0 1 11.32-3.47c7.29.67 9 5.5 9.36 7.2a7.51 7.51 0 0 1 -.17 3.47s-1.26-5.47-4.83-7.29a10.49 10.49 0 0 0 -10.43.68c-2.59 1.82-5 5.42-4.92 8.94s4.5 7.26 4.5 7.26a7.5 7.5 0 0 1 -4.66-2.47zm18.14-1.72a7.82 7.82 0 0 1 -.63.95 38.81 38.81 0 0 0 -3.14-4.28 1.35 1.35 0 0 0 -.89.55c0 .15 2.45 3.57 3.21 4.61a6.91 6.91 0 0 1 -.6.5 31.55 31.55 0 0 0 -3.36-4.11c-.3 0-.59.51-.51.72s2.18 2.94 3 4a7.65 7.65 0 0 1 -.86.39 22.27 22.27 0 0 0 -2.66-3.4c-.34-.16-.68.22-.76.47a23.26 23.26 0 0 0 2.2 3.33l-.67.17a12 12 0 0 0 -2.59-3c-.43 0-.43.34-.47.59a18.56 18.56 0 0 0 2 2.65c-2 .31-3.95.28-5-.28a8.35 8.35 0 0 1 -4.7-6.64c-.38-4.66 2.84-8.39 7.8-9.06s8.73 1.86 9.41 6.14a9.39 9.39 0 0 1 -.3 4.55 38 38 0 0 0 -2.67-3.33 1.93 1.93 0 0 0 -.93.51 36.08 36.08 0 0 0 3.09 4zm-1.4 6.72a11.35 11.35 0 0 1 -10 2.24 5.13 5.13 0 0 1 -3.64-2.71s5.55.89 9.66-.3 8.05-6.06 8.05-6.06a12.14 12.14 0 0 1 -4.1 6.86z" fill="#fff"/></svg>