<svg height="64" viewBox="0 0 64 64" width="64" xmlns="http://www.w3.org/2000/svg"><path d="m61.91 16.16c-.11-3.06-.42-5.81-3.39-6.24s-45.36-1.27-51.6-.84-4.51 4.77-4.86 8.77c-.32 3.6.1 28.87.31 31.3s.21 5.19 2.12 5.29 17.45 1 33.52.43 22.21-.43 23.26-2.44.73-33.2.64-36.27zm-3.18 31.2c-.74-.94-1.59-1.88-1.92-1.88-.64 0-.64.48-.56.87a26.52 26.52 0 0 0 2.28 3c-.17 1.39-.34 2.26-.53 2.35a1.35 1.35 0 0 1 -.36.1c-.64-1.55-3-5.2-3.61-5.52s-1 .4-.87.8 2.26 3.49 3.21 4.85l-1.37.07a29.75 29.75 0 0 0 -3.22-4.37c-.32-.16-1 .72-1 1.35.06.47 1.65 2.21 2.46 3.08h-2.4a10.9 10.9 0 0 0 -1.65-2.56c-.47-.4-1.35.39-1.35.63a13.88 13.88 0 0 0 1.17 2c-6.78.06-16 0-22.29-.1-10.72-.13-19.38-.44-20.43-.87s-1.38-37.85-.85-39c.4-.88 12.37-.1 28.34-.1s23.37.32 24.64 1.06a2.44 2.44 0 0 1 1.48 2.43c.1.89-.36 22.45-1.17 31.81zm-49.27-32c.16-.36 1.9-.36 2.14-.36s1-.8.71-1.27-3.09-.4-4-.16-.31 3.2-.31 3.76c0 0 1 .07 1.27-.32s.03-1.35.19-1.67zm34.54 21.87c-.64-.47-4-2.46-3.33-5.39s3.8-4.28 4.2-4.76-.2-8.08-.87-8.25-28.32-.32-31.73-.16-2.93 4.44-2.85 7.14c0 0 .24 12.45.16 15.63s.79 4.52 2.61 4.44 32.36-.16 32.84-.48.16-4.84.08-6.26-.52-1.43-1.11-1.91zm-.44 6.77c-.4.16-31.25.16-31.72.08a2 2 0 0 1 -1.11-1.42c0-.4.31-16.18.39-17.77s.48-4.36 1.67-4.52 29.5-.24 30.14.08.47 6.18.47 6.18a6.34 6.34 0 0 0 -4.6 6c-.31 5.08 4.6 5.87 4.68 6.66s.52 4.52.08 4.71zm-27.56-9.23c-.71-.31-1 .69-.79.88.55.47 3.49 4.28 4 4.6s.8.31 1.35-.32-3.88-4.84-4.56-5.16zm1.51-5.27c-.76-.28-1 .67-.95.83.12.32 7.41 8.49 7.57 8.57s.4-.12.56-.36-6.47-8.76-7.22-9.04zm3.73-3.5c-.36-.08-1.06.65-1 .87.16.52 9.92 12.06 9.92 12.06a1.45 1.45 0 0 0 .43-.56c.08-.27-9-12.28-9.35-12.37zm14 11.62c0-.24-7.25-11.38-7.53-11.62s-1.47.24-1.07.71c.2.24 7.53 11.23 8.17 11.34s.38-.18.42-.42zm-2.7-13.51c-.36-.16-1.64.61-1.59.91a42 42 0 0 0 5 5c.55.2.27 0 .51-.27s-3.57-5.49-3.92-5.64zm14.63-5.95c0 .35-.4 26.57-.16 26.84s1.11.16 1.31-.07.28-26.45.08-26.93-1.26-.07-1.23.16zm7.1 2.06a3.31 3.31 0 0 0 -3.17 2.93c0 1.11.59 3.57 3 3.57a3 3 0 0 0 3.33-3.13 3.16 3.16 0 0 0 -3.16-3.37zm-.1 5.32a2.06 2.06 0 0 1 -1.92-2.27 2.1 2.1 0 0 1 2-1.87 2 2 0 0 1 2 2.15 1.92 1.92 0 0 1 -2.08 1.99zm-.17 9.64a2.94 2.94 0 0 0 -2.82 2.6c0 1 .53 3.17 2.68 3.17a2.68 2.68 0 0 0 3-2.78 2.81 2.81 0 0 0 -2.86-2.99zm0 4.47c-1.18 0-1.49-1.2-1.47-1.74a1.63 1.63 0 0 1 1.47-1.43 1.55 1.55 0 0 1 1.55 1.64 1.48 1.48 0 0 1 -1.55 1.53z" fill="#fff"/></svg>