<svg height="64" viewBox="0 0 64 64" width="64" xmlns="http://www.w3.org/2000/svg"><path d="m62 24.87c-.51-2.24-4.45-4.61-9.66-8a67.59 67.59 0 0 0 -11.6-6.1 7.52 7.52 0 0 0 -3.8.22c-.65.32-7.93 4.64-10.68 6.25s-19.26 11.07-20.87 12.16c-3.27 2.27-3.7 4.24-3.39 5.67s4.07 4.85 8.25 7.6 13.14 9.82 14.6 10.44 4.49-.11 4.49-.11.94 0 2 0a6 6 0 0 0 3.92-2 3.89 3.89 0 0 0 .91-2.45 29.67 29.67 0 0 1 3.7-3.1 11 11 0 0 1 1.81-.06 6.27 6.27 0 0 0 4.2-1.72c1.84-1.51 1.51-2.86 1.86-3.54a6 6 0 0 1 2.4-2.48 11 11 0 0 1 2.94-.21 6.45 6.45 0 0 0 3.54-2.27 2.61 2.61 0 0 0 .48-2.18 18.06 18.06 0 0 0 2.54-2.4c1.47-1.7 2.82-3.48 2.36-5.72zm-28.08 26.13c-1.78 1.34-4 1.26-4.1 1 0 0 3.11-1.89 3.75-2.32s1.73-1.22 1.84-1.08.29 1.09-1.49 2.4zm12.33-8.8a10.45 10.45 0 0 1 -3.61 2.43c-.49.08-1.3-.22-1.08-.49s5.34-4.14 5.44-4.06a5.35 5.35 0 0 1 -.75 2.16zm9.75-7.54a6.92 6.92 0 0 1 -3.08 2c-.59.06-1.24-.13-1-.3s4.31-3.1 4.48-3 .13.52-.4 1.3zm4.34-8.14c-.34 1.86-3.34 4.72-6.89 7.33s-10.22 7.15-14.81 10.39-9.09 6.42-11.08 7-3.64-.67-5-1.46-12.8-9.35-15.34-11.4-3.56-3.53-3.48-4.45a4.34 4.34 0 0 1 1.65-2.48c1-.86 7-4 13.62-8s16.91-10.15 17.91-10.58a5.25 5.25 0 0 1 4-.08 103.24 103.24 0 0 1 12.36 6.93c5.16 3.28 7.46 4.94 7.08 6.8zm-36.79 5.8c-.25-2.11-3.55-3.75-6.55-3.75s-5.65.71-7.15 1.94c-2.05 1.67-2.48 3.26-1 5.69s7.22 2.8 10.32 1.92 4.67-3.7 4.4-5.8zm-3.11 2.91c-.21.57-2.23 1.48-5.07 1.37s-4.29-.4-4.21-1.18c0-.3 1.11-1.78 4.1-1.94s5.42 1.18 5.2 1.75zm.92-.57a.68.68 0 0 1 -.46-.21c-.05-.08-.91-1.78-4.29-1.89s-5.36 1.35-5.69 1.83-.75.68-.54 1a1.69 1.69 0 0 1 -.19-2.78 8.71 8.71 0 0 1 6.42-2.11c2.35.06 4.7 1 5.13 2.24a1.63 1.63 0 0 1 -.36 1.92zm-6.16 6.15c-.18.08-.59.35-.51.73s2.64 1.92 2.64 1.92a1.71 1.71 0 0 0 .44-.54 7.77 7.77 0 0 0 -2.57-2.11zm13-3c-5 1.07-6.88 4-7 4.55-.51 3.51 1.46 4.86 5 5.05a13.92 13.92 0 0 0 8.8-2.09c2.69-1.7 2.45-3.37 2.13-4.43s-3.96-4.12-8.98-3.04zm.57 7.84c-3.13.19-4-.48-4-1s1.41-2.38 4.35-2.59 5 1 5 1.53-2.27 1.92-5.4 2.1zm6.23-2.52s-1-2.13-5-2.05-6 2.13-6.31 3.62c0 0-1.48-.6-.48-2.24s2.75-2.54 6-2.89 5.91.49 6.18 1.78a1.66 1.66 0 0 1 -.39 1.78zm-7.87-10.68a.54.54 0 0 0 -.7.3 10.19 10.19 0 0 0 1.69 2.48.49.49 0 0 0 .65-.22 8.57 8.57 0 0 0 -1.64-2.56zm3.18 2.55a11.88 11.88 0 0 0 -1.59-2.83.57.57 0 0 0 -.62.27c0 .24 1.56 2.72 1.56 2.72s.6-.01.65-.16zm1.13-1.13a6 6 0 0 0 -.91-2.49c-.27-.13-.73 0-.65.22a18.06 18.06 0 0 0 1.12 2.4c.2.28.31 0 .44-.17zm-3.56-4c3.91-.16 5.77-2.16 6.29-3.8s-.17-2.57-1.17-3.63-3.35-1.72-5.91-1.37-4.83 1.93-5.47 3.21a2.89 2.89 0 0 0 -.21 2.8c.59 1.03 2.59 2.86 6.47 2.7zm-.08-1.94c-1.94.16-3.4-.16-3.51-.65-.05-.22 1.49-1.62 3.54-1.7s3.59.3 3.56.81-1.65 1.29-3.59 1.45zm-4.69-2.7c.81-1.23 2.83-2.23 5.53-2.23s3.77.78 4 1.64-.32 1.46-.48 1.43-.49-1.73-4.18-1.27-4.71 1.72-4.68 2.2c.01.17-1-.67-.19-1.86zm13.46-.94a10.42 10.42 0 0 0 8.06-1.86c1.16-1.16 2.11-3.3 1.14-5.16s-5.59-2.37-9-1.32-4.09 3.63-3.77 4.96c.11.78.76 2.5 3.57 3.29zm2.69-1.65c-2.45 0-3.74-.51-3.83-1.27a6.6 6.6 0 0 1 4.13-1.56c2.51-.19 4.07.59 4.1.84s-1.94 1.87-4.4 1.9zm-1.26-5.35c3.8-1.08 5.74 0 6.17.92a2 2 0 0 1 .08 1.64s-.89-1.18-3.85-1.1a10.66 10.66 0 0 0 -5.67 1.83s-.54-2.21 3.27-3.29zm17.64 5.4c-2-1.33-7.17-.73-8.26-.19-2.4 1.18-3.26 3.75-2.64 5.2s2.56 3.29 6 3.4 6.18-1.62 6.83-3.34a4.18 4.18 0 0 0 -1.93-5.07zm-4.43 6.63c-2.5-.08-3.93-1.16-4-1.62 0-.26 1-1.67 4.21-1.62s3.91 1.25 3.88 1.43a5 5 0 0 1 -4.09 1.81zm4.43-2.67s-.7-1.51-4.37-1.46-4.48 2-4.48 2a1.48 1.48 0 0 1 .13-2 5.79 5.79 0 0 1 4.37-1.64c2-.06 3.57.19 4.24 1.53s.11 1.57.11 1.57zm-11.64 2.64a12.15 12.15 0 0 0 -7.49 1c-1.51.81-3.02 2.71-2.51 4.86s3.05 4 7.63 3.77 6.56-4.1 6.53-5.58-1.61-3.51-4.16-4.05zm-3.34 7.94c-3-.06-3.8-.84-4-1.57 0 0 .78-1.91 4.37-2.1s4.29 1.62 4.29 1.72a5.63 5.63 0 0 1 -4.68 1.95zm5.34-2.68s-1.14-1.94-4.48-1.94a8.42 8.42 0 0 0 -5.52 2.27s-1.4-1.3 1-2.73a9.44 9.44 0 0 1 7-1.1 3.34 3.34 0 0 1 2.51 2.53 1.44 1.44 0 0 1 -.51.97zm-8.12-8.36a.41.41 0 0 0 -.57.19c-.08.35 1 1.51 1.11 1.51s.24-.05.35-.32-.67-1.22-.88-1.38zm1.16-.43a6.86 6.86 0 0 0 1.27 2.08c.24.13.37 0 .54-.19s-.81-1.94-1.06-2-.69-.05-.74.11zm1.83-.43a10 10 0 0 0 .9 1.67c.19.16.46-.08.57-.24s-.67-1.43-.84-1.54-.62-.06-.62.11z" fill="#fff"/></svg>