<svg height="64" viewBox="0 0 64 64" width="64" xmlns="http://www.w3.org/2000/svg"><path d="m61.43 14c-.71-9.08-4.19-6.79-11.38-7.35s-28.83-.23-36.05.35-10.32 1.71-11 2.58-1.3 6.08-1 17.62 1.44 20.7 2.7 23.46 6.09 2.53 6.09 2.53c.08.32.94 4 1.42 4.27s4.42.16 5-.08 2.79-3.79 2.79-3.79l26.15.23s1.42 3.16 2 3.4a21.43 21.43 0 0 0 5.53-.32c.55-.23 2.61-4.26 2.61-4.26a17.26 17.26 0 0 0 2.37-.4 3.88 3.88 0 0 0 3-2.76c.64-1.74.48-26.39-.23-35.48zm-44.72 42.19c-.63 0-3.79-.16-3.79-.16l-.47-2.68c.31.08 5.84.08 5.84.31s-.95 2.53-1.58 2.53zm36-.31c-.24.08-3.63.15-3.63.15l-1.19-2.76c.24.08 6.4-.32 6.32-.08a14.56 14.56 0 0 1 -1.47 2.69zm4-17.81a17.64 17.64 0 0 0 2.77 2.23c0 1 0 1.87-.09 2.71a12.41 12.41 0 0 0 -2.79-2.14c-.63-.16-.36.36-.58.79s2.14 2.15 3.26 3c-.09 1.07-.19 2-.31 2.77-1.09-1.21-3-3.16-3.37-3.16s-.42.84-.37 1 2.28 2.4 3.48 3.6a2.34 2.34 0 0 1 -.36 1.13 5.19 5.19 0 0 1 -1.24.22 17.71 17.71 0 0 0 -3.11-3.61c-.32-.11-.95.58-.95.79a26.17 26.17 0 0 0 2.32 3l-2.13.17a13.56 13.56 0 0 0 -2.14-2.91 1 1 0 0 0 -.95.58 9.59 9.59 0 0 0 1.66 2.43l-2.08.14c-.34-.65-1.32-2-1.32-2a1.13 1.13 0 0 0 -.89.37c-.28.32.38 1.25.76 1.77-4.78.29-10.53.58-15.51.76-10.77.29-23.09-.89-24.27-1.28s-2.37-1.9-2.93-8.3-.47-20.23-.57-23.23c-.12-4.66-.24-7.9 3-8.61s14.32-1.66 26.57-1.29 21.88-.4 23.23 1.89c1.07 1.83 1.44 12.49 1.62 20.54a4.86 4.86 0 0 0 -1.86-.63c-.26.11-.26.37-.16.9s1.4 1 2.05 1.27v2.09a16.37 16.37 0 0 0 -2.1-1.2c-.26-.11-.47.63-.47.95a15 15 0 0 0 2.66 2.19v1.83a10.46 10.46 0 0 0 -2.54-1.76c-.34 0-.39.58-.23 1zm-4-13.72s.24-5.29-1.58-6-6.4-.87-14.78-.87-14.53.16-19.59 1.1-4.35 4-4.74 4c-.63.08-3 .87-3.08 2.69s3 2.29 3 2.29 0 2.85.08 9 1.5 8.06 2.77 9.08 4.61 1.23 12.35 1.36a165.3 165.3 0 0 0 20.31-1c5.37-.63 5.84-3.32 5.92-4.26s-.23-12.8-.23-12.8a12.11 12.11 0 0 0 1.5-.24c.63-.16 2-1.66 1.66-2.77s-3.48-1.58-3.48-1.58zm-38.71-3.16c.71-1 5.29-2.37 14-2.53s19.36.16 21.49.56 2.37 3 2.45 4.34a24.58 24.58 0 0 1 -.08 3.08l-2-.08a3.6 3.6 0 0 0 -.79-3.16c-1.27-1.26-1.74-1.34-4-1.34s-8.54-.08-9.48.16a4.11 4.11 0 0 0 -2.37 1.9 6.88 6.88 0 0 0 -.32 2.13s-6.24.39-12 .08-7.19-1.27-7.19-1.27c0-.31-.39-2.92.29-3.87zm24 4.66a3.21 3.21 0 0 0 -1.26-2.47s7.63-.11 8.64-.11 2.52.53 2.84 1.21.16 15.54 0 16-1.84 1.21-3.85 1.31a38.55 38.55 0 0 1 -6.37-.24c-.19-.16.18-14.17.07-15.7zm-3.48 3.22a8.3 8.3 0 0 1 2.06.1c.05.16.42 10.69.1 10.8s-2 .11-2.16-.16.07-10.74.07-10.74zm-.21-2.85s.16-1.53.64-1.95.84-.42 1.15-.15.43 2.37.43 2.37zm17.69 15.54c-.32.63-1.26 3.11-6.9 3.53s-20.75.58-24.6.26-4.63-.31-5.74-2.47a19 19 0 0 1 -1.53-6.38c.06-.42 0-8.9 0-8.9s7.32.79 12.85 1 7.06.21 7.06.21 0 10.38.05 10.85.48 1.37 1.37 1.43 2.37.05 2.37.05a1.29 1.29 0 0 0 .58 1.32c.74.36 3.53.42 6.74.36s5.11-1.63 5.32-2 .32-12 .32-12a1.81 1.81 0 0 0 1 .15 10.14 10.14 0 0 1 1.32 0s.14 11.96-.21 12.59zm-34.63-5.27c-.32-.15-.92.46-.84.64a58.49 58.49 0 0 0 3.47 5.16c.16 0 .37-.16.48-.79s-2.79-4.85-3.11-5.01zm3.37-3.58c-.42 0-1.16.74-1.16.74.11.32 5.8 6.58 6.11 6.53s.58-.1.64-.53-5.17-6.65-5.59-6.74zm5.74-2c-.47-.06-1.16.84-1.16.84a72.54 72.54 0 0 0 5 5.58c.37.11.58-.26.68-.73s-4-5.69-4.52-5.74zm2.58-6.32c.21.05.53-.32.74-.69s-.8-1.9-1.21-2.1-1.35.44-1.16.58 1.42 2.1 1.63 2.16zm-16.8-8.22a2.46 2.46 0 0 0 3.37-.53c.63-1 .85-2.84-.63-3.26s-3.43-.14-3.84 1.31a2.32 2.32 0 0 0 1.1 2.43zm7.74-1.1a4 4 0 0 0 3.27.26c1.05-.53 1.63-2.63.26-3.32a3.34 3.34 0 0 0 -3.31.58c-.74.53-.85 2.11-.22 2.48z" fill="#fff"/></svg>