<svg height="64" viewBox="0 0 64 64" width="64" xmlns="http://www.w3.org/2000/svg"><path d="m61.31 30.14a2 2 0 0 0 .75-1.76c-.05-.74-4.13-6-4.52-6.27a9.89 9.89 0 0 0 -2.54-.31 7.59 7.59 0 0 0 -1.14-1.49 4.8 4.8 0 0 0 -3.38-1.63c-1.49 0-10.88-.13-10.88-.13a2.51 2.51 0 0 0 -1.8-2.41 15.1 15.1 0 0 0 -8.83 0c-4.21 1.14-4.3 3-4.3 3s-1.53 0-4.34.18a52.13 52.13 0 0 0 -7.33 1 23.8 23.8 0 0 0 -3.47 3c-.08.13-1.53 0-2.28.26s-4.65 4-5.18 5.36a1.45 1.45 0 0 0 .79 1.88 6.84 6.84 0 0 0 -.86 2.79c-.05 1.49 2 1.8 2 1.8s4.26 9.78 5.8 11.05 5 2.16 11.8 2.07 30.1-.53 32.29-1.06a6.6 6.6 0 0 0 4.79-4.3 21.53 21.53 0 0 0 1.18-5.88 2.5 2.5 0 0 0 .88-.61 3.46 3.46 0 0 0 1.1-2.24 26.36 26.36 0 0 0 -1.1-3.73zm-34.5-8.25c-.61-1.8-.87-3.07.93-3.95s4.91-1.05 7.41-1 3.47 1.28 2.86 2.55a36.91 36.91 0 0 1 -2.15 3.95c-.36.39-.53.74.08.92s.79 0 .79 0 .22-.4 1.1-.4 2.33 0 2.5.88-1.18 1.45-5.13 1.85a51.2 51.2 0 0 1 -10.23 0c-2-.26-2.63-1.23-1.62-2.1a7.19 7.19 0 0 1 2.76-1.5s.89 1.61 2.2 1.91 1.4-.31 1.4-.31a5.68 5.68 0 0 1 -2.9-2.8zm29.89 19.66c0 .12-.06.33-.12.59a6.71 6.71 0 0 0 -1.2-1.34c-.26-.08-.65.22-.74.49s1 1.38 1.53 2a3.17 3.17 0 0 1 -.66.84 8.71 8.71 0 0 0 -2-2.28.75.75 0 0 0 -.79.44 13.2 13.2 0 0 0 1.71 2.51 5.13 5.13 0 0 1 -1.12.33 13.78 13.78 0 0 0 -2-2.54c-.31-.17-.7 0-1 .35s.77 1.57 1.38 2.38l-1.41.16a9.11 9.11 0 0 0 -1.96-2.48c-.4-.09-1 .57-1 .57l1.58 2a148 148 0 0 1 -20.14.69c-12.65-.26-14.67-.26-16.76-1.26s-4.5-7.62-4.28-8a181.69 181.69 0 0 0 23.44 1.7c14.35.08 25.72-.84 25.89-.66a13.11 13.11 0 0 1 -.35 3.51zm2.72-13c-.26.35-1.8 1-1.62 1.32s1.53 3.38 1.4 4.16-1.58 1.67-2.89 1.76-16.94.61-26.47.75a129.75 129.75 0 0 1 -21.24-1.49c-2.68-.48-3.55-1.49-3.6-2a2 2 0 0 1 .31-1.23c.18-.22 1-1.71.79-2s-1.49-.7-1.36-1a18 18 0 0 1 3.26-3.33c.44-.09 3.16-.18 3.78-1.06a7.52 7.52 0 0 1 1.88-2.1c.57-.31 5.36-.75 8.47-.92s3.21 0 3.21 0l.26.79a11.38 11.38 0 0 0 -3.51 2c-1.41 1.27.31 2.9 2 3.42s5.53.62 10.71.4 6.8-2.11 6.93-3.21-1.73-1.91-2.67-1.96l-1.62-.08a11.28 11.28 0 0 1 1.4-1.72c.26-.08 12.51 0 12.77.14s2.28 2.81 2.59 2.81a19.86 19.86 0 0 1 2.28.13c.35.17 3.21 4.08 2.94 4.43zm-45-3.64c-.39 0-3.11 4.47-3.11 4.47-.13.31 1.1.71 1.45.49a29.08 29.08 0 0 0 2.45-4.39c.02-.26-.42-.56-.82-.56zm20.54-5.4c0-.35-.26-.26-.65-.26a16.43 16.43 0 0 1 -3.12.48c-1.41 0-1.8-.57-1.8-.57a3.25 3.25 0 0 0 -1.1-.05c-.48.22-.39.57-.17.84s.17 1 3.16 1 3.65-1.08 3.65-1.43zm3.69 14.13c-11.76 0-17-.13-17-.13-.17-.09-.13 1 .09 1.18s6 0 16.24.09 14.73-.78 14.82-.91a1 1 0 0 0 -.14-.83 112.11 112.11 0 0 1 -14.04.61z" fill="#fff"/></svg>