<svg height="64" viewBox="0 0 64 64" width="64" xmlns="http://www.w3.org/2000/svg"><path d="m59.25 7.85c-3-2.54-8.24-3.6-13.55-4.14s-18.7-.71-26.95.94-12.07 2.94-14.75 5.12a5.38 5.38 0 0 0 -1.2 7.17c1.12 1.92 3.7 1.83 3.7 1.83s4.59 9.8 9.54 19.42 12.11 21.81 12.74 22.19 1.78.58 3-.63 6.63-10.11 9.62-14.56 8-11.72 11.09-16.89a115.52 115.52 0 0 0 5.91-11.49 7.25 7.25 0 0 0 1-.18 3.42 3.42 0 0 0 2.36-2.49c.61-1.88.52-3.75-2.51-6.29zm-13.25 26.29c-5.52 8.64-13.59 22-14.39 22.76s-1.16 1.34-2.14.05-9.78-16.95-13.75-24.42a121.74 121.74 0 0 1 -6.5-13.85c0-.91 6.68-3.52 10.11-3.16s3.7 2.27 6.73 1.78 6.28-3.3 9.22-2.85 2.27 2.76 6.46 2.54 6-2 8.51-1.74 3.25 1.29 4.23 1.47 1.29.36 1.34.53-4.32 8.25-9.82 16.89zm13.43-21.21c-.34 1-3 1.6-4.83 1.45a15.06 15.06 0 0 0 -.16-3.32 1 1 0 0 0 -1-.09 16.16 16.16 0 0 0 .34 3.27h-.08a12.51 12.51 0 0 1 -2.11-1.1 15.26 15.26 0 0 0 -.83-3.66 1.09 1.09 0 0 0 -1.11.09 19.45 19.45 0 0 0 1 3.25 4.61 4.61 0 0 0 -1.32-.05l-.53.08a14.31 14.31 0 0 0 -1.48-3.51c-.26-.08-.75 0-.89.23a19.51 19.51 0 0 0 1.43 3.43c-.43.1-.89.23-1.35.35a16.74 16.74 0 0 0 -2.1-3.52c-.31-.18-.58.09-.84.49s1.26 2.53 1.83 3.35l-1.23.33a13.55 13.55 0 0 0 -2.47-3.32c-.58-.41-.58.22-.67.57s1.44 2.33 2 3a4.78 4.78 0 0 1 -1.87.1c-1.65-.4-3.57-2.71-6.06-2.76s-7.66 2.85-9.4 3-2.76-2.59-7.93-1.75-7.77 3.26-10.33 3.52-3.61-2.18-1.87-4.5c1.14-1.52 7.57-3.69 17.43-5.34s24.37-.63 29.81 1.16 7.02 4.14 6.62 5.25zm-44.29 7.8c-.49.44-.22 1.91.32 2.36a7.46 7.46 0 0 0 4.36.53c1.38-.31 2.67-2.22 1.18-3.62s-4.68-.34-5.86.73zm2.63 2.09c-1.82-.22-3.29-1.29-.44-2.31 1-.35 2.71-.05 3.07.8s-.8 1.74-2.63 1.51zm19.29-2.67a2.34 2.34 0 0 0 -3-1.87c-1.56.71-1.65 2.58-.14 3.65a1.93 1.93 0 0 0 3.14-1.78zm-1.06.76c-.44 1-1.69.44-2.05-.14s-.17-1.78.81-1.69c.56.05 1.68.85 1.24 1.83zm13.59-2.77a1.81 1.81 0 0 0 -.23 2.86 1.2 1.2 0 0 0 2-.31c.18-.4-.4-.4-1.07-.62s-.09-1 .49-1.12 1.78.4 1.74-.27-2.02-1.36-2.94-.54zm-16.05 8.86c-.4-4-5.29-5-7.21-3.88-4.46 2.49-4 5.08-1.25 8s8.86-.19 8.46-4.12zm-6.54-2.89c1.27-.54 5 .41 5.21 3.08s-3.52 4.81-6 3.34-3.4-4.59.79-6.42zm15-2.11c-1.43.89-3.66 3.07-3.74 5.16s2.13 3.43 5.16 3.17 4.9-3.66 4.24-6.33-4.22-2.92-5.66-2zm-1 7c-2.23-1.39-1.52-4.55 2.09-6.37 1.16-.59 3.65.44 3.65 2.89s-3.49 4.79-5.74 3.41zm-18.28 5.05a1.9 1.9 0 0 0 -.36 3 2.16 2.16 0 0 0 3.16-1.2 2 2 0 0 0 -2.8-1.8zm1.69 1.69a.78.78 0 0 1 -1.41.36.8.8 0 0 1 .31-1.29.77.77 0 0 1 1.1.93zm12.83-2.27a1.35 1.35 0 0 0 .09 2.27 1.51 1.51 0 0 0 2.27-1.11c0-1.07-1.6-1.63-2.36-1.16zm-8 5.21c-2.68 2.67-2.19 4.81-1.56 6.46s4.18 2.23 5.74 1.07 3.12-4.45 2.19-6.33-5.23-2.31-6.34-1.2zm4.41 6.06a3 3 0 0 1 -4.68.13c-1.43-1.69-.71-4.41 1.42-5.61a3.85 3.85 0 0 1 4.1.85c.88.98-.01 3.38-.81 4.63zm-3.45 4.41c-1.25.85-1.56 2.41-.4 3.25a1.83 1.83 0 0 0 2.85-1.51 1.68 1.68 0 0 0 -2.45-1.74zm.16 2.42a.92.92 0 0 1 .19-1.57.8.8 0 0 1 1.16.83.87.87 0 0 1 -1.35.74z" fill="#fff"/></svg>