<svg height="64" viewBox="0 0 64 64" width="64" xmlns="http://www.w3.org/2000/svg"><path d="m49 6.3c-.16-2.59-.74-3.81-2.81-4.07s-24.9-.37-27.7-.23a3.64 3.64 0 0 0 -3.55 3.82c-.06 1.43.16 16.79.21 18.54s2.28 3.64 2.28 3.64-1.91.9-2.12 1.85.21 26.17.26 28.45.37 3.66 2.07 3.76 24.47-.1 27.39-.1 3.81-.64 3.81-2.07-.16-27.39-.21-28.55a10.89 10.89 0 0 0 -1.33-3.34 11.25 11.25 0 0 0 1.59-2.65c.16-.82.27-16.45.11-19.05zm-31.57 1a2.35 2.35 0 0 1 1.9-2.65c1.22-.16 25.38.11 26.07.21s1.21 1 1.21 2v12.06a24.87 24.87 0 0 0 -2.61-1.39c-.16 0-.53.48-.43 1s2.12 1.33 3.09 1.78v1.93a18.47 18.47 0 0 0 -3.86-2.49c-.43.05-.59.69-.53.84s3.18 2.25 4.37 3a12 12 0 0 1 -.08 1.47l-.09.16a45.83 45.83 0 0 0 -5.58-3.45c-.21 0-.64.48-.58.74s3.33 2.49 4.88 3.49a4.93 4.93 0 0 1 -1.28.15h-1.53a28.7 28.7 0 0 0 -4.67-3.06c-.47-.06-.52.37-.37.79a18.71 18.71 0 0 0 2.75 2.27c-6.4 0-18.47-.08-19.48 0a2.8 2.8 0 0 1 -2.87-1.91c-.21-1.14-.31-16.93-.31-16.93zm29.27 48.18c-1-.87-2.92-2.51-3.32-2.51s-.69.27-.63.64a31.68 31.68 0 0 0 3.94 3.2 16.4 16.4 0 0 1 -.09 1.94 61.87 61.87 0 0 0 -4.91-3.82c-.16 0-.8.53-.69 1a34.9 34.9 0 0 0 4.08 3.4c-.65.09-1.51.18-2.57.25a20 20 0 0 0 -3.52-3 .56.56 0 0 0 -.48.9 16.47 16.47 0 0 0 2.31 2.17c-2.08.11-4.67.2-7.71.26a95 95 0 0 1 -13-.32 2.3 2.3 0 0 1 -2-1.32c-.11-.64-.21-27.07-.21-27.07a2.34 2.34 0 0 1 2.12-2c1.38 0 24.9-.37 25.43 0a3.3 3.3 0 0 1 .9 2.06c0 .32.28 12.17.34 20.26-.58-.55-1.36-1.17-1.56-1.13s-1 .21-.69.9a9.68 9.68 0 0 0 2.26 2.07q.02 1.15 0 2.12zm-22.33-47.27c.47-.05.16-1 .1-1.27s-3.12-.11-3.55-.11c0 0-.05 1.28.27 1.43a16.27 16.27 0 0 0 3.18-.05zm-1 12.45c.48-.37.32-9.43.21-9.64a8.22 8.22 0 0 0 -3-.11c-.11.22-.11 9.54.05 9.8a3.92 3.92 0 0 0 2.73-.05zm20.91-7.26a24.59 24.59 0 0 0 -.05-4.92 1.37 1.37 0 0 0 -1.06-.11s0 4.4.11 4.77.79.32 1 .26zm-23.2 20.29c0 .32-.16 9.54.37 10.07a1.7 1.7 0 0 0 2.17-.32c.38-.53.27-9.38-.15-10s-2.3-.26-2.39.25zm5.25-1.91c-.22.16-.06 1.17.26 1.33a35 35 0 0 0 5.35-.11 1 1 0 0 0 0-1 18.31 18.31 0 0 0 -5.61-.22zm17.9-.26c-.16-.32-1.11-.28-1.11.05 0 .16 0 7.47.05 7.68s.9.16 1.11 0a51.9 51.9 0 0 0 -.05-7.73z" fill="#fff"/></svg>