<svg height="64" viewBox="0 0 64 64" width="64" xmlns="http://www.w3.org/2000/svg"><path d="m19.36 34.86c-.34-.12-1.06.5-.93.59.5.34 3.19 3.46 3.31 3.58s.9-.4.77-1.14-2.81-2.89-3.15-3.03zm41.7-25.16a3.36 3.36 0 0 0 -4.06-.81 38.46 38.46 0 0 0 -5.23 3.44 13.73 13.73 0 0 0 -2.41-1.15 5.56 5.56 0 0 0 -3.4 0 104.42 104.42 0 0 0 -11.56 7.36c-5.4 3.99-18.5 13.35-21.75 15.79s-5.47 4.83-5.78 6.16.81 5.41.81 5.41-3 2.25-4.3 3.49-1.7 2.61-1.27 3.61 2.13 2.69 3.4 2.38 5-3.87 5-3.87a6.14 6.14 0 0 0 1.88 1.86 5.37 5.37 0 0 0 4.15 1.3c1.79-.19 2-.56 4.14-2s9.09-6.43 14.19-10.45 15.46-11.41 16.33-12.22 4.11-3.43 4.54-5.44a19.54 19.54 0 0 0 -.15-5.56s3.95-2.41 5.44-4.63 1.23-3.31.03-4.67zm-55.95 43.52c-.77 0-1.21-1.3-.87-2 .11-.21 8.32-6.8 8.54-6.83s1.08.71.83 1.27-7.73 7.56-8.5 7.56zm14.62-2.87a5 5 0 0 1 -4.08 2.07c-1.51-.16-3.52-2.57-3.37-2.94s3.93-3.09 3.8-3.62a12.06 12.06 0 0 0 -2.5-3.49c-.87-.68-1.86.34-2.44.74s-1.83 1.58-1.83 1.58-.86-3.25-.31-4.48 2.79-2.82 4.15-2.54a8.59 8.59 0 0 1 6.43 5.75c1.48 4.33 1.26 5.63.15 6.93zm30.11-28.44a26.71 26.71 0 0 0 4 1.85 6 6 0 0 1 -.17.93 1.86 1.86 0 0 1 -.28.54 32.53 32.53 0 0 0 -4-1.9c-.27 0-.4.53-.37.74a31.89 31.89 0 0 0 3.85 1.79c-.3.28-.66.58-1.06.89a14.24 14.24 0 0 0 -2.91-1.44c-.19 0-.62.37-.65.71s1.91 1.05 2.7 1.36l-1.14.81a20.58 20.58 0 0 0 -2.61-1.12c-.28-.06-.74.4-.74.74s1.72.8 2.49 1l-.87.69a20.94 20.94 0 0 0 -2.36-1.08c-.19-.06-.44.62-.41.8a9.45 9.45 0 0 0 2 .9c-2.7 2.23-9.7 7.54-14.16 10.91-4.8 3.62-9 6.71-9.8 7.36a13 13 0 0 0 -1.05.9 12.43 12.43 0 0 0 -2.3-9.85c-3.59-4.36-6.28-3.84-6.28-3.84s16.83-12.33 23.28-16.81 9.87-5.91 10.8-5.79a6.6 6.6 0 0 1 5 4 14 14 0 0 1 .88 3c-1-.44-3.34-1.44-3.44-1.44s-.12.68-.06.83a40.06 40.06 0 0 0 3.67 1.75 14.19 14.19 0 0 1 .08 1.67c-.93-.46-3.78-1.81-3.93-1.81s-.16.66-.16.91zm5.07-4.85a10.89 10.89 0 0 0 -1.83-3.65s4.67-3 5.23-3 1.76.62 1.61 1.67-5.01 4.98-5.01 4.98z" fill="#fff"/></svg>