<svg height="64" viewBox="0 0 64 64" width="64" xmlns="http://www.w3.org/2000/svg"><path d="m16.58 34.76c.62-.22.84-2 3.75-4.72a15.51 15.51 0 0 1 5.87-3.31c.36-.26.27-.66-.09-1s-1.89-.58-5.78 2.11-5.07 5.7-5 6.05.67 1.11 1.25.87zm45.42 15.51c-.07-2.84-.8-2.91-1.53-3.11a24.85 24.85 0 0 0 -3.6-.16 70.31 70.31 0 0 0 -1.65-13.9c-1.59-6.46-4.64-10.3-10.92-13.34s-9.54-2.52-9.54-2.52l-.06-2.38a16.06 16.06 0 0 1 1.65-.13 2.88 2.88 0 0 0 1.92-.86c.4-.47.4-2.65.2-4.44s-1.72-1.65-3.84-1.79-6.75-.26-8 .2-1.63 3.78-1.53 4.83a2.12 2.12 0 0 0 1.32 2 15.64 15.64 0 0 0 2.39.27l.08 2.8s-2.2-.09-8.73 3.09-8.65 6.25-11.92 12.78a21.41 21.41 0 0 0 -1.59 13.33s-.15-.11-1.54.16a3 3 0 0 0 -2.58 1.65 9.36 9.36 0 0 0 -.53 4.77c.13 1.85 1.25 2.84 2.05 2.91s3.57.13 23.9-.26 30.71-.4 31.51-.47 1.92-.26 2.25-.79.39-1.79.29-4.64zm-34.74-37.62c-.41-.13-.17-2.78.13-3s3.4-.27 5.65-.27 3.4.09 3.53.53.18 2.52-.17 2.78a51.59 51.59 0 0 1 -9.14-.04zm6.4 4.72a29.07 29.07 0 0 1 -3.4.18 18.06 18.06 0 0 1 0-2.73c.13-.14 3.26-.23 3.35.08a9.26 9.26 0 0 1 .05 2.47zm-23.34 17.75a23.85 23.85 0 0 1 11.51-12.32c6.18-3.22 11.26-3.31 17.61-2.42 3.9.54 7.34 3.08 9.76 6.26a7.55 7.55 0 0 0 -1.68.18c-.13.09.26.75.66.93a6 6 0 0 0 1.79 0 19.42 19.42 0 0 1 1.19 2.07 7.07 7.07 0 0 0 -2.27-.24c-.27.14 0 .89.22 1a21.38 21.38 0 0 0 2.61.45 15.67 15.67 0 0 1 .69 2 27.69 27.69 0 0 0 -3.13-.72c-.26 0-.13.66.09 1.06s2.41.88 3.41 1.12c.14.56.26 1.11.38 1.65a29.61 29.61 0 0 0 -3.39-1c-.27 0-.35.44-.22.83s2.67 1.19 3.9 1.6c.15.77.28 1.51.39 2.2-1.23-.6-3.79-1.64-4-1.68s-.31.71-.17.84 3.34 1.75 4.41 2.3c.12.9.21 1.7.26 2.36a34.53 34.53 0 0 0 -4.89-2.5c-.49 0-.49.8-.31 1s4 2 5.26 2.66v.47 1.36a62.88 62.88 0 0 0 -6-3.21.49.49 0 0 0 -.44.75 45.53 45.53 0 0 0 4.04 2.88l-3.07-.11a37.55 37.55 0 0 0 -3.14-2.32s-.79.12-.79.43a8.87 8.87 0 0 0 1.63 1.77c-4.56-.13-10.83-.25-17.74-.18-13.55.13-19.51.26-19.73 0a21.77 21.77 0 0 1 1.16-11.47zm49 18.31c-.36.18-14.22 0-31.74.35s-22.81.66-23 .4-.71-4.18.42-4.85c.56-.34 14.29-.49 25.15-.67s29 .67 29.39.93.16 3.66-.19 3.84zm-52.05-2.43c-.31.09-.26 1 0 1.19a9.74 9.74 0 0 0 3 0c.22-.14.13-.89-.09-1.11a10.26 10.26 0 0 0 -2.91-.08z" fill="#fff"/></svg>