<svg height="64" viewBox="0 0 64 64" width="64" xmlns="http://www.w3.org/2000/svg"><path d="m6.6 37.73c-.55.18-.49 5.08-.19 6 .09.27.74.32 1.06.13s.13-4.25.13-4.62 1.65-.14 1.79-.14.36-.77.14-1.14-2.38-.41-2.93-.23zm5.81 14.27c-.18-.23-.94-.18-1.05-.1a8.21 8.21 0 0 0 -.1 2.84 3.64 3.64 0 0 0 1.33 2.43 1 1 0 0 0 1.15-.41c.13-.32-.64-.83-1.15-1.74s0-2.83-.18-3.02zm3-22.66c.37-.18.37-.73.19-1.1s-2.35-.16-2.7-.05-.32.83 0 1.06a5.38 5.38 0 0 0 2.48.06zm-1-5a1 1 0 0 0 1.33-1.46 2.1 2.1 0 0 0 -2.15-.05c-.27.25-.45 1.08.83 1.49zm7.23-5.77c-.27-.41-1.46-.37-1.73-.09-.42.41 0 1.88.27 2.2a.7.7 0 0 0 .92.27c.46-.15.83-1.95.55-2.4zm5.77 4.35c.14-.69-1.31-1.23-1.42-1s-1 1.79-.5 2.11 1.79-.44 1.93-1.13zm5.49 3.66c.23-.32-.32-1.55-1-1.64s-1.21.67-1.51.82-.36.73.18 1.1a2.8 2.8 0 0 0 2.34-.3zm-2.1 2.15c-.28.1-.18.51 0 .74a6 6 0 0 0 2.06 1c.46.05.78-.77.78-1.23s-2.34-.69-2.83-.53zm-4.9 2.43c-.09-.55-1-.55-1.28-.23a.65.65 0 0 0 -.05 1c.98.54 1.43-.24 1.34-.79zm-6.54.14c-.37 0-1.63.85-1.42 1.19a.86.86 0 0 0 .91.36 1.32 1.32 0 0 0 1.15-.79c.33-.55-.27-.83-.63-.78zm38.17-3.57c2.06-3 4-8.84 4.12-14.83s-2-10.44-2.47-10.71-1.47-.55-3.16.77a28.94 28.94 0 0 1 -6.72 3.65c-2.93 1.23-7.41 3.75-7.41 3.75a9.25 9.25 0 0 0 -.65-1.42 7.1 7.1 0 0 0 -3.52-3c-1.83-.78-4-2.11-4.85-2.25a1.23 1.23 0 0 0 -1.47 1.18 16.12 16.12 0 0 1 -1.92 4.62 8.32 8.32 0 0 0 -1 4.71 26.41 26.41 0 0 0 -8.69-.13c-4.62.73-10 3.66-11.49 9.88s.55 9.48.55 9.48-2.34.09-3.71.09-2.56.64-2.7 1.24-.23 11.3.64 13.5 4 2 4 2 0 1.1.42 4.58a8.79 8.79 0 0 0 3.11 6.22c1.28 1.1 2.84 1.06 8.1.92s21.79 0 25.63 0 6.18.41 7.83-.92a9.52 9.52 0 0 0 3.16-5.26 23.57 23.57 0 0 0 .45-5.63 9.23 9.23 0 0 0 2.66-.27c1.37-.37 1.88-1.7 2.29-2.8s.27-12.71.27-13.85-.23-1.7-.82-1.74-5.72 0-5.72 0a21.34 21.34 0 0 0 3.08-3.8zm-26.17-16.82c1.19-1.79 1.74-2.56 1.83-3.11s0-.83.55-1a5.27 5.27 0 0 1 4.16 2.1 8.63 8.63 0 0 1 2 3.15 16.3 16.3 0 0 0 -3 3.85c-1.06 2.1-1.56 3.34-1.9 2.88a7.36 7.36 0 0 0 -2.52-2.42c-1.78-1.1-2.42-1.42-2.33-1.65a8.1 8.1 0 0 1 1.21-3.8zm-9.48 17.85c-.82-.09-1.14-1.51-.13-2.29a1.33 1.33 0 0 1 2 .78c.33.91-1.04 1.6-1.87 1.51zm.28 4.16a56.7 56.7 0 0 1 -6.91.33c-.32-.11 4.48-4.08 4.89-4.08s.51.41 1 .6 1.05.32 1.05.32a11.76 11.76 0 0 1 -.03 2.83zm.78-3.24a1.52 1.52 0 0 0 .87-.37c.45-.37.32-.41.45-.37s7.46 3.16 7 3.48-7.78.5-8.19.41a18.55 18.55 0 0 1 -.13-3.15zm1.92-1.38c-.14-.14.14-1.1 0-1.19s8.88-5.22 9.24-4.94a10.44 10.44 0 0 1 1.65 5.17c.09 2.34-.41 4.58-.73 4.76a3.26 3.26 0 0 1 -1.69.18c-.14-.13-8.33-3.84-8.47-3.98zm1.6-11.49a9.71 9.71 0 0 1 3.94 1.74c1.83 1.28 3.06 2.61 2.7 2.89s-8.38 5-8.61 4.85-.68-1.05-1-1.05 2.51-8.47 2.97-8.43zm-9.15.74c.32-.37 1.64-1.06 4.16-1.06s3.62 0 3.71.37-2.18 8.24-2.56 8.47a1.72 1.72 0 0 1 -1.24.09c-.33-.22-4.38-7.51-4.07-7.87zm-4.31 2.6c1.61-1.37 2.61-2.6 3.21-2.1a63 63 0 0 1 4.39 7.83c0 .32 0 .45-.27.55s-9.52-1.93-10-2.2 1.07-2.7 2.67-4.08zm-2.7 5.09c.51 0 7.78 1.55 8.65 1.78s1.19.05 1.19.32-.14.28-.14.66.09.14 0 .37a78.65 78.65 0 0 1 -6.64 5.12h-2a6.1 6.1 0 0 1 -1.42-4.49c.06-3-.14-3.81.36-3.76zm43.4 27.41a5.24 5.24 0 0 0 -1.24-1c-.23 0-.78.5-.69.92a7.36 7.36 0 0 0 1.7 1.52 8.74 8.74 0 0 1 -.42 1.35 15.15 15.15 0 0 0 -2.7-2.44.78.78 0 0 0 -.73.64 23.52 23.52 0 0 0 2.86 3c-.27.49-.49.9-.68 1.26a17.21 17.21 0 0 0 -3.14-3.05.64.64 0 0 0 -.78.64 43.22 43.22 0 0 0 3.23 3.49 2.18 2.18 0 0 1 -1.15.69 27 27 0 0 0 -3.54-3.35c-.51-.18-.83.46-.78.73a31.8 31.8 0 0 0 2.74 2.85h-1.62a11.83 11.83 0 0 0 -2.17-2.53c-.32-.19-.87.18-1 .45s1 1.47 1.56 2.09c-3.27 0-8.13-.08-14.83 0-9.62.14-16.39.09-17 0a6.22 6.22 0 0 1 -3.3-4.3c-.5-2.52-.82-5.26-.82-5.26.32-.14 15.1-.41 25.59-.51s18.76.1 18.85.33a8.82 8.82 0 0 1 .06 2.48zm5.12-18.9c.37.64 0 12.72-.18 13.14a4.41 4.41 0 0 1 -2.75 1.23c-1.19.09-17.3-.55-27-.55s-20 .28-20.83.28-2.79.09-3.11-1.65-.46-10.35-.18-10.44c.84-.28 19.91-1 31.67-1.55s22.01-1.1 22.38-.46zm-9.47-2c-.55.09-11 0-11 0a18 18 0 0 0 .09-6.32 17.82 17.82 0 0 0 -1.7-4.39 16.66 16.66 0 0 1 6.69-8.28c5-3.16 8.23-3.67 11.07-5.63s3.07-2.48 3.39-2.25 3.45 11.12-1.17 18.25-6.82 8.56-7.37 8.65zm-15.75-18c.5 0 .32-.5.18-.68s-1-.53-1.28-.23c0 0-.27.64-.09.82s.69.13 1.19.13zm1.15 1.47c0 .36.54 0 .73-.19s.09-1.05 0-2.42a7.74 7.74 0 0 0 -.59-2.79c-.23-.23-.83 0-.83 0-.18.13.28 1 .51 2.06a27.47 27.47 0 0 1 .18 3.38zm1.55-2.43c.32.18 1.15-.73 1.42-1.33a1.1 1.1 0 0 0 -.09-1.28c-.23-.23-.18.09-.64.6s-.72.52-.83.73-.16 1.14.14 1.32zm5.49 10.25c.1-.36-.09-.36-.32-1s.14-2.93 0-3.34-.36 0-.73.09-.27.92-.27 2.47.68 2 .82 2.06a.45.45 0 0 0 .5-.24zm3.21-4.04c.23-.14.19-.69.19-1.65s.36-.91.55-1.28a1.74 1.74 0 0 0 -.19-1.33c-.18-.41-.41-1-.87-.09a12.39 12.39 0 0 0 -.32 4.44c.13.15.45.06.64-.09zm3.57-3.39c.19-.87.83-2.06 1-2.74s-.23-.87-.73-.55-1 4.07-1 4.07c.16-.17.59.1.77-.77zm3.84 4.39a5.28 5.28 0 0 1 -2.65.32c-.23 0-.14.69 0 .83a3.31 3.31 0 0 0 1.93.09 3.74 3.74 0 0 0 2.15-1.65c.16-.35-.19-.17-1.43.41zm-3 4.08a26.6 26.6 0 0 1 -2.89 0c-.22 0-.09.45.14.64a10.66 10.66 0 0 0 2.66.09 2.78 2.78 0 0 0 2.15-1.06c.21-.35-1.07.16-2.03.3zm-2 2.88a12.2 12.2 0 0 1 -2.29-.14c-.23 0-.09.73.18.92a6.19 6.19 0 0 0 2.16.13 2.74 2.74 0 0 0 2.28-1c.16-.4-1.31-.03-2.27.06zm7.19-16.3c-.32 0-.28.42-1.56 2.38s-4.43 4.6-8.04 7.8a9.81 9.81 0 0 0 -3.34 8 .78.78 0 0 0 1.19.22c.23-.27-.13-1.32.78-4.16s2.47-3.6 5.9-6.9 4.94-4.89 5.26-5.67.21-1.7-.13-1.7z" fill="#fff"/></svg>