<svg height="64" viewBox="0 0 64 64" width="64" xmlns="http://www.w3.org/2000/svg"><path d="m10.7 35.14a4 4 0 0 0 -1.44 3.26c0 1.42.53 1.58.7 1.52s0-1 .24-2.32a3.55 3.55 0 0 1 1-1.85c.04-.1-.2-.82-.5-.61zm50.59-8.54c-.67-.4-.47-1-.77-1.44s-1.88-.24-2.22-.37-.47-1.08-.74-1.28a1.91 1.91 0 0 0 -2.05.61 12.1 12.1 0 0 0 -1.75 3.29 6.35 6.35 0 0 0 -3.76-.64c-2.32.24-5.48 2.52-8.8 5.38a15.9 15.9 0 0 1 -7.2 3.43 11.48 11.48 0 0 0 .14-1.48 23.07 23.07 0 0 0 0-2.62s2.9-3.83 4.71-6.69 3.15-5.61 2.44-9.79-4.1-3.53-5.54-2.32-3.33 4.32-4.41 8.32a85.5 85.5 0 0 0 -1.71 8.54 6 6 0 0 0 -2.79 1.18 13.72 13.72 0 0 0 -2.25 3.28s-2.26-1.68-4.31-2.92a15.9 15.9 0 0 0 -7.33-2c-2.15 0-4.6 1.78-4.6 1.78s0-4.47-.07-4.78-.28-.18-.84-.08-1.18 2.28-1.18 2.28a5.2 5.2 0 0 0 -1.31 0c-.3.1-.16 1.81-.16 1.81a21.75 21.75 0 0 0 -2.53.2c-.4.14-.43.91-.06 1.28s3.39 2.43 3.39 2.43a9.12 9.12 0 0 0 -1.71 4.47c-.37 2.89 1.58 6.45 5.71 9.68s11.41 4 17.41 4.07a40.24 40.24 0 0 0 17.82-4.22c5.52-2.69 9.52-6.25 11-9.28s1-8.07 1-8.07 2.05-.57 3.43-1.14a2.83 2.83 0 0 0 1.75-1.66c.13-.3 0-.85-.71-1.25zm-27.49-8.94c1.17-2.72 2.79-5 4.94-4.1s1.75 4.41.1 7.77a59.47 59.47 0 0 1 -5.84 8.47 2.94 2.94 0 0 0 -2-.8s1.62-8.61 2.8-11.34zm-3 13.45c2.83 1.18 1.08 6.18 1 6.25s-.8-.74-1.8-.74a3.71 3.71 0 0 0 -1.48.24 2.77 2.77 0 0 0 -1.25-1.15 8.37 8.37 0 0 0 -1.68-.23s2.41-5.55 5.21-4.37zm-27.36-.11c.2-.23 1.55.11 1.88.14s.51-.24.64-.07a2.74 2.74 0 0 0 .64.41s.57-.21.5-.34-1.44-1.85-1.27-1.92.64.24.84.07.8-1.18.84-.91a19.68 19.68 0 0 1 0 3.43c-.17.24-1.21.94-1.44 1.38.03-.03-2.83-1.98-2.63-2.19zm51 2.83a4.85 4.85 0 0 1 -.08.53c-.6-.38-1.53-.85-1.74-1s-.67.61-.57.77a23.64 23.64 0 0 0 2.09 1.41 11.67 11.67 0 0 1 -.42 1.31 12.25 12.25 0 0 0 -1.72-1.3c-.31-.14-.88.53-.84.74a16.37 16.37 0 0 0 2.11 1.61c-.18.35-.39.69-.6 1a12.91 12.91 0 0 0 -2.35-1.81c-.31-.07-.48.33-.58.67s1.52 1.5 2.29 2.08a10.46 10.46 0 0 1 -.65.84 11.1 11.1 0 0 0 -2.07-1.85c-.31 0-.84.64-.84.81a19.12 19.12 0 0 0 2.15 1.85c-.32.32-.66.63-1 .94a9 9 0 0 0 -2.24-2c-.51-.1-.64.37-.71.68s1.37 1.55 2 2.12c-.23.16-.49.3-.73.46a4.85 4.85 0 0 0 -2-1.44.74.74 0 0 0 -.7.6 10.15 10.15 0 0 0 1.56 1.53c-4.58 2.48-10.64 4.83-15 5.27s-12.74-.27-16.5-1.55a16.35 16.35 0 0 1 -8.37-6.86c-1.31-2.42-.44-4.77.9-6.59 1-1.29 2.79-3.16 5.45-3.12a11.59 11.59 0 0 1 4.58.85 3.68 3.68 0 0 1 -.21 2.27c-.57 1.41-.91 2-.81 2.19s.27.43.54.33a6.86 6.86 0 0 0 1.35-3c.11-.61.18-1 .22-1.28l.62.3c.65.33 1.3.7 1.9 1a4 4 0 0 1 -.19 2c-.47 1.38-.94 1.81-.81 2.05s.21.37.37.3a11 11 0 0 0 1.58-2.69c.13-.39.21-.7.27-.93.78.48 1.31.83 1.31.83s-.47 1.8-.23 2 .61.37.77.23.51-1.06.81-1.12 2 .1 1.91 1.17-.28 1.5-.08 1.7a.9.9 0 0 0 .77.2 2.69 2.69 0 0 0 .73-1.16c.16-.53.23-1 .47-1s2.15.53 2.25.94-.33 1.69-.09 1.86a1.07 1.07 0 0 0 .91 0c.27-.1.56-.52.89-1.46l.44-1.21a10.47 10.47 0 0 0 2.11-.32 2.21 2.21 0 0 1 .61 1.26 20.78 20.78 0 0 0 .27 2.63 1 1 0 0 0 .54-.07 8.17 8.17 0 0 0 .13-3.23 7.37 7.37 0 0 0 -.3-1 15.15 15.15 0 0 0 2.42-1.06 3.38 3.38 0 0 1 1.55 1.74c.87 1.89.81 2.15 1 2.19a.56.56 0 0 0 .37-.14 7.28 7.28 0 0 0 -.4-2.65 4.34 4.34 0 0 0 -1.49-1.71c.28-.18.56-.37.85-.58s.65-.47 1-.71a5.07 5.07 0 0 1 2.63 1c1.65 1.21 2 1.17 2 1.17l.2-.3a3.72 3.72 0 0 0 -2.04-2.22 6.29 6.29 0 0 0 -1.49-.6l2.52-1.9a3.41 3.41 0 0 1 1.5 1.22 16 16 0 0 0 1.47 2 .45.45 0 0 0 .31-.07 5.57 5.57 0 0 0 -1-2.55 5.67 5.67 0 0 0 -1.31-1.27 7.16 7.16 0 0 1 3.3-1.57c1.82-.03 4.41 1.01 4.17 4.64zm6.29-6c-.17.47-3.16 1.41-3.53 1.71a2 2 0 0 1 -1 .34 3.62 3.62 0 0 0 -1.65-2.32s1.48-3.06 1.89-3 .7.23.74.53-.71 1.35-.88 1.62a.5.5 0 0 0 .17.67c.17.1.34.13.44 0a5.21 5.21 0 0 1 1.32-1.38 1.46 1.46 0 0 1 1.28.07c.54.27.07.71.3 1s1.11.21.95.68z" fill="#fff"/></svg>