<svg height="64" viewBox="0 0 64 64" width="64" xmlns="http://www.w3.org/2000/svg"><path d="m47.54 7.43c-2.23-3.22-5.82-5.43-11.19-5.49s-9.71 4.17-12.72 8.55-7.93 16.81-7.93 16.81a3.46 3.46 0 0 0 -1.37.42 35.68 35.68 0 0 0 -4 4.87 4.75 4.75 0 0 0 -.33 2.81c.2 1.28 1.24 5.58 3.22 7.43a16.57 16.57 0 0 0 8.92 4.71 13.58 13.58 0 0 0 8.59-.82c.83-.5 3.64-5.87 3.64-6.12s-.17-2.1-.17-2.1 7.19-7 10-10.54 5-6.44 5.54-9.87a14.68 14.68 0 0 0 -2.2-10.66zm-18 37.39c-.25.2-6.12 2.19-10.91-.62s-7.31-7.4-6.53-9.34c.13-.3 3.8-3.18 9.67-.29a15.78 15.78 0 0 1 7.85 9.17c.2.62.2.87-.04 1.08zm2.68-3.93a20.23 20.23 0 0 1 -1.4 3.1 17.62 17.62 0 0 0 -6.36-9c-5.25-3.76-8.8-2.85-9.79-2.52s-2.11 1.28-2.07 1a40.59 40.59 0 0 1 2.44-3.8 16.19 16.19 0 0 1 9 .82c4.09 1.74 5.66 3.56 6.78 6.45s1.61 3.5 1.44 3.95zm12.39-26.56c.26.23 2.22 2.24 3 3.15a8.31 8.31 0 0 1 -.61 2 18.43 18.43 0 0 0 -3.33-3.39c-.33-.13-.58.41-.53.7s2.58 2.89 3.34 3.75c-.24.45-.52.94-.84 1.48a20.22 20.22 0 0 0 -3.37-3.78c-.41-.09-.33.37-.37.66a41.31 41.31 0 0 0 3.17 4.1l-.58.88c-.09.14-.2.28-.3.42a31.78 31.78 0 0 0 -3.34-3.6c-.24 0-.62.29-.66.66s2.68 3.19 3.33 3.86c-.31.42-.65.84-1 1.26a44.48 44.48 0 0 0 -3.53-4c-.29-.17-.53.12-.7.58s2.89 3.6 3.55 4.28a124.65 124.65 0 0 1 -8.71 8.93 15.11 15.11 0 0 0 -6.24-7.1 14.08 14.08 0 0 0 -9.25-2.17s6.07-13.59 9.66-17.8 8.55-5.74 13.35-4a11.3 11.3 0 0 1 7 9.37c0 .55.08 1 .08 1.51-.86-.87-3.06-2.75-3.26-2.58s-.19.5.14.83zm-16.77-2.27c-.45.08-4.42 8.14-4.63 8.43a3.06 3.06 0 0 0 .75.37c.16 0 4.5-8.1 4.54-8.43s-.2-.43-.66-.37zm-9.38 22.6a1.16 1.16 0 0 0 -.28 2 1.12 1.12 0 0 0 1.82-.81 1.15 1.15 0 0 0 -1.54-1.19zm-1 4.09c-1-.17-1.24 1.85 0 2.35s1.66-.45 1.53-1.16-.9-1.09-1.52-1.19zm6.2.7c-1.86-.17-2.11 1.65-.62 2.27a1.75 1.75 0 0 0 2.48-1.16c-.03-.49-.65-1.01-1.85-1.11zm-7.72 12.14c.17-1.11-1-2.38-2.1-1.9a1.68 1.68 0 0 0 0 3.22 1.51 1.51 0 0 0 2.1-1.32zm-1.86.47a.79.79 0 0 1 0-1.52c.53-.22 1.07.37 1 .9a.71.71 0 0 1 -1 .62zm6.92 1.47a1.78 1.78 0 0 0 -.24 3.35c1.65.7 1.9-.08 2.14-1.41a1.55 1.55 0 0 0 -1.9-1.94zm0 2.47a.79.79 0 0 1 .11-1.49.69.69 0 0 1 .85.86c-.07.63-.18.95-.96.63zm-5.8 3.31c-1.57.53-1.28 1.9 0 2.56s2.19-.62 2.32-1.41-.98-1.59-2.28-1.14zm.39 1.84c-.56-.28-.68-.86 0-1.09s1 .16 1 .49a.71.71 0 0 1 -.96.61zm10.31-9.77c-.83 0-.45 1.15 0 1.4a1.32 1.32 0 0 0 1.61-.78c.08-.7-.78-.65-1.57-.61zm-10-37c.21-.09.42-.79 1.33-2.07s2.89-3.72 3-4-.29-.41-.58-.53-.37 0-1.61 1.77a43.77 43.77 0 0 0 -2.55 4.45c-.16.29.21.5.41.42zm37.51-3.1a.54.54 0 0 0 -.74.25c-.17.37 0 .45.16 2.31s.75 5.45-1.2 9.33a25.37 25.37 0 0 1 -4.17 6.12c-.16.2.58.78.79.78s.78-.33 2.6-3.14a18.34 18.34 0 0 0 3.15-8.09 30.78 30.78 0 0 0 -.59-7.52z" fill="#fff"/></svg>