<svg height="64" viewBox="0 0 64 64" width="64" xmlns="http://www.w3.org/2000/svg"><path d="m50.54 24s2.46-6 1.24-10-4.73-7.22-8.78-6.38a7.46 7.46 0 0 0 -5.26 4.81 8.41 8.41 0 0 0 -5.69-4.15 7.76 7.76 0 0 0 -6.41 1.94 7.57 7.57 0 0 0 -1.34-1.68c-1-.92-3-2.6-7.38-1.85s-7.07 5.83-6.62 10.31a8.57 8.57 0 0 0 3.22 6.31 4.32 4.32 0 0 0 -3.18 3.23c-.18 1.37.88 9.19 2.52 15.37s3.36 7.2 5.65 8.57 6.59.58 6.59.58.44 2.34.48 2.6a3.79 3.79 0 0 0 1.19 1.72 13.13 13.13 0 0 0 5.13 2.08c1.06 0 3.22 0 4.28-1.85a19.48 19.48 0 0 0 1.64-4.86s3.27 0 4.46 0a7 7 0 0 0 5.12-3c1.64-2.26 5.66-14.63 6.28-18.6a4.79 4.79 0 0 0 -3.14-5.15zm-9.14-13c1.14-.85 5.74-1.63 7.42 2.52s.53 8.22-1 9.54a4.72 4.72 0 0 1 -6.82-1.44c-1.64-2.87-2.39-8.57.4-10.62zm-3.71 12.74a13.93 13.93 0 0 0 .39-1.9l1.37 1.37a10.11 10.11 0 0 0 -1.45 1.59c-.4.66-.66 1.19-.66 1.19l-.75-.35a5.14 5.14 0 0 0 1.1-1.9zm-9-12.46a4.88 4.88 0 0 1 5.61 1.15c2.12 2.3 2.57 5.88 1.2 9.59s-3.71 3.75-5.7 3.53a5.31 5.31 0 0 1 -5-4.64c-.54-3.31.78-8.35 3.87-9.63zm-4.43 13.87.84.84-.76.44-.26-.79zm-7.78-15.15c1.83-1.32 5-.13 6.14.75a5.14 5.14 0 0 1 1.38 1.55 11.49 11.49 0 0 0 -1.6 5.34 17.51 17.51 0 0 0 .36 4.91s-3.76 2.07-6.9-.55a7.4 7.4 0 0 1 .62-12zm.52 35.34c-1.59-3.08-3.36-11.26-3.67-15s.35-4.46.66-4.77 1.46-.35 1.46-.35.27.53 3.23.66a11.85 11.85 0 0 0 3.49-.09l1.19 1.33s-2.12 2.74-1.28 8.39 2.62 13.15 2.62 13.15-5.35 1.34-7.7-3.32zm19.6 0a14.72 14.72 0 0 0 -2.37-3c-.36 0-.62.22-.84.66s2.12 3.17 2.89 4.08c-.19 1-.37 1.85-.56 2.56a27.08 27.08 0 0 0 -3-4.26c-.4-.08-.53.62-.53.89s2.35 3.48 3.22 4.68c-.16.54-.31 1-.45 1.42a33.11 33.11 0 0 0 -3-4.25c-.35-.17-.62.58-.75 1s2.2 3.1 3.28 4.38a3.25 3.25 0 0 1 -.76 1.13 27.49 27.49 0 0 0 -3-3.74c-.27-.09-.58.39-.76.79s1.53 2.29 2.43 3.31c-1.24.06-3.77-.99-4.4-2.27s-4-16.72-4-19.53 1.14-5.17 3-5.61c.52-.12 1.63.89 4.33.93a9.06 9.06 0 0 0 3.67-.44c.35-.05 3.44 1.06 3.49 2.38-.02 1.02-.92 9.05-1.92 14.94zm14.29-14.18a72.32 72.32 0 0 1 -3 9.68c-.49-1.36-1.69-4-2-3.94s-.48 1.33-.44 1.68 1.29 2.75 1.83 3.81c-.23.57-.46 1.1-.68 1.58a17.56 17.56 0 0 0 -1.72-2.69.8.8 0 0 0 -.75.75 15.29 15.29 0 0 0 1.78 3.31 5.6 5.6 0 0 1 -.46.75 4.66 4.66 0 0 1 -.38.46c-.5-1-2.06-3.31-2.31-3.24a.86.86 0 0 0 -.58.75c0 .21 1.38 2.41 2 3.38a3.59 3.59 0 0 1 -1.38.7 11.83 11.83 0 0 0 -1.91-2.71c-.31 0-.67.35-.71.66a11 11 0 0 0 1.25 2.24c-1.13 0-3.06-.25-3.06-.25s3.27-17.58 2.78-18.91a7.13 7.13 0 0 0 -1.72-2.43s.35-1.37.88-1.45 3.18 1.28 5.39 1.06 3-.58 3.54-.45 2.41 1.42 1.65 5.26zm-36.22-2a61.85 61.85 0 0 0 1.55 6.58c.22.18.44-.13.7-.26s-1.23-6.36-1.37-6.54-.91-.09-.88.19zm2-12.59c.44-1.5.62-2.25 1.11-2.7s1 .18 1.41-.08.31-.93-.09-1.37-1.63-.67-2.83 1.1-.84 4.68-.84 4.68c.12.42.83-.2 1.27-1.66zm11.18 2.87c.18-.18-.05-1.37.57-2.34s1.37-.58 1.64-.71.35-.84-.27-1.23-1.63-.4-2.43 1a4.61 4.61 0 0 0 -.17 3.27s.51.16.69-.02zm15.45-5.11c.31-.75.61-.75 1-1.06s.48-.66 0-1-1.06-.08-1.68 1a3.33 3.33 0 0 0 -.48 2.29c.14.36.86-.48 1.16-1.23z" fill="#fff"/></svg>