<svg height="64" viewBox="0 0 64 64" width="64" xmlns="http://www.w3.org/2000/svg"><path d="m31.25 50.31c.11.23 2.19 3.16 2.31 3.24s.46-.35.54-.62a16.22 16.22 0 0 0 -2.19-3.29c-.27-.23-.78.43-.66.67zm16.39-23.71s2.7-6.22.58-11-7.62-2.58-7.62-2.58.15-4.72-3.33-6.02a7.24 7.24 0 0 0 -8.37 2.55c-1.6 2.19-1.25 5.59-1.25 5.59l-.47.24a4.86 4.86 0 0 0 -.7-.9c-.43-.43-3.56-3.84-7.16-2.74s-4.85 5.75-4.74 9.58a8.94 8.94 0 0 0 2.47 6 9.05 9.05 0 0 0 -2.31 1.83c-1 1.14-.9 4-.12 7.83s2.47 10.68 2.7 11.58a4.49 4.49 0 0 0 3.17 2.73 31.75 31.75 0 0 0 5.51.31s.19 3.56 1.48 4.61 4.38 1.61 6.65 1.1a4.42 4.42 0 0 0 3.25-3.21 16 16 0 0 0 .47-3.87s1.72.15 2.62.12a6.83 6.83 0 0 0 4.89-2c2-1.92 4-12.87 4.58-16.94s-2.3-4.81-2.3-4.81zm-6.89-11.07c1.2-.87 5.2-1.17 5.87 2.7s-.63 7.16-2.27 8.06a3 3 0 0 1 -4.15-1c-.97-1.39-2.73-7.37.55-9.76zm-1.29 11.19a5.59 5.59 0 0 0 -1.17 1 4.47 4.47 0 0 1 -.47.58l-.63-.07a4.34 4.34 0 0 0 .79-2c.07-1 .15-1.56.15-1.56s.78 1.25 1.06 1.64zm-6.46-17.56c3.17-.9 5.2.74 5.43 3.09s-.27 2.66-.27 2.66a10 10 0 0 0 -.51 1.48c-.11.59-.15 1.14-.15 1.14a8 8 0 0 0 -4-3.68c-2.59-.86-3.84-.27-3.84-.27s.18-3.52 3.34-4.42zm-2.58 7a3.76 3.76 0 0 1 5 2.82c.83 3.09.36 7.15-.86 8.64s-4.1 1.33-5.75-.7-3.12-9.08 1.62-10.8zm-3.68 12-.63.11-.62-.39.31-.94zm-7.11-13.96c1.44-1 4.38.86 5.16 1.49a3.86 3.86 0 0 1 1.1 1.31 16.43 16.43 0 0 0 -1 4 9.29 9.29 0 0 0 .43 3.91 3.14 3.14 0 0 0 -1.13.86 2.66 2.66 0 0 0 -.55 1s-2 1.33-4.73-1.29-3.19-8.48.72-11.28zm1.92 35c-1.84-.59-1.92-.7-1.92-.82s-1.96-9.38-2.78-12.38-.62-4.58-.11-5.16a19.77 19.77 0 0 1 2.11-1.8 20.24 20.24 0 0 0 3.28.11 15.55 15.55 0 0 1 2.59 0 6.65 6.65 0 0 0 -1.92 3.84c-.28 2.34 2.54 16.46 2.54 16.46a9.6 9.6 0 0 1 -3.79-.24zm14.74-1.67a15.43 15.43 0 0 0 -2.29-2.86c-.31-.07-.62.28-.74.59s2.13 3 2.77 3.71c-.13.71-.24 1.37-.36 2a24.4 24.4 0 0 0 -2.67-3.71c-.32-.16-.55.39-.59.7a42 42 0 0 0 3 4.34 11.72 11.72 0 0 1 -.51 2.07 1.89 1.89 0 0 1 -1.63.81 24.66 24.66 0 0 0 -2.43-3.54c-.2-.08-.43.23-.51.5a18 18 0 0 0 1.9 3l-1.23-.02c-1.37 0-2.23-.28-2.77-2.31s-2.39-12.28-3-15.84-.74-6.77 2.66-7.12a8.74 8.74 0 0 0 4.7 1 7 7 0 0 0 3.51-.85s2.42.58 2.54 1.48c.08.52-1.24 9.52-2.35 16.06zm11.23-15.06c-.22 1.81-.69 4.74-1.27 7.47a2.72 2.72 0 0 0 -1.35-1.09.85.85 0 0 0 -.59.7 12.84 12.84 0 0 0 1.51 2.27c-.14.6-.3 1.17-.45 1.69a13.94 13.94 0 0 0 -1.72-2.63c-.28-.16-.75.31-.9.63s1.45 2.49 2.14 3.49a8.27 8.27 0 0 1 -.42 1 4.73 4.73 0 0 1 -.28.44 18.29 18.29 0 0 0 -1.76-3.1c-.19-.12-.54.11-.62.43a26.62 26.62 0 0 0 1.62 3.53 3.82 3.82 0 0 1 -.67.46 22.69 22.69 0 0 0 -1.85-3.37c-.2-.16-.82.43-.94.63a19.5 19.5 0 0 0 1.73 3.12c-.52.11-1 .12-1.26.16a7.21 7.21 0 0 1 -2-.15s1.83-11.19 2.23-14.28.19-3.48 0-3.87a3 3 0 0 0 -.83-.75l.51-.5a7.61 7.61 0 0 0 3.41.27 15.92 15.92 0 0 1 2.89-.71c.24.05 1.35.69.87 4.16zm-29.45-1a23.65 23.65 0 0 0 .5 5.79.72.72 0 0 0 .75.47s-.28-5.91-.43-6.26-.79-.19-.82-.02zm2.15-8.84c.27.08-.16-2.34 0-3.52a6.76 6.76 0 0 1 .43-1.76.35.35 0 0 0 -.51-.39c-1.25.94-.94 3.91-.82 4.38a2.41 2.41 0 0 0 .9 1.27zm9.7.94c.23-.12 0-1.41.23-2.23s.78-1 .86-1.29-.38-.59-.66-.55a1.22 1.22 0 0 0 -1.14 1.14 6.18 6.18 0 0 0 0 2.54c.16.37.47.49.71.37zm12.08-1.39c.12-.19-.11-.74 0-2s.63-1.29.63-1.57-.61-.78-.78-.62c-.59.54-.9 2.58-.75 3.4s.83.99.9.79z" fill="#fff"/></svg>