<svg height="64" viewBox="0 0 64 64" width="64" xmlns="http://www.w3.org/2000/svg"><path d="m18.28 14.58a5.07 5.07 0 0 0 3.53-.38c1.19-.81 1.47-2.23.38-3.1s-2.28-1-2.17-1.79 1.46-.38 1.79-.76a.73.73 0 0 0 0-1c-.57-.42-3.15 0-3.15 1.79s2.71 2 2.71 3-1.68 1-2.33 1-1 .21-1 .43-.04.7.24.81zm7.72-.49a4.31 4.31 0 0 0 .14-1.79 22.62 22.62 0 0 0 2.91-.36v2.75c.05.32 1.3.16 1.52-.06s-.11-5.05-.06-5.37-1.15-.38-1.37-.26v1.62a9.24 9.24 0 0 0 -3 .27c-.05-1.05-.14-2.03-.14-2.17 0-.33-1.1-.23-1.25 0s-.16 4.72-.11 5.26 1.08.27 1.36.11zm9.07.33c3-.06 4.29-2.39 3-4.51s-4.39-1.59-5.26-.27-.68 4.83 2.3 4.78zm-1-3.94a1.8 1.8 0 0 1 2.83.14c.68 1.14 0 2.4-1.63 2.43s-1.7-1.79-1.18-2.57zm7.38-.84s-.06 3.91.05 4.56.71.16 1 0-.11-4.45.06-4.83 0 0 .81-.33 2.39.44 2.5 1.09-2.28 1-2.55 1-.44.92-.33 1.3 0 0 1.19-.16a4 4 0 0 0 2.94-1.63c.81-1.09 0-2.44-2.12-2.77a7.18 7.18 0 0 0 -4.45.92 1.08 1.08 0 0 0 0 .82c.21.3.92.03.92.03zm18.8 13.52c-.43-1.41-6-6.3-6-6.3s.33-8.69.27-10.81a2.75 2.75 0 0 0 -2.82-2.82c-1.25-.11-35.4-.27-37.2-.11s-3.42 1.36-3.42 2.17.3 11.71.3 11.71-7.6 5.27-7.81 5.87-.06 11.62 0 11.89a1.9 1.9 0 0 0 1.14 1.74c1.14.54 2.87.92 3.8.16s2.33-1.79 2.33-1.79.16 21.72.44 23.24 1.19 2 6.24 2.49 28.67.39 31.76 0 4.08-1.9 4.35-2.88.65-22.86.7-23 .38-.27 1.14-.16 1 1 2.18 1.73 2.39-.38 2.66-1.14.38-10.58-.06-11.99zm-46.42-17.43c.49-.38 37.41-.54 37.79.16s.6 11.46.16 11.51-37.21-.22-38.06-.59c-.49-.22-.38-10.7.11-11.08zm-3.83 26.77c-1.42.92-2.07 1.79-2.88 1.84s-1.12.22-1.12-.21 0-9.72 0-9.72a61.17 61.17 0 0 1 6.57.22c0 .16.06 7 .06 7a5.14 5.14 0 0 0 -2.63.87zm6.84 24.81c-.38.11-2.88.22-2.88 0s.11-8.79.11-8.79l2.77.11s.41 8.57.03 8.68zm4.4.33a13.43 13.43 0 0 1 -2.94-.16c0-.17.11-8.91.11-8.91l2.77.06s.25 8.95.09 9.01zm3.85.27c-.22 0-2.6-.22-2.6-.22l-.06-9.06h2.66s.25 9.28.03 9.28zm3.91.16c-.16 0-2.71-.27-2.71-.27l.1-9.07h2.45s.35 9.34.16 9.34zm4.07-.16h-2.77v-9.28h3zm4.24.05c-.16.06-3-.1-3-.1l.06-8.8h2.71s.42 8.85.26 8.94zm10.83-2.96a8.41 8.41 0 0 0 -1.79-1.8c-.49-.22-.7.49-.6.76s1.61 1.67 2.37 2.5a4 4 0 0 1 -.12 1.34 26.6 26.6 0 0 0 -2.5-2.93c-.38-.16-.81.33-.76.65a18.2 18.2 0 0 0 2.16 2.38h-1.35a17.48 17.48 0 0 0 -1.89-2.19c-.49-.44-1 .16-1.14.43s.7 1.07 1.37 1.78c-2.45 0-5.09 0-5.17.07s-.17-15.75 0-16 8.91-.54 9.07 0c.09.35.26 5.45.31 9.76a2.89 2.89 0 0 0 -1.07-.52c-.27 0-.49.54-.38.86a6.62 6.62 0 0 0 1.46 1.24c.04.67.03 1.2.03 1.67zm2.5 2.54a3.89 3.89 0 0 1 -1.36.06l.44-9.18s1.3-.16 1.36.06 0 8.94-.44 9.1zm.76-10.2-1.74.1s.49-6.24-.65-6.84-11-.59-11.56-.16-.38 6.68-.38 6.68-7.17.22-12.76.16-10.31.1-10.31-.12-.65-12.6-.65-12.6a13.17 13.17 0 0 0 3.53 2.23c1.3.32 4-2.77 5.86-2.5s3.21 2.72 5.16 2.44 4.89-2.93 6.3-2.55 2.71 3 5.37 3 4.57-3.1 6.25-2.88 1.63 1.57 3.15 2.12 3.42-1.14 3.42-1-.99 11.96-.99 11.96zm-37.63-22.66h8.8l.05 6.79s-2.55.27-3.42 1.3-1.63 1.36-2.33 1-1.87-1.65-2.34-1.77a3.13 3.13 0 0 0 -.7-.11zm10.23.05 9.23.06.06 7a8.28 8.28 0 0 0 -2.94 1.09c-1.35.87-1.68 1.41-2.44 1.25s-1.3-1.58-2.5-2l-1.19-.38zm10.32.17 9.68.1v7.06a15.56 15.56 0 0 0 -2.17 1.31c-1 .76-1.68 1.3-2.5 1.14s-1.79-2.07-2.77-2.34l-2-.54zm18.51 6.89s-.92.55-1.73 1.09-1.42 1.14-2 .76-1-1.58-1.95-1.68-1.8-.17-1.8-.17v-6.84l7.55.11zm-45.95-8.74c-.73-.07 6.62-4.94 7.11-5s37.52.28 38.17.44 6.08 5.05 5.59 5.21-49.14-.49-50.87-.65zm49.12 8.42a16.33 16.33 0 0 0 -1.85 0l-.05-6.36h4.2l.05 7.71a5.57 5.57 0 0 0 -2.35-1.35zm-15.46 18.53c-.21.65-.43 1.69.93 1.9s1.73-.49 1.52-1.52-2.16-1.25-2.45-.38zm-18.62-11.31c-.55-.06-3.81 4-4 4.45a.7.7 0 0 0 .76.87c.44-.11 4-4.51 4.08-4.78s-.3-.49-.84-.54zm5.7 0a46.19 46.19 0 0 0 -5 5c0 .28.17.82.55.87s5.54-4.83 5.7-5.16-.98-.77-1.25-.71zm5.92.6a34.74 34.74 0 0 0 -4.24 4.56c-.05.21.17.54.71.49s4.51-4.19 4.56-4.57-.71-.59-1.03-.48z" fill="#fff"/></svg>