<svg height="64" viewBox="0 0 64 64" width="64" xmlns="http://www.w3.org/2000/svg"><path d="m17.77 25.89c.08-.38-.33-.58-.54-.58a21.65 21.65 0 0 0 -2.9 2.86c0 .08.83.49 1 .33a21.91 21.91 0 0 0 2.44-2.61zm1.95-.42c-.21.17-3.28 3.09-3.15 3.28a1.85 1.85 0 0 0 .91.29 30.15 30.15 0 0 0 3.11-3.28c-.05-.2-.67-.45-.87-.29zm2.36 3.73a19.57 19.57 0 0 0 2.57-3.4c.08-.29-.46-.41-.71-.41a33.09 33.09 0 0 0 -2.77 3.4 1.36 1.36 0 0 0 .91.41zm2 .13a25.21 25.21 0 0 0 2.94-3.4.64.64 0 0 0 -.66-.46c-.25.09-3.07 3.61-3.23 3.73a2.64 2.64 0 0 0 .98.13zm4.64-.46a17.05 17.05 0 0 0 2.28-3.11c0-.33-.34-.41-.71-.41s-2.36 3.11-2.44 3.4c-.05 0 .65.25.9.12zm2.61-.41a13.91 13.91 0 0 0 1.33-1.95c.08-.21-.42-.37-.71-.37s-1.45 2.23-1.45 2.23a1.82 1.82 0 0 0 .86.09zm-12.33-13.46c.58.2.87-.17.87-.54s-.33-.5-.7-1.37.45-2.28.66-2.86a6.18 6.18 0 0 0 0-2.9c-.25-.58-.58-.33-.79-.29s-.16.33-.08 2.07-.87 1.41-1.12 3.24a2.46 2.46 0 0 0 1.16 2.65zm5.8-.25c.21.16 1-.58 1-.87s-1.57-1.67-1.8-2.62 1-3.36 1.32-5.18a3.25 3.25 0 0 0 -1.28-3.23c-.29 0-.38.24-.5.53s.33.42.58 2.91-1.33 2.85-1.45 4.8 2.14 3.65 2.14 3.65zm3.94-.13c.46.42 1.53-.45 1.45-1.65s-.79-1.29-1.37-2.28.33-2.82.71-3.44-.09-.5-.38-.62-1.24 1.32-1.53 3 .46 2.07 1.08 2.82-.2 1.94.05 2.16zm13.37 18.13s1.93-6 1.81-8.83-8.21-7.77-21.7-7.21-19.22 4.47-19.52 6.9 2.06 12.55 2.06 12.55c-2.18.87-4 6-1.81 11.19s8.33 11.44 21.88 10.26 21.51-8.27 22.17-15.54-4.89-9.32-4.89-9.32zm-19.33 10.31c-8.33.25-12.12-3.48-14.42-5.53s-3.29-8.53-3.11-9.07 4.85 4.29 17.53 3.91 18.71-4.54 18.71-4.54-1.43 6.41-3.23 9-7.15 5.99-15.48 6.23zm11.77 1.64c-.25.33-4.1 2.74-10.86 2.82s-8.91-1.74-9.69-2.2-1.58-1.74-.33-1.49a23.31 23.31 0 0 0 10.48 1.7c6.3-.33 10.32-3.32 10.61-3.23s.04 2.07-.21 2.4zm-25.69-17.2c-.3-.5 5.59-4.6 15-4.35s13.14 4 13 4.27-3.8 2.4-14.12 2.58-13.63-2.08-13.88-2.5zm-3.65-3.64c.5-2 7-4.65 18-4.94s17.14 4.08 17.35 4.81.08 1.08-.62 1.78a7.84 7.84 0 0 1 -1.24 1s-2.82-5.47-15.38-5.3-16.16 5.79-16.08 5.96c0 0-2.53-1.28-2.03-3.31zm39.33 19.14c-1 4.73-10.9 12.85-22.59 12.39s-15.21-5.3-16.95-8.82-1-7.92.63-8.79a10.9 10.9 0 0 0 2.27 2.49c1.66 1.41 2.95 2.28 2.95 2.28s-1 1.36 2.4 3.73 5.84 2.32 11 2.28 9.91-2 11-3.07.66-4.23.66-4.23a13.8 13.8 0 0 0 3.52-2.48 12 12 0 0 0 1.87-3.44s4.27 2.94 3.24 7.66zm17.46-8.91a4.35 4.35 0 0 0 -5.51-3.89c-3 .62-4.81 3.44-5.27 6.3a9.41 9.41 0 0 0 1.2 5.59s-.58 1.12-2.77 5-6.15 9.84-6.35 11.45 1 2.65 2.9 2.61 4-.74 5.88-4.68 4.35-13.3 4.35-13.3.17.37 2.49-1.33 3.36-5.1 3.08-7.75zm-15.72 25.91c-.66.13-2.78-.12-1.82-2.19s5.92-10.37 7.54-12.94 2-3.69 2-4-3-2.78-.34-7.54a5.07 5.07 0 0 1 4.44-2.12c1.53 0 2.78 2.32 2.07 4.4a9.44 9.44 0 0 1 -3.77 4.8c-1.33.71-1.29.5-1.33.71s-3.94 11.88-5.52 14.77-2.61 3.94-3.27 4.11zm13-19.81c-2.28 2.36-3.28 2.52-3.28 2.52a69.82 69.82 0 0 1 -3.61 10.78c-2.15 4.72-3 5.67-3.73 5.67a74.42 74.42 0 0 0 4.06-8.45 72.51 72.51 0 0 0 3-9 10 10 0 0 0 3.52-2.57 12.05 12.05 0 0 0 1.95-4.1c.12-.17.25 0 .25 0a6.7 6.7 0 0 1 -2.11 5.1zm-3.89-5.67c.45-.46 1.16-.42 1.45-.59a.91.91 0 0 0 .45-.87c-.08-.24-.74-.87-1.9.13s-1.31 2-1.16 2.11.77-.38 1.21-.83z" fill="#fff"/></svg>