<svg height="64" viewBox="0 0 64 64" width="64" xmlns="http://www.w3.org/2000/svg"><path d="m41.92 4.92a2.72 2.72 0 0 0 -2.72-2.67c-.92-.09-11.87-.35-14.2-.31a2.61 2.61 0 0 0 -2.76 2.41c-.16.7-.24 10.65-.24 12.65s.17 2.76.79 3.63 5.82 4.82 6 5 0 7.4 0 7.4a3.42 3.42 0 0 0 -1.93 1.84c-.31.88-.52 20.24-.44 22a5.32 5.32 0 0 0 1.88 4.13 6.16 6.16 0 0 0 5.25.79c1.23-.57 2-1.8 2.54-6.18s.75-19.62.66-21.33-2.45-2.15-2.45-2.15 0-5.43 0-5.87.35-.65.83-1.18 3.46-2.76 4.65-3.77 2.14-2 2.14-2.84.17-11.36 0-13.55zm-7.65 43.92a14.3 14.3 0 0 0 -1.68-.73c-.39-.13-.39.66-.39 1s1.49 1 2 1.26v1.62a6.43 6.43 0 0 0 -1.82-.83c-.44 0-.52.49-.52.75a11.18 11.18 0 0 0 2.29 1.59v.29c0 .52-.07 1-.12 1.45a12.16 12.16 0 0 0 -2.42-1.49c-.26 0-.61.26-.52.87s1.91 1.38 2.71 1.8a9 9 0 0 1 -.37 1.42 12.55 12.55 0 0 0 -2.77-1.93c-.44-.09-.39.35-.48.74s1.75 1.73 2.63 2.4a.83.83 0 0 1 -.31.27 2.84 2.84 0 0 1 -3.59-2.8c-.09-3 .09-20.8.57-21.29a10 10 0 0 1 2.72-.52c.87-.13 1.88 0 2.1.44s.09 8.1-.03 13.69zm6.34-30.84c0 .79-1 1.66-1.45 2.15s-4.51 3.54-5.3 4.38a3 3 0 0 0 -.92 2.27c0 .75 0 5.17-.13 5.65s-2 .84-2.41.09c0 0 .17-6.61-.26-7.4s-5.79-5.14-6.35-6.42-.09-14.1 0-14.5.48-1 2.85-1.09 8.19.13 10.47.22 3.32.61 3.5 1.79-.05 12.09 0 12.86zm-12.84-9.62c-.79.09-1.59.21-1.62.53 0 .52-.13 5.87-.09 6.88a1.93 1.93 0 0 0 1.32 1.75c.48.09 1.71-.09 1.92-.66a67.32 67.32 0 0 0 .18-7.88c-.09-.49-.92-.7-1.71-.62zm.53 7.84a.8.8 0 0 1 -1.3-.22c-.27-.57.08-6.39.08-6.39a1.23 1.23 0 0 1 1.19.13c.25.13.38 6.18.03 6.48zm7.36-8.06c-.18.53-.27 8.5.13 9.11s2.32.27 2.63 0 .35-7.88.08-8.72-2.8-.55-2.84-.39zm1.79 8.24c-.22.13-.83.39-1 0a70.24 70.24 0 0 1 .13-7.4c.06-.31.83-.27.92-.05a61.6 61.6 0 0 1 -.05 7.45zm-4.6-10.95a2.62 2.62 0 0 0 -1.92.61c-.22.4-.36 12.09-.27 13.05s1 1.06 1.4 1.14a2.16 2.16 0 0 0 1.71-.35c.35-.39.57-13.14.48-13.53s-.35-.88-1.4-.92zm.09 13.55c-.39.22-1 .26-1.23-.09s0-11.87.31-12.35c.24-.33 1.1-.13 1.27.13s.04 12.12-.35 12.31z" fill="#fff"/></svg>