<svg height="64" viewBox="0 0 64 64" width="64" xmlns="http://www.w3.org/2000/svg"><path d="m19.1 41.63c-.35.39-.44 1.56-1 4.82s-.87 6.82-.61 7 .82.57 1.17.31.31-3.7.7-5.91 1.43-5.65 1.43-5.78-1.48-.68-1.69-.44zm-7.3-19.46a.77.77 0 0 0 -.65-1.17 2 2 0 0 0 -1.65 2.43 2.82 2.82 0 0 0 2.08 2.43c.31 0 .22-.22.26-.48s-.74-.6-.95-1.78.78-1.13.91-1.43zm3.82-9.38a13.58 13.58 0 0 0 0 3c.13.4.78.18.91.09a10.4 10.4 0 0 0 0-3c-.21-.35-.84-.33-.91-.09zm2.13 5.43a20 20 0 0 0 .13-3.65c-.13-.26-.7-.26-.7-.26a19.85 19.85 0 0 0 -.3 3.86c.04.22.78.22.87.05zm1.25 1.39c.26-.09.17-3.26.13-3.43a.72.72 0 0 0 -.74-.35c-.26.08-.35 3.43-.35 3.43a1.24 1.24 0 0 0 .96.35zm6.51 1.86c.13-.47.57-.73.7-.95s0-.91-.48-1-1.35.61-1.39 1.91a2.26 2.26 0 0 0 .7 1.87.77.77 0 0 0 .82-.43c.01-.09-.47-.87-.34-1.4zm12.39-9.94a6.31 6.31 0 0 1 .65-2.09c.53-.91 1.74-1.39 1.87-1.73a.63.63 0 0 0 -.42-.83c-.35-.13-1.13 0-2.34 1.48a4.4 4.4 0 0 0 -1.09 2.91c.43.52 1.33.26 1.33.26zm1.26 3.78c-.3-.13-.74.74-.74.74-.08.17 1 1.25 1.35 1.34s.43-.43.48-.65a3.29 3.29 0 0 0 -1.09-1.43zm3.26 0c.26 0 .43-.39.56-.65s-.73-1.39-1-1.48-.65.28-.65.43c-.04.44.83 1.7 1.09 1.7zm11.51-4.87c-4-2.56-8.12 1.83-8.12 1.83s.39-5-2.69-7-6.74.35-6.74.35-1.3-4.21-4.12-3.62a3.33 3.33 0 0 0 -2.87 3 8.75 8.75 0 0 0 -.83-1.31c-.47-.6-2.78-3-6.9-1.08s-3.78 5.47-3.78 5.47-.26-.17-.48-.35a5.18 5.18 0 0 0 -3.65-.52 6.14 6.14 0 0 0 -4.51 5.79 12.4 12.4 0 0 0 1.08 5.69 3.29 3.29 0 0 0 -2.86 1.61c-1 1.74-.57 4.82 1.39 7.17s6.25 2.65 6.25 2.65l2.9 5.25a3.12 3.12 0 0 0 -1.74-.13c-.65.26-1 .52-1.82 3.22s-2 13-1.74 15.16 0 3.17 1.91 4.86 6.73 3 11 3.43a42.13 42.13 0 0 0 15-1.47c5.25-1.52 7-3.31 7.51-4.09s.83-4.12.35-8.42-1.65-9.6-3-11.9-3.17-1.83-3.17-1.83a33.33 33.33 0 0 1 4.17-6.43c2.13-2.3 6.26-3.21 8.78-6.47s2.68-8.3-1.32-10.86zm-12.47-4.86c3.09.78 3.22 5.08 3.13 6.38a13 13 0 0 1 -.22 1.91s-2.73 3.22-3.56 4a6.36 6.36 0 0 1 -1 .78 3.5 3.5 0 0 0 -2.7-1.26 5.57 5.57 0 0 0 -2.08.26 12.89 12.89 0 0 1 -1.22-2c0-.26-.21-4 .57-6.12s4-4.73 7.08-3.95zm-8.94 20.24c-.57-2.43.39-5.39 1.78-6.26s1.7-.56 1.7-.56a9.51 9.51 0 0 0 -2 6.13c.22 3.51 1.39 4 2.43 4.17l1.05.13s-.87 7.29-1.05 7.38a10.44 10.44 0 0 1 -2 .26l.39-7.34a8.08 8.08 0 0 1 -2.3-3.91zm1.6 4.56c0 .1-.14 2.48-.29 4.38h-.93c.13-2.17.32-5.17.4-5.23s.87.68.82.85zm-8.42-.83a4 4 0 0 0 1.26.66s.65 2.69 1.07 4.71l-2.66.13c-.89-2.52-2.28-6.52-2.19-6.58l.52-.35s1.17.88 2 1.43zm-2.78-6.55c-.31-2.78.61-4.9 2.43-5.29.87-.19 3.65 1.08 3.61 5.9s-1.13 5.69-2.83 4.69a6.41 6.41 0 0 1 -3.21-5.3zm4.91 7a1.36 1.36 0 0 1 .47-.43 4.07 4.07 0 0 0 .57-.44s.87 7.82.74 7.91-.52 0-.52 0zm1.78-2.65a6.81 6.81 0 0 0 .6-4.78 13.08 13.08 0 0 0 -2.56-5.69s.61-.08 1.61 1a9.68 9.68 0 0 1 2.3 6.34 7 7 0 0 1 -1.82 4.69 1.47 1.47 0 0 1 -.13-1.53zm1.73.61a7.88 7.88 0 0 1 .79-.7 7.43 7.43 0 0 1 .6 1.66c0 .26-.86 1.47-.86 1.65s0 6.55-.13 6.6-.48-.13-.48-.13-.09-8.83.08-9.04zm.92-10.21a7.63 7.63 0 0 1 0-1.39s.78.65.83.91a6 6 0 0 1 -.44 2.35c-.26.13-.61-.13-.61-.13a8 8 0 0 0 .22-1.71zm.13 2.83c0 .13 0 1-.13 1a1.28 1.28 0 0 1 -.44-.13l.09-1.09c.17.12.48.12.48.25zm4.12 7.68c-1 0-1.56-2.3-1.34-4.56s1.08-4.38 2.34-4.69c.85-.2 2.48 1.61 2.17 5.26s-2.12 4.07-3.17 4.02zm2 1.39a6.76 6.76 0 0 0 2.82-4.17 12.48 12.48 0 0 0 -.91-6.38l1.21-.57s0 2.91.18 5.13.22 2.65-1 6.34c-.63 1.91-1.19 3.52-1.62 4.68h-1.35zm-5.51-26.46c2.31.35 2.7 3.21 2.7 3.21s-.11.09-.27.25a6.84 6.84 0 0 0 -1.43-1.38c-.39-.13-.48.26-.52.52s.91 1 1.36 1.41c-.17.2-.35.43-.53.69-.39-.48-1.18-1.3-1.44-1.27s-.48.48-.44.69a11.1 11.1 0 0 0 1.37 1.47 8 8 0 0 0 -.39.89 9.53 9.53 0 0 0 -1.63-1.27c-.26 0-.35.39-.35.74s1.22 1.15 1.73 1.5a4.17 4.17 0 0 0 -.08.63v1a10.31 10.31 0 0 0 -1.83-1.35c-.21 0-.26.78-.21 1a14.48 14.48 0 0 0 2 1.63c0 .36 0 .69.05 1a7 7 0 0 0 -1.5-.84c-.3 0-.39.48-.43.69a9 9 0 0 0 2 1.38c0 .36.08.58.08.58a10.16 10.16 0 0 1 -3-2s.17-3.78 0-5.91l-.13-2.13s.58-3.48 2.89-3.13zm-3.17 12a7.71 7.71 0 0 1 1.39 2.12 5.28 5.28 0 0 1 0 1.61 10.41 10.41 0 0 0 -2.26-2.65s-.09 0 .31-.43a4.87 4.87 0 0 1 .55-.66zm-6.9-11.9a5.09 5.09 0 0 1 6.07 3.37 15.21 15.21 0 0 1 .39 4.16 6.91 6.91 0 0 0 -1.65-1.38c-.26 0-.48.48-.48.48a15.51 15.51 0 0 0 2.1 1.86c0 .34 0 .66-.07.94a14.55 14.55 0 0 0 -2.42-2c-.17 0-.39.65-.39.65a30 30 0 0 0 2.68 2.28v.15a4.31 4.31 0 0 1 -.25.71 23.13 23.13 0 0 0 -2.79-2.4c-.3-.09-.61.43-.61.43.19.29 2.3 2.15 3 2.76l-.3.5c0-.31-2.91-2.74-3.22-2.83s-.74.61-.74.61a26.2 26.2 0 0 0 2 2 5.51 5.51 0 0 0 -1.08.21c-2 .61-2.43 1.52-2.43 1.52a10.63 10.63 0 0 1 -3.65-6.55c-.43-4.1 1.18-6.62 3.83-7.48zm-4.56 7.16a6.15 6.15 0 0 0 1.34 4.69 21.65 21.65 0 0 0 2.56 2.86 7 7 0 0 0 -1.09 5s-2.69.05-5-3.9a12.42 12.42 0 0 1 -1.61-8.69 2 2 0 0 1 2-1 4.64 4.64 0 0 1 1.79 1.03zm-8 2.65a5.41 5.41 0 0 1 3.43-4.7 5.53 5.53 0 0 1 2.6.17 2.51 2.51 0 0 0 -3 2c-.61 2.6.35 5.9 1.39 7.9a12.65 12.65 0 0 0 3.82 4.65 8.49 8.49 0 0 0 2.78.87 7.42 7.42 0 0 0 1 2.26 6.51 6.51 0 0 1 .87 1.43s-1 .56-.87.78 2.48 7 2.74 7.73.13.74-.17.78l-4.39-9.25s-1.09-.3-1.65-.52l-1.09-.43a9.38 9.38 0 0 0 -.3-3 8.48 8.48 0 0 0 -3.53-4.68c-2-1.31-2.91-1.18-2.91-1.18a10.11 10.11 0 0 1 -.77-4.82zm12.78 22.08-1.39.09-4.31-6.93.08-.7a14.89 14.89 0 0 0 1.65.74l.87.3zm-7.31-5.93c-.31 0-3.78-.22-6-2.48s-2.78-5.3-.47-6.77a4.43 4.43 0 0 1 6.42 2.26 20.76 20.76 0 0 1 .83 6.74s5.65 7.9 5.17 8a4.85 4.85 0 0 1 -1.57-.26s-4.08-7.45-4.38-7.49zm26.88 8.47c.92-.35 1.26-.44 1.48-.3a49.64 49.64 0 0 1 2 10 10.53 10.53 0 0 0 -2.14-.83c-.34 0-.26.69 0 .91a26.1 26.1 0 0 0 2.3 1.26c.05.61.08 1.16.09 1.68a11.7 11.7 0 0 0 -2.3-1.2c-.31 0-.48.56-.39.78a23.2 23.2 0 0 0 2.72 1.69v1.35a15.7 15.7 0 0 0 -3.1-1.61c-.4.05-.66.44-.48.66s2.39 1.45 3.51 2.08a9.72 9.72 0 0 1 -.18 1.22 31.65 31.65 0 0 0 -3.77-2.48c-.21 0-.69.52-.65.74a43.3 43.3 0 0 0 3.6 2.69c-.23.14-.51.3-.86.47a21.25 21.25 0 0 0 -4-2.94c-.39 0-.78.78-.74.91s2.36 1.91 3.37 2.69c-.39.16-.82.33-1.28.49a19.17 19.17 0 0 0 -3.44-2.36c-.3 0-.56.7-.47 1a12.8 12.8 0 0 0 2.47 1.78 34.17 34.17 0 0 1 -7.46 1.34 35.82 35.82 0 0 1 -15.9-2.26c-1.87-.78-1.91-2.47-2-4.86a92.85 92.85 0 0 1 1.18-11.3c.43-2.91.95-4 1.3-4 .56.07.91 1.17 4.78 1.7s4.56.56 10.59.21 8.86-1.16 9.77-1.51zm11.74-17.28a12.11 12.11 0 0 0 -1.4-1.79c-.17 0-.78.31-.78.48a16.64 16.64 0 0 0 1.65 1.87c-.18.21-.39.42-.61.63a16.48 16.48 0 0 0 -2.08-2.22 1 1 0 0 0 -.78.52 17.23 17.23 0 0 0 2.15 2.38l-.63.54a12.68 12.68 0 0 0 -2.35-2.22c-.3 0-.61.43-.56.65a24.33 24.33 0 0 0 2.09 2.19l-.94.64a12.59 12.59 0 0 0 -2-2.22c-.26 0-.7.39-.7.65a15 15 0 0 0 1.84 2.14l-.6.37a7.54 7.54 0 0 0 -2.13-2.05.66.66 0 0 0 -.65.7 16.53 16.53 0 0 0 1.86 2 13 13 0 0 0 -2.12 1.52 18.94 18.94 0 0 0 -3.72 5.55c-1.09 2.43-1.48 3.6-1.48 3.6a1.93 1.93 0 0 1 -1.26.22s3-6.86 3.65-8.77-.22-7 .65-9.78 3.82-6.64 7.38-7 5 2.69 5 5.17a5.84 5.84 0 0 1 -1.48 4.23zm-14.73-6c0 .35 1.08 1.91 1.39 1.91s.56-.44.56-.7-1.17-1.6-1.48-1.56-.47.09-.47.35z" fill="#fff"/></svg>