<svg height="64" viewBox="0 0 64 64" width="64" xmlns="http://www.w3.org/2000/svg"><path d="m60.75 14.12c-.47-.44-7.39-4.83-13.56-5.5a123 123 0 0 0 -27.69.28c-10.5 1.42-16.18 4.55-16.5 4.94s.49 10.09.51 10.29c.12 1.07 3.09 1.74 3.09 1.74s2.33 22.59 2.77 23.38 5.3 6.37 21.28 6.76 23.5-6.21 23.74-6.8 2.92-24.61 2.92-24.61 3.13-1.94 3.33-2.41.59-7.64.11-8.07zm-6.19 17.63a4 4 0 0 0 -1.64-1c-.47 0-.59.68-.55.91a15.68 15.68 0 0 0 2 1.79c-.06.51-.13 1-.19 1.53a9 9 0 0 0 -2.23-1.3c-.31 0-.23.67-.23 1s1.67 1.32 2.28 1.59c-.07.6-.14 1.2-.22 1.79a13.25 13.25 0 0 0 -2.72-2c-.31 0-.39.72-.43.91a29 29 0 0 0 3 2.46c-.07.57-.14 1.13-.21 1.67a12.55 12.55 0 0 0 -3-2.23c-.4 0-.32.56-.32.87a21.27 21.27 0 0 0 3.16 2.6c-.08.64-.16 1.24-.23 1.79a31.53 31.53 0 0 0 -3.36-2.65c-.36-.12-.67.68-.63 1s2.74 2.17 3.8 3c-.1.75-.19 1.34-.25 1.69a43 43 0 0 0 -4-3c-.2-.08-.59.52-.63 1s3 2.35 4 3c-.25.22-.57.48-1 .78a30.72 30.72 0 0 0 -4-2.61c-.28 0-.67.59-.56.87a39.5 39.5 0 0 0 3.37 2.52c-.43.25-.89.51-1.42.78a20.8 20.8 0 0 0 -3.92-3c-.36 0-.87.83-.83 1.06a33.59 33.59 0 0 0 3.4 2.65 36.51 36.51 0 0 1 -15.72 2.69c-13.92-.43-19.34-4.82-19.58-5.65s-2.77-21.36-2.57-21.52 7.87 2.81 22.67 2.53a75.29 75.29 0 0 0 23.5-4c.01.12-.3 2.9-.74 6.48zm3.82-10.35c-.24.27-9.37 5.18-23.93 5.54s-26.11-2.77-27-3.21a5.35 5.35 0 0 1 -1.7-1c-.08-.19-.87-7.08-.71-7.28s4.78-2.61 18-4.27 23.83-.18 28.89 1.24 6.89 2.65 6.93 3a42.07 42.07 0 0 1 -.48 5.98zm-43.83 12.46c-.12.28.55 11 .67 11.11a1.34 1.34 0 0 0 1.19-.15c.2-.24-.32-10.61-.4-11s-1.32-.29-1.46.04zm5.14 12.82c-.31.31 0 1.5.36 1.5a29.63 29.63 0 0 1 7.16-1.78 38.86 38.86 0 0 1 8.58-.55c.36-.08.6-.76.44-1s-3.4-.52-8.35 0-8.02 1.66-8.19 1.83zm-11.55-28.49c.24-.15 0-1.82 0-2.41s-.55-.2-.83 0-.31 2.06-.31 2.06c0 .24.9.51 1.14.35zm3.44 1.19a6 6 0 0 0 -.12-2.49c-.15-.36-.79-.32-1-.24s-.16 2-.16 2.14c-.02.51 1.09.67 1.28.59zm3.6.75a7.43 7.43 0 0 0 .12-2.53c0-.4-1-.55-1.26-.32s.08 2.5.08 2.65.88.4 1.06.2zm3.68.48c.32-.16.32-2.26.24-2.53s-.83-.28-1.1-.08 0 2.29 0 2.41.55.36.86.2zm5.07-.08c.31-.2.19-1.74.11-2s-.83-.24-1.06-.16-.28 2-.12 2 .75.36 1.07.16zm3.64.35a5.66 5.66 0 0 0 0-2.25.63.63 0 0 0 -.8-.2 10.32 10.32 0 0 0 0 2.41 1.41 1.41 0 0 0 .8.04zm3.67-.11a7.71 7.71 0 0 0 0-2.18c0-.4-1.06-.28-1.22-.12a10.46 10.46 0 0 0 0 2.26 2.87 2.87 0 0 0 1.22.04zm2.46-2.62a7.79 7.79 0 0 0 -.08 2.26c0 .32.91.47 1.14.36s.16-1.94.12-2.3-.99-.47-1.18-.32zm4.74 2.22c.32-.16.16-1.94.08-2.29s-.79-.44-1.1-.24 0 2.29 0 2.41.71.28 1.02.12zm3.92-.44a4.08 4.08 0 0 0 0-2.49c-.28-.2-1 0-1.07.16a11.22 11.22 0 0 0 .24 2.1s.59.39.83.23zm3.84-.27a6 6 0 0 0 0-2.61c-.16-.4-1.19 0-1.27.15a12.2 12.2 0 0 0 0 2.1c.07.4 1.07.52 1.27.36zm4.07-1.15a4.16 4.16 0 0 0 -.47-2.22c-.24-.27-1.39-.15-1.39-.15.16.23.79 2.45 1 2.65s.66 0 .86-.28zm3.92-.51c.31-.4-.28-2-.52-2.14s-1.06.28-1.06.28a7.54 7.54 0 0 0 .67 2.17c.24.16.59.04.91-.31zm2.33-.4c.4-.16-.08-1.82-.24-2.1s-1.1 0-1.1 0 .39 1.9.43 2.06.52.16.91 0zm-37.82 5.46c-9.61-.91-11-2.27-11.11-2.29s-.48 1.14-.08 1.46 4.86 1.66 10.88 2.13 13.33.8 13.53.64.15-.83.08-1-3.68 0-13.3-.94zm37.78-3.17a55.89 55.89 0 0 1 -7 2c-4 .75-11.09 1.19-11.27 1.27s-.2 1.07.19 1.22 4.75-.15 10.61-1.14 7.91-2.38 8-2.57a.76.76 0 0 0 -.53-.78z" fill="#fff"/></svg>