<svg height="64" viewBox="0 0 64 64" width="64" xmlns="http://www.w3.org/2000/svg"><path d="m23.33 11.61a36.35 36.35 0 0 1 -4.48-1.28c-.35 0-.31.76-.14 1a13.71 13.71 0 0 0 4.1 1.25 31 31 0 0 0 5.69.55.86.86 0 0 0 0-.72c-.07-.17-2.6-.28-5.17-.8zm17.33.56c-2.33.07-4.8 0-5 0s-.07.87.07.9a47.53 47.53 0 0 0 4.86 0c2.37-.14 4.45-.32 4.45-.32s.1-.8-.07-.87-1.97.22-4.31.29zm-20.76-3.29c.12-.12.05-.26.07-.49a.84.84 0 0 1 .33-.48.65.65 0 0 0 .07-.51c-.05-.19-.79-.28-1-.16s-.2 1.47-.14 1.55.56.21.67.09zm2 .51c.12-.05.1-.16.17-.39a1.17 1.17 0 0 1 .39-.51c.12-.12.07-.35 0-.63s-.64-.3-.9-.14-.22 1.49-.14 1.58a.86.86 0 0 0 .47.09zm2.67.53a5 5 0 0 0 .14-1.73c0-.19-.54-.14-.72 0s-.11 1.7-.07 1.81.45.06.64-.08zm3.26.53c.21-.09.28-1.8.21-1.92s-.56-.11-.76.05-.12 1.76-.12 1.76a.76.76 0 0 0 .66.11zm2.59-1.71a6.19 6.19 0 0 0 0 2.06c.07.21.51.07.72 0s.14-1.83.09-2-.76-.1-.82-.06zm2.78.12a6.19 6.19 0 0 0 0 2.06c.07.21.51.07.72 0s.14-1.83.09-2-.76-.1-.82-.06zm3 2.06c.21 0 .14-1.83.1-2s-.76-.16-.81-.12a6.19 6.19 0 0 0 0 2.06c.09.22.51.08.73.06zm3.38-.37c.1.11.56 0 .7-.21s-.16-1.83-.42-1.85a3 3 0 0 0 -.83.16c-.19.14.09.51.18.65s.3 1.13.39 1.25zm3.96-.55a.8.8 0 0 0 .72 0 2.36 2.36 0 0 0 -.21-1.69 1.79 1.79 0 0 0 -.81 0c-.12.07-.09.28.07.53s.11 1.01.23 1.16zm2.46-2.23a7.68 7.68 0 0 0 .21 1.64c.07.16.46.19.74.07s.18-1.48.05-1.71a1.08 1.08 0 0 0 -1 0zm3.12-.7a8 8 0 0 0 .37 1.65 1.05 1.05 0 0 0 .74-.19c.24-.18-.23-1.55-.34-1.62s-.73.01-.75.16zm2.53-.32a2.36 2.36 0 0 0 0 1.39.37.37 0 0 0 .57-.14 2.85 2.85 0 0 0 0-1.2c-.02-.17-.42-.16-.55-.05zm-29.2 12.11a55.89 55.89 0 0 0 .63 6.71c.23.35.78.12.94.05a68.83 68.83 0 0 0 -.76-6.86c-.07-.13-.78-.01-.81.1zm4.63 1.27c.37.09.86 0 .93-.28s-.72-1.11-.93-1.27a.59.59 0 0 0 -.76.09c-.21.26.39 1.33.76 1.46zm4.72.93c.58 0 .93-.26.81-.81a.8.8 0 0 0 -1.25-.44.75.75 0 0 0 .44 1.25zm-1.92 1.66a1.55 1.55 0 0 0 -2.15-.37 1.72 1.72 0 0 0 -.51 2 1.27 1.27 0 0 0 1.06.07c.24-.12 0-.83.44-1s.79.51 1 .51.39-.77.16-1.21zm-3.7 4.17a1.69 1.69 0 0 0 -1.46 1c-.14.25.42.67.67.67s.49-.25.86-.35.69.23.92.26.37-.09.51-.33-.44-1.32-1.5-1.25zm4.93-.65c-.86-.14-1.51 1.21-1.51 1.21-.2.41.54 1.13.86 1.06s.23-.55.69-.62.56.62.68.67.55-.07.78-.6-.61-1.58-1.5-1.72zm4.28 2.9a.67.67 0 0 0 0 1.18.64.64 0 0 0 1-.42.68.68 0 0 0 -1-.76zm4.31 1.32c-.54.34-.51 1.06.28 1.13s.87-.56.71-.9a.7.7 0 0 0 -.99-.23zm.16-3.75c.3-.44.37-1.72.09-1.88s-.51.49-1 .81-1.18 0-1.32 0c-.33 0-.44 1 .41 1.48a1.29 1.29 0 0 0 1.82-.41zm-4.14-4a1.14 1.14 0 0 0 -1.72.29.61.61 0 0 0 0 .72c.16.2.37 0 1 .2s.37.47.53.74.25.17.6.07.51-1.34-.41-2.01zm3.56-1.52c.32.11.53.6.72.71s.32 0 .6-.32-.12-1.29-.6-1.58a1.12 1.12 0 0 0 -1.13.1c-.28.21-.12.6 0 .88s.13.1.41.22zm4.56-2.62a1.54 1.54 0 0 0 .16 1.43.78.78 0 0 0 1 0 1.16 1.16 0 0 0 0-1.46 1.38 1.38 0 0 0 -1.16.04zm11.68-12.1a3 3 0 0 0 -.52-1.28c-.45-.63-3.61-2.12-7.22-2.64a95 95 0 0 0 -19.35-.25c-8.43.7-13.75 3.1-13.95 3.41a36.23 36.23 0 0 0 -.07 5.9c.1.38 0 .38.66 1.18a5.5 5.5 0 0 0 2.39 1.21l2.54 15.74s-3.44.59-5.94 1.25-5.31 2-5.52 2.39a39.46 39.46 0 0 0 .14 6.67c.17.56 2.57 1.46 2.57 1.46s2.53 14.76 2.75 15.31 1.08 1.91 3.71 3a39.73 39.73 0 0 0 16.15 2c5.91-.69 9.73-3.64 10.28-4.65s1.56-17.5 1.56-17.5a9.87 9.87 0 0 0 2.3-1.04c.28-.38-.31-6.43-.31-6.43a5.63 5.63 0 0 0 1.49-.76c.8-.56 1.7-.94 1.95-1.63s.5-15.81.5-15.81a13.13 13.13 0 0 0 1.37-.58c.73-.35 2.12-.77 2.33-1.11a56.89 56.89 0 0 0 .19-5.84zm-12.15 41.09a6.55 6.55 0 0 0 -1.57-.85c-.32-.07-.39.46-.41.69s1.5 1 1.89 1.25c0 .49-.08 1-.12 1.47a6.9 6.9 0 0 0 -2-1.28c-.44 0-.6.44-.55.74a14.22 14.22 0 0 0 2.47 1.89c0 .48-.08.94-.11 1.38a13.91 13.91 0 0 0 -2.46-1.63c-.2 0-.48.37-.37.81a15.94 15.94 0 0 0 2.69 2.35c-.07.7-.12 1.21-.16 1.46a26.9 26.9 0 0 0 -2.8-2.21c-.17-.05-.63.37-.74.76s2.12 2 2.78 2.53a8.34 8.34 0 0 1 -.83.65 13.1 13.1 0 0 0 -2.53-2.3c-.28 0-.77.56-.74.77a22.4 22.4 0 0 0 2.19 2.16c-.32.16-.66.33-1 .49a8 8 0 0 0 -2-1.91.8.8 0 0 0 -.86.58c0 .25 1 1.31 1.47 1.82a23.32 23.32 0 0 1 -4.6.91c-7.22.74-15-2.32-15.92-2.8a2.71 2.71 0 0 1 -1.09-.95s-2.65-14.15-2.51-14.34c0 0 4.65 1.67 15.49 1s14.79-2.8 14.88-2.71-.2 3.55-.49 7.27zm2.83-10.34c-.23.34-5.65 2.89-13.63 3.7s-19.13-1-20.26-1.25-1.69-.19-1.81-.58-.06-4.35 0-4.51a31 31 0 0 1 5.77-2c3.21-.76 4.86-1.09 4.86-1.09a23.19 23.19 0 0 0 9.4 3.51 33.84 33.84 0 0 0 9.37 0c0 .35-.06 1.38.19 1.57s.65-.16.79-.44a3.6 3.6 0 0 0 -.09-1.28 16.41 16.41 0 0 0 2-.46c1.83-.55 3.33-1.13 3.33-1.13a22.5 22.5 0 0 1 .08 3.96zm3.74-18.75a3.5 3.5 0 0 0 -1.38-.77c-.18.05-.37.72-.27 1a7.47 7.47 0 0 0 1.62 1.14c0 .7 0 1.42-.07 2.14a12.1 12.1 0 0 0 -2.29-1.22c-.26.11-.35 1-.28 1.18a21.7 21.7 0 0 0 2.51 1.68c0 .64-.05 1.25-.07 1.83a18 18 0 0 0 -2.58-2.1 1 1 0 0 0 -.3 1 21.42 21.42 0 0 0 2.8 2.65c0 .59-.07 1.07-.1 1.43a33.67 33.67 0 0 0 -3.1-2.81c-.25-.14-.87.48-.85.62a37.2 37.2 0 0 0 3.42 3.29q-.28.22-.72.51a17 17 0 0 0 -3.19-2.59c-.19 0-.7.54-.67.64a20.15 20.15 0 0 0 2.58 2.64c-.4.2-.86.41-1.37.61a20 20 0 0 0 -1.94-1.9c-.21-.14-.88.2-.88.46a11.68 11.68 0 0 0 1.46 1.94 33.52 33.52 0 0 1 -8.55 1.47c-9.51.53-13.37-3.4-13.82-4s-2.35-14.5-2.22-14.61a46.71 46.71 0 0 0 15.56 1.7 62.12 62.12 0 0 0 14.69-2 36 36 0 0 1 .01 4.07zm3.22-7.34c-.14.24-2.67 1.77-10.35 2.67a74.74 74.74 0 0 1 -19.17-.11 22.27 22.27 0 0 1 -7.32-2.22 19.92 19.92 0 0 1 .24-4.55 54.58 54.58 0 0 1 15.83-2.92c9-.42 16 .48 18.06 1s2.55 1 2.67 1.26a31.7 31.7 0 0 1 .04 4.87zm-40.92 24a5.58 5.58 0 0 0 0 2c.14.3.44.12.72.05s.09-1.71 0-2-.62-.18-.72-.02zm2.32.13a12 12 0 0 0 0 1.9c.07.16.64.14.81.07a4.8 4.8 0 0 0 .09-2c-.12-.07-.88-.06-.9.06zm3.19.51a5 5 0 0 0 .12 1.86c.09.25.58.11.76 0s.12-1.71.07-1.85-.84-.12-.95.02zm3.59.54a7.62 7.62 0 0 0 .11 1.89c.1.21.75.07.84 0a6.17 6.17 0 0 0 0-1.82c-.09-.09-.89-.19-.95-.04zm3.33.3a5.67 5.67 0 0 0 .1 1.73c.13.19.64 0 .74 0a4.66 4.66 0 0 0 0-1.62 2.78 2.78 0 0 0 -.84-.08zm4.73 0a3.78 3.78 0 0 0 0 1.71c.12.21.69.21.93.07s0-1.53-.05-1.64-.71-.32-.88-.11zm3.82.09a3.29 3.29 0 0 0 0 1.53c.11.16.62.14.88 0s.09-1.41 0-1.55-.79-.1-.88.05zm4.05-.56a9.67 9.67 0 0 0 .09 1.42c.07.18.62-.05.86-.19s0-.95 0-1.16-.95-.21-.95-.04zm-18.41 9.86c.35 0 .21-.16.28-.51a1.67 1.67 0 0 0 -1.64-1.43 2.16 2.16 0 0 0 -1.95 1.09c-.07.2.53.71.81.69s.51-.46 1.14-.55 1.01.71 1.36.71zm-.72 7c.14-.16-.37-5.84-.41-6.16s-1.2-.21-1.23 0 .56 5.85.88 6.22a.45.45 0 0 0 .76-.06zm2.13-7.29c.24 0 .47-.42.91-.42s.39.32.53.46.23 0 .35 0 .18-.32.14-.67a1.46 1.46 0 0 0 -1.2-.9 1.4 1.4 0 0 0 -1.11.56c-.19.26.11.93.38.93zm0 2.82c.28-.05.17-1.09.56-1.32s1.11.88 1.34.95.42-.14.58-.39-.75-1.77-1.75-1.77-1.54 1.25-1.6 1.5c-.1.5.6 1.04.87.99zm2 4c.05.09.37.16.72.12s.3-.44.32-.93a1.41 1.41 0 0 0 -1.52-1.25 1.17 1.17 0 0 0 -1.21 1 .59.59 0 0 0 .44.83c.23 0 .28-.58.84-.51s.34.66.38.75zm-3.52 1.47c-1.39.23-1.54 1.18-1.49 1.41a1.16 1.16 0 0 0 1 .58c.21-.07.3-.44.62-.74s1.14-.16 1.48-.3.17-.32.14-.58-.36-.58-1.75-.37zm4.39-.65a1.45 1.45 0 0 0 -1.22 1.3c-.09.39.85.81 1 .72s.12-.51.4-.77.85.77 1.06.75.33-.28.37-.65a1.48 1.48 0 0 0 -1.61-1.33zm4 2.06c.51 0 .23-.13.61-.6s1.43-.58 1.59-.88-.25-.32-1-.39a3.53 3.53 0 0 0 -2 .65.86.86 0 0 0 0 1.11c.23.18.32.18.83.13zm1.42 1.39a2.07 2.07 0 0 0 -2.13 0c-.37.25-.14.62.11.9s.46-.09 1.18 0 .49.78.65 1 .49.14.81 0 .33-1.32-.59-1.88zm5.53 0a2.33 2.33 0 0 0 -1.92.53.54.54 0 0 0 -.1.7 1.57 1.57 0 0 0 .88.21c.51 0 .44-.42.81-.44s.42.37.61.48.13.1.44.1.3-.12.41-.49-.22-.89-1.1-1.09zm-1.67-2.36c.16 0 .09-.09.07-.44a.57.57 0 0 1 .74-.58c.4.16.16.58.28.81a.7.7 0 0 0 .65.28c.23 0 1-2.11-.63-2.39a1.52 1.52 0 0 0 -1.9 1.46.77.77 0 0 0 .82.86zm-5.25-3.84c.61 0 1.07 1.06 1.25 1.2a.73.73 0 0 0 .81 0c.21-.18-.41-2.15-2-2.43a1.88 1.88 0 0 0 -2.13 1.51c-.07.44.81.74 1 .67s.47-.95 1.07-.95zm-.25-4.15c1-.39 1.39-.34 1.48-.51s-.21-.71-1.44-.69a3.19 3.19 0 0 0 -2.15 1.13c-.32.42.4.91.51.91a12.28 12.28 0 0 1 1.6-.84zm4.65.79a1.42 1.42 0 0 0 -1.43-.14c-.3.19-.17.51-.1.74s.21 0 .74.26.44.6.63.81.32 0 .58-.14.01-1.16-.42-1.53zm1-1.53c.67-.07 1 .7 1 .7a.83.83 0 0 0 .53-.3 1.31 1.31 0 0 0 -1-1.49 2.92 2.92 0 0 0 -1.81.3.71.71 0 0 0 .14.91c.19.17.42-.05 1.09-.12zm3.17.86a.6.6 0 0 0 -.14.9c.17.26.63.14 1 .3s.14 1 .21 1.32.67.07 1-.32a2.11 2.11 0 0 0 -.39-2.13c-.66-.56-1.73-.07-1.73-.07zm2.55-2.71c-.33.35 0 .74.11.83s.4-.09 1 .12.27.95.3 1.18.39.49.69.53.86-2-.14-2.71a1.53 1.53 0 0 0 -2.01.05z" fill="#fff"/></svg>