<svg height="64" viewBox="0 0 64 64" width="64" xmlns="http://www.w3.org/2000/svg"><path d="m9.81 28.32a3.75 3.75 0 0 1 .68-.83c.31-.24.43-.67.35-1.75a1.85 1.85 0 0 0 -1.23-1.46 2.36 2.36 0 0 0 -1.31-1.67c-1.07-.4-1.94.91-1.94.91a2.09 2.09 0 0 0 -.48-.59c-.32-.28-1-1-2.1.43a2.12 2.12 0 0 0 -.32 2.54c-.64 0-1.19.6-1.43 1.51a2.67 2.67 0 0 0 1.83 3.38 8.73 8.73 0 0 0 4.24-.44s1.79.95 2 .95a2.5 2.5 0 0 0 .9-1.39c.08-.59-1.19-1.59-1.19-1.59zm0 1.95c-.12 0-1.19-1.19-1.71-1a4.53 4.53 0 0 1 -2.22.73c-1.39 0-2.22-.16-2.7-.87a1.7 1.7 0 0 1 1.19-2.58c.52-.06.56-.4.44-.56s-1-1-.36-1.9 1.35-.29 1.43-.09a5.11 5.11 0 0 0 .32.83c.12.16.67.44.75.2s-.35-1.07.6-1.31 1.15.24 1.19.56a.72.72 0 0 0 .28.63c.27.28 1.23.44 1 1.39s-1.24 1.27-1.12 1.87 1.27 1.27 1.23 1.62-.13.52-.28.48zm-3.1-3.45a1.85 1.85 0 0 0 -1.66.51 1 1 0 0 0 -.12 1.27c.2.16.36 0 .51 0s0-.43.36-.79.72-.32 1.19-.6.08-.31-.28-.39zm9.09-16.36c.36.2.28 0 .36-.39s-.67-1.23-1.86-1.43a2.38 2.38 0 0 0 -2 .83c-.32.16.28.79.52.79s.55-.63 1.47-.71 1.16.71 1.51.91zm33.2.76c.32.08.83 0 .91-.24s-.32-.6-.87-.68a1.1 1.1 0 0 0 -.92.32c-.07 0 0 .56 0 .56a3.36 3.36 0 0 1 .88.04zm-5 14.52a6.71 6.71 0 0 0 -.08-2.5c-.08-.15-.56 0-.6.16a20.56 20.56 0 0 0 -.2 2.42c.03.18.59.18.88-.08zm-.56 2.43a11.94 11.94 0 0 0 -.12 2.42c0 .28.76 0 .84-.2s0-1.95 0-2.1-.77-.12-.77-.12zm13.3-3.85s.24.63.36.67.19 0 .55.32 0 1.35 0 1.35.44.39.64.32a4.6 4.6 0 0 0 -.2-2.74c-.41-.44-1.16-.16-1.4.08zm-40.46 11.47a32.17 32.17 0 0 0 .24 4.72c.12.4.59.24.79.28a30.3 30.3 0 0 0 -.16-5c-.08-.2-.87 0-.87 0zm11.23 1.86a16 16 0 0 0 0 3.1c.12.24.6.16.84 0s.16-2.58.12-2.9-.84-.38-.96-.2zm0 4.13a10.15 10.15 0 0 0 -.16 2.62c0 .24.76.16 1 0a7.94 7.94 0 0 0 -.08-2.74c-.16-.16-.65-.01-.76.12zm23.49-3.57c.08-.2-1.47-1.51-1.74-1.67s-.92.2-1 .36 2.11 1.71 2.19 1.82.44-.31.55-.51zm11.05-12.78a1.85 1.85 0 0 0 -1.75-2.11 3.63 3.63 0 0 0 .83-1.39 2 2 0 0 0 -2.13-2.54c-1.87 0-3.93 1.79-3.93 1.79s0-3.33 0-3.49a2.69 2.69 0 0 0 -.67-1.83 9.23 9.23 0 0 0 -2.82-1.27 4.8 4.8 0 0 0 1-2.06 1.07 1.07 0 0 0 -1-1.43s1.42-.8.42-2.58-4-.64-4-.64-.23-1.27-2.69-1a2.83 2.83 0 0 0 -2.51 2.71 32.83 32.83 0 0 0 -5.16-.71c-3.93-.36-6.32.07-10.48 1.27s-9.45 4.64-9.45 4.64l-2.71-2.58 2.26-.64a8.67 8.67 0 0 0 2-1.27 2.3 2.3 0 0 0 -.32-3.05c-1.19-1.25-3.18-.25-3.18-.25s-.27-1.82-1.86-1.9a3.16 3.16 0 0 0 -2.54 1.43s0-.27-1.67 0-.51 2.9-.51 2.9a2.84 2.84 0 0 0 -1.83.28 1.52 1.52 0 0 0 -.48 2.06 4 4 0 0 0 2.31 1.79 24.26 24.26 0 0 0 3.69-.08l1.7 2.62a4.41 4.41 0 0 1 -1 .63c-.91.52-1.39.6-1.63 1.35a101 101 0 0 0 .36 11 12.3 12.3 0 0 0 1.95 1.63 2.91 2.91 0 0 0 -1.59 1.07c-.2.43 0 9.13.12 9.68s.91.88 1 1 .2.47.24.63-.88.44-1.15.76a47.71 47.71 0 0 0 -.12 9 10 10 0 0 0 3.81 3.49c2.3 1.27 6.94 2.94 18.73 2.58s18.71-4.32 18.71-4.68.08-4.72.08-4.72a4.53 4.53 0 0 0 3.61-1.23 2.28 2.28 0 0 0 .31-3.14 2.47 2.47 0 0 0 1.43-2.46c-.12-1.82-2.15-1.78-2.15-1.78s.92-1.55 0-2.62-2.78-.68-2.78-.68v-6.78c0-.2-.59-.92-.59-.92l.52-.71a8 8 0 0 0 .83.83c.16.08.91 1.23 1.15 1.39a3.38 3.38 0 0 0 4.25-.52 2 2 0 0 0 -.4-3.17 2.45 2.45 0 0 0 1.79-2.3zm-8.54-6.23c.05.14.08 3 0 5.44a27.43 27.43 0 0 0 -2.7-2.64c-.16 0-.51.24-.39.68a32.57 32.57 0 0 0 3.09 3.2c0 .64 0 1.19-.09 1.55-.86-.87-3.66-3.1-3.76-3.16s-.51.31-.59.59 2.72 2.71 3.66 3.54a6.5 6.5 0 0 1 -.78.48 20.52 20.52 0 0 0 -3.08-2.51.61.61 0 0 0 -.76.44 23.71 23.71 0 0 0 2.89 2.51c-.33.14-.7.28-1.14.43-1.2.42-2.21.78-3.44 1.1 0-1.77 0-8.16-.13-9.67l1.43-.32c3.28-.75 5.71-1.86 5.79-1.66zm-3.73 23.93c-.16.16-2.18.4-2.5.64a2.92 2.92 0 0 0 -.63.91 23.93 23.93 0 0 1 -5.84.87c-4.05.24-14.53-.36-14.53-.36s-.31-9-.2-8.93 7.63.52 13.42.28 8.46-1 10.32-1.86 2.58-1.59 2.82-1.35a3.31 3.31 0 0 1 .11 1.22c-.14-.22-.3-.41-.43-.43a.76.76 0 0 0 -.67.4c-.09.15.65.88 1.07 1.29a10.67 10.67 0 0 0 0 1.33 1.84 1.84 0 0 1 0 .34 22.59 22.59 0 0 0 -2.15-2c-.31-.2-.63.24-.63.6s2.18 2.06 2.3 2.14l.51.36v.59a7.4 7.4 0 0 0 -1.71.48 2.94 2.94 0 0 0 -1.35 2.14c.01.51.25 1.21.09 1.34zm-24-7.74a51.05 51.05 0 0 1 -8-1.75 8.77 8.77 0 0 1 -2.66-1.31 5.85 5.85 0 0 1 1.94-.55 51 51 0 0 0 14.69 2.46 56.24 56.24 0 0 0 17-1.91c2.66-.83 3.29-1.31 3.57-1.23a.78.78 0 0 1 .4.8 17.24 17.24 0 0 1 -6.43 3.1 53.13 53.13 0 0 1 -12.35.84c-3.85-.25-6.94-.33-8.17-.45zm19.16-27.51c1.59-.59 2.18.32 2.3.72s-.52.63-.32.87.36.4.56.36a.81.81 0 0 0 .52-.28c.07-.12.39-.71.47-.83s1.55-1 2.5-.16a1.37 1.37 0 0 1 0 2.1c-.31.4-.47 1.07-.28 1.19s1.08-.12 1.27.4-.79 1.67-1 1.86a1.27 1.27 0 0 1 -.43.28 17 17 0 0 0 -4.25-3.33c-2.07-1-2.5-1.19-2.5-1.19a1.7 1.7 0 0 1 1.16-1.99zm-17.51 3.85a32.81 32.81 0 0 1 15.33-.47c3.45.79 7.34 5 7.3 5.24s-.72 1.11-2.5 1.62a25.62 25.62 0 0 1 -5 .76c-.36 0-.87.07-1.49.1a4.09 4.09 0 0 0 -.3-.58 17.63 17.63 0 0 0 -2.25-3.19 28 28 0 0 1 6.86-.58c.19 0 .19-.32.08-.52s-1.63-.19-4.33 0a17.2 17.2 0 0 0 -3.2.53l-.41-.38c-.48-.4-.95-.77-1.39-1.12a21.74 21.74 0 0 1 3 0 .43.43 0 0 0 .36-.47c0-.12-.28-.2-.79-.28a15.33 15.33 0 0 0 -3.27.24 12.23 12.23 0 0 0 -1.73-1.15 6.2 6.2 0 0 0 -1.15.19 17.92 17.92 0 0 0 1.78 1.13c-1.19.22-2.61.54-4.22 1a7.57 7.57 0 0 0 -2.17-1.16c-.44-.08-.83.39-.83.39a17.35 17.35 0 0 1 1.89.97l-.28.08c-4.69 1.46-6.88 3.53-7.52 4.24a5.87 5.87 0 0 1 -2.68-1.69c-.04-.25 3.63-3.23 8.91-4.9zm4.81 4.63c-.31.09-.6.19-.92.3a19.29 19.29 0 0 0 -5.32 2.48 18.14 18.14 0 0 1 -3.53-.4 5.72 5.72 0 0 1 .84-1c.54-.51 1.68-1.18 6.6-3.11l.78.53a15.39 15.39 0 0 1 1.55 1.2zm-1.4-2.07a21.77 21.77 0 0 1 4.18-1c.51.34 1.06.72 1.62 1.15.18.13.34.28.5.42-1.25.35-2.59.78-4 1.26-.37-.32-.76-.65-1.22-1zm-2.45 4.39a45.57 45.57 0 0 1 4.52-1.68c.88.85 1.61 1.69 2 2.17-1.75 0-3.54.05-5.11.05h-2.3zm5.39-2 2.22-.78c.58-.2 1.15-.37 1.72-.51a17 17 0 0 1 2.49 3.61c-1.25.05-2.79.09-4.41.12a2.4 2.4 0 0 0 -.23-.5 12.52 12.52 0 0 0 -1.79-1.95zm-20.71-4.59a.39.39 0 0 0 -.56 0 1.62 1.62 0 0 0 -.12.48 10 10 0 0 1 -2.74.08c-1.19-.2-2.26-1-1.78-1.87s1.13-.91 1.5-.78.08.43.56.43.75-.08.63-.47-1.07-.92-.75-1.91.79-.91 1-.75.76.43 1 .28.36-1.43 1.47-1.55a1.55 1.55 0 0 1 1.75 1c0 .36 0 .79.44.87s1.39-.63 2.38-.24a1.28 1.28 0 0 1 .3 2.34c-.88.67-.92.87-1.35.91a6 6 0 0 0 -2.46.79.69.69 0 0 0 .15 1.15c.52.32 2.39 2.11 2.19 2.31a10.11 10.11 0 0 1 -1.39.75s-2.03-3.62-2.22-3.82zm2.54 5.56c.19.08.67.55.95.51s1-.71 1.27-.63a14.09 14.09 0 0 0 6.07 2.22 102.14 102.14 0 0 0 15.4.25c4.77-.2 8.34-.91 10-1.63s2.85-2.26 3.17-2.22a1.38 1.38 0 0 1 .72 1.71c-.4.75-6.24 2.38-12.51 2.93a82.62 82.62 0 0 1 -17.19.12c-5.35-.63-6.94-1.43-8-1.9s-1.11-.68-1.23-.8 1.15-.64 1.35-.56zm-1.55 10.48c0-.12-.48-8.78-.48-8.78a71.81 71.81 0 0 0 8.34 2.39c3.53.59 9 .59 14.41.51a46.6 46.6 0 0 0 8.85-.84c0 1.79.07 7.83.17 9.67a34.7 34.7 0 0 1 -4.5.58c-4.76.36-9.92.87-15.72.08s-8.49-2-9.21-2.34a7.92 7.92 0 0 1 -1.86-1.27zm.51 13.06c0-.28-.31-7.9-.19-8a28.51 28.51 0 0 0 6.35 2.22 25.21 25.21 0 0 0 4.24.79s.2 9 .08 9a23.36 23.36 0 0 1 -6.75-1.58c-2.81-1.24-3.73-2.16-3.73-2.43zm24.93 15a57.15 57.15 0 0 1 -13.42.36c-5.91-.72-8.89-2.07-10-3.14s-1.23-1-1.27-1.31.12-7.42.12-7.5c0-.23.68-.2.83-.12a27.77 27.77 0 0 0 8.7 2.62c5.55.87 15 .6 15 .6s.16 8.41.04 8.49zm12.91-3.3a30.58 30.58 0 0 0 -3.82-3.13c-.24 0-.71.32-.71.55a39 39 0 0 0 3.5 3.23l-.8.25a20.28 20.28 0 0 0 -2.74-2.6c-.24-.12-.36 0-.6.47s1.5 1.84 2.22 2.44c-.81.21-1.78.44-2.93.66-3.73.71-5.84 1-5.88.91s-.08-8.05-.08-8.05 2.46-.24 4.57-.56a31.8 31.8 0 0 1 4-.56c.08.12-.32 1.55.55 2s1.23.91 1.71.95 1-.24 1 0v1a6.2 6.2 0 0 0 -.61-.66 2 2 0 0 0 -1.39.08 25.7 25.7 0 0 0 2 1.66c.03.58.03 1.08.01 1.36zm1.59-12.18c.2-.12.36-.32.32-.44s-.44-1.31.63-1.55 1.75 0 1.87 1 .24 1.07 0 1.19-1.15.43-1 .59.28.24.44.2 1.71-.32 2.07.79a1.75 1.75 0 0 1 -1.12 2.15 2.87 2.87 0 0 1 -1.94.28c-.6-.24-1.19-.52-1.27-.32s-.24.75 0 .79a11.58 11.58 0 0 0 1.79.4c.95.12 1.78-.12 1.86 0a1.56 1.56 0 0 1 -.65 1.87c-.92.75-.8.83-1.55.87a2.36 2.36 0 0 1 -1.19-.2s-.08-1-.24-1.11-1 .24-1.19.4-.48.35-.48.55.16.28-.32.24a2.53 2.53 0 0 1 -1.7-.6c-.4-.47-.28-1.9-.44-2a2.45 2.45 0 0 0 -1-.08h-1.29l-.6-.3a1.84 1.84 0 0 1 .76-1c.35-.16 1.7-.36 2.22-.6s1.19-.71 1.11-1-.87-.71-.36-1.51.92-1.54 1.67-1.42 1.39.93 1.6.81zm6-13.77c-.39.19-.79.11-.83.51s1.27 1.27 1.19 2.26a1.77 1.77 0 0 1 -2.44 1.29 13.64 13.64 0 0 1 -2.86-2.34 8.68 8.68 0 0 0 .32-1.66c.12-1-.12-4.77-.12-4.77s2.3-2.06 3.69-1.86 1.67.83 1.23 1.5-1.31 1.13-1.27 1.49 0 .44.36.52 1.94.48 1.94 1.19a2.82 2.82 0 0 1 -1.21 1.87zm-43.4 21.23c0 .2.47 3.73.55 4s.88 0 1.08-.2a14.06 14.06 0 0 0 -.23-4.16c-.29-.35-1.36.19-1.4.36zm25 .32a16 16 0 0 0 -.11 3.17c.11.48.63 0 .83-.15a15.17 15.17 0 0 0 -.08-3c.04-.18-.48-.32-.6-.02zm-.15 4.4c-.24 0-.08 1.71 0 2.07s.47-.12.67-.2 0-1.63 0-1.79-.39-.12-.63-.08z" fill="#fff"/></svg>