<svg height="64" viewBox="0 0 64 64" width="64" xmlns="http://www.w3.org/2000/svg"><path d="m36.21 40.33s.31-33-.07-35.14-2.24-3.32-6.95-3.25-6.26 1.24-6.26 3.4.31 34.91.31 34.91c-4.48 3.25-5.41 5.75-5.18 11.28a10.85 10.85 0 0 0 11.74 10.47c7-.46 12.21-3 12.28-11.27s-5.87-10.4-5.87-10.4zm-6.56 18.38c-3.86-.08-8.73-2.62-9-8.34s5.35-8.37 5.45-8.88-.24-35.49-.1-35.99c.19-.69 1.85-1 3.09-1s4.32.23 4.48.93c.08.35 0 9.59 0 18.71a6 6 0 0 0 -1.87-.85c-.42 0-.21.73-.11 1.15a7.58 7.58 0 0 0 2 1.5v1.49a7.49 7.49 0 0 0 -2-1.38c-.52 0-.63.53-.52.89a17.73 17.73 0 0 0 2.49 2.16v1.52a15 15 0 0 0 -2.05-1.62c-.48-.15-.69.32-.63.63a25.34 25.34 0 0 0 2.69 2.82v1.12c-.86-.8-2-1.76-2.06-1.79s-.68.31-.74.73 2.57 2.68 2.57 2.68l.23-.07c0 4.07.06 6.92.17 7 .39.3 4.87 1.46 5.33 8s-5.56 8.67-9.42 8.59zm10.66-43.41a8.34 8.34 0 0 0 1.35.12 10.36 10.36 0 0 0 0 1.31c.08.27.85.35 1.16 0a3.69 3.69 0 0 0 .18-1.3 4.87 4.87 0 0 0 1.52-.2c.61-.31.07-.54-.08-1.08-.07-.24-.66-.38-1.42-.46a18.55 18.55 0 0 0 -.02-2.09c-.07-.27-1.12-.12-1.27.11v1.93a11.27 11.27 0 0 0 -1.75.12s-.37 1.39.33 1.54zm5.48 22.7c0-.27-5.7-.34-5.83-.15a2.68 2.68 0 0 0 -.08 1.43c.12.23 5.64 0 5.95-.12s0-.92-.04-1.16zm-13.79 6.65s.19-6.44.15-6.95-1.27-.77-2-.77-2 .54-2.12 1 .5 6.87.23 6.91c-2.89.46-3.44 3.78-3.44 5.56s2.05 4.13 4.87 4.25 5.48-1.28 5.48-5.14a4.87 4.87 0 0 0 -3.17-4.86z" fill="#fff"/></svg>