<svg height="64" viewBox="0 0 64 64" width="64" xmlns="http://www.w3.org/2000/svg"><path d="m32.4 17.45c-15.4 1.36-18.08 12.22-17.92 18.55s6 16.23 16 16.39 19.65-6.19 18.78-19a16.42 16.42 0 0 0 -16.86-15.94zm-1.83 33.44c-9.1-.15-14.47-9.25-14.62-15s2.29-15.72 16.41-17a15 15 0 0 1 15.41 14.6c.8 11.73-8.1 17.51-17.2 17.4zm26.21-20a19 19 0 0 0 -5.54-11 21.4 21.4 0 0 0 2.18-2.89 2.93 2.93 0 0 0 -1.09-3c-1.33-1.06-3.42-2.25-4.33-2s-3.1 2.82-3.1 2.82-2.55-1-4.83-1.68a29.09 29.09 0 0 0 -4.29-.87v-1.55a21 21 0 0 0 3.48-.22c.43-.22.7-4.61.38-5s-14.07-.54-15-.16-.27 5.26.05 5.59 4.13-.05 4.13-.05l-.06 1.63s-.43 0-2.87.54a26.52 26.52 0 0 0 -5.6 2.12s-1.84-3.26-2.49-3.59-5.65 3.59-5.92 4.42 2.06 3.59 2.06 3.59a31 31 0 0 0 -6.57 12.41c-1.09 4.73-.22 11.51 4.83 18.3s20.58 13.14 32.42 4.35 13.14-16.73 12.16-23.79zm-8.2-17.64c.6-.06 3.91 2.55 3.75 2.87s-1.74 2.66-2.12 2.61a42.09 42.09 0 0 1 -3.91-3.26s1.7-2.2 2.28-2.25zm-22.75-3.73c-.3-.12-.22-2.87.06-2.87s11.78-.11 11.89.27.27 2.17-.27 2.33-11.41.38-11.68.27zm8.47 2.61c-.21.11-3.74 0-3.74 0s-.28-1.35-.06-1.41 3.91-.22 3.91.06.11 1.22-.11 1.35zm-21 4a15.67 15.67 0 0 1 4-2.93c.49 0 2.12 2.12 2 2.44s-4.3 3.22-4.3 3.22a15.75 15.75 0 0 1 -1.71-2.77zm36.8 29.87c-5.05 7.28-17.86 12.54-26.87 8.53s-14.77-11.34-13.63-19.32 4.07-13.42 9.72-16.46 8.09-4.07 12.38-4.07c4.78 0 13.52 1.74 18 8.42s5.45 15.64.4 22.9zm-10.33-20.6a1.29 1.29 0 0 0 -1.35.16.79.79 0 0 0 -.18.93c1.84 1.22 3.43 3.36 3.71 7.08a14 14 0 0 1 -.65 5.91 5.38 5.38 0 0 0 -1.64-.71c-.42 0-.21.73-.11 1.15a3.58 3.58 0 0 0 1.09.93 7.51 7.51 0 0 1 -.71 1c-1.14-1.09-3.26-2.85-3.64-2.85s-.63.52-.52.89a29.22 29.22 0 0 0 3.36 2.84 8.57 8.57 0 0 1 -1 .79 21.25 21.25 0 0 0 -3-2.48c-.47-.16-.68.32-.63.63a22.36 22.36 0 0 0 2.39 2.53c-.3.13-.6.25-.91.35a32.08 32.08 0 0 0 -2.48-2.2c-.15 0-.68.32-.73.74 0 .25.9 1.16 1.65 1.86a15.36 15.36 0 0 1 -4 .2c-6-.42-8.43-4.6-9-8.73a9.93 9.93 0 0 1 8.64-11.36c.05 1.71.22 3.18.47 3 .6-.36 6.44-2.86 6.8-3.58s-4.53-3.22-6.92-4.17c-.23-.09-.35 1.37-.37 3-8.73 1.14-11 8.77-10.32 13.28.7 4.8 3.55 9.68 10.52 10.17s14.22-2.37 13.38-13.52c-.27-3.95-1.9-6.37-3.85-7.84z" fill="#fff"/></svg>