<svg height="64" viewBox="0 0 64 64" width="64" xmlns="http://www.w3.org/2000/svg"><path d="m56.78 30.86a19 19 0 0 0 -5.54-11 21.4 21.4 0 0 0 2.18-2.86 2.93 2.93 0 0 0 -1.09-3c-1.33-1.06-3.42-2.25-4.33-2s-3.1 2.82-3.1 2.82-2.55-1-4.83-1.68a29.09 29.09 0 0 0 -4.29-.87v-1.55a21 21 0 0 0 3.48-.22c.43-.22.7-4.61.38-5s-14.07-.54-15-.16-.27 5.26.05 5.59 4.13-.05 4.13-.05l-.06 1.63s-.43 0-2.87.54a26.52 26.52 0 0 0 -5.6 2.12s-1.84-3.26-2.49-3.59-5.65 3.59-5.92 4.42 2.06 3.59 2.06 3.59a31 31 0 0 0 -6.57 12.41c-1.09 4.73-.22 11.51 4.83 18.3s20.58 13.14 32.42 4.35 13.14-16.73 12.16-23.79zm-8.2-17.64c.6-.06 3.91 2.55 3.75 2.87s-1.74 2.66-2.12 2.61a42.09 42.09 0 0 1 -3.91-3.26s1.7-2.17 2.28-2.22zm-22.75-3.7c-.3-.12-.22-2.87.06-2.87s11.78-.11 11.89.27.27 2.17-.27 2.33-11.41.38-11.68.27zm8.47 2.61c-.21.11-3.74 0-3.74 0s-.28-1.35-.06-1.41 3.91-.22 3.91.06.11 1.22-.11 1.35zm-21 4a15.67 15.67 0 0 1 4-2.93c.49 0 2.12 2.12 2 2.44s-4.3 3.22-4.3 3.22a15.75 15.75 0 0 1 -1.71-2.77zm36.8 29.87c-5.05 7.28-17.86 12.54-26.87 8.53s-14.77-11.34-13.63-19.32 4.07-13.42 9.72-16.46 8.09-4.07 12.38-4.07c4.78 0 13.52 1.74 18 8.42s5.45 15.64.4 22.9zm-17.7-28.55c-15.4 1.36-18.08 12.22-17.92 18.55s6 16.23 16 16.39 19.65-6.19 18.78-19a16.42 16.42 0 0 0 -16.86-15.94zm-1.83 33.44c-9.1-.15-14.47-9.25-14.62-15s2.29-15.72 16.41-17a15 15 0 0 1 15.41 14.6c.8 11.73-8.1 17.51-17.2 17.4zm.66-29.2c-.11.6.86 12.26.76 12.44s-6.26-11-6.66-11.1-2.45.66-5 4.08-3.18 9.45-2 12.54 3.47 9 12.3 9.53 12-4.15 13.19-6.52 4-11.18-.4-16.45c-4.57-5.46-12.04-5.29-12.19-4.52zm11.55 19.39a6.41 6.41 0 0 0 -2.31-1.17c-.42 0-.21.73-.1 1.15a6.16 6.16 0 0 0 1.72 1.34 10.16 10.16 0 0 1 -.8 1.18c-.81-.93-3.73-3.43-4.18-3.43s-.63.52-.53.89a41 41 0 0 0 4 3.33 9.72 9.72 0 0 1 -1 .91 24.1 24.1 0 0 0 -3.58-3.09c-.47-.16-.68.32-.63.63a34.54 34.54 0 0 0 3.03 3.18 9.69 9.69 0 0 1 -.91.46 28.67 28.67 0 0 0 -2.76-2.46c-.15-.05-.68.32-.73.73s1.36 1.61 2.11 2.28a15.92 15.92 0 0 1 -7.4.36c-4.32-.82-6.56-2.74-8.52-7.14s-.89-7.66.41-10.67 3.5-4.72 4-4.4 6.93 11.16 7.82 11.32.56-12.8.53-13.24c0-.6 7.13.54 9.49 4.77a13.78 13.78 0 0 1 .34 13.07z" fill="#fff"/></svg>