<svg height="64" viewBox="0 0 64 64" width="64" xmlns="http://www.w3.org/2000/svg"><path d="m57.13 21.36a11.93 11.93 0 0 0 -4.13-2.91 5 5 0 0 0 1.14-.77 17 17 0 0 0 2.63-2.95c.14-.5.5-1.59-.13-1.77s-3.64 1.38-4.71 1.65a7.72 7.72 0 0 1 -1.84.28s.27-.14 1.16-.75a36.05 36.05 0 0 0 3.54-3.41 1.07 1.07 0 0 0 -.2-1.36c-.41-.41-.55-.07-4 1.29s-4.84 1.23-4.84 1.23 4.71-6.14 4.84-7.43-1.84-1.64-2.79-1.77-1-.28-2.18 1.36-3.82 6.07-3.82 6.07a7 7 0 0 1 -1.53-1.12 8.34 8.34 0 0 1 -1.5-3.28s-.2-1-1.09-.88-1 2.93-1 2.93l-1.09-.68c-1.09-.68-1.37-1.84-2.32-2.12s-1 .21-1.09.89a25.19 25.19 0 0 0 1 4.09c-2.16-1.23-7.06-2.09-13-.5s-9.67 5.19-13.67 11.09-5.95 15.46-3.51 22.04 9.1 13.77 18.69 17.42 20.4-.41 28.31-5.05 11.72-13.78 12-19.46a22.09 22.09 0 0 0 -4.87-14.13zm-1.64-6.86a14.16 14.16 0 0 1 -2.31 2.27 5 5 0 0 1 -2.27 1.09 14 14 0 0 0 -4.09-1.54 9.54 9.54 0 0 1 1.5-.73 3.5 3.5 0 0 0 1.68.55c.63-.09 4.5-.82 5.49-1.64zm-8.08-10.45c.54-.32 2.18.32 2.13.64a72.69 72.69 0 0 1 -4.91 6.86c-.31.13-2-.09-2-1.14a60.66 60.66 0 0 1 4.78-6.36zm-9.41 2.82c.1-.11 1.4 2.5 2 3.27a3.87 3.87 0 0 0 1.32 1.09s-.77 1.13-.22 1.41a1 1 0 0 0 1.13-.32c.14-.14.32-.59.68-.36a1.57 1.57 0 0 1 .64.81c0 .19-.14 1.23.36 1.41s1.37-.45 4.46-1.77 5.13-2 5.13-1.77a10.35 10.35 0 0 1 -4.18 3.41c-2.5 1.22-3.54 1.9-4.14 1.86a25 25 0 0 1 -4.9-2.68c-1.32-.91-1.87-1.27-2-1.91s-.6-4.18-.28-4.45zm-4.5-.28c.14-.17 1.77 1.32 2.41 1.87a2.35 2.35 0 0 0 1 .59l.23 2.41a4.11 4.11 0 0 1 -2.46-1.32 4.31 4.31 0 0 1 -1.18-3.55zm23.72 36.31c-.52 1-1 2-1.62 3a12.38 12.38 0 0 0 -1.79-2.9c-.31-.1-.81.31-1 .81s1.19 2.59 1.76 3.66a16.81 16.81 0 0 1 -1.49 1.79 15.32 15.32 0 0 0 -1.72-3.18c-.23-.14-1 .46-1.14.77a18.26 18.26 0 0 0 1.69 3.51 21.68 21.68 0 0 1 -2.12 1.64 27 27 0 0 0 -2.07-4.71c-.27-.13-1 .27-1 .82a31.26 31.26 0 0 0 1.92 4.64c-.5.3-1 .6-1.6.89a37.26 37.26 0 0 0 -2.37-4.48 1.07 1.07 0 0 0 -1.13.5c-.15.32 1.47 3.42 2.13 4.66-.66.31-1.35.61-2.1.92-.57-1.4-2.62-5.59-2.89-5.63s-.64.36-.78.68 1.85 4.39 2.38 5.46c-.58.23-1.15.44-1.7.63a33.53 33.53 0 0 0 -2.63-5.23c-.32-.27-1 0-1.23.37s1.65 3.94 2.39 5.37c-.62.2-1.22.39-1.81.56a39.54 39.54 0 0 0 -2.85-5.34c-.23-.14-.95.18-1.23.54s1.86 4 2.55 5.2c-.81.2-1.59.37-2.34.5a40.13 40.13 0 0 0 -2.61-5.2c-.23-.13-.82.09-1.05.5s1.34 3.39 2.11 4.92a17.61 17.61 0 0 1 -11-2c-5.83-3.22-12.32-7.17-14.82-13.57s-1.59-12.51.94-18.41a22.26 22.26 0 0 1 22-13.27 22 22 0 0 1 8.14 2.68l1 .6a7.08 7.08 0 0 0 3.68 3.68c2.87 1.31 7 1.86 9.77 3s5.36 4.68 6.73 9.45 1.08 7.99-1.1 12.17zm-34.12-25.58a10.06 10.06 0 0 0 -4.5 2.81 9.27 9.27 0 0 0 -2.37 4.14c-.09.59.82.41 1.41.36s.64-.77 2.28-3 3.63-2.64 3.81-2.95-.14-1.36-.63-1.36z" fill="#fff"/></svg>