<svg height="64" viewBox="0 0 64 64" width="64" xmlns="http://www.w3.org/2000/svg"><path d="m12.17 13.67a6.38 6.38 0 0 0 -2.6 4c0 .27 1 .82 1 .82a8.48 8.48 0 0 1 2.1-3.79 4.48 4.48 0 0 1 3.88-1.5 1 1 0 0 0 -.05-1.1c-.22-.21-1.91-.34-4.33 1.57zm22.23-5.43a6 6 0 0 0 -3.65 2c-.23.23.5 1.14.87 1.05s1.38-1.59 2.74-1.63 2.65.82 2.92.77.27-.59.27-.82-1-1.55-3.15-1.37zm15.85 7.76c-.37.23-.14 1.1-.14 1.1a6.16 6.16 0 0 0 .91.36c.69.23.82.78 1.1 1s.27 0 .55-.14 0-.5-.69-1.5a1.75 1.75 0 0 0 -1.73-.82zm7-3.56c-5.25-5.89-12.34-1.55-12.34-1.55a10.83 10.83 0 0 0 -8.31-8.68c-7.54-1.78-13.15 5.67-13.15 5.67a8.29 8.29 0 0 0 -4.57-2.42 16.39 16.39 0 0 0 -12.23 3.92c-4.57 4-5 9.63-2.42 15.39a12.31 12.31 0 0 0 8.53 6.75l2.42 18.68a1.83 1.83 0 0 0 -1.82.86c-.09.37-.37 5.39.14 6.17s4.88 4 17.57 4.75 18.72-3.47 19.13-4 .73-5 .69-6.43-1.24-1.28-1.24-1.28l1.35-15.69a19.13 19.13 0 0 0 8-6.89c3.3-4.98 3.44-9.36-1.77-15.25zm-22.61 46.91a25.11 25.11 0 0 0 0-3.86c-.08-.34-.73-.27-1-.27s-.13 3.17-.1 4.17h-2.14a25 25 0 0 0 0-3.85c-.08-.34-.73-.28-1-.28s-.14 3-.1 4.11l-1.65-.08a22.81 22.81 0 0 0 0-4.07c-.08-.34-.73-.28-1-.28s-.13 3.38-.1 4.26c-1.22-.09-2.35-.21-3.37-.36a24 24 0 0 0 -.18-3.71c-.08-.34-.73-.28-1-.28s-.08 3.33 0 3.82l-1.72-.31a23.26 23.26 0 0 0 -.1-3.6c-.08-.34-.73-.27-1-.27s-.11 2.73-.07 3.6l-1.24-.33a14.22 14.22 0 0 0 -.16-3.64c-.13-.32-.59-.27-.86-.27s-.11 2.66-.07 3.57c-1.46-.5-2.21-1-2.26-1.15-.14-.5-.5-3.84-.09-3.88a82.72 82.72 0 0 0 16.75 1.5c1.76 0 3.48-.12 5.11-.22 0 .89 0 4.26.1 5.5-.93.08-1.83.14-2.75.18zm8.35-1-1.3.23c0-1.34 0-4.12-.07-4.26s-1.1 0-1.1 0v4.48c-.69.1-1.43.19-2.18.27 0-1.23.07-4.43-.05-5.48 1.71-.12 3.29-.27 4.7-.41zm1.18-.24c.07-1.26 0-4.13-.09-5.08l1.41-.16c0 1.13.19 3.79.29 4.86-.49.16-1.02.27-1.61.41zm4.48-1.28a9.54 9.54 0 0 1 -1.93.66c.06-1.2-.06-3.66-.13-4.74a14.11 14.11 0 0 1 2.33-.21 23.17 23.17 0 0 1 -.27 4.32zm4.47-26.93a19.23 19.23 0 0 1 -4.12 2.58c-.06.08-.2 2-.38 4.62a9 9 0 0 0 -1.94-2c-.37-.05-.69 1-.69 1s1.65 1.52 2.54 2.32c-.06.84-.12 1.71-.19 2.59a18.86 18.86 0 0 0 -2.81-3.18c-.41-.09-.59.73-.59.73.17.34 2.24 2.45 3.32 3.55-.07 1-.15 2-.23 3a37.27 37.27 0 0 0 -3.87-5c-.45-.14-.69.83-.63 1 .15.38 3.34 4 4.4 5.22-.09 1-.18 1.81-.26 2.49-1.27-1.8-4-5.5-4.24-5.61s-.63.59-.63.59c.18.41 3.43 4.55 4.69 6.16-.06.31-.12.49-.18.51l-.87.22a48.49 48.49 0 0 0 -3.87-5.33c-.37-.14-.82.68-.82.68 0 .19 2.55 3.59 3.51 4.89l-.93.17c-.55-.9-3-4-3.32-4s-.73.68-.73.68a38.5 38.5 0 0 0 2.83 3.57l-1.51.22a17.2 17.2 0 0 0 -2.54-3.57c-.41-.14-.77.77-.77.77s1.51 2 2.17 2.79a74.8 74.8 0 0 1 -8.16.5 72.45 72.45 0 0 1 -14.6-1.36l-2.52-19.27s.46-1.28.05-1.64-3.88-.59-6.76-3.79-5.16-8.95-1.14-13.88 10.91-4.43 12.51-3.29 3.65 3.79 4.16 3.88 2.05-.86 2-1.14a14.45 14.45 0 0 0 -1.23-1.87s5.94-6.94 11.73-4.93 6.08 9 6.49 9.31a2.58 2.58 0 0 0 2.19.14c.46-.36 7-5 11.64 1.78s-1.19 11.87-3.7 13.93z" fill="#fff"/></svg>