<svg height="64" viewBox="0 0 64 64" width="64" xmlns="http://www.w3.org/2000/svg"><path d="m31.76 17.09c-.06-.16-.58 0-.68.22a5.19 5.19 0 0 0 -.08 3.29 5.28 5.28 0 0 0 2.1 2.19c.16.06.63-.13.66-.32s-1.1-1.15-1.63-2.12-.3-3.1-.37-3.26zm2.07.59c-.06-.34-.63 0-.72.19a4.42 4.42 0 0 0 0 2.26 4.23 4.23 0 0 0 1.47 1.87 1.81 1.81 0 0 0 .57-.19c.15-.13-.19-.44-.82-1.25s-.44-2.56-.5-2.88zm14.17.82c0-.44-.56.12-1.56.84a26.88 26.88 0 0 1 -2.44 1.44c-.19.13.22.85.44.88a1.88 1.88 0 0 0 1.22-.56c.54-.44 2.34-2.16 2.34-2.6zm.94 1.06c0-.19-.41.25-1.22.91a8.45 8.45 0 0 1 -1.72 1.13c-.19.06 0 .66.15.72a1.48 1.48 0 0 0 1.08-.32 7 7 0 0 0 1.69-2.44zm12 10c.91.06 1-.16 1.13-.85s-.59-1.53-2.32-1.56a24.19 24.19 0 0 0 -4.35.78 2.09 2.09 0 0 1 -1-.91c-.06-.22 2.13-1 3.29-1.5s3.07-1.69 3.22-2.19-.25-1.57-.84-1.63-7.07 4.12-7.07 4.12l-1-.09a9.91 9.91 0 0 1 1.09-.91c.57-.47 3.36-2.22 3.42-2.31a2.11 2.11 0 0 0 .24-1.51 2.5 2.5 0 0 0 -1.53-1.09c-.41-.06-2.2 1.28-2.2 1.28a9.75 9.75 0 0 0 1.22-3.1c.6-2.25 1.35-6.42.57-7.39s-3.63-1.34-8.27.5a20.05 20.05 0 0 0 -7.48 5.42s-.85-1.38-2.41-3.54a37.92 37.92 0 0 0 -5.65-5.6c-.44-.28-1-.35-1.72.34a23.44 23.44 0 0 0 -4.39 9.61 10.24 10.24 0 0 0 .8 6.57c-.06.13-.47.09-1.44-.44s-1.85-1.24-2.25-1.4a1.77 1.77 0 0 0 -1.85.88c-.47.81-.69 4.79.09 8.61s5.57 4.35 5.57 4.35a14.48 14.48 0 0 1 -2.81 2 46.29 46.29 0 0 1 -10.46 4.58c-2.94.81-7.08-.22-7.26-.25a5.27 5.27 0 0 0 -2.45.4 1.89 1.89 0 0 0 -.25 3.07c.72.6 2.35.16 2.88 0s5.89-.12 7.77-.53 13.68-6 13.81-6 0 .56-.1.69a24 24 0 0 1 -2.78 1.53c-1.57.82-9.21 4.54-13 7.11s-5.82 4.6-6.38 6.26 1.53 2 2.53 1.72 1.19-1.69 1.22-2.16 0-.72 3.23-3.06 15.06-7.52 15.06-7.52a2.45 2.45 0 0 1 0 .41 1.51 1.51 0 0 0 .25.62s-5 3-7.7 5.08-3.73 3.32-4 4.35 1.22 1.5 1.94 1.16 2-2.82 6.17-5.29 11.3-6.7 11.3-6.7a4.3 4.3 0 0 0 .94 1.94 9.82 9.82 0 0 0 4.54 3.22 10.26 10.26 0 0 0 8-.78c2.35-1.44 4.16-2.66 4.19-3.26s-.43-1.91-2.28-2.35a5.27 5.27 0 0 1 -2.88-1.59c-.28-.28 0-1.1.94-1.35a25.17 25.17 0 0 1 5.07-.22c2.63 0 3.54-.41 6.45-2.44a5 5 0 0 0 1.85-5.74c-.15-.44-.91-.35-2.6-.66a4.57 4.57 0 0 1 -2.34-1 5.52 5.52 0 0 1 .87-.06c.53.03 2.47.28 3.38.34zm-34.28 13.23c-.09.13-8.27 3.73-12.71 6.36s-6.48 4.17-6.61 5.1.19 1-.59 1.44-.82-.25-.85-.56.82-3.07 8.1-7.13 12.81-6.79 12.84-6.64a5.68 5.68 0 0 1 -.18 1.43zm33.16-20.13c.22 0 .19.5.19.5s-5.92 3.23-6.08 3.23-.31-.35-.31-.35 5.98-3.41 6.2-3.38zm-4.7-1.75c.19 0 .94.81.69 1s-4.57 3.48-4.81 3.48-1-.19-.78-.35 2.25-2.82 2.25-2.82a26.41 26.41 0 0 1 2.65-1.31zm-28.33 17.6c-.82.31-8.55 4.22-11 5.1a27.58 27.58 0 0 1 -4.41 1.19 57.32 57.32 0 0 0 -6.48.06c-.88.25-.91.38-1.35.28s-1.31-1-.09-1.59a5.13 5.13 0 0 1 2.47-.22 13 13 0 0 0 5.57.34 48.39 48.39 0 0 0 10.74-4.13c2.7-1.54 4.73-3.2 4.92-3.23s2.38-.28 2.25.07a7.2 7.2 0 0 1 -1.47 1.44 2.6 2.6 0 0 1 -1.15.69zm-7.58 13.68c-1.79 1.81-1.85 2.25-2.13 2.31s-1-.28-.6-.68a92.34 92.34 0 0 1 8.36-6.36c3.48-2.25 3.32-2.25 3.79-2.35a10.48 10.48 0 0 1 1.54-.06s-9.17 5.32-10.96 7.14zm38.38-20.19c1.48.47 2 .41 2 1s-3.92 3.85-5 4.26-4.92-.19-6.05.19-2.13 1-2.5.84-1.28-2.06-2.63-2.47-2.79-.31-2.91.06-.1 1.35 0 1.35a4.17 4.17 0 0 1 3.66 2c1.29 2.13 2.19 4 3.51 4.51s2.06.54 2.06.72a7.26 7.26 0 0 1 -5 2.29c-2.66 0-4.64-.31-6.23-2s-2-3.5-1.44-5 1.84-2.81 1.84-3.19-.31-1.56-.9-1.44-2.44 2.38-3 4.14.22 2.09-.5 2.6-5.2 1.47-5.7.75a6.35 6.35 0 0 1 1.91-4.76c1.75-1.41 2.53-1.6 2.57-2.23s-.41-2.25-.79-2.12-4.54 1.06-7.7-.54-3-7.7-2.66-7.95 2 1.32 3.16 1.53 4.54.1 5.51.16 1.44-.09 2 .35 1.34 2.22 1.78 2a3.43 3.43 0 0 0 1-.91s1.72-3.16 3-3.75 2.63-.47 2.81-.19-.12 2.44.41 3 1.07.22 1.25.76 0 1.34.38 1.91 1.69.75 1.53 1.44 0 .62-.62 1.12-1.22 1.29-1.13 1.66a1.19 1.19 0 0 0 1.32.69 10.13 10.13 0 0 0 2.47-2.78 2.57 2.57 0 0 0 -.25-2.44c-.41-.41-1.28-1.19-1.28-1.19s-.38-1.66-1-2-1.25-.37-1.25-.53 0-2.6-1.31-3.25-3.45-.07-4.48.5-2.1 3.25-2.48 3.13-1.37-1.38-2.66-1.44-3.57 0-4.29-.41-1.81-4.37-1.18-7.25 3.07-7.12 3.6-7.12 5.51 6 6.32 6.86 1 1.28.85 1.79a7.42 7.42 0 0 0 -.35 2.09c.13.22.57.76.88.69s1.38-2.44 2.13-3.1a17.76 17.76 0 0 1 6.86-5.13c4.44-1.85 6-1.69 6.26-1s-.25 5.79-2.44 9.17-4.2 5.7-4.2 5.89.66.84.66.84 3.38-1.25 4.32-.5 4.41 3.92 5.88 4.4zm-1.15-3.07c-.22 0-.41-.43-.41-.43a8 8 0 0 1 3.38-.79c1.41.16 1.85.69 1.63.94a.82.82 0 0 1 -.85.22 2.86 2.86 0 0 0 -1.84-.31c-1.07.21-1.69.36-1.91.36zm-28.28.69c-2.19 0-2-.58-2.38-.4s-.06.69.16.9.25.22 2.16.44a4 4 0 0 0 3.13-.81c.25-.2-.88-.17-3.07-.14zm4.17 9.87c-.22.28.15.84.44.78a7.16 7.16 0 0 0 1.84-2.16c-.03-.29-2.28 1.37-2.28 1.37zm7.26.9a4.35 4.35 0 0 0 .06 1.95 3.25 3.25 0 0 0 1.69 1.78c.76.22 1.29 0 1.41-.22s-.62-.25-1.69-1-.59-2.57-.65-2.79-.76.09-.82.27zm4.23 3c.34 0 .41-.12.56-.34s-.12-.19-1.09-.82a2.17 2.17 0 0 1 -.91-1.69c-.13-.19-.83-.19-.78.1a3.14 3.14 0 0 0 .4 1.75 3.17 3.17 0 0 0 1.82 1.03zm-3.76-9.8c-1.13-.12-1-1.13-1.53-1.75s-.72-.22-1.6-.66.69-1.72.91-2.19a.46.46 0 0 0 -.6-.63c-.62.22-1.5 2.1-1.47 2.88s.94 1.1 1.79 1.29 1.12 1.47 1.72 1.75a3.54 3.54 0 0 0 2 .19c.47-.13.44-.5.47-.69s-.56-.03-1.69-.16zm9.94-2.32c-.19 0-.16.66-.07.82s.25.09.72.09 1.07.44 1.63.44 1.25-.13 1.16-.31a8.72 8.72 0 0 0 -1.63-.82 3.4 3.4 0 0 0 -1.81-.22zm-.44 2.82c-.25.19-.19.53-.13.85s1.29.18 2.45-.07a2.1 2.1 0 0 0 1.65-1.62c-.06-.26-.81.5-1.75.81a7.68 7.68 0 0 1 -2.23.03z" fill="#fff"/></svg>