<svg height="64" viewBox="0 0 64 64" width="64" xmlns="http://www.w3.org/2000/svg"><g fill="#fff"><path d="m62 26.05c-.29-1.27-3-4-3.33-4.12a7.41 7.41 0 0 0 -1.88.32l-.36-.58s1.09-1.51 1-2.13-2.78-4.12-6.8-7.77-7.37-5.35-7.88-5.28a9.91 9.91 0 0 0 -2.13 1.59 10.68 10.68 0 0 1 -.9-1c-.15-.26.68-.87.83-1.2s-.43-.94-.87-1.37-2-1.77-3.72-1.34-5.96 4.77-7.96 10.05-1.3 15.9-1.3 15.9-23.17 19.48-23.7 20.42-1.16 6.22-1.09 7.67a3.74 3.74 0 0 0 2 3.07c1 .5 6.54.76 6.9.65a60.12 60.12 0 0 0 9.65-7.85c4.84-4.69 16.74-16.95 16.74-16.95a62.88 62.88 0 0 0 12.39-.68c6-1.05 11.14-6.08 11.61-6.58a3.18 3.18 0 0 0 .8-2.82zm-18.85-18.47c.43 0 4.81 3.07 7.66 5.89s5.78 6.18 5.6 6.65a24 24 0 0 1 -3.21 3.33c-.15 0-12.26-9.47-13.74-12.18-.14-.27 3.25-3.69 3.69-3.69zm-3.94.94c.18.14.61.54.61.54s-1.52 1.77-1.52 2.21.33 1.08 1.23 2.09 6.55 5.64 9.11 7.88 4.16 3.36 4.52 3.36 2-1.44 2.1-1.44a4.66 4.66 0 0 1 .86.5 11.78 11.78 0 0 1 -5.12 3.11c-3.65 1.3-9.87 2.1-12.94 1.66s-4.81-2.27-5-6.47 1.62-10.3 5-13.48a1.46 1.46 0 0 1 1.15.04zm9.61 24.65c-7 1.66-12.39.29-12.79.61s-7.58 8.22-12.52 13.27a16 16 0 0 0 -.51-3.18c-.15-.07-.55.18-.69.43a24.88 24.88 0 0 0 .36 3.59l-1.05 1a23.06 23.06 0 0 0 -.43-3.48c-.15-.15-.4 0-.65.36s.09 3 .21 4l-.89.85a17.81 17.81 0 0 0 -.55-3.2c-.15-.15-.33.14-.58.47a14 14 0 0 0 .27 3.58l-.74.7a11.1 11.1 0 0 0 -.43-3.24c-.26-.18-.55.14-.65.36a38.62 38.62 0 0 0 0 3.87l-.91.83a19.5 19.5 0 0 0 -.27-3.44c-.14-.21-.36-.07-.65.15s0 3.17.09 4.09a38.52 38.52 0 0 1 -4.28 3.61c-.51.14-6.14 0-6.8-.73-.23-.24.29-6.72.4-6.93s24.18-20.1 24.36-20.9-1.12-9.32.18-14.09 6.19-10 6.76-10.41 2.32.61 2.1.94a14.94 14.94 0 0 0 -5.46 6.9 23 23 0 0 0 -1.12 12.82c.72 2.63 3.91 4.44 6.22 4.69a38.84 38.84 0 0 0 12.36-1.51 24.61 24.61 0 0 0 6.76-3.4c.58-.54 1.19-1.56 1.52-1.48s1.8 2.17 1.66 2.78-4.23 4.43-11.28 6.09zm-41.53 18.4a3.15 3.15 0 0 0 .15 3.72c1 1.23 3.39.54 4.23-.15a2.86 2.86 0 0 0 .1-4 3.23 3.23 0 0 0 -4.48.43zm3.62 2.85c-.52.43-2 .86-2.65.09a2 2 0 0 1 -.09-2.33 2 2 0 0 1 2.83-.25 1.8 1.8 0 0 1 -.09 2.49z"/><path d="m42.35 10.33c-.09-.23.73-.8.91-.73s11.38 9.33 11.2 9.8-.61 1.05-.9.83-10.88-9.15-11.21-9.9z"/></g></svg>