<svg height="64" viewBox="0 0 64 64" width="64" xmlns="http://www.w3.org/2000/svg"><path d="m29.73 52.32a4.8 4.8 0 0 0 .27 3.48c.44.93 2 .78 2.57.44a4.47 4.47 0 0 0 .82-4c-.56-1.43-3.09-1.07-3.66.08zm2.86 1c.14 1.12-.2 2-.92 2s-1.26-1.32-.67-2.91c.2-.58 1.44-.24 1.59.87zm10.9-40.75c-.19-1-1.36-2.82-5.43-4.51s-12.94-5.86-14.78-6.06-2.57 1.79-2.76 2.37.14 13.77.19 14.79.49 3.05 2.72 7.22a58.36 58.36 0 0 0 4.89 7.56s-3 18.71-2.57 21.47 1.94 6.79 6.25 6.65 5.14-2.52 5.29-5.63-1.5-22.77-1.5-22.77a22.73 22.73 0 0 0 2.52-3.88 97.36 97.36 0 0 0 4.84-8.92 75.87 75.87 0 0 0 .34-8.33zm-3.15 7.85c-.29.77-7.27 12-7.41 12.45s1.06 11.1 1.4 16.53-.19 9.21-1 9.84-4.17.34-4.7-2 1.26-14.05 1.75-18.51a55.41 55.41 0 0 0 .48-5.63c0-.43-5.19-8-6.35-10.42s-1.07-2.37-1.21-3-.3-12.83-.3-13.68c0-1 .39-1.55 1.26-1.45s16.66 7.05 16.74 7.73a66.48 66.48 0 0 1 -.66 8.1zm-14.25-11.72a59.7 59.7 0 0 0 .1 6.68c.19.39.77.25 1.07-.14s.24-6 0-6.64-1.13-.18-1.17.1zm5.48 19.72a.84.84 0 0 0 .73-.34c.24-.29-1.75-2.37-2.09-2.47s-1 .5-.82.53c.39.1 2.03 2.23 2.18 2.28zm.14-4.75c-.29-.09-1 .24-.87.54a18.21 18.21 0 0 0 2.62 3.15.67.67 0 0 0 .77-.59c.1-.43-2.23-3-2.52-3.1zm1.36-2.91c-.39-.19-1 .58-.77.88a31.71 31.71 0 0 0 3.49 3.68.69.69 0 0 0 .77-.44c.1-.34-3.1-3.88-3.49-4.12zm2.33-1.76c-.39-.1-.89.41-.73.77a17.28 17.28 0 0 0 2.42 2.48c.25.09.49-.15.59-.54s-1.89-2.59-2.28-2.71zm3.2-1.31a.87.87 0 0 0 -1 .24c-.29.49.14 1 .82.83a.57.57 0 0 0 .18-1.05z" fill="#fff"/></svg>