<svg height="64" viewBox="0 0 64 64" width="64" xmlns="http://www.w3.org/2000/svg"><path d="m43.88 12.86c-.88-4.86-4.33-10.92-10.25-10.92s-9.91 2.34-12 5.7-2.35 8.58-1.2 15 7.14 10.86 7.14 10.86-.57 19.23-.75 22.37 2.7 6.19 5 6.19 5-2.21 5.13-6.5-.76-21-.76-21 2.48-1.32 5.09-6.19a24.48 24.48 0 0 0 2.6-15.51zm-2.47 8.53c-.8 5.35-3.94 8.31-5.49 10.12s-1.81 1.9-1.85 2.17.93 21.79.57 23.25-1.37 2.79-2.61 2.7-3-.84-2.87-4.64.84-21.53.71-22.15-4.33-3.36-6.06-7.69-2.78-10.66-.13-16c1.26-2.56 5.88-6.15 12.07-4.15s6.45 11 5.66 16.39zm-11.19 31.34c-1.11 2.79.31 4.25 1.9 4.25s2.43-2.35 1.77-3.85-3.27-1.43-3.67-.4zm1.15 3.14a1.78 1.78 0 0 1 .17-2.87c.31-.19 1.42 0 1.55 1.37s-.93 2.03-1.72 1.5zm-.31-47.34c.05-.31-.59-.89-1.41-.71a5.19 5.19 0 0 0 -3 2.43 8.45 8.45 0 0 0 -1.1 4.82.57.57 0 0 0 .7.44c.31 0 .14-2.48 1.55-4.64s3.2-2.03 3.26-2.34zm1.55 17.86c-.4-.27-.78.51-.58.75s2.57 3.09 2.83 3.22.4 0 .62-.35-2.48-3.36-2.87-3.62zm1.59-1.86c-.22-.09-.79.34-.75.53a38.63 38.63 0 0 0 3 3.54c.22.13.35-.09.66-.36s-2.69-3.62-2.91-3.71zm1.95-1.46c-.27 0-.75.38-.71.57a29.92 29.92 0 0 0 2.47 3.28c.18.08.49-.36.53-.62a13.61 13.61 0 0 0 -2.29-3.23zm1.54-1.24c-.17-.09-.35.22-.48.49a26.35 26.35 0 0 0 1.9 2c.17 0 .17-.14.22-.53s-1.46-1.87-1.64-1.96z" fill="#fff"/></svg>