<svg height="64" viewBox="0 0 64 64" width="64" xmlns="http://www.w3.org/2000/svg"><path d="m54.89 14.12a20.89 20.89 0 0 0 -14.74-6.9c-.34 0-.69 0-1 0a27.13 27.13 0 0 0 -8.36 1.41 5.81 5.81 0 0 0 .45-1.94 6.12 6.12 0 0 0 -4.15-6.15 8.88 8.88 0 0 0 -3.19-.54 14 14 0 0 0 -8.64 3.26 27.22 27.22 0 0 0 -8.92 13.47c-1.23 4.27-1.77 10.42.79 13.49a5.53 5.53 0 0 0 4.35 2.32 7.46 7.46 0 0 0 2.85-.68 4.05 4.05 0 0 0 1.77-1.5c0 .58.11 1.21.2 1.89a15.59 15.59 0 0 0 1.35 4.36c-2 1.28-2.24 1.65-2.42 1.93a3.49 3.49 0 0 0 -.34 3.19 22.14 22.14 0 0 0 1.64 2.83 2.66 2.66 0 0 0 -1.83-.85 2.19 2.19 0 0 0 -.76.15c-1.3.52-2.76 3.32-3.15 4.28a9.86 9.86 0 0 0 -.34 1.11h-.16a2.2 2.2 0 0 0 -.94.22 7.85 7.85 0 0 0 -3.35 3.83 3.9 3.9 0 0 0 0 2.7 5.4 5.4 0 0 0 -1.13 1.3 3.56 3.56 0 0 0 -.29 3.27 5.35 5.35 0 0 0 3.85 2.93 4.89 4.89 0 0 0 1.26.16 6.56 6.56 0 0 0 3.78-1.33 7 7 0 0 0 4.28 1.67h1c3.54 0 5.16-1.79 5.89-3.3a3.92 3.92 0 0 0 .28-3 4.64 4.64 0 0 0 3.08-4.3 3.22 3.22 0 0 0 -.86-2.4 3.57 3.57 0 0 0 -2.62-1 5.61 5.61 0 0 0 -.86.08 2.07 2.07 0 0 0 -.08-.7 13.28 13.28 0 0 0 3.65-2.09c.74.42 1.74.92 3 1.5a23.15 23.15 0 0 0 8.77 1.85 4.27 4.27 0 0 0 1.22-.12c.87-.23 1.1-.3 10.3-13.87 9.06-13.38 9.09-13.77 9.14-14.37.14-1.81-2.31-5.57-4.77-8.16z" fill="#fff"/><path d="m53.48 15.46a18.89 18.89 0 0 0 -13.42-6.3 26.49 26.49 0 0 0 -12.13 2.68l-.88-1.75a5 5 0 0 0 2.22-3.51 4.2 4.2 0 0 0 -2.89-4.24c-1.7-.67-5.78-.87-9.91 2.43a25.25 25.25 0 0 0 -8.26 12.49c-1.29 4.49-1.4 9.55.41 11.72s3.36 1.76 5 1.09 1.6-3.36 1.6-3.36l2.84.16a24.1 24.1 0 0 0 .2 5.11 14.23 14.23 0 0 0 2 5.31 27.12 27.12 0 0 0 -3.36 2.28 1.54 1.54 0 0 0 -.15 1.55 56.22 56.22 0 0 0 4.13 6.29c.31.26.67.26 1.85.21s4.39-2.68 4.39-2.68a19.66 19.66 0 0 0 3.88 2.11 20.07 20.07 0 0 0 8.67 1.6c.57-.15 18-25.91 18-26.53s-1.29-3.62-4.19-6.66zm-32 1.91a23.66 23.66 0 0 0 -2.84 5.73l-3.1-.52a31.24 31.24 0 0 1 2.22-6.19c1.81-4 5.21-5.12 5.73-5s1.29 2.32 1.34 2.48a17.6 17.6 0 0 0 -3.35 3.5z" fill="#604f58"/><path d="m48 26.61a1.91 1.91 0 0 1 0-1.29c.14-.23 3.37-.29 5.13-.25l.74-1.13a37.79 37.79 0 0 1 -5.66-.22c-.16-.21 0-1.4 0-1.4s4.85-.13 6.74-.05c.1-.17.17-.28.18-.31a1.34 1.34 0 0 0 -.22-.53c-2.07.1-7.2.05-7.37 0s-.54-1.28-.54-1.28 5.07-.3 6.7-.32c-.27-.34-.57-.71-.92-1.09-1.69.15-7 .21-7.17.12a1.68 1.68 0 0 1 -.36-1.34c.19-.33 4.12-.49 6-.34-.42-.4-.87-.79-1.34-1.18a46.47 46.47 0 0 1 -6.44.13c-.26-.21-.67-1.24-.46-1.34a44.5 44.5 0 0 1 5.09-.15 14.87 14.87 0 0 0 -6-2.49c-7.1-1.08-12.31 1.19-15.1 3.62a16.69 16.69 0 0 0 -5.52 8.23c-1.81 5.68.31 11 4.54 16.36s11.87 5.73 12.44 5.73c.41 0 8.89-12.43 13.57-19.46a15 15 0 0 1 -4.03-.02z" fill="#ef7d7b"/><path d="m11.77 28.47c-.79.06-2.74-.42-2.58-5.32s2.58-9.71 5.68-13.48 7.59-5.88 9.75-5.52 2.74 2.43 2.22 3.25-5.05 1.14-7.64 3.41-4.2 6.09-5.2 9.45a34 34 0 0 0 -1 6.66c-.2.77-.56 1.49-1.23 1.55z" fill="#f6c687"/><path d="m10.89 25.89c-.1-.52-.36-4.24 0-4.65s.88-.57 1 0 .26 4.54 0 4.8-1-.15-1-.15z" fill="#604f58"/><path d="m15.44 25.58c.31.05 2.78.2 2.78.2l.16-1.39s-2.79-.83-2.94-.52a6 6 0 0 0 0 1.71z" fill="#ddeff2"/><path d="m25.71 13.08s-1.29-2.17-1.14-2.42 1.35-.47 1.35-.47 1.44 2 1.13 2.17-1.34.72-1.34.72z" fill="#ddeff2"/><path d="m19.05 40.86c0-.4 2.17-1.71 2.48-1.4s1.13 1.45 2.06 2.53 1.76 1.35 1.34 1.6-2.37 2.27-2.78 2-3-3.65-3.1-4.73z" fill="#f39a9b"/><g fill="#604f58"><path d="m23 27.43c-.06-.25 1.09-.46 1.14-.25s-.62 3.76 1.08 6.14 2.74 2.89 2.64 3.1a3.75 3.75 0 0 1 -.67.62s-2-.31-3.46-3.36a11.22 11.22 0 0 1 -.73-6.25z"/><path d="m14.66 45.66c.24-.1 1.09.82 1 1.08a5.29 5.29 0 0 0 -2.11 2.95c-.57 2.16-.57 4-.78 4.23s-.72.41-.83 0a15.48 15.48 0 0 1 .68-5.11 9.34 9.34 0 0 1 2.04-3.15z"/><path d="m16.62 48c.31 0 .93.73.78 1a14.79 14.79 0 0 0 -2.33 4.39c-.62 2.22-.41 3.93-.62 4.13s-.92.21-.92.21a13.79 13.79 0 0 1 .72-5.11 17.37 17.37 0 0 1 2.37-4.62z"/><path d="m17.71 51.49c.2-.3.72.21.72.47s-.46 1.75-.67 3.09a12.4 12.4 0 0 0 -.1 2.17c-.06.21-.52.73-.78.47a6 6 0 0 1 -.21-3.2 8.1 8.1 0 0 1 1.04-3z"/><path d="m20.8 49.48c0-.16 1 .15.93.57a29.51 29.51 0 0 0 -1 3.71 13.39 13.39 0 0 1 -.39 2.24c-.1.21-.31.47-.57.16s-.2-1.76 0-3.46a11.8 11.8 0 0 1 1.03-3.22z"/><path d="m23.44 52.16c.32-.19 2.68-.67 2.63 1.19s-1.81 2.79-2.27 2.53-.62-.72-.36-.83 1.55-1 1.24-1.49-1.14-.36-1.14-.36-.36-.88-.1-1.04z"/><path d="m10.22 51.18c.28-.14.83.73.57 1.09s-1.79 1.08-1.7 2.47 1.7 1.61 1.49 2-.77.41-.93.51.16.78-.15.93-2.33.62-1.4 1.76 2.84.62 3.72.15 1.24-.57 1.34-.41a.43.43 0 0 1 -.1.62c-.26.21-2.06 1.91-4.13 1.39s-3.2-2-2.37-3.3a3.86 3.86 0 0 1 2.27-1.65s-1.55-1.19-1-2.74a6.05 6.05 0 0 1 2.39-2.82z"/><path d="m15.13 59.91c.18-.14 3.92 1 5.42.31s1.44-1.71 1.18-2-.67-.41-.36-.72.42-.41.73-.26a1.83 1.83 0 0 1 .77 2.64c-.83 1.7-2.53 2.37-5 2.16s-4.04-1.2-2.74-2.13z"/></g></svg>