<svg height="64" viewBox="0 0 64 64" width="64" xmlns="http://www.w3.org/2000/svg"><path d="m25.63 64a12.93 12.93 0 0 1 -7.32-2.34c-4.85-3.23-9.39-9.3-11.57-15.46a41.61 41.61 0 0 1 -2.07-18.43 23.65 23.65 0 0 1 6.14-12.95 15.52 15.52 0 0 1 6.93-3.88 8 8 0 0 0 -1.6-3.14c-1.31-1.59-2-2.43-2.44-2.91s-.54-.63-.69-.84a2.19 2.19 0 0 1 -.17-2.12 3.23 3.23 0 0 1 2.68-1.68 40.55 40.55 0 0 1 4.89-.25 47.69 47.69 0 0 1 6.18.38c5 .64 7.51 1.79 9.1 4.09a6.71 6.71 0 0 1 .49.81 11 11 0 0 1 1.82-1.73c1.64-1.17 2.73-1.65 3.75-1.65a3.37 3.37 0 0 1 1.62.44c1.16.62 3.3 3.54 2.35 5.82a10.55 10.55 0 0 1 -2.42 2.93c-.48.47-1 1-1.49 1.51a16.63 16.63 0 0 1 2.83-.28 9.77 9.77 0 0 1 1.26.08c2.33.33 8.08 2 11.32 10.19a34 34 0 0 1 1.38 20.46 35.23 35.23 0 0 1 -6.56 13.58c-1 1.4-4.77 6-8.62 6.33a6.08 6.08 0 0 1 -.61 0 18.5 18.5 0 0 1 -3.49-.47 16 16 0 0 0 -2.93-.42h-.34a19.12 19.12 0 0 0 -3.46.77 20.47 20.47 0 0 1 -3.37.75l-.81.11a17.41 17.41 0 0 1 -2.78.3z" fill="#fff"/><path d="m19.88 12.48a9.48 9.48 0 0 0 -2.25-5.92c-2.37-2.87-2.82-3.32-3-3.59s.22-.67 1.16-.81a48.56 48.56 0 0 1 10.55.14c4.8.63 6.66 1.7 7.76 3.27a12 12 0 0 1 1.53 4.13 12.89 12.89 0 0 1 3.54-4.57c2.2-1.57 2.74-1.4 3.32-1.08s1.93 2.29 1.51 3.36-3 3-5.07 5.61a21.22 21.22 0 0 0 -2.2 3s5.75-2.11 9-1.66 7.35 2.83 9.78 9a32.4 32.4 0 0 1 1.3 19.29 33.36 33.36 0 0 1 -6.24 12.88c-2.24 3-5.11 5.38-7.22 5.56s-5.07-1-7.36-.85-5 1.34-6.86 1.52-5.3 1.24-9.75-1.76-8.75-8.62-10.81-14.45a39.38 39.38 0 0 1 -1.97-17.55 21.53 21.53 0 0 1 5.61-11.85 14 14 0 0 1 7.67-3.67z" fill="#604f58"/><path d="m39.66 55.38c0-.41.27-1.08.59-1a33.58 33.58 0 0 1 4.45 3 6.77 6.77 0 0 0 1.3-.84 51.7 51.7 0 0 1 -4.2-3.5c0-.22.45-.89.81-.89a29.49 29.49 0 0 1 4.27 3.51c.35-.38.71-.81 1.08-1.3a42.87 42.87 0 0 1 -4.09-3.11 1.45 1.45 0 0 1 .67-1 50.55 50.55 0 0 1 4.32 2.84q.51-.75 1.05-1.68a32.34 32.34 0 0 1 -4-2.28c-.23-.36.67-.94.67-.94s3 1.44 4 2q.39-.72.78-1.5a41.42 41.42 0 0 1 -4.4-2.52c-.09-.27.41-.89.85-.89a22.94 22.94 0 0 1 4.13 2.23c.2-.43.4-.86.59-1.31a37.54 37.54 0 0 1 -3.86-2.45c0-.22.54-.85 1-.81a18.94 18.94 0 0 1 3.43 2c.23-.56.43-1.12.63-1.68a20.42 20.42 0 0 1 -3.73-1.93c-.13-.36.59-1 .9-1a18.75 18.75 0 0 1 3.19 1.67c.18-.59.34-1.18.48-1.76a31.23 31.23 0 0 1 -3.42-1.65c-.4-.36 0-1 .4-1a19.13 19.13 0 0 1 3.27 1.41c0-.21.07-.43.1-.64.06-.54.1-1.11.13-1.7a21.42 21.42 0 0 1 -2.91-1c-.14-.18-.09-1 .31-1a14.48 14.48 0 0 1 2.62.69c0-.62 0-1.26-.07-1.92a8.53 8.53 0 0 1 -2.64-.84.86.86 0 0 1 .18-1 8 8 0 0 1 2.31.3c-.51-4.45-1.91-9.15-4.15-11.74-3.41-3.95-8.3-3.5-12.16-2.29s-3.36 2.39-5.54 2.34-2.78-2.47-3.14-2.78-1.57-.14-4.53-.27-3.76-2.15-4.24-2.15c-4.35-.18-8.53 3.94-10.14 7.76s-2.6 11.66-1.12 18.08 6.68 14 10 16.47a11.36 11.36 0 0 0 8.66 2.06c2.07-.27 4.89-2.11 7.14-2.33s2.64.8 5.69 1a7 7 0 0 0 1.54-.04 18.16 18.16 0 0 1 -3.2-2.62z" fill="#ef7d7b"/><path d="m16.69 3.38a53.42 53.42 0 0 1 10 0c3.41.4 7.18 1.75 7.89 5.51s-.27 6.38-.62 6.56-1.26 0-2.74.17a28 28 0 0 1 -5.88.45c-1.57-.22-3.27-1-4.44-4.89s-2.42-5.74-3-6.37-1.21-1.43-1.21-1.43z" fill="#c5dda3"/><path d="m25 8.27a7.41 7.41 0 0 1 5.38 2.28c2.33 2.47 2.6 3.95 2.47 4.13a.86.86 0 0 1 -1 .05 9.79 9.79 0 0 0 -3.23-4 22.76 22.76 0 0 0 -3-1.62c-.36-.11-.94-.84-.62-.84z" fill="#604f58"/><path d="m33.11 16.61a2 2 0 0 0 1.26-.27 5.07 5.07 0 0 0 1.48-2.91c.09-1.22.09-2.7.09-2.7a22.6 22.6 0 0 1 2.65-3.63c1.52-1.66 2.33-2.1 2.73-1.88a3.62 3.62 0 0 1 1 2.51c-.23.45-3 3.27-5.21 5.92s-2.11 3.23-2.78 3.5-.94.27-1.12.13-.32-.58-.1-.67z" fill="#fcdfc8"/><g fill="#604f58"><path d="m20.19 19.57c.32 0 1.3.54.94.81s-2-.31-3.72 2.38-1.41 4.49-1.79 4.71a.9.9 0 0 1 -.72.09 8.69 8.69 0 0 1 1.1-5.07c1.36-2.02 2.49-2.83 4.19-2.92z"/><path d="m28.27 21.91a.57.57 0 0 1 .94-.14 2.57 2.57 0 0 0 2.51 1.62c2.11.18 3.68-.05 3.77.09s-.13 1.12-2 1.21-2.78.18-4.31-.76-1.05-1.75-.91-2.02z"/><path d="m29.88 56.45c.1-.09.54-1.84 2.07-2.28s4-.09 4.08.22-.4.58-.4.58-2.25-.54-3.5.41-1 1.52-1.39 1.61-.99-.4-.86-.54z"/></g></svg>