<svg height="64" viewBox="0 0 64 64" width="64" xmlns="http://www.w3.org/2000/svg"><path d="m17.53 62.59a10.78 10.78 0 0 1 -2.23-.24c-5.05-1.06-4.52-5.59-4.24-8 .06-.47.12-1 .15-1.41s.06-.92.1-1.38c0-.2 0-.4 0-.6-1 2.86-2.46 4.63-4 4.8h-.21c-1.94-.02-3.74-2.76-3.76-2.76a2.44 2.44 0 0 1 -.25-2.49 6 6 0 0 1 .61-.89 7.66 7.66 0 0 0 1.25-2c-.17-.21-.55-.61-.84-.91-1.49-1.56-4-4.17-4.11-8.15a12.52 12.52 0 0 1 3.47-8.75 7.78 7.78 0 0 1 5.59-2.6h.48a8.3 8.3 0 0 1 3.2-.77 4.6 4.6 0 0 1 1.46.22 15 15 0 0 1 1.74.76 6.31 6.31 0 0 0 2.41.85.9.9 0 0 0 .23 0l.28-.05a17.63 17.63 0 0 0 -.28-2.67c-.18-1.22-.4-2.45-.6-3.59-.78-4.44-1-5.76-.36-6.78a5.79 5.79 0 0 1 2.38-1.85 11.34 11.34 0 0 1 2.31-6.33c2-2.24 5.61-4.52 8.69-4.52h.66a8.29 8.29 0 0 1 3.54 1.35l.35.22.45-.35a8.12 8.12 0 0 1 5.26-2.29 5.58 5.58 0 0 1 .7 0 6.94 6.94 0 0 1 5.48 3.3 5 5 0 0 1 0 4.8 7.11 7.11 0 0 1 -2 2.59c.86 1 1.61 2.69 1.61 5.7v4.3s-.05 3.25 0 4.67a4.4 4.4 0 0 1 1.54-.29 3.37 3.37 0 0 1 2.37.89 2.64 2.64 0 0 1 1.33-.34 3.59 3.59 0 0 1 .62.06 3.91 3.91 0 0 1 1.74.81 4.27 4.27 0 0 0 1.95-1.87c.27-.83.36-1.12-1.79-2.32-1.86-1-5-2.78-4.57-6.69.27-2.55 2.37-4.62 3.9-6.14.38-.37.72-.71 1-1l.46-.54c.8-1 1.57-1.87 2.93-1.87a3 3 0 0 1 1.38.35 5.08 5.08 0 0 1 2.62 3.18 2.71 2.71 0 0 1 -.67 2.33 17.36 17.36 0 0 1 -2 1.67 27.76 27.76 0 0 0 -2.53 2.06q0 .11-.06.24c1.9.48 6.4 1.73 6.71 6.63.29 4.68-1.39 6.22-3.17 7.84l-.45.42c-.83.77-1.72 1.51-2.51 2.17-.5.41-1.14.94-1.49 1.27-.06.91-.15 3-.24 5-.5 11.79-.78 15.53-1.23 16.68-1 2.54-2.25 2.91-4.37 3.36l-.36.07a6.8 6.8 0 0 1 -1.41.14 18.11 18.11 0 0 1 -2.94-.32 13 13 0 0 0 -2-.24 2.06 2.06 0 0 0 -.33 0 7.67 7.67 0 0 0 -.82.4 6.08 6.08 0 0 1 -3 .86 7.53 7.53 0 0 1 -1.8-.23 9.55 9.55 0 0 1 -2.17-.79c-.3-.15-.31-.15-.4-.15a5.29 5.29 0 0 0 -1.07.17c-.69.17-1.23.33-1.71.46a10.71 10.71 0 0 1 -3.31.58 11.93 11.93 0 0 1 -1.51-.1 14.67 14.67 0 0 1 -2.69-.59 3.12 3.12 0 0 0 -.94-.23 1.47 1.47 0 0 0 -.33 0 7 7 0 0 0 -1.05.46 11.17 11.17 0 0 1 -5.15 1.43z" fill="#fff"/><path d="m62 24c-.25-4.09-4.67-4.67-6-5.05s-.77-1.86-.58-2.69 4.23-3.52 4.93-4.29-.49-1.97-1.35-2.39-1.22.19-2.43 1.6-4.16 3.65-4.42 6.08 1.41 3.58 3.59 4.8 3.45 2.24 2.68 4.61-4.28 3.64-4.28 3.64a2.69 2.69 0 0 0 -1.64-1.31c-1-.19-.9.71-1.73.84s-.71-1.41-2.24-1.41-2.53 1.69-3.14 1.57-.25-7.16-.25-12.15-2.24-5.06-2.24-5.06.06-.19.25-1.15 1.22-.26 2.56-2.94-1-5-4-5.32-4.68 2.37-5.83 2.69-2.13-1.42-4.44-1.67-5.69 1.6-7.68 3.84-1.92 6.33-1.92 6.33a8.86 8.86 0 0 0 -2.56 1.6c-.38.64.58 4.93 1.22 9.09s.32 4.61-1.6 4.93-3.78-1.19-5.31-1.67-3.71.71-3.71.71c-4.29-.77-8.07 4.67-7.94 9.28s4.23 7 4.87 8.44-1.73 3.91-2 4.42 1.73 2.49 2.31 2.43 1.92-1.47 2.81-4.86-.38-4.87-2.37-6.59-2.56-2.56-2.23-5.19 3.78-4.54 3.78-4.54a10 10 0 0 1 .45 1.15 19.4 19.4 0 0 1 3.07 7.81 33.44 33.44 0 0 1 .51 11.42c-.19 3-1.41 6.59 2.56 7.43s6-1.22 7.62-1.6 2.17.44 4.6.76 3.14-.25 5.83-.89 2.11.19 4.54.77 3-.39 4.54-1 4.8.76 6.91.32 2.63-.45 3.33-2.24 1.22-21.19 1.41-21.76 2.62-2.31 4.54-4.1 3.27-2.55 2.98-6.69zm-21-13.5c-.22.85-.39 2-.39 2a28 28 0 0 0 -7.38-.13c-4.05.47-6.57.81-6.57.81s.22-3.28 2.69-4.35 3.31.17 4.65 1.03 2.18 1.11 3.71.3 2.48-3.2 4-3.67 1.37.85 1.15 1.41-1.67 1.75-1.86 2.6z" fill="#604f58"/><path d="m52.37 32.11c-.58-.32-1.54.38-2.24.25s-.45-1.15-1.54-1.41-1.34.64-2.43 1-1.79-.07-2.75-1.09-.13-12.61-.32-14.78-3.46-1.73-10.43-1.47-10.66 2.2-11.14 2.59 2.24 9.34 1.73 12.54-3.13 3-5.89 2.69-5.16-2-5.82-1.92c-.51.08-.38 1.45-.08 2.26a82.44 82.44 0 0 1 3.66 9.77c1.58 5.33.35 9.51.09 12.11s-.17 3.63 2 3.63 4.18-1.15 6-1.58 2.05.17 4.78.77 4.39-.81 6.53-1.32 3.88 1.15 5.07 1.15a6.23 6.23 0 0 0 1.56-.3 36.37 36.37 0 0 1 -1.74-3.38 1.92 1.92 0 0 1 .93-.32 31.4 31.4 0 0 1 1.9 3.4l.76-.19a34.26 34.26 0 0 1 -1.77-3.05c0-.19.87-.32 1.09-.19a20 20 0 0 1 1.79 3.05h.24.55c-.59-.94-2-3.15-1.94-3.22s.93-.52 1.22-.36a22 22 0 0 1 2.1 3.68l.85.1c-.57-1-2.3-4-2.25-4.06s.8-.45.93-.36 2.27 3.66 2.69 4.61a5.71 5.71 0 0 0 2.72-.29c.83-.51.64-10.56.83-15.67s.89-8.32.32-8.64z" fill="#f6c687"/><path d="m26.47 21.76a22.33 22.33 0 0 1 6.74-1.58c4.18-.38 5.38-.25 5.51 0a71.71 71.71 0 0 1 0 8.92 11 11 0 0 1 -4 2.56c-1.07.25-2.6-.17-4.35-.77s-3.16-1.36-3.46-2a38.13 38.13 0 0 1 -.44-7.13z" fill="#604f58"/><path d="m9.54 30.08a4.87 4.87 0 0 0 -.3 1.49c.08.34-2.48.3-3.76 3s-2.47 5-.34 7 4.57 2.73 4.18 5.88-2.13 5-2.34 5-.86-.85-.69-1.1 3-3 1.54-5.17-3.83-3.6-4.57-5.56a8.51 8.51 0 0 1 1.58-7.77c2.01-2.56 3.29-3.07 4.7-2.77z" fill="#f39a9b"/><path d="m23.1 14s0-5.81 5.16-7.51 5 1 7.73.43 3.37-2.65 5.84-2.48 4.1 2.05 3.07 3.67-2.43 2.26-2.69 3.33l-.29 1.23h-.43a2.79 2.79 0 0 1 1.11-2.9c1.62-1.36 2-2.9.89-3.92s-2.77-.43-4.39 1.57-2.77 2.48-4.14 2-1.62-1.88-3.79-2.09-4.48 2.06-5.17 3.81a6.77 6.77 0 0 0 -.64 2.3s-2.04.73-2.26.56z" fill="#f39a9b"/><path d="m54.42 31.32s4.26-1.54 5-4.57-.73-4.52-2.69-5.42-4.27-1.83-3.63-4 3.42-4.3 4.27-5.41.85-1.37 1.11-1.37 1.11.85.85 1.24-3.79 2.39-4.56 3.88-.64 3.29.47 4 5.12.47 5.71 4.14-2.34 6.06-4.22 7.68-2.22 1.66-2.22 1.66-.05-1.15-.09-1.83z" fill="#f39a9b"/><path d="m27.8 22.32c.05-.21 1.74-.73 5.54-1.07s4.35-.21 4.44 0a59.77 59.77 0 0 1 -.09 7.33c-.21.18-2.17 1.92-3.88 1.84a18.79 18.79 0 0 1 -5.42-1.88c-.34-.25-.68-5.93-.59-6.22z" fill="#f39a9b"/><g fill="#604f58"><path d="m29 23.12c-.05-.28.67-.26.76-.13a4.52 4.52 0 0 1 .07 2.08c-.23.22-.61.45-.77.13a11.43 11.43 0 0 1 -.06-2.08z"/><path d="m29.2 26.25c.07-.18.61-.06.71 0s.25 1.48.06 1.64a.82.82 0 0 1 -.74.16c-.23-.05-.12-1.54-.03-1.8z"/><path d="m36 22.64a1.05 1.05 0 0 1 1 0 6.89 6.89 0 0 1 0 2.56c-.22.12-1 .47-1.06 0a15.35 15.35 0 0 1 .06-2.56z"/><path d="m36 26.19a1.65 1.65 0 0 1 1-.07 5.39 5.39 0 0 1 0 1.88 1.75 1.75 0 0 1 -1 .42 8.72 8.72 0 0 1 0-2.23z"/><path d="m15.09 35c-.08-.21.64-.48.9-.38s1.31 3 1.09 3.33-.77.51-.93.32-.93-3-1.06-3.27z"/><path d="m16.79 40.68s.73-.25 1 0a14.29 14.29 0 0 1 .45 4c-.16.19-.87.48-1 .25s-.45-4.02-.45-4.25z"/><path d="m17.56 47s.7-.2.83.06a21.87 21.87 0 0 1 .13 4.54c-.2.1-1 .32-1.06.16a47.45 47.45 0 0 1 .1-4.76z"/><path d="m17.17 53.77c.08-.11 1-.16 1 .09a10.36 10.36 0 0 1 -.22 2.63c-.22.19-.74.41-.86.16a12.39 12.39 0 0 1 .08-2.88z"/><path d="m49.87 33.55c.07-.15 1.22-.13 1.25.06s.06 4.45-.26 4.58-1 .16-1.08 0a27.37 27.37 0 0 1 .09-4.64z"/><path d="m49.62 39.69a1.71 1.71 0 0 1 1.21.06 17.89 17.89 0 0 1 -.13 4.58 3.84 3.84 0 0 1 -1.05 0s-.13-4.42-.03-4.64z"/><path d="m49.62 45.64c.07-.12 1.05-.09 1.12.1s0 4.48-.07 4.6a1.88 1.88 0 0 1 -1.18 0 21.18 21.18 0 0 1 .13-4.7z"/><path d="m49.33 52.17c.12-.1 1.15-.19 1.21.06a8.22 8.22 0 0 1 -.09 2.4 1.66 1.66 0 0 1 -1.12 0 7 7 0 0 1 0-2.46z"/></g></svg>