<svg height="64" viewBox="0 0 64 64" width="64" xmlns="http://www.w3.org/2000/svg"><path d="m20.31 50.5a26.74 26.74 0 0 1 -2.81-.15c-7.31-.76-11.71-2.3-15.5-8.56s-1.69-14.18 1.85-18.79a20 20 0 0 1 16-7.74c.62 0 1.26 0 1.89.08a30.12 30.12 0 0 1 7.34 1.43 10.6 10.6 0 0 0 3.65.66h.27c1.89 0 3-.08 3.69-.13a7.43 7.43 0 0 1 3.31-2.66 15.45 15.45 0 0 1 6-1.05 18.44 18.44 0 0 1 4.64.56 11.77 11.77 0 0 1 3.57 1.7 3.57 3.57 0 0 0 2 .85c.65 0 .72-.13 1-.72a3.35 3.35 0 0 1 .79-1.1 1.37 1.37 0 0 0 .16-.18 3 3 0 0 1 2.34-1.2 2.52 2.52 0 0 1 2 1.1 6.74 6.74 0 0 1 1.38 4.87c-.45 1.93-2.48 3.77-3.74 4.54l-.59.33a12.18 12.18 0 0 1 -.25 6.21c-1.47 5.42-5.79 6.91-7.33 7h-.42a5.78 5.78 0 0 1 -.75-.05 72.42 72.42 0 0 1 -11.8 7.32c-6.82 3.32-12.16 5.68-18.69 5.68z" fill="#fff"/><path d="m37.91 19.09a4.77 4.77 0 0 1 2.87-2.67 16.09 16.09 0 0 1 9.32-.42c2.93.78 3.58 2.54 6.06 2.61s2.67-1.89 3.13-2.29.65-.91 1.24-.91 1.76 2.51 1.47 3.59a7.06 7.06 0 0 1 -2.87 3.32 7.35 7.35 0 0 1 -2.09.91s1.63 2.22.39 6.78-4.75 5.54-5.6 5.61a3.73 3.73 0 0 1 -1.5-.2 68.54 68.54 0 0 1 -12.19 7.63c-7.1 3.45-13 6.12-20.46 5.34s-10.86-2.39-13.99-7.59-1.76-12.13 1.7-16.62a18.19 18.19 0 0 1 16.23-6.91c7 .58 7.23 2.15 11.4 2.08a29.41 29.41 0 0 0 4.89-.26z" fill="#604f58"/><path d="m51.34 27.89a49.61 49.61 0 0 1 -5.61 1.11c-2.21.13-2.21-.26-2.35-2.15s1.7-3.07 3.07-4.5 1-2.08-.26-2.41-3.85.78-5.28 1.17-2-.45-2-.45c-3.58 1.6-8.27.78-11.36-.09a24.48 24.48 0 0 0 -13.55.13c-5.22 1.69-9.3 7.43-9.82 10.91s-.18 9.25 7.29 13.07a17.23 17.23 0 0 0 7 1.82 24.85 24.85 0 0 1 -2.11-3.73c.08-.3.39-.82.65-.56a41.83 41.83 0 0 1 2.83 4.32h1.18c-.62-1.06-2.25-3.86-2.14-4.11s.74-.61 1-.39a37.59 37.59 0 0 1 2.53 4.38l1-.12a22 22 0 0 1 -1.86-3.48.65.65 0 0 1 .87-.39 16.3 16.3 0 0 1 2.11 3.67c.5-.09 1-.2 1.5-.32a22.91 22.91 0 0 1 -1.92-3.83c.09-.39.83-.6 1.09-.47a22.63 22.63 0 0 1 2.13 4c.56-.15 1.12-.32 1.67-.49a26.74 26.74 0 0 1 -1.63-2.83c0-.26.57-.48.79-.35a19.9 19.9 0 0 1 1.84 2.79c.35-.11.69-.23 1-.36a10.68 10.68 0 0 1 -1.35-2.8.64.64 0 0 1 1-.27 11.79 11.79 0 0 1 1.45 2.66c.43-.16.86-.33 1.28-.51a13.16 13.16 0 0 1 -1.51-2.71.57.57 0 0 1 .87-.48 7.21 7.21 0 0 1 1.81 2.7l.32-.13.89-.41a11.09 11.09 0 0 1 -1.37-2.55c0-.43.65-.74 1-.48a12.73 12.73 0 0 1 1.55 2.49q.45-.21.9-.45a19.89 19.89 0 0 1 -1.58-2.56.69.69 0 0 1 .83-.48 9.35 9.35 0 0 1 1.72 2.54l1-.55a12.6 12.6 0 0 1 -1.31-2.24.58.58 0 0 1 .65-.61c.34 0 1.36 1.47 1.71 2.27l1.14-.66c-.46-.54-1.3-1.57-1.27-1.83a.75.75 0 0 1 .92-.52 4.6 4.6 0 0 1 1.35 1.71 69 69 0 0 0 6.75-4.6c.26-.33 0 0 .26-1s1.56-1.89 2.08-3.26.35-1.74-.75-1.61z" fill="#cc6ba7"/><path d="m39.11 18.92a9.58 9.58 0 0 1 8.77-2.35c5.13 1.13 5.3 3 8.13 3s4.13-2.56 4.43-2.43.52 1.82.35 2.17a11.39 11.39 0 0 1 -3 2.69c-.95.44-1.78.52-1.74.74a9.23 9.23 0 0 1 .57 5.52 10.42 10.42 0 0 1 -3.78 6c-.87.65-2.22.69-2-.66s2.48-2.86 2.52-5-1.3-1.95-2.09-1.91-4 1.13-5.08 1.17-2.56-.26-1.43-1.69 3.69-3.57 3.3-5.52-2.26-2-4.13-1.65-2.56 1.26-3.69 1.22-1.61-.74-1.13-1.3z" fill="#c5dda3"/><path d="m10 33.26s-.17-2.61 2.39-5.7 5.52-4.47 7.48-4.64 3.17.3 3.39.73.39.66-.05.74-.78-.82-3.26-.3a10.78 10.78 0 0 0 -6.17 3.26 9.07 9.07 0 0 0 -2.78 4.65c-.08.91 0 1.13-.08 1.39s-.92.21-.92-.13z" fill="#604f58"/></svg>