<svg height="64" viewBox="0 0 64 64" width="64" xmlns="http://www.w3.org/2000/svg"><path d="m20 64a6.68 6.68 0 0 1 -2.77-.54 13.48 13.48 0 0 1 -3.33-2.77 34.68 34.68 0 0 0 -5-4.28l-.13-.08c-3.52-2.27-4.71-3-4.94-5.46-.19-2.12 1.31-13.82 1.33-13.93a99.05 99.05 0 0 1 6.06-23.17c2.25-5.22 5.24-8.89 6.27-9.62 1.26-.83 11.88-2.91 16.83-3.53a100.7 100.7 0 0 1 11.37-.62c4.12 0 4.7.21 5 .3 1.41.52 4.31 3.76 4.61 9.23.3 5 .08 5.93-.5 6.9l-.28.44c.48 2.5 2 10.64 3.28 16.24a92.39 92.39 0 0 1 2.3 14.64c.1 2.51-.38 4.67-1.28 5.77s-7 3.4-8.2 3.6l-1.16.16a79.22 79.22 0 0 0 -9.09 1.72c-6.44 1.5-12.37 3.24-15.23 4.08a18.38 18.38 0 0 1 -5.14.92z" fill="#fff"/><path d="m7.15 37.2a96 96 0 0 1 5.93-22.66c2.3-5.36 5.12-8.47 5.59-8.8s9.45-2.39 15.89-3.19 14.76-.66 15.44-.43 3.11 2.82 3.39 7.53.05 5.31-.24 5.78-.66 1-.66 1 1.93 10.3 3.44 17.07a91.85 91.85 0 0 1 2.25 14.29c.1 2.45-.42 4-.84 4.47s-5.55 2.68-7 2.91a87.87 87.87 0 0 0 -10.39 1.88c-6.35 1.51-12.13 3.2-15.33 4.14s-5.17 1.08-6.53.47-4.61-4.7-8-6.91-4-2.59-4.18-4.09.87-10.66 1.24-13.46z" fill="#604f58"/><path d="m46.55 50.41c-.19-.28.24-.8.57-.75a22.52 22.52 0 0 1 3.93 3c.49-.15.93-.31 1.34-.46-.93-.83-3.5-2.82-3.58-3s.33-.85.75-.8a22.33 22.33 0 0 1 3.82 3.35 10.92 10.92 0 0 0 1.27-.7 40.63 40.63 0 0 1 -4.2-3.22 1.25 1.25 0 0 1 1.08-.52 33.85 33.85 0 0 1 3.84 3 8 8 0 0 1 .16-.89 6 6 0 0 0 .12-1.15 21.77 21.77 0 0 1 -3.13-2.33c0-.28.75-.85.94-.8a18.6 18.6 0 0 1 2.2 1.86 67.07 67.07 0 0 0 -2-13.36c-2.17-9.21-3-16.12-3-16.12a22.11 22.11 0 0 0 -2.78.28c-1.36.23-6.2.56-12.6 1.93s-12.28 3.27-12.28 3.27-.09.47-.89 9.12-2.34 25.71-2.31 26.09c.09 1.08 1.5 1.51 1.88 1.6s.38.09 1.65-.47 8.18-2.3 13.82-4a46.34 46.34 0 0 1 9.05-1.73 21.53 21.53 0 0 1 -2.2-1.7c-.23-.33.43-1 .61-.84s2.3 1.67 3.09 2.36l.35-.06c.56-.11 1.09-.23 1.6-.35-.9-.74-2.95-2.39-3.1-2.61z" fill="#f9f2ed"/><path d="m47.65 11.87c-.09-.19.33-.85.75-.8a16.85 16.85 0 0 1 2.83 2.35 9.28 9.28 0 0 0 0-1.39 10.31 10.31 0 0 1 -1.93-1.52 1.21 1.21 0 0 1 1.08-.51 3.2 3.2 0 0 1 .6.38c-.43-2.38-1.32-5.38-1.89-5.81s-3.67-.85-10.67-.33-15.61 2.44-15.75 2.76.33.79 1.74 4.89a16.26 16.26 0 0 1 .33 8.32s2.44-.57 13-2.68c3.15-.64 5.46-1 7.17-1.27a21.49 21.49 0 0 1 -2-1.63c-.23-.33.43-1 .61-.85s2.12 1.54 3 2.27c1-.12 1.68-.18 2.19-.21-.81-.67-3.08-2.48-3.24-2.72s.24-.8.57-.75 4.44 3 4.13 3.33a1.69 1.69 0 0 0 .86-1c-1.13-1-3.31-2.7-3.38-2.83z" fill="#f6c687"/><path d="m21.3 7.91c.52.11 1.09.94 1.6 2.72s.71 3.53.52 3.34-.52-2.4-2.07-1.88-1.13 4.09-.61 4.94 2 3 1.88 3.38-.28.57-.47.47a17.37 17.37 0 0 1 -3.15-7.19c-.38-3.15.14-6.25 2.3-5.78z" fill="#f6c687"/><path d="m21.87 13.17c.4 0 2 2.35 2.16 3.29s.14 3.25-.23 3.25-2.21-2.78-2.4-3.71-.47-2.92.47-2.83z" fill="#f6c687"/><path d="m17.12 12.23a11.77 11.77 0 0 0 1.17 7 14.34 14.34 0 0 0 3.44 4.18c0 .28-2.49 22.85-2.68 27.27s-.47 7.66-.66 7.57-3.67-4.36-6.39-5.77-3.34-1.18-3.48-1.93a120.89 120.89 0 0 1 2.58-21.55 89.7 89.7 0 0 1 6.02-16.77z" fill="#f9f2ed"/><g fill="#604f58"><path d="m11 47.4a4.82 4.82 0 0 1 3.81.47c1.41 1 3.1 4.79 3.48 5.64a10.88 10.88 0 0 1 .94 2.63c-.05.38-.28 1.6-.42 1.55s-1.93-5.35-3.2-7.19-2.61-2.21-3.19-2.21-1.13.38-1.32.05-.37-.75-.1-.94z"/><path d="m18.06 27.65c.1-.13.66-.61.8.1a90.75 90.75 0 0 1 -1.41 12c-.71 3.38-.66 3.71-.94 3.8s-.66.19-.57-.33 1-5.21 1.41-8.69.57-6.69.71-6.88z"/><path d="m27.51 28.83a1.2 1.2 0 0 1 1.36.94c.05.42-.18.47-.51.56s-1.27-.33-1.84.75a4.74 4.74 0 0 0 .33 4.09 5.86 5.86 0 0 1 2.21 4.61c0 2.82-3.24 3.15-3.76 2.87s-.47-.94-.19-1 2.92 0 2.54-2.21-1.27-3-2-4.32-.65-2.12-.4-3.8a2.85 2.85 0 0 1 2.26-2.49z"/><path d="m29.34 32.64c.09-.26.61-.47.76-.1s-.15 3.34.32 4 .9.05.95-.71-.19-2.82-.1-3a.53.53 0 0 1 .94.09 9.72 9.72 0 0 1 .1 4 1.5 1.5 0 0 1 -1.93 1c-1-.33-1.13-1.46-1.13-2.21s.05-2.93.09-3.07z"/><path d="m37.29 28.92c.45-.15 1.5.52 1.13.94s-1.55.38-2 2.63-.56 5.46-.09 5.83 1.22-.28 1.41-.89.14-1-.19-1.27a2.73 2.73 0 0 1 -.66-1.27c0-.19 1.74-.75 2-.51s.52.61.33.79-1.08.29-1 .47a1.8 1.8 0 0 1 .47 1c0 .66-.14 2.07-1.32 2.44s-2 .33-2.44-1.45a12.34 12.34 0 0 1 .51-6.16c.67-1.61 1.43-2.41 1.85-2.55z"/><path d="m49 36.91a5.92 5.92 0 0 1 -1.46-3.33 5 5 0 0 0 1.13-1.51c.28-.75.42-3.43-.47-4.09s-2.64-.66-2.82-.14-.15 9-.1 9.36c0 0 .75.47 1.13.23s.14-3 .14-3 1.41 3.43 2.21 4a2.24 2.24 0 0 0 1.51.52s.7-.47.7-.8-.75-.15-1.97-1.24zm-2.5-4.51s-.37-3.53 0-3.76 1.27.14 1.31 1.36-.81 2.49-1.31 2.4z"/><path d="m43.78 34.89c-.43-2.44-1.55-6.72-2-6.86s-.89-.1-1.17 1.6a56.12 56.12 0 0 0 -.38 8.84c.1.23.85.32 1.13.14s-.09-3.34-.09-3.67.94-.09 1.08 0 .42 2.59.56 2.87.71.14.94.05.35-.52-.07-2.97zm-1.66-1.72c-.13.16-.74.06-.74.06a11.74 11.74 0 0 1 .24-2.53 6.67 6.67 0 0 1 .5 2.47z"/></g></svg>