<svg height="64" viewBox="0 0 64 64" width="64" xmlns="http://www.w3.org/2000/svg"><path d="m23.65 64a3 3 0 0 1 -2.65-1.37c-1.08-1.67-4.65-5.94-6.37-6.31h-.23c-3.4-.76-5.56-1.23-6.8-2.23a6.7 6.7 0 0 1 -2-6.5c.13-.47.36-1.06.67-1.87a48.6 48.6 0 0 0 3.29-12.21c.91-7.6 1.71-13.38 3.58-18.45 2-5.49 3.06-7 3.33-7.3a5.85 5.85 0 0 1 3.68-1.86 4.93 4.93 0 0 1 .71 0h.25a3.23 3.23 0 0 0 .54 0c.36-.07 2.28-.67 4.13-1.25 4.22-1.3 10.04-3.11 13.22-3.74a42.13 42.13 0 0 1 7.26-.91 4.22 4.22 0 0 1 1.8.28c1.39.63 3.4 4.05 4.22 6.58s1.28 5.69 1 6.72a2.41 2.41 0 0 1 -.63 1.1c.44 2.14 1.36 6.67 2.24 10.86.64 3.09 1.16 6.39 1.63 9.31.4 2.52.78 4.9 1.15 6.59.88 4 1 4.84.84 5.73a6.9 6.9 0 0 1 -4.16 4.53 19.18 19.18 0 0 1 -2.9.86 56.56 56.56 0 0 0 -11.27 4c-3.46 1.64-6.52 3.18-9 4.41-3.76 1.89-5.32 2.67-6.16 2.85a6.48 6.48 0 0 1 -1.37.18z" fill="#fff"/><path d="m18 9a4.21 4.21 0 0 1 2.19-1.15 6 6 0 0 0 1.8 0c1.11-.17 12.61-4.08 17.46-5s7.38-1 7.85-.77 2.32 2.74 3.17 5.4a18.56 18.56 0 0 1 1 5.66c-.09.35-.9.69-.9.69s1.24 6.36 2.43 12.11 2 12.23 2.79 15.91.9 4.47.81 5a5.12 5.12 0 0 1 -3 3.05c-2 .86-6.48 1.2-14.24 4.89s-13.56 6.86-14.72 7.12-1.76.13-2.06-.34-4.58-6.5-7.58-7.15-5.28-1.11-6.18-1.84a4.83 4.83 0 0 1 -1.33-4.46c.47-1.68 3.09-6.91 4-14.37s1.68-13.13 3.48-18 2.78-6.5 3.03-6.75z" fill="#604f58"/><path d="m17.49 50.05c.21-.3.21-.73.64-.56a77.19 77.19 0 0 1 6.08 5.59c0-.82 0-1.73 0-2.69-1-.86-5.17-4.5-5.32-4.87s-.17-.73.22-.82 4 3.07 5.1 4.25c0-.58 0-1.18 0-1.79-1.05-.79-4.43-3.35-4.35-3.75s.17-.81.43-.85a26.72 26.72 0 0 1 3.9 3.22c0-.62 0-1.23 0-1.84-.89-.64-3.56-2.55-3.52-2.8s.26-.81.47-.81a23.43 23.43 0 0 1 3 2.22c0-.59 0-1.17-.07-1.74a12.51 12.51 0 0 1 -2.73-2.16c-.22-.55 0-.85.17-.9a11.76 11.76 0 0 1 2.49 1.66c0-.33 0-.66-.06-1s-.05-.89-.08-1.33c-.58-.29-2.58-1.3-2.58-1.63s0-.86.3-.86a8.71 8.71 0 0 1 2.2 1.1c0-.49-.05-1-.07-1.41a8.75 8.75 0 0 1 -1.78-.85c-.13-.21-.22-.94 0-1a4 4 0 0 1 1.71.51 67.6 67.6 0 0 0 -.56-7.63 51.12 51.12 0 0 1 -.47-6 3.64 3.64 0 0 1 -.64-.13c-.22-.09-1.16-.22-1.85-2.32s-.3-8.15-.3-8.49-.11-.32-.25-.22-2 4.12-3.69 9.74-1 7.46-2.15 14.33a78.1 78.1 0 0 1 -4.09 14.15 2.28 2.28 0 0 0 1.36 2.79 51.13 51.13 0 0 1 5.87 1.59c3.09 1.16 6.91 6.48 7.17 6.52a15.43 15.43 0 0 0 .18-3c-1.22-1.03-6.92-5.95-6.73-6.22z" fill="#f9f2ed"/><path d="m23.19 21.31a2.75 2.75 0 0 0 2.53.13 98.26 98.26 0 0 1 13.6-4.9c5.75-1.41 9.14-2.44 9.53-2.14s2.18 9.82 3 16.13 2.57 14.93 2.66 15.61-.95 1.76-1.51 1.93a76.7 76.7 0 0 0 -14.54 5.07c-8.32 3.77-13.17 6.3-13.3 6.3s0-15.1-.13-20.07a106.54 106.54 0 0 0 -.9-12.53c-.55-3.69-.94-5.53-.94-5.53z" fill="#f9f2ed"/><path d="m46.31 9.55c0-.25.31-.73.56-.68a15.83 15.83 0 0 1 2.27 1.55c0-.2 0-.42-.08-.65a10.16 10.16 0 0 0 -.26-1.21c-.7-.29-2-.85-2-1.07s.08-.85.21-.85a8.64 8.64 0 0 1 1.32.53 8 8 0 0 0 -1.79-3c-.64-.35-4-.13-8.92 1s-15.54 4.55-15.71 4.68c0 0 .43 1.38 1.2 4.68a13.08 13.08 0 0 1 .13 5.75 3.09 3.09 0 0 0 1.63.34c.85-.09 5.14-2.4 10.72-4 2.52-.74 5.43-1.48 7.88-2.1-.49-.45-1.85-1.72-1.75-1.93s.18-.43.56-.39a7.91 7.91 0 0 1 2 2.12l1.3-.32a16 16 0 0 1 -2.44-2.35.85.85 0 0 1 .82-.56 31 31 0 0 1 2.66 2.65l1.2-.31a21.27 21.27 0 0 1 -2.71-2.43.55.55 0 0 1 .56-.47c.22 0 3.22 2.23 3.22 2.57.16-.13.29-.52.31-1.3a17.86 17.86 0 0 1 -2.89-2.25z" fill="#f6c687"/><path d="m21 10.58c.2-.1 1.58 4.33 1.54 6.48s-.13 2.79-.43 2.83-.64.3-1-2.27-.36-6.91-.11-7.04z" fill="#f6c687"/><g fill="#604f58"><path d="m11.48 48.72c.49 0 2.66-.13 2.79.21s.09.86-.26.82-2.44 0-2.57 0-.22-1.03.04-1.03z"/><path d="m24.27 11.7c0-.18.6-.52.77-.22a36.52 36.52 0 0 1 .81 5.75c-.13.39-.86.26-.86.26s-.64-5.23-.72-5.79z"/><path d="m27.53 41.6s-.09-4.12-.22-6.82-.6-3.09-.17-3.48a4.41 4.41 0 0 1 2.57-.3.93.93 0 0 1 0 .9c-.17.17-1.45.17-1.45.52s.12 2.18.12 2.18 1.62-.47 1.62-.3.18.78 0 1a10.75 10.75 0 0 1 -1.59.77s.21 4.8.09 5.23-.97.3-.97.3z"/><path d="m31.43 30.53c.1-.21.77-.39.81-.13s.73 8.19.91 8.19 1.28-.38 1.37-.21.34.81.08.94-2.31.9-2.44.69-.86-9.22-.73-9.48z"/><path d="m38.42 30a1.9 1.9 0 0 0 -2.66-.38 4.08 4.08 0 0 0 -.86 2.27c-.12 1.16-.08 4 .69 5a2.37 2.37 0 0 0 2.19 1.11c.26-.18 1.11-.3 1.41-2.23s.13-4.64-.77-5.77zm-.56 6.7c-.64.47-1.45.21-1.8-1s-.25-5.19.6-5.32c.62-.09 1.46.77 1.63 1.89s.22 3.96-.43 4.44z"/><path d="m40.22 28.77c.14-.17.78-.21.86 0s.52 5.83 1 6.31.68.13.81-.35-.21-6.22-.21-6.22.9-.47 1-.08a59.25 59.25 0 0 1 .13 6.86 1.37 1.37 0 0 1 -1.59 1.07c-.9-.08-1.29-.68-1.63-3.21s-.54-4.15-.37-4.38z"/><path d="m45.07 26.5c.16-.31 2.49-1.55 3.3-.09a4.88 4.88 0 0 1 -.12 3.9l-.73.91s2.23 3.51 2.14 3.86-.64.55-.64.55-2.32-3.77-2.4-4.16-.26-.81 0-1a2.28 2.28 0 0 0 1.29-2.36c-.13-1.75-1.89-.94-1.89-.94s.86 8.24.56 8.54-.82.47-.94.25-.7-9.21-.57-9.46z"/><path d="m34.35 51c.16-.23 1.88-1.12 5.57-2.36s5.07-1.33 5.24-1.24.13.85 0 1a47.19 47.19 0 0 0 -5.92 1.6c-2.62 1.08-4.34 2.15-4.68 2.15s-.43-.9-.21-1.15z"/></g></svg>