<svg height="64" viewBox="0 0 64 64" width="64" xmlns="http://www.w3.org/2000/svg"><path d="m27.62 64a51.39 51.39 0 0 1 -11.62-1.4 16.12 16.12 0 0 0 -2-.39l-1.15.09a27.44 27.44 0 0 1 -2.76.16 16.92 16.92 0 0 1 -2.78-.22 7 7 0 0 1 -4.96-2.84 3.36 3.36 0 0 1 -.35-2.8c.09-.3.24-.69.43-1.19a66 66 0 0 0 2.57-8.41 44.12 44.12 0 0 0 1.16-11v-.26a4.77 4.77 0 0 0 -.07-.74 10.7 10.7 0 0 1 -3-2.51c-1.2-1.89-2.95-10.49-2.79-11.29.29-1.43 1-3.24 4.09-4.66l3.83-1.75a8.85 8.85 0 0 1 3.7-3l.49-.18a5.39 5.39 0 0 1 2-4.06 10.87 10.87 0 0 1 3.46-1.55 6.12 6.12 0 0 1 3-2.81 6.85 6.85 0 0 1 2.27-.35h.4a5.06 5.06 0 0 1 3.4-2.7 4.57 4.57 0 0 1 1-.1 6 6 0 0 1 3.21 1.06 5.35 5.35 0 0 1 3.11-1.1 4.66 4.66 0 0 1 1.6.29 8.36 8.36 0 0 1 3.61 2.83h.35a5.45 5.45 0 0 1 3.18.98 6.56 6.56 0 0 1 2.22 2.9 4.47 4.47 0 0 1 2.44 1.42 5.8 5.8 0 0 1 1.46 2.77 3.91 3.91 0 0 1 1.47 1.36 3.47 3.47 0 0 1 .26.45h.63a6 6 0 0 1 2.69.46c1 .51 2.77 1.64 2.89 3.42 0 .09.58 9.36 0 10.89a5.73 5.73 0 0 1 -2.31 2.77 105.17 105.17 0 0 0 4.55 11.23c1 2 1.87 3.47 2.59 4.67 1.31 2.23 2.11 3.56 1.72 5.13-.24 1-1 3.26-2.73 3.78a3.7 3.7 0 0 1 -.85.12c-.76 0-2.79.16-8.14 2.34l-2.62 1.09c-5.72 2.4-11.12 4.66-19.27 5.1-.86 0-1.63 0-2.38 0z" fill="#fff"/><path d="m7.82 33.84a15.59 15.59 0 0 1 -3.09-2.34c-.47-.75-2.71-9-2.53-9.92s.57-2.16 3-3.28 4.3-2 4.3-2a7.59 7.59 0 0 1 3.09-2.72l1.78-.58s-.37-2.75 1.17-3.87a10 10 0 0 1 3.65-1.48s.91-2.17 2.32-2.65a7.19 7.19 0 0 1 3.3-.07s.49-2.47 2.52-2.93 3.67 1.58 3.93 1.51 1.83-2.17 3.93-1.4a7.37 7.37 0 0 1 3.37 3.16 3.67 3.67 0 0 1 3.3.42 5.58 5.58 0 0 1 2 3.37s1.1-.73 2.41.68a3.48 3.48 0 0 1 1 2.85 2.42 2.42 0 0 1 1.68 1 3.06 3.06 0 0 1 .56 1.41s2.86-.32 3.79.15 1.78 1.17 1.83 1.82.47 9.17.14 10.11a4.21 4.21 0 0 1 -1.73 1.92 4.06 4.06 0 0 1 -1.12.51 116.36 116.36 0 0 0 5.14 13.1c2.58 5.15 4.5 7.16 4.17 8.47s-.94 2.25-1.41 2.39-2.32-.26-9.17 2.53-12.26 5.57-21.29 6-14.37-1.83-16-1.73a25.24 25.24 0 0 1 -6.27 0c-2.58-.42-4.12-2-3.75-3.13a76.91 76.91 0 0 0 3.09-9.74 46.93 46.93 0 0 0 1.17-11.69 9.83 9.83 0 0 0 -.28-1.87z" fill="#604f58"/><path d="m52.88 17.36c-.23-.51-2-.74-2.52-.51s-.57.56-1.59 1.26a24.06 24.06 0 0 1 -9.55 3.14 149.78 149.78 0 0 1 -22.37.75c-8.52-.32-8.42-.56-9.08-.93s-.37-1.73-.37-1.73a3.22 3.22 0 0 0 -.94.28c-.46.27-2.29 1.14-2.46 1.91-.14.56 2.44 8.61 2.81 9.27s.56.46 1.4.93 5.81 1.78 12.73 2 14.74.14 21.9-2a37.67 37.67 0 0 0 5.74-2.2 43.1 43.1 0 0 1 -1.48-4.25c.05-.33.7-.71.84-.42s1.26 3.31 1.5 4.23c.36-.19.68-.37 1-.55-.26-.56-1.57-3.35-1.45-3.68s.52-.66.75-.38a22.83 22.83 0 0 1 1.26 3.63c.31-.2.58-.39.82-.56a17.57 17.57 0 0 1 -1-3.68c.14-.47.61-.8.89-.52a14 14 0 0 1 1 3.5l.36-.31c.42-.33.05-8.66-.19-9.18z" fill="#f6c687"/><path d="m54.52 47.22c0-.33.38-1 .61-1a29 29 0 0 1 3.53 2.43c-.72-1.38-1.8-3.22-3.11-5.47-2.85-4.92-4.63-12.5-4.63-12.5l-4 1.36c-3.26 1.14-7.33 2.96-17.72 3.67a71.87 71.87 0 0 1 -18.76-1.17 43.45 43.45 0 0 1 -.8 9.36c-1 4.82-3.13 11.7-3.55 12.91s1.31 1.64 3.83 1.78 2.95-.51 4-.65.75 0 3.28.84 7.3 1.4 17 .51 13-4.38 17.36-5.65c-.8-.63-2.5-1.93-2.25-2.25a1.87 1.87 0 0 1 1.31-.61 16.15 16.15 0 0 1 2.49 2.44l1.31-.35c-1-.69-3-2.24-2.77-2.56s.75-.75 1-.52a26.5 26.5 0 0 1 3.4 2.67l1-.25c-1.21-1-3.8-3.15-3.8-3.26s.47-.75.89-.56a35.77 35.77 0 0 1 4.15 3.5 6.73 6.73 0 0 0 1.23-.41c.1-.06.13-.18.13-.35-1.29-.92-5.13-3.64-5.13-3.91z" fill="#fcdfc8"/><path d="m5.81 22.93c0-.21.79-.32.89-.09s.84 2.06.65 2.2-.56.56-.79.09a8 8 0 0 1 -.75-2.2z" fill="#604f58"/><path d="m7.21 27.19c0-.25.56-.33.66-.19s1.13 2.39.93 2.67-.37.61-.75.14a9.64 9.64 0 0 1 -.84-2.62z" fill="#604f58"/><path d="m12.55 36.78c.18 0 .65-.28.7 0s.28 4.31-.05 4.31-.51.42-.65-.28a35.51 35.51 0 0 1 0-4.03z" fill="#604f58"/><path d="m12.59 43c0-.15.94-.14.94 0a30.31 30.31 0 0 1 -.53 4.59c-.23.24-.51.24-.61 0s.16-4.21.2-4.59z" fill="#604f58"/><path d="m11.38 50.59c.14-.3.93-.14.93.14s-1 4.07-1.45 4.35-.7.33-.7.05a19.47 19.47 0 0 1 .56-2.2 17.06 17.06 0 0 1 .66-2.34z" fill="#604f58"/><path d="m20 41.14c.23-.28 6.18-.24 11.75-.52s12.54-2 13-1.68 1.88 8.56 1.5 8.8-3.93 1.63-10.2 2.43a73.75 73.75 0 0 1 -13.24.42c-2.34-.09-2.76-.05-2.9-.47a83.82 83.82 0 0 1 .09-8.98z" fill="#604f58"/><path d="m21.2 42c.11-.21 6.6 0 13.48-.61s9.32-1.52 9.5-1.39 1.59 6.23 1.08 6.74-5.48 1.83-9.88 2.48a63.29 63.29 0 0 1 -11.7.52c-2.43-.14-2.43.28-2.57-.33s.05-7.34.09-7.41z" fill="#f6c687"/><path d="m49.28 33.32s.42-.42.75-.19 1.36 2.63 1.17 3-.42.65-.7.46a21 21 0 0 1 -1.22-3.27z" fill="#604f58"/><path d="m50.73 37.81c0-.23.61-.56.8-.42s2.9 5.62 2.66 5.81-.65.7-.93.46a38.5 38.5 0 0 1 -2.53-5.85z" fill="#604f58"/><path d="m9.22 18.82a5.47 5.47 0 0 1 3-3.89c2.53-1 3.19-1.22 3.23-1.36s-1.12-2.76 1.41-4 3.14-1.24 3.14-1.42a2.48 2.48 0 0 1 2-2.15c1.78-.37 2.86.28 3.23 0s.52-3.18 2.72-2.9 3 1.5 3.41 1.4 1.45-1.68 3.28-1.21 2.25 2.71 3.18 3 1.55-.61 3.18.38 2 3.18 2.39 3.36 1.4-.6 2.25.57.46 2.24 1 2.76 1.07.47 1.54 1.31.37 1.17.37 1.17-4.23 3.54-14.34 4.16a141 141 0 0 1 -21.9-.38c-2.57-.34-3.09-.8-3.09-.8z" fill="#fafafa"/><g fill="#604f58"><path d="m16.34 17s.09-1.45 2-1.4 2 1.45 1.73 1.59a1.72 1.72 0 0 1 -.94.14c-.28-.05-.51-.7-1-.47s-.42.7-.65.75-1.1-.15-1.14-.61z"/><path d="m25.32 15.35a2.34 2.34 0 0 1 1.31-.42c.7 0 1.64.47 1.4.75s-.18.37-.51.37a4.78 4.78 0 0 0 -1.36.1c-.47.14-1.35-.42-.84-.8z"/><path d="m19.89 12.31a2.44 2.44 0 0 1 1.64-1.08c1.08-.18 1.78.29 1.83.57s0 .51-.29.56a3.1 3.1 0 0 0 -1.4.14c-.61.28-.47.51-.89.61s-1.12-.42-.89-.8z"/><path d="m27.85 7.72a3.3 3.3 0 0 1 1.31-.65c.65-.19 1.35.33 1.26.56s0 .33-.47.42-.89.19-1.26.28-1.03-.33-.84-.61z"/><path d="m30.05 12.08a2.42 2.42 0 0 1 1.07-.47 1.1 1.1 0 0 1 1.17.93c0 .24-.14.52-.42.47s-.79-.37-1.17-.23-.42.33-.61.09-.37-.42-.04-.79z"/><path d="m34.54 7.4a2.44 2.44 0 0 1 1.73-.1 1.13 1.13 0 0 1 .73 1.5.89.89 0 0 1 -.66.19 1.3 1.3 0 0 0 -1-.61c-.61 0-.61.23-.84-.14s-.15-.75.04-.84z"/><path d="m34.59 16.1c-.12-.26.14-1 .93-1.17s1.73.14 1.69.52-.85.23-1.36.51-1.08.56-1.26.14z"/><path d="m40.06 12.08c.34-.12 1.45-.1 1.45.37a.94.94 0 0 1 -1.21.75c-.66-.14-.94-.89-.24-1.12z"/></g></svg>