<svg height="64" viewBox="0 0 64 64" width="64" xmlns="http://www.w3.org/2000/svg"><path d="m35 52c-20.09 0-32-8-32.08-8a3.17 3.17 0 0 1 -1.23-2.71 1.52 1.52 0 0 0 0 .21c0-.2-.09-.47-.33-11a7.35 7.35 0 0 1 -1.36-3.78c-.22-3.14 3.32-6 4.57-6.6a5.44 5.44 0 0 1 2.25-.53 5.26 5.26 0 0 1 1.47-.7l.39-.08a6.27 6.27 0 0 1 3.51-2.14 8.54 8.54 0 0 1 1.81-.18 9.44 9.44 0 0 1 1.26.09 6.23 6.23 0 0 1 3.74-1.93 16.15 16.15 0 0 1 2.13-.15c.41 0 .77 0 1.07.05a8.28 8.28 0 0 1 4.4-1.87h.5a6.8 6.8 0 0 1 2.3.32 11.19 11.19 0 0 1 4-1h1.12a14 14 0 0 1 5.34.84 3.4 3.4 0 0 1 .77.61h.37a4.39 4.39 0 0 1 2.32.51c.25.15.47.3.66.44a5.23 5.23 0 0 1 2.55.48 4.07 4.07 0 0 1 .79.59h.1a4.93 4.93 0 0 1 2.82.72 5.27 5.27 0 0 1 1.11 1 5.83 5.83 0 0 1 2.8.75 5.06 5.06 0 0 1 1.25 1.16 5.73 5.73 0 0 1 3 1.34 7.46 7.46 0 0 1 1.34 1.56 4.66 4.66 0 0 1 2.64.8c2 1.45 1.75 4.48 1.29 5.72a4.76 4.76 0 0 1 -.7 1.25c-.37 14.59-.87 15.23-1.32 15.78-1.18 1.45-6.54 6.29-25.94 6.45z" fill="#fff"/><path d="m3.63 41.08c-.07-.31-.32-11.31-.32-11.31a5.37 5.37 0 0 1 -1.31-3.18c-.14-2 2.59-4.28 3.5-4.73a3.88 3.88 0 0 1 2-.32 4.61 4.61 0 0 1 1.33-.77 4.48 4.48 0 0 1 1-.14 4.59 4.59 0 0 1 2.84-2.06 7.06 7.06 0 0 1 3.46.17 4.11 4.11 0 0 1 3.23-2.17 9.21 9.21 0 0 1 3.53 0 7.42 7.42 0 0 1 3.92-2c2-.1 2.7.6 2.7.6a8.58 8.58 0 0 1 4.02-1.17 14.71 14.71 0 0 1 5.39.56 2.7 2.7 0 0 1 .84.94 5.7 5.7 0 0 1 2.59.14 3.47 3.47 0 0 1 .94.74 6.51 6.51 0 0 1 2.31.21 2.43 2.43 0 0 1 .88.91 4.83 4.83 0 0 1 2.7.31 3.21 3.21 0 0 1 1.15 1.33 6.2 6.2 0 0 1 2.8.46 2.72 2.72 0 0 1 1.12 1.36 4.86 4.86 0 0 1 2.91.91 6.45 6.45 0 0 1 1.47 2.13 3.41 3.41 0 0 1 2.63.31c1.08.78.84 2.81.59 3.47a3.18 3.18 0 0 1 -.8 1.16s-.36 14.67-.92 15.37-5.13 5.59-24.43 5.77-31.06-7.25-31.62-7.67-.42-1.15-.45-1.33z" fill="#604f58"/><path d="m53.73 38.87c0-.38.38-.8.63-.73a46 46 0 0 1 4.29 3.21c0-.55.08-1.17.12-1.83-.94-.66-4-2.81-4-3s.32-.74.56-.7a28.7 28.7 0 0 1 3.53 2.18c0-.49 0-1 .08-1.48a24.4 24.4 0 0 1 -3-2c-.07-.25.07-.7.31-.74a12.61 12.61 0 0 1 2.75 1.15c0-.45 0-.89.05-1.3a5.86 5.86 0 0 1 -1.27-.92c-.07-.21 0-.8.31-.84a2.53 2.53 0 0 1 1 .27 15.5 15.5 0 0 0 0-1.56c-.11-.46-4.66 1.61-9.8 2.66s-13.87 2.2-27.24 1.36-16.63-3.6-16.74-3.32.24 9.63.24 9.63a20.9 20.9 0 0 0 4.66 2.38c2.9 1.08 7 3.08 21.32 4.55a56.48 56.48 0 0 0 19.47-1.57c-.78-.56-2.25-1.67-2.22-1.9s.38-.8.63-.7 2.12 1.54 3 2.22c.51-.15 1-.29 1.45-.44a22.76 22.76 0 0 1 -3.32-2.45c0-.28.6-.94.84-.84a40.92 40.92 0 0 1 3.69 2.84l1.23-.45a25.77 25.77 0 0 1 -3.52-2.88c0-.35.32-.84.6-.84a24.81 24.81 0 0 1 4.27 3.17 2.45 2.45 0 0 0 .73-.44 3.36 3.36 0 0 0 .15-.84c-.94-.72-4.8-3.5-4.8-3.85z" fill="#84767e"/><path d="m7.13 34.85c.08-.16.94-.14 1 .17a27.18 27.18 0 0 1 0 4.42c-.21.35-.77.38-.91.14a35.83 35.83 0 0 1 -.09-4.73z" fill="#604f58"/><path d="m4.68 24.8c.2-.14.38-.07.38.18a3 3 0 0 0 .94 2.66c1.16 1 3.33 2.34 8.54 3.11a99.34 99.34 0 0 0 15.06 1.19 114.08 114.08 0 0 0 19-1.85c4.45-.84 7.46-1.75 8.93-2.59s1.68-1.54 2-1.51.59-.14.52.49-.66 1.72-2.55 2.7-11.37 3.88-27.3 3.82-22.62-2.28-24.44-3.68-2.48-3.54-1.08-4.52z" fill="#a8a1a7"/><path d="m6.46 24c.4 0 1.23 1.23 1.75 1.19a.81.81 0 0 0 .7-.38s-1.78-1-1.26-1.9a1.63 1.63 0 0 1 1.65-.91c.52.07.73.18 1 0s1.08-1.82 2.66-2.1 2.69.42 3.36 0 1.82-2 3.4-2.24 2.9.35 3.5 0a12.84 12.84 0 0 1 3.64-1.65c1.5-.31 1.92.6 2.59.32a13.32 13.32 0 0 1 6-1.05c2.8.24 2.94 1.22 4 1.47s1.68-.39 2.45.07a5.73 5.73 0 0 0 1.86.94 4 4 0 0 1 2.17.53 4 4 0 0 0 1.68.66 2.3 2.3 0 0 1 1.4.67 2.86 2.86 0 0 0 1.3.91c.28.07 1.82-.46 2.62.45s.91 1.3 1.4 1.51 1.51-.39 2.45.42a5.68 5.68 0 0 1 1.3 1.64c.14.15.42.29.45.5s-.91 1.92-5.77 3.11-11.18 2.38-23.16 2.42-17.78-.58-20.44-1.89-3.12-2.63-3-3.26-.08-1.43.3-1.43z" fill="#f6c687"/><g fill="#604f58"><path d="m13.64 24.66a2.06 2.06 0 0 1 1.92-1.12c1.23 0 1.79.56 1.62.66a13.35 13.35 0 0 0 -1.9.36c-1.05.35-1.71.66-1.64.1z"/><path d="m16.55 21.4c0-.43.28-.84 1.54-.94s1.68.21 1.43.45-1.19.25-1.5.6-.46.49-.67.52-.8-.28-.8-.63z"/><path d="m20.12 25.43c0-.25.21-.59 1.29-.63s1.79.21 1.72.56-.07.46-.42.53-1.26-.11-1.51.14-1.15-.11-1.08-.6z"/><path d="m24.14 20.49c-.22-.44-.14-1.29 1.89-1.68s2.66.39 2.52.67-.66.35-.66.35a2.9 2.9 0 0 0 -2.14.31c-1.19.63-1.5.56-1.61.35z"/><path d="m28.55 22.63c0-.17.28-.7 1.37-1s2-.11 2 .21-.07.7-.56.73-.88-.17-1.27.11-.35.52-.91.49-.66-.23-.63-.54z"/><path d="m35 24.48a2.48 2.48 0 0 1 1.36-.48c.7 0 1.4.35 1.3.64s-1.09.24-1.47.49a1.24 1.24 0 0 1 -1 .24.51.51 0 0 1 -.19-.89z"/><path d="m35.84 18.18a2.71 2.71 0 0 1 2.55.25c1.44.8.67 1.75.67 1.75a2.69 2.69 0 0 0 -1.68-.95c-1 0-1.05 0-1.33-.07s-.56-.87-.21-.98z"/><path d="m44.45 21c.14-.05.28-.28 1.36-.07s1.16 1 1.06 1.26-.53.24-.53.24a2.31 2.31 0 0 0 -1.34-.43c-.73.07-1.5-.63-.55-1z"/><path d="m43.5 25.15a.74.74 0 0 1 1 .07c.24.32 0 .7-.56.74s-.86-.46-.44-.81z"/><path d="m50.61 25a1 1 0 0 1 .91 0c.39.14.14.66-.38.8s-.88-.54-.53-.8z"/></g></svg>