<svg height="64" viewBox="0 0 64 64" width="64" xmlns="http://www.w3.org/2000/svg"><path d="m35 52.09c-9.41 0-17.64-2.2-23.19-6.18-6.95-5-9.21-8.69-10.3-11-1-2.16-2-6.58-1.29-8 0 0 2.68-4.08 5-4.08h.24a6 6 0 0 1 2.35 1.1 31.84 31.84 0 0 0 11.5 4.67l1.12.18a60 60 0 0 0 9.42 1 23.74 23.74 0 0 0 10.62-2.41c7.9-3.8 8.75-5 9.67-7 .41-.89.87-1.89 1.29-2.84 1.43-3.16 1.65-3.61 2-4 .92-1.08 4.17-1.66 5.3-1.66a4 4 0 0 1 1.45.24c1.32.51 4.46 2.86 3.65 5.12a14.27 14.27 0 0 1 -.95 1.83c-.4.71-1.25 2.22-1.6 3 0 .08.1.17.16.27a15.66 15.66 0 0 1 2.56 7.96c.15 5-1.87 9.53-6 13.59-3.47 3.44-9.8 7.65-20.17 8.12-.94.07-1.89.09-2.83.09z" fill="#fff"/><path d="m2 27.77c.23-.47 2.48-3.09 3.31-3s6.24 4.57 13.69 5.75 14.16 2.53 22.3-1.4 9.42-5.4 10.59-7.93 2.7-6.05 3-6.36 3.45-1.3 4.58-.87 2.71 2.04 2.53 2.66-2.88 4.88-2.79 5.66 2.74 3.53 2.87 8.06-1.74 8.54-5.4 12.16-9.72 7.15-18.91 7.58-18.63-1.31-24.77-5.75-8.5-7.76-9.67-10.28a14.44 14.44 0 0 1 -1.33-6.28z" fill="#604f58"/><path d="m44.1 43.42c.13-.35.26-1.14.74-.61a29.47 29.47 0 0 1 2.61 3c.62-.23 1.22-.47 1.8-.73a23.3 23.3 0 0 1 -3-3.25c-.05-.44.13-1 .52-.74a24.07 24.07 0 0 1 3.58 3.47c.59-.3 1.16-.62 1.7-.95-.77-.81-3.42-3.66-3.23-3.92s.61-.61 1-.39a26.52 26.52 0 0 1 3.34 3.6 14.63 14.63 0 0 0 1.63-1.32 32.8 32.8 0 0 1 -3.58-3.33c0-.3.52-.52.74-.52a19.19 19.19 0 0 1 3.71 3c.47-.48.88-1 1.25-1.42a22.89 22.89 0 0 1 -3.13-3c.05-.31.26-.79.48-.7a26.45 26.45 0 0 1 3.38 2.66 12.11 12.11 0 0 0 .87-1.48 15.17 15.17 0 0 1 -2.64-2.23c0-.34.31-.78.57-.74a16.07 16.07 0 0 1 2.55 1.82 9.87 9.87 0 0 0 .41-1.48 14.51 14.51 0 0 1 -1.91-1.34c-.18-.26-.09-.83.21-.83a7.67 7.67 0 0 1 1.89.86 22.37 22.37 0 0 0 -.06-3.73c-.4-4.4-2.53-6.12-2.53-6.79s1.75-4.19 1.83-4.58-1.22 0-1.74-.22-.39-.43-.74-.43-1.48 3-2.48 4.83-2.79 3.8-6.8 6.37-9.68 5.75-16.39 5.7-15.34-1.61-18.43-3a52.92 52.92 0 0 1 -5.66-3.26c-.22 0-.48.91-1 1.48s-1.28.23-1.35.52c-.53 2 3.4 8 7.06 11s11.7 6.26 20.52 7.12a36.17 36.17 0 0 0 14.37-1.6c-.55-.62-2.19-2.55-2.09-2.84z" fill="#f6c687"/><path d="m7.24 30.91s.61-.7 1-.48a45 45 0 0 0 11.38 4.66 59 59 0 0 0 13.38 1.7c3.26.09 3.52-.26 3.7.05s.43.61.17.78-4.27.61-11.76-.44a45.36 45.36 0 0 1 -14-3.92c-2.91-1.26-3.91-2.13-3.87-2.35z" fill="#604f58"/><path d="m7.59 33.61c-.12-.31.43-.61.61-.52a29.41 29.41 0 0 0 2.92 3.35c1.57 1.4 1.65 1.35 1.61 1.53s-.09.26-.35.26a11.7 11.7 0 0 1 -3.31-2.4 4.73 4.73 0 0 1 -1.48-2.22z" fill="#604f58"/><path d="m56.22 15.62a2.88 2.88 0 0 1 2.26-.79c1.09.09 1.79.44 1.66 1a1.86 1.86 0 0 1 -2.14.79c-1-.31-1.7-.44-1.78-1z" fill="#f8b586"/><path d="m40.79 35.18a38.38 38.38 0 0 0 8.41-3.18c4.27-2.31 6.36-4.75 6.8-4.66s.56.61.56.61-1.7 2.22-6.49 4.62-8.07 3.43-8.76 3.35-.78-.52-.52-.74z" fill="#604f58"/></svg>