<svg height="64" viewBox="0 0 64 64" width="64" xmlns="http://www.w3.org/2000/svg"><path d="m61.27 5.08a2.85 2.85 0 0 0 -.42 0 3.2 3.2 0 0 0 -2.28 1.02 1.93 1.93 0 0 0 -.34.65 6.53 6.53 0 0 0 -3.12-1.62 5.51 5.51 0 0 0 -1.19-.13 4.81 4.81 0 0 0 -1.85.37 2.17 2.17 0 0 0 -.26-1.82 2.41 2.41 0 0 0 -2.05-1.06 2.93 2.93 0 0 0 -1.11.22c-.49.19-1.1.44-4.65 5.46a1.94 1.94 0 0 0 -.33.8 2.19 2.19 0 0 0 .53 1.79 4 4 0 0 0 1.23.9c-3 3.53-7.22 9.3-9 11.67-2.69-.63-9.19-2.07-15.88-2.91a76.75 76.75 0 0 0 -8.94-.76 9.63 9.63 0 0 0 -5.2 1.1 4.53 4.53 0 0 0 -1.63 1.69 2.16 2.16 0 0 0 -1-.3h-.29-.14a2.2 2.2 0 0 0 -1.56.69c-1.19 1.23-1.9 4.63-1.79 8.47.16 4.69 1.54 7 2 7.6a2.09 2.09 0 0 0 1.53.92 3 3 0 0 0 -.23.35c-.68 1.35.43 4.1 1.88 5.67.85.92 3 3.1 4.18 3.37a3.06 3.06 0 0 0 .59.07 2.44 2.44 0 0 0 1.81-.8c.22.25.44.48.63.68a7.67 7.67 0 0 0 -.5 1.55c-.41 2.4 2.07 4.87 7.37 7.32a41.41 41.41 0 0 0 13.92 3.48 2.47 2.47 0 0 0 1.52-.4c.4-.28.82-.57 1.73-3.3a22.1 22.1 0 0 0 10.19-4.82 2.26 2.26 0 0 0 0 .45 2.42 2.42 0 0 0 2 2.34h.31c1.22 0 3.4-.81 6.88-4.67 3.72-4.12 4.17-7.73 3.8-8.84a2.42 2.42 0 0 0 -3.3-1.28v-.07c.59-1.46.64-4.8-2.89-8.08a34.11 34.11 0 0 0 -5.93-4.27c1.17-1.41 2.94-3.6 5.11-6.4.95-1.23 1.84-2.33 2.63-3.32 1-1.25 1.86-2.32 2.56-3.28a2.27 2.27 0 0 0 1.38 1.11h.1a1.9 1.9 0 0 0 .71.13c2 0 3.41-2.9 3.87-5.59.63-3.49-1.13-5.86-2.58-6.15z" fill="#fff"/><path d="m5.86 28.07c0-2.26 0-4.67 1.6-5.66s4.37-1.15 12.9-.08a161.71 161.71 0 0 1 16.92 3.18s6.47-8.92 10.1-13.17 5.06-5.81 7.31-5.34a3.76 3.76 0 0 1 3.31 4.12c-.19 2-2.91 4.78-6.85 9.87s-6.59 8.16-6.59 8.16a36.15 36.15 0 0 1 7.62 5.12c3.22 3 2.56 5.55 2.41 5.94s-2.22 5.39-8.38 10.64-11.27 5.15-11.27 5.15-1 3.26-1.37 3.53-7.73-.53-13.51-3.25-6.4-4.55-6.28-5.24a12.74 12.74 0 0 1 .92-2.3 27.23 27.23 0 0 1 -6.16-8.74 32.41 32.41 0 0 1 -2.68-11.93z" fill="#604f58"/><path d="m43.4 44c0-.19.23-.49.5-.49a33.81 33.81 0 0 1 4.1 3.29c.34-.37.66-.74 1-1.11-1-.74-3.62-2.62-3.68-2.8s.42-.58.77-.46a28.32 28.32 0 0 1 3.52 2.5l.58-.78c-.91-.69-2.73-2.1-2.73-2.18s.88-.46 1.15-.23 1.39 1.07 2.03 1.66c.21-.32.41-.61.58-.89-.41-.21-1.25-.66-1.2-.81a.68.68 0 0 1 .58-.38 5 5 0 0 1 1 .61 7.28 7.28 0 0 0 .7-1.38 30.79 30.79 0 0 1 -6.62.08c-5.51-.38-11.9-1.11-23.88-5.25s-14-6.93-14-6.5c0 2.45 1.46 9 4.59 14a23.52 23.52 0 0 0 6.55 7c.08.15-.31 1-.8 1.07a3.71 3.71 0 0 1 -1.84-.84c-.12-.19-.77.69-.69 1.15s1.8 1.83 7.16 4.13a27.06 27.06 0 0 0 10.22 2.34 5.84 5.84 0 0 0 .42-1.54c0-.23-1.46-.57-1.65-.68s0-.77.08-.92.38-.39 1.38-.27a8.45 8.45 0 0 0 2.76-.22 14.43 14.43 0 0 1 -2.11-2.42c.15-.16.49-.42.8-.23a17 17 0 0 1 2.24 2.4c.33-.09.68-.21 1-.34-.68-.7-2.23-2.31-2.14-2.52s.88-.35 1-.23 1.59 1.69 2.07 2.38c.4-.17.82-.35 1.26-.57-.78-.67-2.64-2.31-2.48-2.61s.57-.58.72-.5a27.41 27.41 0 0 1 2.61 2.68l.91-.5c-.76-.64-2.55-2.51-2.55-2.64s.11-.65.57-.54a13.85 13.85 0 0 1 2.87 2.68l.31-.19c.23-.14.46-.3.69-.46a26.94 26.94 0 0 1 -3-2.91c0-.26.57-.53.8-.45a25.85 25.85 0 0 1 2.91 2.87c.41-.31.8-.62 1.18-1a28.11 28.11 0 0 1 -3.23-3.14c0-.34.53-.61.73-.57a32 32 0 0 1 3.26 3c.34-.31.66-.63 1-1-1.08-.72-3.96-3.1-4-3.29z" fill="#f6c687"/><path d="m7.5 25c.21-.68 2.38-1.41 6.32-1.37s9.3.95 14.5 1.83a71.45 71.45 0 0 1 7.77 1.65 3.78 3.78 0 0 0 -.76 1.72 4.64 4.64 0 0 0 .07 1l-8.19 5.89s-8.34-2.86-12.21-4.78-8.11-3.94-7.5-5.94z" fill="#fcdfc8"/><path d="m28.4 35.81c-.26-.15 7.31-5.25 7.46-5.13l.69.49s-5.28 5.63-5.39 5.63a27.3 27.3 0 0 1 -2.76-.99z" fill="#fcdfc8"/><path d="m32.3 36.88s4.83-5.32 5.06-5.28.72.15.72.26-3.44 5.55-3.59 5.55a7.61 7.61 0 0 1 -2.19-.53z" fill="#fcdfc8"/><path d="m35.37 37.6s3.29-5.47 3.44-5.47.69-.08.69 0a56.54 56.54 0 0 1 -2.45 5.7 8.3 8.3 0 0 1 -1.68-.23z" fill="#fcdfc8"/><path d="m38.12 38 2.07-5.7s.61-.23 1.45-.65a3.76 3.76 0 0 0 1.27-1s5.43 2.45 7.65 4.52 2.37 3 1.88 3.52-3.45.8-7.51.61-6.66-1.16-6.81-1.3z" fill="#fcdfc8"/><path d="m37.2 28.61c.22-.5 7-9.57 10.64-13.89s5.4-5.94 6.4-5.9a2 2 0 0 1 1.76 2.76c-.68 1.72-7.38 10.1-11.21 14.47s-4.59 4.55-5.21 4.55-2.87-.84-2.38-1.99z" fill="#adceea"/><g fill="#604f58"><path d="m11.29 33.66a.39.39 0 0 1 .73.08c.23.53.69 4.67 2.52 7.31s2.65 3.33 2.61 3.52a.88.88 0 0 1 -.54.5 16.75 16.75 0 0 1 -3.61-4.82 14.25 14.25 0 0 1 -1.71-6.59z"/><path d="m3.6 37.83s-1.49-1.83-1.6-6.58 1-7.25 1.37-7.16.53-.19.5.23-1.34 4.68-.73 8.12a35.63 35.63 0 0 0 1.34 4.86c-.04.38-.77.8-.88.53z"/><path d="m5 41.05c.08-.15.69-.31.77-.19a13.59 13.59 0 0 0 2 3.63c1.3 1.61 2.8 2.3 2.68 2.53a.53.53 0 0 1 -.65.31 14.43 14.43 0 0 1 -3.18-2.8 5.75 5.75 0 0 1 -1.62-3.48z"/><path d="m48.69 52.91a17.84 17.84 0 0 0 5.85-4.78 15.45 15.45 0 0 0 2.64-5.4.53.53 0 0 1 .61.16c0 .11.12 3-3.4 6.92s-5.21 4.06-5.51 4-.46-.81-.19-.9z"/><path d="m45.59 9.28s3.21-4.55 3.78-4.78 1 .07.85.34-3.72 5.09-3.87 5.09-.8-.42-.76-.65z"/><path d="m60.05 7.41c0-.19.65-.46.84-.42s1.54 1.26 1.11 3.94-1.69 4.09-2 4-.46-.12-.46-.35 1.53-1.8 1.57-3.94a5.12 5.12 0 0 0 -1.06-3.23z"/></g></svg>