<svg height="64" viewBox="0 0 64 64" width="64" xmlns="http://www.w3.org/2000/svg"><path d="m55.3 20.46a28.49 28.49 0 0 0 -5.44-1.56c.54-1.89.92-3.81.62-4.9a3 3 0 0 0 -1.32-1.68 5.42 5.42 0 0 0 .39-.91 6.31 6.31 0 0 0 -1.11-5.22 13.75 13.75 0 0 1 -.87-1.73c-.65-1.46-1.17-2.61-2.57-2.61a1.84 1.84 0 0 0 -.57.09c-1.58.46-1.69 2.06-1.76 3.06v.27a7.88 7.88 0 0 1 -.49 1 20.56 20.56 0 0 0 -1 2.17 3.72 3.72 0 0 0 .16 3.08h-.07c-.48.39-1.33 1.07-1.42 6h-.13l-2.32-.15a22.38 22.38 0 0 0 .25-3.37c-.09-2-.6-3.29-3-4.27a4 4 0 0 0 .5-.69 5.53 5.53 0 0 0 .11-4.58c-.72-2.17-2.62-4.46-4.26-4.46a2.3 2.3 0 0 0 -2.36 2.19 4.64 4.64 0 0 1 -.4.36c-.13.12-.26.22-.37.33-1.13 1-2.08 4.49-.45 6.64a3.21 3.21 0 0 0 -.76.67c-.36.46-.94 1.2-.57 7l-1.32.09c-.46 0-.89.08-1.28.14 0-1.64-.06-3.6-.18-4.38a2.73 2.73 0 0 0 -1.66-2.04 7.29 7.29 0 0 0 .08-3c-.46-2.92-3.16-4.79-4.82-4.79a2.57 2.57 0 0 0 -.62.08 2.41 2.41 0 0 0 -1.8 2.38.5.5 0 0 1 -.11.28 5.58 5.58 0 0 0 -.58 5.08 4.42 4.42 0 0 0 .34.54 3.57 3.57 0 0 0 -1.45 2.1c-.07.34-.17.87.72 5.7a30.75 30.75 0 0 0 -3.49.92c-3.79 1.27-5.79 4.14-6.31 9a15.22 15.22 0 0 0 1.67 8.53c.4 16.3.43 16.55.44 16.66.12 1.08.91 2.12 2.65 3.48 2.13 1.67 8.35 5.59 20.12 6h2.92c10.79.04 16.32-1.96 19.59-3.42 3.81-1.75 5.39-3.08 6.06-5.08.28-.83.51-5.49.7-13.85a2.32 2.32 0 0 0 .24-.21c1.72-1.51 2.44-10.71 2.44-10.8.37-5.14-1.35-8.55-5.14-10.14z" fill="#fff"/><path d="m7.2 37.34a13.14 13.14 0 0 1 -1.66-7.8c.47-4.46 2.17-6.44 5-7.39a26 26 0 0 1 5.15-1.15s-1.22-6.29-1.1-6.92a2.67 2.67 0 0 1 2.33-1.57c1.29-.15 4.24-.34 4.43.88s.16 6.54.16 6.54a12.93 12.93 0 0 1 3.36-.66c2.08-.16 3.27-.12 3.27-.12s-.59-7 0-7.71 2.86-.94 5.19-.15 2.33 1.41 2.39 2.83a38 38 0 0 1 -.63 5.18s2.92.13 4.43.25 2.23.22 2.23.22-.12-6 .7-6.66 5.81.16 6.16 1.41-1.29 6-1.29 6a31.2 31.2 0 0 1 7.23 1.79c3.14 1.32 4.24 4.09 3.93 8.2s-1.26 9-1.79 9.5a1.8 1.8 0 0 1 -.88.5s-.29 13.36-.63 14.4-1.07 2.11-5 3.93-10 3.58-21.6 3.24-17.38-4.28-19-5.54-1.9-1.94-1.93-2.23-.45-16.97-.45-16.97z" fill="#604f58"/><path d="m7.55 29.92c0-3.44 2.23-5.16 5.06-6a23.88 23.88 0 0 1 3.49-.94 3 3 0 0 0 3.24 2.33c2.8-.1 2-3.27 2-3.27a20.45 20.45 0 0 1 4.5-.69l2.61-.13a2.28 2.28 0 0 0 .94 2.42 5.84 5.84 0 0 0 4.62 0c.69-.53 1-2.42 1-2.42s2 .13 4 .32a9.32 9.32 0 0 1 2.61.47s-.5 2.23.31 3a5.12 5.12 0 0 0 3.62.76c.44-.22 1.1-2.3 1-3.05a26.54 26.54 0 0 1 7.29 1.6 3.92 3.92 0 0 1 2.45 4.12 3.12 3.12 0 0 0 -2 .19 2.18 2.18 0 0 0 -.28 3.21 1.56 1.56 0 0 0 2.2.22s-.28 5.53-.66 5.69a3.27 3.27 0 0 1 -1.54 0c-.1-.1-1.16-2.2-1.6-2.17s-2.41 2.51-3.3 2.14-1.66-1.8-2.51-1.8-2.17 2.33-3.78 2.36-2.39-1.7-3.17-1.7-3 1.92-4.59 2-3.15-2.16-4.18-2.38-2.14 2.8-4.69 2.52-2.86-2.29-3.36-2.23-2.39 2.23-4.24 2.14-2.93-2.63-3.71-2.74-2.27 1.79-4.19 2-3.2-3.41-3.14-7.97z" fill="#f7babe"/><path d="m55.4 29.38c.66 0 .94.26 1 .73s-.56 1.48-1.35 1.1-.59-1.83.35-1.83z" fill="#ddeff2"/><path d="m47.89 29.35c.9-.19 2.32-.09 2.35 1.48a2.1 2.1 0 0 1 -2.76 2.08c-1.17-.57-1.39-3.18.41-3.56z" fill="#604f58"/><path d="m48.17 30.35c.41-.09 1 0 1.07.67a.94.94 0 0 1 -1.24.98c-.54-.3-.64-1.48.17-1.65z" fill="#ddeff2"/><path d="m37.26 29.86a2.55 2.55 0 0 1 3.43.53c.84 1.32.22 3-2 2.8a2 2 0 0 1 -1.43-3.33z" fill="#604f58"/><path d="m38.14 30.65a1.15 1.15 0 0 1 1.56.24c.39.6.1 1.36-.9 1.28a.9.9 0 0 1 -.66-1.52z" fill="#ddeff2"/><path d="m28.58 30.42c.38-.73 2.61-1.07 3.21.29a2.34 2.34 0 0 1 -1.6 3.11c-1.26.37-2.64-1.42-1.61-3.4z" fill="#604f58"/><path d="m29.39 31.17a1 1 0 0 1 1.5.13 1.11 1.11 0 0 1 -.75 1.46c-.59.17-1.23-.67-.75-1.59z" fill="#ddeff2"/><path d="m19.43 30.45c.37-.66 2.46-.75 2.9.07a2.09 2.09 0 0 1 -1.36 3c-1.63.3-2.29-1.71-1.54-3.07z" fill="#604f58"/><path d="m20.38 31a.62.62 0 0 1 1 .28c.13.47 0 1.16-.62 1.23s-.7-1.14-.38-1.51z" fill="#ddeff2"/><path d="m10.22 29.1a2.31 2.31 0 0 1 3.34.22c.75 1-.16 2.8-.82 3.33a2.1 2.1 0 0 1 -2.74-.78 2.43 2.43 0 0 1 .22-2.77z" fill="#604f58"/><path d="m11.29 29.7c.37-.26 1.7.19 1.67 1.07s-.73 1.63-1.64.85-.66-1.48-.03-1.92z" fill="#ddeff2"/><path d="m9.22 39.44a3.55 3.55 0 0 0 2.54.51 5 5 0 0 0 2.74-1.26 4.39 4.39 0 0 0 3.8 2.31 5.5 5.5 0 0 0 4.15-2s.79 2.1 3.93 2a5.06 5.06 0 0 0 4.28-2.14 4.62 4.62 0 0 0 4.15 2.17 6.76 6.76 0 0 0 4.59-1.82 5.66 5.66 0 0 0 3.46 1.6c1.91 0 3.89-2.14 3.89-2.14s.44 1.32 2.52 1.16a4.33 4.33 0 0 0 3-1.44 5.47 5.47 0 0 0 1 1.51c.38.22.66.15.66.25s-.09 2.07-.09 2.07a6.1 6.1 0 0 1 -3.33.76c-1.54-.25-2.46-.63-3.37-.44s-2.83 2-4.87 1.51a14.11 14.11 0 0 0 -3.87-.79 15.53 15.53 0 0 1 -4.43.63c-2.2-.09-2.48-1.16-3.65-1.35s-3.2.91-5.12.78-3.5-1.32-4.82-1.39-1.79 1.13-4.28.66-3.46-1.7-4.56-1.82a20 20 0 0 1 -2.2-.1 2.48 2.48 0 0 1 -.12-1.23z" fill="#f6c687"/><path d="m9.44 41.65a2.91 2.91 0 0 1 1.88.09c.85.41 1.64 1.73 4.59 1.89s3.49-.85 4.66-.57 1.54 1.51 4.4 1.32 3.93-1.1 5.56-.63 1.47 1.25 4.25 1.07 2.64-.6 4.62-.28 2.67.63 4.21.44 2.89-1.45 4.4-1.42 1.35.41 3.08.29 2.67-.51 2.71-.32a6.92 6.92 0 0 1 0 1.23 7.36 7.36 0 0 1 -2.73.6c-1.29 0-2-.26-3.36.28s-1.86 1.16-3.21 1.07-1.38-1.2-3.65-1-2.48 1.17-4.24 1-2.36-1-4.18-.88-2.93 1-4.5.75-3.27-1.6-5.28-2-4.21 1.1-6 .91-3.52-1.85-4.59-2a9.14 9.14 0 0 0 -2.61.09z" fill="#ddeff2"/><path d="m9.53 44.54s2-.38 2.77.19a5.32 5.32 0 0 0 4.15 1.76c2.39-.13 4.84-1.1 6.25-.76s2.42 2.36 5.44 1.92 4.47-1 5.85-.69.69.6 2.73.47 3.87-1 4.91-.72 1.51 1.29 4 .75 3.46-1.35 4.78-1.26a27.86 27.86 0 0 0 3.36-.06s0 3.21-.06 3.33a7.45 7.45 0 0 1 -3.9 1.61c-1.66 0-2.17-.41-3.08 0a8.55 8.55 0 0 1 -4.78 1.35c-2.83 0-2.26 0-3.8.31s-.91.79-2.36.51-1.63-1.42-3.08-1.32-2.55 1.1-3.83 1-3.31-2-4.88-2.23-2.83.85-4.59.57-1.88-1.83-3.33-2-3 .13-4-.62a13.87 13.87 0 0 0 -2-1.51c-.29-.07-.57 0-.57-.13s.02-2.47.02-2.47z" fill="#f6c687"/><path d="m9.75 48.37s1.76 1.67 3 1.76 2.61-.53 3.55.19a7.28 7.28 0 0 0 3.21 1.61c1.25.22 4.46-.35 4.84-.13s3.68 2.61 5 2.2 2.92-1.35 4-1 2 1.23 3.24 1.23 2.45-.76 3.58-.85 3.43.16 4.47-.16 1.54-1.38 2.64-1.35 1.6.6 3.14.16 3.14-1.29 3.21-1.13a.78.78 0 0 1 0 .59 20.07 20.07 0 0 1 -1.89 1.1c-.88.6-1.26 1-1.88 1a5.72 5.72 0 0 0 -2.86.09 14.3 14.3 0 0 1 -4.09.85 19.94 19.94 0 0 0 -3.49.57 37.26 37.26 0 0 1 -3.74.25 4.63 4.63 0 0 0 -2.17-.6c-1.2 0-1.67.41-3.62.35s-2.54-1.29-4.21-1.13a20.13 20.13 0 0 1 -3.46.37c-1.19-.09-2.32-1.41-3.74-1.85s-3.11.25-4.09-.31a16.86 16.86 0 0 0 -2.29-1.51c-.66-.19-2.23.15-2.45-.16a4.69 4.69 0 0 1 .1-2.14z" fill="#ddeff2"/><g fill="#604f58"><path d="m17.77 11.78a3.2 3.2 0 0 1 -2.2-1.54 3.68 3.68 0 0 1 .43-3.18 2.34 2.34 0 0 0 .44-1.19c0-.35 0-.57.4-.69s2.65.94 3 3.14-.31 3.08-.88 3.4a1.28 1.28 0 0 1 -1.19.06z"/><path d="m31.76 9.2a2.3 2.3 0 0 1 -2.83-.82c-1-1.28-.22-3.64.22-4.05s1.19-.91 1.32-1.54.09-.85.5-.85 1.83 1.26 2.45 3.11.51 3.65-1.66 4.15z"/><path d="m45.24 12.25c-1.07-.1-3-1.38-2.29-3.08s1.57-2.86 1.63-3.68.07-1.6.38-1.7 1.2 2.61 1.95 3.59a4.36 4.36 0 0 1 .79 3.46c-.29.91-.76 1.57-2.46 1.41z"/></g><path d="m15.19 14.2a5.69 5.69 0 0 1 2.67-.91c1.73-.19 2.14.09 1.92.34a1.94 1.94 0 0 1 -1.29.63c-.63.07-3.02.6-3.3-.06z" fill="#adceea"/><path d="m15.69 15.39c.14-.14 1.17.1 2.36-.06s2.3-.94 2.33-.69.37 8.68-.1 9.15a2.5 2.5 0 0 1 -1.63.56c-.35 0-1.16 0-1.95-2.7a23.2 23.2 0 0 1 -1.01-6.26z" fill="#83a7d8"/><path d="m29.21 11.69c.65-.06 5.06.31 5 1.32s-3.3.84-4.43.31-1.26-1.57-.57-1.63z" fill="#adceea"/><path d="m29.27 14.2c.06-.2 1.51.38 3 .41s2.07-.19 2.11-.06-1 8.3-1.48 8.48a4.61 4.61 0 0 1 -3-.15c-.63-.47-.69-8.46-.63-8.68z" fill="#83a7d8"/><path d="m43.23 13.6a8.27 8.27 0 0 1 3.46.32c.72.31.88.53.54.66a10.24 10.24 0 0 1 -2.52-.1c-.71-.09-1.71-.48-1.48-.88z" fill="#adceea"/><path d="m42.92 15a19.85 19.85 0 0 0 2.67.62c1.67.19 1.92-.06 1.89.38s-2.11 8.54-2.48 8.83a3.16 3.16 0 0 1 -2.36-.35c-.44-.35.06-9.48.28-9.48z" fill="#83a7d8"/><path d="m43.83 9.26a10.88 10.88 0 0 1 1.29-2.1c.22-.38.19-.6.44-.54s1.82 2.55 1.44 3.43-.76 1.13-1.86 1-1.4-.87-1.31-1.79z" fill="#f6c687"/><path d="m29.56 7.22a2.31 2.31 0 0 1 .15-2c.38-.41 1.2-1 1.48-1.38s.38-.1.63.22 1.32 2.07 1 3.08-2.7 2.16-3.26.08z" fill="#f6c687"/><path d="m17.93 10.65a1.78 1.78 0 0 1 -1.55-1.23c-.25-1 .29-1.29.44-1.76s.18-1.16.48-1.13a3 3 0 0 1 1.57 2.47c-.06 1.11-.38 1.62-.94 1.65z" fill="#f6c687"/><path d="m17.39 12.72s-.13-1.29 0-1.35 1-.06 1 .13.12 1.1-.13 1.19a2.9 2.9 0 0 1 -.87.03z" fill="#604f58"/><path d="m30.66 10.87c0-.19-.35-1.7-.16-1.83s1.13-.34 1.19-.12a6 6 0 0 1 0 2.17c-.22.09-1.03-.22-1.03-.22z" fill="#604f58"/><path d="m44.87 14a12.3 12.3 0 0 1 .06-2.42c.16 0 .72 0 .79.19a9.53 9.53 0 0 1 -.07 2.35.81.81 0 0 1 -.78-.12z" fill="#604f58"/><path d="m53.54 52.9c0-.25-2.32 1.13-2.92 1.35a7.62 7.62 0 0 1 -2.29.13c-1.2 0-1.95.85-3 1.07a28.81 28.81 0 0 1 -3.74.15c-1.07.07-2.83.85-5.13.76a3.83 3.83 0 0 1 -2.6-.72c-.7-.22-3.15.4-4.44.4s-2-.78-3.17-1.07-3.05.45-4.59.19a5.92 5.92 0 0 1 -2.93-1.57c-.44-.34-2.35.06-3.64-.19a8.34 8.34 0 0 1 -3.24-1.73 3.2 3.2 0 0 0 -2.17-.31 8 8 0 0 0 .13 2.7c.18.38 4.24 3.27 9 4.47s14.78 1.88 23 .72a33 33 0 0 0 4.23-.87c-.24-.2-.43-.38-.42-.49 0-.31.39-.8.63-.7s.63.4 1.16.77l1.17-.42c-.59-.41-1.17-.84-1.17-1s.59-.94.84-.84a19.23 19.23 0 0 1 1.75 1.3c.4-.19.75-.37 1.08-.54a5.07 5.07 0 0 1 -1.34-1.21c0-.35.31-.84.59-.84a10.26 10.26 0 0 1 2 1.27 6.25 6.25 0 0 0 1.16-.91 10.12 10.12 0 0 0 .05-1.87z" fill="#f6c687"/></svg>