<svg height="64" viewBox="0 0 64 64" width="64" xmlns="http://www.w3.org/2000/svg"><path d="m31 64h-1.37c-10.75-.32-16.51-3.25-17.17-5.23-.46-1.37.54-12.3 1.43-15.2a11.81 11.81 0 0 1 1.74-3.71 17.22 17.22 0 0 1 -1.51-5.36c-.5-3.45-.93-9.32-1.21-13.21-.13-1.75-.23-3.14-.29-3.78-.14-1.28-.24-1.87-.3-2.14-.82-.78-3.1-3-3.54-4.1a3.46 3.46 0 0 1 .1-2.8 3.11 3.11 0 0 1 2-1.63 12 12 0 0 1 2.19-.27 27.35 27.35 0 0 1 5.62-2.37c1.66-.51 2.9-.83 3.77-1a2.53 2.53 0 0 1 .43-1.33c.41-.62.84-1.27 6.74-1.8h1.18c1.31-.07 5.24.3 6.19 1.93a2.33 2.33 0 0 1 .3 1 29.49 29.49 0 0 1 5.2 1.34c3 1.14 5.24 3.43 5.65 4.56a3.6 3.6 0 0 1 .19 1.1h.37a9.24 9.24 0 0 1 3.54.4 5.28 5.28 0 0 1 3.21 5.05c.09 1.83-.38 16.26-1 18.62a7.83 7.83 0 0 1 -3.79 5.21 8.85 8.85 0 0 1 -4.25 1.21h-.63-1.06c-.07.17-.15.33-.23.49a14.27 14.27 0 0 1 1.62 5.28c.32 2.47 1.33 10.67.45 12.37s-5.46 5.37-15.57 5.37z" fill="#fff"/><path d="m53.52 15.58a3.42 3.42 0 0 0 -2-3.35c-1-.42-5.07-.19-5.07-.19a17.6 17.6 0 0 0 -.1-2.48 9.39 9.39 0 0 0 -4.52-3.41 31.3 31.3 0 0 0 -6.51-1.5 6.08 6.08 0 0 0 0-1.69c-.16-.29-2.57-1.24-5.47-1s-5.1.65-5.3 1a6.53 6.53 0 0 0 -.13 1.88 27.56 27.56 0 0 0 -5.11 1.24 22.86 22.86 0 0 0 -5.63 2.44 13.11 13.11 0 0 0 -2.27.23 1.33 1.33 0 0 0 -.78 1.82 25.65 25.65 0 0 0 3.31 3.64c.26.23.43 1 .65 3.13s.79 12 1.5 16.91 2.08 5.83 2.08 5.83-1.43.84-2.37 4.06-1.63 13.44-1.43 14 4.49 3.58 15.39 3.9 14.7-3.45 15.12-4.26-.09-7.06-.65-11.23-2-5.49-2-5.49a3.93 3.93 0 0 0 .52-.72 14.08 14.08 0 0 0 .75-1.72s2.44-.07 2.83 0a6.55 6.55 0 0 0 3.45-.94 5.93 5.93 0 0 0 2.9-4c.42-2.03.94-16.08.84-18.1zm-4.59 15.68a3.74 3.74 0 0 1 -2.18 2.74 6.44 6.44 0 0 1 -2.93.1c0-.19 2.28-17.18 2.28-17.18s3.52-.42 3.68 0-.52 12.88-.85 14.34z" fill="#604f58"/><path d="m39.53 55.37c-.06-.26.1-.68.33-.68a27.74 27.74 0 0 1 3.25 1.31c0-.38 0-.87 0-1.46a14.8 14.8 0 0 1 -3.11-1.06c-.06-.26 0-.78.1-.78a26.55 26.55 0 0 1 3 .65c0-.37 0-.78-.07-1.22a23.09 23.09 0 0 1 -2.79-.66c0-.13-.13-.95.1-.95a22.76 22.76 0 0 1 2.63.64c0-.33 0-.67-.06-1 0-.1 0-.19 0-.3a19.57 19.57 0 0 1 -2.24-.86c-.2-.16-.23-.88.1-.91a7.64 7.64 0 0 1 1.92.54c0-.46-.11-.88-.17-1.29a5.13 5.13 0 0 1 -1.52-.34c-.07-.17-.26-.66 0-.69a5.89 5.89 0 0 1 1.28 0 9.21 9.21 0 0 0 -1.18-3.6c-.26-.13-.46.07-.91.29s-4.3 1.7-11.36 1.4-8.72-2.53-8.83-2.63a1.22 1.22 0 0 0 -.95.17c-.39.22-1.2 1.56-1.62 4.29s-.88 10.35-.62 10.9 5.46 2.7 12.65 2.86a34.54 34.54 0 0 0 11.11-1.65c-.87-.29-2.12-.73-2.16-1s.36-1 .52-1a29.38 29.38 0 0 1 3.2 1.4 2.9 2.9 0 0 0 .87-.49.93.93 0 0 1 0-.1 24.61 24.61 0 0 1 -3.47-1.78z" fill="#fcdfc8"/><path d="m15.13 9.89c0-.19 1.56-1.3 4.65-2.25a27.54 27.54 0 0 1 4.72-1.1 1.66 1.66 0 0 0 1 .81c.78.23 1.63.43 5.21.43s4.39-.88 4.45-1 .17-.65.43-.65a37.08 37.08 0 0 1 6.18 1.72c1.72.78 2.28 1.27 2.14 1.59s-4.13 2.25-15 2.05-13.65-.98-13.78-1.6z" fill="#c5dda3"/><path d="m25.38 4.55a19.54 19.54 0 0 0 4.78.52c2.67 0 4.13-.52 4.2-.35a3.3 3.3 0 0 1 -.07 1.28 10.23 10.23 0 0 1 -4.39.84 10 10 0 0 1 -4.42-.84 3.52 3.52 0 0 1 -.1-1.45z" fill="#afc68c"/><path d="m25.48 3.74c0-.1 1.26-.68 3.93-.81s4.82.19 4.88.49-2.11.68-4.42.68-4.36.06-4.39-.36z" fill="#dfebc5"/><path d="m14.64 11.58a87.43 87.43 0 0 0 15.59 1.56c8 0 14.34-2 14.38-1.79s-2.25 24-2.93 26.39-3.06 4.42-7.29 4.81-9.56-.35-12.13-1.43-4.2-4.42-4.56-8.2-1.07-18.64-1.33-19.22-1.92-1.7-1.73-2.12z" fill="#ddeff2"/><g fill="#604f58"><path d="m20 33.09c0-.13.16-14.58.26-15a2.33 2.33 0 0 1 1.89-1 1.74 1.74 0 0 1 1.78 1.59c0 .95.13 13.57-.22 13.73s-.88.36-.78 0 .22-12.39 0-13.11-.45-1.14-1.07-1a1 1 0 0 0 -.86 1.02c0 .39.29 13.25.06 13.6s-1.06.43-1.06.17z"/><path d="m27.82 32.14c-.05-.19.06-12.91.19-13.43a2.43 2.43 0 0 1 2.38-2c1.76 0 2.15 1.34 2.11 2.41s0 12.78-.26 13-.78.59-.84.07.16-13.24-.17-13.83a1.05 1.05 0 0 0 -1.1-.58c-.36 0-1.17.35-1.3 1.78s.39 12.33.13 12.6-1.04.37-1.14-.02z"/><path d="m35.53 32.73c0-.2.16-11.88.26-12.49s.75-2.41 2.37-2.54 1.89 1.56 1.89 3.06-.62 12.33-1 12.52-.94 0-.94-.13c0-1 1-10.31.85-12s-.23-2.05-1-2-1.1.48-1.2 2.92-.1 10.71-.23 10.87-1-.05-1-.21z"/><path d="m21.77 37.15a6.64 6.64 0 0 1 -.95-2c-.09-.59.07-.85.36-.65a1.85 1.85 0 0 1 .55.91 4.38 4.38 0 0 1 .4 1.46.48.48 0 0 1 -.36.28z"/><path d="m23.56 37.38c0-.19-.3-3 0-3.16s.46-.35.59.07a10 10 0 0 1 0 3.09c-.24.16-.59 0-.59 0z"/><path d="m29.41 37.77.07-.75s-1.17-.06-1.34-.81.56-1.5 1.89-1.4 1.92 0 2 .68.1.82-.13 1a3.17 3.17 0 0 0 -.39.32 17.27 17.27 0 0 1 3.12.13c0 .2.13.79 0 .85a18.2 18.2 0 0 1 -3.54 0 2.75 2.75 0 0 1 -.2-.55h-.52v2.44s.3-.13.36.07.07.81 0 .84-.29-.1-.33 0 0 .42-.09.46a1.39 1.39 0 0 1 -.72-.17c-.06-.09 0-.39-.13-.39s-.36 0-.39-.13-.2-.58 0-.61.49 0 .46-.13-.07-.82-.07-.82a5.36 5.36 0 0 1 -2.05 0c-1-.23-2.47-.42-2.47-.71s0-.75.42-.65.65.06 2.22.19 1.83.14 1.83.14z"/><path d="m35.46 37.25a8.28 8.28 0 0 1 .3-2.44.59.59 0 0 1 .68.23 7.76 7.76 0 0 1 -.2 2.44.62.62 0 0 1 -.78-.23z"/><path d="m37.71 36.18c.15-.12.75 0 .78.22s.13 1.11-.2 1.27-.68.33-.84 0a2.39 2.39 0 0 1 .26-1.49z"/></g><path d="m46.1 15.49c.07-.17.46-2.48.46-2.48s3.9.13 4.45.2a2.77 2.77 0 0 1 1.6 2.7c0 1.49-.36 15.87-1.14 18.05a5 5 0 0 1 -4.07 3.49 11.63 11.63 0 0 1 -3.74.09l.23-2.24a7.34 7.34 0 0 0 4.13-1c2-1.2 2-3.15 2.41-6.83s.55-10.64.32-11.19-.61-.65-1.75-.75-2.9-.04-2.9-.04z" fill="#ddeff2"/><path d="m19 52.22a24.26 24.26 0 0 1 .55-5.4c.59-2 .95-2.31 1.24-2.25s.75.46.68.68a6.61 6.61 0 0 0 -1 2.51c-.35 1.79-.16 4.23-.35 4.46s-1.05.19-1.12 0z" fill="#604f58"/><path d="m22.42 53c.31-.35 1.36-.33 1.43.26s-.1 1.11-1 1.14-.69-1.08-.43-1.4z" fill="#604f58"/><path d="m23.69 49.32c.3-.35 1.36-.33 1.43.26s-.1 1.11-1 1.14-.69-1.11-.43-1.4z" fill="#604f58"/><path d="m28.4 46.55c.31-.34 1.37-.32 1.44.27s-.1 1.1-1 1.13-.7-1.1-.44-1.4z" fill="#604f58"/><path d="m32.86 47.66c.31-.34 1.37-.32 1.43.26s-.1 1.11-1 1.14-.69-1.06-.43-1.4z" fill="#604f58"/><path d="m35.63 50.82c.3-.35 1.36-.33 1.43.26s-.1 1.1-1 1.14-.69-1.11-.43-1.4z" fill="#604f58"/><path d="m35.56 54.2c.31-.35 1.37-.33 1.43.26s-.09 1.11-1 1.14-.69-1.11-.43-1.4z" fill="#604f58"/><path d="m27 50.3c1.24-1.07 3.94-.85 5.57.65s1 4.55-.59 5.82a4 4 0 0 1 -5.95-1 4.25 4.25 0 0 1 .97-5.47z" fill="#604f58"/><path d="m27.72 51.3c.86-.74 2.75-.59 3.89.46s.7 3.18-.41 4.07a2.82 2.82 0 0 1 -4.17-.7 3 3 0 0 1 .69-3.83z" fill="#f9f2ed"/><path d="m26.74 52.05c.17 0 1.05.2 1.18.59s0 .88-.23 1-1.56-.22-1.6-.45.65-1.14.65-1.14z" fill="#604f58"/></svg>