<svg height="64" viewBox="0 0 64 64" width="64" xmlns="http://www.w3.org/2000/svg"><path d="m11.52 63.85a9.66 9.66 0 0 1 -4.78-1.42c-2.81-1.62-5.66-5.94-6.25-7.43a7.37 7.37 0 0 1 -.1-5c.4-.88 3.91-3.86 5.4-4.23a8.84 8.84 0 0 1 2.12-.21 13.47 13.47 0 0 1 2.62.23l.43.1 8.69-8.31a10.29 10.29 0 0 1 -.44-6.15c1-4.42 4.07-7.71 7.34-11.21l4.45-4.87c4.5-4.92 10.1-11 11.68-12.47a11.09 11.09 0 0 1 7.26-2.73q.41 0 .75 0a9.39 9.39 0 0 1 4.31 1.75 8.08 8.08 0 0 1 1 .82 11.8 11.8 0 0 1 1.38-.08 5.66 5.66 0 0 1 1.46.16c1.78.47 3.68 2.64 4.72 5.38 1.12 2.93 0 6.66-.71 8.22-.85 1.82-18.52 19.36-20.67 21.44-5 4.81-7.57 6.9-10.83 7.36a8.5 8.5 0 0 1 -1.14.08 10.51 10.51 0 0 1 -3.6-.69l-8.23 8.65a9.14 9.14 0 0 1 -.57 6c-1.42 2.61-3.6 4.25-5 4.52a6.77 6.77 0 0 1 -1.29.09z" fill="#fff"/><path d="m2.16 50.8c.09-.21 3.05-2.89 4.1-3.15a11.15 11.15 0 0 1 3.84 0 14 14 0 0 1 1.38.39l10.57-10.04a7.6 7.6 0 0 1 -.95-6.11c.85-3.8 3.58-6.79 6.86-10.3s13.89-15.31 16.04-17.28a9 9 0 0 1 6.5-2.2 7.84 7.84 0 0 1 3.4 1.41 13 13 0 0 1 1.38 1.25 9.85 9.85 0 0 1 3-.1c1 .26 2.52 1.87 3.41 4.2s-.13 5.59-.66 6.7-15.2 16-20.22 20.88-7.22 6.47-9.75 6.83a8.67 8.67 0 0 1 -4.92-1l-9.9 10.39s1.08 3.38-.13 5.61a7.23 7.23 0 0 1 -3.68 3.55 6.77 6.77 0 0 1 -4.72-1.08c-2.4-1.38-5-5.32-5.42-6.47a5.53 5.53 0 0 1 -.13-3.48z" fill="#604f58"/><path d="m57.05 12.58c.26-.26.43-.49.66-.26a9.81 9.81 0 0 1 .67 2.37 5.26 5.26 0 0 0 -.38-3.69c-1.08-2.43-4.92-6.51-7.58-7s-3.42.67-3.42.67 2.93 2.14 3.81 3 .72 1.38.2 2.49-6.24 6.11-10.21 9.23-6.9 5.38-8.18 5.22-2.33-2.27-2.33-2.27-4.69 4.46-6.56 7.66a9.21 9.21 0 0 0 -.73 6.78 6.94 6.94 0 0 1 2.3-1.45c1-.22 2.26.5 3 2.4a2.71 2.71 0 0 1 -.92 3.12 5 5 0 0 0 .75.39 4.27 4.27 0 0 0 3.09.23c1.54-.42 2.53-1.37 8.8-7.28 3.83-3.62 8.86-8.45 12.5-12.12-.25-.9-1.18-4.18-1-4.46s.39-.59.65-.53a15 15 0 0 1 1.13 4.22l.56-.57c-.28-1-1.12-4.16-.93-4.44s.36-.95.69-.46a20.27 20.27 0 0 1 .86 4.25c.2-.21.4-.41.58-.61a31.27 31.27 0 0 1 -.75-4.65c.16-.3.52-.63.69-.33a31.27 31.27 0 0 1 .73 4.27l.65-.72a45.1 45.1 0 0 1 -.76-4.5c.1-.27.49-.6.69-.37a22.48 22.48 0 0 1 .7 4.1l.12-.16c.23-.33.42-.65.6-1-.26-1.04-.88-3.33-.68-3.53z" fill="#f9f2ed"/><path d="m5.11 49.55a4.36 4.36 0 0 1 3.15-.95c1.94.16 3 .72 3.35.59s12.81-12.28 13.5-12.57a1.67 1.67 0 0 1 2.1.55 2.46 2.46 0 0 1 0 2.6c-.36.39-12.25 12.54-12.28 12.9s1.21 1.21.69 3.54-1.22 2.6-1.22 2.6a9.51 9.51 0 0 0 -3.18-5.94 13.29 13.29 0 0 0 -6.11-3.32z" fill="#ddeff2"/><path d="m3.4 51.19c.51-.91 2.86-.65 4.11.17a10.21 10.21 0 0 1 3.77 3.18c1.51 2.07 2.4 3.78 2.07 5s-1.9 1.94-3.87 1a18.89 18.89 0 0 1 -5.91-5.84 3.7 3.7 0 0 1 -.17-3.51z" fill="#fafafa"/><path d="m5 52.11c.22-.21.79-.89 1.68.1a6.13 6.13 0 0 1 1.22 2.33s.72-.43 1.15.13a3 3 0 0 1 .4 1.58 2.43 2.43 0 0 0 1.24 1.28c.86.29 1.12.16 1 .36s-.26 1-1.38.62-1.77-2-1.77-2-.49.3-.89-.49a3.12 3.12 0 0 1 -.39-1.21s-.57-1.68-1.36-1.71-.9.09-.9-.1-.25-.63 0-.89z" fill="#604f58"/><path d="m25 31.1s0-.89.56-1.05a5.58 5.58 0 0 1 4.2.62 7.12 7.12 0 0 1 3.32 5.22c.2 2.24 0 3.32-.43 3.52a1.36 1.36 0 0 1 -.92 0s-.23-.69-.06-.79 1.08-.46.49-2.63-1.25-3.91-3.41-4.5a5.55 5.55 0 0 0 -3.09-.26c-.26.03-.59.17-.66-.13z" fill="#604f58"/><path d="m31 21.42s4.17-4.6 4.2-4.5.23 1.15.73 1.31 1.11.43 2.43-.49 2.64-2.33 2.64-3.19-.86-1.28-1.28-1.41a4.57 4.57 0 0 0 -1.32 0s2.4-2.43 2.5-2.4.52 1.58 1.44 1.68a3.88 3.88 0 0 0 3.35-1.12c1.41-1.21 1.48-2.49 1-3.22a3.15 3.15 0 0 0 -1.46-1.08s-1.31.27-1.28.1 1.51-1.57 2-1.54 4.43 2.69 4.33 3.51-8.57 8.27-11.85 10.74-4.43 3.54-5.35 3.67-2.23-1.61-2.08-2.06z" fill="#fff"/><path d="m36.17 16.29c.29-.37 1.61-2 2.4-2.23s1.64.26 1.28 1a6.38 6.38 0 0 1 -2.85 2.28c-.57.07-1.29-.46-.83-1.05z" fill="#f7babe"/><g fill="#dfebc5"><path d="m42 10.06a9.6 9.6 0 0 1 2.14-2.14c.59-.26 2 .13 1.74 1.28a3.68 3.68 0 0 1 -2.79 2.14c-.62-.1-1.54-.46-1.09-1.28z"/><path d="m56.39 5.79a2.19 2.19 0 0 1 2.27.36 6.64 6.64 0 0 1 2.49 5.48c-.29 1.84-.65 2.17-.78 2.17a16.41 16.41 0 0 0 -1.37-4.7 11.12 11.12 0 0 0 -2.61-3.31z"/></g></svg>