<svg height="64" viewBox="0 0 64 64" width="64" xmlns="http://www.w3.org/2000/svg"><path d="m30.88 64a71.85 71.85 0 0 1 -8.78-.41c-5.69-.81-7.27-4.43-6.89-7.27.47-3.48 5.59-5.6 8.91-5.93.68-.06 1.3-.11 1.86-.14l-.07-1a12.72 12.72 0 0 1 -6.35-4.33c-2.85-3.71-4.78-9.54-5.43-13.68-.73-4.74-.13-6.2.55-7a2.5 2.5 0 0 1 1.63-.88c0-3 .32-8.72 2-12.14 3.26-6.96 8.3-10.82 14.52-11.22h.63c7.44 0 11.88 8 13.42 14.89a43.19 43.19 0 0 1 1 9.22 3 3 0 0 1 2.05 1.76c.4 1.08.38 3.52-.08 7.24s-2.39 10.53-6.85 13.43a33.74 33.74 0 0 1 -4.8 2.68v1.8c2.23.22 5.88.79 8.37 2.35a4.49 4.49 0 0 1 2.43 4.63c-.37 2.35-2.68 4.45-5.76 5.22-2.49.56-8.01.78-12.36.78z" fill="#fff"/><path d="m18.27 25.27s-.33-8.92 1.73-13.27 6-9.62 13-10 10.76 7.84 12 13.31a41.24 41.24 0 0 1 .89 10.44s1.94 0 2.22.8.19 3.26-.19 6.32-2.12 9.54-5.94 12a22.85 22.85 0 0 1 -5.67 3v5s6 .14 9.3 2.17.76 5.39-2.83 6.28-16 1-20.34.38-5.53-3-5.24-5.1 4.34-4 7.17-4.25a18.11 18.11 0 0 1 3.63-.17l-.28-4.53a10.78 10.78 0 0 1 -6.66-4c-2.69-3.49-4.48-9.15-5.05-12.79s-.38-5.66.57-5.66 1.69.07 1.69.07z" fill="#604f58"/><path d="m43.1 56.57c-1.89-1.13-6.8-1.08-6.8-1.08a2.52 2.52 0 0 1 -.19 1.32c-.28.47-2.07.33-2.26 0s-.14-9.63-.1-10.19c0-.29.9-.68 2.39-1.58a30.78 30.78 0 0 1 -3.43-3c0-.28.38-.85.81-.61a33.84 33.84 0 0 1 3.84 2.9c.42-.28.87-.59 1.36-.94-1.27-.87-4.45-3.07-4.45-3.38s.47-.66.85-.61a32 32 0 0 1 4.63 3.21c.33-.26.68-.54 1-.84a49.55 49.55 0 0 1 -4.43-3.55c0-.28.52-1 1-.8a34.51 34.51 0 0 1 4.39 3.53l.09-.09a10.79 10.79 0 0 0 .89-.9c-1-.8-4.28-3.45-4.52-4s.38-1.32.76-1a53.6 53.6 0 0 1 4.53 4c3-4.31 2.4-9.91 2.36-10.31s-27.42-1-27.57-.81.38 4.11 1.37 7 2.45 6.42 4.53 8.35 6.14 3.68 6.28 4.11.09 7.6.09 8-1.22.71-1.65.62-.52-1.37-.52-1.37-5.24.09-6.56.75-2.29 1.7-1.92 2.4 2.74 1.75 10.63 1.94 10.66-.47 11.8-.85 2.7-1.09.8-2.22zm-.8-25.68c.33.14 2.12 1.75 2.12 2.22s-.19.8-.33.8a16.92 16.92 0 0 1 -2.83-2.31c-.15-.3.74-.85 1.04-.71zm-2 1.89c.23.09 3.21 2.55 3.11 2.88a.79.79 0 0 1 -1.08.47 13.21 13.21 0 0 1 -2.84-2.55c-.21-.41.51-.89.78-.8z" fill="#adceea"/><path d="m20.39 25.51s0-7.69 2.41-12.79 6.66-8.31 11.33-7.93 7.55 7.36 8.36 11.52a55.06 55.06 0 0 1 .7 9.53s-22.37-.23-22.8-.33z" fill="#f9f2ed"/><g fill="#604f58"><path d="m24.26 14.89c-.09-.27-.18-1.56 1.56-4.34s3.26-2.84 3.59-2.55.09 1.14.09 1.14a3.52 3.52 0 0 0 -2.64 2.31c-.8 2.08-.94 3.16-1.23 3.49s-1.27.23-1.37-.05z"/><path d="m21 31.18c0-.34 1-.48 1.27-.19s.15 1.41.81 3 .89 1.46.71 1.93-.85.24-1.14.05a14.64 14.64 0 0 1 -1.65-4.79z"/></g></svg>