<svg height="64" viewBox="0 0 64 64" width="64" xmlns="http://www.w3.org/2000/svg"><path d="m32.53 64a54.94 54.94 0 0 1 -6.53-.42c-1.64-.33-5.94-3.25-6.32-6-.29-2.11.48-41.19.51-41.45.18-1.81 3.64-4.29 6.84-5.22-1.65-.91-1.92-1.56-2.03-1.91-.53-1.22-.25-5.9-.24-5.94.34-2.42 4.56-3 8-3.09h.42c5.13 0 7.65 2.14 8 3.49a30.87 30.87 0 0 1 .16 5.21c-.25 1.14-1.25 1.61-2.4 2.16l-.25.12a9.13 9.13 0 0 1 3.36 2c2.15 2.19 2.32 5.25 2.32 9 0 3.33-.75 34.56-.8 35.25-.12 1.53-2.61 4-3.63 4.82-1.78 1.48-4.94 1.98-7.17 1.98z" fill="#fff"/><path d="m29.2 12.44v-2.67s-2.2-.97-2.46-1.52a29.11 29.11 0 0 1 -.1-4.89c0-.24 1.28-1.31 6.16-1.42s6.48 1.84 6.55 2.06a42.6 42.6 0 0 1 .14 4.26c-.07.32-1.52.87-2.18 1.25a1.78 1.78 0 0 1 -1.15.28v2.46a9.53 9.53 0 0 1 4.57 2.11c1.6 1.63 1.77 4 1.77 7.66s-.76 34.65-.8 35.1a10.15 10.15 0 0 1 -2.87 3.43c-1.35 1-4.13 1.52-6.24 1.49a53.85 53.85 0 0 1 -6.2-.38c-1-.21-4.54-2.64-4.78-4.4s.45-40.3.52-41 3.87-3.71 7.07-3.82z" fill="#604f58"/><path d="m35.61 53.5a.73.73 0 0 1 .45-.83 19.7 19.7 0 0 1 3.45 2.6c0-.46 0-1 .05-1.6a31.54 31.54 0 0 1 -3.56-3.5c0-.38.31-.93.55-.9a25.87 25.87 0 0 1 3.06 2.73c0-.53 0-1.08 0-1.67a17.94 17.94 0 0 1 -2.86-2.59c0-.34.27-.93.52-.93a16.41 16.41 0 0 1 2.38 2c0-.7 0-1.43.05-2.18a12.76 12.76 0 0 1 -2.43-2.2c0-.35.14-.94.34-.94a14.64 14.64 0 0 1 2.13 1.59c0-.68 0-1.36 0-2.06a27.28 27.28 0 0 1 -2.58-2.3c0-.21.21-1 .45-1a15.73 15.73 0 0 1 2.17 1.81v-1.57a11.46 11.46 0 0 1 -2-1.69c0-.24 0-.87.28-.87a7.36 7.36 0 0 1 1.78 1.09v-1.59a9.09 9.09 0 0 1 -1.84-1.38c0-.28.11-.94.46-.94a4.23 4.23 0 0 1 1.49.83c.14-6.74.24-12.75.24-14 0-3.09 0-4.44-1.08-5.58a5.76 5.76 0 0 0 -3-1.42s.25 1.31-.27 1.63-1.46-.11-1.63-.14-.09-5.9-.09-5.9a15.14 15.14 0 0 1 -1.63 0c-.69 0-1.28-.1-1.28-.1s0 5.65-.07 6-1.84 0-1.94-.07 0-1.14-.07-1.28-.76 0-2 .62a7.49 7.49 0 0 0 -2.85 2.57c-.38.73-.45 9.39-.52 14s-.24 24.67 0 25.05a14.61 14.61 0 0 0 3.5 2.91 25.78 25.78 0 0 0 7.93 0 16.16 16.16 0 0 1 -1.9-2.47c0-.31.21-.73.62-.62a12.53 12.53 0 0 1 2.57 2.71 7 7 0 0 0 1.29-.64c-.63-.61-2.69-2.59-2.72-2.76s.11-.91.46-.84a22.15 22.15 0 0 1 3.16 2.9 3.57 3.57 0 0 0 .75-1s-3.71-2.98-3.81-3.48zm-8.14-27.5c-.18.17-.9.17-1 0s.07-6.58.07-6.76 1-.41 1-.1.1 6.68-.07 6.86z" fill="#ddeff2"/><g fill="#f9f2ed"><path d="m28.64 7.45v-2.32s1.11 1.32 4.2 1.11 4.4-1.14 4.47-.94.07 2.08.07 2.08a9.82 9.82 0 0 1 -4.68.87c-3.22 0-4.06-.8-4.06-.8z"/><path d="m29.44 4.33c0-.17.8-.48 3.57-.55s3.71.17 3.78.52-1 1-3.81 1-3.47-.45-3.54-.97z"/></g></svg>