<svg height="64" viewBox="0 0 64 64" width="64" xmlns="http://www.w3.org/2000/svg"><path d="m32.6 63.5c-.9 0-2.64-.33-7.44-2.81-6.67-3.44-7-4.31-7.27-4.83-.55-1.28-.08-30.61 0-30.8.33-1.16 7-8 9-10.12l-.08-3.31a5 5 0 0 1 -1.74-3.35c-.24-3.17-.15-4.25.43-5a9.61 9.61 0 0 1 6.9-2.78h.16c3.75 0 6.73 2 7.37 3.39a15.1 15.1 0 0 1 .21 5.57c-.39 1.11-2.44 2.78-2.46 2.8 0 .69.06 1.53.08 2.13 1.33 1.33 4.78 4.81 6.07 6.14a6.31 6.31 0 0 1 2.07 3.94c.2 1 .51 24.53.5 26 0 3.6-.24 4.52-.73 5.35-.65 1.11-7.33 5.49-7.39 5.53-2.24 1.43-4 2.12-5.42 2.16z" fill="#fff"/><path d="m28.83 15.7-.13-5a3.5 3.5 0 0 1 -1.7-2.56c-.12-1.65-.21-3.39.07-3.77a8 8 0 0 1 5.53-2c3.27 0 5.38 1.76 5.6 2.25a17.49 17.49 0 0 1 .15 4.18 9.59 9.59 0 0 1 -1.81 1.9c-.45.35-.82.31-.82.44s.15 4.05.15 4.05 5 5 6.59 6.65a4.34 4.34 0 0 1 1.54 3.1c.1.45.49 21.91.46 25.51s-.26 4.06-.46 4.39a70.57 70.57 0 0 1 -6.78 4.89c-2.36 1.51-3.72 1.88-4.58 1.86s-2.79-.59-6.64-2.59-6.21-3.48-6.38-3.88-.1-29 .05-29.54 8.33-9.07 9.16-9.88z" fill="#604f58"/><path d="m39.06 51.86c-.07-.22 0-.78.26-.78a24.63 24.63 0 0 1 3 2c0-.3 0-.76 0-1.34a21.59 21.59 0 0 1 -2.79-2.15c0-.25 0-.77.19-.84a12.21 12.21 0 0 1 2.6 1.87c0-.48 0-1 0-1.58a22.19 22.19 0 0 1 -2-1.7c-.1-.22.07-.9.31-.91a7.45 7.45 0 0 1 1.74 1.37v-1.53c-.44-.26-1.4-.86-1.43-1.1s0-.62.2-.65a3.82 3.82 0 0 1 1.23.76c0-8.3-.12-20-.35-20.74-.36-1.07-7.82-8.07-7.95-8.23s-.21-5.08-.21-5.08a5.22 5.22 0 0 1 -1.49.08 8.38 8.38 0 0 1 -1.8-.31s.16 4.51.09 5.09-9 10.32-9.23 10.7-.2 27.18.06 27.67a49.17 49.17 0 0 0 6.65 3.54 18.79 18.79 0 0 1 -2-3.53c.12-.38.42-.57.7-.48a36.48 36.48 0 0 1 3.33 4.89 4.56 4.56 0 0 0 1.3.42s.06-.1.09-.26c-.92-1.3-4-5.68-4.05-5.82s.22-1.06.53-.91a61 61 0 0 1 3.65 5.27c0-.54.05-1.18.07-1.92-.61-.76-3.53-4.37-3.57-4.59s.23-.88.45-.88a31.61 31.61 0 0 1 3.14 3.81c0-.6 0-1.24 0-1.9a31.66 31.66 0 0 1 -3.1-3.64c0-.31.22-1 .47-.88a33.2 33.2 0 0 1 2.64 2.86v-1.84c-.71-.7-2.46-2.44-2.56-2.66s.07-.9.29-.87a16.67 16.67 0 0 1 2.27 2v-1.6a14.14 14.14 0 0 1 -2.13-2.06c0-.31 0-.84.29-.82a7.8 7.8 0 0 1 1.83 1.5v-1.27c-.38-.23-1.49-.91-1.55-1.22s-.08-.8.14-.9 1 .5 1.4.84c-.05-7.26-.15-14-.14-14.21 0-.37 1-.52 1.16 0s-.07 32.18-.07 32.18a1.22 1.22 0 0 0 .62 0 23 23 0 0 0 4.89-2.56c.32-.22.66-.48 1-.74-.63-.49-1.7-1.33-1.77-1.42s.1-.93.35-.93a11.41 11.41 0 0 1 2.25 1.7l.68-.56a16.16 16.16 0 0 1 -2.38-1.59c0-.22.07-.87.47-.82a12.74 12.74 0 0 1 2.67 1.74c.2-.19.36-.36.49-.5a27.68 27.68 0 0 1 -2.93-1.97z" fill="#afc68c"/><path d="m28.62 6a9.61 9.61 0 0 0 3.83.76c2.19 0 3.82-.84 3.91-.59a15.73 15.73 0 0 1 0 1.94c0 .25-.84 1.35-4.06 1.26s-3.42-.73-3.55-1.14a14.63 14.63 0 0 1 -.13-2.23z" fill="#f6c687"/><path d="m29.26 5.18a4.75 4.75 0 0 1 3.41-1.08c2.35 0 3.41.78 3.41 1s-1.26.7-3.49.75-3.24-.34-3.33-.67z" fill="#f6c687"/><path d="m23.74 32.72s-.29-4-.21-4.18.74-.43.87-.24a19.17 19.17 0 0 1 .14 4.37c-.21.33-.8.05-.8.05z" fill="#604f58"/><path d="m37.7 35.3v-1.77s-.71-.2-1-1.46-.17-2.63.54-2.81 1.15 1 1.21 1.18.14.55.14.55.27-1.71 1.21-2.23 1.65.24 1.77 1.16a5.5 5.5 0 0 1 -1 3c-.34.29-.62.08-.75.11s-.83.15-.83.15l-.41 2.18a1.66 1.66 0 0 1 1.2 1.8c0 1.58-.47 3.39-1.61 3.89s-3 .11-3-1.38.16-3.75 2.53-4.37z" fill="#604f58"/><g fill="#dfebc5"><path d="m37.17 36.49a1.33 1.33 0 0 1 1.92 1c0 1.11-1.06 3.16-2.16 2.81s-1.84-1.64.24-3.81z"/><path d="m38.13 32.68s-.66-.17-.73-.69-.2-1.48.14-1.43.69 1.31 1 1.31 1.27-2.4 1.9-2.29.7 1 .53 1.57a2.84 2.84 0 0 1 -2.13 1.61c-.93.12-.56-.05-.71-.08z"/></g></svg>