<svg height="64" viewBox="0 0 64 64" width="64" xmlns="http://www.w3.org/2000/svg"><path d="m31.78 64c-7.11 0-12-4.68-12.41-6.3-.23-1-2.06-18.86-2.52-25.68v-.29c-.51-7.73-.77-11.61 1.61-15.32a14.82 14.82 0 0 1 6.35-5.41 3.68 3.68 0 0 1 -.69-.84c-.9-1.62-.36-5.74-.3-5.95a6.44 6.44 0 0 1 5.9-4.16h2c2.44 0 4 .3 5.11 1 2.06 1.29 2.43 3.56 2.53 5.39a10.48 10.48 0 0 1 -.36 4.09 10.79 10.79 0 0 1 2.44 1.09c2.35 1.44 5.53 3.85 6 8.17.33 2.72-.51 16.58-1.38 29.79-.08 1.14-.13 2-.16 2.53-.14 2.13-.45 5.89-1 7.1-.74 1.38-5.9 4.68-12.9 4.79z" fill="#fff"/><path d="m28.35 11.92v-1.18s-2.06-.68-2.53-1.52-.21-4.22-.14-4.46a4.5 4.5 0 0 1 4.12-2.76c3-.14 4.87 0 5.95.67s1.52 1.89 1.62 3.85 0 3.28-.47 3.72a4.24 4.24 0 0 1 -1.56.71v1a9.83 9.83 0 0 1 5 1.32c2.36 1.45 4.73 3.41 5.13 6.76s-1.27 28.14-1.47 31.97-.61 5.88-.85 6.35-4.63 3.65-11.15 3.71-10.61-4.29-10.75-4.83-1.95-17.74-2.46-25.34-.79-11.22 1.28-14.43a13 13 0 0 1 8.28-5.54z" fill="#604f58"/><path d="m38.24 53a.73.73 0 0 1 .45-.83 19.34 19.34 0 0 1 3.21 2.33c0-.46.07-1 .1-1.55a28.89 28.89 0 0 1 -3.38-3.32c0-.38.31-.94.55-.9a24.15 24.15 0 0 1 2.93 2.61c0-.5.06-1 .09-1.59a17.43 17.43 0 0 1 -2.77-2.51c0-.35.27-.94.52-.94a15.47 15.47 0 0 1 2.33 1.94c0-.68.08-1.38.12-2.11a13.31 13.31 0 0 1 -2.45-2.22c0-.35.13-.94.34-.94a15 15 0 0 1 2.19 1.65c.53-10 1.11-22.68 1-23.92a8.47 8.47 0 0 0 -3.48-5.33 7.58 7.58 0 0 0 -4.36-1.49s.2 2.9-.13 3a3.89 3.89 0 0 1 -1.93-.24c-.17-.17 0-5.33 0-5.33a7.48 7.48 0 0 1 -1.72 0c-.84-.1-1.39-.14-1.52-.17s.17 4.26.17 4.49-1.42.34-1.66.24-.2-2.06-.2-2.06-4.05 1.22-5.88 3.34-2.53 4.7-2.26 8.86 2.34 29.9 2.5 30.17 2.7 3.34 8.45 3.65a17.72 17.72 0 0 0 6.19-.83 13.06 13.06 0 0 1 -1.72-2.26c0-.31.2-.72.62-.62a12.16 12.16 0 0 1 2.37 2.43c.48-.2.9-.39 1.27-.58a31.76 31.76 0 0 1 -2.5-2.54c0-.21.11-.9.45-.83a20.82 20.82 0 0 1 3.08 2.79 2.47 2.47 0 0 0 .49-.39s0-.29.08-.73c-.86-.7-3.45-2.91-3.54-3.27z" fill="#f6c687"/><path d="m27.91 8.37a11.39 11.39 0 0 1 .14-2.37 12.7 12.7 0 0 0 3.61.71 17.26 17.26 0 0 0 3.89-.44 11.17 11.17 0 0 1 -.07 2.29c-.14.21-1 .95-3.62.92s-3.71-.87-3.95-1.11z" fill="#f9f2ed"/><path d="m28.38 5c0-.16.85-1 3.42-1s3.37.71 3.41 1 0 .65-.24.71-1.92.1-3.24.14-3.18-.28-3.35-.85z" fill="#f9f2ed"/><g fill="#604f58"><path d="m26 16.18c.18-.11.68.91.68.91s-2.13 1.59-2.5 3.17a13.2 13.2 0 0 0 -.18 3.15c-.07.17-1 .23-1.18 0a8.13 8.13 0 0 1 .47-4.19 9.74 9.74 0 0 1 2.71-3.04z"/><path d="m27 31.82c-1.58.64-1.28 4.93-.7 6.52s2 1.66 2.6.85a9.86 9.86 0 0 0 .67-5.88 2 2 0 0 0 -2.57-1.49zm1.32 6.35c-.27.37-.91.44-1.45-.67s-.3-4.09.44-4.33c.3-.09 1.15-.1 1.35 1.22a8.51 8.51 0 0 1 -.38 3.78zm3-5.84c-.06.27 0 5.77.07 6s1.08.17 1.28 0a48.2 48.2 0 0 0 0-6c-.03-.17-1.29-.22-1.35 0zm6.76 5.61a17.07 17.07 0 0 0 -2.26-.07c-.17-.07 0-5.44-.1-5.71s-1.15-.15-1.22 0a66.1 66.1 0 0 0 0 6.89 16 16 0 0 0 3.61-.2c.04-.07.14-.75-.03-.91z"/></g></svg>