<svg height="64" viewBox="0 0 64 64" width="64" xmlns="http://www.w3.org/2000/svg"><path d="m30.5 60.26c-10.57 0-11.24-.26-11.6-.41-1.61-.64-2.84-3.52-3.36-5.22-2.08-1.2-7.84-4.81-10.37-9.35l-.24-.44c-2.73-4.9-4.7-8.44-4.93-12.91-.22-4.77 1.42-8.36 3.9-8.53h.77c.69 0 1.73 0 2.73.05a15.94 15.94 0 0 1 -1-3.74 7.7 7.7 0 0 1 1.7-5.48 3.51 3.51 0 0 1 2.49-1.34h.58c1 0 3.07.06 4.87.13a19.67 19.67 0 0 1 -.95-2.38 5.83 5.83 0 0 1 .42-5 3.66 3.66 0 0 1 2.47-1.79c.24 0 .63-.09 10.89-.09 2.62 0 16 0 16.67.08a3.59 3.59 0 0 1 2.5 1.37 4.17 4.17 0 0 1 .67 3.29 22.22 22.22 0 0 1 -1.37 4.46c6.48 0 6.88.18 7.21.31 2.09.78 2 4 1.75 5.89a26.24 26.24 0 0 1 -2.06 5.67c4.46.13 6.87.22 7.17.26 1.77.25 2.73 2.46 2.48 4.28v.23c-.16 1.39-.63 5.6-4.35 13.54-4 8.6-6.94 10.28-9.56 11.26l-1.89.71c-.7 1.94-1.79 4-3.3 4.63-.32.13-1.3.52-14.29.52z" fill="#fff"/><path d="m17.2 53.33s-7.52-3.95-10.33-9-4.72-8.33-4.87-12.49 1.21-6.45 2.1-6.51 6.32.13 6.32.13a23.19 23.19 0 0 1 -2-5.93c-.19-2.24 1.15-4.66 2.36-4.72s8.74.25 8.74.25a22.08 22.08 0 0 1 -2.52-5.06c-.83-2.61.51-4.14 1.34-4.27s26.47-.06 27 0 1.79.45 1.47 2.42a28.66 28.66 0 0 1 -1.66 5.11 6.48 6.48 0 0 1 -.76 1.59s9 0 9.5.19.77 1.85.51 3.83-3.19 7.78-3.19 7.78 9.51.26 10 .32 1 1.15.83 2.1-.32 4.93-4.21 13.23-6.44 9.5-8.48 10.27l-2.74 1s-1.22 3.82-2.49 4.33-23.54.51-24.49.13-2.36-3.87-2.43-4.7z" fill="#604f58"/><path d="m48.6 44.91c0-.21.64-.72.85-.64a26 26 0 0 1 2.45 3.56c.26-.32.52-.66.78-1-.62-.89-2.16-3.13-2-3.5s.34-.56.64-.56a14.22 14.22 0 0 1 2.12 2.95c.24-.36.48-.73.73-1.13a28.75 28.75 0 0 1 -1.88-3c0-.25.34-.81.64-.81a10.06 10.06 0 0 1 2 2.43c3-5.52 5.2-13.71 5-13.88s-13.91-.39-25.7-.51-29.23-.97-29.4-.56c-.45 1.17-.36 5.94 1.51 10.23s4.59 8.72 9.66 11.14 6.76 2.34 6.8 2.6a4.12 4.12 0 0 1 -.3 1.53c-.12.08-.34.21-1.19.17a15.75 15.75 0 0 0 -1.78-.09c-.34 0 .72 2.13 1.23 2.43s1.74.21 7.82.38 14.25.08 14.76-.13a6.43 6.43 0 0 0 1.57-2.13c0-.12-.72.22-1.74.26s-4.81.21-5.15.08.13-1.36.26-1.65.13-.64 5.27-1l.89-.09c-.78-.91-2.16-2.56-2-2.81s.43-.55.77-.42a21.14 21.14 0 0 1 2.52 3 12.92 12.92 0 0 0 1.27-.33 34.94 34.94 0 0 1 -2.52-3.43c0-.21.38-.72.76-.59a20.71 20.71 0 0 1 2.76 3.59 9.11 9.11 0 0 0 1.06-.58c-.71-.91-2.75-3.57-2.61-3.82s.55-.59.76-.55a44.57 44.57 0 0 1 2.79 3.76 11.94 11.94 0 0 0 1.06-1 44.66 44.66 0 0 1 -2.46-3.9z" fill="#afc68c"/><path d="m46.52 23.1c.13-.34.51-.64.77-.51a25.29 25.29 0 0 1 2.63 2.54c.15-.27.31-.59.5-1a18 18 0 0 1 -2.33-2.46c0-.26.34-.81.73-.77a7.52 7.52 0 0 1 2.16 2l.05-.1a20 20 0 0 0 1.78-5.95c0-.21-7.57.21-15.77.17s-23.64-.02-24.75-.02-1.83.93-1.36 3.1a35.37 35.37 0 0 0 2.21 5.78c.43 0 25.31.49 33.26.61-.61-.68-1.68-1.91-1.5-2.1s.43-.51.73-.42a14.1 14.1 0 0 1 2.44 2.55h.75a.5.5 0 0 0 .22-.11c-.76-.89-2.62-3.04-2.52-3.31z" fill="#c5dda3"/><path d="m41.29 10.51c.09-.34.38-.76.72-.68a8.42 8.42 0 0 1 1.89 1.8 27.31 27.31 0 0 0 1.17-3.71c0-.34-24.74-.34-25.42-.26s-1.11 1.07-.51 2.51a42.92 42.92 0 0 0 2.8 4.76c.2 0 11.82.13 17.31.15a15.48 15.48 0 0 1 -1.66-2.27c0-.21.3-.77.64-.68a15 15 0 0 1 3.06 2.95h.77l.12-.05a21 21 0 0 1 -2.42-3.22.55.55 0 0 1 .64-.51 13.9 13.9 0 0 1 2.48 2.59c.09-.18.19-.39.32-.64a3.13 3.13 0 0 0 .2-.41c-.63-.6-2.18-2.06-2.11-2.33z" fill="#dfebc5"/><g fill="#604f58"><path d="m22 9.49c-.07-.42 1-.38 1.19 0s1.19 2.21 1 2.55-.85.17-.85.17-1.27-2.46-1.34-2.72z"/><path d="m13.78 19.4c.08-.17 1.27-.3 1.23-.09a7.17 7.17 0 0 0 .68 3.07 11.9 11.9 0 0 1 .81 1.62c0 .26-.72.73-.94.6a9.63 9.63 0 0 1 -1.56-2.6 3.25 3.25 0 0 1 -.22-2.6z"/><path d="m8.89 32.37c0-.19 1.32-.21 1.44 0a11.89 11.89 0 0 0 1.45 5.14c1.62 3.11 2.47 3.66 2.42 4.13a.91.91 0 0 1 -.89.76c-.3 0-1.91-1.95-3.1-4.59a16.45 16.45 0 0 1 -1.32-5.44z"/></g></svg>