<svg height="64" viewBox="0 0 64 64" width="64" xmlns="http://www.w3.org/2000/svg"><path d="m32 58.73c-7 0-12-1.12-13.73-2.11-2.21-1.29-2.45-2.81-2.45-3.41 0-.11 0-.42 0-.76a21 21 0 0 1 -7.82-8.16 41.86 41.86 0 0 1 -4-9.89 9.66 9.66 0 0 1 -3-2.76 4.31 4.31 0 0 1 -.7-4 2.89 2.89 0 0 1 1.93-1.83c.24-.06.69-.19 6.82-.22-.07-.22-.14-.44-.2-.67-.13-.56-.22-1-.28-1.38a11.06 11.06 0 0 1 -2.97-3.54 3.78 3.78 0 0 1 -.16-3.44 2.73 2.73 0 0 1 2.22-1.35c.17 0 .41-.05 3.33-.05h4.58c-.07-.19-.14-.38-.2-.56-.13-.44-.23-.82-.31-1.12-1.21-.72-2.63-1.86-2.88-3.28a3.49 3.49 0 0 1 .82-2.9 3.76 3.76 0 0 1 2.8-1.37h.14 4.25c3.45 0 10.18 0 16.59-.31l5.33-.23c2.36-.1 3.43-.15 4.06-.15a3.51 3.51 0 0 1 1.58.28c1.3.59 2.13 2.35 1.18 4.57a7.49 7.49 0 0 1 -2.37 2.66 12.64 12.64 0 0 1 -.69 2.48h3.05 3.62.36 1.69a3.23 3.23 0 0 1 2.9 1.15c.83 1.19.69 3.53-1.19 5.69a16.5 16.5 0 0 1 -3.07 2.63c-.09.3-.22.66-.37 1l6.52.1c1.89 0 3.18.52 4 1.48a3.16 3.16 0 0 1 .58 2.67 8 8 0 0 1 -3.3 4.05c-.45.3-.86.56-1.19.76-.24 1.81-1.24 5.28-5 10.19a45.26 45.26 0 0 1 -7.35 8c-.13 2.7-1 3.32-1.32 3.57-1.27.93-7 2.23-13.47 2.23z" fill="#fff"/><path d="m12.08 27.5a11.73 11.73 0 0 1 -1.41-3.07 7.44 7.44 0 0 1 -.31-1.92 10.89 10.89 0 0 1 -3-3.34c-.74-1.68-.16-2 .51-2.08s10.84 0 10.84 0a18.69 18.69 0 0 1 -1.48-3.09 9.15 9.15 0 0 1 -.44-1.81s-2.51-1.25-2.7-2.35a1.78 1.78 0 0 1 1.76-2c.87 0 11.58.11 21-.28s9.67-.44 10.15-.24.66.94.19 2a7.54 7.54 0 0 1 -2.39 2.31 10.77 10.77 0 0 1 -.94 3.46 15.8 15.8 0 0 1 -1.18 2s7.5.08 10 0 3-.12 3.3.28.23 1.8-1.06 3.29a15.53 15.53 0 0 1 -3.26 2.67 14.91 14.91 0 0 1 -.94 2.52 13.27 13.27 0 0 1 -.94 1.65l9.65.15c2.59 0 2.83 1.06 2.67 1.81a6.21 6.21 0 0 1 -2.43 2.86c-1.18.79-2 1.22-2 1.22s.43 3.54-4.68 10.17-7.73 8.13-7.73 8.13 0 2.59-.55 3-5.71 1.98-12.71 1.95-11.55-1.14-12.76-1.85-1.49-1.41-1.49-1.73 0-2 0-2a18.16 18.16 0 0 1 -8.09-7.89 36.73 36.73 0 0 1 -4-10.25 8.3 8.3 0 0 1 -3.1-2.55c-1.1-1.65-.47-2.75.12-2.91s9.4-.11 9.4-.11z" fill="#604f58"/><path d="m9.69 18.86c-.14-.29 17.23 0 26 0s17.94 0 17.94 0a4.66 4.66 0 0 1 -1.49 2c-.9.51-1.77.39-2 .79s-.91 2.7-1.73 4.27l-.82 1.58h-.75s1.65-3.3 1.45-4.72a1.44 1.44 0 0 0 -2.47-1c-.94.83-1.77 3.69-1.93 4.32a12.93 12.93 0 0 0 -.23 1.41h-.71s1.14-4 .59-5.14-1.54-.68-2.25-.37a7.66 7.66 0 0 0 -2.55 3.46 7.41 7.41 0 0 0 -.51 2.15h-1.23s.55-3.69-.07-4.63-1.69-.74-2.52-.31-1.24 2.33-1.28 3.33a12 12 0 0 0 0 1.68h-1.13s.27-3.18-.35-4.28a2.19 2.19 0 0 0 -2.2-1.25 2.27 2.27 0 0 0 -1.77 2 22 22 0 0 0 .08 3.57h-1.9s-.51-4.35-1.45-5.45-2.2-.32-2.59-.08-.31 2.16-.12 3.45a9.54 9.54 0 0 0 .51 2h-1.88s-.51-4.59-1.57-5.65-2.12.28-2.2 1.53 1.14 4 1.14 4h-1.81s-1.18-4.95-1.84-5.81-1.22-.59-1.42-.51a2.72 2.72 0 0 0 -.39.19 7 7 0 0 1 -2.55-2.53z" fill="#adceea"/><g fill="#ddeff2"><path d="m13.85 27.5s-1.37-2.95-1.3-3.81.59-1.26.91-.9 1.84 4.67 1.84 4.67a11.38 11.38 0 0 0 -1.45.04z"/><path d="m18.44 27.5s-1.49-3-1.17-4.09 1-.9 1.25-.19 1.22 4.28 1.22 4.28z"/><path d="m22.92 27.65s-1.14-4-.55-4.67 1.61-.82 2 .67.59 2.9.75 3.34.27.66.27.66z"/><path d="m28.65 27.61s-.51-2.47 0-3.49 1.18-1 1.61-.86.67 1.21.75 1.68.19 2.67.19 2.67z"/><path d="m33.87 27.65s.16-3.22.79-4 1.53-.63 1.69.19a25.07 25.07 0 0 1 -.2 3.85z"/><path d="m39.29 27.58a6.13 6.13 0 0 1 1.41-3.7c1.38-1.41 1.73-1.37 1.93-.78a26.81 26.81 0 0 1 -.55 4.55z"/><path d="m44.43 27.46a14.17 14.17 0 0 1 1.34-4c.78-1.1 1.37-1.1 1.61-.66s-.59 2.78-.94 3.65-.51 1.14-.51 1.14z"/><path d="m20.41 17.17s-1.1-2.43-1.42-3.53a3.49 3.49 0 0 1 -.23-1.42s.94-.47.43-.9-2.91-1.26-3-1.53.43-.39.43-.39 6.2.12 13.7.19 14.37-.66 14.53-.43-1.85 1.84-2.03 2.12a29.07 29.07 0 0 1 -.78 3.1c-.2 0-.24-2.67-1.14-2.94s-2.71 2-2.94 3.49a11.06 11.06 0 0 0 -.16 2.44l-.71.08s.47-4.75-.27-5.78-2.44-.82-3.54.67-1.17 5-1.17 5h-1.46s.16-3.3-.9-4.32-3.1-.28-3.73.27 0 4 0 4h-.86a37.25 37.25 0 0 0 -1.89-5.07c-.7-1.17-1.61-1-2.2-.47s-.11 3.58.12 4.4a5.46 5.46 0 0 0 .36 1z"/></g><path d="m22.64 17.21s-1.37-2.36-1.17-3.69.62-1.49 1-1 2.12 4.55 1.8 4.67a7.44 7.44 0 0 1 -1.63.02z" fill="#fff"/><path d="m26.88 17.21s-.66-2.71 0-3.3 2.2-.82 2.52.51a10.11 10.11 0 0 1 .15 2.87z" fill="#fff"/><path d="m32.93 17.17s.12-2.67 1.18-4 2.16-1.06 2.16-.44a26.43 26.43 0 0 1 -.36 4.4c-.19.12-2.98.04-2.98.04z" fill="#fff"/><path d="m38.43 17.09s.08-2.47.82-3.41 1.38-1.38 1.53-1a20.2 20.2 0 0 1 -.31 4c-.12.63-.24.51-.24.51z" fill="#fff"/><path d="m4.23 29.58s15.08-.2 28.94-.16 26.18.08 26.26.31-1.18 1.58-2.16 2.32a12.47 12.47 0 0 1 -1.57 1.06s-.7-.94-2.08.63-3.65 7.58-5 10.33a11.78 11.78 0 0 0 -1.38 3.69 22.64 22.64 0 0 1 -3.08 2.24c-1.45.83-2 1.18-2 1.53a1.92 1.92 0 0 0 .35 1.22.71.71 0 0 0 .75 0c.27-.12.9-.67.9-.47a6.56 6.56 0 0 1 -.47 1.72c-.16.19-4.67 1.21-11.31 1.25a47 47 0 0 1 -12.25-1.25c-.47-.24-.86-.43-.86-.79s0-1.45 0-1.45a3.8 3.8 0 0 0 1.41.67 1.44 1.44 0 0 0 1.34-.75.8.8 0 0 0 .07-.78 33.07 33.07 0 0 1 -4.67-2.28 11.16 11.16 0 0 1 -2-1.49 37.44 37.44 0 0 0 -1.14-6.28l-.7-2 .11-.19a42.24 42.24 0 0 0 3.22 7c1.53 2.27 3.1 2.35 3.65 2s.63-3.81-.62-6.75-3.18-6.33-4.44-7.5-2.28-.75-2.51-.47a6.93 6.93 0 0 0 -.2 4.08s-1.88-3.22-3.1-4.08a1.47 1.47 0 0 0 -2.08.27 7.18 7.18 0 0 0 -.87-2.21c-.35-.21-1.57 0-2.51-1.42z" fill="#83a7d8"/><path d="m8.35 33.46c.1-.17 2.36 1.42 3.77 4.68s2.44 7.86 2.24 7.86-1.81-2-4-5.62-2.2-6.56-2.01-6.92z" fill="#adceea"/><path d="m13.89 33.58c.22-.25 2.83 2.16 4.47 6.09s1.73 7.06 1.5 7.22-2.32-1.29-4.24-5.57-2.48-6.91-1.73-7.74z" fill="#adceea"/><path d="m21 32.56c.34-.44 1.54-.47 2.32.39s2.87 3.77 3.26 9 .2 6-1 6.32-3-1.22-4.12-5.3-1.01-9.62-.46-10.41z" fill="#604f58"/><path d="m21.7 33.39c.33-.22 2.71 1.41 3.54 6.4s.31 7.61.11 7.65-2.47-1.44-3.29-5.77-.71-8.05-.36-8.28z" fill="#adceea"/><path d="m31.28 33c.82-.19 2.79.08 3.22 3.73s-.27 11.15-.78 11.86-1.46 1.18-2.44-.16-2-5.37-2.2-9.26 1.06-5.94 2.2-6.17z" fill="#604f58"/><path d="m31.52 33.94c.71-.33 1.69.86 1.88 2.51s.24 10.32-.16 11.19-1.17.74-1.57 0a27.32 27.32 0 0 1 -1.67-8.64c-.09-3.69 1.09-4.87 1.52-5.06z" fill="#adceea"/><path d="m40.63 32.13c.58-.45 2.12-.12 2.39 1.57a19 19 0 0 1 -2.28 10.17c-2.16 4.08-3.53 4.71-3.8 4.51a2.51 2.51 0 0 1 -.71-2.08c0-1.25.71-7.54 2-10.52s1.89-3.26 2.4-3.65z" fill="#604f58"/><path d="m41.1 33.07c.45-.17 1.25.12 1.25 1.65a22.48 22.48 0 0 1 -2.67 8.72c-1.76 3.18-2.31 3.84-2.55 3.53s.08-5.5 1.34-9 2.31-4.78 2.63-4.9z" fill="#adceea"/><path d="m41.29 46.89c0-.6 1.81-7.61 4.05-10.72s3.92-4 4.67-4 .94 1 .9 2.36a16.88 16.88 0 0 1 -4.39 9.85c-3.52 3.62-3.77 3.62-4.05 3.62s-1.22-.44-1.18-1.11z" fill="#604f58"/><path d="m42.39 45.67c.25-.65 2-7.06 3.93-9.65s3.49-2.79 3.73-2.59.31 3.73-2.28 7.45-4.87 5.74-5.14 5.82-.47-.4-.24-1.03z" fill="#adceea"/><path d="m48.87 45.36c-.07-.09 4.32-9.42 5-10.21s1.1-1.21 1.29-1 .16 2.2-1.29 4.67-4.53 7.18-5 6.54z" fill="#adceea"/><path d="m25.94 51.49c.11-.06 2.2.07 6.28.23a42.53 42.53 0 0 0 6.52-.16 2.8 2.8 0 0 1 0 .79 41.73 41.73 0 0 1 -8 .43c-4.83 0-4.55 0-4.79-.16s-.24-1.02-.01-1.13z" fill="#604f58"/><path d="m15.54 30.79c.23-.06 8.87-.39 9-.15s.35.55-.08.7-8.75.71-8.83.44-.52-.87-.09-.99z" fill="#604f58"/><path d="m34.3 20.51c.18 0 5.46 0 5.5.12s.08.55-.12.66a34 34 0 0 1 -5.34 0c-.15-.11-.15-.78-.04-.78z" fill="#604f58"/><path d="m26.3 10.65a53 53 0 0 1 5.61.2c0 .2.12.86-.16.94a51 51 0 0 1 -5.53 0c-.28-.12-.22-1.21.08-1.14z" fill="#604f58"/></svg>