<svg height="64" viewBox="0 0 64 64" width="64" xmlns="http://www.w3.org/2000/svg"><path d="m31.29 58.05c-11.62-.05-14.29-3.39-14.8-4.41a5.11 5.11 0 0 1 -.49-1.64c-1.78-.82-4.85-2.82-7.87-7.59a31.49 31.49 0 0 1 -4.43-9.59c-1.24-.63-3.01-1.82-3.52-3.43a4 4 0 0 1 .53-3.39 4.85 4.85 0 0 1 3.75-2h4.54.11a5 5 0 0 1 -.09-.56c0-.28-.05-.51-.07-.7-1.22-.81-2.72-2-3.15-3.26a4.58 4.58 0 0 1 .3-4.08 3.69 3.69 0 0 1 3.05-1.58c1.31-.07 4.84-.1 7.47-.11 0 0 0-.08 0-.12l-.21-.6a8.42 8.42 0 0 1 -3.41-2.82 3.73 3.73 0 0 1 -.61-3.86 3.71 3.71 0 0 1 3.29-2c1.39-.14 6.66-.24 16.09-.28h4.57 7.34a20.5 20.5 0 0 1 3.75.11 3.49 3.49 0 0 1 2.37 1.8 3.29 3.29 0 0 1 -.08 2.93c-.72 1.53-2.85 3-4 3.64l-.5 1c2.82-.06 6.55-.15 7.43-.15 3 0 4.11 1.76 4.11 3.41a5.8 5.8 0 0 1 -2 4.18 6.68 6.68 0 0 1 -1 .78 12.15 12.15 0 0 1 -.8 1.85c3.33 0 6.81.1 7.51.25a4.61 4.61 0 0 1 3 2 4.1 4.1 0 0 1 .43 3.32c-.55 2.11-3.14 3.74-4.76 4.57a22.24 22.24 0 0 1 -5 9.91 29.38 29.38 0 0 1 -7.49 6.47 5.06 5.06 0 0 1 -.65 2.62c-1 1.53-5.35 3.33-14.46 3.33z" fill="#fff"/><path d="m12.3 27.92a5.26 5.26 0 0 1 -1.3-2.7c-.15-1.51-.19-1.67-.19-1.67s-2.74-1.62-3.13-2.74-.5-3 1.62-3.09 10.5-.11 10.5-.11a24.49 24.49 0 0 1 -1.35-2.7 6.88 6.88 0 0 1 -.38-1.39 6.88 6.88 0 0 1 -3.44-2.44c-1.23-1.81-.27-2.7 1.28-2.85s8.48-.23 15.89-.23 14.72-.16 15.2 0a1.3 1.3 0 0 1 1 2c-.65 1.39-3.74 3.09-3.74 3.09l-1.51 3.13a4.76 4.76 0 0 1 -.75 1.27s9.27-.23 10.69-.23 2.17.46 2.17 1.47a4.27 4.27 0 0 1 -2.71 3.59 10.27 10.27 0 0 1 -1.31 3 22.4 22.4 0 0 1 -1.7 2.16s10 0 10.93.24a2.29 2.29 0 0 1 1.93 2.9c-.5 1.93-4.63 3.75-4.63 3.75a19.27 19.27 0 0 1 -4.71 10c-4.33 5.06-7.92 6.52-7.92 6.52a11.93 11.93 0 0 1 -.31 2.82c-.27.43-3.36 2.47-13.09 2.44s-12.62-2.48-13.09-3.36a4.28 4.28 0 0 1 -.31-2.13s-4-.81-8.14-7.26-4.33-9.88-4.33-9.88-2.97-1.2-3.47-2.71.84-2.81 2.54-2.81 7.76-.08 7.76-.08z" fill="#604f58"/><path d="m59.68 29.46c-.46-.07-7.1-.19-24.13 0s-31.43.31-31.43.31c.11 1.23 2.74 1.89 2.93 2.23a28.13 28.13 0 0 0 1.51 5c1.08 2.23 4.36 8.1 7.44 10.3a14.41 14.41 0 0 0 6.8 2.24 3.89 3.89 0 0 1 0 1.16c-.08.27-.35.39-1.16.42a18.36 18.36 0 0 1 -2.55-.23 5.4 5.4 0 0 0 .08 1c.07.23.81 1.27 5.09 2.12a62.53 62.53 0 0 0 14 .66 12.43 12.43 0 0 0 5.25-2 2.66 2.66 0 0 0 .2-1c0-.24-1.55-.08-1.78-.2s-.12-.65-.15-1.08c0-.08.07-.17.19-.27-.69-.92-2.49-3.36-2.4-3.71s.39-.73.66-.54a28.35 28.35 0 0 1 2.59 3.73l1-.51c-.74-.9-2.43-3-2.25-3.26s.43-.38.74-.27a19.17 19.17 0 0 1 2.31 3.13l.71-.37a31.47 31.47 0 0 1 -2.56-4.07c.08-.31.35-.65.69-.58a17.59 17.59 0 0 1 2.8 4.14c.31-.18.6-.37.89-.56a33 33 0 0 1 -2.76-4.2c0-.42.46-.84.77-.69a30.65 30.65 0 0 1 2.84 4.25c.22-.18.45-.37.67-.58a44.66 44.66 0 0 1 -2.59-4.48.87.87 0 0 1 .7-.7c.27 0 2.27 3.33 2.72 4.35.26-.27.52-.56.79-.88-.67-.93-2.42-3.36-2.36-3.7a.67.67 0 0 1 .7-.58 15 15 0 0 1 2.46 3.31l.8-1a16 16 0 0 1 -2.14-2.93.63.63 0 0 1 .66-.54 16 16 0 0 1 2.07 2.68c.27-.38.52-.79.76-1.2-.52-.56-1.68-1.83-1.56-2.13a.6.6 0 0 1 .73-.43c.26 0 1 .85 1.41 1.45a27.64 27.64 0 0 0 2.11-6.58c0-.12.69-.2 1.5-.5s2.74-1.32 2.86-1.7a.83.83 0 0 0 -.61-1.01z" fill="#83a7d8"/><path d="m53 19.15c-.15-.19-1.47 0-15.87.16s-26.87 0-27.14 0-.62.11-.47.65 2.13 1.62 2.36 2a8.2 8.2 0 0 1 .69 2.63 8.31 8.31 0 0 0 2 3.4s4.56-.2 11-.27c4-.05 10.92-.16 15.75-.26-.39-.61-1.26-2-1.08-2.22s.5-.61.81-.34a10.58 10.58 0 0 1 1.44 2.54h1.11c-.51-.78-1.73-2.65-1.7-2.75s.54-.69.85-.5a15.8 15.8 0 0 1 1.9 3.22h1c-.56-.93-2-3.34-1.87-3.65a.55.55 0 0 1 .81-.39 18.59 18.59 0 0 1 2.08 3.95 4.18 4.18 0 0 0 .77-.78c-.56-1-1.92-3.36-1.92-3.51s.27-.82.61-.62a18 18 0 0 1 1.93 3.38l.76-1c-.46-.7-1.36-2.15-1.22-2.44s.43-.5.7-.46a6.79 6.79 0 0 1 1.22 1.95c.83-1.25.68-2.19.94-2.26a20.69 20.69 0 0 0 2.12-1.39c.42-.26.58-.84.42-1.04z" fill="#adceea"/><path d="m33.19 9.58c-7.56 0-16.52.27-16.87.42s0 .27.66.77 2.47 1.24 2.51 1.36.19.73.65 2.35a7.86 7.86 0 0 0 2 3l14.57.13a7.17 7.17 0 0 1 -1.17-1.9.47.47 0 0 1 .58-.47 7.36 7.36 0 0 1 1.7 2.38h1a11.7 11.7 0 0 1 -1.8-2.7c0-.58.19-.65.5-.58a13.19 13.19 0 0 1 1.93 3.29s.12.07.78-1a24.67 24.67 0 0 1 -1.9-2.63.75.75 0 0 1 .69-.54 8.86 8.86 0 0 1 1.62 2.3c.97-1.76 1.94-3.76 1.94-3.76a14.44 14.44 0 0 0 1.81-.81c.93-.5 1.78-1.24 1.7-1.47s-5.33-.18-12.9-.14z" fill="#ddeff2"/><g fill="#604f58"><path d="m9.91 33.32c.07-.54 1.08-.77 1.24-.42a10.79 10.79 0 0 0 1.54 4.75c1.66 3 2.47 3.86 2.28 4.25s-.74.69-.89.58a34 34 0 0 1 -3.32-5.33c-1.12-2.36-.89-3.52-.85-3.83z"/><path d="m22 32.17c.22-.18 13.52-.39 13.6-.2s.31.85 0 1.05-13.48.46-13.63.23a1.17 1.17 0 0 1 .03-1.08z"/><path d="m25.28 50.31c.2-.12 1.74.16 7.68.2s7.38 0 7.45.19.08.66-.11.77-4.64.16-8.3.2a35.09 35.09 0 0 1 -6.68-.35c-.2-.16-.24-.89-.04-1.01z"/><path d="m16.24 26.88a11.77 11.77 0 0 1 -1.58-2.82c-.31-1.12-.54-2-.12-2.4s.74-.34.89-.19a25.31 25.31 0 0 0 .7 2.93c.54 1.28.85 1.59.85 1.82s-.58.78-.74.66z"/><path d="m29.83 21.05c.16 0 9.31-.2 9.46.07s.27.85 0 .93-9.23.39-9.46.23-.34-1.2 0-1.23z"/><path d="m22.65 15.76a8.41 8.41 0 0 1 -.89-2.82c0-1.2.12-1.32.43-1.39s.66-.12.69 0a5.92 5.92 0 0 0 .27 2.27c.43 1 .74 1.47.7 1.7s-1.08.35-1.2.24z"/><path d="m28.06 11.28c.3-.18 5.87-.24 5.91 0s0 .77-.08.81-5.45.19-5.68.11-.42-.77-.15-.92z"/></g></svg>