<svg height="64" viewBox="0 0 64 64" width="64" xmlns="http://www.w3.org/2000/svg"><path d="m35.84 64c-1.9 0-11.42 0-12.6-.13-2-.2-5-1.86-5.43-4.34 0-.26-.08-.49-.11-.7a32.48 32.48 0 0 1 -9.56-6.68c-4.58-4.66-6.99-8.76-7.14-12.15-.35-5.76 2.36-6.6 3.6-6.7a18.41 18.41 0 0 1 -1.49-3.46c-1.34-5.05 1.32-6.36 2.17-6.64.45-.15 1.07-.32 1.73-.49a11.92 11.92 0 0 1 -1.72-4.58c-.21-1.34-1.19-8.13.59-10.5a2.55 2.55 0 0 1 1.76-1h.46c1.19 0 4.39.36 7 .67-.36-1.11-1-3.33 1.14-4.33.74-.34 2.3-.6 15.94-2 6.25-.66 10.17-.97 12.03-.97a6.26 6.26 0 0 1 1.42.12 2.24 2.24 0 0 1 1.37 1.09c.83 1.47.55 4.74 0 6.43a10.12 10.12 0 0 1 -1 2.36c2.27.19 5 .43 6 .62 2 .38 3.29 1.25 3.73 2.59a20.17 20.17 0 0 1 3.44-.59 3.26 3.26 0 0 1 .5 0c2.75.52 2.52 3.81 2.39 5.58-.1 1.36-.71 8.33-3.24 12.83-.38.67-.76 1.27-1.12 1.8a10.38 10.38 0 0 1 2.28.17c2.16.51 3.56 3.83 3 7.11s-3.65 9.79-8 13.76a30.7 30.7 0 0 1 -7.29 4.91 4.83 4.83 0 0 1 -.52 2.22c-.87 1.72-3.92 3-5.57 3-.54 0-3.44 0-5.76 0z" fill="#fff"/><path d="m7.89 35.15a31.07 31.07 0 0 1 -2.89-5.81c-.55-2-.46-3.85.9-4.3s4.76-1.18 4.76-1.18a9 9 0 0 1 -3.44-6c-.68-4.27-.64-9.16.63-9.3s10.92 1.11 10.92 1.11a12.09 12.09 0 0 1 -1.77-2.95c-.41-1.27-.5-1.77.09-2s5.49-.82 15.33-1.82 12.19-1 12.74-.86.63 3.13 0 5.08a16.21 16.21 0 0 1 -2.9 4.53s7.57.55 9.3.87 2.26.9 2.31 1.72a4.22 4.22 0 0 1 -.18 1.45s4.8-1.27 5.53-1.13 1 1 .82 3.53-1 8.39-3 12-3.9 4.67-3.9 4.67 5.53-.05 6.31.13 2 2.23 1.54 4.9-3.27 8.89-7.44 12.65a26.68 26.68 0 0 1 -8.07 5.13 4.83 4.83 0 0 1 -.09 2.53c-.39.9-2.68 1.9-3.86 1.9s-16.78 0-18.09-.09-3.44-1.28-3.72-2.69a8.53 8.53 0 0 1 -.18-1.72 29.78 29.78 0 0 1 -10-6.71c-4.74-4.79-6.54-8.43-6.64-10.93s.32-4.53 1.86-4.62 3.13-.09 3.13-.09z" fill="#604f58"/><path d="m13.06 23s-3.59-2.54-3.81-5.89-.23-6.17.09-6.22 16.19 1.55 28.29 2.63 13.83 1.14 13.88 1.36a2.7 2.7 0 0 1 -.73 1.41c-.36.32-15.46 3.17-25.35 4.94s-12.37 1.77-12.37 1.77z" fill="#ddeff2"/><path d="m51.42 45.48c0-.31.36-.86.58-.81a29.66 29.66 0 0 1 3 3 14.28 14.28 0 0 0 1-1.38c-.92-.84-3-2.78-3-3.28a.71.71 0 0 1 .82-.72 22.32 22.32 0 0 1 2.79 3 14.65 14.65 0 0 0 2.1-7.91c-.18-.32-11.38-.27-24.89-.09s-27.82-.08-28.02.26c-1.63 2.31 1.86 8 5.53 11.61a30.71 30.71 0 0 0 22.67 8.75 29.89 29.89 0 0 0 10.9-2.12 24.24 24.24 0 0 1 -2.42-3.46c.09-.27.5-.91.9-.63a23.5 23.5 0 0 1 2.62 3.55c.35-.18.7-.38 1-.58a27.85 27.85 0 0 1 -2.61-3.52c.09-.22.68-.72 1-.59a20.61 20.61 0 0 1 2.61 3.5l1.07-.77c-.75-.8-2.68-2.88-2.61-3.14s.5-.77.86-.72a14.55 14.55 0 0 1 2.75 3c.3-.25.59-.51.89-.78a30.16 30.16 0 0 1 -2.68-2.91c-.09-.31.45-.68.81-.72s2.1 2 2.68 2.88l.74-.71a39.65 39.65 0 0 1 -2.77-3.19c0-.23.45-.91.86-.82a16.06 16.06 0 0 1 2.87 3.1l.26-.24c.2-.2.37-.4.56-.6a23.13 23.13 0 0 1 -2.87-2.96z" fill="#83a7d8"/><path d="m53.59 25.22c0-.5.41-1 .73-1a7.37 7.37 0 0 1 2.1 1.54 30.74 30.74 0 0 0 1.43-8.52c-.13-.23-6.3 1.31-17.18 3.53s-33.1 6.12-33.46 6.23 0 1.32.5 2.86a28 28 0 0 0 3.13 4.85c.32 0 24.59 0 34.62-.05-.83-.84-2.38-2.46-2.25-2.76s.5-.68.81-.64a23.18 23.18 0 0 1 3.41 3.38h1.54c-1.08-1-3.3-3.21-3.27-3.62s.68-.91 1-.72a40.16 40.16 0 0 1 3.68 3.85l.83-.71a31.92 31.92 0 0 1 -3.21-3.51c0-.31.64-.77 1-.63a32.73 32.73 0 0 1 3.15 3.25c.3-.31.62-.64.93-1-1-1-3.2-3.18-3.13-3.42s.77-.68 1-.45a35.13 35.13 0 0 1 2.87 2.92c.23-.3.46-.6.68-.92-1-.75-2.95-2.29-2.91-2.59s.5-.73.77-.59 1.84 1.5 2.72 2.27c.21-.36.42-.73.6-1.1l.11-.27c-.68-.55-2.2-1.8-2.2-2.18z" fill="#f39a9b"/><path d="m36.91 9.17c.22-.32.4-.59.68-.55a17.19 17.19 0 0 1 2.64 2.19c.18-.17.39-.37.62-.63a16.89 16.89 0 0 1 -2.45-2.24c0-.27.41-.68.64-.59a19.64 19.64 0 0 1 2.57 1.89l.06-.07c.18-.25.35-.53.52-.82a7.78 7.78 0 0 1 -2-1.5c-.14-.4.18-.68.59-.72a5.7 5.7 0 0 1 1.94 1 7.45 7.45 0 0 0 .82-3.09c-.23-.18-2.76.27-9.79.86s-14 1.27-14.24 1.36 0 1 .36 1.5 2 2.22 2 2.22 14.66 1.27 17.07 1.43c-.84-.71-2.19-2.02-2.03-2.24z" fill="#f6c687"/><path d="m21.44 58.09a15 15 0 0 0 5.81 1.68 75.39 75.39 0 0 0 12.88-.23 18.06 18.06 0 0 0 4.35-1.27c.13.09.09.77-.09 1.13s-.91 1.45-4.45 1.64-14.51.18-16-.23a5.13 5.13 0 0 1 -2.54-1.5c-.14-.31-.18-1.13.04-1.22z" fill="#83a7d8"/><g fill="#604f58"><path d="m10.93 13.66c.22-.1 1.31-.32 1.4-.05a13.73 13.73 0 0 0 .45 3.58 12.6 12.6 0 0 0 1.09 2.45c0 .27-.72.5-1.18.23a6.61 6.61 0 0 1 -1.45-3 13.59 13.59 0 0 1 -.31-3.21z"/><path d="m18.09 14.2c.13-.06 8.61.77 8.66.91a3 3 0 0 1 -.14 1.31 82.37 82.37 0 0 1 -8.7-.82c-.23-.22 0-1.31.18-1.4z"/><path d="m27.84 7.4s3.35-.36 3.4-.05.18.46 0 .68a16.8 16.8 0 0 1 -3.24.28s-.48-.82-.16-.91z"/><path d="m10.52 29.43s1-.81 1.31-.72.68 1.29 1.36 2.29.91 1.13.86 1.32a1.82 1.82 0 0 1 -1.27.68 10.72 10.72 0 0 1 -2.26-3.57z"/><path d="m34.28 24.76c.44-.62 12.51-3.31 12.74-3s.54.91.22 1.13-12.33 3.55-12.74 3.37-.45-1.18-.22-1.5z"/><path d="m8 39.45c.08-.14 1-.4 1.13-.09a6.59 6.59 0 0 0 1.73 4.22c1.85 2.22 2.53 2.31 2.49 2.58s0 .28-.23.37a9 9 0 0 1 -3.85-3.09 5.8 5.8 0 0 1 -1.27-3.99z"/><path d="m26.89 39.59c.37-.25 12.51-.27 12.69 0a2.08 2.08 0 0 1 .18 1.13c0 .19-12.69.64-13.06.32s-.09-1.27.19-1.45z"/></g></svg>