<svg height="64" viewBox="0 0 64 64" width="64" xmlns="http://www.w3.org/2000/svg"><path d="m36 60.21c-.15 0-15.24 0-16.29-.17-1.91-.3-3.48-3.39-4.17-5.44a21.67 21.67 0 0 1 -10.72-9.6c-5.05-8.58-4.88-15.32-4.82-16.59.19-2.82 1.88-4.5 3.46-4.71a10.85 10.85 0 0 1 1.58-.05h2.49a17.4 17.4 0 0 1 -1-4 6.72 6.72 0 0 1 1.27-5 4 4 0 0 1 2.62-1.61h1.14c1.07 0 2.79 0 4.36.07a9.28 9.28 0 0 1 -.81-2.45 7.73 7.73 0 0 1 1.15-5.54 2.7 2.7 0 0 1 1.79-1.12c.75-.11 17.19-.16 21.16-.16 6 0 6.26 0 6.51.09 1.57.29 3.13 1.86 2.85 4.6a25.11 25.11 0 0 1 -1.28 4.73h3.05a18.63 18.63 0 0 1 4 .16c2.42.6 2.11 3.91 1.83 6.82v.28a16 16 0 0 1 -1.7 4.36h5.07 1.21a3 3 0 0 1 2.25 1.12c.67.82 1.35 2.36.8 5.1-.68 3.33-3.91 11.19-6.65 16.19-2.19 4-5 6.52-8.27 7.49l-.59.18c-.62 1.75-1.52 3.63-2.69 4.33-1.37.83-3.48.87-5.34.9h-.61c-.41.02-1.81.02-3.65.02z" fill="#fff"/><path d="m17.09 53.08s-6.09-1.44-10.59-9.02-4.67-13.65-4.5-15.52 1.15-2.84 1.78-2.92 6.83 0 6.83 0a21 21 0 0 1 -2.12-6.19c-.38-2.84 1.31-4.32 2.12-4.43s8.9.13 8.9.13a12.37 12.37 0 0 1 -2.51-4.77c-.38-2.29.72-4.41 1.31-4.49s26.37-.22 27-.09 1.45.85 1.28 2.5a37.28 37.28 0 0 1 -1.59 5.56 5.14 5.14 0 0 1 -.77 1.35s8.78-.17 9.62 0 .47 3.65.34 5.05-3 6.44-3 6.44 9 .09 9.5 0 1.82.81 1.19 3.94-3.82 10.86-6.45 15.65-5.55 6.1-7.12 6.57l-1.57.46s-1.1 3.6-2.16 4.24-3.39.59-5 .64-18.82 0-19.62-.13-2.49-2.97-2.87-4.97z" fill="#604f58"/><path d="m4.55 28.29c.46-.13 15 0 33.27.25s22 .34 22.08.6a51.6 51.6 0 0 1 -5.34 14.62c-3.39 5.59-5.17 7.37-10.47 8.05s-5.68.68-5.93 1-.59 1.48-.26 1.78 2 .21 4 .08a17.64 17.64 0 0 0 3.09-.42s-.85 2.08-1.61 2.42-10.85.25-15.68.29-6.53-.21-7-.59a6.69 6.69 0 0 1 -1.4-2.71 17.51 17.51 0 0 1 2.72.25c.93 0 .89-1.19.93-1.65s-4.71-.17-8.86-3.35a19 19 0 0 1 -5.64-6.53 12.36 12.36 0 0 0 2.75 1.62c.93.21.93-.08.93-.08s.81 2 3.4.84 1.56-4.4 1.56-4.4 1.7-.26 1.49-2.59-1.87-1.77-1.87-1.77a2.57 2.57 0 0 0 -.93-3.14c-1.78-1.22-2.46.26-2.46.26s.13-2.38-2.16-2.21a3.23 3.23 0 0 0 -2.93 3.09 5.29 5.29 0 0 0 .22 1.48 1.26 1.26 0 0 0 -1 1.53c.13 1.4.47 1.57.47 1.57a9.39 9.39 0 0 0 -.05 2.54s-.72-.17-2-4a31.24 31.24 0 0 1 -1.32-8.83z" fill="#ef7d7b"/><g fill="#f9f2ed"><path d="m9 36.17s.64 1.06 1.19 1.27l.68.26a4.11 4.11 0 0 0 .25 2.54c.59.81 1 .85 1 .85a3.88 3.88 0 0 1 -.29 1.61.93.93 0 0 1 -.64.34 7.32 7.32 0 0 1 -2-1.4 1.89 1.89 0 0 1 -.55-1.74s1.35.21 1.65-.12 0-1.06 0-1.06-1.48 0-2-.81a1.25 1.25 0 0 1 .71-1.74z"/><path d="m11 32.06a1.62 1.62 0 0 1 1.78 1.78 18.71 18.71 0 0 1 -.21 2.08 1.2 1.2 0 0 0 -1.11 0 1.89 1.89 0 0 0 -.67.76s-1.36-.8-1.45-1.86 0-2.42 1.66-2.76z"/><path d="m13.15 36.26s0-3 1.61-2.72 1.44 2.25.89 3-.8 1-.76 1.11.34.59.59.42 1.15-1.4 1.91-1.06.34 1.78-.21 2.37a2.35 2.35 0 0 1 -1.61.56s-.09.84.08.89.64.08.77.29.29 2.12-1 2.55-2.21.29-2.46-.13a4.82 4.82 0 0 1 0-1.95s1.91 0 1.7-2.29-1.21-2.75-1.51-3.04z"/></g><path d="m12.09 37.19c.58-.3 1.78.93 1.91 2.29s-1.31 1.4-1.91.51-.89-2.33 0-2.8z" fill="#f6c687"/><path d="m26.38 37.32s-2.21-2.29-1-3.94a2.85 2.85 0 0 1 4.24-.64 3.9 3.9 0 0 1 3.26-1.82c2.12.08 2.12 2.37 2.12 2.37s2.08-2.08 3.44-.47a4.54 4.54 0 0 1 .29 5 3.77 3.77 0 0 1 -1.06 1 2.86 2.86 0 0 1 1.06 3.43c-.72 2.42-3.6 1.87-3.6 1.87s.13 2.54-3.73 2.62-3.22-3.13-3.22-3.13a3.75 3.75 0 0 1 -3.43-1.78c-1.13-2.05-.11-4.22 1.63-4.51z" fill="#604f58"/><path d="m26.63 33.46c.59-.83 2.63 0 2.63 0a8.35 8.35 0 0 0 1 2c.51.64.51.89.51.89a5.17 5.17 0 0 0 -1.1.85 2.12 2.12 0 0 0 -.34.51l-1.4-.21a4.75 4.75 0 0 1 -1.52-2.38 1.58 1.58 0 0 1 .22-1.66z" fill="#f9f2ed"/><path d="m30.4 33.38s1.19-1.78 2.6-1.32a1.93 1.93 0 0 1 1.4 1.74 5.63 5.63 0 0 0 -.68 1.48 3.11 3.11 0 0 1 -.21.77 5 5 0 0 0 -1.32-.17c-.46 0-.76 0-.76 0a9.14 9.14 0 0 0 -1.03-2.5z" fill="#f9f2ed"/><path d="m34.51 36.55s.26-2.84 2-3 2.37 1.7 1.48 3.35a3.69 3.69 0 0 1 -1.91 1.82c-.08.17 0 .64.09.68a1.9 1.9 0 0 1 1.53 2 2 2 0 0 1 -2.12 1.87c-.64 0-.43.17-.64 0s-.72-.93-1-.89-.51.42-.39.59.72 1.49.17 2.08a3.38 3.38 0 0 1 -3.39.38 2.24 2.24 0 0 1 -1.23-2 1.84 1.84 0 0 1 .64-.64c.47-.3.51-.42.51-.42s3.18.89 4.41-1.32.74-3.73-.15-4.5z" fill="#f9f2ed"/><path d="m31.72 36.81c1.21-.43 2.75.89 2.79 2.41s-2.62 3.1-4.06 1.91-.77-3.6 1.27-4.32z" fill="#f6c687"/><path d="m26.76 38.12a2.25 2.25 0 0 0 1.18.51l1.11.17a2.35 2.35 0 0 0 -.05 1.53 2.54 2.54 0 0 0 .59 1.31s-1.56 1.53-2.79.55-2.2-3.05-.04-4.07z" fill="#f9f2ed"/><path d="m46.55 40.37s-1.31 0-1.06-2.12 1.32-3.94 2.42-4.24a1.87 1.87 0 0 1 1.82.51s.93-2.46 3-2.46 1.78 2.5 1.78 2.5a2 2 0 0 1 2 1.4 5.36 5.36 0 0 1 -1.19 4.37 5.58 5.58 0 0 1 -1.73.89s.46 3.09-.85 4.19-3.1.21-3.31.13a1.28 1.28 0 0 1 -.43-.34s-2 1.19-3-.3 0-4.15.55-4.53z" fill="#604f58"/><path d="m48 35a1.39 1.39 0 0 1 1.19.25 5.92 5.92 0 0 0 .21 1.53c.21.63.47.67.42.8a4.42 4.42 0 0 1 -.93 1.1 3.27 3.27 0 0 0 -1.4.17l-.8.47a3.21 3.21 0 0 1 .17-2.5c.58-1.54 1.14-1.82 1.14-1.82z" fill="#f9f2ed"/><path d="m47.19 41c.17-.35 1.1-.68 1.1-.68a1.18 1.18 0 0 0 .21 1 1.93 1.93 0 0 0 .68.68s.17 1.57-.51 2.12-1.36.85-1.86-.17a3.63 3.63 0 0 1 .38-2.95z" fill="#f9f2ed"/><path d="m50.49 37.61c.88-.67 1.7-.59 1.74-.21s0 2.46-.76 3.18-1.49.85-1.87.47-.21-2.59.89-3.44z" fill="#f6c687"/><path d="m50.54 42.32a1.8 1.8 0 0 0 1.1-.43 3.44 3.44 0 0 0 .68-.84s.42 0 .42.12a8.5 8.5 0 0 1 -.42 3 1.32 1.32 0 0 1 -1.57.77c-.43-.09-.68-1-.68-1a10.21 10.21 0 0 0 .47-1.62z" fill="#f9f2ed"/><path d="m52.7 39.82a4.37 4.37 0 0 0 .63-1.74 3 3 0 0 0 -.08-1.14s1.06-1.66 2-1.28.64 2.5.09 3.27a2.27 2.27 0 0 1 -2.64.89z" fill="#f9f2ed"/><path d="m50.58 36.13a2.64 2.64 0 0 1 .8-2.63c1.23-.85 2.17-.42 2.29.17a2.26 2.26 0 0 1 0 1.1 3.43 3.43 0 0 0 -1 .85 3.63 3.63 0 0 0 -.34.68 3.57 3.57 0 0 0 -1.75-.17z" fill="#f9f2ed"/><path d="m11.41 21.38s-1.52-3.69-.12-4.07 24.62-.08 32.25-.17 9.07-.13 9.12.09a14.84 14.84 0 0 1 -.73 3.39c-.21.12-.84-1.53-1.82-1.4a4.23 4.23 0 0 0 -1.65.59 2.53 2.53 0 0 0 -3-.34 2.21 2.21 0 0 0 -1.19 2.8 2 2 0 0 0 -2 1.95c-.09 1.91 2.41 2.37 2.41 2.37l-8-.12s2.2-.68 1.35-3.35-2.84-1.12-2.84-1.12.81-2.25-1.14-2.21a3.68 3.68 0 0 0 -2.88 1.4s0-1.36-2.25-.72a3.15 3.15 0 0 0 -2.37 2.71s-2.55-.08-2.72 1.27a1.87 1.87 0 0 0 1.27 1.87h-5.68s2.72-1.23 2.51-3.39a2 2 0 0 0 -2.12-2 1.9 1.9 0 0 0 -1.49-2.25c-1.86-.47-3.43 1.61-3.43 1.61a2.12 2.12 0 0 0 -2-.68c-1.05.33-1.48 1.77-1.48 1.77z" fill="#f39a9b"/><path d="m12.77 20.87c.61-.45 1.36.17 1.61.64a4.47 4.47 0 0 1 .38.89s.21 1.06 0 1.18a2.91 2.91 0 0 1 -1.82-.17c-.25-.25-.94-1.95-.17-2.54z" fill="#f9f2ed"/><path d="m13.32 24.6h1.36a2.39 2.39 0 0 0 .8.81c.55.34.81.38.81.59s.29.47-.09.51a10.09 10.09 0 0 1 -2.84-.26c-.25-.25-.04-1.65-.04-1.65z" fill="#f9f2ed"/><path d="m15.61 21.68a1.39 1.39 0 0 1 1.1-1.91c1.66-.3 2.33.38 2.42 1s-.93 1.11-.6 1.49.73.42.85.25.64-.8 1.23-.46.76.93 0 1.95a4.19 4.19 0 0 1 -1.65 1.31s.42-2.63-1.28-3.48-2.07-.15-2.07-.15z" fill="#f9f2ed"/><path d="m16 22.69a1.44 1.44 0 0 1 2 1.19c.17 1.31-1 1.78-1.69 1.1s-1.12-1.86-.31-2.29z" fill="#f6c687"/><path d="m26.46 26.08s-1.65-1-1.31-1.48.59-.76 1-.59.85.55 1 .46.34-.46.34-.46a1.72 1.72 0 0 1 .51-2.01c1-.81 2-.89 2.29-.56s.08 1.23.38 1.45.72.38.85.21-.17-1.95 1.61-2.16 1.69 1.23 1.48 1.69-.3.81-.08.93a.74.74 0 0 0 .51.05s1-1.11 1.86-.55-.21 2-.64 2.45l-.72.72h-2.58s.08-2-1.7-2.07-2.07 2.11-2.07 2.11z" fill="#f9f2ed"/><path d="m30.32 26.13s-.09-.89.93-.81.89.89.89.89z" fill="#f6c687"/><path d="m43.63 25.15c-.16-.19-1.19-2 0-1.82s1.23.42 1.53.3.5-.77.5-.77a1.23 1.23 0 0 1 -.55-1.48c.3-1.06.81-1.44 1.74-1.27s1 1.1.68 1.35-1 .09-1.1 1.06a12.71 12.71 0 0 0 -.09 1.48 3.37 3.37 0 0 0 -1 .89c-.16.38 0 .51-.25.55s-1.21.01-1.46-.29z" fill="#f9f2ed"/><path d="m49.69 20.07c-1.23.08-1.27 1.61-1.27 1.61a4.87 4.87 0 0 1 .17.93s0 .09 0 .13l.78.26a2.3 2.3 0 0 1 .47-.05 2 2 0 0 0 1.16-.95 1.35 1.35 0 0 0 -1.31-1.93z" fill="#f9f2ed"/><path d="m49.31 23.75c-.05 0-.07-.06-.09-.12l-1-.12a1.59 1.59 0 0 1 -.64.5 5.08 5.08 0 0 0 -1 .59 1.19 1.19 0 0 0 -.29 1.87 19.29 19.29 0 0 0 2.16 0 1.68 1.68 0 0 0 1.48-1.31 1 1 0 0 0 -.62-1.41z" fill="#f6c687"/><path d="m19.38 10.15a2 2 0 0 1 1.95-1.06c1.19.17 1.19.59 1.15 1s-.09.67-.26.72a4 4 0 0 0 -1.86.08c-.68.34-.81.42-.81.42a2.75 2.75 0 0 1 -.17-1.16z" fill="#f9f2ed"/><path d="m19 9.34s-.38-1.18 0-1.34 7.93 0 15.26 0 10.3-.26 10.47-.13 0 .85-.09.89a7.59 7.59 0 0 0 -2 0 2.32 2.32 0 0 0 -.93.76s-.47-.5-1.65 0a2.92 2.92 0 0 0 -1.7 2.72 2.26 2.26 0 0 0 .38.8s-1 .51-.63 1.32a4.43 4.43 0 0 0 .63 1.06l-4-.13s2.26-1.29 1.68-3.49a2.11 2.11 0 0 0 -2.88-1.61 4.93 4.93 0 0 0 -1.36.89s-.29-1.14-1.95-.68-1.78 1.32-1.78 1.32-1.4-.51-2 .12a5 5 0 0 0 -.64 3.22 1.5 1.5 0 0 0 .34.51h-2.5s2.46-1.61 2.08-3.69a1.91 1.91 0 0 0 -2.46-1.52 1.59 1.59 0 0 0 -1.35-2.08 3.28 3.28 0 0 0 -2.92 1.06z" fill="#f7babe"/><path d="m28.24 15.4a1.32 1.32 0 0 1 -1.48-1.1c-.26-1.27-.77-1.78.38-1.78s1.52.3 1.57.68-.05 1.23-.05 1.61a.76.76 0 0 1 -.42.59z" fill="#f9f2ed"/><path d="m29.77 14.26c.36-.21 1.44-.13 1.61.51s.17.68-.17.72a11 11 0 0 1 -1.44-.09s-.51-.84 0-1.14z" fill="#f6c687"/><path d="m29.51 12.86s-.76-1.74.85-1.78 1.74 1.14 1.23 1.65-.55.47-.85.47-1.1.08-1.23-.34z" fill="#f9f2ed"/><path d="m31.93 13.58c-.17-.13.93-2.5 2.33-2.41a1.37 1.37 0 0 1 1.06 2.28 6.83 6.83 0 0 1 -2.37 2 1.12 1.12 0 0 1 -.77 0s.6-1.19-.25-1.87z" fill="#f9f2ed"/><path d="m39.09 11.8c0-.32.93-2 1.82-1.86s.6 1.31.6 1.31a.84.84 0 0 0 -.85.47c-.25.55 0 .72-.3.84s-1.36.22-1.27-.76z" fill="#f9f2ed"/><path d="m41.6 12c-.54.46-.66.87.13 1s1.61-.13 1.58-.45a.94.94 0 0 0 -.87-.71 1.2 1.2 0 0 0 -.84.16z" fill="#f6c687"/><path d="m43.75 9.38c-.75.08-1.19.19-1.39.73s.08 1 .67 1.31a.94.94 0 0 0 1.31-.51c.26-.48.39-1.34.24-1.45a2.71 2.71 0 0 0 -.83-.08z" fill="#f9f2ed"/><path d="m40.84 13.73s-1-.32-1.35-.16-1 1-.08 1.26 1.19-.16 1.72.16.86.35 1.14.16.75-1 .67-1.21a1 1 0 0 0 -.92-.45c-.42.05-1.02.26-1.18.24z" fill="#f9f2ed"/><path d="m19.81 12.06s.86-1.41 1.75-.49-.84 2.13-.84 2.13z" fill="#f6c687"/><path d="m21 14.17s.37-.79 1-.81.79-.11.82-.19-.65-1.38-.06-1.84 2.27-.4 1.82 1.13-1.12 2.72-1.86 2.9a1.77 1.77 0 0 1 -1.11 0z" fill="#f9f2ed"/></svg>