<svg height="64" viewBox="0 0 64 64" width="64" xmlns="http://www.w3.org/2000/svg"><path d="m36 48.07c-2 0-11.76 0-13-.13-2-.21-5.19-1.92-5.6-4.47 0-.27-.08-.51-.11-.72a33.37 33.37 0 0 1 -9.86-6.89c-4.73-4.8-7.21-9.02-7.43-12.54-.33-6 2.54-6.8 3.79-6.87 1.63-.1 3.27-.1 3.34-.1l46.65-.42h1.53c4.59 0 5.14.12 5.43.19 2.23.53 3.68 3.95 3.1 7.33s-3.75 10.09-8.29 14.18a31.12 31.12 0 0 1 -7.51 5 4.85 4.85 0 0 1 -.45 2.25c-.88 1.78-4 3-5.72 3.12-.54.07-3.53.07-5.87.07z" fill="#fff"/><path d="m7.16 18.35 46.66-.42s5.7-.05 6.5.14 2 2.29 1.58 5-3.36 9.16-7.66 13a27.25 27.25 0 0 1 -8.31 5.27 5.06 5.06 0 0 1 -.09 2.66c-.47.93-2.81 2-4 2s-17.3.1-18.66 0-3.6-1.36-3.83-2.81a8.87 8.87 0 0 1 -.19-1.77 30.66 30.66 0 0 1 -10.32-6.96c-4.84-4.95-6.68-8.68-6.84-11.25s.33-4.67 1.92-4.77 3.24-.09 3.24-.09z" fill="#604f58"/><path d="m52 29c0-.33.38-.89.61-.84a32.87 32.87 0 0 1 3.08 3.07 16.71 16.71 0 0 0 1.05-1.42c-1-.86-3.1-2.87-3.1-3.38a.74.74 0 0 1 .84-.75 24.71 24.71 0 0 1 2.88 3.11 15.19 15.19 0 0 0 2.16-8.15c-.18-.33-11.72-.28-25.64-.1s-28.62-.07-28.88.28c-1.68 2.39 1.92 8.27 5.7 12a31.58 31.58 0 0 0 23.3 8.98 30.77 30.77 0 0 0 11.23-2.18 25.38 25.38 0 0 1 -2.5-3.57c.1-.28.52-.93.94-.65a25.22 25.22 0 0 1 2.74 3.66c.37-.19.72-.39 1.07-.59a29.49 29.49 0 0 1 -2.69-3.63c.09-.24.7-.75 1-.61a21 21 0 0 1 2.65 3.6c.38-.25.75-.52 1.1-.79-.77-.83-2.75-3-2.68-3.23s.51-.79.89-.75a14.78 14.78 0 0 1 2.82 3.15c.31-.26.62-.53.92-.81a33.23 33.23 0 0 1 -2.76-3c-.09-.33.47-.7.84-.75s2.16 2.11 2.76 3l.76-.73a39.77 39.77 0 0 1 -2.87-3.31c0-.24.47-.94.89-.84a16.71 16.71 0 0 1 3 3.19 3.07 3.07 0 0 0 .26-.25c.21-.2.39-.41.58-.61a24.58 24.58 0 0 1 -2.95-3.1z" fill="#83a7d8"/><path d="m21.13 42a14.92 14.92 0 0 0 6 1.73 76.87 76.87 0 0 0 13.27-.23 18.47 18.47 0 0 0 4.48-1.31c.15.1.1.8-.09 1.17s-.93 1.49-4.58 1.68-14.94.19-16.44-.23a5.24 5.24 0 0 1 -2.61-1.54c-.22-.27-.27-1.19-.03-1.27z" fill="#83a7d8"/><g fill="#604f58"><path d="m7.25 22.79c.09-.15 1.08-.42 1.17-.1a6.75 6.75 0 0 0 1.78 4.31c1.91 2.29 2.61 2.38 2.56 2.66s0 .28-.23.37a9.2 9.2 0 0 1 -4-3.17 6 6 0 0 1 -1.28-4.07z"/><path d="m26.73 22.93c.39-.26 12.89-.28 13.08 0a2.21 2.21 0 0 1 .19 1.16c0 .19-13.08.66-13.46.33s-.09-1.31.19-1.49z"/></g></svg>