<svg height="64" viewBox="0 0 64 64" width="64" xmlns="http://www.w3.org/2000/svg"><path d="m18.25 48.06c-4.74 0-9.5-.27-12.25-2.15-4.15-2.85-6.22-5.6-6-12.73a14.85 14.85 0 0 1 7-11.64 14.85 14.85 0 0 1 8.24-2.76 17.27 17.27 0 0 1 3.15.34c1.05.19 1.79.34 2.3.45a20 20 0 0 1 10.56-3.57h.71a14.78 14.78 0 0 1 9 2.89 16.58 16.58 0 0 1 7.04-1.44 27.5 27.5 0 0 1 3.08.19c7.62.93 12.44 6.15 12.89 14 .4 6.81-2.4 12.44-7.3 14.7-2.95 1.35-11.07 1.63-23.21 1.63h-5.77c-1.48 0-3 0-4.47.07-1.69-.04-3.37.02-4.97.02z" fill="#fff"/><path d="m2 33.25a12.8 12.8 0 0 1 6-10.08c4.64-3 7.59-2.57 10-2.14s3.08.64 3.08.64a17.8 17.8 0 0 1 10.25-3.77 12.34 12.34 0 0 1 9.39 3.3s3.08-2.49 10.12-1.63 10.8 5.53 11.16 12.13-2.45 11.11-6.18 12.82-19.82 1.42-28.14 1.48-17 .77-20.58-1.67-5.36-4.57-5.1-11.08z" fill="#604f58"/><path d="m54.05 36.38c0-.39.6-.9.94-.73a30.29 30.29 0 0 1 3.69 3.61 9.23 9.23 0 0 0 .68-1.65 23.47 23.47 0 0 1 -3.08-3.08.6.6 0 0 1 .52-.68 13.17 13.17 0 0 1 3 2.13c.09-.58.17-1.17.21-1.77-.76-.43-2.25-1.3-2.22-1.52s.21-.86.43-.81a10.4 10.4 0 0 1 1.84.79c-.06-4.22-2.25-9.26-7.46-10.48-5.49-1.29-10.29.12-10.46.34s.08.34.94 1.28a20.11 20.11 0 0 1 2.06 3.43c.39.69-1 1.55-1.46 1.51s-.86-1-2.7-3.91-4.37-4.8-9.22-4.93a15.25 15.25 0 0 0 -8.66 2.75 21.29 21.29 0 0 1 2.4 1.41 6.43 6.43 0 0 1 2.4 2.87c.22.6-1.2 1.55-1.54 1.46s-.47-.9-3-3-6.52-3.17-11.88-1.11-6.62 5.25-6.94 8a9.77 9.77 0 0 0 4.67 10c3.22 1.93 5.83 1.5 10.76 1.46 3.35 0 15.65.1 24.68-.19a8.92 8.92 0 0 1 -1.4-2 1.73 1.73 0 0 1 1-.43 16 16 0 0 1 2 2.41l1.62-.07c-.8-.91-2.22-2.61-2.07-2.89s.52-.65 1-.43a15.79 15.79 0 0 1 2.68 3.23q1.2-.08 2.16-.18c-1-1-3.05-3.32-3-3.65a.79.79 0 0 1 .85-.6 27.36 27.36 0 0 1 3.57 4.05c.33-.06.63-.11.86-.17a7.61 7.61 0 0 0 1-.33c-.81-1-3.2-3.85-3.16-4.17a.76.76 0 0 1 .81-.6 32.83 32.83 0 0 1 3.71 4.1 6.53 6.53 0 0 0 1.64-1.44 40 40 0 0 1 -3.87-4.01z" fill="#f6c687"/><g fill="#604f58"><path d="m8.9 36.21c0-.22.69-1 1-.65s.6 2.06 2.23 2.79 2.31.6 2.18.86a3.61 3.61 0 0 1 -3.39-.21 4 4 0 0 1 -2.02-2.79z"/><path d="m10.27 26.82c.45-.24 1.51-.26 1.72.3s-.3 1.28-1.2 1.15-1.16-1.11-.52-1.45z"/><path d="m15.72 26.17c.44-.23 1.5-.25 1.71.3s-.3 1.29-1.2 1.16-1.15-1.11-.51-1.46z"/><path d="m12.5 29.86c.45-.24 1.5-.26 1.72.3s-.3 1.29-1.2 1.16-1.16-1.12-.52-1.46z"/><path d="m18.46 29.35c.45-.24 1.5-.26 1.72.3s-.3 1.28-1.2 1.15-1.16-1.11-.52-1.45z"/><path d="m29.83 21.93c.44-.24 1.5-.26 1.71.3s-.3 1.28-1.2 1.16-1.16-1.12-.51-1.46z"/><path d="m33.94 23.56c.44-.24 1.5-.26 1.72.3s-.3 1.28-1.2 1.15-1.16-1.11-.52-1.45z"/><path d="m48.61 23.69c.44-.24 1.5-.26 1.71.3s-.3 1.28-1.2 1.15-1.12-1.14-.51-1.45z"/><path d="m47 27c.44-.24 1.5-.26 1.71.3s-.3 1.29-1.2 1.16-1.18-1.09-.51-1.46z"/><path d="m52.38 25.4c.44-.23 1.5-.26 1.71.3s-.3 1.29-1.2 1.16-1.15-1.12-.51-1.46z"/><path d="m51.4 28.37c.34-.21 1.16-.23 1.33.28a.83.83 0 0 1 -.93 1.06.77.77 0 0 1 -.4-1.34z"/><path d="m36.22 26.14c.35-.21 1.16-.23 1.33.28a.83.83 0 0 1 -.93 1.06.77.77 0 0 1 -.4-1.34z"/><path d="m29.36 25.46c.35-.22 1.16-.24 1.33.27a.82.82 0 0 1 -.93 1.06.76.76 0 0 1 -.4-1.33z"/></g></svg>