<svg height="64" viewBox="0 0 64 64" width="64" xmlns="http://www.w3.org/2000/svg"><path d="m27.43 60.72a16.76 16.76 0 0 1 -10.93-4 11 11 0 0 1 -4.34-9.9c0-.24.05-.47.07-.68a12.51 12.51 0 0 1 -9.44-5.31c-4.28-6.37-2.53-13.44-1.89-15.46a15.82 15.82 0 0 1 9.6-9.91 14.77 14.77 0 0 1 7.94-10.46 15.8 15.8 0 0 1 7.34-1.74 21.37 21.37 0 0 1 11.89 3.8 18.58 18.58 0 0 1 2.67 2.57 18.73 18.73 0 0 1 6.87-1.39 15 15 0 0 1 4.79.76c6.79 2.3 8.64 8.64 8.16 13.38a17.59 17.59 0 0 1 -.72 3.66c1.88 1.71 4.76 5.37 4.56 11.96-.28 8.6-3 11.67-8 14.32a15.45 15.45 0 0 1 -7.27 1.81 13.08 13.08 0 0 1 -4.46-.72c-.54-.2-1-.41-1.48-.62-1 2-3.17 4.78-8 6.58a21.09 21.09 0 0 1 -7.36 1.35z" fill="#fff"/><path d="m12.27 16.93a12.7 12.7 0 0 1 7.07-10.19c6.9-3.6 14.86.09 17.13 1.87a13.78 13.78 0 0 1 3.25 3.47s5.65-3.25 11.7-1.2 7.2 7.83 6.85 11.34-1.2 4.45-1.2 4.45 5.25 2.94 5 11.21-2.89 10.5-7 12.68a13.11 13.11 0 0 1 -10.15 1 17 17 0 0 1 -3.29-1.65s-.22 4.9-7.56 7.61-12.68.71-16.33-2.31a9.11 9.11 0 0 1 -3.65-8.21 27.64 27.64 0 0 1 .36-2.76s-6.54.71-10.06-4.49-2.49-11.12-1.64-13.75a13.76 13.76 0 0 1 9.52-9.07z" fill="#604f58"/><path d="m10.76 20.27c2.1-1 3.11-1 4.18-.54s1.73 1 2.27 1 1.24-.84 1.06-1.16a6.63 6.63 0 0 0 -2.13-1.69 4.94 4.94 0 0 0 -1.47-.49s-.35-3.15 3.34-6.45 8-3.64 12.9-2.27 7.56 4.94 7.47 5.25-1.78 2.54-1.69 3.43.71 1 1.07 1.16.8-.4.8-.4a7.69 7.69 0 0 1 5.44-5.36c4.36-1 9.65-.63 11 4.22a14.65 14.65 0 0 1 .13 8.32s-1.82-1.06-6-.49-5.61 1.87-5.74 2.63.18 1.47 1 1.2a14 14 0 0 1 8.54-1.16c4.72.85 7.07 6.41 6.9 11.26s-2.32 9.56-8.41 11-10.06-3.78-10.5-4-1.07 0-1.11.4-.63 5.16-3.78 7.43a14 14 0 0 1 -13.4 1.65c-5.42-2.09-6.4-6.36-6.4-8.1a4.89 4.89 0 0 1 1-3.42c.49-.41 3.83-2 4.14-2.63a1.44 1.44 0 0 0 -1-1.78c-.67 0-4.27 2.4-6.36 2.54s-7.44-1.62-9.01-6.47 0-12.46 5.76-15.08z" fill="#f6c687"/><g fill="#604f58"><path d="m20.1 22.94c0-.26 0-.81.71-.72s2.23 1.47 3.83 3.12 2 1.91 1.78 2.31-.09.62-.36.31-2.89-2.62-4.06-3.51-1.9-1.34-1.9-1.51z"/><path d="m37.45 20.84c.32-.23 1.07.09 1.07.4s-1.56 2.1-2.27 3.88-.89 3.38-1.16 3.6-.53.58-.62.09a8.79 8.79 0 0 1 .75-4 11.39 11.39 0 0 1 2.23-3.97z"/><path d="m36.11 34.46c.19-.24 1.52-.58 1.38-.14a8 8 0 0 0 1 5.83c1.67 2.85 2.7 3.65 2.61 3.85s-.76.13-1 0a9.6 9.6 0 0 1 -3.24-4.63c-1.01-2.91-.92-4.69-.75-4.91z"/><path d="m23.57 37.53a28.67 28.67 0 0 0 3.43-1.12c1.47-.71 2.22-1.29 2.31-1.06s.14.31-.09.58a8.89 8.89 0 0 1 -2.62 1.78 8 8 0 0 1 -2.67.8c-.45-.09-.54-.85-.36-.98z"/><path d="m9.47 30.05a1.14 1.14 0 0 1 1.82.49c.31 1-.49 1.47-1.2 1.43a1.22 1.22 0 0 1 -.62-1.92z"/><path d="m16.5 27.74a1.14 1.14 0 0 1 1.82.49c.31 1-.49 1.47-1.2 1.42a1.21 1.21 0 0 1 -.62-1.91z"/><path d="m14.27 33.61a1.15 1.15 0 0 1 1.83.49c.31 1-.49 1.47-1.21 1.43a1.22 1.22 0 0 1 -.62-1.92z"/><path d="m28 42.82a1.14 1.14 0 0 1 1.82.49c.31 1-.49 1.47-1.2 1.42a1.21 1.21 0 0 1 -.62-1.91z"/><path d="m45.9 39.57a1.15 1.15 0 0 1 1.83.49c.31 1-.49 1.47-1.21 1.43a1.22 1.22 0 0 1 -.62-1.92z"/><path d="m50.62 36.55a1.13 1.13 0 0 1 1.82.49c.31 1-.49 1.47-1.2 1.42a1.21 1.21 0 0 1 -.62-1.91z"/><path d="m48.62 17.37a1.14 1.14 0 0 1 1.82.49c.31 1-.49 1.47-1.2 1.43a1.22 1.22 0 0 1 -.62-1.92z"/><path d="m25.13 13a1.14 1.14 0 0 1 1.87.5c.31 1-.49 1.47-1.2 1.43a1.22 1.22 0 0 1 -.67-1.93z"/><path d="m12.86 26.33a.88.88 0 0 1 1.4.37c.24.79-.37 1.13-.92 1.1a.93.93 0 0 1 -.48-1.47z"/><path d="m18.64 32.42a.88.88 0 0 1 1.41.38c.24.79-.38 1.13-.93 1.1a.94.94 0 0 1 -.48-1.48z"/><path d="m21.22 16.58a.89.89 0 0 1 1.41.38c.24.79-.38 1.13-.93 1.1a.94.94 0 0 1 -.48-1.48z"/><path d="m25.27 20.32a.88.88 0 0 1 1.4.38c.24.79-.37 1.13-.92 1.09a.93.93 0 0 1 -.48-1.47z"/><path d="m28.92 48.22a.87.87 0 0 1 1.4.37c.24.79-.37 1.13-.92 1.1a.93.93 0 0 1 -.48-1.47z"/><path d="m25.45 51.11a.88.88 0 0 1 1.4.37c.24.79-.37 1.13-.92 1.1a.93.93 0 0 1 -.48-1.47z"/><path d="m51 44a.88.88 0 0 1 1.41.38c.24.79-.38 1.13-.93 1.1a.94.94 0 0 1 -.48-1.48z"/><path d="m54.76 38.16a.88.88 0 0 1 1.41.38c.24.79-.38 1.13-.93 1.09a.94.94 0 0 1 -.48-1.47z"/><path d="m52.85 32.07a.89.89 0 0 1 1.41.37c.24.79-.38 1.13-.93 1.1a.93.93 0 0 1 -.48-1.47z"/><path d="m45 21.57a.88.88 0 0 1 1.4.37c.24.79-.37 1.13-.92 1.1a.93.93 0 0 1 -.48-1.47z"/><path d="m49.55 33.17c-.25-.75-1.91-1.07-2.85-1s-1.82 2-.8 2.58 2 .22 1.83-.45-1-.84-.45-1.11 1.34.36 1.74.67.66-.29.53-.69z"/><path d="m45.73 15.82c-.78-.13-1.83 1.2-2.18 2.07s.9 2.52 1.92 1.9 1.1-1.63.45-1.82-1.2.48-1.19-.12.93-1 1.39-1.23.03-.74-.39-.8z"/><path d="m31.72 14c-.78-.13-1.83 1.2-2.18 2.07s.9 2.52 1.92 1.9 1.1-1.63.44-1.82-1.2.48-1.19-.12.93-1 1.39-1.23.03-.7-.38-.8z"/><path d="m25.66 47c-.15-.78-1.76-1.31-2.7-1.34s-2.06 1.71-1.13 2.46 1.92.47 1.87-.21-.86-1-.3-1.16 1.28.52 1.64.88.7-.26.62-.63z"/></g></svg>