<svg height="64" viewBox="0 0 64 64" width="64" xmlns="http://www.w3.org/2000/svg"><path d="m21.92 57a2.41 2.41 0 0 1 -.53-.07c-.48-.13-.79-.31-5-3.06-2.15-1.4-4.59-3-6.55-4.19a41.3 41.3 0 0 1 -5.29-3.57c-1.25-1-2.28-6.58-2.4-7.28l-.35-1.19c-1.8-6-1.93-6.76-1.71-7.55s.47-1.65 21-13.18c2.1-1.19 18-9.84 19.5-9.93h.15a9 9 0 0 1 3.19 1.02l1.59.69c1.7.75 4.88 2.14 8.14 3.44l1.35.54c7.82 3.11 8.49 3.46 8.88 4.64.18.54.49 1.45-2.48 9.84-1.45 4.12-3 6.25-3.82 6.82-.19.12-5.63 3.79-16.67 11.26-17.39 11.77-18.21 11.77-19 11.77z" fill="#fff"/><path d="m4 38.47c0-.35-2.24-7.18-2-7.85s13.3-8.23 20-12 18.15-9.68 18.66-9.71a14.78 14.78 0 0 1 3.1 1.17c.82.35 5 2.22 9.18 3.9s9 3.51 9.11 4-.95 4.28-2.46 8.58-2.88 5.73-3.07 5.85-5.64 3.8-16.68 11.27-17.47 11.55-18 11.43-6.9-4.47-11.07-7a37.48 37.48 0 0 1 -5.19-3.51 41.88 41.88 0 0 1 -1.58-6.13z" fill="#604f58"/><path d="m20 47c0-.28.35-.76.64-.63a19.76 19.76 0 0 1 1.59 3.41l.26-1.51c-.28-.66-1-2.14-1-2.34s.16-.82.41-.86.65.78.92 1.29c.25-1.62.44-3 .44-3.06s-1.23-.44-5.44-3.13-13.24-8.17-13.24-8.17-.39-.07-.41.15 3 10.89 3.13 11.21 1.55.88 5.48 3.57c1.45 1 3 2 4.38 2.82a12.67 12.67 0 0 1 -1-2.85c.19-.13.6-.35.86 0a35.38 35.38 0 0 1 1.57 3.72l1.12.65a30.18 30.18 0 0 1 -1.36-3.8c.09-.22.66-.38.76-.22s1.66 3.73 2 4.79a3.13 3.13 0 0 0 .52.24c.06 0 .16-.35.28-.92-.48-1.02-1.91-4.13-1.91-4.36z" fill="#84767e"/><path d="m49.9 31.32c0-.29.38-.7.6-.6a10.63 10.63 0 0 1 1.86 2l.89-.6c-.55-.51-1.7-1.63-1.7-1.94a.92.92 0 0 1 .66-.76 12.81 12.81 0 0 1 2 2.06l.78-.56c-.48-.44-1.7-1.57-1.6-1.85s.26-.47.54-.54 1.37 1.11 1.74 1.65c.15-.28.36-.71.62-1.26-.35-.37-1-1.06-1-1.34a.64.64 0 0 1 .6-.6 2.43 2.43 0 0 1 .92.78c1.24-2.65 2.88-6.3 2.88-6.44s-2.66 1.3-6.55 3.86-15.64 10.47-20.14 13.13-8.64 4.88-8.73 4.91a30.15 30.15 0 0 1 -.35 3.8c-.38 3-1.11 5.12-1 5.19s16.63-10.86 21.54-14.21c2.39-1.64 5-3.32 7-4.68a13 13 0 0 1 -1.56-2z" fill="#84767e"/><path d="m43.6 24.32c.16-.31.45-.53.54-.47a42.31 42.31 0 0 1 2.37 3.61l.88-.57a23 23 0 0 1 -2-3.26 1 1 0 0 1 .86-.38 23.05 23.05 0 0 1 1.94 3.15l.93-.61c-.42-.68-1.73-2.76-1.73-2.92s.44-.7.63-.6a18.54 18.54 0 0 1 2 2.93l.82-.55a7.92 7.92 0 0 1 -1.14-2.22c.09-.35.57-.35.69-.29a11.69 11.69 0 0 1 1.3 1.94l1-.67a14.36 14.36 0 0 1 -1.07-2c.09-.09.66-.38.92-.19a6.67 6.67 0 0 1 1 1.65l1-.69a10.38 10.38 0 0 1 -.94-1.65c0-.23.48-.45.67-.42a5.17 5.17 0 0 1 1 1.57c.33-.21.64-.42.94-.63a7.29 7.29 0 0 1 -.77-1.35c0-.12.66-.5.85-.25a6.3 6.3 0 0 1 .71 1.06c1.56-1.06 2.65-1.81 2.68-1.85s-4-1.55-7.91-3.1-9.59-4.24-10.07-4.4-2.99 13.48-2.7 13.64 5.65 2.52 6.69 3c-.69-1.09-2.21-3.22-2.09-3.48z" fill="#a8a1a7"/><path d="m7.11 35.62c.1-.22.89-.28 1 .13a36.68 36.68 0 0 1 .67 4.65c-.13.22-.54.48-.79.1a25.86 25.86 0 0 1 -.88-4.88z" fill="#604f58"/><path d="m5.18 30.56c-.07-.09 11.33-6.3 18.71-10.7a176.57 176.57 0 0 1 16.64-8.76c.1.09-2.62 13.92-2.78 14s-6.11 3.32-11 6.55-9.31 6.23-9.53 6.14-11.72-6.88-12.04-7.23z" fill="#a8a1a7"/><path d="m18.06 38.12s20-12.5 20.7-12.4a40.17 40.17 0 0 1 6.24 2.59c-.12.16-20.91 13.39-21.1 13.33s-5.71-3.36-5.84-3.52z" fill="#a8a1a7"/><path d="m30.41 18.37c.31-.31 6-3.25 6.23-3.07a2.09 2.09 0 0 1 .1 1.43 59.44 59.44 0 0 1 -6.05 2.94c-.32-.03-.54-1.04-.28-1.3z" fill="#604f58"/></svg>