<svg height="64" viewBox="0 0 64 64" width="64" xmlns="http://www.w3.org/2000/svg"><path d="m32.45 55.48a69.7 69.7 0 0 1 -18.12-2.15c-5.55-1.62-10-4.45-10.6-6.08a33.45 33.45 0 0 1 -.84-5c-.4-2.75-.89-6.16-1.34-8.55-.84-4.49-1.25-6.38-1.26-6.4-.73-3.69-.08-6.92 1.89-9.39s5.68-5.77 15.94-8a65.9 65.9 0 0 1 13.88-1.39 72.82 72.82 0 0 1 10.67.75 40.91 40.91 0 0 1 13.33 3.94c4.18 2.25 7.79 7.33 8 9 .11.78-.28 9.34-.41 11.94-.59 11.73-.59 11.85-1.21 12.45-1 1.08-6.3 6.52-18.36 8.12a87 87 0 0 1 -11.57.76z" fill="#fff"/><path d="m2.19 26.88a9.17 9.17 0 0 1 1.5-7.76c1.89-2.36 5.31-5.23 14.84-7.31a70.7 70.7 0 0 1 23.87-.62 38.72 38.72 0 0 1 12.65 3.73c3.95 2.08 6.95 6.77 7.01 7.55s-.86 22.53-1.13 22.84-5.06 5.88-17.16 7.49-23.15.34-28.89-1.33-9.1-4.31-9.34-4.93-1.23-8.68-2.08-13.23-1.27-6.43-1.27-6.43z" fill="#604f58"/><path d="m44.14 27c.21-.11.69-.28.79 0a19.1 19.1 0 0 1 0 3.27c.28.11.53.21.77.32 0-.95-.16-3.52.12-3.69s.69-.21.76 0a40.59 40.59 0 0 1 .12 4.18 10.09 10.09 0 0 1 1 .61c-.07-1.42-.2-5.88-.11-6.06s.65-.48.71-.24.28 4.89.27 6.13l1-.38c-.06-1.52-.23-6.07-.15-6.29s.76-.62.82-.31.25 4.62.25 6.25l1.06-.42a65.5 65.5 0 0 1 -.38-6.75c.2-.28.58-.48.65-.35s.47 5.46.49 6.78l.59-.26c-.06-1.36-.32-7.29-.19-7.44s.75-.31.82-.1.25 5.69.18 7.16a10.17 10.17 0 0 0 1.06-.57c-.11-1.37-.51-6.85-.39-7s.72-.27.79 0 0 6.19.1 6.66c.32-.26.68-.55 1-.87-.08-1.24-.37-6-.22-6.13s.65-.41.72-.18.29 4 .32 5.52a5.3 5.3 0 0 0 1.73-3.7c0-2.43-3.45-5.71-8.1-7.42a58.31 58.31 0 0 0 -30.72-1.9c-14.15 3-15.89 9-15.83 9.78.14 1.75 1 3.9 4.69 6.09a26.9 26.9 0 0 0 8.68 2.87 32.72 32.72 0 0 1 8.55-2.77c4.34-.65 11.83-1.06 15.73-.38a17.29 17.29 0 0 1 2.18.59 14.18 14.18 0 0 1 .14-3z" fill="#a8a1a7"/><path d="m41.27 45.18c-.1-4.62-.44-9.13-.48-9.27a59.5 59.5 0 0 1 -13 .55c-7.66-.58-12-1.2-16.31-3a22.5 22.5 0 0 1 -6.29-3.73s.69 3.22 1.37 7 1.23 9.2 1.23 9.2 5.2 3.28 14.88 4.85a22.56 22.56 0 0 1 -1.62-3.22c.07-.24.41-.58.55-.51a43.29 43.29 0 0 1 2.4 3.95l1.18.16c-.33-.81-1.39-3.36-1.33-3.45s.75-.41.89-.13a38.43 38.43 0 0 1 1.59 3.71l1.31.11a26.7 26.7 0 0 1 -1.47-3.86c.14-.17.82-.2 1 0a40.06 40.06 0 0 1 1.71 3.94l1.56.07-1.63-4s.86-.41 1.06-.14a26.08 26.08 0 0 1 1.71 4.22h1.07c-.34-.81-1.54-3.68-1.51-3.85s.61-.31.78-.24a23.8 23.8 0 0 1 1.8 4.08 63.6 63.6 0 0 0 7.68-.49s-.03-1.34-.13-5.95z" fill="#84767e"/><path d="m55.91 41.93c0-.28.23-.86.41-.86a21.35 21.35 0 0 1 2.68 2.44c0-.38.07-.93.11-1.6a28 28 0 0 1 -2.63-2.24c-.07-.24-.14-1 .07-1a15.57 15.57 0 0 1 2.62 2c0-.49 0-1 .07-1.55-.49-.51-2.56-2.23-2.62-2.47s-.11-.89.13-.89a14.64 14.64 0 0 1 2.55 2.13c0-.64.06-1.3.08-2a18.84 18.84 0 0 1 -2-1.6c0-.17.07-.79.17-.82a10.74 10.74 0 0 1 1.86 1.26c.15-3.83.26-7.39.2-7.45s-.41.51-1.13 1a37 37 0 0 1 -9.61 5.44 37.81 37.81 0 0 1 -7.18 2c-.21.31.48 14.91.51 15.14s4-.06 8.89-2.05a25.56 25.56 0 0 0 7.36-4.24 24.16 24.16 0 0 1 -2.54-2.64z" fill="#84767e"/><path d="m9.06 21.34c.44-.55 3.52-2.18 9-3.62s9.74-1.64 9.91-1.3.1 1.27-.14 1.3a32.63 32.63 0 0 0 -9.74 1.57c-5.74 1.71-7.09 3.35-7.69 3.35s-1.47-1.12-1.34-1.3z" fill="#604f58"/><path d="m19.15 33c-.17-.14 5.47-2 12.27-2.46a42.74 42.74 0 0 1 13.34 1.13c.89.34 1.37.51 1.3.65s-5.51 1.57-13.71 1.81-12.93-.92-13.2-1.13z" fill="#a8a1a7"/><path d="m34.33 39.88a22.22 22.22 0 0 1 4-.62c.65 0 .65.31.72.58s-.1 9.2-.31 9.44-3.76.27-4.07-.07-.48-9.03-.34-9.33z" fill="#604f58"/><path d="m35.25 40.63c.08-.28 2.84-.27 2.88 0s.17 7.83 0 8a6.06 6.06 0 0 1 -2.43-.14c-.07-.24-.51-7.62-.45-7.86z" fill="#a8a1a7"/><path d="m42.64 42c.27-.17 6-1.43 6.09-1.71s-.21-3.38-.07-3.62 5.16-2 5.47-1.44a11.82 11.82 0 0 1 .27 3.05s.48 0 .48.34.2 4.07.07 4.24a2.32 2.32 0 0 1 -.48.37 6.88 6.88 0 0 1 0 2.23 17.69 17.69 0 0 1 -3.25 1.67c-.48.14-1.47.38-1.61.17a8.51 8.51 0 0 1 -.1-1.74s-2 .61-3.14.85-3.42.45-3.66.17-.07-4.58-.07-4.58z" fill="#604f58"/><path d="m37.24 41.55s6.9-2.87 7.38-2.73.51 10.08.21 10.15-7.56-1-7.59-1.2-.35-.78 0-.71 6.66 1.33 6.76.94a70.79 70.79 0 0 0 -.07-7.76c-.2 0-6 2.22-6.36 2.22s-.44-.81-.33-.91z" fill="#604f58"/><g fill="#a8a1a7"><path d="m43.53 42.75a25.32 25.32 0 0 0 5.71-1.75c3.76-1.57 4.76-2.12 4.89-1.88a15.35 15.35 0 0 1 0 3.25c-.14.24-1.78.93-5.47 2.12s-5 1.34-5.1 1.2a13.76 13.76 0 0 1 -.03-2.94z"/><path d="m49.55 39.64v-2.26l1.81-.58c1.27-.41 2.12-.79 2.16-.62s.1 2 .1 2a36 36 0 0 1 -4.07 1.46z"/><path d="m50.43 45.18s1.24-.52 2.12-.82a5.81 5.81 0 0 0 1.24-.55 3.57 3.57 0 0 1 0 1.2 12.94 12.94 0 0 1 -3.25 1.26c-.24-.14-.11-1.09-.11-1.09z"/></g><path d="m9.3 36.15s.89-.27 1 .2 1 6.81.85 7-.82.28-.88.11-.9-7.07-.97-7.31z" fill="#604f58"/></svg>