<svg height="64" viewBox="0 0 64 64" width="64" xmlns="http://www.w3.org/2000/svg"><path d="m33.71 54.85a80.8 80.8 0 0 1 -8.95-.45c-5.75-.68-13.5-6.12-14.62-8-.52-.86-1.93-4.22-4.19-9.66-1.07-2.58-2.09-5-2.64-6.26l-.15-.13a8.06 8.06 0 0 1 -2.94-4.57c-.73-3 0-7.34 7.65-11.48 5.72-3.1 12.51-4.59 22.7-5 3-.12 5-.17 6.89-.17 6.73 0 11.24.72 15.55 2.48 6.27 2.55 9.88 5.55 10.72 8.92a7.66 7.66 0 0 1 -.94 6.2c-.34.56-.71 1.15-.89 1.43-.9 2.4-6.61 16.84-8.31 19.71-1.85 3.14-5.35 5.32-10.13 6.31a55.08 55.08 0 0 1 -9.75.67z" fill="#fff"/><path d="m5 29.49c-.28-.61-2.17-1.26-2.88-4.17s.82-6.14 6.67-9.32 12.68-4.4 21.86-4.75 15.52-.33 21.63 2.16 8.95 5.14 9.57 7.6a5.75 5.75 0 0 1 -.71 4.72l-1 1.55s-6.5 16.72-8.22 19.61-5.11 4.62-8.86 5.39-12.93.81-18.07.2-12.38-5.72-13.19-7-5.5-13.08-6.8-15.99z" fill="#604f58"/><path d="m40.25 48.21c.07-.23.49-.61.78-.52a12.32 12.32 0 0 1 2.27 2.5c.54-.15 1-.3 1.51-.45a15.34 15.34 0 0 1 -2.13-2.69c.09-.26.22-.71.58-.59a18.84 18.84 0 0 1 2.61 2.88c.38-.15.72-.3 1-.45a26.54 26.54 0 0 1 -2.46-3c0-.26.52-.71.75-.68a18.44 18.44 0 0 1 2.73 3.2c.28-.15.5-.29.7-.42-.68-.82-2.53-3.05-2.56-3.26s.29-.42.58-.42a14.79 14.79 0 0 1 2.84 3 7.06 7.06 0 0 0 .52-.89 30.93 30.93 0 0 1 -2.87-3.51.6.6 0 0 1 .55-.65c.29 0 2.16 2.19 2.85 3.13.2-.41.42-.87.65-1.37-.69-.69-2.95-3-2.92-3.28s.22-.81.58-.84 2.21 2.05 2.89 3l.68-1.48a32 32 0 0 1 -3-3.1c0-.22.3-.9.81-.71a15.09 15.09 0 0 1 2.65 2.73l.51-1.14a21.82 21.82 0 0 1 -2.51-2.53c0-.29 0-.74.32-.71a10.56 10.56 0 0 1 2.63 2.26c.2-.46.41-.91.61-1.37a22.57 22.57 0 0 1 -2.27-2.05c0-.23.2-.58.46-.52a11.15 11.15 0 0 1 2.21 1.67l.37-.85c-.42-.45-1.39-1.45-1.39-1.53s.55-.61.75-.48a6.85 6.85 0 0 1 1.06 1.06c1.21-2.77 2.1-4.88 2.1-4.94s-.84.38-2.19 1.22a37.91 37.91 0 0 1 -11.51 4 79.11 79.11 0 0 1 -23.77.55 36.79 36.79 0 0 1 -12.37-3.81c-.12.2 5.31 12.55 6.12 13.65s7 5.52 18.23 6.27a35.76 35.76 0 0 0 9.8-.59 13.12 13.12 0 0 1 -1.75-2.29z" fill="#84767e"/><path d="m45.71 29.88c0-.23.23-.55.55-.42a11.65 11.65 0 0 1 1.92 2.26l1-.31a27.36 27.36 0 0 1 -2.6-2.95c0-.29.49-.71.72-.68a24.47 24.47 0 0 1 2.78 3.3l.92-.38a39 39 0 0 1 -3.27-3.89.59.59 0 0 1 .81-.52 28.29 28.29 0 0 1 3.52 4l.85-.39c-.91-.9-3.75-3.63-3.67-3.9a1 1 0 0 1 1-.55c.17.08 2.85 3.09 3.57 4l.91-.45a45.14 45.14 0 0 1 -3.72-4.2c0-.32.75-.48.94-.45a44.46 44.46 0 0 1 3.67 4.19c.37-.2.7-.4 1-.6-.82-.87-3-3.25-3.06-3.46s.13-.68.45-.65a26.12 26.12 0 0 1 3.45 3.54 9.37 9.37 0 0 0 .73-.6c-.75-.8-3.6-3.84-3.63-4s.26-.77.64-.61a31.25 31.25 0 0 1 3.61 4 5.81 5.81 0 0 0 .57-.79c-.59-.6-3.14-3.11-3.14-3.49s.32-.68.61-.61a23.21 23.21 0 0 1 3 3.05l.08-.21a3.36 3.36 0 0 0 .14-.61 23.86 23.86 0 0 1 -2.47-2.59c0-.26.48-.87.84-.65a19.5 19.5 0 0 1 1.48 1.32 7.35 7.35 0 0 0 -3.17-3.58c-2.88-1.86-11.32-4.51-16.74-4.8s-18-.71-26.93 2.91-9.43 6.77-9.21 8.08c.14 1.16 1.44 3.52 6.14 5.95a24.89 24.89 0 0 0 9.22 2.62 7.11 7.11 0 0 1 1.84-1.46 7.37 7.37 0 0 1 3.26-.64s2-8 2.56-8.83 2.12-2.33 5.51-2.59 5.53.84 6.18 1.72 3 9.18 3 9.18a11.67 11.67 0 0 1 2.62.39 5.22 5.22 0 0 1 2.49 1.55s.2 0 .57-.12a13.39 13.39 0 0 1 -1.54-2.08z" fill="#a8a1a7"/><path d="m20.88 32.79a3.31 3.31 0 0 1 1.27-.74c.74-.23 1.71-.2 1.71.06a11.26 11.26 0 0 1 -.2 1.2s-2.52-.2-2.78-.52z" fill="#84767e"/><path d="m25.7 33.14 2.59-9.57a7.83 7.83 0 0 0 4.71 1.2 13.71 13.71 0 0 0 4.59-1l2.66 9.23s-4.88.76-14.55.14z" fill="#a8a1a7"/><path d="m42.22 32.66-.42-1.52a6.7 6.7 0 0 1 1.88.49c.84.38.94.77.94.77a16.65 16.65 0 0 1 -2.4.26z" fill="#84767e"/><path d="m28.61 22.73c-.16-.28 2-1.48 4.92-1.58s4.2 1.36 4 1.65a7.32 7.32 0 0 1 -4.3 1.1c-2.23-.03-4.33-.65-4.62-1.17z" fill="#84767e"/><g fill="#604f58"><path d="m13.12 36.25s1-.49 1.14-.16 1.74 5.75 1.58 5.91-1.23 0-1.23 0-1.52-5.43-1.49-5.75z"/><path d="m28.22 30.59s1-4.46 1.13-4.53.88-.35.91.23a25.6 25.6 0 0 1 -1 4.33c-.16.26-1.04.38-1.04-.03z"/><path d="m8.21 21.86c0-.23.91-1.26 3.82-2.71s4.3-1.72 4.62-1.56.45.91.32 1a17.11 17.11 0 0 0 -4.69 1.71 26.31 26.31 0 0 0 -3.1 2.2c-.32.1-.97-.22-.97-.64z"/></g></svg>