<svg height="64" viewBox="0 0 64 64" width="64" xmlns="http://www.w3.org/2000/svg"><path d="m8.41 64a6.53 6.53 0 0 1 -5.09-2.23c-1.89-2.17-2.09-5.35-.54-8.51 1.12-2.26 11.22-19.94 13.61-23.9s7.61-10.72 10.71-13.01a17 17 0 0 1 8.49-3.46 70.86 70.86 0 0 1 3.09-8c1.32-2.74 2.56-4.46 4.43-4.71.57-.08 2.33-.18 3.66-.18a7.93 7.93 0 0 1 2.16.18 2.75 2.75 0 0 1 1.07.63 2.65 2.65 0 0 1 .69-.55 2.24 2.24 0 0 1 1.11-.26c1.49 0 6.12 1.77 6.9 2.23a4 4 0 0 1 2 2.31 2.3 2.3 0 0 1 -.27 1.76c-.15.23-.72 1-1.39 1.84.63.48 1.33 1 1.85 1.52a4.46 4.46 0 0 1 .45 5.83 10.63 10.63 0 0 1 -1.8 1.37 55.5 55.5 0 0 0 -5 3.73l-2.3 2.11a13.06 13.06 0 0 1 1.08 5.93c-.16 5.14-2.71 8.13-7.67 12.19a217.19 217.19 0 0 1 -19.24 13.53c-1.95 1.21-4 2.53-5.94 3.81-4.35 2.83-7.1 4.6-8.76 5.21a9.4 9.4 0 0 1 -3.3.63z" fill="#fff"/><path d="m37.06 14.65a79.72 79.72 0 0 1 3.35-8.94c1.5-3 2.29-3.52 3-3.61a27.08 27.08 0 0 1 5-.05c.75.22.62 1.28.58 1.72s-.84 2.6-.84 2.6a49.65 49.65 0 0 1 3.49-4.37c.49-.3 5.36 1.46 6.08 1.9s1.32 1 1.1 1.37-2.51 3.26-2.51 3.26a40 40 0 0 1 3.3 2.55 2.57 2.57 0 0 1 .31 3.13c-.31.35-4.23 2.82-6.6 4.93l-3.57 3.17s1.76 1.94 1.63 6.26-2.16 6.82-7 10.74a214.15 214.15 0 0 1 -19 13.39c-5.63 3.48-12 8-14.35 8.85s-4.76.67-6.26-1-1.32-4.23-.26-6.39 11.06-19.78 13.49-23.79 7.49-10.43 10.22-12.46 4.88-2.78 8.84-3.26z" fill="#604f58"/><path d="m55.83 9.14c-.2 0-.38.23-1.09 1.1.6.5 1.74 1.5 1.7 1.72s-.22.75-.48.58-1.4-.93-2-1.4l-.15.16-.36.43c.65.54 1.75 1.49 1.69 1.64s-.71.49-.84.36-1-.76-1.56-1.19l-.52.59c.59.46 1.59 1.26 1.59 1.48s-.57.48-.57.48a16 16 0 0 1 -1.74-1.09c-.12.13-.23.26-.35.38.58.41 1.42 1.05 1.33 1.22s-.35.58-.53.45-1-.51-1.53-.86l-.37.41c.5.34 1.3.91 1.24 1.06s-.22.44-.4.44a5.3 5.3 0 0 1 -1.36-.93 2.93 2.93 0 0 1 -.66 0c-.4 0-.4-.27-.53-.58s9-9.82 9-10.3-4.71-2.2-5.28-2-7.29 9.71-7.51 9.82-.55-.11-.66-.31a28.28 28.28 0 0 1 2.42-4.05 53 53 0 0 0 1.46-5.55c0-.31-3.44-.4-4.63.22s-5 11.05-5.06 11.23a14.21 14.21 0 0 1 6.25 2.35 20.57 20.57 0 0 1 4.8 4.31s1.28-1.18 3.48-2.95 6.78-5.06 6.87-5.46-3.39-3.76-3.65-3.76z" fill="#c5dda3"/><path d="m44.64 31.65c0-.26.22-.84.57-.75a28.3 28.3 0 0 1 3.12 1.32 9.63 9.63 0 0 0 .69-1.7c-1-.36-3.21-1.2-3.28-1.51s0-1 .44-.93a20.3 20.3 0 0 1 3.07 1.28 7.74 7.74 0 0 0 0-1.36 26.1 26.1 0 0 1 -3.13-1.33c-.09-.17-.27-1.1 0-1.1a14.77 14.77 0 0 1 2.85.94 8.85 8.85 0 0 0 -.34-1 10.21 10.21 0 0 0 -4.18-5.19c-1.46-.8-2.47-1.94-4-2.56s-5-.31-5.28-.26a10.55 10.55 0 0 0 -5.17 2.08c-2.51 1.94-5.72 6-10.35 13.08s-12.4 20.04-13.46 22.86a2.81 2.81 0 0 0 2.91 4c1.63-.26 5.2-2.33 8.76-4.84s14.4-9.6 18.5-12.25a67.35 67.35 0 0 0 9.57-7.15 13.82 13.82 0 0 1 -2.57-1.57c0-.26.13-.66.36-.7a14 14 0 0 1 3.13 1.3 10.19 10.19 0 0 0 .7-.86c.07-.1.12-.21.19-.31a15.25 15.25 0 0 1 -3.1-1.49z" fill="#f0a26c"/><g fill="#604f58"><path d="m7.16 52.75a2.41 2.41 0 0 1 1.72-.18c1 .26 1.23.53 1.36.4a.59.59 0 0 0 .14-.58 5.21 5.21 0 0 0 -2.38-.92c-.8 0-.84 1.28-.84 1.28z"/><path d="m15.79 56.53s.31-.74-.57-1.85l-.88-1.1s0-.39.26-.35a3.73 3.73 0 0 1 1.54 1.32c.4.66.49 1.1.36 1.41s-.71.57-.71.57z"/><path d="m14.82 45.08a6.81 6.81 0 0 1 2.18 1.06c1 .75 1.5 1.32 1.37 1.54s-.4.57-.58.44a9.83 9.83 0 0 0 -1.89-1.54c-.75-.35-1.36-.57-1.36-.57s-.02-.79.28-.93z"/><path d="m20.33 45.79s.22-.62.62-.49a5.8 5.8 0 0 1 1.63 1.9c.48.79.61 1.41.48 1.58s-.4.44-.53.22a14.88 14.88 0 0 0 -1.36-2.11 9.6 9.6 0 0 1 -.84-1.1z"/><path d="m18.79 39.58s.44-.93.83-.84a8.09 8.09 0 0 1 2.43 1.85c.22.44 0 .53-.14.53s-1.63-.93-2.11-1.12-.92-.16-1.01-.42z"/><path d="m23.37 32.35a8.36 8.36 0 0 1 2.51.8c1.14.61 1.72 1.36 1.67 1.54s0 .48-.35.31a7.63 7.63 0 0 0 -2.2-1.32c-1.06-.31-1.54-.27-1.72-.49a.78.78 0 0 1 .09-.84z"/><path d="m25.61 40.46a2.33 2.33 0 0 1 1.81 1.23 5.83 5.83 0 0 1 1.14 2.38c-.08.31-.26.48-.35.22a7.14 7.14 0 0 0 -1.54-2.2c-.7-.57-1.19-.84-1.28-1a.47.47 0 0 1 .22-.63z"/><path d="m22.44 27.33a5.77 5.77 0 0 1 2 .36c.8.35 1 .57 1.28.57s.62 0 .53-.22a9 9 0 0 0 -2.64-1.81c-.9-.23-1.17 1.1-1.17 1.1z"/><path d="m32.57 35.17s.53-.66.84-.44a7.4 7.4 0 0 1 1.85 2.69c.44 1.23.66 1.76.44 2.11s-.4.49-.48.36a12.49 12.49 0 0 0 -1.28-2.69c-.94-1.41-1.32-1.81-1.37-2.03z"/><path d="m32 29.49c-.08-.17.05-.92.53-.83a4.66 4.66 0 0 1 2.34 1.54c.92 1 1.36 1.85 1.14 2s-.75.05-.75.05a12.44 12.44 0 0 0 -1.85-1.94 12.17 12.17 0 0 0 -1.41-.82z"/><path d="m26.94 21.78s.61-.44 1.71.14 1.28.75 1.41.61.31-.52.22-.7a3 3 0 0 0 -2.38-1c-1.27.17-.96.95-.96.95z"/><path d="m33.15 21.52s.74-.13 2.29 1.32 1.8 2.07 2.15 2.12.58-.05.44-.31a16 16 0 0 0 -2.64-3.22c-1.19-1-1.76-.88-2-.79a.66.66 0 0 0 -.24.88z"/><path d="m39.4 32.49c-.07-.11.66-.66.88-.58a4 4 0 0 1 1.06 2 7.4 7.4 0 0 1 .53 2.55c-.18.18-.31.18-.49 0s-.53-1.72-1.06-2.6a12.26 12.26 0 0 0 -.92-1.37z"/><path d="m42.13 25.26c-.12-.12.44-.44.7-.44s.71.84 1 1.72a6.48 6.48 0 0 1 .53 1.94c-.09.18-.18.44-.4.22s-.57-1.45-1-2.07-.52-1.06-.83-1.37z"/></g></svg>