<svg height="64" viewBox="0 0 64 64" width="64" xmlns="http://www.w3.org/2000/svg"><path d="m10.41 64h-.31a3.92 3.92 0 0 1 -2.69-2.32 3 3 0 0 1 .49-3.09c1.19-1.51 21.1-22.59 21.29-22.79a2 2 0 0 0 .21-.91 2.88 2.88 0 0 0 -1.48.69c-.58.51-4.37 4.25-8.39 8.21-14.1 13.91-14.15 13.92-14.89 14.12a2.32 2.32 0 0 1 -.58.08 3.26 3.26 0 0 1 -2.65-1.85 3.4 3.4 0 0 1 0-3.51c.88-1.38 23.45-24.14 25.16-25.37a11.45 11.45 0 0 1 3.18-1.57 16.26 16.26 0 0 0 2.31-1 7.28 7.28 0 0 0 1.94-1.31 6.1 6.1 0 0 1 1-4.13c1.15-1.64 8.56-11.53 11.39-14.31 3.47-3.37 6.22-4.94 8.71-4.94a5.3 5.3 0 0 1 2 .38c2.66 1.1 5.83 3.43 6 6.39a10.29 10.29 0 0 1 -2.58 7c-1.3 1.56-5.05 4.7-9.82 8.64l-2.19 1.82c-1.12.93-2 1.73-2.83 2.39-2.52 2.15-3.28 2.8-4.32 2.88h-.22a4.4 4.4 0 0 1 -1.33-.25l-1 .88v.86c0 2.29-.08 3.75-.51 4.65-.75 1.58-19 20.74-19.76 21.56-6.54 6.8-7.15 6.8-8.13 6.8z" fill="#fff"/><path d="m36 23.87a4.22 4.22 0 0 1 .59-3.51c1.18-1.69 8.52-11.44 11.16-14s6-5.19 8.57-4.14 4.7 2.91 4.79 4.69a8.35 8.35 0 0 1 -2.11 5.61c-1.54 1.87-7.92 7-11.75 10.21s-5.47 4.79-6.06 4.83a4.5 4.5 0 0 1 -1.75-.56s-2.32 2-2.5 2.28 0 4.6-.41 5.56-14 15.35-19.42 21-6.42 6.24-6.74 6.2-1.87-1.14-1-2.28 20.32-21.76 21.19-22.58a3.65 3.65 0 0 0 .44-3.74c-.54-.82-2.82-.68-4.37.68s-22 21.79-22.5 21.88-1.73-1.32-1.13-2.33 22.91-23.56 24.69-24.83 2.82-1.14 5.24-2.37a7 7 0 0 0 3.07-2.6z" fill="#604f58"/><path d="m36.94 25c.32-.22 1.41 1.18 1.41 1.18a38.61 38.61 0 0 0 -2.51 3c-.09.31-.41 4.74-.63 5.42s-24.25 26-24.43 26a.42.42 0 0 1 -.32-.68c.27-.46 21.78-23.15 22-23.74a3.46 3.46 0 0 0 -.54-3.33c-1.05-1.55-3.29-1.64-5.11-.09s-22.23 22.24-22.55 22.01-.77-.46-.45-.87 22.51-22.37 24-23.7 4.65-2.37 5.61-2.78a30.61 30.61 0 0 0 3.52-2.42z" fill="#f9f2ed"/><path d="m38.17 21.73c.12-.63 7.47-9.57 9.61-12.12s5.29-5.47 7.52-5 4 1.6 3.38 4.47-10.39 9.46-13.08 11.78-4.29 3.83-4.6 3.83-3-2.23-2.83-2.96z" fill="#84767e"/><path d="m46.74 13.48c.18-1.25 2.14-3 3.73-2.05s.69 3.28-1.18 3.78-2.69-.82-2.55-1.73z" fill="#604f58"/><path d="m48.92 12.52c.79-.46 1.51.46 1.37 1.14a1.31 1.31 0 0 1 -2 .5c-.51-.59-.14-1.16.63-1.64z" fill="#f9f2ed"/><path d="m52.2 8.28a2.5 2.5 0 0 1 3.74-1.28c1.87 1.19-.5 4.1-1.87 3.47s-1.96-.86-1.87-2.19z" fill="#604f58"/><path d="m53.94 7.6c.71-.19 1.73.32 1.5 1.09a1.13 1.13 0 0 1 -1.73.51c-.46-.41-.28-1.46.23-1.6z" fill="#f9f2ed"/></svg>