<svg height="64" viewBox="0 0 64 64" width="64" xmlns="http://www.w3.org/2000/svg"><path d="m32.66 64c-9 0-16.32-1.32-19.8-2.46-4.86-1.54-7.34-3.83-7.95-5.27-.3-.7-.31-1.66-.24-6.73 0-2.93.1-6.58 0-10a71.63 71.63 0 0 0 -1.85-14.65 5.76 5.76 0 0 0 -.72-1.42 7.09 7.09 0 0 1 -1.1-2.4c-.49-2.43 2.46-6.65 8.07-9.22 4.56-2.1 11.3-2.86 13.7-3.07a16.44 16.44 0 0 1 -.57-3.58c.15-2.05 4-4.74 8.79-5.14.47 0 .92-.06 1.34-.06 4.73 0 6.48 2.31 6.9 3 .25.41.53.88.46 5.28a45.91 45.91 0 0 1 13.68 2.51c7.52 2.73 9.41 6.37 9.68 9a13.15 13.15 0 0 1 -.56 3.65 60.16 60.16 0 0 0 -1.63 10.44c-.23 4-.28 9.39-.32 13.73 0 4.76-.07 6.49-.2 7.17l-.05.26a6.33 6.33 0 0 1 -4.2 5.37c-2.79 1.09-6.6 2.59-17.44 3.38-1.95.14-3.97.21-5.99.21z" fill="#fff"/><path d="m4.7 24.42c-.36-1.42-1.57-2.51-1.81-3.73s1.88-4.74 7-7.08 13.25-2.93 13.88-3l1.36-.07s-1-4.74-1-5.23 2.44-3 7-3.35 6.1 1.5 6.42 2 .14 6.21.14 6.21a45 45 0 0 1 15 2.41c7.4 2.69 8.27 6 8.41 7.33s-1.78 6.45-2.2 13.78-.24 19.36-.49 20.65-.38 3.11-3.07 4.19-6.34 2.6-16.83 3.33-20.44-.66-25-2.16-6.51-3.46-6.82-4.19.11-8.83-.07-16a74.24 74.24 0 0 0 -1.92-15.09z" fill="#604f58"/><path d="m49.22 53.84c.11-.28.66-.77.91-.67a26.48 26.48 0 0 1 2.95 3.61 8.36 8.36 0 0 0 1.07-.67c-.84-1-3.18-3.7-3.15-3.84s.63-.84.87-.7a36.15 36.15 0 0 1 3.13 3.77 3.83 3.83 0 0 0 .66-.94c-.85-1-3.25-3.73-3.25-3.84s.62-.84.8-.81a37.74 37.74 0 0 1 2.79 3.15c0-.58.07-1.36.09-2.26a19.36 19.36 0 0 1 -2.28-2.7c.07-.21.56-.94.8-.87a9.25 9.25 0 0 1 1.5 1.49c0-3.68 0-8.42.14-11.72a81.84 81.84 0 0 1 2-13.08 51.6 51.6 0 0 1 -7 1.82c-5.44 1.18-12.73 1.84-26.09 1.57s-17.86-2-17.86-2a90.14 90.14 0 0 1 1.7 12.39c.24 5.27.38 16.92.63 17.41s2.13 1.61 6.94 2.86a81.74 81.74 0 0 0 23.24 1.54c4.26-.48 7-.89 8.87-1.25a17.2 17.2 0 0 1 -2.24-2.52c.07-.21.83-.87 1.08-.77a19.3 19.3 0 0 1 2.6 3c.57-.13 1-.26 1.44-.37l.24-.08a24 24 0 0 1 -2.58-3.52z" fill="#f9f2ed"/><path d="m5.47 20.24c0-.71 2.51-3.32 8.13-5.2a37.34 37.34 0 0 1 10.89-2h1.32a5 5 0 0 0 2.19 3.08c1.67.84 4.22.77 5.69.66a6 6 0 0 0 3.45-1.88 4.09 4.09 0 0 0 .6-1.9 24.13 24.13 0 0 1 9.95 1.11c6 1.78 10.64 4.12 10.85 5.51s-7.16 4.38-16.78 4.94-24.32.11-28.47-.45-7.75-1.78-7.82-3.87z" fill="#f39a9b"/><path d="m25.5 5.62c0-.31 2.37-1.89 5.82-2.16s5.38 1.54 5.45 2.33.17 6.32-.56 7.64-2 2.24-5 2.17-3.32-1-3.87-2.34a50.44 50.44 0 0 1 -1.84-7.64z" fill="#ddeff2"/><g fill="#604f58"><path d="m27 5.65s.84-.52.84-.21-.11 1 .7 1.12 4.57-.14 4.64.07.17.87-.07 1.08a19.86 19.86 0 0 1 -4.78.11c-1.33-.14-1.57-.49-1.78-1s.34-1.03.45-1.17z"/><path d="m17.23 33.18c-1.26 0-1.71 1.47-1.92 4.19s-.11 6.31.56 7.32a2 2 0 0 0 2.79.28 1.93 1.93 0 0 0 .49-1.92c-.11-.27-.74-.27-.84-.17s-.42.94-.77 1.12-1-.21-1.11-.77a32.45 32.45 0 0 1 .28-6.94c.41-1.5.38-1.5.66-1.61s.59-.07.66.18.21.94.38.94.53.07.6 0a2.37 2.37 0 0 0 -.28-1.95 1.24 1.24 0 0 0 -1.5-.67z"/><path d="m23.37 35.66c-.35-.39-1.69-.24-2.13 0-1.24.56-1.24 7.34-.77 8.34a1.93 1.93 0 0 0 2.45.77c.62-.28 1.18-1.43 1.22-4.68s-.42-4.09-.77-4.43zm-.49 7.5c-.1.24-1.15.35-1.33 0a32 32 0 0 1 .11-5.79c.17-.28 1.22-.1 1.33.07a51.79 51.79 0 0 1 -.11 5.72z"/><path d="m28.74 35.76c-.38-.76-2.63-.64-2.93-.28-.49.6-.7 7-.45 8.13a1.6 1.6 0 0 0 1.64 1.47c.63 0 1.19-.35 1.64-1.4s.49-7.15.1-7.92zm-1 7.4c-.24.63-.77.8-1.12.59s-.31-6.59 0-7c.14-.17 1.11-.31 1.32-.07a32.31 32.31 0 0 1 -.21 6.48z"/><path d="m30.77 35.13c.17-.39 1-.17 1 0s0 4.43 0 4.43 3.28-3.31 3.56-3.45.69.8.66 1.08-2.79 3.07-2.69 3.17a44.36 44.36 0 0 1 3.35 4.36c0 .35-.56 1-.66 1s-3.42-4.33-3.66-4.43a.67.67 0 0 0 -.53.07 25.63 25.63 0 0 1 0 3.28c-.14.1-1 .24-1.08 0s-.09-9.19.05-9.51z"/><path d="m38.34 35.73c0-.25 1.15-.07 1.22.17s.14 8.45.14 8.45-1.12.24-1.29 0-.14-8.35-.07-8.62z"/><path d="m41.58 35.38a8.19 8.19 0 0 1 2.9.1c.17.18.21.77-.07.91s-1.68 0-1.75.21a14.21 14.21 0 0 0 0 2.69c.11.07 1.43-.18 1.47 0s.17 1.22 0 1.29-1.57-.1-1.57.07.07 3.25.07 3.25a10.85 10.85 0 0 1 2.13.07c0 .14.14 1.11-.14 1.18a21.42 21.42 0 0 1 -3.32 0c-.1-.15.21-9.46.28-9.77z"/><path d="m49.47 34.4s.87 1 .62 1.4-1.85 1.11-1.92 2.3 2.34 1.43 2.31 4.15a3.9 3.9 0 0 1 -2.69 3.94c-.73.14-.91.28-1 .07s-.45-1.22-.07-1.32a2.32 2.32 0 0 0 2.17-1.85 2.44 2.44 0 0 0 -1-2.76 4.29 4.29 0 0 1 -1.08-2.47 5.08 5.08 0 0 1 2.66-3.46z"/><path d="m10.81 28.85c.31-.36.84.09.93.32a60.58 60.58 0 0 1 .26 7.06c-.19.09-.75.14-.93-.14s-.54-6.92-.26-7.24z"/></g></svg>