<svg height="64" viewBox="0 0 64 64" width="64" xmlns="http://www.w3.org/2000/svg"><path d="m34 64c-6.28 0-15.34-1.08-18.28-2.62-3.81-2-4.84-5.66-5.31-8.62-.48-3.12-2.41-27.07-2.76-31.87a6 6 0 0 1 -1.94-3.65c-.21-2.51 1.94-6.41 8.68-9.17a37 37 0 0 1 9.7-2.49c0-1.79.44-3.55 1.79-4.33a12.25 12.25 0 0 1 5.64-1.25 13 13 0 0 1 1.68.11c2.27.3 6.11 1.24 6.33 4.06v1.23a46.56 46.56 0 0 1 10.76 3c8.43 3.68 8.16 8 7.87 9.2a6.69 6.69 0 0 1 -1.14 2.6c.06 2.9.19 13.16-.42 21.78-.89 12.56-2 16.11-3.34 17.57-2 2.2-9.64 3.87-15.74 4.33-1.03.12-2.22.12-3.52.12z" fill="#fff"/><path d="m9.52 19.94a4.77 4.77 0 0 1 -1.88-2.86c-.13-1.62 1.57-4.79 7.48-7.21a33.81 33.81 0 0 1 11-2.51s-.44-3.76.72-4.43a11.14 11.14 0 0 1 6.1-.93c2.33.31 4.57 1.12 4.66 2.28a20.93 20.93 0 0 1 -.05 2.78 45.6 45.6 0 0 1 12 3.09c5.65 2.46 7.17 5.24 6.77 7a3.8 3.8 0 0 1 -1.21 2.28s.31 12.27-.41 22.39-1.61 15.09-2.82 16.39-7.25 3.18-14.46 3.71-18.14-.89-20.78-2.28-3.76-3.85-4.3-7.21-2.82-32.49-2.82-32.49z" fill="#604f58"/><path d="m30.93 23.44c-15.77.62-19-2-19-2-.18.4.76 7.93 1.3 13.25s1.43 20.2 3.49 21.9 7.28 3.52 16.67 3.41a49.78 49.78 0 0 0 11.14-1.32 20.94 20.94 0 0 1 -2.41-2.26c.09-.13.49-.62.85-.53a14.92 14.92 0 0 1 2.82 2.46l1.05-.35c-.8-.86-2.57-2.8-2.44-2.94s.41-.63.72-.54a20.26 20.26 0 0 1 2.8 3.09c.38-.15.73-.3 1-.45-.78-.9-2.61-3-2.61-3.18s.45-.67.67-.58a36.26 36.26 0 0 1 3 3 3.33 3.33 0 0 0 .6-1.06 23.51 23.51 0 0 1 -2.79-3.06c0-.27.22-.71.53-.71a15.26 15.26 0 0 1 2.62 2.61c.1-.41.2-.86.29-1.36a19.06 19.06 0 0 1 -1.92-2.06c0-.18.31-.67.58-.67a6.84 6.84 0 0 1 1.58 1.23c.24-1.68.45-3.73.66-6.11.54-6.14.81-24.63.81-24.63s-6.25 2.23-22.01 2.86z" fill="#f9f2ed"/><path d="m28 3.87a16.78 16.78 0 0 1 6.58-.23c1.7.45 1.61 1.53 1.34 4.17s-.49 4.16-1 4.34a18.62 18.62 0 0 1 -5.55-.4 2.84 2.84 0 0 1 -1.48-2.38c-.14-1.11-.32-5.23.11-5.5z" fill="#ddeff2"/><path d="m26.22 9.55a3.49 3.49 0 0 0 2.33 3.32 15.35 15.35 0 0 0 6.09.49 3.19 3.19 0 0 0 2.36-2.1 3.89 3.89 0 0 0 .26-1.71s7.57.77 12 3.23 4.52 3.76 4.3 4.57-7.26 4.12-22.48 3.89-18.87-1.52-20.8-3.54 4.21-5.55 8.78-6.67 7.16-1.48 7.16-1.48z" fill="#f6c687"/><g fill="#604f58"><path d="m14.81 24.64c.29-.34.8.09.89.32a15 15 0 0 1 .05 3.4c-.18.09-.72.14-.9-.13a9.62 9.62 0 0 1 -.04-3.59z"/><path d="m21.51 35c-.1 0 0-1.08 0-1.18s3.36-.17 3.46-.23a3.83 3.83 0 0 0 .1-1.25 26.55 26.55 0 0 0 -4.8 0c-.1.3.13 9.43.13 9.43a5.15 5.15 0 0 0 1.21-.06c.1-.1 0-5.31 0-5.31a12 12 0 0 0 1.68-.2 2.24 2.24 0 0 0 .4-1.2 12.12 12.12 0 0 0 -2.18 0zm4.33 7c-.16 0-.1-5.68-.1-6s-1.21-.1-1.27 0-.17 7-.07 7.19a18.88 18.88 0 0 0 3.9-.13 2.37 2.37 0 0 0 0-1c0-.18-2.3-.06-2.46-.06zm5.34-8.77c-1.78 0-1.84 2.82-1.88 5.58s.44 4.19 1.48 4.19 1.95-1.48 2-5.07-.78-4.68-1.6-4.68zm.71 5.21c-.1 1.58-.47 3.12-1 3.19s-.47-1.88-.47-3.49 0-2.76.7-2.82.88 1.56.77 3.14zm6.51-4.6c-.13.1.07 1-.1 3.46s-.47 3.42-1 4.06-1 .27-1.18-.47-.12-6.6-.12-6.89-1.16-.4-1.28-.11a50.61 50.61 0 0 0 0 5.34c0 1.92.16 3.26 1.31 3.73s2-.23 2.85-1.74.74-7.16.71-7.39-1.05-.07-1.19.03zm7 7.22a19.29 19.29 0 0 1 -2.45-2.62 8.84 8.84 0 0 0 1.91-2.22 1.89 1.89 0 0 0 -1.34-2.75 4.56 4.56 0 0 0 -2.65.47c-.21.2-.21 8-.21 8s1.25.2 1.31.1 0-2.68 0-2.68.4.57 1.24 1.54a8.38 8.38 0 0 0 2.28 1.91c.24 0 .84-.6.94-.77s0-.16-1.04-.96zm-3.19-3.9a15.32 15.32 0 0 1 .13-2.68c.17-.07 1.58-.37 1.55.77s-1.22 2.17-1.69 1.93z"/></g></svg>