<svg height="64" viewBox="0 0 64 64" width="64" xmlns="http://www.w3.org/2000/svg"><path d="m34 64c-6.28 0-15.34-1.08-18.28-2.62-3.81-2-4.84-5.66-5.31-8.62-.48-3.12-2.41-27.07-2.76-31.87a6 6 0 0 1 -1.94-3.65c-.21-2.51 1.94-6.41 8.67-9.17a37.19 37.19 0 0 1 9.71-2.49c0-1.79.44-3.55 1.79-4.33a12.25 12.25 0 0 1 5.64-1.25 13 13 0 0 1 1.68.11c2.27.31 6.12 1.24 6.33 4.06v1.23a46.56 46.56 0 0 1 10.76 3c8.43 3.68 8.16 8 7.88 9.2a7 7 0 0 1 -1.15 2.6c.06 2.89.19 13.16-.42 21.78-.89 12.56-2 16.11-3.34 17.57-2 2.2-9.64 3.87-15.74 4.33-1.03.12-2.22.12-3.52.12z" fill="#fff"/><path d="m9.52 19.94a4.72 4.72 0 0 1 -1.88-2.86c-.13-1.62 1.57-4.79 7.48-7.21a33.81 33.81 0 0 1 11-2.51s-.44-3.76.72-4.43a11.13 11.13 0 0 1 6.1-.93c2.33.31 4.57 1.12 4.66 2.28a20.93 20.93 0 0 1 -.05 2.78 45.6 45.6 0 0 1 12 3.09c5.65 2.46 7.17 5.24 6.76 7a3.77 3.77 0 0 1 -1.2 2.28s.31 12.27-.41 22.39-1.61 15.09-2.82 16.39-7.25 3.18-14.46 3.71-18.14-.89-20.78-2.28-3.76-3.85-4.3-7.21-2.82-32.49-2.82-32.49z" fill="#604f58"/><path d="m30.93 23.44c-15.77.62-19-2-19-2-.18.4.76 7.93 1.3 13.25s1.43 20.2 3.49 21.9 7.28 3.52 16.67 3.41a50.37 50.37 0 0 0 11.14-1.32 20.94 20.94 0 0 1 -2.41-2.26c.09-.13.49-.62.85-.53a14.92 14.92 0 0 1 2.82 2.46l1.05-.35c-.8-.86-2.58-2.8-2.44-2.94s.41-.63.72-.54a20.26 20.26 0 0 1 2.8 3.09c.38-.15.73-.3 1-.45-.78-.9-2.61-3-2.61-3.18s.45-.67.67-.58a35 35 0 0 1 3 3 .1.1 0 0 0 .05 0 3.33 3.33 0 0 0 .6-1.06 23.51 23.51 0 0 1 -2.79-3.06c0-.27.22-.71.53-.71a15.26 15.26 0 0 1 2.62 2.61c.1-.41.2-.86.29-1.36a19.06 19.06 0 0 1 -1.92-2.06c0-.18.31-.67.58-.67a6.84 6.84 0 0 1 1.58 1.23c.24-1.68.45-3.73.66-6.11.54-6.14.81-24.63.81-24.63s-6.3 2.23-22.06 2.86z" fill="#f9f2ed"/><path d="m28 3.87a16.84 16.84 0 0 1 6.59-.23c1.7.45 1.61 1.53 1.34 4.17s-.49 4.16-1 4.34a18.62 18.62 0 0 1 -5.55-.4 2.82 2.82 0 0 1 -1.48-2.38c-.15-1.11-.33-5.23.1-5.5z" fill="#ddeff2"/><path d="m26.22 9.55a3.49 3.49 0 0 0 2.33 3.32 15.35 15.35 0 0 0 6.09.49 3.19 3.19 0 0 0 2.36-2.1 3.89 3.89 0 0 0 .26-1.71s7.57.77 12 3.23 4.52 3.76 4.3 4.57-7.26 4.12-22.48 3.89-18.87-1.52-20.8-3.54 4.21-5.55 8.78-6.67 7.16-1.48 7.16-1.48z" fill="#f39a9b"/><path d="m14.8 24.64c.3-.34.81.09.9.32a15 15 0 0 1 .05 3.4c-.18.09-.72.14-.9-.13a9.83 9.83 0 0 1 -.05-3.59z" fill="#604f58"/></svg>