<svg height="64" viewBox="0 0 64 64" width="64" xmlns="http://www.w3.org/2000/svg"><path d="m34 64c-6.29 0-15.35-1.08-18.29-2.62-3.81-2-4.84-5.66-5.31-8.62-.47-3.12-2.4-27.07-2.75-31.87a6 6 0 0 1 -1.94-3.65c-.21-2.51 1.94-6.41 8.68-9.17a37.14 37.14 0 0 1 9.7-2.49c0-1.79.44-3.55 1.79-4.33a12.28 12.28 0 0 1 5.64-1.25 13 13 0 0 1 1.68.11c2.27.3 6.11 1.24 6.33 4.06v1.23a46.56 46.56 0 0 1 10.76 3c8.43 3.68 8.16 8 7.87 9.2a6.69 6.69 0 0 1 -1.14 2.6c.06 2.9.19 13.16-.42 21.78-.89 12.56-2 16.11-3.34 17.57-2 2.2-9.64 3.87-15.74 4.33-1.03.12-2.22.12-3.52.12z" fill="#fff"/><path d="m9.52 19.94a4.77 4.77 0 0 1 -1.88-2.86c-.13-1.62 1.57-4.79 7.48-7.21a33.81 33.81 0 0 1 11-2.51s-.44-3.76.72-4.43a11.14 11.14 0 0 1 6.1-.93c2.33.31 4.57 1.12 4.66 2.28a20.93 20.93 0 0 1 -.05 2.78 45.6 45.6 0 0 1 12 3.09c5.65 2.46 7.17 5.24 6.77 7a3.8 3.8 0 0 1 -1.21 2.28s.31 12.27-.41 22.39-1.61 15.09-2.82 16.39-7.25 3.18-14.46 3.71-18.14-.89-20.78-2.28-3.76-3.85-4.3-7.21-2.82-32.49-2.82-32.49z" fill="#604f58"/><path d="m30.93 23.44c-15.77.62-19-2-19-2-.18.4.76 7.93 1.3 13.25s1.43 20.2 3.49 21.9 7.28 3.52 16.67 3.41a50.55 50.55 0 0 0 11.15-1.32 20.45 20.45 0 0 1 -2.42-2.26c.09-.13.49-.62.85-.53a14.92 14.92 0 0 1 2.82 2.46l1.05-.35c-.8-.86-2.57-2.8-2.44-2.94s.41-.63.72-.54a20.26 20.26 0 0 1 2.8 3.09c.38-.15.73-.3 1-.45-.78-.9-2.61-3-2.61-3.18s.45-.67.67-.58a36.26 36.26 0 0 1 3 3 3.33 3.33 0 0 0 .6-1.06 23.51 23.51 0 0 1 -2.79-3.06c0-.27.22-.71.53-.71a15.26 15.26 0 0 1 2.62 2.61c.1-.41.2-.86.29-1.36a19.06 19.06 0 0 1 -1.92-2.06c0-.18.31-.67.58-.67a6.84 6.84 0 0 1 1.58 1.23c.24-1.68.45-3.73.66-6.11.54-6.14.81-24.63.81-24.63s-6.25 2.23-22.01 2.86z" fill="#f9f2ed"/><path d="m28 3.87a16.78 16.78 0 0 1 6.58-.23c1.7.45 1.61 1.53 1.34 4.17s-.49 4.16-1 4.34a18.62 18.62 0 0 1 -5.55-.4 2.84 2.84 0 0 1 -1.48-2.38c-.14-1.11-.32-5.23.11-5.5z" fill="#ddeff2"/><path d="m26.22 9.55a3.49 3.49 0 0 0 2.33 3.32 15.35 15.35 0 0 0 6.09.49 3.19 3.19 0 0 0 2.36-2.1 3.89 3.89 0 0 0 .26-1.71s7.57.77 12 3.23 4.52 3.76 4.3 4.57-7.26 4.12-22.48 3.89-18.87-1.52-20.8-3.54 4.21-5.55 8.78-6.67 7.16-1.48 7.16-1.48z" fill="#fcdfc8"/><g fill="#604f58"><path d="m14.81 24.64c.29-.34.8.09.89.32a14.42 14.42 0 0 1 .05 3.4c-.18.09-.72.14-.9-.13a9.62 9.62 0 0 1 -.04-3.59z"/><path d="m21.63 31.61a3.06 3.06 0 0 0 -1.2 3.39c.26 1.38 2 2.75 2 4.53s-2 3-2 3.26-.14.81.07.87a3.33 3.33 0 0 0 2-.94 4 4 0 0 0 1.14-3.22c0-1-1.81-3.49-2.05-4.37s-.43-2.75 2.09-3c.28 0 .1-.84 0-1s-.94-.13-2.05.48zm6.37 1.91c-.2.24-.14 6.75-.64 6.95s-.54-.1-.74-.27-.13-6.34-.13-6.58-.92-.23-.94 0-.24 4.06-.17 5.84.54 2.19 1.17 2.35a1.72 1.72 0 0 0 2.19-.94c.6-1.17.53-7.12.47-7.35s-1.06-.23-1.21 0zm5 4.67c-.2.13 0 2.22-.17 3.16s-.4.87-.7.74-.4-1-.47-3.53.2-4.2.77-4.43.67.77.67.77a1.78 1.78 0 0 0 .54 0c.2 0 .57-.27.47-1.11a1.36 1.36 0 0 0 -1.51-1.14c-1.75.1-1.92 2-2 4.13s-.3 5.41.74 6.25a1.51 1.51 0 0 0 2.42-.71 11.76 11.76 0 0 0 .23-2.78c0-.14.74-.17 1-.24s.23-.74 0-.94a4 4 0 0 0 -1.99-.17zm4-4.94c-.24.37-1.62 10.28-1.52 10.45s1.11.06 1.21-.07.34-3.22.44-3.26a3.07 3.07 0 0 1 1.21 0 19.09 19.09 0 0 1 .5 3.13s1.21 0 1.28-.1-1.82-10.15-2-10.31a.87.87 0 0 0 -1.2.16zm1.27 5.65a2 2 0 0 1 -1.27.1s.23-2.75.33-2.89.34-.33.44-.2a10.66 10.66 0 0 1 .42 2.99zm5.13-1.9s.27-.14.87-.54 1-1 1.14-2.72-.94-2-1.88-2a2.9 2.9 0 0 0 -2 1v8.87c.14.27 1.21.3 1.31.2s-.1-2.42.14-2.42 1.74 3.76 1.88 3.8a1.51 1.51 0 0 0 .87-.74c.15-.4-2.33-5.45-2.33-5.45zm-.4-1.4v-2.45a2.77 2.77 0 0 1 .94-.43c.31 0 .64.5.47 1.47s-1.18 1.65-1.41 1.41z"/></g></svg>