<svg height="64" viewBox="0 0 64 64" width="64" xmlns="http://www.w3.org/2000/svg"><path d="m34.78 64c-1.1 0-2.23 0-3.36-.12a11.13 11.13 0 0 1 -7-3.14l-.1-.09c-.84-.75-1.22-1.1-1.39-1.81a3.61 3.61 0 0 1 -.1-.79 10.73 10.73 0 0 1 -3.83-.93c-.44-.28-1.4-.89-2-4.73-2.33 0-6.09-.11-7.16-.26a7.22 7.22 0 0 1 -5.53-5.28c-.51-2.35-1.65-13.57-2.18-20-.18-2.16-.38-4.37-.56-6.43-.69-7.5-.78-8.84-.63-9.53.38-1.73 2.81-3.73 4.85-4.59a19.56 19.56 0 0 1 3.3-1c-.05-2.1.12-2.37.36-2.76s1.64-2.1 6-2.49a6.68 6.68 0 0 1 .76 0c3.66 0 5.92 2.51 6.32 3.86a5.64 5.64 0 0 1 .16 1.21 49 49 0 0 1 4.79 1c2 .58 4.4 1.59 4.74 4.22.12.91-.35 8.2-.74 13.71a3.83 3.83 0 0 1 .82-1.78c1.34-1.49 3.39-2.21 6.48-2.27h.16a6.67 6.67 0 0 1 6 3.44 47.75 47.75 0 0 1 9 2c5.06 1.73 8.8 5.32 9.25 7.12s-2.17 21.77-2.22 21.9c-.59 1.78-2.49 4-8.2 4.42-2.25.16-3.75.23-4.73.26a7.25 7.25 0 0 1 -4 3.43 24.56 24.56 0 0 1 -9.26 1.43z" fill="#fff"/><path d="m11.1 6.88a22.91 22.91 0 0 1 0-3.32c.16-.26 1.27-1.3 4.49-1.59a4.93 4.93 0 0 1 5 2.44 11.85 11.85 0 0 1 .06 2.31 57.75 57.75 0 0 1 6.26 1.28c2.6.75 3.22 1.6 3.35 2.61s-.91 15.58-.91 15.58 1.23-.13 2.4-.2 1.5-.1 1.5-.1-.1-1.69.46-2.31 1.72-1.56 5.07-1.62a4.73 4.73 0 0 1 4.49 2.63l.1.65a45.18 45.18 0 0 1 9.82 2.09c4.94 1.69 7.81 5 8 5.75s-1.82 19.73-2.19 20.8-1.69 2.73-6.5 3.09a51 51 0 0 1 -6 .26s0 2.21-3.29 3.58-8.37 1.37-11.65 1.19a9.41 9.41 0 0 1 -5.89-2.73c-.68-.62-.78-.72-.81-.85s-.13-2.11-.13-2.11-3.81-.31-4.73-.83-1.36-5-1.36-5-7.22-.07-8.59-.26a5.28 5.28 0 0 1 -3.9-3.78c-.42-2.09-1.52-12.66-2.15-19.72s-1.33-14.67-1.16-15.42 1.79-2.41 3.7-3.22a22.51 22.51 0 0 1 4.56-1.2z" fill="#604f58"/><path d="m42.65 53.88a1.3 1.3 0 0 1 .75-.65 17.31 17.31 0 0 1 1.3 1.88c.36-2.59.75-6.11.75-6.11a39 39 0 0 1 -10.67 1.08c-6.34-.17-9-1.31-9-1.31a66.71 66.71 0 0 0 1.2 9.11c.26.39 4.68 2 9 1.95a19.64 19.64 0 0 0 3-.26 16.85 16.85 0 0 1 -1.98-2.66c.1-.2.62-.69.85-.52a17.31 17.31 0 0 1 2.45 2.91c.34-.08.66-.16 1-.25a17.1 17.1 0 0 1 -2.15-3c.13-.22.75-.55 1-.32a31.12 31.12 0 0 1 2.22 2.95 6.71 6.71 0 0 0 .69-.26c-.64-.84-2.16-2.88-2-3.12s.69-.52.78-.45 1.6 2.29 2.16 3.15a.88.88 0 0 0 .26-.22 4 4 0 0 0 .23-1 18.91 18.91 0 0 1 -1.84-2.9z" fill="#f9f2ed"/><path d="m50.2 52.42c.16-.3.55-.62.75-.52a23.61 23.61 0 0 1 2.15 2.82c.55-.09 1.08-.19 1.56-.29a22.81 22.81 0 0 1 -2.15-3.54c.09-.29.75-.59.91-.49s1.94 2.86 2.44 3.72a3.34 3.34 0 0 0 1.08-.49c-.77-1-2.87-3.9-2.87-4.11s.65-.91.84-.68 1.59 2.16 2.41 3.35c.06-.35.11-.75.17-1.2a35.46 35.46 0 0 1 -2.49-3.74c.07-.23.36-.79.62-.69a18.59 18.59 0 0 1 2 2.78q.11-.87.21-1.83a21.27 21.27 0 0 1 -1.52-2.51c0-.22.33-1.17.52-1.1a10.44 10.44 0 0 1 1.28 1.79c.56-5.15 1.1-10.93 1.1-10.93a4.47 4.47 0 0 1 -1.5.62 32.56 32.56 0 0 1 -7.19 1.52 176.65 176.65 0 0 1 -20.65.59c-8.46-.2-11.37-2.44-11.45-2.28-.17.33 2.89 18.41 3.09 18.64a6.64 6.64 0 0 0 2.66.13c.2-.13-1.07-6.47-1.07-7.25s-.23-2 1.95-3.29a27.51 27.51 0 0 1 5.44-2.08s-.13-1.33.16-1.63a10.19 10.19 0 0 1 3.74-.91 16.57 16.57 0 0 1 4.39.36c.46.29.23 2 .23 2a14.53 14.53 0 0 1 3.84.81 12.19 12.19 0 0 1 5 3c.16.39-1.21 10.15-1.21 10.15s.26 0 3-.07c.69 0 1.48-.09 2.27-.19-.65-.77-1.83-2.25-1.71-2.46z" fill="#f9f2ed"/><path d="m27.46 26.56s0 0 0 0l-.07.06zm-1.53-5.14a6.47 6.47 0 0 1 1.89 1.51c.33-4.06.76-10.09.65-10.2a46.67 46.67 0 0 1 -12.88 2.48c-7.45.19-10.51-1.05-10.51-1.05-.06.23 2.64 28 2.9 30.16s1.52 3.61 2.7 3.77 7.57.07 7.57.07-1.78-11.65-2-14 .06-4.42 3.41-5.59c1.46-.51 3.12-.95 4.53-1.29a12.61 12.61 0 0 1 -1.93-1.9c.1-.16.56-.75.85-.49a28.32 28.32 0 0 1 2.32 2.11l1.21-.27a30.28 30.28 0 0 1 -2.73-2.73c0-.2.59-.85.79-.75a31.78 31.78 0 0 1 2.87 2.47c0-.36.08-.82.13-1.36a16.76 16.76 0 0 1 -2.35-2.09.72.72 0 0 1 .58-.85z" fill="#f9f2ed"/><path d="m12.6 4.7c0-.33 1.49-.94 3.35-.91s2.66.42 2.73.84-1.63.62-2.86.62-3.19.13-3.22-.55z" fill="#ddeff2"/><path d="m12.6 6.13a26.08 26.08 0 0 0 3.12.39c1.75.1 3.48-.29 3.54-.16a11.92 11.92 0 0 1 -.13 3.09 21 21 0 0 1 -4.06.32 3.31 3.31 0 0 1 -2.41-.88c-.23-.26-.33-2.76-.06-2.76z" fill="#ddeff2"/><path d="m11.46 9.15a3 3 0 0 0 1.72 1.44 9 9 0 0 0 4.26.48 4.06 4.06 0 0 0 2.77-1 2.17 2.17 0 0 0 .58-.81 37.21 37.21 0 0 1 5.08.78c1.3.42 1.46.52 1.49.74s-4.65 2.54-12.81 2.38-9.55-.69-9.66-1.27 2.18-2.67 6.57-2.74z" fill="#ef7d7b"/><path d="m33.58 28.35a2.05 2.05 0 0 0 1.26 1.75c1.21.46 3.84.39 5.66.2a2.53 2.53 0 0 0 2.35-1.6 2.43 2.43 0 0 0 .22-1 40.44 40.44 0 0 1 8.75 1.75c4.66 1.5 6 2.83 6 3.29s-7.26 2.57-19.82 2.67-16.36-1.41-18.09-1.79-1.56-1.27-.68-2 6.38-3.21 14.35-3.27z" fill="#f39a9b"/><path d="m34.62 24.93c0-.29 1.2-1.66 3.54-1.79s3.78 1.3 3.84 1.86-1 .94-3.9.87-3.45-.39-3.48-.94z" fill="#ddeff2"/><path d="m35.07 26.23c.1-.05.39.65 3 .72a10.44 10.44 0 0 0 3.74-.39s-.1 2.24-.82 2.53a18.83 18.83 0 0 1 -5.3 0c-.69-.22-.98-2.66-.62-2.86z" fill="#ddeff2"/><path d="m30.78 43.54a3.93 3.93 0 0 0 .65 1.46 10.61 10.61 0 0 0 4.39.75c2.11 0 2.76-.68 3-1a3.77 3.77 0 0 0 .33-1.24s3.41.88 4.81 1.44 1.47 1.17 1.43 1.36-1.75 1.47-10.08 1.5-10.12-1.4-10-1.63 1.69-1.99 5.47-2.64z" fill="#f6c687"/><path d="m31.75 40.8c.13-.42 2-.61 3.87-.61s2.28.71 2.31.94.36.85-2.89.81-3.48-.51-3.29-1.14z" fill="#ddeff2"/><path d="m31.69 42.3s.68.39 3.28.36 2.74-.1 2.77.06.13 1.63-.13 1.83-1.4.22-3.55.06-2.05-.68-2.24-.94a2.26 2.26 0 0 1 -.13-1.37z" fill="#ddeff2"/><g fill="#604f58"><path d="m28.05 51.51c0-.14.68-.17.78 0s1.14 4.06.91 4.36-.88.39-1 .19a42 42 0 0 1 -.69-4.55z"/><path d="m27.85 30.33a16.19 16.19 0 0 0 -2.8.65 1.24 1.24 0 0 0 -.32 1.95 3.05 3.05 0 0 0 2.11.75c.36 0 .43-.68.33-.78s-1.6-.16-1.5-.62 1.53-.71 2-.81.18-.94.18-1.14z"/><path d="m7.16 17.94c.07-.13 1.21-.52 1.27-.33s.59 10 .49 10.18-1 .33-1.07.2-.85-9.79-.69-10.05z"/></g></svg>