<svg height="64" viewBox="0 0 64 64" width="64" xmlns="http://www.w3.org/2000/svg"><path d="m32.66 64c-9 0-16.32-1.32-19.8-2.46-4.86-1.54-7.33-3.83-7.95-5.26-.3-.71-.31-1.67-.24-6.72 0-2.94.1-6.59 0-10a71.63 71.63 0 0 0 -1.85-14.67 5.76 5.76 0 0 0 -.72-1.42 7.09 7.09 0 0 1 -1.1-2.4c-.49-2.43 2.46-6.65 8.07-9.22 4.57-2.1 11.3-2.86 13.7-3.07a16.44 16.44 0 0 1 -.57-3.58c.15-2.05 4-4.74 8.79-5.14.47 0 .92-.06 1.34-.06 4.72 0 6.48 2.31 6.9 3 .25.42.53.88.46 5.28a45.91 45.91 0 0 1 13.68 2.51c7.52 2.73 9.41 6.37 9.68 9a13.15 13.15 0 0 1 -.56 3.65 60.16 60.16 0 0 0 -1.63 10.44c-.23 4-.28 9.39-.32 13.73 0 4.76-.07 6.49-.2 7.17l-.05.26a6.32 6.32 0 0 1 -4.2 5.37c-2.79 1.09-6.6 2.59-17.44 3.38-1.95.14-3.97.21-5.99.21z" fill="#fff"/><path d="m4.7 24.42c-.35-1.42-1.57-2.51-1.81-3.73s1.88-4.74 7-7.08 13.25-2.93 13.88-3l1.36-.07s-1-4.74-1-5.23 2.44-3 7-3.35 6.1 1.5 6.42 2 .14 6.21.14 6.21a45 45 0 0 1 15 2.41c7.4 2.69 8.27 6 8.41 7.33s-1.78 6.45-2.2 13.78-.24 19.36-.49 20.65-.38 3.11-3.07 4.19-6.34 2.6-16.83 3.33-20.44-.66-25-2.16-6.51-3.46-6.82-4.19.11-8.83-.07-16a74.24 74.24 0 0 0 -1.92-15.09z" fill="#604f58"/><path d="m49.22 53.84c.11-.28.66-.77.91-.67a26.48 26.48 0 0 1 2.95 3.61 9.25 9.25 0 0 0 1.08-.67c-.85-1-3.19-3.7-3.16-3.84s.63-.84.87-.7a36.15 36.15 0 0 1 3.13 3.77 3.83 3.83 0 0 0 .66-.94c-.85-1-3.25-3.73-3.25-3.84s.62-.84.8-.81a37.74 37.74 0 0 1 2.79 3.15c0-.58.07-1.36.09-2.26a20.12 20.12 0 0 1 -2.28-2.7c.07-.21.56-.94.8-.87a9.25 9.25 0 0 1 1.5 1.49c0-3.68 0-8.42.14-11.72a81.84 81.84 0 0 1 2-13.08 51.62 51.62 0 0 1 -7 1.82c-5.45 1.18-12.74 1.84-26.1 1.57s-17.86-2-17.86-2a90.14 90.14 0 0 1 1.71 12.39c.24 5.27.38 16.92.63 17.41s2.13 1.61 6.94 2.86a81.74 81.74 0 0 0 23.24 1.54c4.26-.48 7-.89 8.87-1.25a17.2 17.2 0 0 1 -2.24-2.52c.07-.21.83-.87 1.08-.77a19.3 19.3 0 0 1 2.6 3c.57-.13 1-.26 1.44-.37l.24-.08a24 24 0 0 1 -2.58-3.52z" fill="#f9f2ed"/><path d="m5.47 20.24c0-.71 2.51-3.32 8.13-5.2a37.34 37.34 0 0 1 10.89-2h1.32a5 5 0 0 0 2.19 3.08c1.67.84 4.22.77 5.69.66a6 6 0 0 0 3.45-1.88 4.09 4.09 0 0 0 .6-1.9 24.13 24.13 0 0 1 9.95 1.11c6 1.78 10.64 4.12 10.85 5.51s-7.16 4.38-16.78 4.94-24.32.11-28.47-.45-7.75-1.78-7.82-3.87z" fill="#c5dda3"/><path d="m25.5 5.62c0-.31 2.37-1.89 5.82-2.16s5.38 1.54 5.45 2.33.17 6.32-.56 7.64-2 2.24-5 2.17-3.32-1-3.87-2.34a50.44 50.44 0 0 1 -1.84-7.64z" fill="#ddeff2"/><g fill="#604f58"><path d="m27 5.65s.84-.52.84-.21-.1 1 .7 1.12 4.57-.14 4.64.07.17.87-.07 1.08a19.86 19.86 0 0 1 -4.78.11c-1.33-.14-1.57-.49-1.78-1s.34-1.03.45-1.17z"/><path d="m10.8 28.73c.3-.36.83.09.93.32a60.52 60.52 0 0 1 .27 7.06c-.19.09-.74.14-.93-.14s-.55-6.92-.27-7.24z"/></g></svg>