<svg height="64" viewBox="0 0 64 64" width="64" xmlns="http://www.w3.org/2000/svg"><path d="m34 64c-6.28 0-15.34-1.08-18.28-2.62-3.81-2-4.84-5.66-5.31-8.62-.48-3.12-2.41-27.07-2.76-31.87a6 6 0 0 1 -1.94-3.65c-.21-2.51 1.94-6.41 8.67-9.17a37.19 37.19 0 0 1 9.71-2.49c0-1.79.44-3.55 1.79-4.33a12.28 12.28 0 0 1 5.64-1.25 13 13 0 0 1 1.68.11c2.27.3 6.11 1.24 6.33 4.06v1.23a46.56 46.56 0 0 1 10.76 3c8.43 3.68 8.16 8 7.88 9.2a7 7 0 0 1 -1.15 2.6c.06 2.89.19 13.16-.42 21.78-.89 12.56-2 16.11-3.34 17.57-2 2.2-9.64 3.87-15.74 4.33-1.03.12-2.22.12-3.52.12z" fill="#fff"/><path d="m9.52 19.94a4.72 4.72 0 0 1 -1.88-2.86c-.13-1.62 1.57-4.79 7.48-7.21a33.81 33.81 0 0 1 11-2.51s-.44-3.76.72-4.43a11.13 11.13 0 0 1 6.1-.93c2.33.31 4.57 1.12 4.66 2.28a20.93 20.93 0 0 1 -.05 2.78 45.6 45.6 0 0 1 12 3.09c5.65 2.46 7.17 5.24 6.76 7a3.77 3.77 0 0 1 -1.2 2.28s.31 12.27-.41 22.39-1.61 15.09-2.82 16.39-7.25 3.18-14.46 3.71-18.14-.89-20.78-2.28-3.76-3.85-4.3-7.21-2.82-32.49-2.82-32.49z" fill="#604f58"/><path d="m30.93 23.44c-15.77.62-19-2-19-2-.18.4.76 7.93 1.3 13.25s1.43 20.2 3.49 21.9 7.28 3.52 16.67 3.41a50.37 50.37 0 0 0 11.14-1.32 20.94 20.94 0 0 1 -2.41-2.26c.09-.13.49-.62.85-.53a14.92 14.92 0 0 1 2.82 2.46l1.05-.35c-.8-.86-2.58-2.8-2.44-2.94s.41-.63.72-.54a20.26 20.26 0 0 1 2.8 3.09c.38-.15.73-.3 1-.45-.78-.9-2.61-3-2.61-3.18s.45-.67.67-.58a36.26 36.26 0 0 1 3 3 3.33 3.33 0 0 0 .6-1.06 23.51 23.51 0 0 1 -2.79-3.06c0-.27.22-.71.53-.71a15.26 15.26 0 0 1 2.62 2.61c.1-.41.2-.86.29-1.36a19.06 19.06 0 0 1 -1.92-2.06c0-.18.31-.67.58-.67a6.84 6.84 0 0 1 1.58 1.23c.24-1.68.45-3.73.66-6.11.54-6.14.81-24.63.81-24.63s-6.25 2.23-22.01 2.86z" fill="#f9f2ed"/><path d="m28 3.87a16.84 16.84 0 0 1 6.59-.23c1.7.45 1.61 1.53 1.34 4.17s-.49 4.16-1 4.34a18.62 18.62 0 0 1 -5.55-.4 2.82 2.82 0 0 1 -1.48-2.38c-.15-1.11-.33-5.23.1-5.5z" fill="#ddeff2"/><path d="m26.22 9.55a3.49 3.49 0 0 0 2.33 3.32 15.35 15.35 0 0 0 6.09.49 3.19 3.19 0 0 0 2.36-2.1 3.89 3.89 0 0 0 .26-1.71s7.57.77 12 3.23 4.52 3.76 4.3 4.57-7.26 4.12-22.48 3.89-18.87-1.52-20.8-3.54 4.21-5.55 8.78-6.67 7.16-1.48 7.16-1.48z" fill="#afc68c"/><g fill="#604f58"><path d="m14.81 24.64c.29-.34.8.09.89.32a15 15 0 0 1 .05 3.4c-.18.09-.72.14-.9-.13a9.62 9.62 0 0 1 -.04-3.59z"/><path d="m22.83 33.05a30.08 30.08 0 0 1 5.27.61c.07.16.07 1.37-.06 1.34s-1.72 0-1.72 0 .11 8-.06 8.09-1.31.1-1.35 0-.06-8.36-.06-8.36a16.59 16.59 0 0 1 -2.12-.24 4 4 0 0 1 .1-1.44z"/><path d="m29.55 34.29c.15-.18 3.69-.13 3.69.14s.1 1.24-.13 1.31a22.82 22.82 0 0 0 -2.62 0 19.75 19.75 0 0 0 0 2.79c.1 0 2.69 0 2.69.13s-.07.77-.07.77a22.32 22.32 0 0 0 -2.52.24 12.38 12.38 0 0 0 0 2.92c.2.07 3.05 0 3.09.13s-.07 1.21-.07 1.21-4.23.27-4.4 0 .2-9.47.34-9.64z"/><path d="m37.36 33.42c-.13-.27-1.31-.13-1.54.17s-.78 9.86-.71 10 1.45.07 1.45.07l.1-3.86s1.11 0 1.21 0 1 3.93 1.1 4a2.46 2.46 0 0 0 1.18-.1c.2-.24-2.65-10.01-2.79-10.28zm.34 5c-.14.14-1 0-1.08-.13a17.59 17.59 0 0 1 .17-2.92 9.31 9.31 0 0 1 .91 3.05z"/><path d="m41.87 26.4c.19-.15 3.19-.54 3.19-.71s0-4.26.11-4.4 1-.2 1.17.14.17 4.2.17 4.2a13.74 13.74 0 0 1 2.11-.07c.24.1.24 8.46.14 8.86a2.06 2.06 0 0 1 -1.76 1.58c-1.18.07-3.09 0-4 0s-1.38-1-1.45-1.61-.01-7.72.32-7.99z"/></g><path d="m42.91 27.57c.1-.1 4.51-.8 4.57-.57s-.06 7.59-.17 7.66-4.4-.1-4.4-.1-.2-6.75 0-6.99z" fill="#fcdfc8"/></svg>