<svg height="64" viewBox="0 0 64 64" width="64" xmlns="http://www.w3.org/2000/svg"><path d="m34 64c-6.28 0-15.34-1.08-18.28-2.62-3.81-2-4.84-5.66-5.31-8.62-.48-3.12-2.41-27.07-2.76-31.87a6 6 0 0 1 -1.94-3.65c-.21-2.51 1.94-6.41 8.68-9.17a37 37 0 0 1 9.7-2.49c0-1.79.44-3.55 1.79-4.33a12.25 12.25 0 0 1 5.64-1.25 13 13 0 0 1 1.68.11c2.27.31 6.12 1.24 6.33 4.06v1.23a46.56 46.56 0 0 1 10.76 3c8.43 3.68 8.16 8 7.87 9.2a6.85 6.85 0 0 1 -1.14 2.6c.06 2.9.19 13.16-.42 21.78-.89 12.56-2 16.11-3.34 17.57-2 2.2-9.64 3.87-15.74 4.33-1.03.12-2.22.12-3.52.12z" fill="#fff"/><path d="m9.52 19.94a4.72 4.72 0 0 1 -1.88-2.86c-.13-1.62 1.57-4.79 7.48-7.21a33.81 33.81 0 0 1 11-2.51s-.44-3.76.72-4.43a11.13 11.13 0 0 1 6.1-.93c2.33.31 4.57 1.12 4.66 2.28a20.93 20.93 0 0 1 -.05 2.78 45.6 45.6 0 0 1 12 3.09c5.65 2.46 7.17 5.24 6.77 7a3.8 3.8 0 0 1 -1.21 2.28s.31 12.27-.41 22.39-1.61 15.09-2.82 16.39-7.25 3.18-14.46 3.71-18.14-.89-20.78-2.28-3.76-3.85-4.3-7.21-2.82-32.49-2.82-32.49z" fill="#604f58"/><path d="m30.93 23.44c-15.77.62-19-2-19-2-.18.4.76 7.93 1.3 13.25s1.43 20.2 3.49 21.9 7.28 3.52 16.67 3.41a49.78 49.78 0 0 0 11.14-1.32 20.94 20.94 0 0 1 -2.41-2.26c.09-.13.49-.62.85-.53a14.92 14.92 0 0 1 2.82 2.46l1.05-.35c-.8-.86-2.58-2.8-2.44-2.94s.41-.63.72-.54a20.26 20.26 0 0 1 2.8 3.09c.38-.15.73-.3 1-.45-.78-.9-2.61-3-2.61-3.18s.45-.67.67-.58a36.26 36.26 0 0 1 3 3 3.33 3.33 0 0 0 .6-1.06 23.51 23.51 0 0 1 -2.79-3.06c0-.27.22-.71.53-.71a15.26 15.26 0 0 1 2.62 2.61c.1-.41.2-.86.29-1.36a19.06 19.06 0 0 1 -1.92-2.06c0-.18.31-.67.58-.67a6.84 6.84 0 0 1 1.58 1.23c.24-1.68.45-3.73.66-6.11.54-6.14.81-24.63.81-24.63s-6.25 2.23-22.01 2.86z" fill="#f9f2ed"/><path d="m28 3.87a16.84 16.84 0 0 1 6.59-.23c1.7.45 1.61 1.53 1.34 4.17s-.49 4.16-1 4.34a18.62 18.62 0 0 1 -5.55-.4 2.82 2.82 0 0 1 -1.48-2.38c-.15-1.11-.33-5.23.1-5.5z" fill="#ddeff2"/><path d="m26.22 9.55a3.49 3.49 0 0 0 2.33 3.32 15.35 15.35 0 0 0 6.09.49 3.19 3.19 0 0 0 2.36-2.1 3.89 3.89 0 0 0 .26-1.71s7.57.77 12 3.23 4.52 3.76 4.3 4.57-7.26 4.12-22.48 3.89-18.87-1.52-20.8-3.54 4.21-5.55 8.78-6.67 7.16-1.48 7.16-1.48z" fill="#83a7d8"/><g fill="#604f58"><path d="m14.81 24.64c.29-.34.8.09.89.32a15 15 0 0 1 .05 3.4c-.18.09-.72.14-.9-.13a9.62 9.62 0 0 1 -.04-3.59z"/><path d="m21.86 34.43a1.45 1.45 0 0 0 -1.44-1c-.81.07-2.35 1.71-2.25 5.24s1.68 4.43 2.41 4.5 1.25-1 1.52-1.91a.76.76 0 0 0 -.88-1c-.17.1-.2 1.51-.8 1.55s-1.21-1.68-1.18-3.63.87-3.76 1.41-3.69.51 1.1.91 1.1.5-.59.3-1.16z"/><path d="m25.69 34.06c-1.78-.07-2.22 3.09-2.18 5.07s.26 4.37 2 4.27 2.05-1.52 2.15-4.94-.93-4.36-1.97-4.4zm1 4.8c0 2.52-.1 3.33-1.11 3.33s-.94-1.82-1-3.19 0-3.66 1.21-3.53c.73.08.91.87.87 3.39z"/><path d="m28.85 42.22s-.27-8 .1-8.09 2.88-.14 3 .13.13 1.14 0 1.18-2.15-.17-2.15 0a6.57 6.57 0 0 0 0 1.41 9.23 9.23 0 0 1 2 .07c0 .13.17 1 0 1.11a13.69 13.69 0 0 1 -1.88.13 35.22 35.22 0 0 1 0 4.23 3.16 3.16 0 0 1 -1.07-.17z"/><path d="m33.08 43.29c-.08-.07-.07-9 0-9.16s3.59-.37 3.76 0 .24.91.07 1-2.62.07-2.62.27-.27 1.88-.07 1.88a13.44 13.44 0 0 1 2.56 0c0 .17.06.91-.07.94a14.65 14.65 0 0 0 -2.45.17c0 .17.06 4.8 0 4.9a2.12 2.12 0 0 1 -1.18 0z"/><path d="m38.85 33.69s3.8-.3 3.87 0a1.7 1.7 0 0 1 0 .84c-.06.17-3 .14-3 .37s0 3 0 3a10.48 10.48 0 0 1 2.28-.01 4.69 4.69 0 0 1 -.06 1.11s-2.21-.1-2.21.1-.17 4 0 4 2.52-.31 2.56-.1a3.19 3.19 0 0 1 -.07 1.1 11.78 11.78 0 0 1 -3.66.37c-.21-.2.13-10.41.29-10.78z"/><path d="m44.56 33.25a12.42 12.42 0 0 1 3.66-.16 5.56 5.56 0 0 1 .07 1 10.6 10.6 0 0 0 -2.52.2c0 .2-.13 2.79 0 2.82s2.28-.27 2.32 0a6.31 6.31 0 0 1 -.1 1 10 10 0 0 0 -2.25.17 29 29 0 0 0 .06 3.86c.17.07 1.75-.13 1.75 0a6.4 6.4 0 0 1 -.1 1.18 11.26 11.26 0 0 1 -2.89.23c-.23-.12 0-10.06 0-10.3z"/></g></svg>