<svg height="64" viewBox="0 0 64 64" width="64" xmlns="http://www.w3.org/2000/svg"><path d="m38.22 64a13.35 13.35 0 0 1 -6.91-1.75 7.93 7.93 0 0 1 -3.14-5.36c0-.37-.11-4.63-.17-8.27h-.21a5 5 0 0 1 -1.27-.18c-.94-.25-2.46-1.09-2.33-3.87h-.19c-3.18 0-7.76-.52-11.49-3-5.51-3.67-7.66-5.69-8.84-12.4-1.09-6.17-.31-11.38 2.33-15.32 2.48-3.75 9-9.07 15.17-11.15a59 59 0 0 1 17.2-2.7 32.8 32.8 0 0 1 5.23.38 21 21 0 0 1 14.84 10.23c3.21 5.26 2.61 12.81 1.39 15.39s-6.84 8-6.9 8c-.54.51-1 .94-1.44 1.29 1 1.61.88 2.36.84 2.69a3.71 3.71 0 0 1 -1 2.33c1.38 2.59 3.69 6.92 4.1 7.85.89 2 0 5.78-1.88 8.08a25.62 25.62 0 0 1 -11.15 7.21 16.06 16.06 0 0 1 -4.18.55z" fill="#fff"/><path d="m26.29 42.52s-7.44.92-12.67-2.57-7-5.1-8-11.11-.18-10.61 2-13.92 8.31-8.4 14.19-10.38 15.34-3.26 21.5-2.25a19 19 0 0 1 13.5 9.33c2.94 4.82 2.16 11.71 1.28 13.54s-4.84 5.84-6.49 7.44a22.3 22.3 0 0 1 -2.76 2.3s1.66 2.1 1.56 2.85-.27 1-.55 1.24a5.88 5.88 0 0 1 -1.28.37s4.5 8.35 5 9.59-.04 4.23-1.57 6.05a24 24 0 0 1 -10.15 6.56 12.7 12.7 0 0 1 -9.5-1 6 6 0 0 1 -2.26-3.9c0-.51-.22-11.85-.22-11.85a5.6 5.6 0 0 1 -.87 1.3 1.72 1.72 0 0 1 -2 .46c-1.2-.33-.88-1.93-.88-2.3s.17-1.75.17-1.75z" fill="#604f58"/><path d="m50.72 48.23c-1.18-.17-5.75-.82-5.87-1s-.42-.59-.09-.68a50.57 50.57 0 0 1 5.31.41c-.22-.4-.49-.88-.79-1.4a37.53 37.53 0 0 1 -5.21-.56c0-.23-.42-.87-.1-1a41 41 0 0 1 4.53.16l-.67-1.16a23.9 23.9 0 0 1 -4.13-.23c-.09-.23-.6-.64-.28-.87a12.84 12.84 0 0 1 3.7-.14l-1.58-2.76s-.51.19-1.2-.5-.55-1.75-1.42-2.11-1.1 1.7-1.61 2.15a1.64 1.64 0 0 1 -1.56.51c-.55-.14-1.19-1.24-2-1.7s-1.42.28-2.25 1.1-.5 2.57-1 3.13-3.25.63-3.35.73.32.83.78 1.33.14 11.07.14 11.07a10.92 10.92 0 0 1 2.66-2.62 23.89 23.89 0 0 1 7.9-3.07c3.31-.65 7.9.18 8.27.13s.1-.38-.18-.92z" fill="#f9f2ed"/><path d="m47.6 49.73a21.57 21.57 0 0 0 -11.48 2.76c-4 2.16-3.89 4.3-3.63 5a4.33 4.33 0 0 0 2.21 1.93 11.68 11.68 0 0 0 4.92.29 7.12 7.12 0 0 1 -1.57-1.3c0-.28.41-.78.73-.69a17.74 17.74 0 0 1 2.79 1.63 13.46 13.46 0 0 0 1.43-.47c-1-.63-2.94-1.91-3-2.26s.46-.78.69-.73a20.66 20.66 0 0 1 3.68 2.42l.54-.26c.56-.3 1.07-.61 1.55-.92a46.4 46.4 0 0 1 -4.39-2.62c-.14-.27-.19-.73.18-.73a28.14 28.14 0 0 1 5.24 2.61c.27-.21.53-.42.77-.63a35.69 35.69 0 0 1 -4.33-2.76c0-.28.69-.78 1.15-.64a32.11 32.11 0 0 1 4.05 2.6 12.25 12.25 0 0 0 1.17-1.46 19.63 19.63 0 0 1 -3.2-1.84c-.14-.32.41-.59.78-.55a11.78 11.78 0 0 1 3.12 1.3 4 4 0 0 0 .32-.88c.19-1.2-.23-1.53-3.72-1.8z" fill="#fff"/><path d="m51.87 24.7c-1.56-1.56-2.8-1.83-2.8-2.11s.23-.82.55-.82a12.44 12.44 0 0 1 3.38 2.34 10.71 10.71 0 0 1 1.67 1.89 12 12 0 0 0 .88-1.51 23.39 23.39 0 0 0 -2.71-2.78 4.71 4.71 0 0 0 -2.16-1.05s0-1.11.51-1.11a7.44 7.44 0 0 1 3.16 1.93c.58.58 1.25 1.29 1.68 1.8a10.36 10.36 0 0 0 .52-2.32 16.6 16.6 0 0 0 -2.79-2.6 19.12 19.12 0 0 0 -2.39-1.24c-.09-.18-.14-1 .14-1a9.76 9.76 0 0 1 2.66 1.19c.5.37 1.71 1.35 2.43 2a15.54 15.54 0 0 0 -.37-2.67 5.69 5.69 0 0 0 -2.11-1.88 7.8 7.8 0 0 0 -2.43-.69c-.28-.09-.41-1.24 0-1.29a6.68 6.68 0 0 1 2.48.6 9.44 9.44 0 0 1 1.29.84 15.21 15.21 0 0 0 -7.46-7.79c-6.57-3.36-15.85-2.58-24.8.41s-13 7.58-14.47 11-2.3 10.61.64 15.48 10.36 6.68 10.36 6.68a19.78 19.78 0 0 1 -.6-6.89c.46-3.11 2.39-5.11 7.67-8.31s9.78-4.8 16.49-3.17a10.34 10.34 0 0 1 7.8 7.76 12.71 12.71 0 0 0 2.16-1.75 4.51 4.51 0 0 0 .43-.44 8.82 8.82 0 0 0 -1.81-2.5z" fill="#fafafa"/><g fill="#a8a1a7"><path d="m21.24 40.18s-.69-1.42-.32-1.56a58.68 58.68 0 0 1 6.29-.14 8.37 8.37 0 0 1 -.32 1.93 51.14 51.14 0 0 1 -5.65-.23z"/><path d="m20.46 37.66s-.46-2.66-.09-2.76a14.65 14.65 0 0 1 4.27.51c1.7.41 2.39.68 2.43 1a6.72 6.72 0 0 1 -.23 1.38s-4.59.05-6.38-.13z"/><path d="m20.32 33.8a8.87 8.87 0 0 1 .74-2.25c.59-1.29 1.15-1.56 1.33-1.61a20.11 20.11 0 0 1 4 1.93 5 5 0 0 1 2.11 2.25c0 .18-.82 1.42-1.1 1.38a23.41 23.41 0 0 0 -4-1.66c-1.65-.36-2.85.16-3.08-.04z"/><path d="m23 29.16a4.82 4.82 0 0 1 1.42-1.56c.87-.55 1.56-1.06 2-.87a14.61 14.61 0 0 1 3.17 3.21c.87 1.24 1.15 1.61 1 1.88a16.52 16.52 0 0 1 -1.47 1.38 11.69 11.69 0 0 0 -6.12-4.04z"/><path d="m27.39 26a11.29 11.29 0 0 1 2.16-1.52c.78-.36 1.75-.91 2.07-.59s.41 2 .83 3.26a16.1 16.1 0 0 1 .69 2.11 6.6 6.6 0 0 1 -1.7 1.47 25.07 25.07 0 0 0 -2.44-3.09 9.38 9.38 0 0 1 -1.61-1.64z"/><path d="m32.72 23.14a4.43 4.43 0 0 1 1.47-.46c1.06-.18 1.75-.27 1.89 0s.5 5.28.5 5.28a14.7 14.7 0 0 1 -2.53 1 45.58 45.58 0 0 1 -1.33-5.82z"/><path d="m37.36 27.87s-.32-5.46-.14-5.51a13.16 13.16 0 0 1 2.21-.09c.87.05 1.33.05 1.33.28s-.69 5.37-.83 5.37z"/><path d="m41.08 27.92a19.94 19.94 0 0 1 .46-3.86c.37-1 .37-1.51.6-1.51a11.35 11.35 0 0 1 2.34.78c.5.27.78.59.64.73a4.3 4.3 0 0 0 -1.93 1.75c-.5 1.14-.23 2.52-.59 2.57a5.66 5.66 0 0 1 -1.52-.46z"/><path d="m43.33 28.79a7 7 0 0 1 1-2.75 3.15 3.15 0 0 1 2.25-1.47c.37.09 1.24 1.19 1.61 1.47s.51.64.32.78-1.7.27-2.43 1.33-.92 1.93-1.15 1.84-.73-.92-1.6-1.2z"/><path d="m45.86 30.4a7.3 7.3 0 0 1 1.74-2.07 2.92 2.92 0 0 1 1.89-.59 3 3 0 0 1 .51 1.79c0 .69-.14 1-.32 1.19s-2.35 1.88-2.35 1.88-.88-1.47-1.47-2.2z"/></g><path d="m27.12 44.5a48.71 48.71 0 0 0 1.24-5.7c.27-2.15.37-2.89.41-3.07a20.12 20.12 0 0 1 4.83-5.33 9.63 9.63 0 0 1 7.8-1c2.67.73 4.14 1.7 5.24 3.72s3 4.45 2.66 4.73-.69.32-.82.14-.83-.88-1.29-.83-1.06 1-1.38 1.1-.73.19-.78 0a12.76 12.76 0 0 1 -.83-1.74c-.18-.69.14-1.33-.78-1.52s-1.83.69-2.29 1.52-.83 1.48-1.13 1.41-.92-1.7-2.3-1.84-3.44 1.8-3.63 2.21-.09 2.62-.68 2.89-2.81.09-3.45.65-1.29 3.53-1.84 3.72a.8.8 0 0 1 -.98-1.06z" fill="#f9f2ed"/><path d="m33.5 44.18c-.19 0 .88-.23 1 0s.37 3.81.14 3.91-.88.27-.92.09-.17-4-.22-4z" fill="#604f58"/><path d="m10.68 25.26a8.12 8.12 0 0 1 1.24-6.07c2-3 3.4-3.85 3.76-3.81s.92.41.78.64-2.84 2.16-3.67 4.41a16.88 16.88 0 0 0 -.79 4.83c-.08.23-1.23.27-1.32 0z" fill="#604f58"/></svg>