<svg height="64" viewBox="0 0 64 64" width="64" xmlns="http://www.w3.org/2000/svg"><path d="m18.25 64a3.4 3.4 0 0 1 -.45 0c-2.76-.3-5.92-5.47-6.9-7.44-1.49-3-2.47-4.94-1.88-6.62a2.82 2.82 0 0 1 1.49-1.62 10.51 10.51 0 0 1 1-.38c2.32-.79 3.08-1.37 3-2.32-.11-1.27-.68-2.12-1.43-2.12a1.49 1.49 0 0 0 -.76.24l-1.07.66a6.32 6.32 0 0 1 -3.19 1.3 3 3 0 0 1 -1.62-.48c-.44-.27-1-.65-3.81-6s-2.74-5.76-2.56-6.47c.09-.38.22-.88 3.55-4.85 3.66-4.36 4.06-4.36 4.93-4.36h.18a3.78 3.78 0 0 1 .86.2 7.51 7.51 0 0 0 2.28.45 2.79 2.79 0 0 0 2.13-.86c1.15-1.21.82-2.4.34-3.62a2.83 2.83 0 0 1 -.27-1.41c.1-.92.11-1 7.76-8.64 1.61-1.59 3.11-3.09 4.17-4.14 5.17-5.36 6.56-5.47 7.08-5.52h.26c.66 0 15.09.49 17.33 1.29a7.89 7.89 0 0 1 3.73 2.62c.36.44 3.48 7.55 2.58 9.49a3.46 3.46 0 0 1 -1.78 1.85l-.14.08-.38.18a2.77 2.77 0 0 0 -2 2.42 2 2 0 0 0 .12 1.17c.29-.1.93-.4 1.36-.6a5.39 5.39 0 0 1 2.19-.72 2.32 2.32 0 0 1 .52.07c1 .26 1.27.32 3.89 7.12a84.72 84.72 0 0 1 2.87 8.46c.27 1.2 1.07 4.85-1.06 6.62a13.77 13.77 0 0 1 -2.14 1.22 61.16 61.16 0 0 0 -8.42 5c-3.62 2.73-5.84 3.32-7.01 3.32a2.4 2.4 0 0 1 -1.61-.7 1.21 1.21 0 0 0 -.94-.45 3 3 0 0 0 -1 .22 1.87 1.87 0 0 0 -1.26 2.25 4.1 4.1 0 0 1 -.94 3.18c-.32.32-.37.34-2.68 1.39s-6.13 2.77-9.76 4.63c-1.76.9-3.07 1.61-4.07 2.15-2.3 1.23-3.24 1.74-4.49 1.74z" fill="#fff"/><path d="m2 33.22c.14-.54 6.11-7.79 6.61-7.74s4.3 1.9 6.88-.82.54-5.75.59-6.15 8.1-8.33 11.31-11.63 5.25-4.88 5.84-4.94 15 .55 16.79 1.18a5.91 5.91 0 0 1 2.89 2c.41.49 2.63 6.74 2.31 7.42s-.5.72-1.08 1a4.92 4.92 0 0 0 -3.4 4.16c-.22 3 1.59 3.4 2.54 3.17s2.72-1.23 3.12-1.14 4.66 11 5.34 14.12.14 4.25-.41 4.71-6.7 3.26-10.5 6.15-5.56 2.94-5.83 2.94-1.31-1.9-4.21-.81a3.85 3.85 0 0 0 -2.49 4.39 2.27 2.27 0 0 1 -.41 1.49c-.18.19-6.29 2.76-12 5.66s-6.65 3.8-7.87 3.67-3.8-3.22-5.39-6.38-2.49-5.07-1.31-5.62 5.43-1.26 5.16-4.61-2.85-4.76-5.11-3.4-3 2.08-3.9 1.54-5.61-10-5.47-10.36z" fill="#604f58"/><path d="m55.22 34.57a.72.72 0 0 1 .41-.9 22.51 22.51 0 0 1 4 1c-.13-.52-.3-1.14-.5-1.81-1.13-.33-4-1.21-4-1.5s-.36-.77.36-.82a13.79 13.79 0 0 1 3.08.57c-.19-.58-.39-1.18-.6-1.78-.89-.1-3.08-.36-3.3-.69s-.81-.81-.36-.86a21.27 21.27 0 0 1 3.17.16 51.1 51.1 0 0 0 -2-5c-.31-.31-1.08.46-3.66.18s-3.49-2.35-3.08-6.42a5.84 5.84 0 0 1 3.67-5 10.45 10.45 0 0 0 -.68-3.62c-.4-1.3-.73-2.08-2.3-2.7s-15.07-1.63-16-1.45-14.43 14.17-14.6 14.35a11.57 11.57 0 0 1 -.72 6.7c-1.63 3.94-7.6 3.21-8.46 3s-5.08 4.84-5.16 5.34 3.66 6.93 4.07 7.15 1.18-.63 2.9-1 5.74-.27 7 4.8-4.93 7.11-5.16 7.33 0 1.09 1.27 2.94a46.58 46.58 0 0 0 4.34 5.3c.32.18 1-.36 5.3-2.85s11.22-5.34 11.4-5.7 0-1.27.28-2.45a6.86 6.86 0 0 1 4.79-4.66 6.4 6.4 0 0 1 5.32 1.17c.36.31 0 0 3-1.86 1.23-.77 3.26-1.92 5.24-3.11-.78-.26-2.49-.86-2.53-1.14s.14-.73.77-.68a9.53 9.53 0 0 1 3.22.93c.67-.42 1.31-.83 1.87-1.21a23.14 23.14 0 0 1 -3.87-1.4 1.19 1.19 0 0 1 .5-.86 26 26 0 0 1 4.57 1.39 4.74 4.74 0 0 0 1-1c-1.36-.41-4.44-1.51-4.55-1.84z" fill="#f6c687"/><path d="m6.79 33.44c.37-.12 12.13-3.84 20.51-9.44s19.1-13.4 19.82-13.9.77-.9 1.09-.72.68.59.54.77a224.16 224.16 0 0 1 -18.75 13.61c-7.82 4.8-10.35 6.24-15.65 8.24s-6.83 2.49-7.24 2.44-.59-.91-.32-1z" fill="#604f58"/><path d="m20.6 33.44c2-2 4.75-2.17 5.79-1.17s1.27 3.21-1.13 5.2-4.75 2-5.75 1.22-.95-3.21 1.09-5.25z" fill="#604f58"/><path d="m23.86 32.9a1.49 1.49 0 0 1 1.9 2c-.45 1.76-3.89 3.84-5.21 3.07s-.31-4.12 3.31-5.07z" fill="#f8b586"/><path d="m37 22c1.13-1 4.52-1.54 5.66 1.27s-1.5 5.16-3.58 5.57-6.44-3.14-2.08-6.84z" fill="#604f58"/><path d="m39.29 22.35a2.59 2.59 0 0 1 2.81 3 3.05 3.05 0 0 1 -4.76 1.81c-1.44-1.23-1.44-4.4 1.95-4.81z" fill="#f8b586"/><path d="m27.16 41.27c1.86-2.44 5-2.67 6.34-1.49s1.22 4.62-1.59 6.56-5.34 1.63-6.15.55-.05-3.72 1.4-5.62z" fill="#604f58"/><path d="m30.1 40.32c1.14-.52 2.58-.63 2.9 1.41s-2.63 4.79-4.35 4.93-2.44-1.58-1.49-3.4a6.68 6.68 0 0 1 2.94-2.94z" fill="#f8b586"/><path d="m47.84 30.59a3.15 3.15 0 0 1 4.53 1.41c.73 1.63.41 4.08-1.45 4.8s-4 .41-5-1.31-.38-3.63 1.92-4.9z" fill="#604f58"/><path d="m49.07 31.27a2.74 2.74 0 0 1 2.8 2.81c.13 2.12-2.31 2.76-3.87 1.63s-2-3.71 1.07-4.44z" fill="#f8b586"/><path d="m27.16 13.39a6.22 6.22 0 0 1 5.84-1.13c2.4.91 2.09 2.31 1.5 3.35a6.91 6.91 0 0 1 -5.43 3.08c-3.22.36-3.76-.73-3.71-2a5.45 5.45 0 0 1 1.8-3.3z" fill="#604f58"/><path d="m30.24 13c2-.49 3.66.32 3.76 1.4s-2.58 3-4.62 3.4-3.8.18-2.81-1.72a5.21 5.21 0 0 1 3.67-3.08z" fill="#f8b586"/></svg>