<svg height="64" viewBox="0 0 64 64" width="64" xmlns="http://www.w3.org/2000/svg"><path d="m26.55 57.8a12.29 12.29 0 0 1 -8-2.71c-.31 0-.68.06-1.07.06a6.1 6.1 0 0 1 -3.06-.71 8.09 8.09 0 0 1 -1.43-1h-.57c-2.58 0-4.62-.93-5.73-2.62a19.39 19.39 0 0 1 -1.69-3.1c-2.26-.95-5.24-3.23-5-7.09s1.73-6.47 4.36-7.41l.86-.28c.12-2.64 1.12-7.81 6.56-12.75a29 29 0 0 1 11.05-6.65 4.13 4.13 0 0 1 -1.07-4.23 4.6 4.6 0 0 1 4.43-3.11 4.46 4.46 0 0 1 1 .11 3.77 3.77 0 0 1 1.24.52 7.87 7.87 0 0 1 1.68-.21 3.81 3.81 0 0 1 2.78 1 4.78 4.78 0 0 1 1.11 4.23 4.85 4.85 0 0 1 -.32 1 12 12 0 0 1 2.81.8 24.92 24.92 0 0 1 4 2.33 13.84 13.84 0 0 0 4.61 2.33c1.55.36 2.53.53 3.11.62 1.66-1.77 2.61-1.85 2.95-1.89h.31a2.44 2.44 0 0 1 .53.05l.33-.29a4.22 4.22 0 0 1 .21-3.93 4.28 4.28 0 0 1 3.78-2.28 5.54 5.54 0 0 1 1.72.29 3.53 3.53 0 0 1 2 1.64 5 5 0 0 1 3 1.48 3.67 3.67 0 0 1 .9 3c-.15 1.4-.95 3.89-4.65 4.78l-.54.12a2.84 2.84 0 0 1 .23.89c.11 1.1-.56 2-2.7 4.79-.4.51-.91 1.17-1.2 1.57a5.52 5.52 0 0 0 1 1.85c.6.74 3.38 4.79-1.35 12.4-3.77 6.06-7.09 8.64-11.83 9.2a38.3 38.3 0 0 1 -4.11.29h-.16c-1.15 1.44-3.74 3.7-9.08 4.66a17.19 17.19 0 0 1 -3 .25z" fill="#fff"/><path d="m6.49 46.21s-4.81-1.36-4.49-5.45 1.76-5.26 3-5.71a18.68 18.68 0 0 1 2.18-.64s-1-6.53 5.9-12.79 12.18-6.62 12.18-6.62v-1.9s-2.26-1.43-1.65-3.1a2.69 2.69 0 0 1 3.13-1.8 1.44 1.44 0 0 1 1.09.8s2.65-1 3.67 0 .75 3.34-.2 3.75a10.14 10.14 0 0 1 -2.39.54l-.27 1.57a13.11 13.11 0 0 1 7.08.61c3.33 1.43 5.44 3.94 9 4.76a19.58 19.58 0 0 0 4.35.75s1.57-1.91 2.31-2 .69.4.89.4a29.67 29.67 0 0 0 2.58-2.24s-1.56-1.7-.61-3.27a2.5 2.5 0 0 1 3.27-1.15 2 2 0 0 1 1.22 1.63s3.61-.14 3.34 2.38-2.73 3-3.27 3.13a4.94 4.94 0 0 1 -1.09.14l-1.45 1.6a2.71 2.71 0 0 1 .82 1.4c.07.68-3.81 5.1-3.95 5.72a6 6 0 0 0 1.43 3.53c.95 1.16 2 4.56-1.49 10.14s-6.33 7.82-10.41 8.3-5 .2-5 .2-1.56 3.54-8.43 4.77-10-2.59-10-2.59-2.39.55-3.81-.27-1.57-1.36-1.57-1.36-4 .75-5.51-1.63a12.34 12.34 0 0 1 -1.85-3.6z" fill="#604f58"/><path d="m52 21.26c-.68-.07-2.11 1.7-4.36 2.86s-3.47.75-6.46 1.56a15.41 15.41 0 0 0 -10.18 8.51c-2.86 6.46-.48 10.47 3.12 12.51a12.08 12.08 0 0 0 9.34 1.3c-.89-.54-2.52-1.57-2.57-1.92s0-1.09.68-.81a18.24 18.24 0 0 1 3.32 2.19 12.45 12.45 0 0 0 1.48-.85c-1.12-.56-3.49-1.8-3.65-2.16s.14-1.09.48-1a36.87 36.87 0 0 1 4.28 2.35l.14-.11c.55-.47 1.05-.94 1.51-1.42-1-.44-4.23-1.79-4.23-2.25s.55-1.09.89-1a24.45 24.45 0 0 1 4.21 2.2 16.21 16.21 0 0 0 1-1.32c-1-.46-3.69-1.68-3.75-2.07s0-.68.62-.61a21.77 21.77 0 0 1 3.71 1.78c.27-.47.51-.94.72-1.38-1.29-.5-3.93-1.54-3.93-1.85a.9.9 0 0 1 .63-.77 38.81 38.81 0 0 1 3.78 1.5 7.72 7.72 0 0 0 .51-3.14c-.2-1.77-2.59-4.21-2.59-6.26s3.13-5.1 3.54-5.71-1.58-2.06-2.24-2.13zm.27 14.49c.07.41.07.68-.34.68a14.93 14.93 0 0 1 -2.38-.88c-.07-.27.2-1 .54-.95s2.09.74 2.16 1.15z" fill="#fcdfc8"/><path d="m4.35 40.45a3 3 0 0 1 1.23-2.79c.82-.68 1.16-.55 1.16-.55a5.73 5.73 0 0 0 -.14 2.59 34.14 34.14 0 0 0 1 3.74c-.07.27-.07.68-.54.41s-2.64-1.7-2.71-3.4z" fill="#fcdfc8"/><path d="m10 30.38c.83-2.43 6.67-9.26 11.57-11.64a17.79 17.79 0 0 1 13-.95c2.65 1 6.46 3.67 8.64 4.29s2.86.34 2.79.54-4.08.27-7.89 1.91-8.17 4.69-9.87 9.52-1 7.62-.61 8.71 1.09 1.16.61 1.56-2.38-.88-5.71.55a6.25 6.25 0 0 0 -4.08 4.69c-.14.82.13 1-.21 1.23s-1.83.54-2.38-.21-.42-1.58-1.23-1.58-3.06.2-4.22-.75a5.75 5.75 0 0 1 -1.5-4.35c.27-.68 1-1.5.89-2.05s-1.57-6.3.2-11.47z" fill="#fcdfc8"/><path d="m20.75 50.51a4.41 4.41 0 0 1 3.54-3.74c2.79-.54 3.81.21 4.76.07s1-.27 1.36-.14a16.4 16.4 0 0 0 2.72 2c1.77 1 2.59 1.42 2.32 1.76a15.1 15.1 0 0 1 -8.17 3c-4.49.32-6.46-2.06-6.53-2.95z" fill="#fcdfc8"/><path d="m54 19.63s2.31-2.45 2.18-2.66a1.9 1.9 0 0 1 -.68-1.83c.27-1 .27-1.7 1.09-1.43s1.49.34 1.29.88 0 1 .2 1.09 1-.27 1.63 0 1.91 1.23.82 2a4 4 0 0 1 -2.38 1.16 2.59 2.59 0 0 0 -1.84.95c-.41.48-1.22 1.23-1.22 1.23z" fill="#f9f2ed"/><path d="m26.26 15s.41-2.31 0-2.45-2.26-1.22-1.63-2.38 1.63-1.16 2-.61.68.95 1 .95 1.77-1.5 2.92-.88 1 1.83-.13 2.11-1.84-.14-2.31.47-.41 2.72-.75 2.86a2.71 2.71 0 0 1 -1.1-.07z" fill="#f9f2ed"/><g fill="#604f58"><path d="m14.74 28.74c.3-.38 2.13-.4 2.4.23s-.13 1.32-1.31 1.32-1.83-.55-1.09-1.55z"/><path d="m19.23 24.3c.58-.44 2 .18 2.27.82s-.55 1.45-1.59 1.27-1.81-1.23-.68-2.09z"/><path d="m24.49 26.75a1.62 1.62 0 0 1 2 .36c.46.73-.63 1.82-1.63 1.63s-1.18-1.13-.37-1.99z"/><path d="m25.72 21.71a1.27 1.27 0 0 1 2 .28c.4.59 0 1.72-1.36 1.45s-1.1-1.23-.64-1.73z"/><path d="m31.43 21.26c.59-.44 1.63-.32 1.63.32s-.9.59-1 1 .41.86-.09 1a1 1 0 0 1 -1.22-.82 1.69 1.69 0 0 1 .68-1.5z"/><path d="m31.79 37.59c.17-.4.78.41 1.36.41s1.18-.64 1.32-.18-.47 1.18-1.47 1.18-1.52-.64-1.21-1.41z"/><path d="m36.47 31.78a1.26 1.26 0 0 1 1.67.23 1.1 1.1 0 0 1 -1.22 1.45c-1.09-.04-1-1.04-.45-1.68z"/><path d="m41.32 28.88c.37-.25 1.63-.18 1.77.41s-.41 1.09-1.14 1-1.31-.96-.63-1.41z"/><path d="m40 33.51a1.25 1.25 0 0 1 1.45.22c.37.5 0 .87-1 1.05s-.76-1.09-.45-1.27z"/><path d="m38 36.36c.13-.14 1.09-.36 1.36 0s.14 1-.77 1.09-1.04-.63-.59-1.09z"/><path d="m12.43 35.68a.6.6 0 0 1 1 0c.27.36-.14 1 1 1s2-.23 2 .13-.54.64-1.32.77a6.23 6.23 0 0 0 -1.27.28 1.3 1.3 0 0 1 -1.18-.23c-.28-.22-.91-1.22-.23-1.95z"/><path d="m19.5 34.37c.1-.24.68-.64.91-.32s-.09.64.95.59 3-.41 3.09-.09-.05.63-1.05.82a8.23 8.23 0 0 1 -2.94.18 1 1 0 0 1 -.96-1.18z"/><path d="m25 48.29a.66.66 0 0 1 .86.5c0 .41-.68.77-1.18.36s-.1-.68.32-.86z"/><path d="m29 47.66a1.23 1.23 0 0 1 1.14.22c.27.23-.23 1-.91.82a.55.55 0 0 1 -.23-1.04z"/><path d="m26.94 49.88a2.56 2.56 0 0 1 2.18.41c.27.45-.14 1-.82 1s-2.4-.37-1.36-1.41z"/></g></svg>