<svg height="64" viewBox="0 0 64 64" width="64" xmlns="http://www.w3.org/2000/svg"><path d="m3.64 51.31a4.56 4.56 0 0 1 -1.35-.12c-2.7-.8-2.29-6.3-2.29-6.53.26-3.17 2-3.82 3.08-3.93h.5a9.74 9.74 0 0 1 -.37-6.44c1.82-7.37 6.81-11.89 15.27-13.83a44.23 44.23 0 0 1 9.81-1.19 23.82 23.82 0 0 1 7.85 1.12c1.27.45 2.59.85 3.26 1a35.32 35.32 0 0 1 6.23-.75h.37a27.06 27.06 0 0 1 3.13.25l1.92-1.6a4.82 4.82 0 0 1 1.11-4.66 5.54 5.54 0 0 1 4.11-1.94 7.21 7.21 0 0 1 1.49.17 3.18 3.18 0 0 1 2.13 1.35 3.07 3.07 0 0 1 .46 1.07 4.71 4.71 0 0 1 3 2.17 4.49 4.49 0 0 1 .08 4.23 4.87 4.87 0 0 1 -3.74 2.62 16 16 0 0 1 -2 .14q-.47 0-.81 0l-1.44 1.46a7.36 7.36 0 0 1 .41 5 11.4 11.4 0 0 1 -1.25 2.7 5.58 5.58 0 0 1 1.4 4.46c-.07.48-.14.92-.22 1.32 1.64 0 3.51.1 4 .14a4.12 4.12 0 0 1 3.46 4.22c0 4.21-.72 6.61-2.13 7.14a4.67 4.67 0 0 1 -1.65.18c-.63 0-1.59 0-3-.05-3.59-.07-10.26-.21-21.87-.21-12.32 0-21.14.26-26.42.41-2.12.06-3.66.1-4.53.1z" fill="#fff"/><path d="m7.36 42.33s-3.57-2.16-2.22-7.62 4.71-10.31 13.86-12.4 14.69-.81 16.58-.13 3.84 1.21 3.84 1.21a33.88 33.88 0 0 1 6.58-.81 15 15 0 0 1 3.7.4l3.71-3.1s-1.35-2.29.2-3.9a3.6 3.6 0 0 1 3.84-1.22 1.26 1.26 0 0 1 1.08 1.48c-.07.34-.13.75-.13.75s2.49-.14 3.37 1.41a2.76 2.76 0 0 1 -2.23 4 10.49 10.49 0 0 1 -3.3 0l-3.17 3.17s1.69 2.42 1 4.78a8.61 8.61 0 0 1 -2.09 3.57 4.06 4.06 0 0 1 2.15 3.91c-.33 2.63-1 3.44-1 3.44s5.73.13 6.54.2a2.2 2.2 0 0 1 1.68 2.29c0 1.28-.33 5.12-.87 5.33s-5.8-.21-25.81-.21-31.07.68-31.75.47-1-2.89-.87-4.51.67-2.09 1.35-2.16z" fill="#604f58"/><path d="m50.49 36c-.47-.2-2.63 2.43-4.85 3.17s-4.38 1.21-5.12 1-.54-1.08-.27-1.48 2.07-.69 5-2c-.51-.6-1.49-1.79-1.39-2.09s.34-.68.74-.61a7 7 0 0 1 1.91 2.01l.48-.24.65-.38a15 15 0 0 1 -2.14-2.52c.07-.27.48-.81.81-.74a10.85 10.85 0 0 1 2.32 2.58 9.12 9.12 0 0 0 1.24-1.13c-.71-.61-2.53-2.22-2.48-2.6s.34-.47.67-.47a7.1 7.1 0 0 1 2.49 2.21 7.12 7.12 0 0 0 1-2.14c-.71-.36-2.1-1.11-2.1-1.42s.13-.6.61-.6a5.33 5.33 0 0 1 1.7.74 4.83 4.83 0 0 0 0-1c-.27-2.29-2-3.91-8.56-3.24s-10.71 3.31-12.4 6.47 1.62 6.41 1.82 6.81-.81 1.28-1.55 1.08-3.37-2.77-3.17-7.68 7.9-7.13 7.9-7.13-6.13-1.68-15.23.07-13.14 7.55-12.74 11.66a7 7 0 0 0 3.91 5.67s2.49.13 14.42-.14c10.19-.23 18.73-.11 21.73-.2-.56-.41-1.34-1.06-1.24-1.35a.62.62 0 0 1 .81-.4 17.53 17.53 0 0 1 2 1.59 2.43 2.43 0 0 0 1.13-.5c-.6-.46-1.89-1.47-1.78-1.73s.6-.81 1-.6a7.1 7.1 0 0 1 1.46 1.49c.11-.2.23-.42.36-.68a2.75 2.75 0 0 0 -1.14-3.48z" fill="#fcdfc8"/><path d="m4.6 44.55c.69-.69 13.74-1 30.66-1s23.79-.2 23.86.27.6 2.9 0 3-12.87-.72-30.12-.32-24.33.68-24.66.41-.08-2.02.26-2.36z" fill="#f6c687"/><path d="m7.76 45.16a3.91 3.91 0 0 1 2.83.13c.27.34.61.74.07.88a18.27 18.27 0 0 1 -3.23 0c-.27-.07 0-.88.33-1.01z" fill="#604f58"/><path d="m50.69 23.25s3.84-2.56 3.91-3.16-1.14-1.89-.27-3 2.56-1.88 3-1.34-.2 2.35.48 2.56 2.76 0 3.1.94-.74 2-2.09 2.22-3-.33-3.37-.06-3 3.77-3.24 3.43-1.52-1.59-1.52-1.59z" fill="#f9f2ed"/><g fill="#604f58"><path d="m34 31.79a.88.88 0 0 1 1.21.49c.05.45-.36 1.31-1.12.9a.79.79 0 0 1 -.09-1.39z"/><path d="m37.12 30.35a1.26 1.26 0 0 1 1.08-1.35c1-.22 1.49.22 1.53.54s.18.49-.22.67-.81 0-.95.32 0 .49-.45.54-.99-.4-.99-.72z"/><path d="m39.1 33.59c-.08-.17.49-1 1-1.08s1.22 0 1.26.54.14.72-.18.85-.54-.54-.85-.45-.23.59-.54.63-.42.09-.69-.49z"/><path d="m37.66 35.38c.23-.22 1.08-.27 1.17.27a.68.68 0 0 1 -.94.77c-.5-.27-.63-.63-.23-1.04z"/><path d="m23 34.08c.23-.23 1.08-.27 1.17.27a.68.68 0 0 1 -1 .76c-.42-.26-.56-.62-.17-1.03z"/><path d="m14.66 35.61c.23-.23 1.08-.27 1.17.27a.68.68 0 0 1 -.95.76c-.49-.27-.62-.64-.22-1.03z"/><path d="m11.43 33.14a1.48 1.48 0 0 1 1.34-.86c.68 0 .9.36.54.68s-.49.81-1 .9-1.02-.32-.88-.72z"/><path d="m15.38 29.41a1 1 0 0 1 1.35-.05c.31.41-.05.95-.72.95a.62.62 0 0 1 -.63-.9z"/><path d="m19.78 27.43c.23-.36 1.22-.36 1.62.14s-.09 1-.94 1a.75.75 0 0 1 -.68-1.14z"/><path d="m18 31.92c.18-.29.94-.58 1.3-.22a1 1 0 0 1 -.5 1.62c-.8.18-1.22-.77-.8-1.4z"/><path d="m23.42 29.68a1.18 1.18 0 0 1 1.71.18 1.05 1.05 0 0 1 -1.13 1.39c-1.16-.09-1-1.17-.58-1.57z"/><path d="m25.22 26c.23-.17 1.62-1 2.2-.4s0 1.7-.9 1.84-2.2-.82-1.3-1.44z"/></g></svg>