<svg height="64" viewBox="0 0 64 64" width="64" xmlns="http://www.w3.org/2000/svg"><path d="m9.76 63.5a5.24 5.24 0 0 1 -3.47-1.12 5.5 5.5 0 0 1 -1.63-3.12 5 5 0 0 1 -4.31-3 5.31 5.31 0 0 1 .53-4.8 5.55 5.55 0 0 1 4.21-2.62h.56a6.32 6.32 0 0 1 1.88.28l5.87-6.65c-.49-2.43-1.39-8.67.65-14 2.86-7.47 11.25-17.47 12.95-19.36.35-.4.69-.81 1-1.21 3-3.64 6.19-7.4 12.51-7.4h.71c7 .3 13.7 3.31 17.14 7.65 2.83 3.59 5.47 7.85 5.64 14.46.16 6.26-3.19 9.69-5.63 12.19l-.34.35a103.44 103.44 0 0 1 -16.83 12.6c-5.51 3.25-9 4.51-12.32 4.51a14.65 14.65 0 0 1 -1.88-.12 28.45 28.45 0 0 1 -6-1.58c-2.17 2.18-4.43 4.5-5.45 5.66a5.67 5.67 0 0 1 -.29 4.53c-1.09 2.03-3.64 2.75-5.5 2.75z" fill="#fff"/><path d="m15.51 43s-2-7.71.35-13.85 9.07-14.71 12.57-18.78 6.21-8.21 12.71-7.93 12.71 3.14 15.7 6.93 5.07 7.63 5.22 13.29-3.06 8.71-5.43 11.14a103 103 0 0 1 -16.42 12.28c-6.43 3.78-9.57 4.57-12.92 4.14a28.84 28.84 0 0 1 -6.79-1.93s-7.42 7.35-7.21 7.71a4.06 4.06 0 0 1 .22 3.86c-.93 1.78-4.64 2.21-5.93 1.07s-1.14-3.57-1.14-3.57-3.44.43-4.29-1.79a3.68 3.68 0 0 1 3.07-4.78c2.07-.14 2.72.78 2.72.78z" fill="#604f58"/><path d="m45.35 35.08c-2.07-.64-5.14-1.5-11.42-6.5s-5.64-13.7-5.64-13.7c-6.14 6.35-10.07 14.92-10.57 20.56s2.28 9.64 5 10.42a20.1 20.1 0 0 0 10.18 0c-.77-1-2-2.6-1.69-3 .43-.57.72-.78.93-.57a25.55 25.55 0 0 1 2 3.16c.36-.13.71-.28 1.07-.44-.58-.92-1.92-3.08-1.8-3.36s.64-.86 1.07-.57a11.4 11.4 0 0 1 1.88 3.35l.26-.14 1.15-.69c-.55-.84-1.73-2.71-1.51-3.09s.64-.72.93-.43a15 15 0 0 1 1.81 2.79l1.42-.87c-.59-.85-1.89-2.75-1.78-3s.57-.93.93-.72a15.39 15.39 0 0 1 1.75 3.16 80.48 80.48 0 0 0 7.88-5.51c0-.35-1.78-.21-3.85-.85z" fill="#f6c687"/><path d="m16.43 44.79c.43.43 2.72 2.36 2.72 2.36s-6.22 6.35-6.71 7.42-.43 1.36-.08 1.86a2.29 2.29 0 0 1 -.92 3.64 2.64 2.64 0 0 1 -3.79-1.43 2.08 2.08 0 0 1 -.21-1.07s.85-.28.78-.71-.5-1.29-.85-1.36-1 .72-1.5.64-3.22-.14-3-1.71 1.71-3.14 3.13-2.64 1.65 1.36 2.22 1.21 8.21-8.21 8.21-8.21z" fill="#f9f2ed"/><path d="m34.35 8.31c2-2.15 8.93-4.43 15.78-.65s8.64 10.64 8.5 15.57-2.07 8.57-8.71 9.07-11.57-3.5-15.35-7.64-4.79-11.43-.22-16.35z" fill="#fcdfc8"/><g fill="#604f58"><path d="m25.14 25.3c.63-.15 1.43.86 1 1.43a1 1 0 0 1 -1.5.36c-.64-.36-1-1.43.5-1.79z"/><path d="m21.43 32.51c.85.12 2.24.24 2.33 1.48s-.19 1.57-.62 1.47-.95-1.71-1.42-1.52-.19.76-.62.76-1.1-.52-1-1 .66-1.28 1.33-1.19z"/><path d="m28.9 32.51a1.39 1.39 0 0 1 1.72 1.24c.05.62-1.1 1.71-2 .9s-1.05-1.9.28-2.14z"/><path d="m37.42 35.46a1.92 1.92 0 0 0 -2.85-.28c-1 .71-1.81 2.85-.67 3.47a1.73 1.73 0 0 0 2.43-.9c0-.57-.14-1-.62-1s-.9-.38-.43-.71 1.1 0 1.43.33 1.1-.37.71-.91z"/><path d="m25.86 40.7c-.71-.09-1.57 1.14-.76 1.85a1.45 1.45 0 0 0 2.23-.85c.15-.81-.33-.86-1.47-1z"/><path d="m41.14 16.38c1-.3 2.57.95 3.42.23s2-3.66 4.53-3.23 4.52 3.19 3.33 5.57-3.71 2.23-4.81 2.28-1.38-.52-2.47-.09-1.43.9-2.91.33-3.43-4.38-1.09-5.09z"/></g><path d="m42 17.61c.58-.34 1.85.57 2.85.05s2.29-3.47 4.33-3.09 3.34 2.61 2.53 3.71a3.78 3.78 0 0 1 -3.39 1.72c-1.32-.2-2.32-.67-3.47-.2s-1.57.81-2.14.53-1.91-2.05-.71-2.72z" fill="#f9f2ed"/><path d="m48.85 16.47c-.89.36-1.62 1.19-.57 1.67s2.66 0 2.28-.81-1-1.14-1.71-.86z" fill="#604f58"/></svg>