<svg height="64" viewBox="0 0 64 64" width="64" xmlns="http://www.w3.org/2000/svg"><path d="m36.18 55.17c-1.68 0-4.37-1.49-9.81-4.54-3.37-1.91-7.26-4.07-10.71-5.63-14.85-6.68-15.36-8.71-15.6-9.69a2 2 0 0 1 -.06-.59c.5-7.72 1-8.45 1.33-8.88.84-1.14 10.73-7.29 12.16-7.56a4.21 4.21 0 0 1 .73-.07 6 6 0 0 1 .94.09l.09-.39a2 2 0 0 1 .84-1.18c5.28-3.39 11.83-7.49 13.05-7.82a2.41 2.41 0 0 1 .67-.08c2.5 0 12.89 4.78 13 4.83a5.26 5.26 0 0 1 1.92 1.79 5.31 5.31 0 0 1 1.84-.45 2.51 2.51 0 0 1 .62.07c1.17.26 10.77 4.19 11.86 4.7 2.32 1.09 4.89 6.58 5 8.92.06 2.53-2.83 5.77-12.13 14.86-9.11 8.88-12.75 11.59-15.6 11.59z" fill="#fff"/><path d="m1.94 34.84s.46-7.17 1-7.85 10-6.62 11-6.81a7 7 0 0 1 2.74.51l.55-2.33s11.32-7.26 12.51-7.58 11.09 4 12.28 4.61a5.67 5.67 0 0 1 2 2.6s2.06-1.18 2.88-1 10 3.88 11.46 4.56 3.78 5.39 3.83 7.22-3.83 5.89-11.55 13.42-12 11.09-14.29 11.05-12-6.49-19.76-10-14.29-6.94-14.65-8.4z" fill="#604f58"/><path d="m4.31 34c-.12-.68.09-5.11.64-4.93s6.05 3.49 9.36 4.63 3.56 1 3.69 1.3 1 6.89.69 6.89-7.39-3.45-9.69-4.5-4.6-2.92-4.69-3.39z" fill="#7b5d5d"/><path d="m5.5 27.44c.2-.8 9.13-5.75 9.68-5.7s11.36 4.65 11.32 5.52-8.08 5.89-8.77 5.89a50.66 50.66 0 0 1 -8.21-3c-2.74-1.29-4.11-2.34-4.02-2.71z" fill="#8a6e6e"/><path d="m13 27.76c-.29-.29 1.64-3.33 1.87-3.38s.87-.09.91.23a13.29 13.29 0 0 1 -2.1 3.47c-.33.14-.68-.27-.68-.32z" fill="#604f58"/><path d="m15.09 29.13c0-.18 2-4.29 2.28-4.33s.87 0 .87.36a26.69 26.69 0 0 1 -2.7 4.43c-.23.04-.45-.46-.45-.46z" fill="#604f58"/><path d="m19.06 34.06c.18-.13 8.53-5.93 8.9-5.7s1.64 1.82 1.46 2.05-6.66 5.16-7.08 5.75-2.55 4.89-2.55 4.38-.05-4.88-.32-5.25a3.5 3.5 0 0 1 -.41-1.23z" fill="#7b5d5d"/><path d="m20.11 42.37c-.08-.46 2.69-4.61 2.83-4.52s11.55 4.57 12.32 4.66a4.21 4.21 0 0 0 2.42-.73c.37-.32 6.8-5.89 7.35-5.53s3 4.8 2.83 5.12-9.22 8.49-9.81 8.94-1 .87-3.2-.18-14.65-7.21-14.74-7.76z" fill="#7b5d5d"/><path d="m23.71 36c.55-.28 8.81-6.8 9.36-6.8a32.6 32.6 0 0 1 3.47 1.05c1.46.41 3.06 2.28 4.29 3.19s2.65 2 2.51 2.47-6.71 5.09-7.07 5.23a7.1 7.1 0 0 1 -3.61-.55c-1.55-.59-8.53-3.33-8.85-3.59s-.28-.93-.1-1z" fill="#8a6e6e"/><path d="m18.19 21.14c.1-.2.37-1.78.64-1.78s.55 0 .55.19.13.86 2.46 2.37a36.42 36.42 0 0 0 7.85 3.29h.51a13.19 13.19 0 0 0 1.37 2.1.58.58 0 0 0 .41-.64c-.09-.27-.69-1.41-.69-1.55s8.72-7.9 9.31-7.85 2.2 2.33 2 2.56-6.9 5.2-7.21 5.79-.87 2.42-1 2.47-1.87-.18-2.56.32-1.55 1.09-1.55 1.09-.59-1.5-3.28-3.43a42.43 42.43 0 0 0 -7.71-4.07 2.24 2.24 0 0 1 -1.1-.86z" fill="#7b5d5d"/><path d="m36.13 26.3c.26-.26 9-7.26 10.14-7.35s8.53 3 9.67 3.75 1.78 1.73 1.6 2.19a95.57 95.57 0 0 1 -9.4 7.44c-1 .5-2.15.55-4-.46s-6.94-3.92-7.3-4.11-.84-1.28-.71-1.46z" fill="#8a6e6e"/><path d="m35.13 28.22s.36-.32.59-.23 7.53 4.89 9 5.34 1.92.6 2 .73.45 3 .22 2.92-1.68-1.91-2.19-2.32-3.92-2.79-6.43-4.48a26.44 26.44 0 0 0 -3.19-1.96z" fill="#7b5d5d"/><path d="m47.54 33.42a31 31 0 0 0 7.46-4.79c2.65-2.56 3.29-3.42 3.7-3.24a7.86 7.86 0 0 1 1.35 3.61 73.94 73.94 0 0 1 -6 6.84c-3.2 3.34-5.35 5.3-5.44 5.12s-.18-3.11-.54-5-.71-2.49-.53-2.54z" fill="#7b5d5d"/><path d="m20.7 19.18a68.66 68.66 0 0 1 6.57-4.93c2.47-1.55 3.25-1.6 3.47-1.6s9.09 3.47 8.91 3.75-8.08 6.75-9.18 7.25a3.78 3.78 0 0 1 -2.88-.18c-.32-.18-3.65-1.64-5-2.28s-2.3-1.6-1.89-2.01z" fill="#8a6e6e"/><g fill="#604f58"><path d="m26.59 19.36a31.76 31.76 0 0 1 2.33-4.24c.23 0 .77 0 .77.36a22.42 22.42 0 0 1 -2.46 4.25c-.23.04-.69-.23-.64-.37z"/><path d="m29.83 20c.69 0 2-4.29 2.28-4.34s.87-.18.83.27a23.33 23.33 0 0 1 -2.61 4.48c-.27.05-.54-.41-.5-.41z"/><path d="m30.79 37.08c.14-.28 2.69-5 2.92-5.21s.87.05.87.32a35.57 35.57 0 0 1 -2.88 5.39c-.27.04-.91-.5-.91-.5z"/><path d="m33.85 37.94c.09-.13 2.1-4.38 2.42-4.47a.55.55 0 0 1 .64.46 28.17 28.17 0 0 1 -2.42 4.15c-.28.14-.64-.14-.64-.14z"/><path d="m43.75 26.53s2.25-4.53 2.56-4.61.82-.09.73.46a25 25 0 0 1 -2.69 4.56c-.23.06-.6-.41-.6-.41z"/><path d="m46.81 28c0-.23 1.65-4.11 2.1-4.25a.65.65 0 0 1 .82.55c0 .27-2 4.11-2.41 4.06a.65.65 0 0 1 -.51-.36z"/></g></svg>