<svg height="64" viewBox="0 0 64 64" width="64" xmlns="http://www.w3.org/2000/svg"><path d="m31.54 51.8c-4.4 0-9-.07-9.75-.15-1.31-.13-3.67-.63-4.69-2.52a4.08 4.08 0 0 1 .2-4c.82-1.53 1.82-3.33 2.57-4.67a21.21 21.21 0 0 1 -7-5.16 38.41 38.41 0 0 1 -4.22-5.72c-2.4 0-5.17-.28-6.54-1a4 4 0 0 1 -2-3 5.25 5.25 0 0 1 1.47-4.38 6.74 6.74 0 0 1 1.9-1.33 3.57 3.57 0 0 1 -1.07-2.38 4.05 4.05 0 0 1 .92-3.11c1.15-1.3 3.05-1.49 4.73-1.57 2.92-.14 15.86-.4 28.18-.54 4.57 0 8.94-.07 12.66-.07 10.25 0 11 .18 11.37.26 3.16.71 3.49 2.77 3.41 3.93a3.58 3.58 0 0 1 -3.07 3.31l-.12.34c2.21.54 3.51 1.76 3.51 3.48 0 1.3-.46 4.41-5.56 5.41a22.87 22.87 0 0 1 -2.44.37 32 32 0 0 1 -5.33 6.12 27.25 27.25 0 0 1 -6.92 4.58 40 40 0 0 1 2.32 5.26c.77 2.85-.49 5.29-3.13 6.09-.41.13-1.48.45-11.4.45z" fill="#fff"/><path d="m57.58 21.66a13.39 13.39 0 0 0 .67-1.24c.35-.75.93-2.53.93-2.53a4.84 4.84 0 0 1 .84-.08 1.7 1.7 0 0 0 1.73-1.56c.09-1.28-.93-1.68-1.91-1.9s-11.17-.27-23.58-.14-25.31.4-28.1.54-3.95.62-3.82 2.61 2.8 1.73 2.8 1.73a15.12 15.12 0 0 0 .44 2.13s-.58 0-1.51 0a4.34 4.34 0 0 0 -3.14 1.33c-1.2 1.2-1.47 3.45.07 4.3s6.79.8 6.79.8a28.84 28.84 0 0 0 4.53 6.35 19.66 19.66 0 0 0 8.33 5.45s-2.13 3.76-3.65 6.55 1.64 3.55 3 3.68 18.62.31 20.39-.22 2.26-2.08 1.82-3.72a64.42 64.42 0 0 0 -3.16-6.74 23.29 23.29 0 0 0 8.29-5c4.16-3.82 5.49-6.57 5.49-6.57a15.41 15.41 0 0 0 3.24-.43c2.26-.45 4-1.51 4-3.46s-4.49-1.88-4.49-1.88zm-52.66 3.46c-.93-.27 0-1.46.75-1.69a7.87 7.87 0 0 1 2.27 0l.79 1.86a19.7 19.7 0 0 1 -3.81-.17zm53.15 0a14.55 14.55 0 0 1 -2.17.09l.88-1.73s2.71 0 2.75.58-.79.94-1.46 1.06z" fill="#604f58"/><path d="m9.09 18.69s6.78-.88 24.2-.8 23.32.05 23.32.05a35.12 35.12 0 0 1 -1.86 4.87 11.45 11.45 0 0 1 -1.64 2.49 23.73 23.73 0 0 0 -3.33.13.94.94 0 0 0 -.62 1.51c.49.53 2.17.57 2.17.57a18.66 18.66 0 0 1 -10.06 8.65c-7.31 2.7-11.79 3.06-18.71.62s-10.37-9.44-10.06-9.62 2.79 0 3.06-.13.18-2.18-.18-2.31-4.25.09-4.25.09-2.13-3.46-2.04-6.12z" fill="#f9f2ed"/><path d="m12.32 20.6c-.11-.28 1.07-.36 1.33.09s1.2 2.3.89 2.52-.62.45-.89.27a17.3 17.3 0 0 1 -1.33-2.88z" fill="#604f58"/><path d="m16 28.49a1.41 1.41 0 0 1 1.16-.09c.22.18.44.8 1.46 2.08s1.37 1.2 1.24 1.64-.22.58-.8.45-1.24-1-2-2a5.52 5.52 0 0 1 -1.06-2.08z" fill="#604f58"/><g fill="#ef7d7b"><path d="m21.9 24.9c.31-.51 1.37-.4 1.68.49a.92.92 0 0 1 -1.37 1.1 1 1 0 0 1 -.31-1.59z"/><path d="m21.72 28.53c.31-.51 1.38-.4 1.69.49a.93.93 0 0 1 -1.41 1.11 1 1 0 0 1 -.28-1.6z"/><path d="m24.82 30.79c.31-.51 1.38-.4 1.69.49a.93.93 0 0 1 -1.38 1.11 1 1 0 0 1 -.31-1.6z"/><path d="m25.44 26.49c.31-.51 1.38-.4 1.69.49a.92.92 0 0 1 -1.37 1.11 1 1 0 0 1 -.32-1.6z"/><path d="m27.93 29.33c.3-.51 1.37-.4 1.68.49a.92.92 0 0 1 -1.37 1.11 1 1 0 0 1 -.31-1.6z"/><path d="m29.12 24.9c.31-.51 1.38-.4 1.69.49a.92.92 0 0 1 -1.38 1.1 1 1 0 0 1 -.31-1.59z"/><path d="m25.09 22.59c.31-.51 1.37-.4 1.68.49a.92.92 0 0 1 -1.37 1.11 1 1 0 0 1 -.31-1.6z"/><path d="m38.79 23.08c.3-.51 1.37-.4 1.68.49a.92.92 0 0 1 -1.37 1.11 1 1 0 0 1 -.31-1.6z"/><path d="m35.73 26.8c.31-.51 1.37-.4 1.68.49a.92.92 0 0 1 -1.41 1.11 1 1 0 0 1 -.27-1.6z"/><path d="m35.91 30.39c.3-.51 1.37-.39 1.68.49a.92.92 0 0 1 -1.37 1.12 1 1 0 0 1 -.31-1.61z"/><path d="m39.45 30.39c.31-.51 1.38-.39 1.69.49a.93.93 0 0 1 -1.38 1.12 1 1 0 0 1 -.31-1.61z"/><path d="m42.91 28.8c.31-.51 1.37-.4 1.68.49a.92.92 0 0 1 -1.37 1.1 1 1 0 0 1 -.31-1.59z"/><path d="m39.72 26.85c.31-.51 1.37-.4 1.68.49a.92.92 0 0 1 -1.4 1.1 1 1 0 0 1 -.28-1.59z"/><path d="m43.26 24.9c.31-.51 1.38-.4 1.69.49a.92.92 0 0 1 -1.37 1.1 1 1 0 0 1 -.32-1.59z"/><path d="m39.36 39.84a28 28 0 0 1 -7.44 1.06c-4.66 0-6.48-.8-6.48-.8-.57.45-4.47 6.7-4.07 7.14s6.16.62 11 .49c1.78 0 3.54-.08 5.08-.13-.64-.71-1.72-2-1.62-2.22s.44-.84.88-.58a14.14 14.14 0 0 1 2.36 2.75c.64 0 1.2-.06 1.68-.1-.84-.89-2.91-3.11-2.84-3.36s.22-.88.84-.62a18.25 18.25 0 0 1 3.39 3.75.59.59 0 0 0 .2-.11c.39-.49-2.8-7.23-2.98-7.27z"/></g></svg>