<svg height="64" viewBox="0 0 64 64" width="64" xmlns="http://www.w3.org/2000/svg"><path d="m27.49 64a7.68 7.68 0 0 1 -3.76-.84c-3.97-2.16-17.73-30.86-17.9-31.16a37.15 37.15 0 0 1 -1.63-3.8l-.12-.34a13.15 13.15 0 0 1 -.27-4.25c.08-3.25.65-9.12 3.45-11.3 2.54-1.97 10.23-5.58 18.74-8.77 6.49-2.45 9.81-3.54 12.28-3.54a6.73 6.73 0 0 1 3 .68c2.66 1.32 5.12 6.32 8.47 14.68 1.06 2.62 3 6.84 4.87 10.91 3.21 7 4.54 10 4.74 11.09a4.51 4.51 0 0 1 -.67 3.58 5.28 5.28 0 0 0 -.45.86c-.16.42-.34.79-.5 1.13s-.25.52-.32.7c.3.41.66.85 1 1.27a16.62 16.62 0 0 1 1.37 1.82c1 1.72.08 4-1.43 5.28-1.22 1-12.77 6.51-18.67 8.79-4.28 1.67-8.69 3.21-12.2 3.21z" fill="#fff"/><path d="m5.75 23.72c.07-2.93.61-8.25 2.7-9.87s9.18-5.1 18.21-8.49 11.57-4 13.81-2.94 5.09 7.72 7.53 13.66 9.18 19.83 9.49 21.61-.39 1.85-1 3.39-1.46 2.47-.69 3.55 1.93 2.32 2.39 3.09-.15 2.08-1 2.78-12.01 6.09-18.19 8.5-11.49 4-14.35 2.47-15.43-26.71-17.05-30.26a30.17 30.17 0 0 1 -1.7-4 14.26 14.26 0 0 1 -.15-3.49z" fill="#604f58"/><path d="m45.72 40.08c-.08-.23.31-.89.61-.89a24 24 0 0 1 3.44 1.5l1.46-.5a32.77 32.77 0 0 1 -3.54-1.92c0-.2.34-1 .61-.93s3.7 1.66 4.7 2.23l1.23-.48c-1.39-.69-5-2.52-5-2.67s.42-.89.62-.85 4 1.61 5.38 2.29a2.28 2.28 0 0 0 -.23-1.14l-.27-.58a35.23 35.23 0 0 1 -5-1.81c-.31-.38-.42-.89-.19-1a37.15 37.15 0 0 1 4.6 1.43c-.21-.47-.46-1-.74-1.61a39.33 39.33 0 0 1 -4.75-2c-.19-.31-.35-1 0-1a38.67 38.67 0 0 1 4.08 1.45l-.89-2a22.55 22.55 0 0 1 -3.61-1.34c-.16-.27-.31-.89 0-1a14.44 14.44 0 0 1 2.94.8c-3.23-6.68-7.25-15.39-8.5-18.06-2.08-4.4-2.28-5.21-3.74-5.83s-4.79.83-8.68 1.88-12.08 4.95-15.25 6.64-4.51 2.66-4.35 3.31 7.94 16.66 11 22.91 4.71 9.88 5 10 11-4.17 17.67-6.37l3.63-1.2a12.07 12.07 0 0 1 -2.23-1.26z" fill="#da8cbb"/><path d="m7.83 26.65c0-.23.62-9.26 1.16-9s2.39 4.35 2.31 4.53a9.73 9.73 0 0 0 -1.7 3.82 15.86 15.86 0 0 0 -.46 3.86z" fill="#cc6ba7"/><path d="m10 31.63c-.3-.45.11-3 .69-5.17s1.2-2.7 1.32-2.58 3.35 7.06 3.31 7.33a10.51 10.51 0 0 0 -1.5 2.89c-.58 1.93-.73 3.28-.89 3.13s-2.67-5.23-2.93-5.6z" fill="#f8b586"/><path d="m14 39.23a10.17 10.17 0 0 1 .66-4c.77-2.39 1.23-2.58 1.46-2.47s8.34 17.24 8.38 17.47a7.38 7.38 0 0 0 -1 2.54c-.15 1.51 0 3.44-.15 3.36s-9-16.32-9.35-16.9z" fill="#cc6ba7"/><path d="m11.42 29.82c.32-1.14 1.7-.66 2.2.46s.11 2.55-1.12 2.47-1.43-1.7-1.08-2.93z" fill="#604f58"/><path d="m26.89 51.31c.5-.71 14-5.44 19.41-7.37s7.48-2.59 7.6-2.35-.47.54-.35 2.08a5.61 5.61 0 0 0 1.27 3.33c.58.57 1.16 1 1 1.23a151 151 0 0 1 -14.62 7.25c-5.09 2.08-11 4.36-12.77 4.12s-4.32-4.36-1.54-8.29z" fill="#fcdfc8"/><path d="m29.63 52.35a77.44 77.44 0 0 1 8.29-3.35c.39.08.62.7.47.89s-8 3.63-8.41 3.47a.78.78 0 0 1 -.35-1.01z" fill="#604f58"/><path d="m41.36 47.64a63.29 63.29 0 0 1 6.94-2.39c.35 0 .58.66.47.93s-6.6 2.82-7.07 2.66a.94.94 0 0 1 -.34-1.2z" fill="#604f58"/><path d="m35.72 53c.2-.16 18.37-7.76 18.52-7.68s1 1.19.85 1.31-18.83 7.73-19.09 7.61-.47-1.08-.28-1.24z" fill="#604f58"/><path d="m29.63 56.05a11 11 0 0 1 2.08-.69c.12.08.39.77.27 1a9.13 9.13 0 0 1 -2.31.78c-.12-.08-.35-.93-.04-1.09z" fill="#604f58"/><path d="m15.2 19.32c-.55-1.94-.46-2.62.38-3.31s8.3-3.09 13.59-5.17 8.95-2.84 9.56-2.44 6 10.27 6.6 12 .81 3.47-.5 4.7-5.4 2-11.54 4.67-9 3.32-10.53 3.24a2.45 2.45 0 0 1 -2.43-1.35c-.54-.88-4.78-11.1-5.13-12.34z" fill="#604f58"/><path d="m16.12 17c.36-.15 7.68-3.28 13.05-5.06s8.21-2.5 9-2.19 6.17 11.15 6.4 12.07a2.08 2.08 0 0 1 -.93 2.7c-1.27.7-6.55 2.63-11.8 4.71s-8 2.74-9.15 2.47-1.15-.27-1.62-1.35-4.94-11.31-5-11.77-.49-1.34.05-1.58z" fill="#ddeff2"/><g fill="#604f58"><path d="m22.34 17.55c-.42-.21-2.9.65-2.4 2.74s1.74 2.27 2.94 2.16 1.93-1.08 1.77-1.54-.42-.66-.65-.54-.43 1-1.39.92-2.28-1.16-1.32-2 1.12-.54 1.32-.73-.12-.93-.27-1.01z"/><path d="m29.55 17.43c-.81-2.47-3.62-1.8-4.13-1.23-1.27 1.43-.65 3.16.62 4.2s4.32-.5 3.51-2.97zm-3 1.94a1.49 1.49 0 0 1 -.33-2.23 1.41 1.41 0 0 1 2.19.65 1.33 1.33 0 0 1 -1.82 1.58z"/><path d="m33 14.19a1.93 1.93 0 0 0 -2.55.7 2.79 2.79 0 0 0 1.16 3.47 1.71 1.71 0 0 0 2.39-.77 3.67 3.67 0 0 0 -1-3.4zm-1 2.82a1 1 0 0 1 -.31-1.54c.21-.33.93-.27 1.2.5s-.33 1.31-.95 1.03z"/><path d="m33.91 13.3c0-.25.62-.57.81-.34s.93 2 1 1.81 1.39-2.24 1.78-2.24a.62.62 0 0 1 .62.43c0 .11-1.89 2.31-1.59 2.51s2.4 0 2.51.3.27.81-.15.93a16.86 16.86 0 0 1 -2.55 0l.39.81s-.81.5-.93.39-1.89-4.44-1.89-4.6z"/><path d="m27.58 26.46c-.46-1.58-1.73-1-1.73-1s0-1.51-1.24-1.54a3.05 3.05 0 0 0 -2.5 1.08s2 4.75 2.16 4.87.92-.24 1.46-.62 2.32-1.25 1.85-2.79zm-3.89-.46-.27-.73s.58-.5.88-.2.35.58.16.78-.77.15-.77.15zm3 1.39a3.85 3.85 0 0 1 -1.82 1.19c-.11-.11-.81-1.42-.61-1.54a2.9 2.9 0 0 1 1.46-.65.91.91 0 0 1 .98.96z"/><path d="m31.13 23.37a2 2 0 0 0 -2.47-.23c-1.65 1.08-.54 3.94 1.39 3.59s1.7-2.58 1.08-3.36zm-1.26 2.3a.89.89 0 1 1 .49-1.52c.27.35.38 1.36-.49 1.52z"/><path d="m36.23 21.83a1.92 1.92 0 0 0 -3.44-.11 2.14 2.14 0 0 0 1.51 3.28 2.05 2.05 0 0 0 1.93-3.17zm-1.83 2.05a1.06 1.06 0 0 1 -.74-1.6 1 1 0 0 1 1.7.06 1 1 0 0 1 -.96 1.54z"/><path d="m38.12 24.38s-1.55-3.71-1.51-3.86.47-.66.77-.46.74 1.46.74 1.46 1.54-2.58 1.89-2.58a.74.74 0 0 1 .73.46 11.66 11.66 0 0 1 -1.23 2.32 11.93 11.93 0 0 1 2.58 1c0 .23-.08.77-.31.77s-2.62-.69-2.89-.69.31 1 .31 1.15-.77.39-1.08.43z"/></g></svg>