<svg height="64" viewBox="0 0 64 64" width="64" xmlns="http://www.w3.org/2000/svg"><path d="m27.08 64a9.08 9.08 0 0 1 -3-.62c-1-.38-6.23-4.14-13-10.28-5.9-5.36-9.61-9.39-10.43-11.34-.9-2.13.38-4.51.65-5 .14-.24.47-.8 12.77-14.26-.42-2.5-1-8.3 1.43-12.27 3.28-5.25 7.24-6 9.32-6a8.62 8.62 0 0 1 1.24.09 7.46 7.46 0 0 1 4.59 3.23 58.14 58.14 0 0 1 7-6.16 11.52 11.52 0 0 1 6-1.39 17.07 17.07 0 0 1 10.5 3.52c5.14 4.1 8.29 8.34 9.11 12.25s.44 6.82-1.58 11c-2.19 4.46-15.59 19.14-19.68 23.54-11.79 12.8-12.64 13.13-13.39 13.42a4.17 4.17 0 0 1 -1.53.27z" fill="#fff"/><path d="m16.41 23.2s-1.72-7.51.94-11.78 5.94-5.32 8.39-4.95 4.22 4.17 4.48 4.27a.5.5 0 0 0 .62-.21c.06-.15 5.37-5.68 8-7.29s9.33-1.72 14 2 7.6 7.5 8.33 11 .47 5.74-1.4 9.59-13.66 16.94-19.29 23-11.72 12.52-12.66 12.88a5.2 5.2 0 0 1 -3-.36c-.42-.16-5.05-3.29-12.3-9.85s-9.48-9.59-9.9-10.58a3.94 3.94 0 0 1 .52-3c.4-.65 13.27-14.72 13.27-14.72z" fill="#604f58"/><path d="m5.67 38.62c.25-.42 12.93-13.81 13.19-14.33a2.14 2.14 0 0 0 0-1.41c-.05-.2-1.36-4.79-.16-8.39a7.6 7.6 0 0 1 6.67-4.9c1.46.16 3 2.66 3.13 3.55s.36 2.29.83 2.4a8 8 0 0 0 1.46.05 17.52 17.52 0 0 1 7.4-8.76c5.68-3.38 11.16-.62 14.91 2.4s6.25 8.6 5.84 10.94-3.44 6.83-11.89 16.83-20.17 21.79-20.9 21.74-7.34-4.74-13-10-8.36-8.6-7.48-10.12z" fill="#adceea"/><g fill="#604f58"><path d="m8.28 38.83c0-.23 2.19-2.24 2.5-2.13a1 1 0 0 1 .52.93 9.48 9.48 0 0 1 -2.19 2.14c-.31.05-.83-.77-.83-.94z"/><path d="m12.29 34.66a29.68 29.68 0 0 1 3.71-2.92.78.78 0 0 1 .47.79 19 19 0 0 1 -3.39 3.12c-.32.06-.89-.83-.79-.99z"/><path d="m17.29 29.82c-.06-.42 1.52-1.78 1.78-1.72a.83.83 0 0 1 .52.83c-.05.36-1.46 2-1.72 1.93s-.52-.73-.58-1.04z"/><path d="m20.79 25.33a9 9 0 0 1 1.72-2.5c.26 0 .62 0 .57.37a10.79 10.79 0 0 1 -1.25 2.8c-.21 0-1.04-.46-1.04-.67z"/><path d="m21.31 19.6c-.15-.15-.26-2.55.05-2.76s.89-.37.94.05a10 10 0 0 1 -.05 2.76.72.72 0 0 1 -.94-.05z"/><path d="m21.57 14.34a4.44 4.44 0 0 1 1.72-2.19c.62-.31.83-.05.83.21s-1 1-1.2 1.56.16.63-.26.73-1.09-.16-1.09-.31z"/><path d="m26 13.82a1.13 1.13 0 0 1 1.19.67 4 4 0 0 1 .11 2.19c-.21.16-.78.52-.89 0s.32-1-.05-1.4-.42-.11-.47-.53a2.7 2.7 0 0 1 .11-.93z"/><path d="m29.28 17.31c.09-.19.68.21 1.41 0s1-.31 1.09-.11a.86.86 0 0 1 -.26.84 1.82 1.82 0 0 1 -1.3.52c-.68-.05-1.1-.94-.94-1.25z"/><path d="m33.35 14.91c-.08-.29 1.56-2 1.82-2s.73 0 .52.47a10.68 10.68 0 0 1 -2 2.39c-.19-.08-.29-.65-.34-.86z"/><path d="m37.67 10.22a2.38 2.38 0 0 1 1.41-1.22c.52-.05.94.26.83.47a7.26 7.26 0 0 1 -1.66 1.46.58.58 0 0 1 -.58-.71z"/><path d="m42.78 7.72a6.06 6.06 0 0 1 3.22.28c.62.42.83.73.52.89a27.72 27.72 0 0 1 -3.34-.11c-.87.03-.56-.9-.4-1.06z"/><path d="m49.87 9.91a5 5 0 0 1 2.76 1.67c.62.83.94 1.35.83 1.61s-.36.89-.67.63-.79-1.62-1.88-2.24-1.09-.63-1.2-.79-.31-.88.16-.88z"/><path d="m53.57 16.16s.83-.36 1-.1a4.43 4.43 0 0 1 .63 2.08c.1 1.1.31 1.62 0 1.77s-.79.21-1-.05.11-1.3-.15-2.08-.48-1.62-.48-1.62z"/><path d="m53.41 23.72c.17-.21.89.05.83.31s-1.87 3.86-2.13 3.75-.68-.1-.73-.41a22.72 22.72 0 0 1 2.03-3.65z"/><path d="m45 33.72a35.42 35.42 0 0 1 3.44-3.38c.26 0 .78.31.57.67s-3 3.65-3.39 3.55-.62-.84-.62-.84z"/><path d="m38.77 41.18a18.75 18.75 0 0 1 2.71-2.71c.2 0 .62.26.52.57a15.54 15.54 0 0 1 -2.76 2.96c-.24-.15-.47-.82-.47-.82z"/><path d="m31.31 48.42a26.89 26.89 0 0 1 3.18-3.13c.37 0 1.1.63.89.84a40.11 40.11 0 0 1 -3.55 3.33c-.2-.05-.52-1.04-.52-1.04z"/><path d="m9.37 41.8s.47-.73.73-.62 2.61 2.19 2.45 2.6-.47.73-.78.63a28.47 28.47 0 0 1 -2.4-2.61z"/><path d="m14.22 46.39c-.19-.19.21-1.2.57-1s2.66 2.14 2.61 2.5 0 1-.57.89a14.73 14.73 0 0 1 -2.61-2.39z"/><path d="m19.8 50.92c-.09-.13.57-.78.83-.62s2.5 2 2.4 2.34-.37.89-.58.78-2.55-2.34-2.65-2.5z"/><path d="m25.69 54.62a17.26 17.26 0 0 1 2.44-2.29c.27 0 .79.21.32.68s-1.72 2.08-2.09 2.08-.67-.47-.67-.47z"/><path d="m23.18 50.4c-.1-.21-2.39-3.8-2-4.32s.63-1.1 1-.58 1.93 4.64 1.72 4.85-.72.05-.72.05z"/><path d="m26.21 51.34c-.06-.16-2.14-4.9-2-5.42s.67-.89.93-.68 2.14 5.89 1.78 6a1.25 1.25 0 0 1 -.71.1z"/><path d="m28.6 49.67c-.05-.26-1.61-4.17-1.46-4.58s.68-.84.89-.58 1.56 4.85 1.3 5.11-.73.05-.73.05z"/><path d="m30.58 47.38a14.78 14.78 0 0 1 -.73-3.54c.16-.63.73-1 .94-.68a13.5 13.5 0 0 1 .47 3.84c-.15.38-.68.38-.68.38z"/></g></svg>