<svg height="64" viewBox="0 0 64 64" width="64" xmlns="http://www.w3.org/2000/svg"><path d="m49 58.9c-5.25.08-39.63-.86-42.58-1-1-.06-1.77-.09-2.32-.1-1.44 0-2.58-.09-3.35-1.32-.22-.36-.64-1-.74-8.12 0-1.82 8.29-13.79 8.38-13.9a2.14 2.14 0 0 1 .61-.63 4 4 0 0 1 -.22-.34c-.95-1.62-1-6.06.53-7.32a3 3 0 0 1 .75-.45c-.28-2.67 0-3.34.2-3.66 1-2.17 3.91-3.85 8.51-5a33.75 33.75 0 0 1 7.54-.8c2.73 0 5.25.12 6.71.23 5.79-10.75 6.28-10.93 7.07-11.2a3.59 3.59 0 0 1 1.14-.2 4.41 4.41 0 0 1 3.47 1.69 4.06 4.06 0 0 1 .53 4.84c-.33.53-3.18 5-4.78 7.46a4.78 4.78 0 0 1 2 3.11c.09.81.12 1.85.13 2.72a4 4 0 0 1 2.18 1.72c1.35 2.26-.07 5.12-1.58 6.24 12.47-.15 13 0 13.22 0 1 .24 1.41.33 4.57 8 .86 2.09 2.87 7.08 3 8.2a41.11 41.11 0 0 1 -.24 7.41c-.48 1.52-.73 2.23-14.73 2.42z" fill="#fff"/><path d="m12.77 35.08v-1.78s-1.68.38-2.36-.79-.42-4.43.09-4.84a3.34 3.34 0 0 1 1.67-.43s-.56-3.61-.21-4.33 1.65-2.57 7.24-4 14.88-.4 14.88-.4 6-11.2 6.62-11.41a2.31 2.31 0 0 1 2.49.9 2.14 2.14 0 0 1 .39 2.59c-.44.72-5.84 9.11-5.84 9.11s2.62 1.19 2.79 2.71a37.73 37.73 0 0 1 .11 4.13 2.85 2.85 0 0 1 2.46 1.09c.73 1.21-.16 3-1.07 3.69a6.54 6.54 0 0 1 -2.18.94l-.06 2.6s15.54-.21 16.21-.06 5.89 13.37 6 14.54a45.17 45.17 0 0 1 -.15 6.66c-.2.62-7.84.93-12.89 1s-39.11-.84-42.43-1-3.82 0-4.14-.51-.39-6.44-.45-7.21 7.63-12.24 8-12.7 2.83-.5 2.83-.5z" fill="#604f58"/><path d="m42.1 28.82c0-.46-.06-1-.37-.81a13.61 13.61 0 0 1 -2.28 1.15c-1.36.53-2.23.59-2.39.44s-.31-.51-.05-.61 1.27-.12 1.31-.43a16.2 16.2 0 0 0 0-1.63s-2.38 2.63-12.32 3.13-11.55-1.73-11.55-1.73.42 11.92.73 12.28 2.92 4.8 10.61 4.49a18.07 18.07 0 0 0 9.7-3.23 8.73 8.73 0 0 1 -2.06-1.51c0-.31.35-.72.65-.62a14.21 14.21 0 0 1 2.43 1.34c.26-.22.48-.42.67-.61-.88-.47-2.79-1.52-2.75-1.76s.24-.67.5-.62a20.17 20.17 0 0 1 2.94 1.42c0-.27 0-.82 0-1.49a18.55 18.55 0 0 1 -2.74-1.36c0-.2.05-.56.25-.61a16.21 16.21 0 0 1 2.49.75c0-.47 0-1 0-1.44a13.12 13.12 0 0 1 -1.79-.65c-.15-.15-.47-.76-.06-.81a7.6 7.6 0 0 1 1.84.32c0-1 0-1.78 0-1.78s-1.23.07-1.33-.18-.16-.76 0-.87a5.66 5.66 0 0 0 3.47-.66c2.16-1.1 2.11-1.46 2.1-1.91z" fill="#f8b586"/><path d="m57.72 52.77a.62.62 0 0 1 .66-.67 5.33 5.33 0 0 1 1.39 1.17c0-1.06-.08-2.21-.08-2.21s-4.13 0-22-.11-33-1.33-33.3-1.07a10.14 10.14 0 0 0 -.09 3.52c.16.25 2.81.16 14 .62 8.2.34 26.49.81 35.75 1a3.53 3.53 0 0 1 -.72-.93c0-.2.5-.72.91-.57a5.75 5.75 0 0 1 1.42 1.48h1.27a10 10 0 0 1 -1.54-1.7c-.06-.31.6-.62.81-.52a17.33 17.33 0 0 1 2 2.23 9.68 9.68 0 0 0 1.4 0s0-.07.06-.15a13 13 0 0 1 -1.94-2.09z" fill="#ddeff2"/><path d="m12.8 37.38s-2-.13-2.24.13-6.63 11.2-6.42 11.2 14.44 1.43 26.73 1.37 28.4 0 28.65-.19.25-.57-.18-1.68-4.58-11.21-4.69-11.36-14.93.26-14.93.26v2.8a3 3 0 0 1 2.63 2.26c.59 2.18.38 5.65-6 6.61s-17.07.74-21.57-.11-5.69-3.14-5.37-5.67 3.42-3.67 3.42-3.67z" fill="#f9f2ed"/><path d="m13 40.43v.82s-1.41 1.14-.94 2.46 1.11 2.68 5.2 3.55a44.65 44.65 0 0 0 13.26.53c4.18-.47 7.93-1.9 9.29-3.34s.47-2.35.17-2.6-.52-.46-.52-.46a.39.39 0 0 1 .15-.51c.3-.21 1.94.84 2.12 2.68s-3.05 4.32-7.83 4.79-14.77.65-18.1-.26-5.33-2.42-5.56-4.09 1.59-2.94 2.76-3.57z" fill="#ef7d7b"/><path d="m13.89 42.56a16.45 16.45 0 0 0 4.88 2.89c3.13 1.23 7.11 1.69 12.3.7a14.67 14.67 0 0 0 7.6-3.93c.15.05.93.91.32 1.63s-4.79 3.63-12.54 3.59-10.73-1.85-12.17-2.74-1.41-2.02-.39-2.14z" fill="#f6c687"/><path d="m12.37 28.61s-1.12.12-1.16.43a15.44 15.44 0 0 0 0 2.65c.11.15 1.19.69 1.24.54s-.08-3.62-.08-3.62z" fill="#f8b586"/><g fill="#604f58"><path d="m16.45 32c0-.36.81-.16.87.14s.38 5.81.13 5.81-.92 0-1-.44-.05-5.08 0-5.51z"/><path d="m18.61 33.52s1.17 0 1.28.29 0 5.15 0 5.35-1 .22-1.07.07-.21-5.71-.21-5.71z"/><path d="m43.76 38.58c.14-.21.82-.16.87.09s.37 8.56.22 8.67-.86.36-1 0-.19-8.6-.09-8.76z"/><path d="m48.07 40.31c.07-1.17 1.4-2.32 3.28-2.34a3.59 3.59 0 0 1 3.45 2.14c.16.82-.33 2.2-3.28 2.29s-3.52-1.4-3.45-2.09z"/></g><path d="m49.49 39.42c.64-.33 3.25-.35 3.82.15a.8.8 0 0 1 -.39 1.43 8.71 8.71 0 0 1 -3.26 0 .87.87 0 0 1 -.17-1.58z" fill="#ef7d7b"/><path d="m48.43 46.28c.08-1.28 1.57-2.28 3.67-2.36s3.64 1.23 3.82 2.14-.36 2.45-3.65 2.55-3.88-1.61-3.84-2.33z" fill="#604f58"/><path d="m50.11 45.44c.72-.37 3.63-.39 4.26.17a.9.9 0 0 1 -.43 1.54 9.63 9.63 0 0 1 -3.63 0 1 1 0 0 1 -.2-1.71z" fill="#ef7d7b"/><path d="m14.57 25.42a1.5 1.5 0 0 1 -.28-2.09c.9-1.08 4-2.75 9.85-2.88a60.34 60.34 0 0 1 8.72.28l-.59 1.19a26.31 26.31 0 0 0 -10.45.08c-5.18 1.25-7.01 2.3-7.25 3.42z" fill="#ddeff2"/><path d="m35.5 23.09 1-1.23s2 .48 1.81 1.55a2.67 2.67 0 0 1 -1.46 1.65s.03-1.78-1.35-1.97z" fill="#ddeff2"/><path d="m30.46 27.24c.15-.24 10.14-18.44 10.75-18.7a1.08 1.08 0 0 1 1.39 1.2c-.09.92-10.82 17.38-11.18 17.49a2.69 2.69 0 0 1 -.96.01z" fill="#f6c687"/><path d="m15.65 25.71c-.07-.35 3.08-2.39 9-2.72s7 0 7 0-2.13 4.42-2.54 4.53-13.02.63-13.46-1.81z" fill="#ef7d7b"/><path d="m20 25.8a16.91 16.91 0 0 1 3.22-1.8c.36 0 .27.66.27.66s-2.49 1.69-2.68 1.7-.81-.56-.81-.56z" fill="#604f58"/><path d="m23.61 26a26 26 0 0 1 3.33-2.19c.31.05.77 0 .67.25s-1.91 2.13-2.61 2.19a2.82 2.82 0 0 1 -1.39-.25z" fill="#604f58"/><path d="m27.38 25.91c.15-.26 1.5-1.65 1.81-1.66s.66 0 .41.3-1.2 1.55-1.5 1.6a1.18 1.18 0 0 1 -.72-.24z" fill="#604f58"/><path d="m33.35 26.34 1.8-2.42s1.49.48.68 1.46a3.55 3.55 0 0 1 -2.48.96z" fill="#ef7d7b"/></svg>