<svg height="64" viewBox="0 0 64 64" width="64" xmlns="http://www.w3.org/2000/svg"><path d="m32 63.5c-4.13.08-11.78-.94-14.87-2.78-3.64-2.17-4.78-7.16-4.66-10.78a33.47 33.47 0 0 1 1.74-7.86c.22-.69.46-1.48.5-1.71a4.16 4.16 0 0 0 .06-.46 3.87 3.87 0 0 1 -2.17-2.77 34.86 34.86 0 0 1 0-7.54c.1-.62.63-2 3.22-2.24a7.4 7.4 0 0 1 1.87-4.21 8.19 8.19 0 0 1 6-2.41h.2c.3 0 .55-.07.74-.1h.35a8.41 8.41 0 0 0 2.61-1.64 14.25 14.25 0 0 0 1.62-1.77 3.1 3.1 0 0 1 1.2-1.06 2 2 0 0 1 .87-.2 3.05 3.05 0 0 1 2 .89l.23.2a5.6 5.6 0 0 1 1 1.07c.25.34.94 1.26 1.28 1.35a2.61 2.61 0 0 0 .58 0h.29c.83-3.17 3.19-11.63 4.7-14.48s3.45-4.46 5.64-4.5a5.14 5.14 0 0 1 1.79.3c3.21 1.2 2.86 4.56 2.69 6.2-.22 2-4.47 9.93-7 14.48a4.58 4.58 0 0 1 1.38 2.74 17.08 17.08 0 0 1 0 2.49 7.12 7.12 0 0 1 2.4.54c1.31.63 1.78 2.2 1.71 5.79a24.86 24.86 0 0 1 -.47 4.71 3.62 3.62 0 0 1 -2.09 1.86c.44 2.07 1.16 5.62 1.49 8.19.67 5.24-.61 9.77-3.5 12.41s-6.83 2.92-10.58 3.14c-.58 0-1.17.06-1.75.11z" fill="#fff"/><path d="m17.73 29.41a6.54 6.54 0 0 1 1.37-5 6.67 6.67 0 0 1 4.9-1.79c.62-.06 1.06-.15 1.24-.16a9 9 0 0 0 3.6-2.11c1.62-1.5 2-2.35 2.31-2.49s.62.21 1.17.64 1.55 2.46 3 2.79a5.44 5.44 0 0 0 2.84-.24s3.17-11.92 4.84-15.16 3.47-3.89 5.13-3.3 1.69 2.1 1.46 4.2-7.59 15.21-7.59 15.21a3.56 3.56 0 0 1 2 2.41 25.31 25.31 0 0 1 -.1 4.13 11 11 0 0 1 3.61.42c1.08.51.51 7.54.29 8.08s-1.53 1-1.8 1.1a6.3 6.3 0 0 1 -.75.2s1.36 6 1.84 9.69 0 8.13-2.9 10.77-7.19 2.45-11.19 2.75-12.11-.83-14.85-2.46-3.86-5.79-3.75-9.09 2-8.13 2.21-9.33a9.19 9.19 0 0 0 .09-2.23 2.28 2.28 0 0 1 -2.21-1.69 33.61 33.61 0 0 1 0-6.84c.12-.71 2.43-.84 3.24-.5z" fill="#604f58"/><path d="m46.33 30.72a94.1 94.1 0 0 1 -14.13 2.36c-10.12.92-15.2-1.82-15.59-1.74s-.09 4.27 0 4.54 1.35 1.17 3.36 1.4 5.6.42 5.6.42-.06 1.2-.37 1.52-5.95-.11-6.35 0-.13.45-.12.67-.52 2.77-1.58 7.68.66 9 2.63 9.86 9.38 2.24 16.75 1.57l1-.1c-.53-.64-1.53-1.9-1.46-2.13s.42-.84.69-.61a29.16 29.16 0 0 1 2 2.55c.62-.11 1.17-.23 1.67-.37a26.75 26.75 0 0 1 -2.08-2.48c0-.24.19-.61.42-.58a22 22 0 0 1 2.69 2.72 5.49 5.49 0 0 0 1.44-.82c-.68-.65-2.67-2.55-2.67-2.64s.18-.77.42-.74a21.15 21.15 0 0 1 3 2.55 5.46 5.46 0 0 0 .76-1.65 25.72 25.72 0 0 1 -2.41-2.45c-.07-.33 0-.56.19-.63a12.75 12.75 0 0 1 2.57 1.91c.15-.8.26-1.71.37-2.75.6-5.7-1.88-11.92-1.88-11.92a24.07 24.07 0 0 0 -2.8.24 54.81 54.81 0 0 1 -5.86.33c-.35 0-.16-1.41 0-1.77s.62-.15 3.19-.33 7.9-.6 8.47-.92.21-5.52.08-5.69z" fill="#ddeff2"/><path d="m18.8 29.38c-.36-.24-.29-3.16 1.55-4.53s3.24-1.37 3.64-1.24.47.19.47.29a5.85 5.85 0 0 0 -1.64 3c-.13 1.64.08 2.1.24 2.13s.7 0 .74-.05a6.17 6.17 0 0 1 1.2-4.36c1.6-1.9 3.52-2.47 4.47-3.28s1.24-1.6 1.44-1.4a2.6 2.6 0 0 1 -.26 2.14 27.87 27.87 0 0 0 -3 4.49c-.47 1.28-.08 2.7.22 2.83s.41.16.5 0-.37-2.2.63-3.49 1.89-2.64 2.21-3 .38-1.17.65-1.14a7.15 7.15 0 0 1 2.17 3.82c.13 1.56-1 3.12-.8 3.31a.65.65 0 0 0 .67.19 5.26 5.26 0 0 0 1.4-3.46 6.06 6.06 0 0 0 -1.7-3.43 5.71 5.71 0 0 1 -.59-1c.27-.14 1.29.88 2.26 1.16s2.41.42 3.27 2a6.13 6.13 0 0 1 .57 3.73c0 .43 0 .66.15.73a.51.51 0 0 0 .63-.42c.06-.4.57-2.84 0-4a6.94 6.94 0 0 0 -2-2.16 5.45 5.45 0 0 1 3.21.43 4.31 4.31 0 0 1 2.09 3.36c.16 1.36 0 3-.4 3.21s-4.07 1.71-11.36 1.75-10.8-.45-12.63-1.61z" fill="#f9f2ed"/><path d="m39.1 20.85c-.24 0 3.64-11.37 4.66-13.79s2.24-4.06 3.66-3.64 2.24.12.15 5.46-6.42 12.53-6.69 12.53-1.38-.6-1.78-.56z" fill="#ddeff2"/><g fill="#604f58"><path d="m22.78 41.87c.63-.06 1.15 1 1.17 1.54s-.22.9-.59.91-.32-1.06-.75-1.08-1.15 1-1.11 2.95a3.39 3.39 0 0 0 1.08 2.61.75.75 0 0 1 -.11.74c-.14.07-1.07-.08-1.67-1.74a6.16 6.16 0 0 1 .34-4.5c.49-.95.74-1.3 1.64-1.43z"/><path d="m28.1 44.56c.32-.64.58-2.78-.39-2.89s-2.51 1.26-2.71 1.65c-.06.14-.28 6.07-.14 6.5s.8.12.93-.08-.11-2.4.09-2.5 1.64 2.16 1.74 2.23.67-.08.76-.35-1.58-2.4-1.75-2.6 1.15-1.32 1.47-1.96zm-2 .64c-.1-.2-.1-1.7-.1-1.7.13-.17 1.15-.85 1.45-.53s-.73 1.82-1 2-.3.46-.37.23z"/><path d="m29.4 43c.1-.21 2.65-.92 2.79-.62s.09.9-.08 1-1.79.47-1.75.64 0 1.3 0 1.3 1.1-.19 1.13-.09a1.78 1.78 0 0 1 0 .73c-.07.13-1 .19-1 .32v1.83a15.92 15.92 0 0 1 1.84.53c.07.1 0 .7-.09.7a15.44 15.44 0 0 1 -2.8-.07c-.08-.17-.1-6.13-.04-6.27z"/><path d="m33.56 49.42c0-.23.11-6.57.3-6.84s.79-.38.93-.18.58 2.52.72 2.52 1.49-1.83 1.79-1.87.74 0 .74.15-.06 5.5-.12 5.7-.59.41-.73.28a39.1 39.1 0 0 1 -.18-4 8.3 8.3 0 0 1 -1.38 1.09c-.2 0-.81-1-1-1s.31 3.66 0 4-1.07.15-1.07.15z"/><path d="m39.51 48.7s-.14-5.53 0-5.86 2.22-.58 2.29-.28.08.86 0 .9a8.11 8.11 0 0 0 -1.36.19c0 .1-.14 1.14 0 1.24s.8-.09.87.08.18.63 0 .7a7.28 7.28 0 0 1 -.86.22 13.4 13.4 0 0 0 .13 1.93c.11.09 1.37.14 1.44.23s.21.57 0 .64-2.44.01-2.51.01z"/><path d="m20 52c.19-.4 1.2-.16 1.2 0a6.94 6.94 0 0 0 1 2.52c.54.62.94.64.91 1s-.71.85-.88.82a7.63 7.63 0 0 1 -1.91-2.27 4.28 4.28 0 0 1 -.32-2.07z"/></g></svg>