<svg height="64" viewBox="0 0 64 64" width="64" xmlns="http://www.w3.org/2000/svg"><path d="m18.47 59.69a9.13 9.13 0 0 1 -2.57-.17c-1.66-.5-2.77-3.28-2.78-3.31s0-.15-.08-.22a8.63 8.63 0 0 1 -4-2.62c-2-2.39-2.59-5.31-2.92-9-.21-2.31-.31-4.7-.35-6.23a15.1 15.1 0 0 1 -2.77-.67l-.41-.17a2.6 2.6 0 0 1 -1.87-2.3c-.08-1-.29-4.2.74-5.34s3.72-1.44 3.75-1.44h.18l-.06-2.81a9.92 9.92 0 0 1 -4.33-2.64 4.07 4.07 0 0 1 -.78-4 3 3 0 0 1 2.38-1.88 4.13 4.13 0 0 1 .66-.05 20.31 20.31 0 0 1 2.65.27 27.76 27.76 0 0 1 8.19-2.91c1.88-.34 3.18-.56 4.09-.7-.17-4.78.52-5.78.76-6.14.76-1.11 2.44-2.21 9.55-2.7 2.2-.15 5.93-.31 8.93-.31a18.91 18.91 0 0 1 4.43.29c1.88.51 2.9 2 3 4.52v.11c0 .5-.06 1.83-.15 3.07a31 31 0 0 1 7.17 1.49 24.69 24.69 0 0 1 4.15 1.83h.25a29.9 29.9 0 0 1 3.85-.43 3.5 3.5 0 0 1 .92.1 4 4 0 0 1 2.95 4.13c-.25 1.38-1.62 2.34-3.52 3.54a10.07 10.07 0 0 1 -1.21.67l-.27 3.09c2.47.59 3 1.58 3.13 2.42.06.38.23 5.19-.57 6.45-.27.43-.63 1-3.13 1.56-.33 3.5-1.13 11.06-1.92 13.12a10.83 10.83 0 0 1 -3.6 4.87 4.34 4.34 0 0 1 -.57.29c-.83 2.77-1.69 3.28-2 3.48s-1.13.67-4.5.67c-.45 0-.78 0-.89 0-.67-.09-1.23-.39-2.14-1.62a68.33 68.33 0 0 1 -9.75.75h-.74a66.8 66.8 0 0 1 -9.2-.79 2.59 2.59 0 0 1 -1.42 1.49c-.33.08-.7.24-3.23.24z" fill="#fff"/><path d="m60.62 17.12c-.8-.21-4.84.55-5 .51a17.81 17.81 0 0 0 -4.38-2 32.84 32.84 0 0 0 -8.59-1.52s.34-4 .3-4.75 0-2.44-1.6-2.87-9.05-.16-12.71.09-7.37.8-8.08 1.85-.34 6.74-.34 6.74-.93 0-5.77.92a24.74 24.74 0 0 0 -8.16 3 17.66 17.66 0 0 0 -3.41-.33c-.89.12-1.48 1.34-.34 2.82s4.7 2.42 4.7 2.42l.13 6.1s-1.43 0-2 .08a5.31 5.31 0 0 0 -2.44.8c-.38.42-.3 3.41-.26 3.88s.17.42 1.14.84a24.84 24.84 0 0 0 3.91.84s0 4 .38 7.7 1 6.06 2.49 7.92a7.45 7.45 0 0 0 4.12 2.27 4.87 4.87 0 0 0 .25 1.14 5.24 5.24 0 0 0 1.52 2.1 22.16 22.16 0 0 0 4.46 0c.42-.17.84-1.9.84-1.9a60.36 60.36 0 0 0 10.53 1.06 64.86 64.86 0 0 0 11.36-.93s1.14 1.77 1.48 1.81 3.45 0 4.16-.38 1.41-3.33 1.41-3.33a5.84 5.84 0 0 0 1.14-.42 9 9 0 0 0 2.82-3.92c.89-2.31 1.94-14.06 1.94-14.06s3-.5 3.28-1a19.88 19.88 0 0 0 .3-5.09c-.13-.76-3.29-1.14-3.29-1.14l.47-6a9.57 9.57 0 0 0 1.93-.92c.93-.59 2.61-1.64 2.74-2.32a2.14 2.14 0 0 0 -1.43-2.01zm-22.4-3.07c-.25.17-10.86.51-13.59.51a9.34 9.34 0 0 1 -.05-2.15c.17-.21 1.9-.93 7-1.22s6.32-.38 6.61 0a5 5 0 0 1 .03 2.86z" fill="#604f58"/><path d="m49.76 44.7c.08-.3.21-.72.59-.59a26.2 26.2 0 0 1 3.08 2.28c0-.3.08-.67.14-1.11a18.93 18.93 0 0 1 -3-1.93c-.09-.3 0-.72.29-.72a14 14 0 0 1 2.84 1.75c0-.06 0-.12 0-.19 0-.24.07-.5.11-.78a14 14 0 0 1 -2.42-1.87.56.56 0 0 1 .46-.67 6.35 6.35 0 0 1 2.1 1.4c0-.37.1-.75.14-1.14-.78-.35-2.32-1.07-2.32-1.32s.38-.92.67-.8a17.66 17.66 0 0 1 1.79 1c0-.35.08-.69.11-1a9.07 9.07 0 0 1 -1.52-1.07c-.08-.21.17-.47.46-.47a4 4 0 0 1 1.19.37c.1-.85.16-1.42.16-1.42s-3.07 0-3.66-.13a1.23 1.23 0 0 1 -1-.84 40.07 40.07 0 0 1 0-4.67 2.92 2.92 0 0 1 1.55-1.43 21 21 0 0 1 3.16-.08l1-6s-4.38 1-10.06 1.64a223.31 223.31 0 0 1 -26.35.93 84.05 84.05 0 0 1 -9.88-.84c-.09.13.12 5.14.12 5.14s.64-.13 1.69-.25a2.68 2.68 0 0 1 2.73 1.3c.64 1 .68 4.72.26 5.85s-4.63.72-4.63.72 0 .29.16 3.58a63.52 63.52 0 0 0 .76 6.65 11.25 11.25 0 0 0 1.94 1c1.43.63 10.1 2.86 19.7 2.9 6.29 0 13.34-1.66 17.49-2.88-.79-.48-2.34-1.48-2.21-1.79s.25-.72.67-.59a11.06 11.06 0 0 1 2.66 2l.9-.29a18.93 18.93 0 0 1 -2.8-2.18c0-.3 0-.8.38-.67a13.17 13.17 0 0 1 3.28 2.55 5.25 5.25 0 0 0 .72-.28.7.7 0 0 0 .06-.19c-.92-.66-3.58-2.63-3.51-2.87z" fill="#ef7d7b"/><path d="m4.13 20.41c.45-.23 3.45.63 5.17.76s9.31.58 20.71.46a165.17 165.17 0 0 0 23.11-1.56c3.25-.59 6.32-1.18 6.49-1a.46.46 0 0 1 0 .47s-4.38 3.19-17.18 4a235.58 235.58 0 0 1 -27.82.33 23.27 23.27 0 0 1 -9.43-2.37c-1.18-.71-1.18-1.01-1.05-1.09z" fill="#ddeff2"/><path d="m9.14 19.44a43.57 43.57 0 0 1 6.35-1.9c2.36-.37 5.1-.67 5.1-.67a1.68 1.68 0 0 0 1 .93 6.59 6.59 0 0 0 3.2-.13c.26-.21.21-1.26.21-1.26s2.66-.17 6.49-.25 7.03-.16 7.03-.16.29.93.8 1.14a6 6 0 0 0 2.73 0c.47-.21.76-1.14.76-1.14a28.47 28.47 0 0 1 5.6.67c2.48.63 5 1.35 4.59 1.69s-8.84 1.09-23.07 1.3-20.79-.22-20.79-.22z" fill="#d16d6c"/><path d="m21.3 16.45s-.29-6.44-.08-7 2.78-1.71 7.7-2.09 11.66 0 12.08.29.55 8.13 0 8.63a1 1 0 0 1 -1.3 0c-.09-.12-.3-.16-.38-2.1s.13-4.17-.72-4.34a45.46 45.46 0 0 0 -9.47.38c-4.33.59-5.3 1.56-5.51 2.07s.38 4.2.21 4.46-2.11.63-2.53-.3z" fill="#f39a9b"/><path d="m7.45 31.06a14.1 14.1 0 0 0 -2.65.17c-.8.21-1.31.75-1.26 1.05a12.31 12.31 0 0 0 0 2.19 23.87 23.87 0 0 0 4.92 1.18c2.28.37 3.92.42 4.09 0s-.76-2.45-.8-2.87 0-.75.25-.67.67.38.59.08-.17-1-.51-1.13a10.8 10.8 0 0 0 -2-.09h-.61s-.17.63 0 .76 1.31-.13 1.39.13.17.75 0 .88a12.79 12.79 0 0 1 -2.86.13c-2 0-2.53 0-2.53-.21s-.42-.66.09-.66 1.89-.09 1.89-.09z" fill="#d16d6c"/><path d="m51.52 31c.2-.2.3-.34.51-.17a10.56 10.56 0 0 0 3.33.75c1.85.21 2.23.17 2.44 0s.46-.8.25-1-.55.05-1.31.05-3 0-3-.17 0-.51.26-.55a7.59 7.59 0 0 1 .84 0s-.25.34.12.34 1.52.25 1.65 0 .08-.47.25-.55 2.48 0 2.61.76.17 3.53-.59 3.78a40 40 0 0 1 -6.53.38c-.88-.08-1.09 0-1.17-.21a17.11 17.11 0 0 1 .34-3.41z" fill="#d16d6c"/><path d="m11.28 49.37c0-.17.89.34.89.34s7 2.86 18 2.94a70.48 70.48 0 0 0 19.45-2.52c1.77-.34 3.16-1.18 3.37-1.06s-1.35 2.53-2.44 3.12-11 3.24-20.46 2.48-15.78-2.19-17-2.9a3.28 3.28 0 0 1 -1.81-2.4z" fill="#d16d6c"/><path d="m16 54.67a15.53 15.53 0 0 1 2.95.55 4.79 4.79 0 0 0 1.94.21s0 1.3-.72 1.43a12.5 12.5 0 0 1 -3.45-.17c-.34-.17-1.02-1.81-.72-2.02z" fill="#d16d6c"/><path d="m44.92 55.39 3.08-.59a7.67 7.67 0 0 0 1.56-.42s-.38 1.72-.89 2a14.52 14.52 0 0 1 -3.53.16c-.14-.06-.6-1.07-.22-1.15z" fill="#d16d6c"/><g fill="#604f58"><path d="m12.59 26.72c.17-.08 1.18-.29 1.22.09s.21 2.4-.13 2.44-.8.38-1-.13a9.74 9.74 0 0 1 -.09-2.4z"/><path d="m13.47 39.56c0-.13 1.14-.25 1.26.13a43.52 43.52 0 0 1 0 6.27c-.17.17-.71.34-.92.08s-.34-6.31-.34-6.48z"/><path d="m22.77 39.27c.21-.26 1.35-.38 1.6.12s.17 1.22-.84 1.35-1.05-1.1-.76-1.47z"/><path d="m26 33.79c.21-.15 1.34-.16 1.47.42s-.47 1.39-1.2 1.06-.84-1.06-.27-1.48z"/><path d="m35.11 32.4c.42-.21 1.51-.08 1.64.47a1 1 0 0 1 -1.39 1 .82.82 0 0 1 -.25-1.47z"/><path d="m39.61 38c.19-.19 1-.59 1.43-.17a1.22 1.22 0 0 1 .21 1.48 1 1 0 0 1 -1.43.25 1.25 1.25 0 0 1 -.21-1.56z"/><path d="m28.84 36c1.35-.8 6.35-1.26 8.63 1.94s.33 7.87-1.35 9.22-6.27 1.64-8.42-.72-3.58-7.64 1.14-10.44z"/></g><path d="m30.65 36.66c1.58-.43 6.27.29 6.48 4a5.15 5.15 0 0 1 -6.13 5.59c-3.36-.67-4.33-4.21-4.42-4.8a3.87 3.87 0 0 1 .3-1.51 10.6 10.6 0 0 0 2 .88c.25 0 .67-.54.59-.71s-2-1-2-1.27a6.22 6.22 0 0 1 3.18-2.18z" fill="#f9f2ed"/></svg>