<svg height="64" viewBox="0 0 64 64" width="64" xmlns="http://www.w3.org/2000/svg"><path d="m15.33 60.59c-1.84 0-4.54-.66-7-3.83a37.5 37.5 0 0 1 -3.57-5.92 5.84 5.84 0 0 1 -3.06-3.12l-.27-.59c-.82-1.86-1.55-3.46-1.43-8.43a38.18 38.18 0 0 1 1.46-9.44 5.22 5.22 0 0 1 -1.31-4c.55-4.41 4.4-9.11 11.45-14 9.25-6.37 15-7.08 19.19-7.6l.48-.07a26.47 26.47 0 0 1 3.13-.21c2.21 0 3.74.41 4.68 1.27l.31.31a15.27 15.27 0 0 1 2-.12 19.36 19.36 0 0 1 10.31 3.16c5.74 3.59 10.08 8.09 9.89 10.24 0 .38-.2 1.11-.35 1.75a16.84 16.84 0 0 1 2.5 6.86c.61 4.18.22 9.3-2 11.32a6.59 6.59 0 0 1 -4.4 1.67 7.31 7.31 0 0 1 -2.81-.57 39.44 39.44 0 0 1 -3.68-1.83 5.68 5.68 0 0 1 -2.56 1.08h-.2a9.33 9.33 0 0 1 -1.85-.29 13.25 13.25 0 0 0 -2.72-.42h-1.18a7 7 0 0 1 -1 3.43c-1.2 1.8-3 2.65-5.6 3.83l-1.11.51a13.85 13.85 0 0 1 -5.72 1.49 6 6 0 0 1 -2.12-.35 8 8 0 0 1 -2.24-1.6c-.29.32-.58.67-.85 1a15.39 15.39 0 0 0 -.91 1.43 4.22 4.22 0 0 1 -1.15 1.45 52.32 52.32 0 0 1 -.54 7 6.36 6.36 0 0 1 -5.24 4.53z" fill="#fff"/><path d="m3.7 28.73s-1.84-1.36-1.6-3.24 1.41-6.26 10.62-12.6 14.72-6.82 18.81-7.34 5.69 0 6.26.56a2.13 2.13 0 0 1 .66 1s5.55-1.66 12.22 2.53 9 7.9 9 8.42-.52 2.35-.52 2.35a13.61 13.61 0 0 1 2.68 6.72c.66 4.47-.09 8.42-1.41 9.6a4.84 4.84 0 0 1 -5.17.75 46.72 46.72 0 0 1 -4.57-2.35 7.85 7.85 0 0 1 -2.54 1.46c-.79 0-2.58-.66-4.6-.71a24.74 24.74 0 0 0 -3.2.09s.42 2.64-.61 4.19-2.92 2.26-5.93 3.67-5.22 1.5-6.3 1.08a12.15 12.15 0 0 1 -2.92-2.59 20.37 20.37 0 0 0 -2.45 2.68c-1 1.41-1.27 2.26-1.69 2.5a5.86 5.86 0 0 1 -.71.33 70.65 70.65 0 0 1 -.52 7.75 4.41 4.41 0 0 1 -3.48 3.06c-1.41.1-3.66-.23-5.83-3.06a35.69 35.69 0 0 1 -3.71-6.34 3.65 3.65 0 0 1 -2.68-2.31c-.94-2.11-1.7-3.15-1.55-8.18a34.53 34.53 0 0 1 1.74-10.02z" fill="#604f58"/><path d="m29.79 39.5a.82.82 0 0 1 .9-.75 22.47 22.47 0 0 1 3.82 1.53c.62-.28 1.24-.56 1.76-.82-1.25-.59-4.14-2-4.22-2.12s.24-1 .52-1a42.77 42.77 0 0 1 5 2 12.67 12.67 0 0 0 .18-1.61c-.65-.38-3.68-1.67-3.73-1.83s-.18-.85.29-.85a18.68 18.68 0 0 1 3.51 1.23c0-.8 0-1.76 0-2.88a18.76 18.76 0 0 1 -3.18-1c-.42-.33-.61-1.09-.42-1.18a13.94 13.94 0 0 1 3.6.63c0-.78 0-1.64 0-2.56-.78-.15-2.89-.58-3-.89s-.28-1.13-.09-1.22a11.75 11.75 0 0 1 3.07.66c0-.71 0-1.44-.06-2.22-.28-9.49-1.74-15.37-2.21-15.84s-1.83-.78-4.28-.5a30.27 30.27 0 0 0 -14.67 5.17 54.48 54.48 0 0 0 -11.47 10.39c-1.46 1.51.14 3.44 1.27 3.81s5.92.42 11.56 3.81 10.11 10.3 10.68 10.63 2.49-.19 4-.94l.5-.25a20 20 0 0 1 -3.33-1.4z" fill="#f6c687"/><path d="m49.08 24.92a.68.68 0 0 1 .7-.8c.46 0 3.13 2.32 4.06 3.3.34-.59.64-1.15.91-1.69-1.12-.79-4.33-3.05-4.4-3.2s0-.57.51-.57a25.85 25.85 0 0 1 4.39 2.74c.26-.56.48-1.09.67-1.58a28.16 28.16 0 0 1 -3.88-3c0-.38.09-.94.52-.9a24.39 24.39 0 0 1 3.79 2.65 11 11 0 0 0 .58-2.83c0-1-1.13-2.92-6.73-6.31s-10.44-3.61-10.67-3.37.33 3.29.66 8.65.28 15.28.28 15.28 4.55.48 6.41.54a10.24 10.24 0 0 1 -1.71-1.57c0-.28.43-.8.71-.75a15.93 15.93 0 0 1 2.74 2.11 3.87 3.87 0 0 0 1.1-.7c-.71-.67-2.79-2.64-2.9-2.87s.37-.89.8-.75a21.06 21.06 0 0 1 3.11 2.6c.24-.27.5-.6.78-1a27.25 27.25 0 0 1 -3.33-2.9c-.09-.38.19-.89.47-.89a23.67 23.67 0 0 1 3.62 2.79c.2-.28.4-.59.61-.91l.26-.4a47.83 47.83 0 0 1 -4.06-3.67z" fill="#f6c687"/><path d="m57.26 30.85c-.28-.61.19-1.08.23-1.22a10.61 10.61 0 0 1 2.32 1.37 17.17 17.17 0 0 0 -1.24-5.69c-.32-.24-.94 1.13-2.11 3.1a38.72 38.72 0 0 1 -3.9 4.89 17 17 0 0 0 3.44 1.55 3.56 3.56 0 0 0 2-.15 17.73 17.73 0 0 1 -2-1.88c0-.18.14-.65.61-.61a10.15 10.15 0 0 1 2.57 1.64 3.1 3.1 0 0 0 .58-1.21s-2.22-1.18-2.5-1.79z" fill="#f6c687"/><path d="m8.77 48.48a16.1 16.1 0 0 1 4.71-.8c2.44-.14 3.19 0 3.29.29s-.19 4.23-.33 5.64-.38 2-1.41 2.07-5.36-3.29-6.26-7.2z" fill="#f6c687"/><path d="m6 45.8s-1.93-3.29-1.32-9.4.61-6.3.85-6.4a28.3 28.3 0 0 1 10.11 3.44c4.36 2.56 7.52 6.49 7.36 6.81a17.87 17.87 0 0 0 -2.54 2.83c-1.13 1.78-1.08 2-1.31 2s-2.64-1.51-7.53-.19-5.62.91-5.62.91z" fill="#f6c687"/><g fill="#604f58"><path d="m7 35.55c.1-.32 1.13-.66 1.27-.33s.19 5.46-.09 5.6-1.08.42-1.18 0a52.44 52.44 0 0 1 0-5.27z"/><path d="m9.34 23.23c.53-.06 1.17.33 1.13.85s-1 .8-1.6.61-.43-1.37.47-1.46z"/><path d="m17.24 26.33c.53 0 1.17.33 1.13.85s-1 .8-1.6.61-.42-1.36.47-1.46z"/><path d="m22.41 20.17c.53-.05 1.18.33 1.13.85s-1 .8-1.6.61-.42-1.36.47-1.46z"/><path d="m31.49 11.94c.53 0 1.17.33 1.13.85s-1 .8-1.6.61-.43-1.4.47-1.46z"/><path d="m29 19.33c.54-.06 1.18.33 1.13.84s-1 .8-1.6.62-.38-1.37.47-1.46z"/><path d="m26.41 26.52c.53-.05 1.17.33 1.13.85s-1 .8-1.6.61-.42-1.36.47-1.46z"/><path d="m15.22 17.82a1.17 1.17 0 0 1 2.07.52c.23 1-.8 1.6-1.74 1.22s-.55-1.41-.33-1.74z"/><path d="m22.27 14.06a1.17 1.17 0 0 1 2.07.52c.23 1-.8 1.6-1.74 1.22s-.6-1.41-.33-1.74z"/></g></svg>