<svg height="64" viewBox="0 0 64 64" width="64" xmlns="http://www.w3.org/2000/svg"><path d="m54.7 31.19c-.19-2.59-.87-6.1-4.51-6.71-.86-.14-2.13-.28-3.18-.39 0-.75 0-1.64-.09-2.48-.2-3.74-2.57-4.16-6.43-4.4-1.25-.08-3.84-.12-7.71-.12h-1a2.68 2.68 0 0 0 .63-.82 2.55 2.55 0 0 0 1.53.52 2.7 2.7 0 0 0 2.72-2.53 2.87 2.87 0 0 0 -.8-1.87 9 9 0 0 0 .62-.9 4.13 4.13 0 0 0 -.65-4.75 2.6 2.6 0 0 0 -1.83-.74 2.55 2.55 0 0 0 -1.49.48 4.37 4.37 0 0 0 -2.1-2.18 2.4 2.4 0 0 0 -.84-.15 2.66 2.66 0 0 0 -1.82.78l-.11-.16a3 3 0 0 0 .58-3.2 2.22 2.22 0 0 0 -2.22-1.57 3.8 3.8 0 0 0 -3.41 2.81 5.52 5.52 0 0 0 -.11.71 2.35 2.35 0 0 0 -1.76-.76 2.43 2.43 0 0 0 -2.44 1.94 3.32 3.32 0 0 0 .42 1.93 9.2 9.2 0 0 1 .55 1.55c-.09.14-.26.34-.39.5a6.34 6.34 0 0 0 -1.58 3.22 5.63 5.63 0 0 0 2.18 5.2l.12.08-5.4.08c-3.25 0-4.86 2.12-4.8 6.16v.36c0 .1 0 10.54-.1 16.69-.16 6.37-.28 12.96.72 17.13 1.24 4.84 5.89 6.26 8.17 6.34.71 0 4.55.06 8.93.06 4.62 0 10.56 0 12.58-.23 3.21-.29 5.37-2.78 5.8-6.65.08-.71.17-3.92.23-6a14 14 0 0 0 4.1-1.43 8.42 8.42 0 0 0 4.75-6.83 85.83 85.83 0 0 0 .14-11.67z" fill="#fff"/><path d="m52.76 31.33c-.26-3.57-1.31-4.67-2.89-4.94s-4.78-.52-4.78-.52 0-2.26-.1-4.15-.47-2.31-4.62-2.58-22.95 0-26.16.06-2.89 3-2.89 4.57c0 0 .06 10.5-.1 16.75s-.32 12.71.68 16.6 4.83 4.88 6.36 4.88 17.85.16 21.27-.16 3.94-4 4-4.93.26-7.62.26-7.62a10.41 10.41 0 0 0 5.1-1.36 6.51 6.51 0 0 0 3.73-5.36 85.24 85.24 0 0 0 .14-11.24zm-5 11a3 3 0 0 1 -1.76 1.34 10.17 10.17 0 0 1 -1.74.21l.48-11.24s2.73-.16 3.15.16.2 8.77-.12 9.51z" fill="#604f58"/><path d="m31.23 57.69c.1-.26.94-.78 1.31-.52a10.66 10.66 0 0 1 2.24 2.41l2-.07a20 20 0 0 1 -2.53-2.71c0-.37.68-.68 1-.68a39.39 39.39 0 0 1 3.53 3.23h.14a2.36 2.36 0 0 0 .91-.4c-.9-.89-3.59-3.57-3.64-3.75s.68-.78.84-.73a34.16 34.16 0 0 1 3.73 3.37 6.33 6.33 0 0 0 .45-1.48c-1.19-1-4.09-3.42-4.18-3.68s.32-1 .58-1a30.48 30.48 0 0 1 3.83 3.11q.07-.85.12-1.86a27.31 27.31 0 0 1 -3.69-3.09c-.1-.42.11-1.1.53-1a22.13 22.13 0 0 1 3.22 2.41c0-.54.05-1.21.07-2a18.16 18.16 0 0 1 -2.87-2 .66.66 0 0 1 .42-1 10.46 10.46 0 0 1 2.52 1.29c.31-8.4.93-24.33.84-25-.11-.79-.84-.79-1.47-.74s-3.68.05-3.68.05v3.1l.63-.05a1.54 1.54 0 0 1 1.31.58c.11.21.11 3.67.11 4.46a1.76 1.76 0 0 1 -.95 1.58 15.47 15.47 0 0 1 -3.1 0 1.91 1.91 0 0 1 -1.78-1 26.4 26.4 0 0 1 0-4.68c.1-1.31 2.2-.94 2.2-.94v-3.1s-21-.1-21.27-.05-.47 1.15-.42 1.68c.11 1-.26 28.83-.1 31.3s2.73 4.41 5 4.68c1.48.17 8.6.29 14 .23-.85-.64-1.92-1.76-1.85-1.95z" fill="#f9f2ed"/><path d="m34.8 26.29a15.62 15.62 0 0 1 3.15.16c.11.21.26 3.57-.1 3.62a14 14 0 0 1 -3-.16c-.26-.16-.05-3.62-.05-3.62z" fill="#c5dda3"/><path d="m44.94 27.29s4.51-.16 5.62.94 1.2 11.5.94 13.66-2.21 5.3-4 5.77a12.07 12.07 0 0 1 -3.26.42v-3.2s3.68.47 4.57-2.21.89-9.76.52-10.4a3.2 3.2 0 0 0 -2.61-1.27c-1-.05-1.78-.05-1.78-.05z" fill="#f9f2ed"/><path d="m16.21 24.24c.1-.16.79-.42 1-.21a27.69 27.69 0 0 1 .1 5.51c-.16 0-1 .16-1.21-.15s.11-5.15.11-5.15z" fill="#604f58"/><path d="m28.34 34.64a6 6 0 0 1 5.15-.74c2.73 1 3.67 4.15 2.52 7s-6 5-6.73 6.2-.57 1.62-.78 1.73-1.26.58-1.37 0a4.57 4.57 0 0 0 -2.1-4c-2.26-1.47-5.09-3.15-5.62-5.1s.11-6 3.57-6.88a5.09 5.09 0 0 1 5.36 1.79z" fill="#604f58"/><path d="m27.87 36.9c.05.21.57.15.63 0a3.09 3.09 0 0 1 3.31-2.1 3.59 3.59 0 0 1 3.3 4.67c-.68 1.84-3.2 3.1-4.72 4.78a10.88 10.88 0 0 0 -2.05 2.75c-.11.26-.37.42-.53.16s.79-1.32-2-3.1-5.41-3.94-5.25-5.78 1.74-4.38 3.89-4.28a4 4 0 0 1 3.42 2.9z" fill="#f39a9b"/><g fill="#604f58"><path d="m20.72 15.63a3.85 3.85 0 0 1 -1.52-3.47c.26-1.94 2.21-2.73 2-4.1s-1.05-2.73-1-3 .79-.48.94-.11 1.53 2.26 1.11 3.57-1.63 3-1.68 3.84 1.05 1.68 1.31 2.31-.79 1.27-1.16.96z"/><path d="m25.56 15.26c-.75 0-1.95-2.31-1.74-4s2.63-2.1 1.68-3.78a6.1 6.1 0 0 1 -1-4.21c.26-1 1.68-1.68 1.83-1.15s.21 1.1-.21 1.36a1.46 1.46 0 0 0 -.42 1.84c.38.9 1.54 1.68 1.3 2.9s-1.89 2.26-1.62 3.52 1.57 2.31 1.47 2.84-1.03.68-1.29.68z"/><path d="m29.49 15.94s-1.83-1.42-1.57-3.2 2.2-2.05 1.94-3.52a6.14 6.14 0 0 0 -1.05-2.31c-.1-.37.47-1 .89-.79a3.11 3.11 0 0 1 1.37 2.94c-.16 1.63-2.21 3.36-1.79 4s1.48 1.47 1.42 2.1-1 .84-1.21.78z"/><path d="m33.38 14.58c-.17-.21-1.31-1.26-.94-2.32s1.73-2 1.36-2.78-.52-1.1-.26-1.36a.64.64 0 0 1 .89 0 2.23 2.23 0 0 1 .37 2.36c-.58.94-1.58 1.84-1.1 2.41s1 1.06 1 1.37a.77.77 0 0 1 -1.32.32z"/></g></svg>