<svg height="64" viewBox="0 0 64 64" width="64" xmlns="http://www.w3.org/2000/svg"><path d="m29.62 61.43a26 26 0 0 1 -12.57-3.53 8.74 8.74 0 0 1 -2.66-3.83l-.14-.33c-.53-1.18-4.2-10.64-5.44-13.84-2.13-.66-6.73-2.64-8.18-7.76-1.94-6.85.74-13.62 6.37-16.14a16.41 16.41 0 0 1 6.49-1.61h.22c.77-1.92 2.67-4.89 7.39-8.27a18.36 18.36 0 0 1 10.9-3.55 16.74 16.74 0 0 1 8.47 2.18 16.16 16.16 0 0 1 5.7 6.47 21.87 21.87 0 0 1 3.71-.34c3.73 0 6.82 1.13 8.91 3.27 5.06 5.17 5.68 9.07 5 14.07-.72 5.78-5.55 9.6-7.79 10.55a10.52 10.52 0 0 1 -3.48.77c-1.27 4-4.68 14.71-5.42 16.27a7.48 7.48 0 0 1 -5.1 4.19 59.46 59.46 0 0 1 -11.87 1.4z" fill="#fff"/><path d="m15.14 16.62s0-3.78 7.08-8.88a16 16 0 0 1 17.21-1.34 14.21 14.21 0 0 1 5.1 6l.37 1.06s8.1-2.44 12.47 2 5.1 7.73 4.5 12.47-4.69 8.18-6.62 9a9.43 9.43 0 0 1 -4.14.6s-4.92 15.7-5.75 17.47a5.61 5.61 0 0 1 -3.91 3.17 56.29 56.29 0 0 1 -11.45 1.31 24.46 24.46 0 0 1 -11.82-3.12 7.76 7.76 0 0 1 -2.18-3.36c-.6-1.33-5.75-14.67-5.75-14.67s-6.21-1.15-7.78-6.67.19-11.55 5.29-13.8 7.38-1.24 7.38-1.24z" fill="#604f58"/><path d="m38.78 51.94c0-.28.37-.92.6-.87a37.16 37.16 0 0 1 3.95 2.83c.22-.51.45-1.11.71-1.79-1.04-.74-3.84-2.73-3.88-3.11s.05-.73.51-.78a17.41 17.41 0 0 1 3.83 2.59c.18-.51.37-1 .55-1.58a39.42 39.42 0 0 1 -3.51-2.9c-.09-.27.05-.87.42-.82a22.14 22.14 0 0 1 3.5 2.54l.64-1.92c-.88-.82-3.28-3.05-3.36-3.25s-.19-.87.18-.87a18.61 18.61 0 0 1 3.6 2.85c.21-.64.42-1.28.61-1.89a24.85 24.85 0 0 1 -3.61-2.89c-.05-.37.87-1 1.06-.87a32 32 0 0 1 3 2.43c.74-2.32 1.25-4 1.25-4a10.06 10.06 0 0 1 -2.94-.83 5.23 5.23 0 0 1 -2.72-1.79s-5.49 4.73-11.42 4.98a14.74 14.74 0 0 1 -9.62-3 24.08 24.08 0 0 1 -4.41 1.38c-2.72.6-4.74-.25-4.79 0-.23 1.19 5.57 14.8 6.17 15.62s3.77 2.76 10.3 3.13a44.47 44.47 0 0 0 7-.15 12.93 12.93 0 0 1 -2.44-2.24c0-.37.46-1.11.83-1a19.93 19.93 0 0 1 3.44 3c.81-.12 1.53-.27 2.14-.42a41 41 0 0 1 -3.47-2.84c0-.23.28-.55.6-.55a17.94 17.94 0 0 1 4.17 3 3.85 3.85 0 0 0 .84-.41 1.72 1.72 0 0 0 .34-.5 36 36 0 0 1 -4.07-3.08z" fill="#f6c687"/><path d="m11.78 19.24c2.17-.31 2.9-.33 4.28.59s2.48 2 2.9 1.71 1.1-1.43 1-1.71a13.35 13.35 0 0 0 -2.16-2.16 2.22 2.22 0 0 1 -.69-1s1.2-5.43 9.48-8.7 14.41.55 15.41 4.83.46 7.26.69 7.54a.87.87 0 0 0 .88.37 3.86 3.86 0 0 0 1.28-1.71 11.24 11.24 0 0 0 .28-3.22s8.6-2.62 11.45 2.48 3 8.83 1.61 12-4.6 5-8.51 4.69-4.55-1.84-4.83-2.58-.27-1.37-.85-1.5-1.52.79-1.52.79a13 13 0 0 1 -10.67 6.21c-7.27.09-8.32-3.91-8.74-4.14s-5.19 3.58-11.82 1.84a8.52 8.52 0 0 1 -6.6-10.31 8.16 8.16 0 0 1 7.13-6.02z" fill="#f7babe"/><g fill="#604f58"><path d="m8.38 25.54a1.05 1.05 0 0 1 1.56.83 1 1 0 0 1 -1.56.92 1.07 1.07 0 0 1 0-1.75z"/><path d="m10.82 21.58a1.06 1.06 0 0 1 1.56.83 1 1 0 0 1 -1.56.92 1.07 1.07 0 0 1 0-1.75z"/><path d="m14.59 24.25a1.06 1.06 0 0 1 1.56.83 1 1 0 0 1 -1.56.92 1.07 1.07 0 0 1 0-1.75z"/><path d="m24.29 17.81a1.06 1.06 0 0 1 1.57.83 1 1 0 0 1 -1.57.92 1.09 1.09 0 0 1 0-1.75z"/><path d="m23.33 12.38a1.06 1.06 0 0 1 1.56.83 1 1 0 0 1 -1.56.92 1.07 1.07 0 0 1 0-1.75z"/><path d="m28.89 11.14a1.06 1.06 0 0 1 1.57.83 1 1 0 0 1 -1.57.92 1.09 1.09 0 0 1 0-1.75z"/><path d="m28.07 14.27a1.06 1.06 0 0 1 1.56.83 1 1 0 0 1 -1.56.92 1.07 1.07 0 0 1 0-1.75z"/><path d="m31.29 7.88a1.05 1.05 0 0 1 1.56.82 1 1 0 0 1 -1.56.92 1.07 1.07 0 0 1 0-1.74z"/><path d="m36.58 14.32a1.05 1.05 0 0 1 1.56.82 1 1 0 0 1 -1.56.92 1.07 1.07 0 0 1 0-1.74z"/><path d="m32.57 24.2a1.07 1.07 0 0 1 1.57.83 1 1 0 0 1 -1.57.92 1.09 1.09 0 0 1 0-1.75z"/><path d="m47.66 26.09a1.06 1.06 0 0 1 1.56.83 1 1 0 0 1 -1.56.92 1.07 1.07 0 0 1 0-1.75z"/><path d="m47.29 20.57a1.07 1.07 0 0 1 1.57.83 1 1 0 0 1 -1.57.92 1.07 1.07 0 0 1 0-1.75z"/><path d="m55.2 19.33a1.06 1.06 0 0 1 1.57.83 1 1 0 0 1 -1.57.92 1.09 1.09 0 0 1 0-1.75z"/><path d="m51 19.29a.72.72 0 0 1 1 .56.7.7 0 0 1 -1 .62.72.72 0 0 1 0-1.18z"/><path d="m36.62 11.34a.72.72 0 0 1 1.06.56.71.71 0 0 1 -1.06.62.73.73 0 0 1 0-1.18z"/><path d="m26.22 9.36a.71.71 0 0 1 1.06.56.7.7 0 0 1 -1.06.62.73.73 0 0 1 0-1.18z"/><path d="m17.53 22.7a.72.72 0 0 1 1.06.56.71.71 0 0 1 -1.06.62.73.73 0 0 1 0-1.18z"/><path d="m53.13 22.84a.71.71 0 0 1 1.06.55.71.71 0 0 1 -1.06.63.73.73 0 0 1 0-1.18z"/><path d="m47 17.12c.3-.25 1.65-.78 2.11-.41s.78.78.28 1-.83.14-1.47.37-1.46-.5-.92-.96z"/><path d="m23.6 42.69c.08-.34 1-.36 1.25 0a48 48 0 0 1 1.51 7.27c-.13.23-.73.09-1-.05a39.65 39.65 0 0 1 -1.76-7.22z"/><path d="m36.44 42.69c.1-.2 1.29-.41 1.24.1s-.87 6.44-1.29 6.57a.67.67 0 0 1 -.69-.18s.6-6.18.74-6.49z"/></g></svg>