<svg height="64" viewBox="0 0 64 64" width="64" xmlns="http://www.w3.org/2000/svg"><path d="m34.66 64c-4.38 0-11.7-.07-12.46-.15-1.86-.21-5.47-3.5-6.64-7.62a44.68 44.68 0 0 1 -1.23-5.81c-1.92-.67-5.27-2.33-6.55-5.94-1-2.8-.65-7.85 2-11.69a10.52 10.52 0 0 1 7.29-4.65 20.56 20.56 0 0 1 3.42-6.67c1.69-1.92 4.52-2.83 6.4-3.24-.14-3.35.42-4.19.62-4.49a4.4 4.4 0 0 1 2.1-1.49 5 5 0 0 1 -1.85-3.79 6.65 6.65 0 0 1 1.8-4.75 7.24 7.24 0 0 0 .44-.63c.22-2.54 1.59-3.08 2.71-3.08h.37c1.76.14 4.6 3.23 5.23 6.3a6.36 6.36 0 0 1 -1.54 5.73 3.9 3.9 0 0 1 2.57 3.38c0 .95 0 2 .06 2.84 2.19.36 5.6 1.41 7.37 4.6a16 16 0 0 1 2 6.67c2 .72 5.58 2.34 7 5.24a9.79 9.79 0 0 1 -1.71 11 12.59 12.59 0 0 1 -4 2.54 64 64 0 0 1 -2.53 8.1c-1.77 4.39-4.92 7.14-7 7.5a49.07 49.07 0 0 1 -5.87.1z" fill="#fff"/><path d="m18.53 30s1.27-4.81 3.39-7.21 7-2.9 7-2.9-.38-4.19.19-5 3.06-1.22 3.06-1.22l-.05-2.22a3.07 3.07 0 0 1 -2.45-3c-.14-2.64 2.17-3.68 2.26-5s.43-1.42 1-1.37 3 2.21 3.49 4.76a4.5 4.5 0 0 1 -1.42 4.25 3.43 3.43 0 0 1 -1.23.57v1.69s3.48.14 3.58 2.17.05 4.52.05 4.52 5.6-.04 7.68 3.77a13.07 13.07 0 0 1 1.74 7.19s5.61 1.41 7.21 4.66a7.88 7.88 0 0 1 -1.32 8.72 11.47 11.47 0 0 1 -4.34 2.45 63.64 63.64 0 0 1 -2.68 8.86c-1.69 4.06-4.43 6.09-5.51 6.31s-16.91.05-17.76 0-4-2.59-5-6.22a41.64 41.64 0 0 1 -1.32-6.78s-5-1-6.5-5.09.8-13.74 8.93-13.91z" fill="#604f58"/><path d="m38.62 55.47c0-.33.19-.85.9-.66a11.89 11.89 0 0 1 2.72 1.39c.24-.39.48-.84.72-1.32-.84-.31-3-1.14-3.11-1.49a.7.7 0 0 1 .8-.89 10.78 10.78 0 0 1 2.79 1.3c.21-.5.42-1 .61-1.53-.7-.25-2-.77-2-1.18 0-.57.37-1.09.7-1a7.37 7.37 0 0 1 1.81.89c.59-1.7 1-3.06 1-3.06a6.72 6.72 0 0 1 -2.12-.23 20.75 20.75 0 0 1 -4.1-1.37 14.86 14.86 0 0 1 -6.61 2.68 9.68 9.68 0 0 1 -6.5-2.17 24.37 24.37 0 0 1 -3.77 1.79 15.46 15.46 0 0 1 -4.33.47s.47 1.23 1.41 3.39 1.09 4.73 2.46 5.52 1.5.85 5.13.71 7.44.09 9.23.09h1.86c-.72-.51-1.71-1.25-1.71-1.52 0-.43.66-.9.84-.8a20.74 20.74 0 0 1 2.89 1.77 5 5 0 0 0 1.32-1 13 13 0 0 1 -2.94-1.78z" fill="#fcdfc8"/><path d="m20.77 32.34s.42-4.48 2.68-7a11.74 11.74 0 0 1 5.55-3.18s.43 6.69 1.18 7.59a4.54 4.54 0 0 0 3.72 1.41 3.52 3.52 0 0 0 3.21-2.73c.14-1.18.37-6.13.37-6.13s4.38.66 6.17 4 .05 6.08.15 7 1 1.23 1.17 1.32 6.08 1 6.65 3.72-3 7.59-6.65 6.88-4.8-2-5.89-1.93-3.62 3.39-7.34 2.92-4.76-3.3-5.56-3.2-5.52 4.94-9.9 3.11-4.8-5.47-3.48-8.91 5-5.53 7.97-4.87z" fill="#da8cbb"/><path d="m30.85 28.38c-.44-1.57-1.13-12.63-.75-13.14a3.6 3.6 0 0 1 2.26-.71c0 .14-.1.94.28 1.13s.94-.05 1-.33.09-.75.09-.75 2.5-.33 2.59.94-.14 10.5-.37 12.11-.85 2.35-2.5 2.3-2.36-.7-2.6-1.55z" fill="#adceea"/><path d="m31.6 16.51a9.06 9.06 0 0 0 2.41.75c.89 0 1.08.14 1 .47s-.9.76-2.27.47-1.74-1.41-1.14-1.69z" fill="#604f58"/><path d="m30.85 8c0-.82 1-1.42 1.46-2.55s.24-1.79.71-1.74a5.36 5.36 0 0 1 2.4 4 2.65 2.65 0 0 1 -2.64 2.78 2.15 2.15 0 0 1 -1.93-2.49z" fill="#f6c687"/><g fill="#604f58"><path d="m25.29 25.88c.38-.43 1.37-.37 1.41.38s-.89 1.08-1.46.89-.24-.89.05-1.27z"/><path d="m23.76 30.33a1 1 0 0 1 1.86.54 1.42 1.42 0 0 1 -1.92 1.3c-.7-.27-.37-1.3.06-1.84z"/><path d="m28.08 29.19a.73.73 0 0 1 .09 1.4 1 1 0 0 1 -1.48-.89c0-.58.87-.64 1.39-.51z"/><path d="m30 32.35a.73.73 0 0 1 .08 1.4 1 1 0 0 1 -1.48-.89c-.02-.58.84-.64 1.4-.51z"/><path d="m39.15 31.31a.73.73 0 0 1 .09 1.4 1 1 0 0 1 -1.48-.89c0-.58.87-.64 1.39-.51z"/><path d="m16 38.84a.73.73 0 0 1 -.7 1.22 1 1 0 0 1 -.75-1.56c.28-.5 1.04-.05 1.45.34z"/><path d="m17.91 35.34a.61.61 0 0 1 -.57 1 .87.87 0 0 1 -.62-1.3c.28-.38.89-.04 1.19.3z"/><path d="m20.22 38.87a.61.61 0 0 1 -.58 1 .87.87 0 0 1 -.61-1.3c.27-.38.89-.02 1.19.3z"/><path d="m48.15 38.23a.74.74 0 0 1 .09 1.41 1.05 1.05 0 0 1 -1.49-.89c.01-.58.88-.64 1.4-.52z"/><path d="m40.8 26.79a.73.73 0 0 1 .09 1.4 1 1 0 0 1 -1.48-.89c0-.58.87-.64 1.39-.51z"/><path d="m43.41 36.67a.88.88 0 0 1 .12 1.68 1.25 1.25 0 0 1 -1.77-1.07c0-.69 1.03-.76 1.65-.61z"/><path d="m23.74 50.94c-.13-.3.8-.61 1.17-.37s2.41 4 2.12 4.61-.66.66-.94.57a37.87 37.87 0 0 1 -2.35-4.81z"/><path d="m31.13 51.6a.71.71 0 0 1 1.18.15c.19.47.28 3.43-.14 3.62s-1 .29-1.13.05a21.1 21.1 0 0 1 .09-3.82z"/><path d="m37.49 51.7c-.09-.46 1.09-2.12 1.51-2s.66-.09.52.66-.52 1.84-1 1.88a1.11 1.11 0 0 1 -1.03-.54z"/></g></svg>