<svg height="64" viewBox="0 0 64 64" width="64" xmlns="http://www.w3.org/2000/svg"><path d="m34.35 64c-11.06 0-16.06-2.68-18.07-4.27a10.66 10.66 0 0 1 -3.82-4.93c-.14-.46-1.1-6-2.84-16.41a9.36 9.36 0 0 1 -4.63-5 7.8 7.8 0 0 1 .4-6.39 7.35 7.35 0 0 1 .47-6.91 9.11 9.11 0 0 1 8.38-4.72h.16a4.28 4.28 0 0 1 1.12-3.14 6 6 0 0 1 2.48-1.53 4.37 4.37 0 0 1 .31-3.79c1.21-2.07 3.39-3.11 6.52-3.11h.61a4.64 4.64 0 0 1 2.63-3.05 7.16 7.16 0 0 1 3.14-.75 6 6 0 0 1 4.68 2.15 6.22 6.22 0 0 1 1 1.92c2.45 0 4.34.67 5.47 1.95a6.9 6.9 0 0 1 1.64 4.55 4.89 4.89 0 0 1 1.79 1.43 9.85 9.85 0 0 1 1.1 1.65 7.07 7.07 0 0 1 1.25-.12 5.65 5.65 0 0 1 2.68.65c2 1.07 3.58 4.28 4.32 6.07a7.48 7.48 0 0 1 4.06 5.35c.92 4.11-.3 8.34-2 10.38a9.06 9.06 0 0 1 -1.62 1.59c-2.5 19.76-3 20.17-3.71 20.75-2.08 1.73-7.77 5.66-17 5.73z" fill="#fff"/><path d="m7.66 27a5.18 5.18 0 0 1 -.11-6 7.35 7.35 0 0 1 7-3.74c1.66 0 2.44.11 2.44.11s-1.37-2.4 0-3.88 4.55-1.44 4.55-1.44-2.74-2-1.45-4.25 4.29-2.15 5.59-2.11 1.77 0 1.77 0a2.54 2.54 0 0 1 1.47-3.19 4.39 4.39 0 0 1 5.47.89 4.2 4.2 0 0 1 .92 2.73s4-.66 5.66 1.18.92 4.85.92 4.85a2.65 2.65 0 0 1 2.41 1 8.89 8.89 0 0 1 1.51 2.85 4.75 4.75 0 0 1 4.11-.15c2 1 3.73 5.88 3.73 5.88a5.24 5.24 0 0 1 3.66 4.27 11.33 11.33 0 0 1 -1.59 8.73c-1.18 1.44-1.92 1.63-1.92 1.63s-2.52 19.92-3.14 20.44-6 5.21-15.79 5.29-15-2-17.38-3.85a8.76 8.76 0 0 1 -3.18-4c-.18-.59-3-17.19-3-17.19a7.72 7.72 0 0 1 -4.55-4.29 6 6 0 0 1 .9-5.76z" fill="#604f58"/><path d="m41.58 56.8c0-.31.38-.8.63-.7s1.15.81 2 1.48a15.72 15.72 0 0 0 1.64-.68 13.34 13.34 0 0 1 -2.44-1.84c0-.28.59-.94.84-.84s1.75 1.18 2.81 2.06a9.29 9.29 0 0 0 1.43-1 17.07 17.07 0 0 1 -2.8-2.34c0-.35.31-.84.59-.84a18.4 18.4 0 0 1 2.64 1.77c.79-4.26 2.4-17.19 2.4-17.19a7.2 7.2 0 0 1 -.66-.3 12.13 12.13 0 0 1 -1.15-.74s-.7 1.52-3.62 1.85-3.59-1.49-3.59-1.49-1.44 1.82-5.14 2-5-2-5-2-.88 2.18-5.36 2.47-5.58-2.36-5.58-2.36a5.66 5.66 0 0 1 -2.88 1.44 15.63 15.63 0 0 1 -4.22.07c-.18.19 2.15 14 2.37 14.72s1.59 6.14 14.45 6.73a37.59 37.59 0 0 0 12-1.12c-.72-.45-1.38-.95-1.36-1.15z" fill="#ddeff2"/><path d="m10.58 21.58c.77-1 4.18-1.82 6.8-1.48s3.44 1.18 3.44 1.18a67.44 67.44 0 0 0 8.28 2.72c2.63.48 2.15-.33 2.33-.67a1.11 1.11 0 0 0 0-1c-.15-.19-5.18-1.07-8.8-2.7s-4-3.77-3.11-4.33 2.78-.74 3-1.07.19-.74.37-.78a30.94 30.94 0 0 0 7.11 2.55c3.55.59 5.66.62 6.4.44s.62-1.48.44-1.78-2.15.3-7-1.07-6.62-3.36-6.76-3.59-.19-1.15.22-1.3 4.32-.66 5-.26.55.74 3.58.85 4-.29 4.48-.51 2.73-.6 3.44.26a4.2 4.2 0 0 1 .37 3.58c-.37 1-.82.89-.78 1.33s.3 1 .41 1a2.46 2.46 0 0 1 3.1 1c1.41 1.85.74 3.44.45 3.7s-1.15.89-1.08 1.22a1.22 1.22 0 0 0 .85.78 11 11 0 0 0 2.78-1.85c1-.85 2.36-1.59 3.1-1.26s2.22 2.88 2.48 4.47 0 1.59.37 1.85 4-.18 3.44 4.25-2.81 5.22-3.7 5.14-1.15-.18-1.11-.29.59-1.41.19-1.63-1.33.22-1.7.59a4.36 4.36 0 0 1 -3.3 2c-2.18.19-2.66-1.92-3.14-1.88s-2.73 2.44-5.62 2.18-3.62-2.26-4.17-2.33-4 3.29-7.07 2.92-3.58-2.22-4.4-2.44-3.25 2.7-7 1.81-6.51-4.92-4.81-6 2.85-1.81 2.15-2.51-1.85-1.48-2-2.63a3.18 3.18 0 0 1 .97-2.46z" fill="#f7babe"/><path d="m16 22.68c1.09-.14 3.15.3 3.33 2.22s-2.73 3.18-4.66 2-.67-3.96 1.33-4.22z" fill="#604f58"/><path d="m16.26 23.79a1.47 1.47 0 0 1 1.74 1.21c.09 1-1.44 1.66-2.44 1s-.34-2.08.7-2.21z" fill="#ef7d7b"/><path d="m24 26.64a1.83 1.83 0 0 1 2.59 1.52 1.88 1.88 0 1 1 -2.59-1.52z" fill="#604f58"/><path d="m24.39 27.66a.74.74 0 0 1 1.05.61.77.77 0 0 1 -1.15.74.76.76 0 0 1 .1-1.35z" fill="#ef7d7b"/><path d="m36.87 25.64c1-.46 3.91-.66 4.36 1.59s-1.78 3.07-3.81 2.55-2.96-2.99-.55-4.14z" fill="#604f58"/><path d="m37.44 26.41c.6-.28 2.41-.41 2.68 1s-1.12 1.86-2.34 1.59-1.78-1.88-.34-2.59z" fill="#ef7d7b"/><path d="m48.7 25.9c.79-.23 2.51-.11 2.62.67s0 1.4-.52 1.33-.48-.67-.74-.74-1.36.15-1.07.77.78.6.7.82a1 1 0 0 1 -1.62.22 1.9 1.9 0 0 1 .63-3.07z" fill="#604f58"/><path d="m37.27 18.65c1.15-.15 2.55.26 2.44 1.37s-1.59 2.92-3.21 1.56a1.59 1.59 0 0 1 .77-2.93z" fill="#604f58"/><path d="m30.21 6.57c-.38-.44-1.44-.63-.7-1.71a3 3 0 0 1 3.1-1.14c.93.26 1.22 2.7.71 2.88s-2.32.85-3.11-.03z" fill="#ef7d7b"/><g fill="#604f58"><path d="m17.9 41.72c.05-.25 1.48-.51 1.7-.14s2 10.42 1.55 10.68a.8.8 0 0 1 -1 0c-.29-.26-2.32-10.17-2.25-10.54z"/><path d="m22.6 43.54c.08-.34 1.92-.11 2 .18s.59 10 .33 10-1-.41-1-.41-1.45-9.31-1.33-9.77z"/><path d="m44.15 41.28c.23-.23 1 0 1.15.33s-.89 3.59-1.3 7.39-.22 4.59-.41 4.77-1.29.48-1.4 0a53.77 53.77 0 0 1 .48-7.76 13.82 13.82 0 0 1 1.48-4.73z"/><path d="m47.11 42.39c.1-.32 1.44.44 1.4.74a36.92 36.92 0 0 0 -.81 5.06c-.26 3-.22 3.22-.41 3.29s-1.11.08-1.18-.11a24.49 24.49 0 0 1 .29-5.17c.37-2.29.6-3.48.71-3.81z"/></g></svg>