<svg height="64" viewBox="0 0 64 64" width="64" xmlns="http://www.w3.org/2000/svg"><path d="m27.67.79a3.64 3.64 0 0 0 -1.83.43 4.38 4.38 0 0 0 -.42.28 1.5 1.5 0 0 0 -.36-.15 7.07 7.07 0 0 0 -1.89-.28 3.27 3.27 0 0 0 -1.78.45 2.94 2.94 0 0 0 -.64-.32 6.23 6.23 0 0 0 -2.14-.37 3.53 3.53 0 0 0 -2.82 1.17c-.5.59-.87 1-1.15 10.18-.15 4.88-.19 10.15-.1 13.11.16 5.05 2.54 7.75 4 8.94-.18 6.43-.63 22.38-.54 23.49.19 2.29 1.9 5.68 5 5.68a5.27 5.27 0 0 0 5.32-3.59c.05-.26.23-1.06.33-26.37a14.5 14.5 0 0 0 2.2-5.78c.15-1.41.91-23.26.5-24.66-.46-1.64-2.27-2.21-3.68-2.21zm21.84 2.5c-.1-1-.71-2.66-3.71-3l-.42-.07a20.17 20.17 0 0 0 -2.66-.22 6.21 6.21 0 0 0 -4.15 1.24c-2.26 1.93-4.14 10.28-4.37 12.81-.28 3-.49 14.1.43 17.27a6.58 6.58 0 0 0 3.74 4.12c-.24 5-1 20.69-1 22.81 0 3.55 2.29 5.75 6 5.75s4.67-2 5-3.72 1.17-56.66 1.14-56.99z" fill="#fff"/><path d="m20.58 33.16s-3.85-1.92-4-8 .19-21.26.77-21.93 2.21-.39 2.69-.19.1 13.66.49 13.85.38.48.67.09.8-13.16 1.11-13.64 1.83-.19 2.12-.09-.29 14 .1 14.14.77.29 1 0 .67-14 1.34-14.43 2.41-.1 2.6.58-.29 21.16-.58 23.85a13.3 13.3 0 0 1 -2.21 5.39s-.09 25.68-.29 26.55a3.34 3.34 0 0 1 -3.36 2c-1.93 0-2.89-2.69-3-3.85s.55-24.32.55-24.32z" fill="#604f58"/><path d="m40.45 34s-3.11-.51-3.9-3.25-.65-13.42-.36-16.52 2.24-10.23 3.68-11.46 4.47-.65 5.7-.51 1.87.51 2 1.23-.94 55.26-1.16 56.42-.5 2.09-3 2.09-4-1.3-4-3.75 1.04-24.25 1.04-24.25z" fill="#604f58"/><g fill="#ddeff2"><path d="m25.55 30.93a12.72 12.72 0 0 1 -2.63-2.21 1.09 1.09 0 0 1 .94-.83 17.09 17.09 0 0 1 2.62 1.85c.25-.35.51-.73.76-1.14-.8-.62-2.33-1.78-2.4-1.89s0-.44.49-.74 1.6.62 2.28 1.2c.09-.56.17-1.26.24-2.05-.44-.23-1.37-.74-1.44-1s-.1-1 .29-1.13a1.91 1.91 0 0 1 1.27.53c.46-7.13.41-19.12.36-19.28s-.73-.07-.94.15-.8 12.33-.8 12.62a1.88 1.88 0 0 1 -1.37 1.44 2 2 0 0 1 -1.8-.57c-.07-.22.36-13.42.36-13.64s-.58-.07-.79.22-.8 13.13-1 13.56-.44.29-.94.29-.94-.5-1.23-1-.43-13.06-.65-13.13a1.91 1.91 0 0 0 -.65 0c-.07.65-.14 19.41.08 22.8s3.24 4.47 3.53 4.76-.23 21.46-.23 24.26.15 3.75 1 3.75a1.8 1.8 0 0 0 1.81-1.58c.07-.94 0-25.83-.07-26s.36-.58.91-1.24z"/><path d="m41.94 30c-.1-.44.1-1 .44-.88a18.76 18.76 0 0 1 2.72 1.35c0-.51 0-1 0-1.53-.68-.31-2.31-1.07-2.35-1.34s.1-1.23.44-1.23a7.55 7.55 0 0 1 1.93.7c0-.45 0-.9 0-1.35-.59-.11-1.72-.39-1.79-.82-.1-.59-.15-1.37.2-1.42a3.82 3.82 0 0 1 1.61.41c.1-10.41.12-19.07 0-19.24-.22-.43-2.82-.72-3.68-.29s-3 6.14-3.46 12.41-.65 12.56.07 13.64c.52.79 4.25 2.24 4.47 2.89s-1.23 23.7-1.16 24.8.15 1.74.94 1.88a3.36 3.36 0 0 0 2.09-.07c.26-.15.52-14.15.68-28-1-.51-3.09-1.58-3.15-1.91z"/></g></svg>