<svg height="64" viewBox="0 0 64 64" width="64" xmlns="http://www.w3.org/2000/svg"><path d="m24.54 64c-4.47 0-6.71-.05-8.75-2a12.22 12.22 0 0 1 -3.92-9.07c-.15-3.55-.25-27.95.06-30.14.82-5.85 4.17-7.15 6.1-7.4a35.93 35.93 0 0 1 4.58-.24h1.68a17.07 17.07 0 0 1 -.28-7c.76-4.05 2.24-7.81 7.89-8.15h.38c5.07 0 7.86 5.67 7.9 11a23.49 23.49 0 0 1 -.34 4.54 61.8 61.8 0 0 1 6.4.41c3 .5 5.44 3.61 5.78 7.4.29 3.15.27 29.34.23 31.36v.92c0 2.09 0 4.07-1.56 5.72a7.14 7.14 0 0 1 -5.52 2.47h-.42-1.12c-1.61 0-4.37.05-7.34.09-3.54 0-7.21.11-9.75.11z" fill="#fff"/><path d="m50.09 23.53c-.26-2.89-2.06-5.31-4.17-5.66s-8.68-.44-8.68-.44 1-1.66 1-6.4-2.45-9.3-6.24-9.03-5.26 2.1-6.09 6.53a16.48 16.48 0 0 0 1 8.69 57 57 0 0 0 -8.69.09c-3.22.39-4.11 3.81-4.37 5.69s-.22 25.58 0 29.79a10.28 10.28 0 0 0 3.33 7.76c1.58 1.54 3.42 1.45 8.29 1.5s17.47-.27 19.4-.18a5.27 5.27 0 0 0 4.39-1.87c1.18-1.27 1-2.94 1.05-5.36s.04-28.21-.22-31.11zm-19.09-12.33a1.69 1.69 0 0 1 -.43-2.2 1.6 1.6 0 0 1 2.89.6c.35 1.65-1.76 2.23-2.46 1.6z" fill="#604f58"/><path d="m42.06 54.73a.7.7 0 0 1 1-.62 37.31 37.31 0 0 1 4 4.17 5 5 0 0 0 .68-1.8 47.63 47.63 0 0 1 -4.11-3.81c-.18-.44.08-.92.39-.88a30 30 0 0 1 3.86 3.56v-.05c0-.36 0-1.26.05-2.54-1.09-.69-3.71-2.41-3.78-2.86s-.13-1 .44-.92a16 16 0 0 1 3.41 2.49c0-.59 0-1.23 0-1.91a27.29 27.29 0 0 1 -3.13-2.56c-.09-.31.09-.84.57-.71a11.9 11.9 0 0 1 2.56 1.86c0-.82 0-1.68 0-2.57a14.43 14.43 0 0 1 -2.39-1.82c-.09-.31-.35-.7.22-.75a4.41 4.41 0 0 1 2.17 1.21c0-.83 0-1.66 0-2.51a11 11 0 0 1 -2-1.55c0-.26-.35-.83.18-.79a4.8 4.8 0 0 1 1.84.92v-2.16c-.22-.09-1.45-.58-1.49-.78s-.26-.83.13-.79a4.71 4.71 0 0 1 1.36.35c0-6.33 0-12 0-12.76a4.73 4.73 0 0 0 -2.89-4.15c-1.84-.75-8.42-.57-8.42-.57a24.42 24.42 0 0 1 -1.54 2.57c-.35.35-1.27-.13-1.58-.7s1.58-3.38 2.64-7.15-.49-8.6-2.72-9.57-4.48 0-5.36 3.16 0 7.3 1.45 10.23a12.84 12.84 0 0 1 1.27 2.76c.18.88-1.22 1.32-1.62 1.1a11.92 11.92 0 0 1 -1.49-2.29s-5.79.05-8.21.09-3.2 1.54-3.33 2.55-.13 9.52 0 16.58-.22 14.09.61 17 2.72 3.56 7.33 3.91c3.1.23 10.67.29 15.87.18-.89-.68-2.79-2.16-2.75-2.46s.3-.66.83-.53a13.2 13.2 0 0 1 3.13 3c.84 0 1.6-.05 2.22-.08-1-1-3.25-3.11-3.29-3.28s.53-.7.84-.52a32.67 32.67 0 0 1 3.89 3.68h.23a3.27 3.27 0 0 0 1.46-.7c-1.28-1.09-4.53-3.84-4.53-4.23zm-11.71-42.56a3 3 0 0 1 -.79-3.77 2.79 2.79 0 0 1 5 1c.66 2.86-3.03 3.87-4.21 2.77z" fill="#f6c687"/><path d="m17.93 27.61s0-4.12.13-4.52a2.15 2.15 0 0 1 1.76-1.62c1.18-.13 3.38-.26 3.6.09s.43 1.14 0 1.36-3.38 0-3.77.35-.18 4.39-.36 4.56-1.23.4-1.36-.22z" fill="#604f58"/></svg>