<svg height="64" viewBox="0 0 64 64" width="64" xmlns="http://www.w3.org/2000/svg"><path d="m63.2 17.37c-.55-.73-1-1.31-10-1.47-.76-.09-5.48-.59-15.55-.91l-1.45.01a2.77 2.77 0 0 0 .31-2 2.84 2.84 0 0 0 -2.7-2.33 2.66 2.66 0 0 0 -1.87.8 3.73 3.73 0 0 0 -.39.5 3.21 3.21 0 0 0 -.48-1.52c0-.07.07-.13.1-.19a2.63 2.63 0 0 0 -.93-3.48 2.27 2.27 0 0 0 -1.24-.46 2.66 2.66 0 0 0 -1.79.77 18.93 18.93 0 0 0 -.78-2.15l-.14-.34a1.08 1.08 0 0 1 .09-1.07 2.9 2.9 0 0 0 .27-1.53 2.15 2.15 0 0 0 -2.13-2 3.42 3.42 0 0 0 -2.34 1.24c-1.49 1.49-1.13 3.78-1 4.53a7.88 7.88 0 0 0 1 2.81l-.06.09c-.13.2-.27.42-.4.65a6.34 6.34 0 0 0 -1.12-1.78 2.73 2.73 0 0 0 -1.93-1 2 2 0 0 0 -.34 0 2.31 2.31 0 0 0 -2 2.3 2.79 2.79 0 0 0 .38 1.71 4 4 0 0 0 -.41 1.45 8.39 8.39 0 0 0 .52 3.28c-4.48.19-8 .41-9 .53-3 .35-4.84 2.09-5.32 3.55-.17.49-.35 1 1.19 8.93a4.25 4.25 0 0 0 -3.11 2.55c-.58 1.67-.22 19.51-.11 21.69.17 3.47 1.39 6 3.62 7.58a4.44 4.44 0 0 0 2.64.64c.86 2 1.27 2.36 1.51 2.56.5.42 1.07.69 4.22.69s3.55-.22 3.8-.33c.63-.27 1.24-.72 1.83-2.91h3.69 5.09c1.4 0 2.83 0 4.18-.07 1.87 0 3.59-.07 4.85-.07h.67a5.67 5.67 0 0 0 1.59 2.61 4.12 4.12 0 0 0 2.41.44 37.74 37.74 0 0 0 4.65-.29c.8-.16 1.73-.66 2.29-2.91 2.65-.06 3.34-.36 3.8-.67 1.35-.9 1.85-2.82 2.38-6.52s.59-20.91.59-21.08c0-2.12-.77-3.54-2.17-4a8 8 0 0 0 -1.53-.29c.06-.47.12-1 .18-1.67s.12-1.32.17-2a4.48 4.48 0 0 0 2.42 1 51.52 51.52 0 0 0 5.84.33 8.3 8.3 0 0 0 2.09-.15 2.78 2.78 0 0 0 1.89-2c.31-.83 1.12-4.6.03-6.05zm-36.77-2.45h-.03z" fill="#fff"/><path d="m6 30s-1.92-9.43-1.7-10.06 1.33-1.94 3.7-2.24 18.76-1.12 29.62-.77 15.48.91 15.48.91 8.12.14 8.54.7 0 4.83-.84 5a41.73 41.73 0 0 1 -7.14-.21c-1.26-.21-1.54-.56-1.54-.91v-2.62l-2.88-.14s-.14 3.5-.42 6.37a27.93 27.93 0 0 1 -.49 3.64 17.41 17.41 0 0 1 3.17.33c.84.28.84 2 .84 2.17s-.07 17.44-.56 20.8-.91 4.76-1.54 5.18-4.35.35-4.35.35-.35 2.81-1 2.95-5.18.42-5.6.14a8.09 8.09 0 0 1 -1.19-2.81c0-.28-5.81-.07-11.21 0s-10.29 0-10.29 0-.6 2.9-1.1 3.11-5.6.28-6-.07a16.89 16.89 0 0 1 -1.5-3.09s-2.1.28-2.8-.21-2.6-1.89-2.81-6.09-.35-20 0-20.94 1.69-1.68 3.61-1.49z" fill="#604f58"/><path d="m40 54.16c.1-.37.33-.75.75-.65a9.79 9.79 0 0 1 2.1 2.81h2c-.71-.77-2.37-2.6-2.3-2.93s.42-.8.66-.7 2.15 2.61 2.91 3.61c.9 0 1.62 0 2.11-.05-1.1-1.31-4.54-5.41-4.46-5.81s.18-.93.7-.79 3.7 4 4.61 5.56c0-.65.11-1.6.17-2.76a62.9 62.9 0 0 1 -3.94-5.09c0-.37-.28-.84.23-.84s2.72 2.9 3.78 4.47c0-.93.08-1.94.12-3-.85-1.1-3-3.36-3-3.63s.1-1 .52-.88a15.18 15.18 0 0 1 2.51 3l.09-2.3c-.67-.54-1.8-1.51-1.9-1.91-.14-.56.09-1.16.37-1.07a11.9 11.9 0 0 1 1.58 1.5c.18-5.54.31-10.7.24-10.79s-8.82-.14-19.84-.23-25.35.74-25.35.74c-.14.33 0 19.33.28 21.2a3.6 3.6 0 0 0 2.57 2.8c.46.05 8.49 0 18 0h15.84c-.44-.74-1.35-1.98-1.35-2.26z" fill="#f9f2ed"/><path d="m6.23 34.74c.19-.1 1.22-.28 1.36.14s.41 5.55.41 5.55-.89.52-1-.14-.77-5.55-.77-5.55z" fill="#604f58"/><path d="m24.58 43.09c2.16-.79 6.44-1.54 8.87 2.2s-.65 6.71-3.08 7.94-7.42.56-8.73-2.11-.75-6.67 2.94-8.03z" fill="#604f58"/><path d="m25.21 44.12c1.72-.63 5.13-1.22 7.06 1.75s-.52 5.35-2.45 6.32-5.91.44-6.95-1.68a4.54 4.54 0 0 1 2.34-6.39z" fill="#afc68c"/><path d="m23 47.06a4.91 4.91 0 0 1 2.06.47c0 .19 0 1.07-.38 1.26a2.4 2.4 0 0 1 -2-.47c-.34-.42.17-.98.32-1.26z" fill="#604f58"/><path d="m9.55 58.78c.13-.06 6.07 0 6.07 0s-.52 1.64-.84 1.82a23.37 23.37 0 0 1 -4.77.1 7.94 7.94 0 0 1 -.46-1.92z" fill="#a8a1a7"/><path d="m39.29 58.36c.14 0 5.55.14 5.55.14s-.32 1.49-.6 1.59-4.39.09-4.39.09z" fill="#a8a1a7"/><g fill="#604f58"><path d="m16.83 48.79a1 1 0 0 1 1.68.61c.09.79-.65 1.21-1.45 1s-.84-1.1-.23-1.61z"/><path d="m17.53 43.33a1 1 0 0 1 1.68.6c.09.8-.65 1.22-1.45 1s-.84-1.09-.23-1.6z"/><path d="m21.78 38.89a1 1 0 0 1 1.68.61c.09.79-.65 1.21-1.45 1s-.84-1.09-.23-1.61z"/><path d="m27.8 38.15a1 1 0 0 1 1.68.6c.1.8-.65 1.22-1.44 1s-.85-1.09-.24-1.6z"/><path d="m32.84 39.92a1 1 0 0 1 1.68.61c.1.79-.65 1.21-1.44 1s-.84-1.1-.24-1.61z"/><path d="m36.72 44.35a1 1 0 0 1 1.68.65c.09.8-.65 1.22-1.45 1s-.84-1.13-.23-1.65z"/><path d="m37.28 50a1 1 0 0 1 1.68.6c.09.8-.65 1.22-1.45 1s-.84-1.13-.23-1.6z"/></g><path d="m8.19 29.88s-1.82-8.59-1-9.48 9.34-1.07 15.41-1.12 19.14-.42 21.85-.09 2.61 0 2.71.33-1.16 9.89-1.16 9.89-7.75-.18-19.65.1-18.16.37-18.16.37z" fill="#f6c687"/><path d="m53.67 19.1c.12-.26 6.81.09 6.81.51s0 2.8-.23 2.8-6.58-.14-6.72-.51a10.51 10.51 0 0 1 .14-2.8z" fill="#adceea"/><path d="m18.65 14.62a7.1 7.1 0 0 1 -.42-2.43c.09-.8.7-1.17.51-1.82s-.51-.84-.46-1.26.09-.56.37-.61a3 3 0 0 1 1.45 2.19c-.05.89-.89 1-.7 1.87s.42 1.68.42 1.68-1.03.66-1.17.38z" fill="#604f58"/><path d="m23.46 13.73c-.09-.56-.56-2.43-.05-3.36s1.22-1.37.59-2.52a6.48 6.48 0 0 1 -.93-2.39c-.14-.88-.24-2.14.46-2.84s1.12-.89 1.17-.42-1 1.4-.28 3.12a9.41 9.41 0 0 1 1 3.55c0 1.22-1.17 1.92-.89 3.08s.51 1.26.37 1.68-1.39.37-1.44.1z" fill="#604f58"/><path d="m28.18 13.91c.07-.39.79-1.26.37-1.91s-1.17-.89-.84-2.1 1.07-1.82 1.4-1.59.61.47.33 1-.7.89-.33 1.59.47.37.56 1.68-.09 1.73-.47 1.87-1.12-.07-1.02-.54z" fill="#604f58"/><path d="m33.31 12.79c.52-.51 1.17-.09 1.31.56a.79.79 0 0 1 -1.08.94.89.89 0 0 1 -.23-1.5z" fill="#604f58"/><path d="m18.75 26.18c0-.86-.07-1.87-.13-2.77l6.61-.41s.24-.84-.51-.88c-.29 0-3 0-6.19.14a5 5 0 0 0 -.16-1.08.76.76 0 0 0 -1 .14 3.37 3.37 0 0 0 0 1c-1.85.07-3.8.16-5.54.26a13.11 13.11 0 0 0 -.22-1.38c-.18-.61-.32-.47-.84-.28-.15.06-.18.77-.16 1.73a18.7 18.7 0 0 0 -4.13.51c-.14.1.09 1.08.19 1.22s.6.06 4-.27c.05.9.13 1.83.2 2.61-1.23.09-2.1.17-2.21.18s-.14.84.05 1.12a10.71 10.71 0 0 0 2.28 0l.05.52a.6.6 0 0 0 1 0 1.42 1.42 0 0 0 .12-.59c1.77-.1 3.91-.26 5.64-.38 0 .45.08.74.08.74s.6.09.84-.1a2.15 2.15 0 0 0 .07-.71c1.19-.08 2-.14 2.17-.13.51.05.28-.7.09-1.07a7.9 7.9 0 0 0 -2.3-.12zm-6.62.39c0-.8-.11-1.75-.2-2.63 1.51-.14 3.49-.29 5.46-.44.07.88.17 1.87.25 2.73-1.71.08-3.78.22-5.51.34zm13.5-.73c-.05-1-.14-2-.16-2.21 0-.47-.61-.14-1-.05-.2.05-.15 1.2 0 2.3l-1.66.12s-.19 1 0 1.17a10.42 10.42 0 0 0 1.76 0c.05.44.09.74.1.78s.52.33.84.14c.1-.06.14-.44.15-1 1.49-.06 3.05-.16 3.22-.21.32-.09.14-.79 0-1a15.36 15.36 0 0 0 -3.25-.04zm19.59-2.26c.28-.19.18-.61.14-.89a7.73 7.73 0 0 0 -1.65-.14 13 13 0 0 0 .11-1.63c-.1-.42-.42-.19-.8.14a4.55 4.55 0 0 0 -.34 1.45l-3.48-.08c0-.51 0-.92-.05-1s-.38-.28-.7-.14c-.12.05-.17.53-.18 1.13-1.83 0-3.77-.05-5.51-.06a16.13 16.13 0 0 0 -.06-1.91c-.09-.33-.7-.19-1 .14a6.84 6.84 0 0 0 -.15 1.77c-2.42 0-4.21 0-4.33.05s-.14.94 0 1.08 1.87.09 4.33.12c0 1.41.06 2.79.06 2.86s.7.28.93.05a12.83 12.83 0 0 0 .19-2.9l5.54.05c0 .66.06 1.22.06 1.22a.76.76 0 0 0 .67.11c.16 0 .22-.63.24-1.31h3.34c-.1.8-.19 1.64-.26 2.35-3.13 0-8.6 0-8.6 0a1.13 1.13 0 0 0 0 1.08c.1.1 5.48 0 8.54-.17a5.14 5.14 0 0 1 -.09.68.72.72 0 0 0 .7.19 2.15 2.15 0 0 0 .3-.92 8 8 0 0 0 1.15-.11c.51-.19.18-.51.18-.7a5.26 5.26 0 0 0 -1.25-.09c.12-.72.23-1.57.33-2.37a12.51 12.51 0 0 0 1.64-.05z" fill="#604f58"/></svg>