<svg height="64" viewBox="0 0 64 64" width="64" xmlns="http://www.w3.org/2000/svg"><path d="m34.23 64c-7 0-9.64-1.2-10.91-1.78l-.2-.09a4.5 4.5 0 0 1 -2.67-4.75c0-.34.1-1.09.2-2.15a151.5 151.5 0 0 0 1-16 74.71 74.71 0 0 0 -.65-8.74c-.35 0-.72.05-1.12.05a8.57 8.57 0 0 1 -6.5-2.65c-3.73-4.06-4.69-11 .15-15.5a10.49 10.49 0 0 1 7.25-3 10.67 10.67 0 0 1 1.6.12 2.84 2.84 0 0 1 .62-1.37c.51-.61 3.08-2.5 7.62-5.61a3.1 3.1 0 0 1 .26-.82 3 3 0 0 1 1.76-1.48 4.4 4.4 0 0 1 1.36-.23 3.71 3.71 0 0 1 2.84 1.2c1.42.23 4.08.66 5.48 1l1.09.27c1.63.38 3.67.86 3.48 2.91v.12a2.34 2.34 0 0 1 -.45 1.32c1.1.66 6.35 3.84 7 5.4a5.87 5.87 0 0 1 -.68 5.18 3.86 3.86 0 0 1 -3 1.33 3.81 3.81 0 0 1 -1.38-.24 9.86 9.86 0 0 1 -2.12-1.49l-.32 1c1.52.63 2.4 1.46 2.63 2.49.16.68.07 1.76-.23 5.07-.27 3-.64 7.16-.72 11.07v2.69c-.17 5.68-.28 10.49.38 13.68.25 1.17.43 2 .57 2.62a10.19 10.19 0 0 1 .43 2.38c0 2-3.82 5.77-13 6zm-3.72-47.8c.09.22.16.44.23.65.55 0 1.17-.05 1.78-.05h.09l.09-1.94-.31.33a2.88 2.88 0 0 1 -1.25.89 3.19 3.19 0 0 1 -.63.12z" fill="#fff"/><path d="m22.6 28.22s-4.85 1.56-7.79-1.64-4.07-8.92 0-12.78a8.41 8.41 0 0 1 11.74-.13 8.69 8.69 0 0 1 2.6 5.24s1.73-.17 3.33-.17a19.25 19.25 0 0 0 1.95 0l.34-7.57a8.68 8.68 0 0 0 -2.72 1.64c-1.22 1.13-1.3 1.39-1.56 1.47s-.74 0-.74-.21.65-2.08-.95-3.16-2.3-.78-2.86-.57a9.89 9.89 0 0 1 -1.08.35s-1-.48-.39-1.26 8.1-5.84 8.1-5.84-.39-1.13.65-1.47a2 2 0 0 1 2.16.43 1.15 1.15 0 0 1 .22.48s4.4.6 6.27 1.07 3.13.65 3.13 1.13 0 .43-.35.65a8.35 8.35 0 0 0 -3.76 2.25c-1.61 1.77-.87 4.16-1.13 4.42a.72.72 0 0 1 -.73.26c-.18-.09-.91-1.35-1.35-1.48l-.86-.26-.35 7.54 2 .17 1.12.09s1.76-9.23 2.33-9.87a3.28 3.28 0 0 1 3.42-.52c1 .56 6 3.81 6.32 4.55a4 4 0 0 1 -.39 3.2 2.07 2.07 0 0 1 -2.17.52c-.43-.17-3.85-3-3.85-3l-1.73 5.55s2.94.7 3.16 1.7-.87 8.61-1 15.67-.39 12.86.44 16.76.88 4.02.88 4.57-2.7 3.82-11.1 4-10.9-1.17-12-1.65a2.6 2.6 0 0 1 -1.51-2.86c.08-1.47 1.34-11.56 1.21-18.27a67.63 67.63 0 0 0 -1-11z" fill="#604f58"/><path d="m26.81 8.92s6.08-4.32 6.4-4.32.36.1.39.29a63.21 63.21 0 0 1 -2.92 6.33c-.1-.13-1.68-2.5-3.87-2.3z" fill="#ef7d7b"/><path d="m31.62 11.48s2.7-6.43 3.12-6.33 2.47 4.78 2.26 4.85a7.64 7.64 0 0 0 -2.73.23 24.15 24.15 0 0 0 -2.65 1.25z" fill="#adceea"/><path d="m38.64 10.51c0-.1-3.41-5.72-3.35-6s.2-.45.33-.48 7.5 1.17 7.34 1.3a25 25 0 0 0 -3.09 2.11 8.85 8.85 0 0 0 -1.23 3.07z" fill="#da8cbb"/><path d="m28.6 20.68a8.92 8.92 0 0 1 2.5-.95 21.89 21.89 0 0 1 3.35 0v1.24a34.86 34.86 0 0 1 -5.85-.29z" fill="#ddeff2"/><path d="m36.17 21v-1.2l3 .16s-.23 1.07-.52 1.11-2.48-.07-2.48-.07z" fill="#ddeff2"/><path d="m39.9 20.68c-.08-.06 2.21-9.33 2.54-10.36s.71-2 2.92-.91a17.21 17.21 0 0 1 4.29 3.34 3.54 3.54 0 0 0 -1 1 4.58 4.58 0 0 0 -.39.87l-3.87-3s.52-1 .26-1.17a.76.76 0 0 0 -.91.23c-.16.23-.84 1.56-.45 1.75s1.17.75 1.17.75-2.11 7.47-2.4 7.63a3.32 3.32 0 0 1 -2.16-.13z" fill="#c5dda3"/><path d="m50.23 13.4c.29 0 .88.16.81 1s-.78 1.88-1.52 1.3-.1-2.23.71-2.3z" fill="#c5dda3"/><path d="m19.09 25.61c-.09-.04 1.39-3.61 1.72-3.61s.42-.29.48 0 .62 3.35.59 3.51-1.07.82-2.79.1z" fill="#f6c687"/><path d="m15.68 23.11c-.11-.38 3.08-1.79 3.47-1.79s.75-.22.75.17a33.27 33.27 0 0 1 -1.27 4.35c-.1 0-2.47-.94-2.95-2.73z" fill="#f6c687"/><path d="m15.22 22.07s-.29-2.43.1-2.63a8.19 8.19 0 0 1 3.41.52 1.05 1.05 0 0 1 0 .78c-.13.1-3.25 1.56-3.51 1.33z" fill="#f6c687"/><path d="m15.29 18.37a3.88 3.88 0 0 1 1.46-2.18c1.33-1.13 1.36-1.07 1.49-.94s1.62 3.35 1.33 3.61-3.8-.26-4.28-.49z" fill="#f6c687"/><path d="m20.25 18.27s-1.49-3.54-1.13-3.83 2.79-.42 2.73 0-.98 3.9-1.6 3.83z" fill="#f6c687"/><path d="m21.26 18.63s1.4-4.16 1.89-4.06 2.4 1.85 2 2.24a21.14 21.14 0 0 1 -3.54 2.11c-.28.08-.45 0-.35-.29z" fill="#f6c687"/><path d="m22.07 19.51c.09-.07 3.32-2.34 3.61-2.08s1.07 3.34.75 3.31-4.23 0-4.29-.16-.2-.98-.07-1.07z" fill="#f6c687"/><path d="m20 19.86a1.13 1.13 0 0 1 1.4 0 .73.73 0 0 1 -.78 1.11c-.88-.16-.95-.72-.62-1.11z" fill="#f6c687"/><path d="m24.35 26.2a23.83 23.83 0 0 1 -.75-3.48c.16-.1 3.25 0 3.25.2a8.19 8.19 0 0 1 -1.27 2.37 7.52 7.52 0 0 1 -1.23.91z" fill="#f6c687"/><path d="m24.64 27a11.18 11.18 0 0 0 2.08-1.59 6.45 6.45 0 0 0 1.36-2.5s4.39.26 9.09 0 7.34-.94 7.44-.68-.13 5.55-.45 5.68a13.09 13.09 0 0 1 -2.08.13 22.57 22.57 0 0 0 .49-3.73 1.92 1.92 0 0 0 -1.27.13 31.25 31.25 0 0 1 -.68 4.22 4.45 4.45 0 0 1 -1.95.32c-.52 0-1-.06-1-.16a33.13 33.13 0 0 0 1-3.57c-.06-.23-.65-.39-.71-.17s-1 3.61-1.14 3.61a8.09 8.09 0 0 0 -1.82 0c-.39.13-.52.45-.87.52a2.81 2.81 0 0 1 -1.3-.2 4.61 4.61 0 0 0 -2.61-1.01c-1.42 0-1.49.75-2.46.81a5 5 0 0 1 -2.37-.23c-.82-.34-.75-1.58-.75-1.58z" fill="#ddeff2"/><path d="m34.41 24.09a.78.78 0 0 1 1 .06c.16.23.16 3.67-.1 3.8s-.91.1-.91-.13a24.44 24.44 0 0 1 .01-3.73z" fill="#604f58"/><path d="m24.9 29.15s.52.85 2.63.46 2-.85 3.34-.43 1.86 1.37 3 1.17 1.46-.91 2.08-.91.78-.09.85.1-.72 3-.52 3.15.61.23.68 0a21.85 21.85 0 0 1 .81-2.79 2.4 2.4 0 0 0 2.08.26c1.15-.39 1.94-1.16 2.78-1.16s1.56.26 1.56.45-1.2 9.91-1.1 14.26a118.35 118.35 0 0 0 .74 12.11c.36 1.95.23 2.18.23 2.18s-3 1.36-9.19 1.49-9.87-.95-10.07-1.37a1.1 1.1 0 0 1 -.06-.78 117 117 0 0 0 1-16.92 81.9 81.9 0 0 0 -.84-11.27z" fill="#f39a9b"/><g fill="#604f58"><path d="m35.32 35.61c.08-.27.75-.26.82 0a71.6 71.6 0 0 1 -1.73 8.25c-.22 0-.61.17-.58-.19s1.43-7.83 1.49-8.06z"/><path d="m32.86 46.36c.14-.09 1.07-.32 1 0s-.58 4.32-.35 4.48.91.23 1 .43.07.55-.16.64a3.2 3.2 0 0 1 -1.92-.48c-.35-.43.23-4.94.43-5.07z"/><path d="m37.21 41.88c.13-.18.71 0 .74.23a91.58 91.58 0 0 1 -2.4 9.06c-.23 0-.68-.13-.68-.39s2.13-8.64 2.34-8.9z"/><path d="m38.28 38.54c0-.11 1.85-7.24 2.17-7.28s.56-.06.59.29a56.63 56.63 0 0 1 -2 7.31c-.27.03-.73.14-.76-.32z"/><path d="m29.93 32.24a.84.84 0 0 1 1.37.65c.06.78-.46 1.52-1.33 1.07s-.59-1.3-.04-1.72z"/><path d="m34.25 31.55c.11-.19.68-.13.68.13a7.41 7.41 0 0 1 -.32 2c-.16 0-.72.42-.75-.1a7.07 7.07 0 0 1 .39-2.03z"/><path d="m30.29 36.46c.19-.33 1.1-.07 1.2.39s-.06 1.36-.71 1.23-.78-1.08-.49-1.62z"/><path d="m30.48 40.1a.68.68 0 0 1 1 .26c.23.45-.26.94-.78.87s-.61-.78-.22-1.13z"/><path d="m29 45.36c.37-.27 1.3-.33 1.46.19s-.78 1.37-1.27 1.11-.91-.82-.19-1.3z"/><path d="m29.25 52.44c.55-.51 1.2.09 1.27.42s-.46 1.1-1.07.81a.7.7 0 0 1 -.2-1.23z"/><path d="m28.76 56.79c.09-.14.56.42 1.69.45s1.46 0 1.46.17a1.52 1.52 0 0 1 -.19.71 5.85 5.85 0 0 1 -2.14.07c-.75-.13-1.4-.39-.82-1.4z"/><path d="m40.23 42.3a.7.7 0 0 1 .94.52c.06.49-.49.65-.91.43a.54.54 0 0 1 -.03-.95z"/><path d="m39.71 46.88c.15-.23 1.43-.68 1.78.17s-.68 1.55-1.36 1.3a.9.9 0 0 1 -.42-1.47z"/><path d="m39.61 50.72a2.07 2.07 0 0 1 2 .29 1.31 1.31 0 0 1 -1.23 1.91 1.24 1.24 0 0 1 -.77-2.2z"/><path d="m39.68 54.84a.83.83 0 0 1 1.2.1.71.71 0 0 1 -.62 1.1c-.75-.04-1.1-.68-.58-1.2z"/><path d="m34.64 54.48a.74.74 0 0 1 1.17.33c.16.42-.29.94-.84.87a.66.66 0 0 1 -.33-1.2z"/></g></svg>