<svg height="64" viewBox="0 0 64 64" width="64" xmlns="http://www.w3.org/2000/svg"><path d="m31 64c-8 0-10.11-1.27-12.46-3.22l-.74-.59c-2.88-2.2-8.74-11.25-9.22-20a40.8 40.8 0 0 1 2.06-15.31l.15-.5c1.48-4.94 5.12-14.07 12.84-19.75 4.37-3.15 7.85-4.63 11.08-4.63a13.93 13.93 0 0 1 3.29.43c3.84.91 12.49 8.45 16 20.23 3.78 12.5-.85 30.31-2.42 34a11.8 11.8 0 0 1 -4.5 5.73l-.37.26-.13.15c-1.39 1.48-3.54 2.94-13.21 3.2z" fill="#fff"/><path d="m12.67 25c1.75-5.82 5.44-13.83 12.13-18.75s9.93-4.56 12.72-3.9 11.11 7.21 14.64 18.9-.74 28.9-2.36 32.65-2.93 4.83-3.89 5.57-1.4 2.26-12.58 2.53-11.84-1.44-14.33-3.35-8-10.45-8.46-18.53a39.59 39.59 0 0 1 2.13-15.12z" fill="#604f58"/><path d="m47.52 33.79c-.07-.44-.18-.95.3-.95s2.37 2 3.52 3.22c0-.43 0-.93 0-1.47a23.77 23.77 0 0 1 -3-2.78c0-.33.07-1.07.44-1a9.66 9.66 0 0 1 2.49 1.85c0-.45 0-.92-.06-1.4-.83-.54-2.4-1.59-2.43-1.89s-.15-1 .26-1a8.89 8.89 0 0 1 2 1.17c0-.42-.09-.85-.14-1.27a9.88 9.88 0 0 1 -2.1-1.44.79.79 0 0 1 .08-.89 5.19 5.19 0 0 1 1.8.77c-.06-.39-.13-.78-.21-1.16-1.08-5.1-5.69-14.12-9.81-18.18s-6.79-3.55-9.48-2.37-11.13 8.18-14.71 15.63-3.54 16.37-3.28 16.62c2.35 2.74 11 4.41 22.25 3.92a60.92 60.92 0 0 0 9.1-1 13.18 13.18 0 0 1 -1.61-2.46c.07-.26.33-.92.66-.77a14 14 0 0 1 2.25 2.95c.38-.09.75-.18 1.09-.28a17.49 17.49 0 0 1 -2.09-2.93c0-.33.48-.74.7-.66a19.25 19.25 0 0 1 2.79 3.18c.45-.15.83-.29 1.17-.43a46.25 46.25 0 0 1 -3.3-3.49c0-.25.26-.81.52-.77a34.6 34.6 0 0 1 4 3.67 2.09 2.09 0 0 0 .44-.32s0-.14 0-.27a34.34 34.34 0 0 1 -3.64-3.8z" fill="#f9f2ed"/><path d="m38.41 56.62c.07-.29.58-.88.88-.51a14.72 14.72 0 0 1 1.54 2.26c.41-.17.81-.34 1.19-.53a19.23 19.23 0 0 1 -2-2.65c0-.29.18-.74.59-.74s1.79 2.06 2.24 2.94c.33-.19.64-.38.94-.58-.5-.54-2-2.23-2-2.54a.78.78 0 0 1 .74-.55 13.29 13.29 0 0 1 2.18 2.42c.38-.29.73-.58 1-.86a28.12 28.12 0 0 1 -2.41-2.66c0-.22.4-.81.7-.74a12 12 0 0 1 2.41 2.72 6 6 0 0 0 .86-1.29 17.92 17.92 0 0 1 -2.65-2.53c0-.3.33-.88.74-.74a13.45 13.45 0 0 1 2.32 2.43c.21-.47.43-1 .64-1.54a21.79 21.79 0 0 1 -2.16-2.14c0-.22.26-.84.56-.84a8.44 8.44 0 0 1 2 1.79 74.1 74.1 0 0 0 2.6-9.21 86.61 86.61 0 0 1 -17.89 2.7c-12.7.83-20.27-3.74-20.25-3a26.12 26.12 0 0 0 5.84 14.66c3.38 4.26 4.46 4.7 12.5 5a22.64 22.64 0 0 0 8-1.07 8.54 8.54 0 0 1 -1.11-2.2z" fill="#ddeff2"/><path d="m19.62 22.06c-.07-.17.88-3.75 4-7.57s4.63-4.71 4.92-4.63.55.77.55 1-3.75 3.68-5.25 5.85-2.39 5.73-2.61 5.77-1.5-.16-1.61-.42z" fill="#604f58"/><path d="m28.92 33.87c.09-.7 1.21-1 2-.92s2.54 0 2.69.51-1.22 5.59-1.8 5.74-.92.25-1.22 0a23.91 23.91 0 0 1 -1.67-5.33z" fill="#604f58"/><path d="m30.36 34.53c0-.19 1.69 0 1.8.14s-.44 2.8-.74 2.87-.4.41-.55 0a15 15 0 0 1 -.51-3.01z" fill="#f39a9b"/><g fill="#604f58"><path d="m15.43 43a.55.55 0 0 1 .81.08c.11.25.47 1.87.22 2s-.7.26-.92 0a3.94 3.94 0 0 1 -.11-2.08z"/><path d="m21.31 44.27c.08-.17.88-.29 1 0s.4 2.17.11 2.24-.51.22-.77 0a4.15 4.15 0 0 1 -.34-2.24z"/><path d="m30.06 44.93c.26-.13 1-.14 1.14 0s.41 2.09.18 2.13-1.17.22-1.25 0-.51-1.91-.07-2.13z"/><path d="m37.12 45c.12-.16.88-.15.92.18s-.07 1.91-.48 2-.92.19-1-.11a5.16 5.16 0 0 1 .56-2.07z"/><path d="m43.77 44.12c.11-.11 1.36-.25 1.44-.07s-.21 1.95-.66 2.17-.92.26-1 0-.11-1.77.22-2.1z"/><path d="m47.34 44c.11-.12 1.51-.29 1.4 0s-.3 1.43-.55 1.54-1.14.15-1.14 0a4.86 4.86 0 0 1 .29-1.54z"/></g></svg>