<svg height="64" viewBox="0 0 64 64" width="64" xmlns="http://www.w3.org/2000/svg"><path d="m42.6 54.6a7 7 0 0 1 -3.42-.72 7.66 7.66 0 0 1 -1.31-.88 2.4 2.4 0 0 0 -.33-.26h-.33a5.55 5.55 0 0 0 -1 .41 9.62 9.62 0 0 1 -4.3 1.1 9.91 9.91 0 0 1 -2.53-.34c-.92-.24-1.6-.44-2.14-.61a6.4 6.4 0 0 0 -2.11-.41c-.44 0-1.05 0-2 .13s-1.65.22-2.39.35a14.87 14.87 0 0 1 -2.79.34 7.56 7.56 0 0 1 -4.38-1.42 18.28 18.28 0 0 1 -3.66-3.55 8.39 8.39 0 0 0 -1.77-1.74c-2.14-.22-7.24-2-7.94-6a10.74 10.74 0 0 1 .74-5.1 10.58 10.58 0 0 0 .48-1.85 10.9 10.9 0 0 1 -.08-10.61c1.9-3.64 5-5.13 7.7-6.44.87-.42 1.7-.82 2.47-1.28a14.13 14.13 0 0 0 1.36-1.2c1.83-1.73 4.34-4.1 7.32-4.52a7.07 7.07 0 0 1 .91 0 9.78 9.78 0 0 1 5.09 1.79 11.74 11.74 0 0 0 1.2.66c.27-.12.63-.31 1-.5a18.46 18.46 0 0 1 9-2.53h.86a11.73 11.73 0 0 1 9.07 4.41 2.36 2.36 0 0 0 .24.27c.19.2.3.31 1.19.31.13 0 .35 0 .64-.05a26.86 26.86 0 0 1 2.81-.17c3.14 0 5.48.81 6.94 2.4 2.39 2.59 3.4 6 3 10.07a17.58 17.58 0 0 1 -.5 2.54c-.52 2-.61 2.74.24 3.55 3.51 3.31 1.65 8.7 1 10.47-1 2.94-7 9.32-13.49 10.52a40.83 40.83 0 0 1 -6.79.86z" fill="#fff"/><path d="m12.5 17.43c1.41-.84 4.58-5 8-5.46s5.73 3 7.42 2.36 4.92-3.24 10.32-3a10.11 10.11 0 0 1 8 4.11 3.16 3.16 0 0 0 2.57.88c1.08 0 6.54-1.08 9 1.55a10.56 10.56 0 0 1 2.49 8.57c-.27 2.76-2.09 5.39.34 7.69s1.28 6.27.54 8.43-6.21 8.16-12 9.24-7.75 1-9 .34-1.41-1.55-3.1-1.35-3.4 2.21-7.25 1.21-3.3-1.28-6.95-.94-5.39 1.55-8.29-.41-4.32-5.39-6.21-5.59-5.8-1.76-6.27-4.39 1.89-5.91 1.08-7.39a9 9 0 0 1 -.14-8.9c2.16-4.12 6.14-4.99 9.45-6.95z" fill="#604f58"/><path d="m14 19.86c2.13-1.65 5.4-6.68 7.82-5.94s2 2.77 3.71 3.44 3.85.34 6-.94 7.15-3.17 10.18-1.35 2 4.79 6 4.86 8.5-1.83 9.44 2-2.7 6.88-.94 11.13 4.31 4.79 2.29 7.76-6.81 6.4-9.65 7.75a10.22 10.22 0 0 1 -6.81.95c-1.42-.41-2.49-2.23-5-1.62s-4.25 2.16-6.75 1.62-4.17-1.87-7.29-1.47-4.79 1.22-7.15.27-1.89-5.12-5.39-5.8-4.91-.52-5.46-3.3 2-4.66.88-6.48-2.3-7.35.87-9.37 4.25-1.22 7.25-3.51z" fill="#f9f2ed"/><path d="m22.41 22.42c3.66-1.36 15.65-1.42 18.15 7.22s-5 14.77-13.9 14.7-12.48-6-12.88-10.34 2.09-9.15 8.63-11.58z" fill="#604f58"/><path d="m24.37 24.58c4.3-2 12.14-.74 13.42 7.15s-10.59 11.47-14.91 9.27-11.8-10.28 1.49-16.42z" fill="#f6c687"/><g fill="#604f58"><path d="m20.46 33.42c-.21-.36-.21-2.37 1.82-4s3.91-1.83 4.25-1.35a1.24 1.24 0 0 1 -.41 1.55 4 4 0 0 0 -2.7 1.28c-1.14 1.35-1 2.56-1.28 3s-1.41-.01-1.68-.48z"/><path d="m42.24 45.09s1.42-1 1.69-.68 3.3 2.29 2.9 2.9-.4.47-.74.41a23.28 23.28 0 0 1 -3.85-2.63z"/><path d="m45.41 43.47c-.07-.28.48-.61 1-.54s3.51 2.63 3.3 2.9-1 .33-1.28.27-2.88-2.1-3.02-2.63z"/><path d="m47.77 42.25c-.11-.26.34-.67 1-.54s3 2.63 2.83 3.11-.61.47-1 .4a11.92 11.92 0 0 1 -2.83-2.97z"/><path d="m50.34 40.77c0-.64.67-.54 1-.47s1.9 1.7 1.66 2.22-.34.68-.61.54-2.05-1.82-2.05-2.29z"/><path d="m52.43 39.42s.54-.74.94-.61 1 1 .75 1.42-.34.61-.61.47a2.57 2.57 0 0 1 -1.08-1.28z"/></g></svg>