<svg height="64" viewBox="0 0 64 64" width="64" xmlns="http://www.w3.org/2000/svg"><path d="m42 59.5c-6 0-11.2-2.31-16-7a26.86 26.86 0 0 1 -6.3-10.62 16.78 16.78 0 0 1 -3.83 1.34 9.68 9.68 0 0 1 -2.07.21c-4.14 0-9.57-2.3-12-6.7-2.57-4.84-2.4-11.28.53-18.13 3-7.07 7.42-11.81 10.43-13.37 1.14-.6 4.41-.73 5.57-.73a19 19 0 0 1 3 .22c3.87.67 4.32 3.12 4.51 4.17a3.24 3.24 0 0 1 .06.4h1.06a13.35 13.35 0 0 1 3.48.35 4 4 0 0 1 2.84 3.82 6.2 6.2 0 0 1 4.3 2.08 14.73 14.73 0 0 1 2.42 6.89c.1.73.16 1.38.2 1.94l.58-.44a21.79 21.79 0 0 1 2.34-1.67 4.55 4.55 0 0 1 2.24-.69 3.16 3.16 0 0 1 1.77.55 3.08 3.08 0 0 1 .71.68 6.84 6.84 0 0 1 3.54-1.47 5.48 5.48 0 0 1 4.62 3.07q.07.17.15.3c2.42.12 3.29.26 3.9.61a10 10 0 0 1 3.25 4.69 28.19 28.19 0 0 1 .53 9.49c-.48 4.63-2 7.67-6.3 12.53s-8 7.46-15.43 7.46z" fill="#fff"/><path d="m13.65 7a20.25 20.25 0 0 1 7.35-.37c2.6.46 2.77 1.74 2.95 2.68s-.38 1.52.8 1.8 3.74 0 5.13.42a2.12 2.12 0 0 1 1.46 2.25c0 .49-.39 1.22.1 1.42s3.47 0 4.58 1.53a13.43 13.43 0 0 1 2 6 21.2 21.2 0 0 1 .24 3.6s1.25.7 1.87.42 2.87-2.22 3.87-2.75 1.56-.49 2-.21.76 1.28 1.42 1.38 2.6-1.87 3.92-1.87a3.57 3.57 0 0 1 2.88 2.05c.48.93.48 1.25.73 1.28a23.84 23.84 0 0 1 4.09.42 8.49 8.49 0 0 1 2.36 3.5 26.26 26.26 0 0 1 .48 8.81c-.45 4.34-1.9 7-5.82 11.45s-7.27 6.78-14.06 6.75a20.86 20.86 0 0 1 -14.68-6.42 24.77 24.77 0 0 1 -5.72-9.85c-.31-1.6-.52-2.53-.52-2.53a13.16 13.16 0 0 1 -5.59 2.56c-3.6.8-9.61-1.28-11.89-5.51s-2.22-10 .55-16.44 6.76-11 9.5-12.37z" fill="#604f58"/><path d="m52 47.12c0-.31.55-.73.83-.66a16 16 0 0 1 2.4 2.54c.29-.34.57-.69.84-1.06a25.09 25.09 0 0 1 -2.07-2.49c-.07-.27.52-.76.73-.73a13.79 13.79 0 0 1 2.07 2.19l.12-.17q.31-.47.6-.93a14.66 14.66 0 0 1 -1.68-2.13c0-.2.66-.79.94-.69a8 8 0 0 1 1.4 1.66c2.56-4.87 2.12-9 2-9.15s-2.29.55-2.85.66-1.39 1.73-2.33 2.32-2.19-.21-3.26-.31-3.54 2.36-5.34 2.53-3.26-1-4.17-1.14-2 .93-3.29 1.14-5-1.73-5.55-1.91-3.75 2.21-5.03 2.21-5.2-3-5.14-2.46c.21 1.7 1.7 6.66 3.79 9.19s6.69 7.56 14 7.81a19.62 19.62 0 0 0 4.59-.38c-.75-.77-2.46-2.57-2.3-2.81s.63-.7.94-.42 2.12 2.07 2.76 2.89c.37-.11.72-.24 1.07-.37a20.81 20.81 0 0 1 -2.4-3c0-.34.8-.79 1-.72a33 33 0 0 1 2.64 3.18 13.47 13.47 0 0 0 1.23-.7 30.71 30.71 0 0 1 -2.54-3.32c0-.24.66-.66.86-.66a18.69 18.69 0 0 1 2.76 3.21l.74-.59a24.93 24.93 0 0 1 -2.56-3.17c.07-.24.38-.63.69-.59a17.34 17.34 0 0 1 2.64 3.08 17.22 17.22 0 0 0 1.27-1.29 17.87 17.87 0 0 1 -2.4-2.76z" fill="#fafafa"/><path d="m28.08 26.89c-.45-.72-4.65-.07-6.17-.79s-.39-3.65-.63-4.41-2.15-.83-2.84-1.49-.11-3.2-.44-3.92-1.73-.42-2.39-.76-.61-2.52-.61-2.95-1.36-2.87-1.66-2.57c-.66.58-4.93 5-6.73 8.77s-3.05 10.73-2.12 13.6 4 6.42 8.15 6.73h.27a34.26 34.26 0 0 1 -1.76-3.2 1.37 1.37 0 0 1 .87-.45 41 41 0 0 1 2.3 3.63l.83-.1a36.86 36.86 0 0 1 -1.88-3.46c0-.21.62-.48.8-.35a33.57 33.57 0 0 1 2.22 3.59l.88-.22a34.62 34.62 0 0 1 -2.17-3.29c0-.24.59-.59.83-.41a32.11 32.11 0 0 1 2.41 3.36l.71-.26c-.57-.86-2.33-3.56-2.39-3.76a.72.72 0 0 1 .66-.73c.32 0 2.14 3.1 2.62 4.12l.46-.21a34.79 34.79 0 0 1 -2.42-4.53.67.67 0 0 1 .83-.42 43.81 43.81 0 0 1 2.52 4.32l.34-1c-.6-1-2.17-3.62-2.2-3.79s.41-.72.66-.62a18 18 0 0 1 2 3c.11-.32.23-.67.37-1.06a18.08 18.08 0 0 1 -2.2-3c0-.34.73-.79.9-.66a21.72 21.72 0 0 1 1.9 2.4c.15-.32.3-.62.46-.91a10 10 0 0 1 -1.51-2 1.45 1.45 0 0 1 .9-.8 5.68 5.68 0 0 1 1.24 1.71 7.25 7.25 0 0 1 2-2.17c.48-.14 2.32.76 2.32.76a2.88 2.88 0 0 0 -.33-1.7z" fill="#fafafa"/><path d="m15.28 8.92c0-.35 5.72-.72 6.24-.1s-.17 3 1.46 4 5.24.72 5.79 1.14-.77 2.35 1.23 3.04 4.06.42 4.69 2a43.39 43.39 0 0 1 1.21 6.49 4.57 4.57 0 0 0 -2.39-.63c-1 .18-2.5 3.23-2.85 3.12s-.41-.1-.41-.2.17-2.54-1.22-3.13-5-.2-5.44-.62.59-2.74-.32-3.64-3.13-1.39-3.27-1.75.7-2.74 0-3.85-2.46-.7-2.74-1 .38-1.67-.21-2.5a22.18 22.18 0 0 1 -1.77-2.37z" fill="#fcdfc8"/><path d="m23.12 36.16s2.95-6.16 3.68-6.07 2.91 1 3.78.72 3.19-3.81 3.81-3.74 4.38 2.32 5.61 1.93 4.37-3.06 5.1-2.88 2.11 1.63 3.05 1.49 2.71-2.33 3.5-2 1.67 2.64 2.92 2.84 2.74-.34 3.43.25a9.5 9.5 0 0 1 1.81 4 2.22 2.22 0 0 1 -1.32 1.49 5.48 5.48 0 0 1 -1.6.07s-2.11-2.85-10.09-3.71a27.59 27.59 0 0 0 -16.41 3.08 17.64 17.64 0 0 0 -4.54 3.89 13.34 13.34 0 0 1 -2.73-1.36z" fill="#fcdfc8"/><path d="m26.69 37.89s5.41-5.65 13-6.28 10.48.42 12.7 1.28 3.47 1.7 3.47 1.88-1.31 1.7-1.86 1.73-2.46-.93-3.09-.66-4.23 2.85-5.31 2.78-2.84-1.35-3.57-1.28-2.18 1.45-3.82 1.21-4.12-2-5.09-1.94-3.65 2.08-4.79 2.25a1.66 1.66 0 0 1 -1.64-.97z" fill="#f6c687"/><path d="m34.71 34.21a11.83 11.83 0 0 1 4.82-1.38c2.81-.25 5.44-.11 5.55.2s.17.7-.17.77a35.31 35.31 0 0 0 -5.38 0 20.51 20.51 0 0 0 -4.27 1.14c-.26 0-.73-.62-.55-.73z" fill="#604f58"/></svg>