<svg height="64" viewBox="0 0 64 64" width="64" xmlns="http://www.w3.org/2000/svg"><path d="m30.14 53.86a1.87 1.87 0 0 1 -.62-.1 5.84 5.84 0 0 1 -.93-.42 10.2 10.2 0 0 1 -1 0 7.87 7.87 0 0 1 -2.86-.49 7.66 7.66 0 0 1 -3.57-3.65l-3.66-1.82a6.57 6.57 0 0 1 -1.84.24 10.85 10.85 0 0 1 -3.94-.83 8.32 8.32 0 0 1 -4.84-4.9c-6.08-2.81-6.41-3.64-6.65-4.25-.54-1.34 0-5.58.34-6.29s.4-.79 6.49-4a12.74 12.74 0 0 1 2.26-5.59 8.54 8.54 0 0 1 6.3-3.27 5.18 5.18 0 0 1 2.53.62 9.19 9.19 0 0 1 2.61 2.11l1.43-.72c.49-1.64 1.79-4.89 4.51-6.16a8.24 8.24 0 0 1 3.43-.79 6.51 6.51 0 0 1 3.6 1 8.87 8.87 0 0 1 3.74-3.74 7.29 7.29 0 0 1 3.08-.72 6 6 0 0 1 5.07 2.91 10.75 10.75 0 0 1 1.26 3l1.45.71a6.36 6.36 0 0 1 4.08-1.53h.3c3.38.16 6.12 3.86 6.46 7.07.1 1 .15 1.69.17 2.24 4.21 2.59 4.38 3.29 4.53 3.91a28.39 28.39 0 0 1 0 5.1c-.15 1-.16 1.13-7.14 5.57-2 1.27-7 4.41-10.25 6.15-2.2 1.18-5.35 2.94-8.14 4.49-7.49 4.15-7.5 4.15-8.2 4.15z" fill="#fff"/><path d="m8.84 28.61s.36-3.61 1.98-5.61 4.43-3.24 6.41-2.18a7.75 7.75 0 0 1 2.93 2.89l3.68-1.86s.95-4.47 3.68-5.74 4.91-.31 5.7.6 1.15 1.29 1.15 1.29 1.18-4.11 3.91-5.38 4.72-.12 5.72 1.38a9.25 9.25 0 0 1 1.19 3.28l3.54 1.72a4.91 4.91 0 0 1 3.88-1.94c2.42.12 4.39 3.13 4.63 5.35a18.46 18.46 0 0 1 .16 3.12s4.43 2.65 4.59 3.29a31 31 0 0 1 0 4.35c0 .28-11.2 7.52-16.38 10.29s-15.24 8.54-15.48 8.46-1.19-.59-1.19-.59a7.29 7.29 0 0 1 -3.56-.24c-1.66-.63-2.81-3.28-2.81-3.28l-5-2.5s-1.69 1.11-5.17-.31a6.13 6.13 0 0 1 -3.92-4.47s-6.13-2.82-6.48-3.61.16-4.47.28-4.71 6.56-3.6 6.56-3.6z" fill="#604f58"/><path d="m60.45 29.52c-.24-.12-27.71 15.71-29.17 16.54s-1.94.76-2.69.44-24.3-12.7-24.5-12.74a4.92 4.92 0 0 0 0 2.53c.24.16 25.37 13.71 25.91 13.71s3.84-2 9-4.95c3.3-1.9 11.18-6.47 16.43-9.55a4.48 4.48 0 0 1 .15-1.8c.24-.28.44-.44.55-.2a5.57 5.57 0 0 1 .28 1.42l.35-.21a9.52 9.52 0 0 1 -.07-2.12c.16-.08.71-.36.71 0s.09 1.18 0 1.75l.6-.34a9.22 9.22 0 0 1 0-2.07c.16-.16.76-.4.84-.16a7.29 7.29 0 0 1 0 1.74l.63-.38a6.18 6.18 0 0 1 0-1.76c.16-.16.63-.51.71-.24a7.28 7.28 0 0 1 .06 1.52c.17-.12.29-.19.3-.21a7 7 0 0 0 -.09-2.92z" fill="#f6c687"/><path d="m18.78 29.69c0-.12.21-.8.39-.83a9.07 9.07 0 0 1 1.83 1.14c-.05-.5-.13-1.12-.24-1.89a8.14 8.14 0 0 0 -3.56-6c-1.78-1.27-3.88-.24-6 2.26s-1.85 7.13-1.85 7.13c.72.83 2.58 1.66 5.66 1.7a12.86 12.86 0 0 0 2.53-.2 8.13 8.13 0 0 1 -1.07-1.34c0-.18.18-.6.53-.54a6.53 6.53 0 0 1 1.75 1.61l.77-.22c-.44-.51-1.52-1.63-1.52-1.72s.27-.6.51-.54a14 14 0 0 1 2.08 1.86l.53-.21a3.06 3.06 0 0 0 0-.36c-.7-.54-2.34-1.76-2.34-1.85z" fill="#fafafa"/><path d="m32.73 23.34c-.11-.21.15-.66.39-.72s1 .62 1.44 1.08c-.14-1.86-.51-4.28-1.42-5.58-1.58-2.25-3.4-2.13-6.29-.23s-2.76 8.84-2.5 9.14a6 6 0 0 0 2.14 1 4.59 4.59 0 0 1 2.57-.56 5.29 5.29 0 0 1 2.62.64c.22-.07.44-.15.65-.24-.39-.26-1.24-.87-1.26-1.14s.21-.68.54-.62a4.68 4.68 0 0 1 1.7 1.25 5.85 5.85 0 0 0 .52-.37 20.91 20.91 0 0 1 -1.78-1.48c0-.11.27-.74.57-.68a6.38 6.38 0 0 1 2 1.42 8.15 8.15 0 0 0 0-1.32c-.53-.43-1.79-1.43-1.89-1.59z" fill="#fafafa"/><path d="m28.73 39.6c0-.23.38-.77.62-.74a13.82 13.82 0 0 1 2.35 2 5.35 5.35 0 0 0 .68-.27c-.47-.38-2-1.65-2-1.9s.36-.68.56-.59a18 18 0 0 1 2.39 2 5.69 5.69 0 0 0 .53-.43 28.86 28.86 0 0 1 -2.32-2c-.06-.17.2-.56.5-.53a12.69 12.69 0 0 1 2.29 1.69 11.42 11.42 0 0 0 0-1.21 24.67 24.67 0 0 1 -2-1.58c-.06-.15.12-.68.38-.71a5.23 5.23 0 0 1 1.54 1 15 15 0 0 0 -1.06-4.48c-1.39-3.29-3.64-3.84-6.81-2.62s-3.88 10.37-3.73 10.5c.52.44 2.06 1.62 6.06 1.58a9.71 9.71 0 0 0 1.8-.16 10.19 10.19 0 0 1 -1.78-1.55z" fill="#fafafa"/><path d="m41.7 33.31c0-.15.5-.59.62-.59a7.5 7.5 0 0 1 1.48 1.33c.21-.11.4-.21.58-.32-.39-.4-1.51-1.57-1.58-1.7s.23-.53.47-.5a8.83 8.83 0 0 1 1.8 1.74c.23-.17.43-.33.58-.46-.56-.49-2.19-1.9-2.26-2s.27-.6.5-.6a11.58 11.58 0 0 1 2.18 1.74c0-.3 0-.72-.07-1.21l-1.54-1.18s.12-.65.36-.68a3 3 0 0 1 1 .55 10.93 10.93 0 0 0 -1.75-5c-2-2.58-3-2.46-5.66-.32s-2.45 9-2.45 9c1 1.31 2.81 1.78 5.42 1.62a5.44 5.44 0 0 0 1.41-.29 9.17 9.17 0 0 1 -1.09-1.13z" fill="#fafafa"/><path d="m42.2 19.69c-.06-.27.15-.66.39-.69a5.89 5.89 0 0 1 1.78 1.09c0-.38-.06-.8-.11-1.26-.43-.17-1.42-.6-1.46-.84s0-.74.17-.74a3.94 3.94 0 0 1 1.1.44c-.43-2.26-1.44-4.65-3.77-4.63-4.35 0-5.5 6-5.5 6a8.57 8.57 0 0 0 .44 1.43 7.74 7.74 0 0 1 .31 2.37 8.44 8.44 0 0 0 1.86.87 6.52 6.52 0 0 1 1.11-1.11 4.61 4.61 0 0 1 2.85-1.22 2.64 2.64 0 0 1 .49 0c-.35-.25-.78-.55-.78-.67s.32-.56.65-.47a9.1 9.1 0 0 1 2.21 1.87 4.36 4.36 0 0 0 .44-.55s0-.15 0-.34a12.47 12.47 0 0 1 -2.18-1.55z" fill="#fafafa"/><path d="m52.53 27.11a.8.8 0 0 1 .63-.72 8.87 8.87 0 0 1 2 1.57 5.85 5.85 0 0 0 .65-.39 12.58 12.58 0 0 1 -1.81-1.5c0-.21.35-.57.5-.54a14.81 14.81 0 0 1 2 1.26c0-.25 0-.64 0-1.14a5.17 5.17 0 0 1 -1.66-1c-.15-.35-.06-.77.21-.77a4.27 4.27 0 0 1 1.4.63c-.18-2.68-1-6.45-4.11-6.38-4.82.12-5.06 8.43-5 8.55.39.63 1.82 2 4.83 2a7.49 7.49 0 0 0 2-.26c-.61-.42-1.62-1.06-1.64-1.31z" fill="#fafafa"/><path d="m8.44 30.63a14.53 14.53 0 0 0 .08 1.74c.08.24 1.86 1.82 6.26 1.74s7.2-1.66 7.44-2a16.71 16.71 0 0 0 -.36-5.34 12.6 12.6 0 0 0 -.95-2c0-.12 2.57-1.15 2.57-1.15s-.08 3.76 0 4.08.87.67 1.23.75l.91.2s-1.82.63-2.81 4.08a25.46 25.46 0 0 0 -1.07 7.71c.16.44 2.69 1.86 5.34 2.14a10.9 10.9 0 0 0 6.69-1.66c1.63-1 1.82-1.62 1.82-1.82s-.16-3.6-.27-4.55a13 13 0 0 0 -1.9-4.55 5.84 5.84 0 0 0 -1.07-1.07 4.3 4.3 0 0 0 2.06-.83c.71-.68 1.14-1.15 1.14-1.39v-3a1.23 1.23 0 0 0 .68.6c.47.16.75.23.75.23a6.92 6.92 0 0 0 -1.7 4.2 17.1 17.1 0 0 0 -.16 4.19 4.82 4.82 0 0 0 .79 1.67c.44.39 1.82 1.34 5.11 1.14a9.58 9.58 0 0 0 6-2.77 20.27 20.27 0 0 0 -.83-6.17 42.51 42.51 0 0 0 -1.82-4s.91-.43.95-.87 0-3.16 0-3.16l2.65 1.38a7.55 7.55 0 0 0 -1.42 3.68 13 13 0 0 0 .15 3.8c.12.44 1.35 2.1 4.36 2.18a7.68 7.68 0 0 0 5.26-1.47 5.07 5.07 0 0 0 1-.95s2.26 1.11 2 1.47-20.76 11.94-24.6 14.28-4.55 2.53-5.14 2.53-10.49-5.82-14.29-7.44-10.57-5.11-10.53-5.38a28.12 28.12 0 0 1 3.68-2.22z" fill="#fcdfc8"/><path d="m10.26 41.43c0-.39 6 3 6 3a6.26 6.26 0 0 1 -3.72-.35c-1.54-.83-2.28-1.97-2.28-2.65z" fill="#fafafa"/><path d="m24.47 48.72c.1-.2 3.49 1.66 3.25 1.78a3.87 3.87 0 0 1 -2.26-.32 1.86 1.86 0 0 1 -.99-1.46z" fill="#fafafa"/><g fill="#604f58"><path d="m11.49 26.67c-.07-.27.56-1.19 1.19-1.86s1.15-.75 1.34-.63a.73.73 0 0 1 .28.35 7.15 7.15 0 0 0 -1.38 1.47c-.48.75-.52 1.19-.64 1.26s-.71-.26-.79-.59z"/><path d="m26.53 21.94a2.44 2.44 0 0 1 1-2.37c1.16-.92 1.34-.6 1.42-.42a1.47 1.47 0 0 1 .06.57 1.65 1.65 0 0 0 -1.18 1.36c-.06 1 0 1.28-.15 1.34a2.14 2.14 0 0 1 -1.15-.48z"/><path d="m25.46 33.52a2.64 2.64 0 0 1 .86-2c.95-.89 1.28-.74 1.46-.65s.35.06.2.26-1 1-1.24 1.37-.24 1-.39 1.13-.8-.02-.89-.11z"/><path d="m37.81 27.55a3.5 3.5 0 0 1 .86-1.84c.83-1 1.1-1 1.34-.89a.41.41 0 0 1 .26.3 5.6 5.6 0 0 0 -1.07 1.36 9.14 9.14 0 0 0 -.44 1.13c-.06.15-.76.12-.95-.06z"/><path d="m37 17.22a3 3 0 0 1 .92-1.63 1.47 1.47 0 0 1 1.33-.53c.21.11.21.23.15.38s-1 .68-1.18 1.34-.21.77-.33.83-.79-.12-.89-.39z"/><path d="m50.16 21.85a2.67 2.67 0 0 1 .84-1.54c.68-.68 1-.65 1.22-.53a.42.42 0 0 1 .26.41c0 .12-.74.56-1 1a6.71 6.71 0 0 0 -.29.71c-.11.16-.94.19-1.03-.05z"/></g></svg>