<svg height="64" viewBox="0 0 64 64" width="64" xmlns="http://www.w3.org/2000/svg"><path d="m46.24 55.47a4.59 4.59 0 0 1 -4-2.24 46.34 46.34 0 0 1 -3.88-8.74c0-.23-.11-.45-.16-.66l-.86.12a3.54 3.54 0 0 1 -2.1 2.58 6.11 6.11 0 0 1 -2.24.47 7.5 7.5 0 0 1 -3.19-.73 7.37 7.37 0 0 1 -2.26-1.83c-2.53 0-8.83-.38-13.76-2.66a25.48 25.48 0 0 1 -12.31-13.21c-.77-2.17-2.4-7.46-.81-9.77.37-.54 3.86-5.31 12.12-6.87a55.38 55.38 0 0 1 10-1h1.35a19.79 19.79 0 0 1 6.88-2 45.57 45.57 0 0 1 5.48-.39 10 10 0 0 1 4.68.81 4.42 4.42 0 0 1 2.27 5.11 15.16 15.16 0 0 1 -2.54 3.74c.6.65 1.35 1.48 2.13 2.43a34.69 34.69 0 0 1 2.22 3.14 20.14 20.14 0 0 0 1.58 2.23h.74c.92 0 2.17-.07 3.5-.14s3-.17 4.28-.17h1.26c2.63.18 5.91.4 7.11 3.76 1 2.94-1.15 5.31-2.46 6.73l-.34.37c-.3.33-.76.79-1.31 1.35a45.47 45.47 0 0 0 -5.91 6.91 17.81 17.81 0 0 0 -1.91 5 9.11 9.11 0 0 1 -1.72 4 5.41 5.41 0 0 1 -3.84 1.66z" fill="#fff"/><path d="m28.47 42.45s-8.08.19-13.88-2.48a23.5 23.5 0 0 1 -11.28-12c-1.3-3.65-1.76-7-1-8s4-4.76 10.88-6.06a46.87 46.87 0 0 1 11.47-.91 16.36 16.36 0 0 1 6.65-2.09c4.3-.52 7.69-.52 9 .2a2.48 2.48 0 0 1 1.37 2.8 15.68 15.68 0 0 1 -2.93 3.84l-.59.4a48.38 48.38 0 0 1 3.46 3.78c1.82 2.21 3.39 5.47 4.49 5.93s7.5-.33 10.43-.13 4.69.45 5.41 2.47-1.17 3.78-2.41 5.15-5.28 5.08-7.43 8.54-2.15 7.36-3.39 8.67a3 3 0 0 1 -4.76-.27 46.39 46.39 0 0 1 -3.65-8.14 12.58 12.58 0 0 0 -.78-2.48 18.31 18.31 0 0 1 -2.87.46 5.06 5.06 0 0 0 -1.1.06s.32 2.09-1 2.61a5.07 5.07 0 0 1 -3.91-.26 7 7 0 0 1 -2.18-2.09z" fill="#604f58"/><path d="m4.09 21.79a19 19 0 0 1 6.59-4.37 39.19 39.19 0 0 1 8.32-1.89 4.62 4.62 0 0 1 1.3.13s5.74 3.46 5.08 9.13a15.55 15.55 0 0 1 -5.66 10.49c-2 1.63-4.44 2.41-4.76 2.22s-5.65-3.5-8.13-6.85-3.45-7.17-2.74-8.86z" fill="#ddeff2"/><path d="m15.63 19.38c1.24-.45 3.71.13 3.71 1.89s-1.43 2.8-3.38 2.67-3.78-3.32-.33-4.56z" fill="#604f58"/><path d="m16.48 20.55a1.16 1.16 0 0 1 1.43 1.18c0 .58-.78 1.23-1.89.71s-.78-1.63.46-1.89z" fill="#adceea"/><path d="m26.84 12.93a31.57 31.57 0 0 1 8.16-1.37c3.85 0 5.09.13 5.54 1.17s-3.38 4.89-3.38 4.89a23 23 0 0 0 -10.32-4.69z" fill="#ddeff2"/><path d="m21.89 15.21c-.21-.17 7.42-.39 12.57 3.32a34.41 34.41 0 0 1 8.54 9.19 5.66 5.66 0 0 0 3.91 2.54c1.24.07 7.63-.78 9.65-.71s3.52.84 3.45 1.82-2.8 1.89-6.06 6.19-4.37 5.93-5.74 9.26-1 3.91-1.43 4.1-.85.13-1.5-1.11a24.28 24.28 0 0 1 -2.47-6.71c-.53-2.87-1.05-3.71-1.31-3.84a16.57 16.57 0 0 0 -3.58.39 7.45 7.45 0 0 1 -2.28.13 11.23 11.23 0 0 0 -.26-3c-.33-.65-.59-.91-.79-.85s-.58.07-.52.46a18.81 18.81 0 0 1 .33 3.71c-.07 1.57-.07 3-.52 3.46s-1.31 1-4.43-1.7-3.78-5.28-4.24-5.34-1.17 0-1 .45a5.23 5.23 0 0 0 .91 1.83 13.35 13.35 0 0 1 .88 1.3 25.39 25.39 0 0 1 -3.91-.58 45.62 45.62 0 0 1 -4.82-1.37 16.19 16.19 0 0 0 8-7.95c2.94-6.06.85-11.47-3.38-14.99z" fill="#ddeff2"/><g fill="#604f58"><path d="m29.14 18.6a1.1 1.1 0 0 1 1.09-.22c.39.17 1 .35.95 1.35s-.61 1.52-.87 1.52-.73-.22-.65-.44.87-.56.65-1.13-.86-.52-1-.52-.26-.39-.17-.56z"/><path d="m29.92 23.33c-.21-.21.26-.56.52-.52a2.33 2.33 0 0 1 1.48 2.65 3.54 3.54 0 0 1 -1.74 2.91c-.43.13-.91.18-1 .05s-.21-.61.09-.7a1.88 1.88 0 0 0 1.52-1.56c.31-1.31.21-1.74-.87-2.83z"/><path d="m28.4 30.54a.65.65 0 0 1 .52-.73c.35 0 1.83 1 1.22 3a3 3 0 0 1 -2.82 2.47c-1.13.18-1.7 0-1.78-.34s.13-.83.39-.83a3.42 3.42 0 0 0 2.47-.56 1.89 1.89 0 0 0 .78-2.35c-.08-.13-.69-.44-.78-.66z"/><path d="m32.62 29.55c-.09-.16.56-.61.78-.57a2 2 0 0 1 .65 2.26 3.62 3.62 0 0 1 -2 2.35c-.48.08-.82-.35-.74-.57s1.18-.69 1.48-1.48a2.15 2.15 0 0 0 -.17-1.99z"/><path d="m33.62 27.07a2.13 2.13 0 0 0 1.43-1.48c.35-1.21-.17-1.61 0-1.78s.65-.43.87-.09a3.23 3.23 0 0 1 0 2.52 2.42 2.42 0 0 1 -1.57 1.65c-.52.11-1.08-.65-.73-.82z"/><path d="m37.92 26.07c.13-.13.65-.3.82-.17a2.43 2.43 0 0 1 .31 1.91c-.18 1-.74 1.39-1.18 1.43s-.82-.56-.6-.78.82-.52.91-1.26a1.53 1.53 0 0 0 -.26-1.13z"/><path d="m36.05 30.41c-.17-.42.48-.73.65-.69a2.16 2.16 0 0 1 1.09 2.61 2.62 2.62 0 0 1 -2.31 2.17c-.17 0-.6-.78-.3-.87a2.37 2.37 0 0 0 1.35-1.22c.47-.82-.31-1.56-.48-2z"/><path d="m44.65 39.36c-.06-.11.44-.86.78-.69s2.13 3.26 2 3.74-.26.56-.48.56a27.55 27.55 0 0 1 -2.3-3.61z"/><path d="m47 35.89c.39-.06 4 1.56 3.82 1.91a.8.8 0 0 1 -.52.43 17.28 17.28 0 0 1 -3.52-1.17c-.22-.26-.09-1.13.22-1.17z"/><path d="m49.08 32.63a19 19 0 0 1 3 .35c.27.13.4.52.18.65a12.29 12.29 0 0 1 -3.09 0c-.17-.13-.3-.91-.09-1z"/></g></svg>