<svg height="64" viewBox="0 0 64 64" width="64" xmlns="http://www.w3.org/2000/svg"><path d="m17.55 53.41c-7.69 0-11-2.6-12.44-5.11a7.55 7.55 0 0 1 -4.42-3.4c-1.73-3.13.14-9 1.82-12.11a23 23 0 0 1 7.61-8 35.38 35.38 0 0 1 4.13-2.32 13.83 13.83 0 0 0 2-1.12 35.77 35.77 0 0 1 8.12-6.25 8.74 8.74 0 0 1 3.63-.95 4.92 4.92 0 0 1 3 .91 6.64 6.64 0 0 1 2.26 4.64v.59a28.85 28.85 0 0 1 3.4 1.33c.65.31 1.25.61 1.76.87a22.94 22.94 0 0 1 5-6.77c3.82-3.35 7.87-5 9.19-5.1h.58a3.38 3.38 0 0 1 2.64 1 2.38 2.38 0 0 1 .57 1.9 3.77 3.77 0 0 1 -.53 1.31c-.74 1.32-2.47 4.41-1.82 10.27.72 6.46 2.52 10.72 5.51 13a30.53 30.53 0 0 0 2.69 1.85 2.75 2.75 0 0 1 1.75 2.58 4.16 4.16 0 0 1 -1.7 2.72 1.8 1.8 0 0 1 -.58.31 20.76 20.76 0 0 1 -6.05.89 17.27 17.27 0 0 1 -4.52-.58 59.65 59.65 0 0 1 -7.15-2.4 20.24 20.24 0 0 1 -3.5 2.74l-.5.29s0 0 0 0c1.36 1.36 1 3.65-.24 4.94a5.76 5.76 0 0 1 -4.39 1.58 11.43 11.43 0 0 1 -2.51-.3c-2-.44-4-.95-5.12-1.25-1.36.82-4.14 1.81-9.64 1.89z" fill="#fff"/><path d="m6.46 46.64a6.13 6.13 0 0 1 -4.07-2.64c-1.24-2.23.24-7.26 1.83-10.26a21.24 21.24 0 0 1 7-7.34c2.83-1.92 5.71-2.83 6.5-3.79a34.63 34.63 0 0 1 7.47-5.75c2.39-1.12 3.87-.76 4.63-.2a4.8 4.8 0 0 1 1.47 3.15 9.51 9.51 0 0 1 -.12 1.92 32.16 32.16 0 0 1 4.63 1.68c2 .95 3.52 1.79 3.52 1.79a22.61 22.61 0 0 1 5.39-8 20.69 20.69 0 0 1 8.1-4.63c.84-.08 1.75.08 1.67.68s-3.23 4.15-2.35 12.05 3.23 12 6.27 14.33 3.71 2.2 3.67 2.8-1 1.31-1 1.31a18.45 18.45 0 0 1 -9.46.28 54.24 54.24 0 0 1 -8.06-2.83 24.14 24.14 0 0 1 -4 3.35 20.84 20.84 0 0 1 -3.55 1.54 28.29 28.29 0 0 1 2.6 1.83 1.8 1.8 0 0 1 -.28 2.24c-.6.64-2.2 1.36-5.07.72s-6-1.48-6-1.48-1.51 2-9.26 2.08-10.57-2.47-11.53-4.83z" fill="#604f58"/><path d="m57.31 41.69a26.32 26.32 0 0 1 -6.91-10.69c-1.91-6.15.84-14.73.76-15.21s-3.43 1.16-6.74 4.71a12.55 12.55 0 0 0 -3.52 7.15.89.89 0 0 1 -1.07.52c-.8-.2-4.51-3.92-12.06-4.55a20.22 20.22 0 0 0 -13.25 3.71c2.8 1.47 6.59 3.51 9 8.74a18 18 0 0 1 1 10.7 19.85 19.85 0 0 0 5.29 2.23 18.67 18.67 0 0 0 6.58.68c.4-.08 1.36-.64 1.4-1s-.56-.44-2.47-1.71-3.88-2.72-4.12-3 0-.76.32-.8 1.56.88 1.84 1 1.76 0 4.31-1.22c-.7-.47-1.77-1.22-1.72-1.49s.76-.76 1-.64a16.86 16.86 0 0 1 2 1.5c.34-.19.66-.39 1-.59-.7-.56-2-1.65-2.06-1.95s.28-1 .56-1a16.06 16.06 0 0 1 2.47 2.22l.75-.6c-.67-.64-2.34-2.27-2.24-2.65s.72-.84 1-.68a14.86 14.86 0 0 1 2.11 2.58c.56-.52.92-.86 1-.83.32.08 3.51 1.44 6.9 2.44s7.27 1.23 7.39 1-.04-.09-.52-.57z" fill="#f8b586"/><path d="m4.18 41.81a15.31 15.31 0 0 1 3.44-9.22c2.91-3.2 5.54-4.11 6.1-4.15a13.6 13.6 0 0 1 8.62 7.56 19 19 0 0 1 .76 11.73c-.36.8-.52 1.24-.76 1.32a58.9 58.9 0 0 1 -8.66-.05c-2.23-.36-3.51-.88-3.71-1.24s-.56-.64-.2-.6a8.39 8.39 0 0 0 3.39-1c.84-.6 1.12-1 1-1.28s-.76-.8-1-.72a9 9 0 0 1 -4.16.72c-2.38-.12-4.54-1.56-4.82-3.07z" fill="#f8b586"/><path d="m14.36 38.25c.91-.33 2.6-.55 3 1.16s-1.56 2.48-2.8 1.72-1.08-2.56-.2-2.88z" fill="#604f58"/><path d="m19.23 22.49a30.32 30.32 0 0 1 5.91-4.71c2.43-1.28 4.27-1 4.75.4a9.83 9.83 0 0 1 .24 3.51 15.11 15.11 0 0 0 -4.91-.16c-3.08.32-5.99.96-5.99.96z" fill="#f8b586"/><path d="m23.38 28.24c.9-.5 3.23-.44 3.27.59s-.65 1.92-2.35 1.72-1.72-1.87-.92-2.31z" fill="#604f58"/><path d="m24.23 28.86c.34-.19 1.25-.17 1.27.23s-.25.75-.92.67-.66-.76-.35-.9z" fill="#fcdfc8"/><path d="m26.18 34.74a1.76 1.76 0 0 1 2.59 1 1.46 1.46 0 0 1 -2 1.64c-1.11-.38-1.63-1.96-.59-2.64z" fill="#604f58"/><path d="m26.77 35.43a.76.76 0 0 1 1.11.41.62.62 0 0 1 -.84.7c-.49-.14-.72-.82-.27-1.11z" fill="#fcdfc8"/><g fill="#604f58"><path d="m28 41.13a1.18 1.18 0 0 1 1.24 1.35 1.4 1.4 0 0 1 -2 .92c-.7-.52.05-2.15.76-2.27z"/><path d="m31.8 30.71c.44-.18 1.48.16 1.56.56s-.2 2.35-1.32 2.11-.91-2.38-.24-2.67z"/><path d="m33.28 36.66c.46-.15 1.36.2 1.2.92s-1.24 2.11-2 1.23.32-1.99.8-2.15z"/><path d="m38 31.55c.89-.16 1.56.76 1.52 1.83a1.42 1.42 0 0 1 -2.2 1.08 1.65 1.65 0 0 1 .68-2.91z"/></g><path d="m38 32.48c.35-.06.62.3.61.74a.58.58 0 0 1 -.89.43.66.66 0 0 1 .28-1.17z" fill="#fcdfc8"/><path d="m45 34.82a26 26 0 0 1 5.51 1.92c0 .2-.52.56-.52.56a49.14 49.14 0 0 1 -4.87-1.36c-.34-.28-.42-1.04-.12-1.12z" fill="#604f58"/><path d="m44.58 31a26.32 26.32 0 0 1 4.31-1.32c.12.08.48.12.2.48a15 15 0 0 1 -4 1.8c-.43.04-.75-.69-.51-.96z" fill="#604f58"/><path d="m44.5 26.48c.07-.22 3.15-2 3.39-1.8s.32.08.16.4-2.6 2.24-3.08 2.2a.55.55 0 0 1 -.47-.8z" fill="#604f58"/></svg>