<svg height="64" viewBox="0 0 64 64" width="64" xmlns="http://www.w3.org/2000/svg"><path d="m63.93 31.14c0-.28 0-.52 0-.69a4 4 0 0 0 -2.15-3.69 32.35 32.35 0 0 0 -4.1-1.6c1.44-.74 1.62-1.07 1.82-1.42a2.52 2.52 0 0 0 .06-2.22 2.53 2.53 0 0 0 .27-3.39 7.88 7.88 0 0 0 1.9-1.13 5.65 5.65 0 0 0 1.51-5.62c-.5-2.58-2.52-4.53-4.71-4.53a3.54 3.54 0 0 0 -.46 0c-1.17.14-6.28 2.61-15.2 7.35a5.52 5.52 0 0 0 -2.06.55c-1.14.53-18.45 10-22.1 12a9.55 9.55 0 0 0 -3.15 1.25c-1.25.64-4.49 2.47-7.62 4.25-2.54 1.44-5.69 3.23-6.24 3.49a2.8 2.8 0 0 0 -1.53 2c-.14.48-.35 5.7.11 6.88.71 1.82 10.46 8.12 10.55 8.18a57.86 57.86 0 0 0 10.31 5l1.08.41c4.21 1.56 6.78 2.53 8.78 2.53a5.64 5.64 0 0 0 .73 0c2-.25 3.5-1.34 8.54-4.92l3.19-2.27c6.65-4.69 19.09-14.78 19.91-16 .63-.92.73-2.29.56-6.41zm-27.73-16.84a1.89 1.89 0 0 0 .47.06 12.08 12.08 0 0 0 3.15-1.47 2.67 2.67 0 0 0 2.18 1.36 3.07 3.07 0 0 0 .52-.06c.07 0 9.95-4.73 10.66-5.52a2.34 2.34 0 0 0 .46-2.26 2.5 2.5 0 0 0 -1.64-1.72 2.42 2.42 0 0 0 -.47-.05c-.32 0-.53 0-2.16.79a2.92 2.92 0 0 0 -1.39-1.89 2.06 2.06 0 0 0 -1-.28c-.56 0-1 0-6.62 3.39-6.16 3.68-6.16 3.86-6.16 5a3 3 0 0 0 2 2.65z" fill="#fff"/><path d="m2.41 37.55c.59-.21 11.59-6.55 14.03-7.83s2.73-.94 2.73-.94 21.28-11.66 22.46-12.21 1.66-.34 1.66-.34 13.58-7.23 15.01-7.39 2.72 1.32 3 2.95.17 2.78-1 3.84-12.2 4.64-12.2 4.64a3.89 3.89 0 0 1 1.35.29 12.06 12.06 0 0 0 1.35.44s4.12-3 5.18-3.09 2.52 1.29 2.41 1.86-1.39 1.23-1.39 1.23 1.09 1.37.84 1.83-4.67 2.29-4.67 2.29l.05.63s6.74 2.18 7.57 2.7a2.12 2.12 0 0 1 1.21 2.05c0 1.14.29 5.21-.2 5.93s-12.21 10.4-19.43 15.5-9.05 6.62-10.85 6.84-4.62-.91-9.66-2.83a56.05 56.05 0 0 1 -10-4.81c-2.43-1.47-9.48-6.57-9.74-7.22a34.81 34.81 0 0 1 -.12-5.65c.09-.2.23-.66.41-.71z" fill="#604f58"/><path d="m56.5 29.55c-.2-.17-.35-.54-.15-.6s1.37.09 2.32.18c-1.96-.79-5.67-2.13-5.67-2.13s-.23.63-.31.81-.12.4-2.27 1.54-13.92 5.76-14.58 5.93a10.33 10.33 0 0 1 -4.21.09 2 2 0 0 1 -1.55-1.66l-2.4.48a5.56 5.56 0 0 1 -1.69.12 6.4 6.4 0 0 1 -.15 1.69 3.4 3.4 0 0 1 -1.4 2.29 3.11 3.11 0 0 1 -1.52.6 2.42 2.42 0 0 1 .4.75 15.12 15.12 0 0 1 0 2.52 5.07 5.07 0 0 1 -1.72.88 9.1 9.1 0 0 1 -2.46.09 3.64 3.64 0 0 1 -2.35-.92 2.17 2.17 0 0 1 -.23-1.34 2.39 2.39 0 0 1 .57-2 5.84 5.84 0 0 1 2.47-1.27 3.14 3.14 0 0 1 -.52-1.11 7.94 7.94 0 0 1 -.08-2.41 7.58 7.58 0 0 1 -1.94-.4 9.87 9.87 0 0 1 -2.64-1.35c-.26-.17-10 5.49-10.29 5.73a2 2 0 0 0 0 1c0 .32.26.15 1.83 1.64a67.37 67.37 0 0 0 9.4 7.07 49.89 49.89 0 0 0 10.23 4.44c1.92.55 4.78.72 6.33 0s6.33-4.35 11.89-8.22c3-2.12 7.57-5.67 11.12-8.52a9 9 0 0 1 -2.24-1.37c0-.28.2-.63.4-.57a18.32 18.32 0 0 1 2.37 1.47l1-.83c-.68-.25-2.31-.86-2.35-1.13s0-.69.31-.63a12 12 0 0 1 2.76 1.16l.93-.76a35 35 0 0 1 -3.52-1.26c-.08-.18-.14-.63.2-.61a22.86 22.86 0 0 1 3.88 1.4l.66-.55c-1.07-.38-4.45-1.44-4.48-1.53s.15-.55.37-.55 3.92 1.19 4.78 1.55l.16-.16a.91.91 0 0 0 .06-.91 31.46 31.46 0 0 1 -3.72-.64z" fill="#fcdfc8"/><path d="m60.59 32c0-.09-1.2 1.06-3.46 2.92s-5.22 4.27-9.89 7.76-14.52 10.05-14.64 10.16a5.67 5.67 0 0 1 -2.09.75 23.17 23.17 0 0 1 -7.22-1.26c-3.44-1.06-3.92-1.33-9.29-4.33s-10-8.18-10.1-8.19-.43 2.92-.23 3.19 1 .86 5.24 3.81a68.12 68.12 0 0 0 12.43 7.3c3.93 1.61 9 3.3 9.57 3.24a4.17 4.17 0 0 0 1.21-.35 17.78 17.78 0 0 1 .08-2.13c.09-.14.52-.46.6-.26a12.2 12.2 0 0 1 .2 1.95l.68-.39a18 18 0 0 1 0-2.56c.11-.26.52-.43.57-.26a21.89 21.89 0 0 1 .17 2.35l.66-.43c0-.69 0-2.38.06-2.49s.37-.52.52-.23a10.23 10.23 0 0 1 .17 2.22l.77-.52a13.67 13.67 0 0 1 -.31-2.67c.14-.18.6-.43.71-.23a13.5 13.5 0 0 1 .25 2.45l.49-.35a16.92 16.92 0 0 1 0-2.48c.11-.17.66-.11.68 0s.12 1.31.12 1.9l.67-.48a16.2 16.2 0 0 1 0-2.42.4.4 0 0 1 .6-.06 8.34 8.34 0 0 1 .13 2l1.05-.76a13.36 13.36 0 0 1 .01-2.15c.08-.2.57-.51.66-.34a11.75 11.75 0 0 1 .14 1.85c2.2-1.62 4.66-3.51 6.85-5.29 4.58-3.78 11.77-9.59 11.8-9.74s.17-3.41.14-3.48z" fill="#f6c687"/><path d="m17.76 39.81c-.24-.18-.11-.35.09-.52a7.24 7.24 0 0 1 2-1 1.28 1.28 0 0 1 .78.06 7.46 7.46 0 0 0 1.2.43c.46.08.37.11.4.2a1.1 1.1 0 0 1 -.86 1c-.8.26-2.66.52-3.61-.17z" fill="#f8b586"/><path d="m17.48 40.67c.33 0 1.49.4 2.55.49a7.61 7.61 0 0 0 2.46-.46c.23 0 .29.11.26.31s-.09.89-.09.89a4.26 4.26 0 0 1 -2.69.52c-1.78-.15-2.24-.43-2.38-.58s-.29-1.17-.11-1.17z" fill="#f0a26c"/><path d="m11.2 35.65a5.77 5.77 0 0 1 2.18-1.08 2.43 2.43 0 0 1 2.35 1.74 6.79 6.79 0 0 1 .2 3.56 3.27 3.27 0 0 1 -.86.8 5.81 5.81 0 0 1 -1.32.23 4.26 4.26 0 0 1 -1.4-.2 2.38 2.38 0 0 1 -1.35-1.92c-.2-1.35-.31-2.64.2-3.13z" fill="#604f58"/><path d="m11.83 36.23c.43-.15 1.41.43 1.69 1.26a4.6 4.6 0 0 1 0 2.61 1.56 1.56 0 0 1 -1.75-.92c-.6-1.09-.28-2.84.06-2.95z" fill="#f8b586"/><path d="m12.81 35.54c0-.23.86-.43 1.11-.34a2.7 2.7 0 0 1 1.35 2.23c.06 1.35.14 2.12-.09 2.29s-.6.55-.71.29.28-1.92-.26-3-1.4-1.33-1.4-1.47z" fill="#f0a26c"/><path d="m21.54 32a2.36 2.36 0 0 1 2.1 2.17c.05 1.41 0 3.56-1.67 3.5s-2.15-1.15-2.17-2.41.2-3.26 1.74-3.26z" fill="#f8b586"/><path d="m23.92 32.56a1.7 1.7 0 0 1 1.35 1.44c.08 1.06.23 1.89-.4 2.7a5.17 5.17 0 0 1 -1.18 1.14s-.2-.08-.08-.23a4.45 4.45 0 0 0 .83-2.69 4.93 4.93 0 0 0 -.52-2.36z" fill="#f0a26c"/><path d="m21.74 33.42a1.54 1.54 0 0 0 -1.14 1.4c-.09 1 .23 1.67.77 1.84a1.07 1.07 0 0 0 1.09-.26c.2-.17.4-.4.29-.63s-.2-.49-.38-.43-.4.46-.63.49-.48 0-.48-.72 0-.74.31-.83.52.11.58-.09-.09-.83-.41-.77z" fill="#604f58"/><path d="m24.12 41.13a2.25 2.25 0 0 1 1.88-1.32c1.29-.14 2.93-.35 4.36.83a3.87 3.87 0 0 1 1.09 3.72 2.33 2.33 0 0 1 -1.29.86 17.6 17.6 0 0 1 -2.92 0 6.53 6.53 0 0 1 -3.18-1.49 16.42 16.42 0 0 1 .06-2.6z" fill="#604f58"/><path d="m25 41.38c0-.31.43-1.08 2.35-.91s3.38 1.34 3.38 2-.49.66-.95.75a19.53 19.53 0 0 1 -3.06 0c-.42-.06-1.72-.6-1.72-1.84z" fill="#f8b586"/><path d="m24.87 42.7c.31-.1.51.83 2.29 1.06s3.32 0 3.44.12a.58.58 0 0 1 0 .46 6.32 6.32 0 0 1 -2.53.22 6.61 6.61 0 0 1 -2.8-.68c-.35-.23-.52-.23-.55-.43s-.02-.69.15-.75z" fill="#f0a26c"/><path d="m28.36 41.13a2.32 2.32 0 0 0 -1.23-.32c-.57.09-1.52.8-.89 1.35a3.73 3.73 0 0 0 2.24.74c.51 0 .63 0 .66-.23s-.09-.25-.32-.31-1.46 0-1.6-.46.34-.54.68-.46.78-.23.46-.31z" fill="#604f58"/><path d="m20.43 43.5a5.23 5.23 0 0 0 -2.21 1 1.34 1.34 0 0 0 -.4 1.26c.09.4 0 1.63.14 1.83a6 6 0 0 0 3.53 2.23 9.69 9.69 0 0 0 4.75.35c.58-.14.52-.63.6-1.2a15.22 15.22 0 0 0 -.05-2.58 7.52 7.52 0 0 0 -3.1-2.21 7.89 7.89 0 0 0 -3.26-.68z" fill="#604f58"/><path d="m20.4 44.16c-.78 0-1.89.92-1.81 1.26s.52 1.38 3.24 1.89 3.81.32 4.15.06.58-.69-1-1.8a8.17 8.17 0 0 0 -4.58-1.41z" fill="#f8b586"/><path d="m21.54 45.34c-1.05-.1-1.2.51-.77.89a2.79 2.79 0 0 0 2.21.6c.71-.23 1.31-1.23-1.44-1.49z" fill="#604f58"/><path d="m18.65 46.46a9.74 9.74 0 0 0 3.15 1.54 36.15 36.15 0 0 0 4 .43 3.33 3.33 0 0 1 0 1.35 8.66 8.66 0 0 1 -4-.43c-2.32-.77-3.12-1.66-3.15-1.92s-.17-.95 0-.97z" fill="#f0a26c"/><path d="m32.83 38.26c0-.13.09-.69.46-.69s5.84 5.48 5.76 5.62-.09.31-.29.31a54 54 0 0 1 -5.93-5.24z" fill="#604f58"/><path d="m37 38.12c-.15-.14.18-.69.55-.75a50.94 50.94 0 0 1 6.33 4c0 .18.09.2-.09.29a43.88 43.88 0 0 1 -6.79-3.54z" fill="#604f58"/><path d="m41.4 36.89c-.29-.24.08-.69.46-.69a36.68 36.68 0 0 1 5.5 2.8c0 .2-.06.43-.23.43s-5.39-2.26-5.73-2.54z" fill="#604f58"/><path d="m30.83 33.33.86-.17a.71.71 0 0 0 .57.52c.51.14 1.83.34 2.29-.4a1.56 1.56 0 0 0 .29-1.28l1.83-.37a2.3 2.3 0 0 1 -1.23 2.49 5.22 5.22 0 0 1 -3.52.58c-.78-.22-1.09-1.37-1.09-1.37z" fill="#f8b586"/><path d="m32.46 32.82 1.54-.37s.17.4-.12.57a2.22 2.22 0 0 1 -1.12.26c-.19-.06-.5-.35-.3-.46z" fill="#f6c687"/><path d="m37.42 31.39s4.12-1.72 6.44-2.87a22.52 22.52 0 0 0 4.27-2.69c.23-.23.34-.58.26-.69s-2.15-4.24-2.15-4.24a4.23 4.23 0 0 1 1.17-.32c.26.06.92.46 1.52.66a3.55 3.55 0 0 1 1.15.63 3.8 3.8 0 0 1 1.86 2.53c.37 1.77.52 2.6-.51 3.32a93 93 0 0 1 -8.94 4.12c-3.15 1.32-5.62 2.16-5.62 2.16a3.2 3.2 0 0 0 .72-1.66 2.23 2.23 0 0 0 -.17-.95z" fill="#f0a26c"/><g fill="#604f58"><path d="m41.31 30.35c-.16.14.17.78.09 1s-.15.43.06.4.51-.09.54-.37a2.75 2.75 0 0 0 0-.86c-.09-.28-.52-.31-.69-.17z"/><path d="m45.09 28.64a4.2 4.2 0 0 1 .18.83c0 .11.17.17.34.11a.35.35 0 0 0 .29-.4 1.26 1.26 0 0 0 -.09-.63c-.11-.29-.11-.37-.31-.37s-.5.28-.41.46z"/><path d="m48.25 26.6a3.84 3.84 0 0 0 .14 1.09 2.82 2.82 0 0 1 0 .54.47.47 0 0 0 .43-.14c.2-.2.31.06.2-.43s-.12-1.09-.26-1.2-.49.06-.51.14z"/><path d="m50.37 25a.69.69 0 0 1 .43-.2c.11 0 .25.23.4.83s.17.8 0 .91-.6.32-.6.18a3.72 3.72 0 0 0 -.08-1.18z"/><path d="m47.82 22.22c0-.21.45-.52.74-.43a1.94 1.94 0 0 1 .95.89 1.38 1.38 0 0 1 .2 1c-.09.11-.32.34-.46.29s-.12-.84-.6-1.29-.81-.26-.83-.46z"/></g><path d="m51.2 21.42s5-3.13 5.24-2.87 1.15 1 .94 1.26a34.61 34.61 0 0 1 -5.24 2.75 5.51 5.51 0 0 1 -.94-1.14z" fill="#c5dda3"/><path d="m52.49 23.31a33.7 33.7 0 0 1 4.06-1.95c.12.17.61 1 .46 1.14s-4.15 1.84-4.15 1.84z" fill="#afc68c"/><path d="m15.56 31.7c.25-.29 27.33-14.75 27.67-14.52a65.85 65.85 0 0 1 4.16 8.19 42.64 42.64 0 0 1 -8.83 4.63c-4.1 1.4-8.16 2.64-9.88 3.09a8 8 0 0 1 -2.67.35 6.43 6.43 0 0 0 -3.01-2.44c-1.72-.49-3.21 1-3.55 1.32a2.23 2.23 0 0 0 -.51.83s-1.27-.31-2.07-.57a3.24 3.24 0 0 1 -1.31-.88z" fill="#f9f2ed"/><path d="m44.06 16.77s13.58-6.93 14.41-7 2 .77 2.09 2.75-.83 3-4.55 4.18l-10.23 3.37s-1.72-3.15-1.72-3.3z" fill="#84767e"/><path d="m55.75 12.13a1.71 1.71 0 0 1 2.55.43c.57 1.21-.26 1.78-1.4 1.86s-2.32-1.17-1.15-2.29z" fill="#604f58"/><path d="m56.46 12.73c.16-.14.73-.28.94.16s-.09.66-.52.69-.88-.43-.42-.85z" fill="#f9f2ed"/><path d="m36.07 11.7c0-.37 10.57-6.67 10.86-6.5s.69.63.4.83-10.43 6.45-10.66 6.39a1.2 1.2 0 0 1 -.6-.72z" fill="#604f58"/><path d="m41.51 11.67s9.74-5.15 10-5.1.52.55.29.81-9.46 4.87-9.68 4.92-.84-.42-.61-.63z" fill="#604f58"/></svg>