<svg height="64" viewBox="0 0 64 64" width="64" xmlns="http://www.w3.org/2000/svg"><path d="m39 64c-6.19 0-14.22-.11-16.74-.2l-2.15-.06c-3.67-.1-6.84-.19-8.63-1-2.64-1.13-3.42-3.57-4-5.35-.48-1.39-1.43-5.71-1.93-8.01a4.67 4.67 0 0 1 -2.48-1.08c-1.35-1.3-1.64-5.08-1.64-5.93 0-1.76 1-4.51 2.76-5.11.34-.11.7-.23 5.34-.25a12 12 0 0 1 -1-2.46c-.54-2-.89-3.43-1.12-4.4a3.65 3.65 0 0 1 -2.41-1.42c-.73-1.09-1.64-5.3-1.16-6.8a4.72 4.72 0 0 1 4.71-3.15c1.08 0 3.51 0 5.42-.05-.35-1.17-.76-2.53-1-3.61s-.48-2-.62-2.69a2.69 2.69 0 0 1 -1.91-1.3c-.45-.85-1.09-7-.72-8s.73-2.05 10.71-2.72c3.57-.24 10.01-.41 15.62-.41 2.76 0 5.12 0 6.82.12a33.79 33.79 0 0 1 8.48 1.2l.16.05c2 .53 2.34 3.26 2.1 4.86-.19 1.19-2 5.21-3.07 5.91a2.62 2.62 0 0 1 -1.12.41c-.2 1.26-.49 3-.79 4.39-.1.46-.2.89-.29 1.27 2.36.14 5.44.35 6.22.51a5.18 5.18 0 0 1 4.24 5.16c0 1.38-.24 4.74-2.39 6.15a5.15 5.15 0 0 1 -2.23.73c-.18 1-.42 2.26-.67 3.35-.14.6-.3 1.2-.46 1.76h.18c5.48 0 5.93.06 6.16.09 1.51.22 3.29 1.19 3.18 4.61 0 1.43-.83 6.3-2 7.32a3.39 3.39 0 0 1 -2.21.71c-.1.43-.2.92-.3 1.38-.46 2.13-1 4.77-1.57 6.61a14.45 14.45 0 0 1 -3.26 5.89c-.8.88-1.85 1-4.65 1.17-.8.07-1.63.13-2.34.21-.24.03-1.17.14-7.24.14z" fill="#fff"/><path d="m9 28.33s-1.9.08-2.4-.68a12.15 12.15 0 0 1 -.94-5.13c.25-.79 1-1.76 2.91-1.8s8-.07 8-.07-1.19-3.73-1.8-6a34.92 34.92 0 0 1 -.83-4s-1.61 0-1.86-.43a35.23 35.23 0 0 1 -.61-6.39c.14-.4 3.7-1.12 9-1.48s16.73-.53 22.23-.28a31.21 31.21 0 0 1 8.3 1.17c.53.14.86 1.54.68 2.69a16 16 0 0 1 -2.23 4.6 5.33 5.33 0 0 1 -1.72.14s-.5 3.56-1 5.85-.86 3.48-.86 3.48 7.25.39 8.3.61a3.28 3.28 0 0 1 2.69 3.26c0 2.12-.58 3.92-1.51 4.53a5.62 5.62 0 0 1 -2.8.46s-.47 2.77-.93 4.81a36.29 36.29 0 0 1 -1.26 4.13s8 0 8.76.07 1.58.4 1.51 2.62a18.38 18.38 0 0 1 -1.33 5.93 6.65 6.65 0 0 1 -2.44.25c-.15-.07-1.29 6.14-2.23 9.37a12 12 0 0 1 -2.91 5.2c-.32.36-3.59.43-5.7.68s-19.68.08-23.7-.07-8.32-.09-10.08-.85-2.34-2.37-2.91-4.16-2.19-9.26-2.19-9.26-2.08 0-2.69-.65-1.08-3.23-1.08-4.56.79-3 1.43-3.27 9.2-.1 9.2-.1-2.52-1.12-3.56-5-1.44-5.67-1.44-5.67z" fill="#604f58"/><path d="m7.32 26.75c-.11 0-.58-3.76-.25-4s3.08-.89 10-1 10.41-.4 19-.54a128.18 128.18 0 0 1 17.63.72 2.45 2.45 0 0 1 2 3.3c-.61 2.08-1.25 2.08-1.86 2.26a1.83 1.83 0 0 1 -1 .07s.57-3.05.1-3.37-3.37-.79-10-.75-23.73 0-27.1.25-7 .68-7.22 1.07.22 2.09.07 2.16a5.56 5.56 0 0 1 -1.37-.17z" fill="#83a7d8"/><path d="m11.3 27.83a14 14 0 0 1 -.14-2.44c.14 0 .86-.57 8.79-.83s20.9-.25 25.06-.1 6.61.32 6.57.54a11.18 11.18 0 0 1 -.58 1.9 12.36 12.36 0 0 0 -3.45-.43c-1.54.14-4.81 1.22-6.35 1.51a4 4 0 0 1 -3.27-.44c-.93-.57-1.4-1.29-3.08-1.22a21.7 21.7 0 0 0 -5.39.94 10.62 10.62 0 0 1 -4.34.64c-1.73-.07-5.28-1.76-6.68-2a6.14 6.14 0 0 0 -3.7.29c-1.32.56-3.44 1.64-3.44 1.64z" fill="#ddeff2"/><path d="m11.73 29s3.7-2.08 5.64-2 5.13 1.69 7.25 2 5.17-.68 6.79-1 2.94-.72 4.52-.26 2.26 1.33 3.77 1.51 5.53-1.25 7.3-1.45a9.39 9.39 0 0 1 3.59.46s-.65 3-1.47 5.89-1.24 3.77-1.42 3.85-10.44.61-18.13.79-11-.07-12.52-.5-3-1.69-4.17-4.27a13.09 13.09 0 0 1 -1.15-5.02z" fill="#ef7d7b"/><path d="m13.21 9.52a48.7 48.7 0 0 1 -.47-4.95c.14-.22 3.55-1 10.12-1.22s19.71-.18 23.84.11 3.84 1 3.88 1.47-1.12 4.23-1.58 4.31a3.54 3.54 0 0 1 -1-.08s.18-3.12-.21-3.77a1.8 1.8 0 0 0 -1.47-.93c-.73-.11-10.79.36-19.32.54s-12.54 1-12.93 1.18-.43 1.15-.29 1.44a5.2 5.2 0 0 1 .21 2 3.45 3.45 0 0 1 -.78-.1z" fill="#83a7d8"/><path d="m18.52 20.15s-1.44-5-2.23-8.83-1-4.31-.72-4.45 7.22-.65 15.66-.87 15.36-.5 15.43-.11-.54 6.14-.79 6.25a1.32 1.32 0 0 1 -.68 0s-.57-2.26-1.79-2.41a2.62 2.62 0 0 0 -2.09.87s-.5-1.3-1.65-1.19a3.21 3.21 0 0 0 -2 1.26 2.92 2.92 0 0 0 -2.34-1.19 7 7 0 0 0 -2.9 1.4s-.29-1.86-1.22-2-5.32.72-8.3 1.33-3.91 1.14-4 1.72a30.44 30.44 0 0 0 .86 6c.44 1.44.47 1.58 1.05 1.69s2.08.21 2.15.43-4.44.1-4.44.1z" fill="#ddeff2"/><path d="m29.54 19.25a4.71 4.71 0 0 0 1.94-.9 7.58 7.58 0 0 0 .82-2.47 5 5 0 0 0 1.3 2.58c.93.68 1.79 1 1.83 1.11s-.22.26-.36.26h-5.6z" fill="#ddeff2"/><path d="m41.21 19.57s.57-.07 1.72-1.4 1.47-2 1.61-1.9a.22.22 0 0 1 .15.25c0 .11-1.19 3.16-1.19 3.16a10.63 10.63 0 0 1 -2.29-.11z" fill="#ddeff2"/><path d="m21.43 18.57s-1.08-6.43-.79-6.61 5.67-1.32 7.53-1.68 2.88-.36 2.91 0-.54 8.07-.75 8.18-8.51.54-8.9.11z" fill="#f6c687"/><path d="m33.06 11.75c.41-.55 2-1.54 3.19-.93s1.47 1.9 1.44 3.3-.18 2.37 0 2.48a2.46 2.46 0 0 0 .75.1 15 15 0 0 0 .18-2.8c0-2.22-.07-2.83.14-3s1.55-.76 1.84.14a13.93 13.93 0 0 1 -.33 4.56c-.21.83-.75 1.62-.57 1.8s.5.28.64.17a3.57 3.57 0 0 0 1.3-2.69 26.59 26.59 0 0 1 .36-3.67c.11-.14 2-.83 2 .5a10 10 0 0 1 -1.44 5.42c-1.28 1.8-2.22 1.87-2.97 1.87s-3.77.07-4.92-.9a5 5 0 0 1 -1.72-3 14 14 0 0 1 .11-3.35z" fill="#fcdfc8"/><path d="m6.74 46.39a3.33 3.33 0 0 1 -1.47-.14c-.39-.25-1-2.73-.79-3.84s0-2 1.15-2.16 16-.07 28.76-.46 23.4-.61 24.23-.54.89.54.86 1.83a16.91 16.91 0 0 1 -1.08 4.34 5.42 5.42 0 0 1 -1.29.07 23 23 0 0 0 .14-3.66c-.18-.36-1-.68-1-.68s-14.15.57-22.19.83-18.31.14-21.39.25-6 .07-6.21.39a19.15 19.15 0 0 0 .28 3.77z" fill="#83a7d8"/><path d="m11.16 53.71s-1.11-3.59-1.62-6.31-.93-3.77-.54-3.92 8.62-.25 20.47-.25 26-.86 26-.54-2.05 8.48-2.05 8.48-1.15-1.62-1.33-1.94-.61-1.94-1.36-2.23-2.37.83-2.37.83-.11-1.62-2.37-1.76-5.22 1.93-5.22 1.93a6.29 6.29 0 0 0 -3.41-1.3 4.73 4.73 0 0 0 -2.94 1.3 6.37 6.37 0 0 0 -4.92-2 14.75 14.75 0 0 0 -5.42 1.19s-.93-1.55-5.49-1-6.82 4.45-6.71 5.2 1.18 1.26 1.18 1.26-1.54 1.24-1.9 1.06z" fill="#ddeff2"/><g fill="#fcdfc8"><path d="m12.77 51.13a6 6 0 0 1 4.78-3.84c3.41-.54 6.39.61 6.1 1s-2.69.43-4.88 1.44a6.9 6.9 0 0 0 -2.77 2.27c-.21 0-3.12 0-3.23-.87z"/><path d="m24.26 48.94s1.47-2 5.28-1.72 4.46 1.61 4.46 2.19-.61 1.83-3 1.83-3.15-1.26-4-1.51a5.47 5.47 0 0 0 -1.76-.29c-.4.04-1.12-.39-.98-.5z"/><path d="m35.25 48.44a4.68 4.68 0 0 1 2.87-.22c1.72.36 2.51.72 2.76 1.19s-.89 1.4-2.15 1.68-2.37.29-3.2.51-.71.32-1.25.32a1.15 1.15 0 0 1 -.79-.25s1.9-.76 1.86-1.8a11.33 11.33 0 0 0 -.1-1.43z"/><path d="m44 47.47a4.8 4.8 0 0 1 3.34.75c.82.79 1.25 1.4 1 1.76s-2.51.79-4.3.79-2.12-1.15-1.66-1.61 1.23-1.66 1.62-1.69z"/><path d="m49.32 48.37s1.11-.51 1.43-.22.29 1.72.79 2.12a12.56 12.56 0 0 1 1.55 1.43c.07.15.11.58-.07.58s-.94-1-2-1-3.41.11-3.41.11 1.8-.61 1.87-1.61a2.48 2.48 0 0 0 -.16-1.41z"/></g><path d="m45.37 51.45s1.51-.11 1.65.07.14.61.58.65a32.6 32.6 0 0 1 4.16.22 1 1 0 0 1 .5 1.25c-.25.4-2.4 1.19-3.48 1.55a10.73 10.73 0 0 1 -2.69.35s1.4-1 .75-2.22a6.75 6.75 0 0 0 -1.47-1.87z" fill="#f6c687"/><path d="m37.51 53.64c.08-.31.93-1.51 4.49-1.43s4.2 1.5 4.12 2-1.12 1.16-4.23 1.19-4.56-1.04-4.38-1.76z" fill="#fcdfc8"/><path d="m45.84 57.56a15.83 15.83 0 0 0 2.9-.94c1.8-.86 3.74-1.79 3.74-1.47s-.36 2.66-1.12 3.37a4.69 4.69 0 0 1 -3.08.72 8.54 8.54 0 0 1 -2.44-1.68z" fill="#fcdfc8"/><path d="m40.81 59.42s2-.5 2.08-1.22a2.86 2.86 0 0 0 -.64-1.61 2.85 2.85 0 0 1 1.65-.18 5 5 0 0 1 1.79.43s-1.47.46-1.11 1.36a2.73 2.73 0 0 0 1 1.29s-2.58 0-4.77-.07z" fill="#f6c687"/><path d="m37.19 59.13c-.15 0-3-.5-3.09-1.07s.46-1.26 3.12-1.33 4.67.36 4.63 1-1.72 1.27-2.15 1.44a8.54 8.54 0 0 1 -2.51-.04z" fill="#fcdfc8"/><path d="m36 55.58s.29-.5.68-.5a9.66 9.66 0 0 1 1.69.43c.25.07.22.18 0 .25a7.67 7.67 0 0 1 -2.37-.18z" fill="#f6c687"/><path d="m34.92 52.46c-.29-.1.47.54.72 1a4 4 0 0 1 .32.64 3.47 3.47 0 0 1 .87-1.18 3.23 3.23 0 0 0 .61-.43 8.13 8.13 0 0 1 -2.52-.03z" fill="#f6c687"/><path d="m40.45 51.17s.86-.15 1.08-.65l1 .68s-1.36.04-2.08-.03z" fill="#f6c687"/><path d="m17.94 52c-.11-.47 2.73-2.12 4.85-2.16s4.85 1.58 4.81 2.19-1.44 1.76-5 1.8-4.48-1.09-4.66-1.83z" fill="#fcdfc8"/><path d="m28.71 51.7a7.2 7.2 0 0 0 1 .29 5.4 5.4 0 0 0 1 .11s-2.41 1.36-2.84 2.26a1.9 1.9 0 0 0 -.21 1.44l-1.66-.08a7 7 0 0 0 -1.47.08v-.87a5.4 5.4 0 0 0 3.08-1.14c1.25-1.12 1.1-2.09 1.1-2.09z" fill="#f6c687"/><path d="m29 54.65c0-.4 1.44-1.8 3.56-1.69s3 1.51 2.8 2-1.33 1.25-3.7 1-2.66-1.31-2.66-1.31z" fill="#f6c687"/><path d="m27.89 56.3.93-.22a10.22 10.22 0 0 0 2.55 1 7.14 7.14 0 0 0 1.51.22s.18 2.08 0 2.22-9.94.33-10.3.26-.65-1.76 0-2.16a6.39 6.39 0 0 1 4.16-.36 7.36 7.36 0 0 1 2.51 1.74c.15 0 .5-.68.5-1s-1.36-1.52-1.86-1.7z" fill="#fcdfc8"/><path d="m11.7 54.72c.27-.07 2.4-1.9 4.31-1.51s1.79 1.15 3.69 1.55a35.18 35.18 0 0 0 4.1.53 3.14 3.14 0 0 1 -1.19 1.33c-.79.43-1.33.86-4.95.76s-5.53-.94-5.71-1.19-.4-1.43-.25-1.47z" fill="#fcdfc8"/><path d="m12.49 57.3a12.35 12.35 0 0 0 3 .87c1.79.21 5.92-.11 5.92.1s-.14 1.33-.14 1.33-5.57-.07-6.82-.21-1.55-.33-1.73-.54-.48-1.55-.23-1.55z" fill="#f6c687"/><path d="m22.36 12.93c.48-.48 2.48-.79 2.58.72a1.54 1.54 0 0 1 -2.08 1.58 1.46 1.46 0 0 1 -.5-2.3z" fill="#604f58"/><path d="m27.17 13.11c.66-.15 3.12-.43 3.41 1.44a2.53 2.53 0 0 1 -3.84 2.45c-1.94-1.23-.5-3.67.43-3.89z" fill="#604f58"/><path d="m27.62 14c.37-.08 1.74-.24 1.9.8a1.41 1.41 0 0 1 -2.14 1.37c-1.08-.65-.28-2.02.24-2.17z" fill="#f6c687"/><path d="m16.11 29.88c.33-.43 3-1.29 3.81-.15s-.61 2.37-2.16 2.52-2.51-1.25-1.65-2.37z" fill="#604f58"/><path d="m17.41 30.2a1.37 1.37 0 0 1 1.4.07c.28.18-.08.9-.83.9s-1.11-.61-.57-.97z" fill="#f7babe"/><path d="m22.57 34.29c.31-.21 1.62-.46 1.91.51a1.29 1.29 0 0 1 -1.8 1.54c-1.25-.43-.79-1.58-.11-2.05z" fill="#604f58"/><path d="m32 29.66c.74-.4 2.33.15 2.26 1.15s-1.17 3.05-3.26 2.08.51-2.98 1-3.23z" fill="#604f58"/><path d="m32.3 30.67a.62.62 0 0 1 .76.64c0 .43-.76.76-1.22.54s-.29-.93.46-1.18z" fill="#f7babe"/><path d="m39.91 33.5c.66-.17 2.73-.07 3 .65s-.79 3-3.55 2.05-.13-2.52.55-2.7z" fill="#604f58"/><path d="m46.48 29.73c.4-.27 1.4-.39 1.65.11a1.17 1.17 0 0 1 -1.25 1.47.86.86 0 0 1 -.4-1.58z" fill="#604f58"/></svg>