<svg height="64" viewBox="0 0 64 64" width="64" xmlns="http://www.w3.org/2000/svg"><path d="m38.86 46.11c-7.82 0-21.57-.15-23.79-.34-3.48-.32-5.88-1.75-6.76-4.05-.54-1.41-2-7.23-2.68-10.06a3.53 3.53 0 0 1 -2.52-1.22 15.86 15.86 0 0 1 -1.92-6.22c0-2 1.44-4.93 3.8-5.1 1-.07 8.66-.17 9.52-.19l27.78-.76c.42 0 10.36-.28 14.75-.28a19 19 0 0 1 2.11.06c3.25.4 3.66 2.71 3.66 4.68 0 .51-.48 6.42-2 7.6a3.53 3.53 0 0 1 -2.17.57c-.43 2.16-1.21 5.92-2 8.38-1.08 3.46-2.26 5.6-5.13 6.32h-.14c-1.83.46-2.12.5-8.72.57z" fill="#fff"/><path d="m42.34 20.17s15.12-.42 16.56-.24 1.91.72 1.91 2.7-.9 5.76-1.22 6a9.62 9.62 0 0 1 -2.59.14s-1.16 6.34-2.24 9.8-2 4.54-3.71 5-1.69.47-8.39.54-25-.11-27.41-.33-4.43-1.09-5.08-2.78-2.95-11.27-2.95-11.27-2 .11-2.52-.51a14.79 14.79 0 0 1 -1.51-5c0-1.19.93-3 1.94-3.1s9.41-.19 9.41-.19z" fill="#604f58"/><path d="m41.65 38.91c0-.13.65-.75 1-.68a23.72 23.72 0 0 1 3.11 3.46l1.77-.08c-.95-1.09-3.27-3.75-3.29-3.92s1-.72 1.18-.62 3 3.47 3.71 4.44c.57 0 1.07-.1 1.47-.16-1-1.19-3.65-4.38-3.77-4.67 0-.11.79-.76 1-.65a57.61 57.61 0 0 1 4 4.71 12.59 12.59 0 0 0 .47-1.34 49.62 49.62 0 0 1 -3.89-4.2s.76-.72 1-.75a27.13 27.13 0 0 1 3.25 3.67c.19-.67.38-1.42.58-2.21-1.06-1-3.07-3-3.18-3.27 0 0 .76-.86 1.08-.68a25 25 0 0 1 2.35 2.95c.16-.64.31-1.3.47-2-.78-.85-2.08-2.32-2.21-2.57 0 0 .76-.69 1-.58a10.06 10.06 0 0 1 1.46 1.86c.82-3.55 1.49-6.77 1.49-6.87s-9.54.51-22.11.65-24 .15-24.5.15c-.21 0-.14.86.55 3.78s2.52 11.41 3.38 11.85 13.65.72 20.39.68c3.14 0 7.1 0 10.53-.15a22.69 22.69 0 0 1 -2.29-2.8z" fill="#ddeff2"/><path d="m6.82 28.36s-1.22.11-1.36 0a21.36 21.36 0 0 1 -1.09-4.43 1.76 1.76 0 0 1 1.3-1.51c.47 0 19.2-.11 29.39-.5s21.58-.9 23.16-.76 1.4.79 1.51 1.44a21.34 21.34 0 0 1 -.83 4.93c-.18 0-1.51 0-1.51 0s.61-3.1.36-3.49-.39-.62-1.4-.62-15.38.83-22.3 1-24.34-.32-25.71-.18-1.84.65-1.8 1.08.28 3.04.28 3.04z" fill="#83a7d8"/><path d="m11.9 28.36c.19-.23 2-.25 2.16.07a86 86 0 0 1 1.48 8.9c-.18.25-1.08.43-1.19.28s-2.59-9.07-2.45-9.25z" fill="#604f58"/></svg>