<svg height="64" viewBox="0 0 64 64" width="64" xmlns="http://www.w3.org/2000/svg"><path d="m10.67 64a3.38 3.38 0 0 1 -2.82-1.68l-.07-.09c-1.44-2.08-2.38-3.55-2.33-4.85v-.1a3.89 3.89 0 0 1 2-3.55c.91-.58 3.92-2 5.68-2.78-.51-35.93-.37-36.44-.29-36.77.45-1.71 3.06-2.89 4.57-3.44.6-.22 1.15-.41 1.61-.55 0-1 .1-2 .17-2.34a3.42 3.42 0 0 1 3.2-2.53h.37a2.85 2.85 0 0 1 2.07 2c0-1.42-.06-2.7 0-3 .08-1.54 1.9-4.01 5.48-4.24.75-.08 1.57-.08 2.43-.08a24.94 24.94 0 0 1 4.86.36 5.84 5.84 0 0 1 4 5.52c.07 1.2.09 2.2.09 3a44.76 44.76 0 0 1 6.65 2.3c2.25 1.13 4.68 2.6 5 5.85.17 1.76 0 13.52 0 17.78a12.32 12.32 0 0 1 3.74 2.06c.65.66 2.2 2.21 1.07 3.89-.31.47-.39.59-5 2.88 0 2.78.07 9.07 0 10v.44a4.72 4.72 0 0 1 -1.52 3.81c-1.45 1.32-3.45 1.42-4.77 1.49h-2c-5 0-19.33-.11-22-.13-1.12.53-4.27 2-6.53 2.88l-2.44.87a14 14 0 0 1 -2.24.8 3.23 3.23 0 0 1 -.98.2z" fill="#fff"/><path d="m55.7 38.19c-1-1-4.32-2.08-4.32-2.08s.22-17 0-18.95-1.49-3.08-3.92-4.29a53.52 53.52 0 0 0 -7.75-2.55 39.94 39.94 0 0 0 -.03-4.32 3.91 3.91 0 0 0 -2.61-3.76 30.76 30.76 0 0 0 -6.63-.24c-2.8.19-3.67 2-3.7 2.49s.12 5.63.12 5.63l-2.05.44a5.18 5.18 0 0 1 -1-1.06c-.65-.84-.93-2.18-1.33-2.24a1.54 1.54 0 0 0 -1.37.93c-.1.5-.19 3.46-.19 3.46s-1.21.31-2.83.9-3.21 1.52-3.36 2.11.37 37.53.37 37.53-5.47 2.45-6.59 3.17a2 2 0 0 0 -1.12 2.08c0 .78 1.21 2.55 2.05 3.77s1.52.78 1.87.71 1.55-.59 4.26-1.65 6.81-3 6.81-3 23 .18 24.18.12 2.77-.09 3.76-1 .84-1.84.9-2.93 0-11.07 0-11.07 5.23-2.59 5.35-2.77.1-.46-.87-1.43zm-22.2-27.93a1.53 1.53 0 0 1 -1.64-1.36 1.45 1.45 0 0 1 1.45-1.76 1.5 1.5 0 0 1 1.58 1.6 1.43 1.43 0 0 1 -1.39 1.52z" fill="#604f58"/><path d="m49.7 18.9c0-.9-.06-2.24-.87-3s-3.36-1.59-6.32-2.74-4.38-1.62-4.57-2 0-6-.16-6.32-2-1.37-5.25-1.21-3.64.78-3.77 1.09 0 5.85-.12 6.25-2.56 1-2.56 1l3.3 2.14c1.68 1.09 3.27 2.31 3.74 6.07a7.48 7.48 0 0 1 -2.52 6.22 3.44 3.44 0 0 1 .93.5 1.1 1.1 0 0 1 .22 1c-.06.25-.56.25-1 .31a2.29 2.29 0 0 0 -1 .25c-.28.18-.63.62-.94.84s-.56 0-.74.12-.22 1.31-.22 1.31a3.14 3.14 0 0 1 -.63.34c-.21.06-.43.06-.8-.68a10.91 10.91 0 0 1 -.56-2.68 4.89 4.89 0 0 1 -2.84 0 8 8 0 0 1 -4.76-3.64 9.27 9.27 0 0 1 -.31-6.25 24.62 24.62 0 0 1 2.15-3.95 13.55 13.55 0 0 0 -3.42 1.83c-.19.41.5 35.66.5 35.66s5.66-2.34 5.84-2.58-2.52-4.05-2.64-4.36 0-.68.68-1.21a44.26 44.26 0 0 1 5.42-3.18 43.26 43.26 0 0 1 11.45-3.7 52.9 52.9 0 0 1 11.66-.72s.14-15.8.11-16.71zm-16.09-7.74a2.56 2.56 0 0 1 -2.73-2.27 2.43 2.43 0 0 1 2.42-3 2.52 2.52 0 0 1 2.7 2.72 2.41 2.41 0 0 1 -2.39 2.55z" fill="#f6c687"/><path d="m22.07 8.92c.16-.14.5 0 .59.18a12.76 12.76 0 0 0 3.14 4c1.81 1.3 4.33 2.48 5.05 3.48a4.67 4.67 0 0 1 1.15 4.25c-.41 2.46-1.34 4.17-1.81 4.45s-.56.38-.71.41-.47-.47-.32-.56 1.4-.59 1.37-3.33-.28-4.05-1.43-5.42-1.49-1.38-1.58-1.38-.5.16-.38.35a7.38 7.38 0 0 1 1.93 2.8 9.56 9.56 0 0 1 .44 4.76c-.28.9-.44 1.24-.62 1.3s-.13.22-.19.07.78-3.71-1.06-6.6-2.8-3.83-3.3-3.92-.65.12-.71.28a.42.42 0 0 0 .12.47 7.12 7.12 0 0 1 3.45 4.49c.75 3.11.78 3.82.56 4.66s-.21 1.87 0 1.93.5-.06.53 0a4.14 4.14 0 0 0 .38.53s.37 0 .43.22.25.25.47.37.75.25.68.44-1.12.34-1.8 1a12.41 12.41 0 0 0 -1.06 1.22c-.09 0-.19 0-.25-.22a4 4 0 0 1 -.06-1.62 3.42 3.42 0 0 1 .47-.37l.43-.5a3 3 0 0 0 -.87-.09 2.46 2.46 0 0 1 -1.4.53 7.23 7.23 0 0 1 -4.79-1.5 6.89 6.89 0 0 1 -2.24-6.38c.37-2.33 2.74-5 3.05-6.78s.15-3.37.34-3.52z" fill="#cc6ba7"/><g fill="#604f58"><path d="m22.57 14.55c.22 0 .56 0 .31.43a9.89 9.89 0 0 0 -.5 6c.78 2.52 2.37 3.36 3.42 3.45s1-.06 1 .22 0 .5-.09.59a5 5 0 0 1 -2.71-.39 5.32 5.32 0 0 1 -2.55-3.8 13.61 13.61 0 0 1 -.09-3.51c0-.13-.47.12-.5.34s-1.06 3.17.09 5 2.21 2.61 3.49 2.86 2.11 0 2.17.16 0 .62-.12.68a5.61 5.61 0 0 1 -3.49-.58 5.73 5.73 0 0 1 -3.42-4 7.81 7.81 0 0 1 .87-5 5.38 5.38 0 0 1 2.12-2.45z"/><path d="m23.47 15.79c.11-.13.53-.15.59.13s-.43 3.73.5 5.13a9.94 9.94 0 0 0 2 2.09c.09.15.09.25-.06.31a1.86 1.86 0 0 1 -1.59-.34 4.28 4.28 0 0 1 -1.62-3.43 11 11 0 0 1 .18-3.89z"/><path d="m25.46 19.43c-.06-.14.06-.49.31-.37a3.41 3.41 0 0 1 .84 1.84c.13.77.25 1.05.1 1.09s-.38-.28-.81-1a4.44 4.44 0 0 1 -.44-1.56z"/><path d="m34.77 20.06a5.13 5.13 0 0 1 -1.28-3.27c-.12-2.15 2-4 4.57-4a5 5 0 0 1 4.45 2.7 3 3 0 0 1 .06 1.31s3.61.9 3.74 5.44-2.31 6.22-5.51 6.31-6.41-1.93-6.53-4.85.5-3.64.5-3.64z"/></g><path d="m35.14 19.37a3.08 3.08 0 0 1 -.47-3.37 3.87 3.87 0 0 1 4-2.24 3.74 3.74 0 0 1 2.83 1.46 2.53 2.53 0 0 1 .34 1.22h-.84a2.28 2.28 0 0 0 -1.53-1.62 3.11 3.11 0 0 0 -3.82 3.67z" fill="#cc6ba7"/><path d="m36.79 17.47a1.15 1.15 0 0 1 .37-1.3 1.7 1.7 0 0 1 1.84-.56 1.36 1.36 0 0 1 .93.9 3.89 3.89 0 0 0 -1.65.09 5.07 5.07 0 0 0 -1.49.87z" fill="#da8cbb"/><path d="m35.36 20.8a5.06 5.06 0 0 1 4.45-3.54 4.81 4.81 0 0 1 5.19 3.45 5.3 5.3 0 0 1 -1.15 5.6 5.12 5.12 0 0 1 -5.72.81c-1.81-.81-3.13-2.02-2.77-6.32z" fill="#cc6ba7"/><path d="m36.7 21a4 4 0 0 1 3.41-2.85 3.72 3.72 0 0 1 4 2.78 4.42 4.42 0 0 1 -.89 4.5 3.8 3.8 0 0 1 -4.39.65c-1.39-.65-2.44-1.62-2.13-5.08z" fill="#604f58"/><path d="m37.5 21.35a3.07 3.07 0 0 1 2.7-2.1 2.92 2.92 0 0 1 3.17 2.05 3.07 3.07 0 0 1 -.7 3.31 3.17 3.17 0 0 1 -3.47.48c-1.12-.48-1.95-1.2-1.7-3.74z" fill="#da8cbb"/><path d="m38.48 21.67a2.06 2.06 0 0 1 1.82-1.42 2 2 0 0 1 2.14 1.38 2.07 2.07 0 0 1 -.44 2.23 2.16 2.16 0 0 1 -2.35.33c-.78-.33-1.34-.81-1.17-2.52z" fill="#604f58"/><path d="m39.43 22a1.09 1.09 0 0 1 1-.75 1.05 1.05 0 0 1 1.14.73 1.07 1.07 0 0 1 -1.57 1.33c-.36-.17-.66-.43-.57-1.31z" fill="#cc6ba7"/><path d="m29.94 29.79a6.7 6.7 0 0 1 5.79-.59c1.59.56 2.71 1.34 2.86 2.55a3.71 3.71 0 0 1 -2.08 3.68c-1.68.93-3.27 1.68-5.35 1.33a3.82 3.82 0 0 1 -3.3-3.14c-.06-1.12.22-2.46 2.08-3.83z" fill="#604f58"/><path d="m31.09 30.23c1.05-.55 3.15-.4 4.64 0s2 1 1.93 2a4.68 4.68 0 0 1 -3.55 3.42 5.38 5.38 0 0 1 -4.82-.84c-.96-.81-1.03-3.09 1.8-4.58z" fill="#da8cbb"/><path d="m32.12 30.88c1.26-.43 3.77-.37 4.08.81s-1.56 2.49-3.33 2.71-2.55-.84-2.43-1.65a2.39 2.39 0 0 1 1.68-1.87z" fill="#604f58"/><path d="m32.68 31.63c.84-.35 2.52-.28 2.46.37a2.26 2.26 0 0 1 -2.14 1.65c-1.31.16-3.43-.71-.32-2.02z" fill="#cc6ba7"/><path d="m21.39 44.17c.07-.12 6.72-4.33 11.76-5.76a55.45 55.45 0 0 1 13.94-1.83 16.36 16.36 0 0 1 7.12 1.86c1 .53 1.4.66 1.21.84s-9.77 4.72-15.86 7.66-12.2 6.53-12.36 6.38-6-8.84-5.81-9.15z" fill="#ddeff2"/><path d="m23 44.32c.06-.33.35-.43.56-.24a15.64 15.64 0 0 1 1.59 2.76c0 .19-.09.63-.47.47a10.7 10.7 0 0 1 -1.68-2.99z" fill="#604f58"/><path d="m42.08 43.33a76.37 76.37 0 0 1 7.56-3.46c.15.13.37.66.25.78a82.31 82.31 0 0 1 -7.5 3.49.78.78 0 0 1 -.31-.81z" fill="#604f58"/><path d="m9.47 55.74c.16-.32 7.28-3.3 10-4.29s3.48-1.68 3.8-1.37 2.48 3.08 2.3 3.3-11.67 5-12.76 5.54-1.27.59-1.4.52-2.09-3.39-1.94-3.7z" fill="#a8a1a7"/><path d="m8.66 56.49c.46 0 2 3.61 2.18 3.73a.92.92 0 0 0 .87 0c.22-.15 14.25-6.5 14.34-6.22s.13.44.07.56-13.38 5.91-14.19 6.25-1.21.41-1.65.1a14.33 14.33 0 0 1 -2.08-3.36c-.04-.35.12-1.06.46-1.06z" fill="#84767e"/><path d="m11.93 56.08a1 1 0 0 1 1.34 1.16.93.93 0 0 1 -1.62.46 1.05 1.05 0 0 1 .28-1.62z" fill="#ddeff2"/><path d="m16.44 54.25a1 1 0 0 1 1.34 1.15.94.94 0 0 1 -1.62.47 1.06 1.06 0 0 1 .28-1.62z" fill="#ddeff2"/><path d="m46.87 49.89c.22-.4.5-.62.71-.62a15.14 15.14 0 0 1 1.9 2.81c0-.7.07-1.54.09-2.43-.33-.42-1.28-1.41-1.3-1.56s.25-.9.4-.93.61.48.94.87c0-2.45 0-4.73 0-4.73l-23.12 11.88s8.17.08 14.22.11a5.2 5.2 0 0 1 -.71-1.35c.07-.19.59-.66.84-.53a6.11 6.11 0 0 1 1.07 1.89h1.42c-.36-.47-1.6-2.11-1.49-2.33s.84-.9 1.09-.62a21.88 21.88 0 0 1 1.58 2.95h1c-.49-.69-1.81-2.58-1.68-2.89a.84.84 0 0 1 .84-.43 15.16 15.16 0 0 1 1.92 3.31h.48l.57-.09c-.59-.81-2.46-3.46-2.25-3.77s.74-.62.9-.47a43 43 0 0 1 2.36 3.79 1.91 1.91 0 0 0 .63-1c-.64-.88-2.59-3.52-2.41-3.86z" fill="#f6c687"/></svg>