<svg height="64" viewBox="0 0 64 64" width="64" xmlns="http://www.w3.org/2000/svg"><path d="m38.87 64c-7.83 0-21.58-.15-23.79-.35-3.46-.31-5.84-1.73-6.72-4-.54-1.4-2-7.27-2.68-10.09a3.46 3.46 0 0 1 -2.52-1.2 15.71 15.71 0 0 1 -1.91-6.19c0-1.94 1.46-4.87 3.74-5h2 2.63a9.54 9.54 0 0 1 -.8-1.83c-.55-1.82-1.06-3.86-1.36-5.15a4.16 4.16 0 0 1 -3.27-3.21c-.51-3.06-.39-5.12.36-6.13a5.41 5.41 0 0 1 4.08-1.85c.93-.09 3.32-.13 5.27-.14-.22-.74-.45-1.62-.66-2.62-.31-1.53-.56-2.79-.74-3.68a2.53 2.53 0 0 1 -2.06-1.46c-.23-.55-1.27-6.78-.5-8.23.62-1.17 2-1.67 5.72-2.06 1.84-.2 10-.62 15.4-.73h3.26c4.87 0 10.4.17 13.13.32 2.4.14 5.27.57 6.18 2.73.2.47.47 1.11-.54 4.76s-1.5 4-2.21 4.35a4 4 0 0 1 -1.3.31c-.18 1.12-.45 2.68-.69 4-.11.63-.23 1.21-.36 1.72 2.51.09 5.79.22 6.59.35 1.88.25 3.88 2.07 3.88 5.32 0 2.39-.74 5.25-2.57 6.24a5.06 5.06 0 0 1 -1.71.53c-.21.95-.56 2.3-1.11 4-.13.38-.24.72-.35 1 2.18 0 4.95.11 5.88.22 3.19.4 3.6 2.68 3.6 4.63 0 .86-.57 6.45-2 7.54a3.38 3.38 0 0 1 -2.18.57c-.42 2.15-1.21 6-2 8.42-1.07 3.44-2.25 5.57-5.09 6.28h-.13c-1.82.46-2.12.49-8.71.56z" fill="#fff"/><path d="m9.06 28.44s-2.67-.11-3-1.84-.43-4.07 0-4.64 1.2-.96 2.75-1.08 7.85-.15 7.85-.15a22.23 22.23 0 0 1 -1.52-4.93c-.64-3.17-1-5.19-1-5.19s-1.66.18-1.87-.32-.87-6-.58-6.56 2.52-.86 4.21-1 9.76-.65 15.2-.73 13.07.11 16.24.29 4.22.86 4.51 1.55-1.37 6.41-1.77 6.59a11.65 11.65 0 0 1 -2.16.25s-.5 3.1-.94 5.51a23.55 23.55 0 0 1 -1 3.92s7.75.22 8.83.4 2.19 1.3 2.26 3.49-.69 4-1.55 4.51a5.64 5.64 0 0 1 -2.41.36 30 30 0 0 1 -1.34 5.26c-1.11 3.38-1.33 3.53-1.33 3.53s7 .07 8.46.25 1.91.72 1.91 2.7-.9 5.76-1.22 6a9.28 9.28 0 0 1 -2.59.15s-1.16 6.34-2.24 9.79-2 4.54-3.71 5-1.69.47-8.39.54-25-.1-27.41-.32-4.43-1.13-5.08-2.77-2.95-11.33-2.95-11.33-2 .11-2.52-.5a14.85 14.85 0 0 1 -1.51-5c0-1.19.93-3 1.94-3.09s8.86 0 8.86 0a8.85 8.85 0 0 1 -3.31-4.39c-.87-2.79-1.62-6.25-1.62-6.25z" fill="#604f58"/><g fill="#ddeff2"><path d="m44.5 34c.07-.4.5-.83.75-.8a29.89 29.89 0 0 1 3.34 3.49c.12-.38.26-.83.41-1.33-.83-1-3.43-3.65-3.28-4s.61-.72.79-.61 2.1 2.25 2.89 3.25c.14-.49.28-1 .42-1.52-.64-.64-2.3-2.29-2.3-2.37s.54-1 .9-.83a9.91 9.91 0 0 1 1.74 2c.81-3 1.54-5.84 1.54-6.06 0-.47-.47-.58-2.7-.65s-15.7-.29-24.17-.14-13.34.66-13.47.79.61 7.35 2.13 9.94a7.63 7.63 0 0 0 5.44 3.6c1.54.33 7.6.33 16.17 0 4.64-.2 7.94-.37 10-.5a29 29 0 0 1 -2.81-3c.1-.14.57-.65.86-.54a26.48 26.48 0 0 1 3.23 3.47l1.68-.19s0-.05.09-.12c-.89-.83-3.71-3.56-3.65-3.88z"/><path d="m41.44 14.21c-.11-.18.32-.9.72-.93s2 1.8 2.6 2.54c.11-.5.24-1.06.36-1.66a21.88 21.88 0 0 1 -2.39-2.5c0-.29.47-1.16.69-1.12a15.87 15.87 0 0 1 2 2.23c.66-3.25 1.31-6.81 1.28-6.91s-.93-.29-9-.15-21.33.9-21.76 1a42.46 42.46 0 0 0 .94 5.76c.76 3.31 1.8 7.56 1.91 7.64s4.25-.11 11-.29c4.06-.11 8-.05 10.52 0-.7-.68-2.49-2.41-2.38-2.61s.69-.58 1-.47a28.73 28.73 0 0 1 2.84 3.12l1.37.05c.07 0 .18-.09.32-.3a32.7 32.7 0 0 1 -3.46-3.34c0-.29.5-.9.82-.8a29.22 29.22 0 0 1 3.2 3c.07-.19.14-.4.23-.63s.13-.42.21-.74c-.71-.65-2.93-2.73-3.02-2.89z"/><path d="m41.65 56.86c0-.13.65-.76 1-.69a23.88 23.88 0 0 1 3.11 3.47l1.77-.08c-.95-1.1-3.27-3.76-3.29-3.93s1-.72 1.18-.61 3 3.46 3.71 4.43c.57-.05 1.07-.1 1.47-.16-1-1.19-3.65-4.37-3.77-4.67 0-.1.79-.75 1-.64a57.61 57.61 0 0 1 4 4.71c.13-.3.29-.76.47-1.34a51.22 51.22 0 0 1 -3.89-4.2 4.44 4.44 0 0 1 1-.76 27.13 27.13 0 0 1 3.25 3.67c.19-.67.38-1.41.58-2.21-1.06-1-3.07-3.05-3.18-3.26 0 0 .76-.86 1.08-.68a25 25 0 0 1 2.35 3c.16-.64.31-1.31.47-2a32.2 32.2 0 0 1 -2.21-2.57s.76-.68 1-.57a10.25 10.25 0 0 1 1.46 1.85c.82-3.55 1.49-6.76 1.49-6.86s-9.54.5-22.11.65-24 .14-24.49.14c-.22 0-.15.87.54 3.78s2.52 11.42 3.38 11.85 13.65.72 20.39.69c3.14 0 7.1-.05 10.53-.15a22.69 22.69 0 0 1 -2.29-2.86z"/></g><path d="m7.4 26.64c-.33-.48-.54-4-.14-4.25s3.42-.68 15.59-.94 23.38-.36 26.26-.32 5.83.5 6.48 1.4.36 3.53 0 4.22-.72.54-1.19.68a2.45 2.45 0 0 1 -1 0s.68-2.38-.07-3.06-.83-1-4.65-.94-26.4-.18-31.95.11-7.56.54-7.74.93.07 2.27-.07 2.38-1.27.15-1.52-.21z" fill="#83a7d8"/><path d="m13.16 27.18c0-.24 1-.22 1.23 0s1.65 7.1 1.37 7.2-.94.33-1.12 0-1.48-6.84-1.48-7.2z" fill="#604f58"/><path d="m14.1 9.46s-.65.22-.76 0-.9-4.61-.61-4.86 3.21-1.15 12-1.48 24.27.36 25.17.58 1 .65.86 1.22-.97 4.08-1.36 4.14a6.26 6.26 0 0 1 -1.26 0 31.42 31.42 0 0 0 -.08-4c-.18-.43-.75-.68-1.62-.68s-12.75.36-21 .75-11.2.98-11.44 1.2a14.55 14.55 0 0 0 .1 3.13z" fill="#83a7d8"/><path d="m18.93 8.88c.13-.18 1.08-.43 1.26-.21a76.31 76.31 0 0 1 1.37 7.85c-.11.22-.76.61-1 .25a60 60 0 0 1 -1.63-7.89z" fill="#604f58"/><path d="m6.82 46.31a4.54 4.54 0 0 1 -1.36 0 20.8 20.8 0 0 1 -1.08-4.43 1.73 1.73 0 0 1 1.29-1.51c.47 0 19.2-.11 29.39-.51s21.58-.9 23.16-.75 1.4.79 1.51 1.44a21.54 21.54 0 0 1 -.83 4.93c-.18 0-1.51 0-1.51 0s.61-3.1.36-3.5-.39-.61-1.4-.61-15.38.83-22.3 1-24.34-.31-25.71-.17-1.84.65-1.8 1.08.28 3.03.28 3.03z" fill="#83a7d8"/><path d="m11.9 46.31c.19-.24 2-.26 2.16.07a86.27 86.27 0 0 1 1.48 8.89c-.18.26-1.08.44-1.19.29s-2.59-9.07-2.45-9.25z" fill="#604f58"/></svg>