<svg height="64" viewBox="0 0 64 64" width="64" xmlns="http://www.w3.org/2000/svg"><path d="m31.88 63.32c-3.2 0-5.18-1.7-5.66-3.29a4.32 4.32 0 0 1 -.14-.57 2.74 2.74 0 0 1 -.39.09 2.12 2.12 0 0 1 -.44 0c-1.52 0-2.67-1.27-3.81-2.69-.09-.11-.16-.2-.22-.26a5 5 0 0 1 -1-3.91 8.7 8.7 0 0 1 -1.66-.3 8 8 0 0 0 -.88-.19 3.65 3.65 0 0 1 -3-1.71 2.8 2.8 0 0 1 -.19-2.71 3.2 3.2 0 0 1 -.72-.11 2.47 2.47 0 0 1 -1.61-1.46 8 8 0 0 1 -.42-3.37c-1.9 1.66-2.63 1.74-3 1.78h-.32c-1.56 0-3-1.28-4-2.35-1.78-2-1.66-3-1.62-3.37a2.58 2.58 0 0 1 .2-.51 3.79 3.79 0 0 1 -1.68-.78c-1.62-1.42-1.39-8-1-9.08a3.46 3.46 0 0 1 2.17-2.28 4.24 4.24 0 0 1 -.55-1.25 2.9 2.9 0 0 1 .83-2.38c.82-1 4.29-4.07 6.38-4.07a2.64 2.64 0 0 1 1.92.83 2.53 2.53 0 0 1 .16-1c.68-1.52 2.61-1.52 3.54-1.52h.57c.23-2.44.79-3.19 1.67-3.57a2.74 2.74 0 0 1 .51-.15 2.22 2.22 0 0 1 -.65-.94c-.59-1.58.46-3 1.91-5l.08-.11c.83-1.11 2.47-3 4.22-3h.34a3.87 3.87 0 0 1 1 .29c.18-1.82.5-2.2.74-2.49.41-.49 1.08-1.3 8.61-1.3 2.13 0 3.45 2 3.66 4a4.79 4.79 0 0 1 2.35-.8h.24c2 .2 4.81 4 5.24 5.77a3.88 3.88 0 0 1 -1.31 3.85 6.72 6.72 0 0 1 1.15.54 2.71 2.71 0 0 1 1.33 2.23c1.43.16 2.69.61 3.1 1.87a11 11 0 0 1 .16 3.41c3.32-3.15 4.08-3.15 4.67-3.15 1.88 0 5.3 2.58 5.93 3.72a3.91 3.91 0 0 1 .35 2.63 5.68 5.68 0 0 1 1.3.51c2.24 1.43 2.06 6.24 2.06 6.44-.09 2.19-.9 5-2.89 5.56a7.88 7.88 0 0 1 -1.28.22 2.53 2.53 0 0 1 .23 1.39c-.13 1.18-1.08 2.1-2.62 3.5-.28.26-.54.49-.74.69a5 5 0 0 1 -3.46 1.32h-.24c-.21 1-1 2.67-3.68 2.67h-.06c-.23 2.66-.78 3.22-1.08 3.51a3.34 3.34 0 0 1 -2.5.83 7.6 7.6 0 0 1 -.76 0 2.23 2.23 0 0 1 .24.36 4.12 4.12 0 0 1 0 4.72c-.92 1.63-3.68 3.56-5.09 3.56a2.08 2.08 0 0 1 -1-.22 4 4 0 0 1 -.43 1.28c-1 1.59-3 2.07-5.93 2.33z" fill="#fff"/><path d="m27.46 25.1s-.75-7.1-1.06-7.72-7.49-5.23-7.72-5.83.69-1.82 1.74-3.26 2.2-2.29 2.73-2.19a23.71 23.71 0 0 1 3 1.36s.07-3.78.45-4.24 6-.6 7.12-.6 1.66 1.51 1.74 2.27 0 3.18 0 3.18 3.59-2.35 4.34-2.27 3.2 2.8 3.56 4.31-1.51 2.57-2.12 3-5 4-5 4l-.15 6.06 4.32-3.87s-.31-2.8.83-3.7a2.45 2.45 0 0 1 2.88.07c.53.3.45 2.42.45 2.42s2.88-.07 3.1.61.16 3.48-.3 3.78a18.34 18.34 0 0 1 -3.71.46s-3.86 3.93-3.56 3.93 7.27-.3 7.27-.3 6-6.28 7-6.28 3.87 2 4.24 2.72a2.26 2.26 0 0 1 .08 1.59l-.91 1.52a13.05 13.05 0 0 1 3.18.75c.76.46 1.21 2.8 1.14 4.62s-.76 3.56-1.52 3.79a36.6 36.6 0 0 1 -4.09.37s1.75 2.2 1.67 2.88-2 2.2-2.8 3a3 3 0 0 1 -3.41.38c-.75-.61-4.77-6.59-4.77-6.59l-7.72.15 5.91 4.7s3.33-.16 4.08.22a3.81 3.81 0 0 1 1.75 3.26c-.2 1.43-1.33 1.35-2.09 1.35s-1.66.08-1.66.08-.08 3.48-.61 4-3.25.15-3.93-.38-.91-.9-.91-1.2-.08-3.5-.08-3.5l-4.39-4.09.08 6.21s5.3 5.37 5.9 6.43a2.27 2.27 0 0 1 0 2.8 6.92 6.92 0 0 1 -3.41 2.65c-.53 0-2.8-2-2.8-2s.23 3.1-.3 3.94-1.89 1.21-4.46 1.43-4.17-.9-4.47-1.89a16.82 16.82 0 0 1 -.3-3.33 8.33 8.33 0 0 1 -2.43 1.51c-.83.16-2.19-1.74-2.64-2.27a2.76 2.76 0 0 1 -.23-3.1c.76-1.13 5.15-4.47 5.15-4.47l.07-8.4-5.75 6.06a48 48 0 0 1 -1.29 5.22c-.3.38-2.12-.38-2.95-.38s-1.82-.91-1.44-1.66a26 26 0 0 0 1-3.11 9.3 9.3 0 0 1 -3 .31c-.83-.23-.68-3.56-.37-4.17a3.11 3.11 0 0 1 2.27-1.13c1-.15 4-.46 4-.46l3-3.33-8.1-.15s-5.23 6-6.59 6.13-3.86-2.87-3.78-3.55a7.93 7.93 0 0 1 1.31-2.29s-2.87-.23-3.48-.76-.83-5.91-.45-7a1.57 1.57 0 0 1 1.78-1.15c.76 0 2.15-.1 2.15-.1s-2-2.42-2.19-3.26 4.09-4.16 5.3-4.16 6 7 6 7l6-.07-3.56-3.41a18.59 18.59 0 0 1 -3 .08c-.23-.15-1.9-4.17-1.59-4.85s4.21-.23 4.21-.23.08-3.64.61-3.86 3.63.15 3.86.53.22 4.23.37 4.46 5.45 4.97 5.45 4.97z" fill="#604f58"/><path d="m59.63 29.26c-.11-.45-3.37-.34-4.27-.3a1.79 1.79 0 0 1 -1.74-1.21c0-.46 2.57-2.92 2.72-3.14s-1.29-1.4-1.7-1.44-5.49 5.64-5.87 5.83-9.91.07-10.41.11-.94-.64-.94-1a50.11 50.11 0 0 1 5.58-6.23c.42-.15 3.59-.15 3.82-.23s.15-1.89.08-2.12-2.92-.22-3.3-.45 0-2.16-.15-2.54-1.55 0-1.89.31 0 2.31-.11 2.65a77.11 77.11 0 0 1 -6 6.35c-.61.38-1.71-.45-2-.68s-.38-8.66-.23-9.12 7.61-5.41 7.76-5.52a7.45 7.45 0 0 0 -1.44-2.53c-.23 0-4.17 2.27-4.36 2.38a4.85 4.85 0 0 1 -1.89-1.13c0-.19-.22-4-.38-4.17a20.29 20.29 0 0 0 -4.27 0c-.12.15.07 4.2.07 4.43a2.3 2.3 0 0 1 -1.13 1.21c-.42.08-3.86-2-4.17-2.08s-1.73 1.53-1.77 1.82.64.75 2 1.59 5.95 3.86 6 4.31.19 7.42.23 9-2.16 1.51-2.69 1.1-6.09-5.64-6.28-6-.08-3.64-.15-4.09-1.75-.17-1.95-.13a13.55 13.55 0 0 0 -.23 2.61c0 .27-.38 1.18-.68 1.25s-3.26 0-3.37 0a12.55 12.55 0 0 0 .72 2.76 22.79 22.79 0 0 0 2.88 0c.56.08 4.05 3.52 4.73 4.51s-.72 2.34-1.21 2.34-7.42.16-7.65 0-4.39-6.05-4.84-6.43-2.77 1.55-2.73 1.72 1.52 1.4 2.31 2.35-.45 2.27-1 2.38-3.22.12-3.52.15-.21 4.3-.06 4.45 2.27-.07 3.94 0 2 .69 1.93 1.1a37.78 37.78 0 0 1 -2.92 3.14c-.26.34 1.14 1.74 1.44 1.82s5.34-6.17 5.75-6.47 8.48-.31 9.77 0 1.7 1.48 1.21 2.2-4.88 5.18-5.41 5.26-3.9.34-4.51.57-.6 2.49-.34 2.53a16.6 16.6 0 0 0 2.5-.26 1 1 0 0 1 1.1.38c.07.22-1.21 4-1.25 4.27s2.23.76 2.5.61.83-4.39 1-4.88a95.42 95.42 0 0 1 7.38-7.42c.68-.46 2.19.79 2.23 1.21s-.07 9.31-.19 9.54-5.41 4.76-5.83 5.37.72 1.51 1 1.59 2.38-2.35 3.1-2.84 1.4.3 1.48.57 0 4.46 0 4.69a1.67 1.67 0 0 0 .57 1.33 14.38 14.38 0 0 0 4.24 0c.26-.15.15-3.29.26-4.27a2.16 2.16 0 0 1 1.4-1.63c.23 0 3.94 2.69 4 2.69a4.91 4.91 0 0 0 1.16-1.43c.07-.34-6.55-6.24-6.66-6.43a3.93 3.93 0 0 1 0-.75 31.67 31.67 0 0 1 -2.25-3.41c0-.32.34-.61.56-.52a16.49 16.49 0 0 1 1.68 2c0-.62 0-1.29 0-2-.05.14-.08.24-.08.24s-2.62-3.6-2.46-3.91.62-.78.9-.63a13.71 13.71 0 0 1 1.65 2.59c0-.79 0-1.47 0-1.91a8.29 8.29 0 0 1 -1.25-1.92.85.85 0 0 1 .58-.7 2.81 2.81 0 0 1 1.47 1.35 2.27 2.27 0 0 1 1.2-.3 84 84 0 0 1 6.25 5.75c.11.27-.23 3.52 0 4s2.38.57 2.72.61-.07-3.14.38-3.67 3.52-.23 3.71-.3-.08-2.2-.76-2.39-3.67-.11-4-.19-8.06-6.13-8.59-6.73.45-1.78.83-1.78 8.94-.23 9.35-.15 6.44 7.15 6.7 7.19a6.36 6.36 0 0 0 1.93-1.48c.23-.34-2.16-3.18-2.72-3.71s-.8-1.55-.61-1.78 6.85.23 7.23.15.33-3.51.21-3.96z" fill="#adceea"/></svg>