<svg height="64" viewBox="0 0 64 64" width="64" xmlns="http://www.w3.org/2000/svg"><path d="m40.57 64a8.31 8.31 0 0 1 -1.21-.09 93.07 93.07 0 0 0 -10.7-.71 55.36 55.36 0 0 0 -5.88.41c-1.15.12-2.06.22-2.72.22a4 4 0 0 1 -.82-.07c-1.95-.39-4.29-2.95-5-7.1-.15-.9-.55-3-1.05-5.75-3.81-20.71-3.7-21.05-3.47-21.81.12-.39.39-1.26 3.63-3.94-3.09-9-3-9.34-3-9.86a3.13 3.13 0 0 1 .34-1c-1.46-3.87-1.69-5.3-.25-6.17a7.92 7.92 0 0 1 2.24-.72c-.32-2.15.13-2.75.4-3.1a9.47 9.47 0 0 1 5-2.58h.28a3.35 3.35 0 0 1 1.58.71l.34-.09a3.46 3.46 0 0 1 1.55-1.2l.3-.15a11.26 11.26 0 0 1 3.52-1h.26a4.77 4.77 0 0 1 2.23 1 10.35 10.35 0 0 1 4.19-1h.34a7.94 7.94 0 0 1 3.39 2.16 14.75 14.75 0 0 1 3.58-.76 2.66 2.66 0 0 1 1 .19 6.3 6.3 0 0 1 2.42 2.58 15 15 0 0 1 4.58-1 4 4 0 0 1 .82.08 5.3 5.3 0 0 1 3.25 3.22c.11.45.09.71-.21 3.53-.1 1-.22 2.09-.27 2.81 0 .37-.06.72-.1 1 2 .46 2.5 1.57 2.5 2.53 0 .31 0 1-2.58 9.24 3.31 2.3 3.38 3.24 3.43 3.83a11 11 0 0 1 -.73 3.56c-.17.58-.37 1.24-.42 1.55s-5.33 23.48-6.82 26.1a6.53 6.53 0 0 1 -5.94 3.38z" fill="#fff"/><path d="m15.63 25.82s-3.39-9.82-3.33-10.24a2.33 2.33 0 0 1 .6-1s-1.79-4.58-1.46-4.79 3.56-.93 3.56-.93-.77-2.86-.37-3.39a8.79 8.79 0 0 1 3.46-1.8c.53.07 1.26.94 1.26.94l2.06-.54s.6-.93 1-1.06a14.41 14.41 0 0 1 3.33-1 3 3 0 0 1 1.92 1.27 26.48 26.48 0 0 1 .34 2.66h1.13a29.22 29.22 0 0 1 .06-3.33 10.35 10.35 0 0 1 3.26-.61 7.63 7.63 0 0 1 2.73 2.19c0 .27-.07 3.72-.07 3.72l1.13.09.07-3.86s3-1 3.66-.73 1.79 2.33 1.93 2.59a9.51 9.51 0 0 1 .26 1.53l1.66-.4s-.33-.86 0-1.13a11.43 11.43 0 0 1 4.26-.8 3.52 3.52 0 0 1 1.79 1.8c.07.27-.39 4-.53 5.72s-.34 2.92-.34 2.92 2.73 0 2.73.8-2.93 10-2.93 10 3.72 2.4 3.79 3.19-.93 3.53-1.13 4.59-5.46 23.32-6.64 25.44a4.83 4.83 0 0 1 -5.19 2.34 97.25 97.25 0 0 0 -11-.73c-4.05 0-8 .8-9 .6s-2.86-2-3.46-5.52-4.85-25.8-4.59-26.67 4.05-3.86 4.05-3.86z" fill="#604f58"/><path d="m35.74 57.4c0-.23.8-.73 1-.69a21.07 21.07 0 0 1 3.15 2.78 3.54 3.54 0 0 0 1.58-.35 37.59 37.59 0 0 1 -3.47-3.4c0-.26.8-.86 1.06-.73a45.25 45.25 0 0 1 3.36 3.27 5.16 5.16 0 0 0 .64-1.2 34.27 34.27 0 0 1 -3.06-3.08c0-.26.33-1 .66-.86a23.87 23.87 0 0 1 2.88 2.54l.46-1.68c-1-.72-3.4-2.54-3.43-2.67s.83-.87 1-.74 1.85 1.49 2.74 2.33c.13-.47.27-1 .42-1.52-.94-.74-3-2.42-3-2.7s.77-.86 1-.7 1.54 1.44 2.34 2.28c.13-.48.27-1 .41-1.48a11.48 11.48 0 0 1 -2.49-2c0-.4.37-1 .6-1a14.2 14.2 0 0 1 2.21 1.8c.13-.48.27-1 .4-1.45-.6-.43-2.12-1.54-2.14-1.81a.72.72 0 0 1 .5-.67 15.07 15.07 0 0 1 1.86 1.68c.18-.65.36-1.29.53-1.94-.53-.36-2.06-1.42-2.06-1.67s.46-.63.63-.66a8.65 8.65 0 0 1 1.69 1.38c1.51-5.52 2.86-10.54 2.83-10.59s-9.24-.37-18.58-.23-17 .64-17.23.86 3.89 21.68 4.36 23.5 1.56 3.49 2.46 3.49 4.65-.07 8.38-.27c2.81-.15 6.27.08 8.55.2a16.12 16.12 0 0 1 -2.24-2.02z" fill="#ef7d7b"/><path d="m14.63 29.81c-.48-.49 1.6-1.53 1.8-1.4s.93 1.73.66 1.86a4.72 4.72 0 0 1 -2.46-.46z" fill="#ef7d7b"/><path d="m18.75 30s-5.12-14.23-4.85-14.5a11.52 11.52 0 0 1 2.66-.5s5.05 15.09 4.79 15.16-2.6-.16-2.6-.16z" fill="#f6c687"/><path d="m22.54 29.94s-1.79-5.05-1.79-5.25a50.84 50.84 0 0 0 1.79-6.69c.34-2.59.6-4 .87-3.92s.93 3.92 1.13 4.25a1.21 1.21 0 0 1 .2.54v5.65s-2.06 3.48-1.86 3.76.33.66.6.46a14.41 14.41 0 0 0 1.19-1.74 15.2 15.2 0 0 1 -.13 3 19 19 0 0 1 -2-.06z" fill="#f0a26c"/><path d="m20.22 23.26s-3.29-8.48-3.22-8.65.93-1.39 1.07-1.33 2.52 6.89 2.62 7.22a9.88 9.88 0 0 1 -.47 2.76z" fill="#f6c687"/><path d="m13.93 14.91s2.06-.4 2.2-.5.93-1.29.93-1.29a6.77 6.77 0 0 0 -1.56.06 7 7 0 0 0 -1.57 1.73z" fill="#f6c687"/><path d="m13.53 13.82a18.8 18.8 0 0 1 -1.13-2.9c.14-.13 2.8-1.09 3.06-.86a10 10 0 0 1 .7 2.29 6.09 6.09 0 0 0 -1.06.07c-.1.07-1.57 1.4-1.57 1.4z" fill="#f0a26c"/><g fill="#f6c687"><path d="m17.13 12.05s-1.7-4.92-1.43-4.92a5.27 5.27 0 0 1 1.66.6c.23.2 1.39 4.19 1.16 4.36s-1.39-.04-1.39-.04z"/><path d="m21.05 19.07s-2.93-11.67-2.79-11.84 1.23-.76 1.36-.6 2.63 6.19 2.59 6.39-.73 5.92-1.16 6.05z"/><path d="m15.53 5.77a16.45 16.45 0 0 1 2.46-1c.3 0 1.26.73 1.23 1s-1.7 1-1.7 1-2.02-.77-1.99-1z"/></g><path d="m22.91 12.88s-2.76-7.38-2.59-7.61 1.06-.63 1.26-.43 1.63 7.45 1.6 7.71a.4.4 0 0 1 -.27.33z" fill="#f0a26c"/><path d="m24.44 14.65s-1.76-9.91-1.56-9.94a10.94 10.94 0 0 1 2.22.19 47.74 47.74 0 0 1 .7 5.69.9.9 0 0 0 -.5.37c-.1.16-.86 3.69-.86 3.69z" fill="#f6c687"/><path d="m26.37 10.59s-.87-6.12-.77-6.28a2.84 2.84 0 0 1 1.2-.47c.13 0 .9 6.68.83 6.78a5.23 5.23 0 0 1 -1.26-.03z" fill="#f6c687"/><path d="m23.11 3.67a11.68 11.68 0 0 1 2.49-1c.3.1.87.44.77.6a9.23 9.23 0 0 1 -1.4.83 9.66 9.66 0 0 1 -1.86-.43z" fill="#f6c687"/><path d="m28.16 10.62a21.15 21.15 0 0 1 .1-3.55c.2 0 .9-.14.9.06s.1 3.53 0 3.56a9 9 0 0 1 -1-.07z" fill="#f0a26c"/><path d="m25.64 29.74s.26-17.92.36-17.92h2.7l-.1 17.92s-2.93.03-2.96 0z" fill="#f6c687"/><path d="m30.39 29.41s-.53-25-.4-25.1 1.43 1.09 1.47 1.19.13 8.22 0 8.32-1.07.53-1 .73 1.16 7.05 1.8 10.57.66 4.42.53 4.42z" fill="#f0a26c"/><path d="m33.88 29.34s-2.23-14.34-2.09-14.56a8.13 8.13 0 0 1 2.49-.93c.17.13 2.79 15.46 2.79 15.46z" fill="#f6c687"/><path d="m32.55 13s-.2-7.38-.06-7.45 1.63-1 1.66-.73-.07 7.94-.17 8-1.43.18-1.43.18z" fill="#f6c687"/><path d="m30.36 3.34a9 9 0 0 1 2.06-.56c.27.1 1.46 1.13 1.33 1.39a2.64 2.64 0 0 1 -1.7.6 9 9 0 0 1 -1.69-1.43z" fill="#f6c687"/><path d="m34.81 12.88s-.2-4.15.17-4.12 1.23-.07 1.3.17.89 10.87.79 11-.53.14-.53.14-1.06-6.85-1.26-7a.81.81 0 0 0 -.47-.19z" fill="#f0a26c"/><path d="m37 22.66c0-.17 1.9-6.72 2.17-6.68s.76.83.86 1.19-2.09 9.68-2.29 9.51a33.19 33.19 0 0 1 -.74-4.02z" fill="#f0a26c"/><path d="m37.57 15.91s-.46-10.74-.3-10.74a3.09 3.09 0 0 1 1.1.77c.07.16.57 8.44.5 8.64a12.79 12.79 0 0 1 -1.3 1.33z" fill="#f0a26c"/><path d="m39.63 14.28s-.26-7.81-.13-7.91a4.56 4.56 0 0 1 1.66 0c0 .1.1 7.71 0 7.78a12.35 12.35 0 0 1 -1.53.13z" fill="#f6c687"/><path d="m39.87 15.11s2.06 0 2.39 0 .73 1.13.67 1.29a7 7 0 0 1 -2.07.3 12.69 12.69 0 0 1 -.99-1.59z" fill="#f6c687"/><path d="m37.74 4.51a18.29 18.29 0 0 1 2-.24c.13.07 1.16 1.1.83 1.23a4.06 4.06 0 0 1 -1.6.17c-.03-.1-1.1-1.03-1.23-1.16z" fill="#f6c687"/><path d="m41.86 14.05s.07-5.69.17-5.69 1.43-.06 1.43.14a51.71 51.71 0 0 1 -1.07 5.41.66.66 0 0 1 -.53.14z" fill="#f0a26c"/><path d="m38.1 29.18s2.57-11.28 2.76-11.44a6.91 6.91 0 0 1 1.93.1s-2.52 11.37-2.66 11.4-2.03-.06-2.03-.06z" fill="#f6c687"/><path d="m41.1 29.11s3-14.06 2.76-14.43a3.32 3.32 0 0 0 -.77-.73s1.3-6.95 1.6-6.88 2.49.46 2.49.69-2.46 15.63-3 18a16.2 16.2 0 0 1 -1.06 3.53z" fill="#f0a26c"/><path d="m44.19 29.34s3.42-12.3 3.52-12.4 3.13-.23 3 0-3.56 12.4-3.86 12.47a9.68 9.68 0 0 1 -2.66-.07z" fill="#f6c687"/><path d="m46.65 15.41s1.23-7.88 1.36-8 1.13-.17 1.13 0-1.09 8-1.19 8.08-1.3-.08-1.3-.08z" fill="#f6c687"/><path d="m45.19 6.27s2.39-.4 2.69-.37.8.5.73.6a13.69 13.69 0 0 1 -3.42-.23z" fill="#f6c687"/><path d="m48 29.64s.3-1.1.47-1.06 1.33 1 1.26 1.13a9.74 9.74 0 0 1 -1.73-.07z" fill="#ef7d7b"/><path d="m18.85 43.54s-2-7.75-1.72-7.91a5.32 5.32 0 0 1 2.26-.37 1.19 1.19 0 0 1 .2 1.06c-.14.1-1.17.27-1.14.4s1.73 6.12 1.67 6.55-1.07.44-1.27.27z" fill="#604f58"/></svg>