<svg height="64" viewBox="0 0 64 64" width="64" xmlns="http://www.w3.org/2000/svg"><path d="m59 11.36c-.28-4.74-2.78-6.11-5.43-7.55l-.25-.14a20.77 20.77 0 0 0 -4.32-1.76 2.44 2.44 0 0 0 -1.17-1.23c-1.07-.54-4.35-.68-4.76-.68a3.63 3.63 0 0 0 -.81.07 2.67 2.67 0 0 0 -1.39.84h-3.52c-1.11 0-6.71.21-8.42 2.22-.35.42-1 1.14-1.95 10.29a4.28 4.28 0 0 0 -1-1.69c0-.44.11-1.2.21-1.86a4.25 4.25 0 0 0 0-2.28 2.4 2.4 0 0 0 -2.19-1.59 2.58 2.58 0 0 0 -1.67.61c-.6.53-.84 1.82-.92 3.12a2.12 2.12 0 0 0 -.83-.17 2.81 2.81 0 0 0 -2 .92c-1.07 1.07-1.18 3.07-1.09 4.57a2.09 2.09 0 0 0 .2.74l.35.68-.12.16a3.54 3.54 0 0 0 -.22 3.46 2.66 2.66 0 0 0 1.77 1.91 1.69 1.69 0 0 0 .38 0 2 2 0 0 0 .87-.2 3.16 3.16 0 0 0 1.48-1.4 2.11 2.11 0 0 0 0-1.66 2.15 2.15 0 0 0 1.47.58 2.85 2.85 0 0 0 2.52-1.69l.06-.1a6.62 6.62 0 0 0 .36-.61c-.07.76-.15 1.55-.23 2.4-.76.52-2.13 1.47-4.37 3.08-1 .7-2.25 1.59-3.63 2.55-8.73 6.11-9.71 7-10.09 8-.14.39-.47 1.26.41 6.62-.81.55-1.83 1.28-2.32 1.71-1.34 1.2-1.81 3.52-1.23 6a6.33 6.33 0 0 0 4.74 5 5.23 5.23 0 0 0 1 .1 4.71 4.71 0 0 0 .85-.08c.2 2 .47 2.42.66 2.7a3.42 3.42 0 0 0 1.27 1.14c.26.17.67.42 1.37.9a107 107 0 0 0 11.57 5.85 14.12 14.12 0 0 0 5.07 1.11 6.63 6.63 0 0 0 2.24-.35c1.59-.57 4.67-3.13 9.57-7.26l.23-.2c4.54-3.82 6.75-5.74 7.41-7.49.54-1.42 2-12.77 2.59-17.91.36-.81 1.45-3.35 2.92-7.21 1.75-4.58 2.66-7.95 2.36-12.22z" fill="#fff"/><path d="m10.83 40.45s-1.05-6-.71-6.85 9.17-6.85 13-9.62 5.09-3.56 5.09-3.56 1.35-15 2.17-16 4.57-1.5 7-1.54 4.53 0 4.53 0 .3-.78.78-.9a16.91 16.91 0 0 1 4.31.43c.52.26.3 1.09.3 1.09a17.45 17.45 0 0 1 5.17 1.87c2.73 1.5 4.45 2.32 4.68 6.1s-.53 6.78-2.29 11.42-3 7.38-3 7.38-2 16.36-2.51 17.74-3.26 3.67-7.08 6.89-7.63 6.44-9 6.93-3.71.19-5.95-.71a102.9 102.9 0 0 1 -11.2-5.66c-1.87-1.27-1.8-1-2.13-1.53s-.49-4.42-.49-4.42a4.5 4.5 0 0 1 -3.18.9 4.4 4.4 0 0 1 -3.26-3.56c-.45-1.94-.07-3.52.64-4.15s3.13-2.25 3.13-2.25z" fill="#604f58"/><path d="m19.82 40.71c.11-.22.26-.45.52-.33a4.67 4.67 0 0 1 1.2 1.62l.46-.32c-.28-.41-1-1.56-.95-1.72s.3-.56.6-.41a4.54 4.54 0 0 1 1.07 1.62l.56-.39c-.22-.37-1-1.49-.73-1.72s.56-.37.71-.22a6 6 0 0 1 .74 1.51l.5-.35a15.65 15.65 0 0 0 -.15-1.68c-.11-.6-.34-1.72-1.24-2s-13.53 7-13.85 7.27c-1.35 1.16-.9 4.11.56 4.75s1.39.3 3.37-.75c1.15-.6 4.74-3.06 7.58-5-.28-.49-1.05-1.69-.95-1.88z" fill="#84767e"/><path d="m27.45 56.92c.12-.3.57-.63.83-.37a36.33 36.33 0 0 1 2.53 3.92 5 5 0 0 0 1 .08c-.63-1.09-2.38-4.14-2.32-4.26s.75-.38 1-.19a35.35 35.35 0 0 1 2.43 4.25 2.63 2.63 0 0 0 .65-.31c-.5-1-2.29-4.35-2.29-4.54s.26-.6.52-.6a22.65 22.65 0 0 1 2.33 3.88c0-.41.1-1 .14-1.86a20.64 20.64 0 0 1 -1.5-3c0-.38.27-.79.49-.82s.71 1 1.08 1.82c0-.57 0-1.21 0-1.94.08-5.24-.37-6.4-.37-6.4a4.19 4.19 0 0 1 -2.4-.75c-1.68-.9-6.85-4.19-6.85-4.19s-9.89 6.72-9.92 6.85c-.07.37.52 4.49.52 4.49a12.09 12.09 0 0 0 2.51 1.39c1.92.92 8.52 4.37 11.57 5.62-.57-.79-2.04-2.82-1.95-3.07z" fill="#f9f2ed"/><path d="m43.1 48.16c.19-.33.42-.6.6-.56a13 13 0 0 1 1.72 2.61c.54-.43 1-.79 1.27-1a22 22 0 0 1 -2.46-3.48c.07-.33.11-.63.45-.56a15.92 15.92 0 0 1 2.71 3.23 9.43 9.43 0 0 0 .41-.88c-.75-.93-2.57-3.1-2.45-3.4s.38-.63.6-.52a22.41 22.41 0 0 1 2.23 2.89c.13-.39.25-.81.35-1.24a17.92 17.92 0 0 1 -2.21-3.25c.08-.33.38-.78.64-.67a12.72 12.72 0 0 1 1.8 2.67c.08-.43.16-1 .25-1.57a17.82 17.82 0 0 1 -1.9-2.43c0-.23.3-.71.41-.71a12.7 12.7 0 0 1 1.68 1.73c.48-3.51 1-8.06.91-8.36-.19-.45-.53.41-4.24 4.08s-10.78 9.36-10.78 9.36 0 .41.15 3.37.11 9 0 9.25a14.62 14.62 0 0 0 2.51-2.17c1.15-1.16 4.73-4 7.1-6-.44-.44-1.85-2.1-1.75-2.39z" fill="#f9f2ed"/><path d="m12.29 39.78c0-.15-.48-4.42-.33-4.5a24.57 24.57 0 0 1 4.11 2.66c-.07.15-3.78 1.84-3.78 1.84z" fill="#f9f2ed"/><path d="m10.27 44.16a2.76 2.76 0 0 1 1.24-.16 1.71 1.71 0 0 1 1.12 1.42c.11.82 0 1.35-.26 1.54s-.64.44-.75.07.15-1.5-.38-1.87a1.49 1.49 0 0 0 -.93-.34c-.31-.06-.38-.59-.04-.66z" fill="#604f58"/><path d="m17 37.46s-5.13-3-5-3.49 16.1-11.49 17.11-11.83 9.8 3.86 13.25 5.24a38.31 38.31 0 0 1 7.56 4.12c0 .19-3.82 3.9-3.82 3.9a6.27 6.27 0 0 0 -.1-1.61 6.35 6.35 0 0 0 -1.31-.23s1.16-1.46 1.46-1.5.52.64.71.72.45-.15.49-.27a.35.35 0 0 0 -.11-.41c-.19-.19-.53-.34-.49-.45s.86-.93.82-1.08a3.29 3.29 0 0 0 -1.68-1.2c-.68-.08-.86 0-1 .22l-.83 1-1.53-.93s.26-1.05 0-1.2a12.17 12.17 0 0 0 -2.27-.46 1.61 1.61 0 0 0 -.6.18l-.9-.63s0-1.24-.22-1.31a9.2 9.2 0 0 0 -2.1 0c-.11.07-.07.3-.26.18a20.08 20.08 0 0 1 -3.6-1.79 5.51 5.51 0 0 0 -2.17-1.2 4.14 4.14 0 0 0 -1.57.26c-.19.15-8.57 5.88-10.71 7.3s-3.85 2.32-3.89 2.58a2 2 0 0 0 .6 1.17l3.33 2.13z" fill="#fcdfc8"/><path d="m25.32 41.05 1.27-.75a5.17 5.17 0 0 0 1.28.68c.75.26 1 .07 1.19.18s4.57 2.51 5.25 2.51 5.91-4.68 6.21-4.75 1.76-.15 1.65 0-7.3 6.62-8.13 6.77-8.72-4.64-8.72-4.64z" fill="#fcdfc8"/><path d="m29.85 20.31s1.61-14.42 2.15-14.79 3.33-.79 5.65-.82a37.39 37.39 0 0 1 3.86.11s.15 2.58-.08 2.66-6.29-.15-6.92 0-.87 1.24-1 1.68-.63 4.65-1 7.49-.51 4.36-.51 4.36z" fill="#f9f2ed"/><path d="m32.92 21.28s1.46-13.14 1.99-13.28 6.36.26 6.51.3.22.22.41.34a16.67 16.67 0 0 0 3.07.82c.3-.08.26-.38.49-.34s3.67 1 4.42 1.31 1.19.57 1.19.82-1.87 10-2.39 12.13-.9 4.19-1.16 4.15-13.11-5.91-14.53-6.25z" fill="#ddeff2"/><path d="m48.57 28s2.58-13.55 3-15.38-.08-2.25-.75-2.74a35.28 35.28 0 0 0 -5.09-1.53s.78-3.11 1.12-3.15 5 1.05 7.07 3.34 1.84 4.3.79 8.61a86 86 0 0 1 -4.49 12.46c-.15-.09-1.65-1.61-1.65-1.61z" fill="#f9f2ed"/><path d="m42.32 7.69a20 20 0 0 1 .56-4.6c.22-.12 2.92-.08 3 .26s-.82 4.9-1.19 5a7.35 7.35 0 0 1 -2.37-.66z" fill="#84767e"/><path d="m19.85 20.12c-.18 0-.93-1.65-.44-2.28s.78-1.31.52-1.8-.56-1.04-.56-1.04-.15-2.39.52-3.07 1-.22 1 0-1.24 2-.64 2.93.82.82.79 1.68-1.19 1.71-1.04 2.12.56.71.45 1a1.41 1.41 0 0 1 -.6.46z" fill="#604f58"/><path d="m23.45 17.24a1.43 1.43 0 0 1 .07-.83s1.24-1 .86-1.87-.93-.93-1-1.57-.11-4.6.19-4.87a.58.58 0 0 1 .86.12 6.1 6.1 0 0 1 -.11 1.34 12.32 12.32 0 0 0 -.19 2.85c.19.56 1.09.9 1.09 2.21a4.09 4.09 0 0 1 -.79 2.24c-.16.42-.87.72-.98.38z" fill="#604f58"/><g fill="#f6c687"><path d="m18.69 36.3-1.94-1.61s6.1-.15 6.32-.42 5.55-8.35 6-8.5 1.65 0 1.58.15-5.54 7.23-5.77 7.75a2.34 2.34 0 0 0 .12 1.76c.23.3 1.35.3 1.61.38s.41.41.41.41a1.64 1.64 0 0 0 -.6.3l-.42.48-.48.07s-1.35-2.28-1.8-2.39a4.62 4.62 0 0 0 -2.21.41z"/><path d="m15.55 33.11c-.36.08-.79.53-.49.71s.56.23.75 0-.07-.74-.26-.71z"/><path d="m16.52 33.08c.18-.07 6.67-.3 6.67-.15s.07.67-.38.71-6.06.18-6.21.07-.19-.6-.08-.63z"/><path d="m17.91 31.88a19.76 19.76 0 0 1 4.19-2.44c.11.15-.07 1.91.15 2s.49.22.56-.15a20.13 20.13 0 0 1 .11-2.17c.15-.23 1.88-1.2 1.91-1a7.58 7.58 0 0 1 0 2.28c-.18.22-1.08 1.72-1.53 1.72s-5.3.06-5.39-.24z"/><path d="m25.58 28.69a6.79 6.79 0 0 1 .3-1.87c.23-.26 2.4-2.06 2.51-1.87s-.34.71-.52 1a29.58 29.58 0 0 1 -2.29 2.74z"/><path d="m29.21 24.84s0-.45.34-.53a2.37 2.37 0 0 1 1.54 0c.6.26 1.64.93 1.61 1.2s-.94 2.8-1.2 2.8a6.81 6.81 0 0 1 -1.35-.6 14 14 0 0 0 1.54-2.47c-.08-.26-.64-.22-.94-.26s-1.54-.14-1.54-.14z"/><path d="m25.81 33.56c.22 0 1-.07 1.08.11s-.11.75 0 1 .38.63.38.63-.34.27-.53.15-1.19-.41-1.19-.67.07-1.18.26-1.22z"/><path d="m26.56 32.66s3-4.41 3.37-4.3 1.46.56 1.38.78-.31 1.86-.52 1.86-2.74 0-2.85.3a1.83 1.83 0 0 0 0 1.08 1.93 1.93 0 0 1 .19.45z"/><path d="m29 32.89s-.3-.94-.19-1.05a32.31 32.31 0 0 1 5.32-.3c0 .19.15.37-.08.49s-5.05.86-5.05.86z"/><path d="m27.9 34.05c.12 0 11.57-2.85 11.69-2.7a7.25 7.25 0 0 1 .29 2.32c-.15.12-11.53 2.25-11.68 2.18a8.24 8.24 0 0 1 -.3-1.8z"/><path d="m27.23 36.93s8.09-1.61 8.16-1.42a8.82 8.82 0 0 1 -.11 1.57l-8 1.57z"/><path d="m27.75 39.48a62.25 62.25 0 0 1 6.59-1.31c.08.18.45.26-.11.56a51.51 51.51 0 0 1 -6.4 1.46c-.19-.08-.08-.71-.08-.71z"/><path d="m29.89 40.53c.26 0 2-.6 2.13-.34s.15 1.23-.07 1.27a.85.85 0 0 1 -.56 0c-.15-.11-1.5-.93-1.5-.93z"/><path d="m33 41.87c0-.11-.23-1.42.07-1.42s1.69-.11 1.65.15-.11 2.17-.41 2.17-1.31-.9-1.31-.9z"/><path d="m35.32 41.91c0-.15.15-2.13-.12-2.21s-1.79-.37-1.79-.37 1.57-.71 1.68-.53 0 .6.38.57.86-.27.82 0 0 1.87-.11 2.09-.86.45-.86.45z"/><path d="m36.81 40.94c0-.19-.07-1.61.19-1.69s2 0 1.8.19a24.12 24.12 0 0 1 -1.99 1.5z"/><path d="m35.69 38.43s-.11-.64.08-.67 7-.75 6.89-.53-.19.71-.19.71z"/><path d="m36.18 36.52c-.08-.11-.41-1 0-1.12s9.29-1.24 9.25-1 .37 1.24-.15 1.43-9.1.69-9.1.69z"/></g><path d="m43.33 37.53c0-.15-.15-.94.07-.94s1.28-.15 1.16.08a6.35 6.35 0 0 1 -1.23.86z" fill="#fcdfc8"/><path d="m31.69 30.68a43.46 43.46 0 0 1 1.72-4.49c.18 0 .63.15.67.33a25.44 25.44 0 0 1 -1.16 4 10 10 0 0 0 -1.23.16z" fill="#f6c687"/><path d="m33.59 30.6c0-.11 1-4.15 1.43-4.11s.78.3.75.45a22.94 22.94 0 0 1 -1.54 3.7 1.32 1.32 0 0 1 -.64-.04z" fill="#f6c687"/><path d="m34.68 31.58c.11-.23 1.8-4.91 2.06-4.87s1.42.23 1.42.38a2.34 2.34 0 0 1 -.3.82c-.11.15-1 3.14-1.23 3.26a19.2 19.2 0 0 1 -1.95.41z" fill="#f6c687"/><path d="m37.56 30.79s.79-2.62 1-2.54.79.33.64.56-.9 1.87-1.05 1.94a1.68 1.68 0 0 1 -.59.04z" fill="#f6c687"/><path d="m39.29 30.6c0-.11.74-2 1.16-2s1.38.41 1.31.71a22.38 22.38 0 0 1 -1.39 2.14l-.37-.92z" fill="#f6c687"/><path d="m40.6 33.9c0-.11.11-1.69.11-1.69s1.23-2 1.46-1.91 1.23.83 1.2 1a15.56 15.56 0 0 1 -2 2.62 4.17 4.17 0 0 1 -.77-.02z" fill="#f6c687"/><path d="m42.66 33.52s2.47-3.63 2.77-3.51 1.19.48 1.08.67-3 3-3.14 3-.71-.16-.71-.16z" fill="#f6c687"/></svg>