<svg height="64" viewBox="0 0 64 64" width="64" xmlns="http://www.w3.org/2000/svg"><path d="m48.86 64a8.22 8.22 0 0 1 -4.22-.81c-.46-.29-1.39-.88-8.58-14.57-2.6-.28-9.12-1.46-17.12-6.46-6.78-4.24-15-10.34-15.77-15.36v-.14c-.21-1.2-.75-4.38 3.16-7.8s14.11-9.71 24.1-12.68a86.2 86.2 0 0 1 16.07-3.45h.4c.68-.09 1.62-.12 2.28-.14a10.06 10.06 0 0 1 5.87-2.59h.51a5.25 5.25 0 0 1 4.65 2.65 5.35 5.35 0 0 1 .23 5.16 10.27 10.27 0 0 1 -2.7 2.87 53.14 53.14 0 0 1 -.54 13.56c-1.27 6.76-2.86 11.25-5.48 15.42-1 1.66-1.73 2.69-2.2 3.35 1.64 4.84 4.7 14 4.79 15.7a4.87 4.87 0 0 1 -3.08 5.07 10.57 10.57 0 0 1 -2.37.22z" fill="#fff"/><path d="m5.09 26.52c-.13-.87-.81-3.31 2.5-6.21s13.41-9.31 23.41-12.31a82.55 82.55 0 0 1 16.16-3.39 27.63 27.63 0 0 1 2.84-.14 7.92 7.92 0 0 1 5.21-2.47 3.52 3.52 0 0 1 3.55 4.9 10.09 10.09 0 0 1 -3.06 2.83 52.39 52.39 0 0 1 -.41 14.16c-1.3 6.92-2.87 11-5.21 14.74s-2.74 4-2.74 4 4.94 14.47 5 16.18a3 3 0 0 1 -1.66 3.1c-.81.22-4 .27-5-.36s-8.41-14.79-8.41-14.79-7.46-.09-17.3-6.24-14.43-11.02-14.88-14z" fill="#604f58"/><path d="m46.47 39.71c-.91-.48-4.11-2.2-4-2.43s.41-.81.54-.81 3.05 1.61 4.12 2.3c.23-.36.48-.77.75-1.21a30.71 30.71 0 0 1 -4-2.21c-.05-.27.31-.9.54-.9a27.29 27.29 0 0 1 4 2.11q.38-.66.75-1.41a34.78 34.78 0 0 1 -4.3-2.32c0-.27.18-1 .4-1a39.74 39.74 0 0 1 4.38 2.34c.19-.38.38-.79.57-1.21-1-.5-4.68-2.32-4.72-2.43s0-.86.22-.9a35.77 35.77 0 0 1 5 2.31c.22-.52.45-1.05.67-1.62-1.14-.58-5.09-2.6-5.12-2.76s.27-.9.45-.9 3.8 1.71 5.13 2.46c.21-.58.4-1.16.57-1.75-1.41-.74-5.76-3-5.84-3.13s.23-.81.5-.81 4.41 2.19 5.63 2.89c.15-.6.29-1.19.41-1.78-1.3-.66-5.57-2.86-5.69-3.05s.54-.85.86-.85a55.16 55.16 0 0 1 5.08 2.61c.11-.67.21-1.33.29-2a50.25 50.25 0 0 1 -5.19-2.53c0-.22.27-.81.58-.81a34.88 34.88 0 0 1 4.75 2.13q.09-.95.15-1.83c-.64-.29-3.28-1.48-3.32-1.6s.22-.85.67-.85a10.41 10.41 0 0 1 2.7 1.14 49 49 0 0 0 -.11-6 21.81 21.81 0 0 1 -2.92 3.19c-1.31 1-4.68 4.14-19.38 10.16s-22.77 4.67-22.77 4.67c1.85 2.29 5.62 5.21 14.52 10.43a36.13 36.13 0 0 0 15.37 5.21c.29.23 8.29 15.24 8.29 15.24s2.87.22 3.19-.32-5.44-17.3-5.35-17.62c.07-.13.68-.79 1.63-2.15z" fill="#ef7d7b"/><path d="m7 25.82c-.34-.45 2.07-5.35 11.87-10.29s20.96-8.18 26.49-8.63 7.06.67 7.37 1.3-.45 1.75-.9 2.25-7.23 6.65-20.18 11.55-17.43 5.13-19.91 5.13-4.13-.55-4.74-1.31z" fill="#f7babe"/><path d="m52.33 5.05a8.71 8.71 0 0 1 3.32-.85c1.22.14 1.44.9 1.22 1.48s-1.87 1.8-1.87 1.8a3.37 3.37 0 0 0 -2.67-2.43z" fill="#ef7d7b"/><g fill="#604f58"><path d="m14.8 21.86a37.92 37.92 0 0 1 8.31-5.07c5.08-2.3 7.69-2.75 7.92-2.7s.13.94.13.94-2.79.27-8 2.92a59.41 59.41 0 0 0 -7.5 4.59.91.91 0 0 1 -.86-.68z"/><path d="m16.06 30.94a13.9 13.9 0 0 0 5.71-.31 50.71 50.71 0 0 0 6.42-2.25.84.84 0 0 1 .18.81 15.12 15.12 0 0 1 -6.29 2.56c-3.68.72-5.57.41-5.93.23s-.27-.86-.09-1.04z"/></g></svg>