<svg height="64" viewBox="0 0 64 64" width="64" xmlns="http://www.w3.org/2000/svg"><path d="m30.91 64a3.33 3.33 0 0 1 -2.72-1.43 3.3 3.3 0 0 1 -1.84.64 3.21 3.21 0 0 1 -3.41-2 4.61 4.61 0 0 1 .13-3.28 26.27 26.27 0 0 1 -11.54-3.26c-7.46-4.32-10.59-9.12-10.45-16.05.16-8 3.13-14 8.13-16.36a42.27 42.27 0 0 1 5.87-2.21 30.08 30.08 0 0 0 6.71-2.79c.1-.06 2.47-1.51 1.27-4.94a38.34 38.34 0 0 0 -2.17-4.87c-1-1.95-1.54-3-1.15-4.2.77-2.25 3.18-2.41 4.2-2.45h.27a7.81 7.81 0 0 1 4 1.24 5.39 5.39 0 0 1 3.56-1.9 3 3 0 0 1 1 .17 3.39 3.39 0 0 1 1.49 1 3.82 3.82 0 0 1 2.26-.79h.38a5.81 5.81 0 0 1 2.1.71 4 4 0 0 1 2.53-1.23 3 3 0 0 1 2.56 1.21 2.27 2.27 0 0 1 .24 2.11 6 6 0 0 1 -.4.72c-.6 1-2.44 3.92-2.58 6.49 0 .61-.1 1.22-.17 1.81-.32 2.86-.46 4.16 2.92 5.65 1.41.63 2.82 1.15 4.18 1.66 4.07 1.53 7.91 3 10.73 6.46 4.08 5 4.56 12.72 3.29 17.73-1.43 5.67-7.37 10.21-12.27 12a41.07 41.07 0 0 1 -8.48 2.16 3.22 3.22 0 0 1 .26 2.16c-.06.26-.09.44-.11.56a2.3 2.3 0 0 1 -1.61 2 2.53 2.53 0 0 1 -.83.13h-.5l-.13.09a3.37 3.37 0 0 1 -2.15.8 4.43 4.43 0 0 1 -1.1-.16 4.12 4.12 0 0 1 -1.62-.91 4.06 4.06 0 0 1 -2.65 1.33z" fill="#fff"/><path d="m22.77 18.93c1.23-.73 3.54-3.18 2.12-7.25s-3.57-7-3.31-7.82 1-1.06 2.45-1.12a5.86 5.86 0 0 1 3.58 1.26c.67.53.86.47 1.06.34s2.12-2.66 3.45-2.19.88 1.91 1.79 1.71 1.52-1.52 2.78-1.39 2.12 1.13 2.72.86 1.46-1.39 2.12-1.39 1.13.33 1 .66-2.92 4.18-3.12 7.82-1.66 6.9 3.91 9.35 10.81 3.38 14.19 7.56 4.17 11.07 2.91 16-6.76 9.12-11.07 10.67a38.31 38.31 0 0 1 -8.61 2.12c-1 .13-2.59.4-2.59.4s2.06 2.12 1.79 3.11-.07 1.13-.46 1.26-.73-.2-1.46.13-.93 1-2.12.67-1.59-1.69-2.12-1.55-1.86 2-2.72 1.92-1.26-.4-1.39-.86-.07-2.06-.6-1.79-2 1.85-2.72 1.85-1.32 0-1.59-.73a3 3 0 0 1 .2-2.12l1.13-2.41a25.1 25.1 0 0 1 -13.59-3c-6.43-3.73-9.61-7.78-9.5-14.34s2.32-12.39 7-14.65 8.13-2.34 12.77-5.08z" fill="#604f58"/><path d="m45.71 48.09a.73.73 0 0 1 .88-.53 16.13 16.13 0 0 1 2 2.6c.4-.16.79-.33 1.16-.51-.82-.95-2.59-3.06-2.59-3.5s.84-.84.84-.84 2.32 2.69 3 3.69c.46-.27.9-.54 1.31-.83a41.91 41.91 0 0 1 -3.31-3.96c0-.31.62-.89.89-.76a36.79 36.79 0 0 1 3.51 3.86c.38-.33.74-.67 1.07-1a35.12 35.12 0 0 1 -3.7-3.85 1 1 0 0 1 .71-.8 30.36 30.36 0 0 1 3.76 3.75 14.32 14.32 0 0 0 .84-1.2c-1-1.06-3.32-3.51-3.32-3.7s.57-.88.79-.84a38 38 0 0 1 3.26 3.22 11.47 11.47 0 0 0 .58-1.51 16.2 16.2 0 0 1 -2-2.19.86.86 0 0 1 .62-.93 5.09 5.09 0 0 1 1.78 1.14 14.57 14.57 0 0 0 -1-7c-1.81-4.81-6.49-6.89-10.25-8.3s-8.66-3.94-9.68-7.25.58-10.12.58-10.12-.27-.53-.62-.44a19.48 19.48 0 0 0 -2.3 1.81 1.39 1.39 0 0 1 -.88.88c-.64.14-2.29-2.16-2.64-2.47s-1.15 1.86-1.81 2-3.19-2.35-3.68-2.84a1.26 1.26 0 0 0 -1.23-.31s.61 1.11 1.72 3.54 2.16 6 1.1 9.37-6.27 4.86-9.36 6-7.52 3-9.9 6.45-2.12 9.77-.62 13.48 6.67 6.72 11.09 7.65 6.36 1.06 6.58.88-.17-.13-1.14-1.24a22.51 22.51 0 0 1 -4.75-10.16 22.59 22.59 0 0 1 2.16-14.09c1.84-3.24 4.18-4.33 4.75-4.33a1.63 1.63 0 0 1 1.37 1.5c0 .71-2.34 1.19-4.15 4.51s-1.81 10-.71 14.76 5.92 8.17 6.23 8.39a24 24 0 0 0 5.21.22 1.82 1.82 0 0 0 1.26-.77 10.05 10.05 0 0 1 -2.18-1.66c-.09-.35.22-1.1.48-1.06a10.57 10.57 0 0 1 2.58 1.7c.25-.3.53-.65.87-1.08l.15-.19a27.73 27.73 0 0 1 -3.55-3c0-.3.09-.7.39-.7a23.56 23.56 0 0 1 3.88 2.72 11.53 11.53 0 0 0 .87-1.55c-1-.73-3.86-2.88-3.86-3.21s0-1 .44-.92a25.87 25.87 0 0 1 3.94 2.83 15.24 15.24 0 0 0 .45-1.63 27.7 27.7 0 0 1 -3.73-2.79c-.17-.45 0-.93.31-1a22.79 22.79 0 0 1 3.7 2.18c.07-.52.13-1.07.18-1.66a21.12 21.12 0 0 1 -2.86-2.11c-.22-.39-.13-1.06.09-1.15a14.64 14.64 0 0 1 2.86 1.64c0-1 0-2.07 0-3.27-.22-8-4.2-10.34-4.51-11.27s.93-1.81 1.55-1.55 5.26 4.42 6 14.54-5 15.16-4.77 15.34 2.38-.1 6.26-1.21c-.41-.53-1.09-1.5-1-1.75s.44-.71.71-.62a8.18 8.18 0 0 1 1.52 2l.6-.18.61-.22a9 9 0 0 1 -1.39-2.6z" fill="#f9f2ed"/><path d="m25.47 4.39a2.62 2.62 0 0 1 1.68.31c.35.4 1.5 1.11 1.94.8s2.39-2.21 2.74-2.08.75 1.58 2.17 1.5 1.68-1.46 2.7-1.37 1.24.75 1.72.71.75-.22.62.35-.49 1.11-.71 1.11-.88-1-1.37-.71-3 2.83-3.71 2.61-1.1-2.12-2.12-2-.84-.14-1.19.48-.75 1.5-1.11 1.11a19.43 19.43 0 0 0 -3.36-2.82z" fill="#fcdfc8"/><g fill="#604f58"><path d="m9.83 38.77a9.47 9.47 0 0 1 1.17-6.49c1.9-3 3-4 3.44-3.89s.58.7.58.7-2.74 2.21-3.41 4.73a16.25 16.25 0 0 0 -.61 4.55c0 .49-1.17.53-1.17.4z"/><path d="m28.39 28c.32-.23 1.1.31.92.79a18.76 18.76 0 0 0 -2.69 9.86c.17 5.52 2.61 10.07 2.25 10.34s-.31.31-.48.18a20.39 20.39 0 0 1 -3.1-9.81c-.17-5.27 1.99-10.58 3.1-11.36z"/><path d="m46.68 27.59c-.14-.29.8-.71.8-.71a4.64 4.64 0 0 1 3.84 3.05c1.24 3 1.1 5.08.84 5.22s-.62-.18-.62-.18a5.88 5.88 0 0 0 -1.9-5.13c-2.43-2.12-2.78-1.9-2.96-2.25z"/><path d="m28.52 10.27c.17-.09.84-.49 1.1-.22s.89 2.21.71 5.21 0 4.24-.44 4.24-.44.31-.49-.17a40.26 40.26 0 0 0 -.31-5.83c-.4-2.21-.57-3.23-.57-3.23z"/><path d="m33.51 9.78s1.06-.35 1.11.09a25.72 25.72 0 0 0 -1.06 7.47c.17 4.06.17 4.82.08 4.95s-.35.22-.53-.09a28.58 28.58 0 0 1 -.53-6.54 28.21 28.21 0 0 1 .93-5.88z"/></g><path d="m26.13 57.82a8.38 8.38 0 0 1 1.77-2.35 14.27 14.27 0 0 1 2.7-.08c1.9 0 3.13-.14 3.62-.18s.57 0 .79.22a6.59 6.59 0 0 1 2 1.37c1 1.06 1.81 2.43 1.41 2.7a15.73 15.73 0 0 1 -1.86 1 1.15 1.15 0 0 1 -1.37-.18c-.13-.26-.66-1.86-1.32-1.77s-2.35 2.45-2.7 2.45-.62-.18-.57-.4-.18-2.08-.76-2.39a1.38 1.38 0 0 0 -1.45.09c-.31.22-1.9 2-2.39 2s-.18-1.82.13-2.48z" fill="#fcdfc8"/></svg>