<svg height="64" viewBox="0 0 64 64" width="64" xmlns="http://www.w3.org/2000/svg"><path d="m19.63 64a6.74 6.74 0 0 1 -4.21-1.48c-3.36-2.6-2.77-6.59-2.48-8.5.41-2.73 1.78-5.64 3.52-9.31l.36-.75a25.21 25.21 0 0 0 2.12-5.52 3.36 3.36 0 0 0 -1.29-.37h-1.55c-.67 0-1.47 0-2.33 0a24.57 24.57 0 0 1 -7.64-.84 8.17 8.17 0 0 1 -5.21-6.47c-.14-1.63.28-4.76 4.69-7.19 1.65-.92 4.51-1.26 7.53-1.63 1.34-.16 2.6-.31 3.64-.5l.95-.19a12.55 12.55 0 0 1 -2.73-4.61c-1.87-5.4-.83-9.71 3.19-13.19a14 14 0 0 1 9-3.45 11.59 11.59 0 0 1 6.51 2 13.14 13.14 0 0 1 5.59 12c-.07.45-.17.9-.28 1.35 1-.51 2.13-1.11 3.17-1.74 2.82-1.78 5.26-2.61 7.26-2.61a5.4 5.4 0 0 1 2.86.75 7.87 7.87 0 0 1 3.21 5.19 7.81 7.81 0 0 1 -1.51 6.24 21.62 21.62 0 0 1 -4.71 4.26 12 12 0 0 0 -2.43 2.08 2.39 2.39 0 0 0 -.53 1.76.91.91 0 0 0 .31.58c.36.24 1.32.75 2.33 1.29a75.26 75.26 0 0 1 8.2 4.85c4 2.85 6.1 5.11 5.92 8.83-.21 4.34-3.23 7.07-8.09 7.31h-.59c-4.28 0-10.43-2.14-13.06-3l-.84-.29a1.6 1.6 0 0 0 -.51-.15c-.89 0-2.18.8-3.85 2.36-3.41 3.19-8.28 7.63-11.21 9.27a11 11 0 0 1 -5.31 1.67z" fill="#fff"/><path d="m6.56 25.26c2-1.09 7.25-1.31 10.57-1.92s5.2-1.18 4.58-1.57a9.14 9.14 0 0 1 -4.84-5.77c-1.53-4.42-1-8 2.62-11.1s9.08-4.09 13.19-1.34a11.35 11.35 0 0 1 4.76 10c-.35 2.19-1.44 4.85-1.22 5s.08.22.39.05 3.75-1.71 6.64-3.45 6.11-3 8-1.8a6.29 6.29 0 0 1 1.26 8.64c-2.45 3.14-5.68 4.37-7.17 6.38s-1 4.23.27 5.11 6.72 3.4 10.43 6.07 5.25 4.41 5.11 7.16-1.74 5.28-6.24 5.45-12.19-2.71-13.8-3.23-3.45.08-6.25 2.7-7.95 7.36-10.86 9-5.29 2-7.43.35-2.14-4.06-1.74-6.68 1.88-5.64 3.71-9.52 2.62-6.42 2.27-7.17-1.75-1.39-3.06-1.48-7.9.39-11-.7-6.92-6.44-.19-10.18z" fill="#604f58"/><path d="m50.5 38.85a40.35 40.35 0 0 1 -6.07-3.58c-1.79-1.49-3.28-3.5-2.93-5.55s4.06-5.29 4.06-5.29.35-.26.22-.56-.79-.13-1.27-.09-.91-.44-1.09-.92.22-1.18.13-1.88-.39-.35-1-.56-.3-1.58-.13-1.88 0-.22-.39-.26-1.18.7-3.1 1.7a9.62 9.62 0 0 1 -4.24 1.27c-.52-.09-1.22-1.1-1.31-1.53s.09-.53 1.05-2.75 1.22-5.16-.83-9.48-7.82-4.37-11.67-1.79-4.23 6.37-2.57 10.22 4 4.19 4.54 5-.09 1.79-2.53 3.23-7.78 2.1-7.78 2.1c-.39.22-.22.79 0 1s1.39.18 1.79.66-.18 1-.18 1.57 1 .18 1.44 1.62-1.66 2.71-1.66 2.71 4.24-.22 6.16.39 2.84 2.09 2.41 4.93-4.46 10.27-4.46 10.27a4.35 4.35 0 0 1 2.1.22c.74.39.65.91 1 1.13s.48-.13 1.44-.17 1.05 1.18 1.57 1.66 1-.18 2.1-.22 1 2.09 1.09 2.31.22 0 .92-.74l.21-.21-.2.06a14.66 14.66 0 0 1 -.92-2.93c.14-.28.64-1.06.92-.64a13.09 13.09 0 0 1 1 2.74l1-.85c-.45-1.24-1.34-3.76-1.17-4s.83-.74 1-.55a32.63 32.63 0 0 1 1.29 3.62l.93-.83a17.2 17.2 0 0 1 -1.06-3.37 1.13 1.13 0 0 1 .73-.88 20.06 20.06 0 0 1 1.38 3.4c1.87-1.48 3.73-2.79 4.59-2.92 2-.31 7.08 1.7 7.08 1.7s.08-.18.52-.92 1.27-.83 1.57-1.22-.13-.87-.08-1.49.82-.87 1.44-1.39 0-.79.52-1.62 1.75-1.18 1.92-1.31-.22-.43-1.48-1.13z" fill="#f0a26c"/><path d="m12.32 26.36a1.4 1.4 0 0 0 .35 1.64c.83.61 2 .61 1.66 1.09s-.74 1.13-.21 1.48 1.13.13 1.09 1.05a3 3 0 0 1 -1.79 2.19c-.53 0-6-.31-7.34-1.18s-1.4-3.41.57-4.94 5.67-1.33 5.67-1.33z" fill="#f6c687"/><path d="m18.44 50.64a2.65 2.65 0 0 1 2.23.22c.43.48.17 1.57 1 1.48s1.66-.78 2.36.09.21 1.27 1.22 1.22 1.35-.35 1.75 0a1.33 1.33 0 0 1 .35 1.27 14.45 14.45 0 0 1 -5.2 3.84c-2.4.92-3.23 1.14-4.33 0s-.3-5.41.62-8.12z" fill="#f6c687"/><path d="m47.57 47.93c-.28-.15.31-.7 1-1s1.14-.48 1.09-1-.87-1.35.22-2 1.14-.56 1.23-1.13-.09-1.05.52-1.49a3.36 3.36 0 0 1 1.83-.78c.4.08 4.85 2.92 5.24 4.93s-.43 3.54-2.96 4.04-7.03-.96-8.17-1.57z" fill="#f6c687"/><path d="m43.38 17.75s4.93-3.19 6.77-2 1.48 3.54-.18 5.51a6.86 6.86 0 0 1 -3 2.31s-.35-1.09-1-1-.91.44-1.31 0 .61-1.44.13-2.14-.43-.35-1-.44-.74-.22-.69-.87a6.62 6.62 0 0 1 .28-1.37z" fill="#f6c687"/><g fill="#604f58"><path d="m29.62 27.84a1.82 1.82 0 0 1 2.71-.65 1.7 1.7 0 0 1 -.7 2.79 1.62 1.62 0 0 1 -2.01-2.14z"/><path d="m21.78 11.18a1.48 1.48 0 0 1 2.22-.53 1.39 1.39 0 0 1 -.57 2.28 1.32 1.32 0 0 1 -1.65-1.75z"/><path d="m28.33 9.74a1.48 1.48 0 0 1 2.21-.53 1.38 1.38 0 0 1 -.54 2.27 1.32 1.32 0 0 1 -1.67-1.74z"/><path d="m31.06 34.26a1.82 1.82 0 0 1 2.71-.65 1.7 1.7 0 0 1 -.7 2.79 1.62 1.62 0 0 1 -2.01-2.14z"/><path d="m33 40.64a1.81 1.81 0 0 1 2.69-.64 1.71 1.71 0 0 1 -.7 2.8 1.62 1.62 0 0 1 -1.99-2.16z"/><path d="m23.68 15.7a6.09 6.09 0 0 0 3.19 0 13.18 13.18 0 0 0 2.79-1.66c.22-.13.62.27.66.57s-.87 1.79-3.19 2.23-3.41-.22-3.49-.39-.4-.71.04-.75z"/></g></svg>