<svg height="64" viewBox="0 0 64 64" width="64" xmlns="http://www.w3.org/2000/svg"><path d="m31.92 64a37.18 37.18 0 0 1 -15.92-3.55c-3.64-1.92-5.44-5.06-5.58-7.16 0-.29-.46-33.69.13-35.65a11.28 11.28 0 0 1 1.82-3.12l.06-.07a2.59 2.59 0 0 1 -1-1.38 55.7 55.7 0 0 1 0-7.29c.38-2.13 5.32-4.78 13.65-5.43 2.92-.23 5.7-.35 8.4-.35 5.53 0 10 .49 12.7 1.38 3.42 1.14 5.68 2.72 6.22 4.35a27.09 27.09 0 0 1 .24 7.07 3.27 3.27 0 0 1 -.59 1.06 5.7 5.7 0 0 1 1.44 2.58c.4 2 .3 35.45.11 36.92-.37 2.9-1.93 4.45-4.17 5.89a38 38 0 0 1 -16.18 4.75c-.44 0-.89 0-1.33 0z" fill="#fff"/><path d="m15.29 14.23a12.31 12.31 0 0 1 -2-1.69c-.09-.31-.09-5.93 0-6.38s3.07-3.17 12-3.88 16.71-.28 20.28.94 4.82 2.58 5 3.12a32.09 32.09 0 0 1 .23 5.89c-.18.58-1.3 1.38-1.47 1.47s2 1.78 2.27 3.12.36 34.2.09 36.3-1.29 3.21-3.3 4.5a36 36 0 0 1 -15.22 4.38 35.66 35.66 0 0 1 -16.27-3.3c-3.12-1.65-4.46-4.2-4.55-5.58s-.36-33.62 0-35a11.52 11.52 0 0 1 2.94-3.89z" fill="#604f58"/><path d="m39.1 57.26c.27-.26.45-.58.72-.49a6.47 6.47 0 0 1 1.27 2.1c.49-.13 1-.28 1.42-.43-.6-.91-1.75-2.73-1.62-3s.44-.62.8-.53a10.48 10.48 0 0 1 2 3c.51-.2 1-.41 1.4-.62a32.74 32.74 0 0 1 -2.46-3.28c0-.27.76-1 1-.89a18 18 0 0 1 2.45 3.64c.39-.22.73-.44 1-.64a37.41 37.41 0 0 1 -2.58-3.81.7.7 0 0 1 .72-.58c.29 0 2.19 2.51 2.78 3.64a4.22 4.22 0 0 0 .79-1.11c-.86-1.06-3.26-4-3.26-4.18s.67-1 .94-.84a30.58 30.58 0 0 1 2.83 3.76 14.86 14.86 0 0 0 .25-1.79 21.19 21.19 0 0 1 -2.42-2.79.81.81 0 0 1 .49-.94c.23-.06 1.4 1.08 2 1.84 0-.65 0-1.72 0-3.08-.6-.5-1.83-1.57-1.83-1.88s0-.89.36-1a2.66 2.66 0 0 1 1.48.67c0-9.34 0-26.38 0-26.76a8.68 8.68 0 0 0 -2.36-2.54 47.54 47.54 0 0 1 -15.7 2.54c-9.54 0-13.63-2.42-13.95-2.18a19.16 19.16 0 0 0 -3.08 3.75c-.36.89-.49 32.68-.27 33.35a8.8 8.8 0 0 0 5.73 5.52 40 40 0 0 0 16.1 2 26.22 26.22 0 0 0 3.71-.54c-.38-.6-.91-1.7-.71-1.91z" fill="#ddeff2"/><path d="m15.38 11.6c-.07-.11-.18-4.46.09-4.5a24.18 24.18 0 0 0 5.26 2.45c4.06 1.34 11.46 1.78 16.06 1.47a35.7 35.7 0 0 0 10.56-2.59c1.12-.53 1.34-.84 1.43-.66a19.54 19.54 0 0 1 0 3.25c-.09.14-3.66 3.21-10.53 4.06a53.58 53.58 0 0 1 -15.69-.45c-2.36-.49-6.91-2.58-7.18-3.03z" fill="#83a7d8"/><path d="m16.85 6.79c-.24-.27 3.61-2.95 16.28-2.64s14.58 2.41 14.58 2.95-7.45 3.3-14.94 3.07-14.89-2.27-15.92-3.38z" fill="#adceea"/><path d="m18 27c0-.28.49-1 1-.85s4.64 1.6 12.62 1.87 15.2-1.57 15.38-1.35a2.36 2.36 0 0 1 .14.85s-.27 18-.36 18.42-4.41 2.81-14.58 2.72-14.2-2.9-14.54-3.21.34-17.66.34-18.45z" fill="#604f58"/><path d="m19.39 27.43c.38-.16 4.78 1 13 1.43a65.78 65.78 0 0 0 13.69-.8c.13.13-.36 16.76-.49 17.16s-4.28 2.72-12.4 2.55-14.27-2.41-14.53-2.9.42-17.3.73-17.44z" fill="#f9f2ed"/><path d="m18.41 21.59c-.1-.43.27-2.19.72-2.19s.75.05.75.41-.08 2.19-.53 2.19a.94.94 0 0 1 -.94-.41z" fill="#604f58"/></svg>