<svg height="64" viewBox="0 0 64 64" width="64" xmlns="http://www.w3.org/2000/svg"><path d="m33.86 64a64.74 64.74 0 0 1 -14.33-1.47c-4-1.12-5.39-3-6.64-6a35.67 35.67 0 0 1 -2.36-11.78c-.3-5.17-.26-16.39-.19-18.95 0-1 0-1.57 0-1.91a3.06 3.06 0 0 1 .31-1.7 37.6 37.6 0 0 1 5.11-6 25.64 25.64 0 0 1 3.24-2.7v-.66a4.66 4.66 0 0 1 -2.31-3.91c.07-3.23 4-4.06 5.29-4.33h.12c.06-2.23.18-2.4.5-2.83 1.05-1.45 6.02-1.76 7.85-1.76h.77c.1 0 9.66.38 10.22 3.44a13.56 13.56 0 0 1 .1 1.36 11.19 11.19 0 0 1 4.26 1.6 3.71 3.71 0 0 1 1.41 2.71 4.29 4.29 0 0 1 -1.21 3.15 6.22 6.22 0 0 1 -1.27.94v.06a28.35 28.35 0 0 1 5 4.27c3.35 3.45 3.88 5.09 4 6.24.07.64-.68 11.84-2.08 20.91l-.65 3.85c-1 6.74-1.41 9.27-2.31 10.92-1.34 2.45-5.56 4.07-11.57 4.45-.98.1-2.12.1-3.26.1z" fill="#fff"/><path d="m20.93 14.56v-2.87s-2.36-.95-2.33-2.69 3.06-2.32 3.89-2.51a5.2 5.2 0 0 1 1.51-.15s0-3.3.15-3.45 2.65-1 7-.94 8.31 1.45 8.38 1.85.11 2.65.11 2.65 3.81.55 4.94 1.46a2 2 0 0 1 0 3 6.61 6.61 0 0 1 -1.82 1.09v2.4s2 .84 5.56 4.47 3.38 4.76 3.41 5.09-.65 11.26-2.07 20.41-1.77 12.55-2.66 14.15-4.27 3.08-10 3.48-13.73-.4-17-1.31-4.29-2.25-5.38-4.9a33.62 33.62 0 0 1 -2.16-11.19c-.29-5.12-.25-16.35-.18-18.78s-.11-2.36.11-2.8a39.1 39.1 0 0 1 4.72-5.45 17.79 17.79 0 0 1 3.82-3.01z" fill="#604f58"/><path d="m25.8 3.69c-.05-.29 3.49-.58 6.21-.47s6.21.69 6.29 1-3.86.51-6.62.47-5.81-.53-5.88-1z" fill="#fcdfc8"/><path d="m24.93 4.64c.21 0 1.23.83 6.75.94s6.94-.47 7-.29a24.26 24.26 0 0 1 0 3.2 31.93 31.93 0 0 1 -7.11.51c-3.45-.11-6.39-.69-6.61-1a17.08 17.08 0 0 1 -.03-3.36z" fill="#f6c687"/><path d="m21.07 8.49a9.32 9.32 0 0 1 2.15-.33c.4.07.91.11.91.11a2.33 2.33 0 0 0 1.23 1.05c.91.37 2 .62 6.5.66s6.76-.51 7.16-.77a1.45 1.45 0 0 0 .55-.65 7.48 7.48 0 0 1 2.29.26c1 .32 1.27.58 1.16.9s-4.29 1.28-11.52 1.17-9.7-.89-10.5-1.24a.59.59 0 0 1 .07-1.16z" fill="#adceea"/><path d="m23.11 12.05a78.22 78.22 0 0 0 8.54.47 60.18 60.18 0 0 0 9-.33s0 4.25 0 4.51a1.63 1.63 0 0 0 .76 1.05 1.21 1.21 0 0 0 1.13-.29 5.92 5.92 0 0 0 .29-.91h.51a61.61 61.61 0 0 1 4.65 5c1.6 2.07 1.74 2.32 1.67 2.72s-.11.58-.11.58a2.36 2.36 0 0 0 -1.55-.59c-.84 0-1.46.94-1.89.94a1.31 1.31 0 0 1 -.66-.14.58.58 0 0 0 -.58-.4l-.91.07a.75.75 0 0 0 -.83-.69c-.8 0-1 .11-1.09.29s-.33.43-.44.4-.54-1-1.45-1a1.53 1.53 0 0 0 -1.38.55c-.33.29-1.09.58-1.38.43s-.84-1.09-2-1.09a4.38 4.38 0 0 0 -2.37.62 2.26 2.26 0 0 1 -1 .44 4.15 4.15 0 0 0 -1.27 0c-.55.14-.84.11-1.17.36s-.51.44-.72.47-.37-.43-1-.39a1.81 1.81 0 0 0 -1.06.39l-.39-.29s-.37-1.59-1.31-1.7-2.1.99-2.1.99a16.34 16.34 0 0 0 -2 .29 1.89 1.89 0 0 0 -1.42.84c-.18.25-.94.87-1.19.8s-.69-.73-1.42-.69-.95 0-1.2.25-.51.65-.76.69a5.89 5.89 0 0 1 -.69 0 16.75 16.75 0 0 1 0-2.4c.11-.26 5.92-7.38 6.61-7.45s2.29.18 2.36-.47-.18-4.32-.18-4.32z" fill="#ddeff2"/><path d="m14.39 27.82a2.54 2.54 0 0 0 1.2-.26c.29-.25.51-.72 1.27-.72s.58 1.23 2 .79 1.14-1.45 2.25-1.63 1.74.11 2.33-.32.14-.84 1.23-.95.95 1.16 1.42 1.49a1.93 1.93 0 0 0 1.56.36c.44-.14 1-.25 1-.1s0 1.27.51 1.27.61 0 .65-.11-.29-1 .33-1.42a2.62 2.62 0 0 1 1.89-.29c.43.11.4.65.36.91s-.22.58-.07.65.87.22.94-.29.18-1.41.18-1.41.84-1.2 1.82-.88.87.44 1.2.37a1.62 1.62 0 0 1 .76.07s.4.36.44.51a1.94 1.94 0 0 1 0 .43 5.66 5.66 0 0 0 -1.09.29 1.28 1.28 0 0 0 -.73 1.2c.07.26 0 .37.47.26s.11-.37.88-.51 1.59 0 1.59.76-.14 1.42.11 1.46.51.21.69-.26a3.61 3.61 0 0 0 .19-2.32 2.74 2.74 0 0 0 -1.17-.88s.15-1.12 1.09-1.3a2 2 0 0 1 1.89.87c.15.25 0 .43 0 .62s-.07.47 0 .5 1 0 1 .77a1.53 1.53 0 0 1 -.58 1.2c-.07.11-.11.72.18.87s.51.18.62 0a2.82 2.82 0 0 0 1.2-1.82 2.15 2.15 0 0 0 -.62-1.6c0-.11-.14-.72.84-.8s2.14 0 2.29 1.13-.15 2.18.11 2.25.83 0 .83-.18.36-1.56.07-2-.43-.58-.47-.69.26-.66 1-.59 1.74.62 1.74 1-2 17.14-3.09 23.36-1.23 7.7-2.94 8.64-7.68 1.56-14.76 1.3-10.8-1.63-12.58-5.12-2-9.19-2.07-16.31.04-10.57.04-10.57z" fill="#ef7d7b"/><path d="m17.8 25.06c.32.18.51.39.69 0a5.84 5.84 0 0 1 1.13-2.43c.91-1 1.2-1 1.24-1.31s-.08-.76-.29-.87-1.46 1.05-2.26 2.1-.76 2.36-.51 2.51z" fill="#604f58"/><path d="m24.49 17.9c.26-.27 1.27.43 6.36.47s6.21-.07 6.36.07.4.58.14.84-2.83.25-7.3.14-5.49-.29-5.63-.54a1 1 0 0 1 .07-.98z" fill="#604f58"/><path d="m36.77 14.59s.84-.25.87 0a14.09 14.09 0 0 1 0 3c-.18.07-.69.07-.83-.25a18.39 18.39 0 0 1 -.04-2.75z" fill="#604f58"/><path d="m38.66 14a1 1 0 0 1 .94 0c.11.18.19 4.43 0 4.43a1.44 1.44 0 0 1 -.91-.83 31.48 31.48 0 0 1 -.03-3.6z" fill="#604f58"/><path d="m41.67 20.11c-.05-.09.3-.47.62-.4a16.52 16.52 0 0 1 3.16 2.95c0 .29-.07.4-.29.43a22.53 22.53 0 0 1 -3.49-2.98z" fill="#604f58"/><path d="m43.93 19.71c-.13-.12.32-.61.65-.43a14 14 0 0 1 2.51 2.65c-.07.22-.47.55-.77.4s-2.17-2.4-2.39-2.62z" fill="#604f58"/><path d="m19.22 33.59c0-.14-.29-2.39.87-2.54s5.31.58 13.08.4 10.32-.45 10.83-.4 1 .69 1 2.62.18 10.46.07 11.19-.32 2.47-3.16 3.37-6.06.73-8.5 1a50.22 50.22 0 0 1 -9.45-.36c-2-.29-2.9-.69-3.52-1.27a3 3 0 0 1 -1.18-1.6c-.11-.67-.04-12.41-.04-12.41z" fill="#604f58"/><path d="m20.64 32.07c.49-.28 4 .32 11.7.4s10.86-.47 11.22-.22a1.32 1.32 0 0 1 .51 1c0 .33-.11 11.34-.32 12s-.77 2.07-4.33 2.61a88.16 88.16 0 0 1 -14.6.07c-2.26-.25-4.25-1.52-4.47-2s-.22-11.34 0-12.35.03-1.37.29-1.51z" fill="#f9f2ed"/><g fill="#604f58"><path d="m16 32a2.71 2.71 0 0 1 .95-3.38 2.5 2.5 0 0 1 3.63.66 3.86 3.86 0 0 1 0 1.89s-1.13 0-1.27-.3.43-1.81-1.13-1.56-.87 2.07-.91 2.44-1.1.68-1.27.25z"/><path d="m22.75 29.49a1.83 1.83 0 0 1 .76-2.62 1.63 1.63 0 0 1 2.58 1.13c0 .58-.29.91-.47.87s-.55-1.38-1.42-.83-.29 1.45-.4 1.74-.8 0-1.05-.29z"/><path d="m26.63 31.63a1.49 1.49 0 0 1 -.4-1.78c.48-1.13 1.89-.94 2.62-.58s.91.58.87 1.09a2 2 0 0 1 -.51 1s-.72.07-.83-.11.62-1-.38-1.25-.8.65-.69.8.29.51.15.62a4 4 0 0 1 -.83.21z"/><path d="m31.47 30.11c-.1-.2-.55-1.86 1.52-1.93s2 1.53 1.82 2-.55.88-.91.62.33-1.45-.62-1.23-.69.61-.83.76a.89.89 0 0 1 -.98-.22z"/><path d="m46.29 31.81c-.25 0-.66-.07-.51-.58s1.34-.91 2-.54.69 2.36.44 2.54-.62.25-.73 0 .29-.9-.18-1.2a1.37 1.37 0 0 0 -1.02-.22z"/><path d="m15.23 36.46a.94.94 0 0 1 .94-1.16 1.86 1.86 0 0 1 2.07 1.89c.07 1.24-.44 1.56-.44 1.56s-.5.29-.58-.11.19-1.23-.36-1.7-.62-.44-.76-.26-.87 0-.87-.22z"/><path d="m16.86 39.77c.39-.1 1-.15 1.2.14s.43.51 0 .77-1.16.65-1.16 1.09.33.62.29.83-.76.4-1.16 0-.77-2.43.83-2.83z"/><path d="m17.7 45.36c.36 0 .9.55.72 1s-1.16.51-1.2 1.38.44 1.13.26 1.31-.91.11-1.27-.77-.08-2.81 1.49-2.92z"/><path d="m18.35 50.2a1.73 1.73 0 0 1 2.43.07c1.13 1.16.59 2.36.33 2.43a.55.55 0 0 1 -.69-.21c-.11-.26.11-1.39-.65-1.42s-.77.07-1.09 0-.62-.69-.33-.87z"/><path d="m17.8 53.43c.39-.12 1.28-.62 1.89-.07s1 2.07.62 2.4-.83.5-1 .18.11-1.2-.18-1.35-1 0-1.2-.14-.49-.91-.13-1.02z"/><path d="m24.71 53.61c.29 0 1 .8.65 1.06s-1.34.54-1 1 1.68.76 1.53 1a1.55 1.55 0 0 1 -1.74.21 1.65 1.65 0 0 1 -1.15-1.74 1.93 1.93 0 0 1 1.71-1.53z"/><path d="m26.67 50.63c.39-.2.62-.22.84.11s.32.66.14.76-.91.48-.8.8.51.08.55.44 0 .58-.26.58-1.49-.18-1.49-1.23a1.42 1.42 0 0 1 1.02-1.46z"/><path d="m27.94 54.12a1.74 1.74 0 0 1 1.38-1.6c1.09-.18 1.78.87 1.56 1.35s-.1.69-.54.54-.62-.65-1-.65-.29.43-.47.83-.87-.03-.93-.47z"/><path d="m29.69 55.5a2.57 2.57 0 0 1 2-.18c.83.4.8 1.89.32 2.11s-.58.43-.72 0 .25-.83-.26-1-.61.29-1 .21a.68.68 0 0 1 -.34-1.14z"/><path d="m31.86 51.25a3.4 3.4 0 0 1 2.58-.11c1 .47 1.2 2.54.62 2.62s-.8.22-.94-.26.18-1.52-.58-1.6-1.09.29-1.38.22-.77-.65-.3-.87z"/><path d="m36.55 50.67a2.59 2.59 0 0 1 2.4-.44 1.55 1.55 0 0 1 .47 2.22c-.33.11-.69 0-.69-.15s.11-.94-.36-1.09-.87.19-1.2.11-.98-.32-.62-.65z"/><path d="m35.72 54.27c.1-.16.54-1.42 2.25-.69s.8 2.83.4 2.76-.55 0-.66-.33.4-.91-.14-1.31-.87.22-1.16.22-1.02-.18-.69-.65z"/><path d="m38 56.85a2 2 0 0 1 2-.37c1.19.47 1.16 1.71.8 1.89s-.59.22-.77 0 0-.76-.47-.83-.91.29-1.13.25-.82-.51-.43-.94z"/><path d="m42.62 53a1.73 1.73 0 0 1 1.38.5c.29.48.25 1.57-.08 1.75s-.8.32-.9 0 .32-1 0-1.2-.48-.18-.59-.32a.71.71 0 0 1 .19-.73z"/><path d="m42.91 49.62c.12-.38.73-.59 1.38-.73s1.2.22 1.09.51a.82.82 0 0 1 -.73.54c-.32 0-.58-.18-.83 0s-1.09.22-.91-.32z"/><path d="m46.51 37.23c.57-.19.9-.55 1.12-.15s.33 1 0 1.16-.72.11-.94.22-.69.22-.84-.18.33-.94.66-1.05z"/><path d="m25.72 34.72c-.21-.15-1.45.36-2.39 1.63s-.44 2.15.14 3.06 1.53 1.34 1.53 2.29-1.27 1.92-1.6 2.07-.47.36-.43.54.29.62.54.65a3.13 3.13 0 0 0 2.4-2 2.82 2.82 0 0 0 -.36-3.16c-.69-1-1.6-1.13-1.57-2.22s1.78-1.64 1.93-2a1.19 1.19 0 0 0 -.19-.86z"/><path d="m30.48 36c-.65-.83-2.95-.06-2.94.07 0 .29-.07 8.43.07 8.61s.69.11.84-.18 0-4.61 0-4.61a3.2 3.2 0 0 0 1.55-.67c.52-.5 1.14-2.39.48-3.22zm-1.16 2.07c-.18.11-.54.33-.62.11a10.16 10.16 0 0 1 0-1.42c.18 0 .8 0 .91.22a1.38 1.38 0 0 1 -.29 1.08z"/><path d="m31.5 37.3s.87 0 .91.14.07 7.13-.07 7.23-.73.26-.91 0 .07-7.19.07-7.37z"/><path d="m35.17 36.54c.2-.2.95-.15 1.2-.08s.62.8.36 1-1.23-.23-1.73 1.69-.54 3.13.26 3.74 1.27.4 1.31.59 0 1.16-.22 1.19a2.4 2.4 0 0 1 -2.18-1.56c-.52-1.38-.89-4.76 1-6.57z"/><path d="m38.22 36.06c.2-.14 2.69-.61 2.8-.25s.22.87-.11 1-2.07.15-2.11.44 0 2.94 0 2.94 1.6-.14 1.67.11.14.73 0 .8-1.64 0-1.67.18a25.67 25.67 0 0 0 0 2.91c.07.11 2.36-.18 2.43 0a1.39 1.39 0 0 1 -.18 1 9.9 9.9 0 0 1 -3.12.36c-.33-.15-.26-8.47-.22-9s.29-.3.51-.49z"/></g></svg>