<svg height="64" viewBox="0 0 64 64" width="64" xmlns="http://www.w3.org/2000/svg"><path d="m31.73 64a86.93 86.93 0 0 1 -10.47-.48 14.68 14.68 0 0 1 -8.46-5.36c-1.51-2.16-1.8-3.03-1.8-3.75 0 0 0-.49 0-1.24-1-29.17-.88-29.57-.61-30.17s.68-1.14 7.55-8.45l.9-1v-1.51a3.55 3.55 0 0 1 -1.84-2.25 4.1 4.1 0 0 1 1.74-4 6.78 6.78 0 0 1 2.2-.85c0-1.35.2-1.85.6-2.29 1.46-1.8 4.46-2.65 9.32-2.65h.64c8.76.14 9.87 3.69 10 4.77 1.53.37 3.47 1 4.41 2a3.56 3.56 0 0 1 .95 3.23 3.71 3.71 0 0 1 -1.78 2.61v1.39a29.42 29.42 0 0 1 4 3.36c3.17 3.13 4.63 6.2 4.82 7.41.2 1.4-2.11 28.48-2.4 30.14-.47 2.72-.88 4.07-2.81 5.65s-4.06 2.31-8 3a68.52 68.52 0 0 1 -8.96.44z" fill="#fff"/><path d="m20.79 14.35v-3.41s-1.79-.81-1.88-1.47a2.19 2.19 0 0 1 .92-2.13 10.3 10.3 0 0 1 3.09-.84 13 13 0 0 1 .08-2.61c.18-.18 1.1-2.06 8.48-1.95s8.11 2.76 8.11 3.06v1.35s3.89.66 4.92 1.76a1.85 1.85 0 0 1 -.3 2.72 7.32 7.32 0 0 1 -1.1.4v3.86a20.63 20.63 0 0 1 4.55 3.67c2.9 2.86 4.15 5.58 4.26 6.32s-2 27-2.39 29.52-.73 3.34-2.13 4.48-3.22 1.92-7.15 2.57-15.94.44-18.65 0a12.71 12.71 0 0 1 -7.2-4.55c-1.32-1.91-1.47-2.46-1.47-2.65s-1.06-30-.77-30.62 7.97-8.74 8.63-9.48z" fill="#604f58"/><path d="m42.67 52.47c0-.3.55-.81.77-.7a48.12 48.12 0 0 1 3.48 3.77 10 10 0 0 0 .39-1.95 18.91 18.91 0 0 1 -1.92-2.41.56.56 0 0 1 .51-.66c.25 0 1.06.91 1.57 1.58.51-5.41 2.29-26.38 2.29-26.55s-.19-1.06-2.1-3.37a27.51 27.51 0 0 0 -4.81-4.74c-.25 0-.25.73-.25.73a8.78 8.78 0 0 1 -1.21-.17c-.52-.11-.55-.41-.63-.85s.08-5.47.08-5.47-4.12.29-9.07.26a56.67 56.67 0 0 1 -8.89-.77s.48 6.06.51 6.42-1 .74-1.43.63-.51-.66-.51-.66-.15-.52-.41-.48a99 99 0 0 0 -6.46 7.92c-.33.7.74 27.39 1 29.19s3 4.3 5.39 4.78a90.68 90.68 0 0 0 12.67.8c1.49 0 3-.08 4.47-.22-.71-.88-2.45-3-2.45-3.19a1.28 1.28 0 0 1 .85-.7 23.37 23.37 0 0 1 2.94 3.73c.64-.08 1.25-.18 1.83-.29-.81-1-3.28-4-3.16-4.17a1.17 1.17 0 0 1 1.1-.41 29.58 29.58 0 0 1 3.35 4.3 14.14 14.14 0 0 0 1.53-.47 50.7 50.7 0 0 1 -3.52-4.74c.11-.22.85-.74 1.1-.59a41.91 41.91 0 0 1 3.63 4.71 3.86 3.86 0 0 0 1.16-1.15 47.64 47.64 0 0 1 -3.8-4.11z" fill="#ddeff2"/><path d="m24.24 7.12a3.54 3.54 0 0 1 0-1.87c.14 0 .91.81 6.49.92s7.5-.26 7.53-.11a10.28 10.28 0 0 1 -.07 1.58c0 .11-2.9.8-7.31.62s-6.53-1.03-6.64-1.14z" fill="#f6c687"/><path d="m24.9 4.66c0-.1 1.73-1.5 6.39-1.43s6.75.95 6.79 1.36-4 .7-6.86.62-6.17-.21-6.32-.55z" fill="#fcdfc8"/><path d="m22.51 8.11a5.61 5.61 0 0 1 .7 0s2.31.92 8 1.06 7.82-.8 7.93-.8 2.64.07 2.71.95-5.36 1-12.15.74-7.6-.52-8-.81-.4-.95.81-1.14z" fill="#adceea"/><g fill="#604f58"><path d="m20.13 21.22c.23-.09.88.26.91.51a34.36 34.36 0 0 1 -2.9 4.85c-.18 0-1.06-.26-1.06-.55a31 31 0 0 1 3.05-4.81z"/><path d="m24.79 17.55a18.71 18.71 0 0 0 5.73.88 31.21 31.21 0 0 0 5.65-.66.92.92 0 0 1 .33.81c-.07.14-2.09 1.17-6 1.17s-5.62-.92-5.73-1.14-.24-.99.02-1.06z"/><path d="m19.36 32.71c0-.33.8-1.13 1.21-1.06s3.3.84 10.9.92a62.09 62.09 0 0 0 12.41-1.1c.3 0 .41.18.37 1.61s-.25 14.72-.37 15.05-3.45 1.87-11.88 1.87-11.71-1.06-12.12-1.91-.52-15.38-.52-15.38z"/></g><path d="m20.46 32.86c0-.26 3 .7 10.94.73s11.34-.77 11.6-.59 0 13.85-.15 14.14-4.74 1.58-10.54 1.47a53.31 53.31 0 0 1 -11.42-1.36c-.03-.11-.43-14.25-.43-14.39z" fill="#f9f2ed"/></svg>