<svg height="64" viewBox="0 0 64 64" width="64" xmlns="http://www.w3.org/2000/svg"><path d="m32.71 64a36 36 0 0 1 -12.08-1.85c-4.73-1.87-7.63-4.06-8.83-6.71-1-2.14-.94-7.44-.78-14.15 0-.86 0-1.66 0-2.36 0-1.91 0-5.92-.06-9.8-.08-7.65-.11-11.09 0-11.92a8.53 8.53 0 0 1 1.51-3.62 2.09 2.09 0 0 1 -.47-.8c-.14-.42-.4-6.46.07-7.39s5.27-4.31 10.32-4.94a90.51 90.51 0 0 1 10.13-.46c2.92 0 5.64.09 6.93.22 2.82.29 10.14 3.24 11.48 4.44 1.89 1.68 1.29 7.72.9 8.54a1.75 1.75 0 0 1 -.2.35 8.33 8.33 0 0 1 1.37 3.45c.2 1.84-.09 32.49-.33 34.89-.27 2.65-.79 4.78-2.49 6.56s-6.18 4.04-11.64 5.07a32.62 32.62 0 0 1 -5.83.48z" fill="#fff"/><path d="m15.69 13.58c.1 0-1.69-1.1-1.79-1.4a58.39 58.39 0 0 1 0-5.91 18.15 18.15 0 0 1 8.77-3.89 108.63 108.63 0 0 1 16.61-.23c2.55.26 9.46 3.12 10.39 4s.67 5.78.44 6.28a2.51 2.51 0 0 1 -1.1.86s1.89 2.13 2.09 3.92-.1 32.19-.33 34.49-.63 4-2 5.41-5.51 3.59-10.6 4.55-12.89.3-16.84-1.26-6.74-3.46-7.77-5.71-.62-11.18-.56-15.69-.26-20.13-.06-21.46 1.13-3.54 2.75-3.96z" fill="#604f58"/><path d="m42.8 53.24c-.07-.4.17-1 .5-1a29.41 29.41 0 0 1 4.14 3 7.68 7.68 0 0 0 .69-1.24c-1.22-.86-4.32-3.08-4.27-3.45s.34-.87.6-.8a48.19 48.19 0 0 1 4.11 3 11.19 11.19 0 0 0 .23-1.37c-1.3-.89-4.47-3.1-4.47-3.41s.13-.83.36-.8a45.06 45.06 0 0 1 4.17 2.83c0-.44 0-1 0-1.59a43.33 43.33 0 0 1 -4.37-3.18c-.07-.3.16-.86.4-.86a38 38 0 0 1 4 2.5c0-.62 0-1.29 0-2-1.09-.82-4.11-3.08-4.17-3.3s-.1-1 .17-1.07a29.57 29.57 0 0 1 4 2.9c0-.65 0-1.34 0-2a26.62 26.62 0 0 1 -3.67-2.75.93.93 0 0 1 .09-.93 20.13 20.13 0 0 1 3.69 2.02c0-.57 0-1.15 0-1.73a41.79 41.79 0 0 1 -3.68-3c0-.23-.1-1.13.26-1a28.13 28.13 0 0 1 3.43 2.53v-2.38a36.92 36.92 0 0 1 -3.56-2.57 6.45 6.45 0 0 1 .37-1.07s2.18 1.42 3.2 2.13c0-.54 0-1.07 0-1.59-.56-.34-3.46-2.09-3.52-2.27s0-.93.27-.89a21.22 21.22 0 0 1 3.27 1.75c0-.67 0-1.32 0-2-.51-.28-3.79-2-3.79-2.42s.06-1.13.36-1.09a24.69 24.69 0 0 1 3.56 1.86c0-.52 0-1 0-1.5a20.33 20.33 0 0 1 -2.7-1.37c0-.16-.14-.89.16-.89a14.54 14.54 0 0 1 2.56.91c0-.55 0-1.05 0-1.49a9.85 9.85 0 0 1 -2.21-1c-.17-.27-.33-1.13-.07-1.16a9.53 9.53 0 0 1 2.3.67c0-5.17-1.64-6.16-1.9-6.19a43.57 43.57 0 0 1 -14.74 3.12 37.92 37.92 0 0 1 -14.19-2.29 3.69 3.69 0 0 0 -3.18 2.82c-.3 1.06-.2 32.29-.1 34.37s1.29 3.29 3.88 5.11 7.91 3 14 3a26.47 26.47 0 0 0 10.88-2.25 22.43 22.43 0 0 1 -3.17-2.63c.06-.2.36-1 .79-.9a18.54 18.54 0 0 1 3.74 2.84q.43-.26.75-.48a5.81 5.81 0 0 0 .6-.49c-1.12-.82-3.72-2.65-3.77-2.96z" fill="#ddeff2"/><path d="m15.66 11.38c-.34-.4-.07-4.18.07-4.31s.3-.3.4-.17 1.69 3.06 9.1 3.85 12.79.83 16.61.07a54.75 54.75 0 0 0 6.61-2 9.23 9.23 0 0 1 0 2.29 29.14 29.14 0 0 1 -9.07 3.72c-4.42.87-14 0-16.48-.46s-6.54-2.16-7.24-2.99z" fill="#83a7d8"/><path d="m17.39 6.7c0-.23 3.39-2.46 9.4-2.62s12.56-.3 16.38 1 4.88 2.48 4.83 2.85-4.39 2.29-11.1 2.46a58.26 58.26 0 0 1 -15.63-1.39c-3.27-.94-3.92-1.24-3.88-2.3z" fill="#adceea"/><g fill="#604f58"><path d="m18.78 21.45a.52.52 0 0 1 1 .07c.06.33.39 19.1.2 19.36s-1 .67-1.13.2-.17-19.4-.07-19.63z"/><path d="m20.88 51.58a18.38 18.38 0 0 1 6.64-2.13c3.22-.23 8.77.1 8.94.5s.16.93 0 .93a26.32 26.32 0 0 0 -7.94-.4c-4.22.5-6.54 1.9-7 1.86s-.88-.59-.64-.76z"/></g></svg>