<svg height="64" viewBox="0 0 64 64" width="64" xmlns="http://www.w3.org/2000/svg"><path d="m28.08 64c-1.84-.1-11.63-6.5-13.57-7.79-6.42-4.21-7.62-6.1-7.51-7.75v-.43a20.88 20.88 0 0 1 1-5.03c.76-2.38 3-9.73 5-16.73 1.19-4.2 1.95-8.22 2.45-10.87.56-3 .68-3.6 1.21-4.19.25-.28.65-.73 3.28-1.56 0-4 .45-4.55.8-5 1.18-1.4 15.04-4.65 15.15-4.65a2.07 2.07 0 0 1 .35 0c.07 0 7.49 1.92 8.18 3.78.12.32.24.64.19 4 3.47 1.91 3.79 2.4 4 2.74.71 1.11 2.13 6.82 3.46 13.88.86 4.58 2.16 10.69 3.2 15.6s1.57 7.46 1.65 8.14a4.16 4.16 0 0 1 -.92 3.55c-.36.37-.52.44-4.09 2-2.54 1.11-6.39 2.8-11 4.93l-3.67 1.71c-6.49 3-7.84 3.66-9 3.66z" fill="#fff"/><path d="m55 48.32c-.14-1.32-3.23-15.11-4.83-23.58s-2.87-12.74-3.17-13.2-4.35-2.64-4.35-2.64.09-4.05 0-4.41-6.19-2.49-6.73-2.55-13.29 3.51-13.7 4.06-.36 5.18-.36 5.18-3.37 1-3.78 1.42-1.19 7.05-3.23 14.29-4.28 14.51-5 16.79a19.9 19.9 0 0 0 -.86 5c-.1 1 2.18 3 6.59 6s11.74 7.32 12.6 7.38 3.51-1.27 11.92-5.19 14.25-6.28 14.52-6.55.5-.68.38-2zm-18.67-40.46c-.18.13-.28.82-.28.82s-7.46 1.73-7.69 1.64.09-.69.09-.69 4.55-1.45 8.11-2.51z" fill="#604f58"/><path d="m21.46 53.89a.76.76 0 0 1 .61-.55 64.53 64.53 0 0 1 5.05 5.85 3.88 3.88 0 0 0 .14-1.44 53.53 53.53 0 0 1 -3.94-5c0-.34.31-.89.55-.75a51.54 51.54 0 0 1 3.41 3.88c0-.59 0-1.26 0-2-.87-1-3.15-3.44-3.15-3.63s.41-.85.65-.82a20.11 20.11 0 0 1 2.47 2.68c0-.65 0-1.34 0-2.06-.48-.34-1.58-1.15-1.58-1.47s.17-.86.31-.89a4.89 4.89 0 0 1 1.24 1c0-.46 0-.93 0-1.41-.18-7.15-.68-29-.77-29.45s-6.6-3.36-7-3.27-1.46 9.05-3.28 15.83-4.94 16.79-5.17 17.15a1.21 1.21 0 0 0 .14 1.09c.18.37 1.78 1.42 6.55 4.51 2.16 1.4 4.25 2.79 5.9 3.88a25.15 25.15 0 0 1 -2.13-3.13z" fill="#ddeff2"/><path d="m20.58 12.86c.32-.09 1.18-.77 1.28-.5s.09 1.05-.05 1.05a10.55 10.55 0 0 1 -1.23-.55z" fill="#adceea"/><path d="m22.77 13.5a32.83 32.83 0 0 1 .23-6.37c.23 0 3.82 2.46 3.78 2.87s-.05 5.55-.23 5.55a31.18 31.18 0 0 1 -3.78-2.05z" fill="#f6c687"/><path d="m24 6.31c.16 0 11.74-3.5 12.15-3.32s5.37 1.73 5.1 1.91-6 1.64-9.56 2.73-4 1.46-4.23 1.41a25.48 25.48 0 0 1 -3.46-2.73z" fill="#f6c687"/><path d="m28 11.73c.18-.1 8-2.33 8.42-2.05s4.46 2.36 4.5 2.64-12.6 3.77-12.92 3.55 0-4.14 0-4.14z" fill="#adceea"/><path d="m41.92 11.36s.41-.13.41-.41-.09-.95.14-.91 2.5 1.23 2.23 1.5a9.79 9.79 0 0 1 -2.55.46z" fill="#adceea"/><path d="m28.59 17.69c.19 0 16.88-4.64 17.16-4.28s3.91 18.93 5.25 26.17 1.5 8.78 1.41 9.15-8.15 3.86-13.88 6.5-9.24 3.83-9.29 3.64-.09-21.11-.41-28.71-.47-12.47-.24-12.47z" fill="#ddeff2"/><g fill="#604f58"><path d="m19.07 29.55c0-.33.54-.58.82-.44s.71 1.4 2 2.08 2.29.79 2.36 1.06-.07.89-.31 1a5.67 5.67 0 0 1 -3-.93 4.82 4.82 0 0 1 -1.87-2.77z"/><path d="m18.25 35.22c.37-.06.44.07.58.27a3.54 3.54 0 0 0 1.94 2 20 20 0 0 1 2.53 1.2c0 .17 0 .75-.34.82a4.41 4.41 0 0 1 -3.45-.92c-1.77-1.23-1.74-2.09-1.71-2.6s.2-.74.45-.77z"/><path d="m15.76 42.35c0-.32 1-.34 1.16-.13a9 9 0 0 0 3.41 3.41 18 18 0 0 0 3.35 1.26c.06.21.2 1 0 1.06a7.41 7.41 0 0 1 -4.81-1.47c-2.43-1.63-3.15-3.65-3.11-4.13z"/><path d="m30.3 22.39a18.64 18.64 0 0 1 -.07-3.14c.17-.45 2.63-1.06 2.83-.89a1 1 0 0 1 .17 1.09c-.2.31-1.67.51-1.7.68s.17 2.19 0 2.36-1.23.1-1.23-.1z"/><path d="m32.69 23.85a1 1 0 0 1 1.5 0 .83.83 0 0 1 -.89 1.23c-.95 0-.78-.92-.61-1.23z"/><path d="m36.71 22.9a1 1 0 0 1 1.51 0 .84.84 0 0 1 -.89 1.23c-.96 0-.79-.92-.62-1.23z"/><path d="m40.4 21.81a1 1 0 0 1 1.5 0 .83.83 0 0 1 -.9 1.26c-.94-.07-.77-.96-.6-1.26z"/><path d="m43.75 20.71a1 1 0 0 1 1.5 0 .83.83 0 0 1 -.89 1.29c-.96-.06-.79-1-.61-1.29z"/><path d="m42.86 25.15a.94.94 0 0 1 1.5 0 .83.83 0 0 1 -.89 1.22c-.95.01-.78-.91-.61-1.22z"/><path d="m39 26.45a1 1 0 0 1 1.5 0 .83.83 0 0 1 -.89 1.23c-.98 0-.81-.92-.61-1.23z"/><path d="m35.21 27.27a1 1 0 0 1 1.5 0 .83.83 0 0 1 -.88 1.23c-.96 0-.83-.93-.62-1.23z"/><path d="m31.42 28.39a1 1 0 0 1 1.51 0 .84.84 0 0 1 -.93 1.27c-.92-.04-.75-.96-.58-1.27z"/><path d="m34.09 31.06a1 1 0 0 1 1.5 0 .83.83 0 0 1 -.89 1.23c-.96-.01-.78-.93-.61-1.23z"/><path d="m38.05 30.07a1 1 0 0 1 1.5 0 .83.83 0 0 1 -.89 1.23c-.96 0-.79-.93-.61-1.23z"/><path d="m41.7 28.8a1 1 0 0 1 1.5 0 .83.83 0 0 1 -.89 1.23c-.95-.03-.78-.92-.61-1.23z"/><path d="m45 27.88a1 1 0 0 1 1.51 0 .83.83 0 0 1 -.89 1.22c-.99.01-.82-.91-.62-1.22z"/><path d="m45.9 31.64a1 1 0 0 1 1.5 0 .83.83 0 0 1 -.89 1.23c-.96 0-.79-.93-.61-1.23z"/><path d="m42.82 32.52a1 1 0 0 1 1.51 0 .84.84 0 0 1 -.89 1.23c-.96 0-.79-.92-.62-1.23z"/><path d="m39.58 33.82a.94.94 0 0 1 1.5 0 .82.82 0 0 1 -.88 1.22c-.96.01-.79-.91-.62-1.22z"/><path d="m35.38 35a1 1 0 0 1 1.5 0 .83.83 0 0 1 -.88 1.21c-1-.03-.79-.96-.62-1.21z"/><path d="m31.83 36.11a1 1 0 0 1 1.5 0 .83.83 0 0 1 -.88 1.23c-.96 0-.79-.93-.62-1.23z"/><path d="m34 39.25a1 1 0 0 1 1.5 0 .83.83 0 0 1 -.89 1.23c-.93 0-.76-.92-.61-1.23z"/><path d="m37.43 38.05a1 1 0 0 1 1.5 0 .83.83 0 0 1 -.88 1.23c-.96 0-.79-.92-.62-1.23z"/><path d="m41.63 36.79a1 1 0 0 1 1.5 0 .83.83 0 0 1 -.89 1.23c-.95-.02-.78-.92-.61-1.23z"/><path d="m45.08 35.36a1 1 0 0 1 1.5 0 .83.83 0 0 1 -.89 1.23c-.95 0-.78-.93-.61-1.23z"/><path d="m46.61 38.33a1 1 0 0 1 1.5 0 .83.83 0 0 1 -.88 1.23c-.96 0-.79-.93-.62-1.23z"/><path d="m43.64 39.79a1 1 0 0 1 1.5 0 .83.83 0 0 1 -.88 1.23c-.96-.02-.79-.92-.62-1.23z"/><path d="m39.75 41.09a.94.94 0 0 1 1.5 0 .82.82 0 0 1 -.88 1.22c-.96.01-.79-.91-.62-1.22z"/><path d="m35.83 42.32a1 1 0 0 1 1.5 0 .83.83 0 0 1 -.89 1.23c-.95 0-.78-.92-.61-1.23z"/><path d="m32.14 43.07a1 1 0 0 1 1.5 0 .83.83 0 0 1 -.89 1.23c-.95 0-.75-.92-.61-1.23z"/><path d="m32.72 47.44a1 1 0 0 1 1.5 0 .83.83 0 0 1 -.89 1.23c-.95 0-.78-.92-.61-1.23z"/><path d="m37 46.14a1 1 0 0 1 1.5 0 .83.83 0 0 1 -.88 1.23c-1.01 0-.84-.92-.62-1.23z"/><path d="m41 44.81a.94.94 0 0 1 1.5 0 .83.83 0 0 1 -.89 1.22c-1-.03-.83-.91-.61-1.22z"/><path d="m44.63 43.28a1 1 0 0 1 1.5 0 .83.83 0 0 1 -.88 1.23c-.96-.01-.79-.93-.62-1.23z"/><path d="m48 42a1 1 0 0 1 1.5 0 .83.83 0 0 1 -.88 1.23c-.95.01-.78-.91-.62-1.23z"/><path d="m48.25 45.7a1 1 0 0 1 1.5 0 .83.83 0 0 1 -.88 1.3c-.96-.07-.79-1-.62-1.3z"/><path d="m44.63 47.41a1 1 0 0 1 1.5 0 .83.83 0 0 1 -.88 1.23c-.96-.01-.79-.93-.62-1.23z"/><path d="m40.88 49.15a1 1 0 0 1 1.5 0 .83.83 0 0 1 -.89 1.23c-.95 0-.78-.93-.61-1.23z"/><path d="m37.23 50.92a.94.94 0 0 1 1.5 0 .83.83 0 0 1 -.89 1.22c-.96.01-.78-.91-.61-1.22z"/><path d="m32.89 52.7a1 1 0 0 1 1.5 0 .83.83 0 0 1 -.88 1.3c-.96-.08-.79-1-.62-1.3z"/></g><path d="m41 6.08c-.06-.16-1.73.26-3.83.86l.06.83a14.66 14.66 0 0 0 .18 1.54 15.55 15.55 0 0 0 3.46 1.78 21.9 21.9 0 0 0 .13-5.01z" fill="#f6c687"/></svg>