<svg height="64" viewBox="0 0 64 64" width="64" xmlns="http://www.w3.org/2000/svg"><path d="m14.6 61.49c-2.23 0-4.42-2.64-5-5-.35-1.49-2.45-8.81-3.35-11.95a5.82 5.82 0 0 1 -3-.66c-2.18-1.34-3.25-12.06-3.25-12.16a4.6 4.6 0 0 1 4-3.79h.18a11.17 11.17 0 0 1 -.11-3.85c.56-4.08 2.79-7.48 6.79-10.39a11.42 11.42 0 0 1 6.84-2.22 14.54 14.54 0 0 1 4.5.76 4.27 4.27 0 0 1 .37-1.46c.79-1.58 2.85-1.58 6.59-1.58 4.85 0 6.13.25 6.87 1.37.31.46.54.8.56 7.34a55.44 55.44 0 0 1 3.71-4.57c1.7-1.73 2.34-2.22 3.37-2.33a27.55 27.55 0 0 1 1.16-3.57c1.07-2.69 2.44-4.43 3.77-4.81a3.23 3.23 0 0 1 1-.11 14.57 14.57 0 0 1 3.62.49 3.42 3.42 0 0 1 2.32 2.26c1.84-1.64 2.37-1.64 2.89-1.64 1.8 0 4.75 3.58 4.77 3.62a2.81 2.81 0 0 1 .74 2.41c-.1.4-.25 1-2.41 3.08a3.45 3.45 0 0 1 .55 2.75c-.17.6-.41 1.5-6 5a5 5 0 0 1 -.25 3.52 24.85 24.85 0 0 1 -3.83 4.58 14 14 0 0 1 3.61.5 3.66 3.66 0 0 1 2.19 2.78c.38 1.36-1.55 9.23-1.57 9.31-.61 1.95-1.9 3.38-3.3 3.63a14 14 0 0 1 -1.51.13c-.6 2.93-1.89 9-2.52 10.85a6.93 6.93 0 0 1 -6.31 5.13c-2.91.33-27.76.58-27.99.58z" fill="#fff"/><path d="m6.84 29.67a8.36 8.36 0 0 1 -.84-5.32c.46-3.21 2.09-6.23 6-9.09a10.45 10.45 0 0 1 9.65-1.17c1.58.51 2.3.66 2.3.66a16.13 16.13 0 0 1 .36-3.11c.25-.52 2.65-.52 4.85-.52s4.95.06 5.26.52.2 12.2.2 12.2 5.32-7.4 7.05-9.14 1.94-1.79 2.35-1.84a9.47 9.47 0 0 1 1.23 0 23.31 23.31 0 0 1 1.38-4.75c1.07-2.65 2.14-3.52 2.5-3.63a11.77 11.77 0 0 1 3.47.36 1.44 1.44 0 0 1 1.13 1.16 3 3 0 0 1 0 .71l2 1s2.27-2.15 2.7-2.15 3.78 3 3.62 3.62-3.16 3.37-3.16 3.37 1.58 1.45 1.33 2.45-6.59 4.8-6.59 4.8a3.65 3.65 0 0 1 .46 3.42c-.82 1.68-6.64 7.05-6.64 7.05s6.64.36 7.45.66.92 1.23 1 1.59a70 70 0 0 1 -1.58 8.12 3.25 3.25 0 0 1 -1.79 2.3c-.56.1-2.75.15-2.75.15s-2 9.86-2.76 12.1a5.06 5.06 0 0 1 -4.68 3.81c-2.66.3-26.77.56-27.74.56s-2.6-1.65-3.11-3.56-3.78-13.41-3.78-13.41-2.66.15-3.48-.36-2.35-9.65-2.3-10.37a2.81 2.81 0 0 1 2.05-2c.81.01 2.86-.19 2.86-.19z" fill="#604f58"/><path d="m45.56 37.38c0-.26.56-.61.86-.46a22.41 22.41 0 0 1 3.41 3.67l1.62.16c-1.12-1.07-3.58-3.45-3.54-3.73s.61-.61.91-.56a23.38 23.38 0 0 1 3.24 2.83c.11-.42.23-.91.35-1.43a19 19 0 0 1 -2.41-2.27c0-.31.31-1 .56-.87a20.75 20.75 0 0 1 2.17 1.77c.41-1.81.77-3.54.74-3.71 0-.36-1.27-.46-5.26-.71s-13.48-.77-13.48-.77 0 1.94 0 2.81-1.28 1.89-2.3 1.94-4.14.1-5.88 0-2.29-1-2.4-1.48 0-3.27 0-3.27-4.08.05-8.22.31-11.08.51-11.24.56a1.11 1.11 0 0 0 -.46 1.38c.21.76 1.38 7 1.89 7.15s8-.31 23.35-.61c9.11-.19 15.08.1 18.5.35a23.72 23.72 0 0 1 -2.41-3.06z" fill="#83a7d8"/><path d="m42.32 52.8c0-.19.5-1.11.81-1a15.34 15.34 0 0 1 2.25 1.47c.15-.5.3-1.08.46-1.72a10.74 10.74 0 0 1 -1.84-1.24 1.18 1.18 0 0 1 .46-.8 4 4 0 0 1 1.71.62c.79-3.45 1.52-7.51 1.47-7.63s-9.92-.5-18-.31l-19.16.46 2 7.47c.69 2.61 1.73 6.29 2.53 6.71s1.88.42 7.86.34c5.67-.07 14.87-.25 17.74-.23-.29-.3-.64-.7-.54-.8s.49-.54.76-.42a11.83 11.83 0 0 1 1.88 1.06 2.56 2.56 0 0 0 1-.54 12.84 12.84 0 0 1 -2.63-1.63c0-.31.15-1 .65-.77a19.71 19.71 0 0 1 2.68 1.57c.13-.21.27-.43.42-.69a1.22 1.22 0 0 0 .14-.28 20.49 20.49 0 0 1 -2.65-1.64z" fill="#adceea"/><path d="m26.5 13.68c.17-.33 5.72-.31 5.78 0s.2 19.66-.11 19.87a53.79 53.79 0 0 1 -5.72 0s-.05-19.67.05-19.87z" fill="#adceea"/><path d="m8 29.67s-1.84-3.89-.36-7.41 4.5-7 8.38-7.51a10.82 10.82 0 0 1 6.98 1.25c.56.3 1 .61 1 .76s-.1 2.2-.1 2.2a1.06 1.06 0 0 0 -1.13.1 8.45 8.45 0 0 0 -1.38 1.18 3.52 3.52 0 0 0 -.51-2c-.56-.61-.46-.76-1.48-.81a12 12 0 0 0 -2.91.15c-.41.15-.51 1.28-.51 1.28a2.9 2.9 0 0 0 -2.09-.46 6.62 6.62 0 0 0 -3.07 2.45 2.14 2.14 0 0 0 0 2.09 10.14 10.14 0 0 0 1.23 1.06s-2.56-.06-2.86.56 0 3.06.2 4 .51 1.07.51 1.07z" fill="#f0a26c"/><g fill="#f6c687"><path d="m11.08 28.7c-.18-.05-1.69-2.92-1-3.43s5.87 1 6 1.33-4.29 2.3-5 2.1z"/><path d="m11.49 21.8c-.49-.8 2.4-2.8 3.27-2.55s2.65 5.1 2.34 5.51-4.64-1.58-5.61-2.96z"/><path d="m17.1 18.68c0-.46 2.56-.46 3.07.16s-.51 5.41-1.12 5.51-1.69-2.81-1.95-5.67z"/><path d="m20.88 24.1c.31-.5 1.84-4.14 2.35-4.09s.67-.05.67.46a22.24 22.24 0 0 1 -.1 3.73 7.77 7.77 0 0 1 -2.35.92c-.31-.05-.82-.61-.57-1.02z"/><path d="m13 29.36a11.62 11.62 0 0 1 3.62-1.43c.41.15 1 .87.67 1.12a18.88 18.88 0 0 1 -4.29.31z"/><path d="m17.67 26.14a1.59 1.59 0 0 1 2.75.05c.46 1 .16 2.25-1.27 2.15s-2.05-1.18-1.48-2.2z"/><path d="m22 26.24c.19-.26 1.89-1 2-.61s.31 3.12-.2 3.22a2.7 2.7 0 0 1 -1.84-1 2.46 2.46 0 0 1 .04-1.61z"/></g><path d="m34.62 25.32s1-1.17 1.28-1.07a5.93 5.93 0 0 1 1.33.61c.41.31.46.62.71.62s.67-.51.72-.67-.82-1.12-1.28-1.32-.92-.26-.92-.41 6.34-7.92 7.1-8.48a3.31 3.31 0 0 1 3.43.05 46.35 46.35 0 0 1 4.59 4.49c1.33 1.59 1.94 2.71 1.43 3.63a75.71 75.71 0 0 1 -7.1 7.05c-.41.2-3.93-.31-7.1-.41s-4.19-.15-4.19-.15z" fill="#f0a26c"/><path d="m40.86 21c-.19-.08.41-1 .71-.92a7.72 7.72 0 0 1 2.35 1.92c0 .36 0 1-.31 1s-2.4-1.86-2.75-2z" fill="#604f58"/><path d="m42 24.56c.28-.24.72.15 1.63.82s1.28 1.22 1.18 1.48-.41.56-.56.51-1.13-.87-1.64-1.18-1-.41-1-.61a1.21 1.21 0 0 1 .39-1.02z" fill="#604f58"/><path d="m44 17.51a.88.88 0 0 1 .36-.66 4.29 4.29 0 0 1 2.1.61c.86.51 1.17.92 1 1.17s-.16.36-.51.31a16.15 16.15 0 0 1 -1.59-.87c-.26-.07-1.36-.56-1.36-.56z" fill="#604f58"/><path d="m47 22.46c.2.06.46.21 1.07 1s1 1.08.87 1.43-.56.62-.72.57a17.69 17.69 0 0 1 -1.38-1.59c-.3-.35-.51-.41-.56-.61s.72-.8.72-.8z" fill="#604f58"/><path d="m46.17 12.61s2.86-6.7 3.37-7 3.12.56 2.86 1.07-2.71 4.24-2.4 4.65 1.84 2 2.2 1.63 5.72-5.82 6.28-5.67 2 1.74 1.89 2.2-8.89 7.56-8.89 7.56a19.9 19.9 0 0 0 -3.22-3z" fill="#dfebc5"/><path d="m52.6 17.82s5.16-4.81 5.57-4.6 1.23 1.22 1 1.53-5.8 4.09-6.17 3.88-.4-.81-.4-.81z" fill="#afc68c"/><path d="m51.12 10.77a17 17 0 0 1 2.4-3c.26.06 1.28.92 1.18 1.08a23.17 23.17 0 0 1 -2.86 2.6c-.21-.02-.72-.68-.72-.68z" fill="#afc68c"/><path d="m15.55 45c.14-.28 4.9-.27 5.21-.12a5.45 5.45 0 0 1 .07 3 15 15 0 0 1 -4.94.34c-.42-.22-.46-2.96-.34-3.22z" fill="#604f58"/><path d="m16.7 45.76a16.83 16.83 0 0 1 3.1 0c.11.2.15 1.19 0 1.31a10 10 0 0 1 -3 .07 6.56 6.56 0 0 1 -.1-1.38z" fill="#ddeff2"/><path d="m25.47 44.57c.14-.13 6.78-.27 7 0s.08 3-.31 3.06a55.33 55.33 0 0 1 -6.7-.07c-.34-.2-.26-2.76.01-2.99z" fill="#604f58"/><path d="m26.43 45.56c.26 0 4.59-.07 4.71 0s.15.85 0 .92a26.51 26.51 0 0 1 -4.63 0 4.19 4.19 0 0 1 -.08-.92z" fill="#ddeff2"/><path d="m35.08 44.72c.28-.33 7.51 0 7.67.15s0 3.11-.27 3.22-6.94.19-7.2-.07a8.06 8.06 0 0 1 -.2-3.3z" fill="#604f58"/><path d="m36.2 45.83c.3-.07 5.55 0 5.59.27s.15 1 0 1-5.52 0-5.55-.08-.04-1.19-.04-1.19z" fill="#ddeff2"/><path d="m19.76 51.2c-.28-.14.46-.89 1.15-.81s5.94 0 6.28.08.54.5.65 1.11.35 2.41-.3 2.64a44.93 44.93 0 0 1 -7.74.27c-.23-.23.04-3.26-.04-3.29z" fill="#604f58"/><path d="m21.1 51.73c.31 0 5.48-.19 5.52 0s.11 1.49 0 1.57a44.31 44.31 0 0 1 -5.62-.11 8.1 8.1 0 0 1 .1-1.46z" fill="#ddeff2"/><path d="m31.87 50.54c.76-.15 8-.19 8 .16s.13 3.3-.23 3.41-7 .27-7.47 0-.3-3.57-.3-3.57z" fill="#604f58"/><path d="m33.13 51.85a54.65 54.65 0 0 1 5.67.15c0 .12 0 .84-.19 1s-5.29.19-5.44-.08a2.28 2.28 0 0 1 -.04-1.07z" fill="#ddeff2"/></svg>