<svg height="64" viewBox="0 0 64 64" width="64" xmlns="http://www.w3.org/2000/svg"><path d="m40 64c-.57 0-1.17 0-1.78 0-8.54-.42-10.19-1-10.89-1.3a31.14 31.14 0 0 0 -4.66-.43h-.38c-.74 0-1.63.06-2.49.12s-1.66.11-2.34.11a3.93 3.93 0 0 1 -2-.39c-3.46-1.94-2.86-4.11-2.46-4.97s2.11-6.41 2.6-8.36c-.1-.15-.23-.32-.36-.52-2.37-3.43-3.46-5.34-3.21-6.86.2-1.2 1.34-6.3 1.76-8.16-3.65-7.3-3.49-8.4-3.42-8.94.44-3.05 2.36-3.55 3.17-3.63h.17c-1.34-3.37-3-7.72-3.18-9.37 0-.29-.09-.59-.14-.9-.39-2.49-1.06-6.65 3-9.11a8.13 8.13 0 0 1 4.26-1.29 6.4 6.4 0 0 1 5.9 4.07c.45 1.08 1.45 3.44 2.45 5.84-.19-1.42.05-1.81.29-2.18a6.49 6.49 0 0 1 3.43-2.24 3.31 3.31 0 0 1 1.59-2.95c1.3-.65 4.62-.66 4.76-.66a4.93 4.93 0 0 1 1.41.12c1.38.39 1.84 1.57 1.68 4.77a3 3 0 0 1 1.36.75l.08.08a4.25 4.25 0 0 1 4.4-4.33h.49a4.79 4.79 0 0 1 2.55.87 5.69 5.69 0 0 1 1.64-.27 3.57 3.57 0 0 1 3.45 2.38c1.17 3.08-.14 5.58-1.84 6.6a5.51 5.51 0 0 1 -1.21.53l-.72 3a8.64 8.64 0 0 1 2.73 2.86 5.84 5.84 0 0 1 .59 3.05c1.3.6 1.27 2 .85 9.4-.1 1.78-.45 7.63-.69 8.33a5.63 5.63 0 0 1 -1.52 2l-.49.51c1.61 1.36 2.47 2.34 2.64 3.46 0 .11.84 12.85 0 14.32-.97 1.74-6.96 3.69-13.47 3.69zm.5-50.11a3.94 3.94 0 0 1 .71.46 5 5 0 0 1 .57.56h.12l1-3.06a7.73 7.73 0 0 1 -1.72-2 30.6 30.6 0 0 1 -.71 4.04z" fill="#fff"/><path d="m15.86 33s-3.69-7.32-3.54-8.42.55-1.89 1.42-2 3.46 1.42 3.46 1.42-4.4-10.54-4.72-13-1.41-6.06 2-8.1 6.21-.71 7.31 1.88 5.21 12.87 5.21 12.87a15.16 15.16 0 0 1 1-1.42 3.66 3.66 0 0 1 1.26-.86s-1.81-6-1.42-6.61a5 5 0 0 1 2.75-1.5c.79-.08 1-.08 1-.08s-.32-2.51.47-2.91a14.69 14.69 0 0 1 4.94-.39c.55.16.16 4.48.16 4.48a5.18 5.18 0 0 1 2 .56c.39.39-.94 6.21-.94 6.21a6.08 6.08 0 0 1 1.73.71 6.08 6.08 0 0 1 .94 1.1l2.44-.24 1.81-5.58s-2.6-1.65-2.6-3.23a2.4 2.4 0 0 1 2.84-2.67c2 .15 2 1.34 2 1.34s3.07-1.89 3.94.39a3.39 3.39 0 0 1 -1 4.25 4.75 4.75 0 0 1 -1.81.55l-1.33 5.58a8.4 8.4 0 0 1 3.22 2.84 5.53 5.53 0 0 1 0 3.93 3 3 0 0 1 1.34-.1c.47.16-.55 15-.71 15.42s-3.15 3.07-2.75 3.46 3.14 2.36 3.3 3.38.55 12.51.24 13.06-5.51 3.09-13.53 2.68-9.68-.92-10.29-1.16a28.6 28.6 0 0 0 -5.27-.55c-2.13-.08-5.67.47-6.37.08s-2.15-1.26-1.6-2.37a84.23 84.23 0 0 0 2.91-9.6c-.07-.4-3.93-5.26-3.67-6.68s1.86-8.72 1.86-8.72z" fill="#604f58"/><path d="m37.3 19.68c-.74-.07-2-.22-2-.22 0-.16-.31-.84 0-.95s2.38-.1 3.42-.1c.6-.47 1.09-.79 1.09-.79a4 4 0 0 0 -1.1-1.26c-.68-.47-3-.68-6.45-.36s-4.56 2.57-4.56 2.83 1.73 5 1.73 5a9.08 9.08 0 0 1 1.94-.26c.63 0 3.2 2.26 3.67 2.41s1.26-.47 1.26-.47a21 21 0 0 1 .16-4.61 3.19 3.19 0 0 1 .84-1.22z" fill="#f0a26c"/><path d="m45.92 54.07c-.11-.36 0-.89.52-.89a12.25 12.25 0 0 1 3.11 2.35c0-.63 0-1.32-.09-2a9.1 9.1 0 0 1 -2.28-1.68c-.11-.42-.32-1.16.1-1.16a6.29 6.29 0 0 1 2.06 1c-.13-2-.29-3.65-.35-3.78-.16-.32-3.07-4.17-3.23-4.88s2.75-4 2.75-4 .71-12.35.63-12.75-1.14-.92-1.81-1.28-4.17 2.68-4.87 3-2.68-1.57-3.39-1.65-3.14 2.2-4.17 2.28-3.69-2.49-4.4-2.63-2 1.49-3 1.81-4.09-2.21-4.8-2.36-2.83 1.81-3.54 2-3.74-2.55-4.09-2.2c-.08.08 2.75 5.9 3 6.14s5.43 1.41 5.43 1.41l-.24 1s-4.09-.55-4.72-.71-2.36 8.65-2.44 8.89a61 61 0 0 0 4 4.72s4.09-1.34 4.57-1.42.86.08.94.32-5 2.59-5.35 3-3.15 9.12-3.23 9.6 1.58 0 5.43-.16 6.93 1.26 13.85 2a31 31 0 0 0 8.69-.53c-.76-.68-2.11-1.94-2.07-2.24s.57-.78.73-.73a27.9 27.9 0 0 1 2.89 2.63l1-.27a31.13 31.13 0 0 1 -2.92-3c0-.32.16-.79.63-.63a24.08 24.08 0 0 1 3.74 3.15 1.93 1.93 0 0 0 .49-.26 2.73 2.73 0 0 0 .11-1 32.76 32.76 0 0 1 -3.68-3.09z" fill="#f6c687"/><path d="m33.57 31.1c.25-.13 9.28-.31 9.2 0s-.55 6.37 0 8.73.79 3.7.79 3.7a27.5 27.5 0 0 1 -6.06.87c-2.83 0-3.54.23-3.86-.4s-.39-12.74-.07-12.9z" fill="#604f58"/><path d="m34.8 32.1a32.07 32.07 0 0 1 6.66 0c.1.21.1 5.4.1 6.61s.58 3.72.48 3.88a53.32 53.32 0 0 1 -7.29.26c-.48-.11-.11-10.65.05-10.75z" fill="#ddeff2"/><g fill="#604f58"><path d="m36.69 33.09a17.64 17.64 0 0 1 2.83.11s.16.89-.11 1a9.89 9.89 0 0 1 -2.72 0 2.45 2.45 0 0 1 0-1.11z"/><path d="m35.79 35.93c.32-.06 4.62.1 4.62.1s.16.74 0 .84-4.67 0-4.67 0z"/><path d="m35.74 37.81s2.68-.21 2.78.06.21.73 0 .73-2.78.21-2.83 0a3.19 3.19 0 0 1 .05-.79z"/><path d="m39.47 41c.36-.05 1.52-.16 1.62 0s.26.58 0 .69-1.46.41-1.67.1a1.08 1.08 0 0 1 .05-.79z"/></g><path d="m18.59 24.86s-5.09-13.11-5.09-15-.68-4.83 2.36-6a3.92 3.92 0 0 1 5.35 2.2c.69 1.47 7.35 18.46 7.08 18.73a2.32 2.32 0 0 1 -1.41.42c-.16-.11-3-2.42-3.78-2.31a8.08 8.08 0 0 0 -2.46 1.36c-.64.44-1.73.81-2.05.6z" fill="#fcdfc8"/><path d="m17.39 13.32a13.16 13.16 0 0 0 2.2-.31c1.15-.37 1.52-1 1.83-.69s.69.84.53 1a5.21 5.21 0 0 1 -2.36 1.05c-.84.05-2.05.05-2.05.05s-.42-.94-.15-1.1z" fill="#604f58"/><path d="m19.69 18.67a5.08 5.08 0 0 0 2-.21c1.41-.42 1.83-.89 2-.84s.74 1 .58 1.16a5.32 5.32 0 0 1 -2.36 1c-.73-.05-2.15.47-2.31.21s-.22-1.21.09-1.32z" fill="#604f58"/><path d="m29.24 18.57c.21 0 1.41.1 2.2.1s1.37-.05 1.37.11-.48.94-1 1a7.13 7.13 0 0 1 -2.36-.05c-.32-.22-.53-1.16-.21-1.16z" fill="#604f58"/><path d="m32.28 21.35a15.23 15.23 0 0 1 2.73.1c.16.11.37.68.16.84a7.57 7.57 0 0 1 -2.89.16c-.28-.21 0-1.1 0-1.1z" fill="#604f58"/><path d="m30 14.89s-1.39-5.19-1.13-5.45a5.91 5.91 0 0 1 2.2-.94c.11.15.53 2.88.69 2.88s.42 0 .42.21a18.45 18.45 0 0 1 0 2.88c-.18.06-2.18.42-2.18.42z" fill="#afc68c"/><path d="m33.22 14.42s-.68-9-.36-9.18a8.91 8.91 0 0 1 3.2-.36c0 .21-.68 5.87-.53 5.92s.74.37.79.06a13.14 13.14 0 0 1 .68-1.58s1 .16 1.1.32-.73 5-1 5a22.46 22.46 0 0 1 -3.88-.18z" fill="#c5dda3"/><path d="m44.66 16.52a45.58 45.58 0 0 0 1.83-5.72c-.1-.36-2-1.57-2.25-2.25s-.21-1.79.73-2 1.26.2 1.42.68.52 1 .68 1 .47.16.68-.1.42-1.16 1.1-1.21 2.26.47 1.89 1.58a3 3 0 0 1 -2 1.83c-.52.11-1.1.21-1.21.47s-1.25 6.14-1.53 6.14a8.67 8.67 0 0 1 -1.34-.42z" fill="#f9f2ed"/><path d="m37.37 24.49a4.71 4.71 0 0 1 1.63-4.49 7.33 7.33 0 0 1 7.77-1.47c2.57.89 2.83 5 2.62 5s-1.68-1-3.1-.74-3.88 3-4.45 2.84-2.22-1.87-2.9-1.63a8.7 8.7 0 0 1 -1.57.49z" fill="#f7babe"/><path d="m40.2 22.18a1.46 1.46 0 0 1 1.68.48c.21.42-.74.84-1.31.57s-.68-.89-.37-1.05z" fill="#604f58"/><path d="m42.82 19.72c.55-.27 1 .05 1 .63s-.78.84-1.2.58a.75.75 0 0 1 .2-1.21z" fill="#604f58"/><path d="m45.92 20.3a.84.84 0 0 1 .94.63c.11.36-.68.89-1.2.57s-.11-1.15.26-1.2z" fill="#604f58"/></svg>