<svg height="64" viewBox="0 0 64 64" width="64" xmlns="http://www.w3.org/2000/svg"><path d="m26.85 60.18a16.28 16.28 0 0 1 -1.78-.09 7.91 7.91 0 0 1 -3-1 2.54 2.54 0 0 0 -1.18-.41h-.77-1.25c-.51 0-1 0-1.57 0a21.52 21.52 0 0 1 -3.06-.19 4.88 4.88 0 0 1 -3.15-1.49 2.42 2.42 0 0 0 -1.55-.8 8.2 8.2 0 0 1 -6.43-5.76 21.74 21.74 0 0 1 -.54-2.15 6.56 6.56 0 0 0 -.79-2.31c-1.29-2.12-1.78-6.36-1.78-9.42 0-.11.21-11.07 1.07-14.09.55-2 4-9.61 7.83-12.88 3.61-3 11.13-5.77 14.54-5.77a4.5 4.5 0 0 1 .66 0 12.43 12.43 0 0 1 4.29 1.52l.46.24.62-.09a22.4 22.4 0 0 1 3.41-.31 12 12 0 0 1 2.54.25 14.57 14.57 0 0 1 5.39 2.81 14.39 14.39 0 0 0 1.32.9h.57a10.24 10.24 0 0 1 8.62 4 28.52 28.52 0 0 1 2.57 3.55 3.21 3.21 0 0 0 1.11 1.18 15.93 15.93 0 0 1 3.88 5.54c.31.6.62 1.21 1 1.8.71 1.27 1.43 2.81 2.07 4.17.45 1 1.07 2.27 1.28 2.56 1.56 1.95.72 11.1-.81 13-1.81 2.25-13.88 9.55-18.09 11.4-4 1.77-4.82 1.94-6.69 2h-.64a6.9 6.9 0 0 1 -1.2-.1h-.07a11.89 11.89 0 0 0 -1.34.54 19.66 19.66 0 0 1 -7.54 1.4z" fill="#fff"/><path d="m2.93 23c.45-1.59 3.66-8.9 7.22-11.92s11.38-5.59 13.7-5.29 4 1.68 4.7 1.78 3.61-.79 6.48-.2 5.44 3.47 6.68 3.71 4.85-.69 8.11 3.32 2 3.41 4 5 3 4.31 4.35 6.78 2.92 6.23 3.51 7 .64 8.81-.79 10.59-13 8.9-17.36 10.83-4.55 1.78-6.33 1.83-1-.54-3.61.59a17.8 17.8 0 0 1 -8.26 1.19c-2.18-.25-2.53-1.28-4.31-1.38a62 62 0 0 1 -6.48-.15c-2.42-.35-1.58-1.73-4.55-2.38a6.22 6.22 0 0 1 -4.99-4.5c-.64-2-.55-3.31-1.53-4.89s-1.58-5.35-1.53-8.31.35-11.33.99-13.6z" fill="#604f58"/><path d="m5.55 23.88c.14-.22.5.5 2 .45s4.11-.89 4.4-.79-.54 2.32 1.19 3.81 2.57 1.53 2.87 2.37-.35.59.49 1.48 2.18 1.69 2.62 2.87.35 3.76.05 4a10.44 10.44 0 0 0 -4.17 3.13c-1.78 2.32-2.23 2.91-3 3.16s-1.73 0-2.87.59-2.42 1.14-2.42 1.14a13.14 13.14 0 0 0 -1-2.77c-.59-1-.79-3.71-.89-4.4s.29-14.29.73-15.04z" fill="#f39a9b"/><path d="m7.83 47.38c.17-.38 1.23-1.58 1.93-1.63s2.82.1 3.46-.75 2.17-3.06 2.57-3 .69.34.94.15a10.71 10.71 0 0 1 3-2.38c1.28-.44 1.18-.59 2.47-.34a8.63 8.63 0 0 1 4 2.62c.94 1.08.69 2 1 2.47s1.38.05 1.68.3.44.24.2.69a26 26 0 0 1 -2.68 2.42 3.17 3.17 0 0 0 -1.23 1.93 9.53 9.53 0 0 1 -3.56 3.86c-1.44.59-5.94.3-6.38 0s-2.87-1.88-3.86-2a4.4 4.4 0 0 1 -2.87-1.28c-.57-.79-1.02-2.37-.67-3.06z" fill="#f39a9b"/><path d="m5.9 22.45a21.42 21.42 0 0 1 3.36-5.79c1.58-1.88 1.73-2.27 1.93-2a24.84 24.84 0 0 1 .54 3.37 10.55 10.55 0 0 1 -.29 4.1c-.25.15-1.19 0-2 .45s-1.19.84-1.73.79-1.86-.28-1.81-.92z" fill="#f39a9b"/><path d="m12.38 13.05c.15-.34 6.28-3.76 8.95-4.3s3.36-.15 4.4.35a5.52 5.52 0 0 0 2.72.94c1.19 0 1.59-.3 2.48.34s2.12 3.32 2.32 4.95.2 1.88-.15 2.17a58.63 58.63 0 0 0 -6.38 5c-3.21 3-3.81 4.3-6.87 4.65s-4.41.2-5.1-.1-1.68-2.57-1.75-4.25.45-4.11 0-5-1-2.47-.84-3 .4-.39.4-.84a3 3 0 0 0 -.18-.91z" fill="#f39a9b"/><path d="m16.68 28.19c.24-.18 1.78.64 3.71-.05s3.17-1.34 3.17-1.09-1.56 1.38-1.93 2.67-.35 1.63-.6 1.44a16 16 0 0 1 -1.68-.9c-.54-.44-.69-1-1.14-.74s-1 .5-.29 1a10.29 10.29 0 0 1 1.38 1.14c.3.3.5.64.2.64a8.89 8.89 0 0 1 -2.5-2.18c-.32-.55-.52-1.78-.32-1.93z" fill="#f7babe"/><path d="m20.09 37.88a18.23 18.23 0 0 1 .1-3.56c.25-.3.4-.35.5 0s.49 3.81 0 3.91-.5-.15-.6-.35z" fill="#f7babe"/><path d="m22.37 37.19c-.05-.2-1-4.85.15-6.83s2.42-2.67 2.57-3.16-.5-1.14-.35-1.39 3.91-3.61 6-5.19 2.87-2.18 3.26-2 .4 1 .5 1.44-.05 1.48.15 2.67 1.33 1.88.89 3.81-1.29 3.31-1.39 4.2-.1 6.63-.49 7.42-1.54 1.48-2.18 2.67-1.29 2.72-1.83 2.87-1.09.39-1.34 0-1.13-3.32-2.22-3.86a15 15 0 0 1 -2.23-1.09c-.7-.52-1.34-1.02-1.49-1.56z" fill="#f39a9b"/><path d="m23.06 54.11a16.72 16.72 0 0 0 3-3.12c.49-1 .34-1.48 1.33-2.38a12.21 12.21 0 0 0 3.52-3.8c1.38-2.38 1.28-3.17 2.17-4a5 5 0 0 0 2.13-4.35c0-2.53-.3-4.36.59-6.53s1.39-3.07 1-4.6-1-2.52-.89-5 .1-3.46-.69-4.94-2.07-3.87-2.37-4.39-.49-.84-.14-1a11.73 11.73 0 0 1 4.89 1.48c2.08 1.09 2.58 1.88 4.26 2.27s2.47 0 3.76.7a9.48 9.48 0 0 1 3.85 4 29.29 29.29 0 0 0 4.36 5.2c1.18 1.33 2.72 5.69 4.2 8.26s1.53 3.09 1.63 4.19-.1 3.66-.1 4.25a3.4 3.4 0 0 1 -1.23 2.53 21.05 21.05 0 0 1 -5.33 3.56c-2.53 1.28-5.35 2.87-8.61 4.65s-2.72 2.22-5.79 2.52-3.56 0-5.88.59-1.88 1.49-5.4 1.34-4.46-1.14-4.26-1.43z" fill="#d16d6c"/><g fill="#604f58"><path d="m32.76 55.09s4.2-4.55 5.44-7.17 1.93-4.7 3-6.72a17.76 17.76 0 0 0 2.08-8.12c.05-3.31.25-8.21.3-11.32s.15-3.42-.45-4.26-1.68-4.35-1.48-4.65a.87.87 0 0 1 1-.24c.25.15.39 1.63 1.14 3.06s1.28 1.59 1.18 6-.49 15.48-1.43 17.56-2.33 4-3.27 6.67a17.06 17.06 0 0 1 -2.86 5.45 30.92 30.92 0 0 0 -1.93 3 10.53 10.53 0 0 1 -2.72.74z"/><path d="m43.19 52.47s1.24-2.87 1.93-4.65.79-2.67 1.34-3.8 3-3.32 3.11-5.94a29.67 29.67 0 0 1 1.43-7.42 15.12 15.12 0 0 0 1-5.66c0-2.07-.35-4.45-.1-4.4a4.23 4.23 0 0 1 .84.45s1 4.25.1 7.12-1.49 3.76-1.78 7.22-.06 4.47-2.06 7.09a19.89 19.89 0 0 0 -3.22 6c-.89 2.12-.79 3.06-1.08 3.36a5.42 5.42 0 0 1 -1.51.63z"/><path d="m52.05 47.53a57 57 0 0 1 2.47-6.63 8.31 8.31 0 0 0 1.28-4.21c.2-2.07.55-5.44.75-6s.59-1.58.84-1.53.54.79.54.79a24.81 24.81 0 0 0 -.69 4.55c-.2 2.82.39 2.87-.69 4.4a14.82 14.82 0 0 0 -2.28 5.54c-.27 1.65-.05 2.34-.27 2.56a9.8 9.8 0 0 1 -1.95.53z"/><path d="m42.6 53.36a14.33 14.33 0 0 1 -3.07-.54 33.55 33.55 0 0 0 -6.18-1.29c-1.83-.15-5.19-.24-6.33-.19s-1.93.19-1.83-.05.59-1.24.59-1.24 2.87-.15 5.22-.05 5.45 1.43 8.17 1.48 5.49.4 5.49.4z"/><path d="m30.93 43.27s3.11.89 5.54 1.64a37.57 37.57 0 0 0 6.33 1.33c1.63.2 3 .69 4.55.84l5.59.55a9.42 9.42 0 0 0 1.83-.75 8.85 8.85 0 0 0 -3.66-.69 60.14 60.14 0 0 1 -9.25-1.43 60.15 60.15 0 0 1 -6.48-1.54 31.22 31.22 0 0 1 -3.46-1.68z"/><path d="m34.29 38.13a5.22 5.22 0 0 1 3.61-.4c2.47.4 1.88 1.49 5.64 1.49s4.25-.1 6.33.64 3.91 1.39 5.19 1.88a10.09 10.09 0 0 0 2.87.94 16.92 16.92 0 0 0 1.83-.15l.3-.94a15 15 0 0 1 -3-.15c-1.53-.24-3.51-2.07-6.33-2.52s-5.64-1.14-7.47-1.38a26.72 26.72 0 0 1 -4.5-.85 5 5 0 0 0 -2.62-.39 6.43 6.43 0 0 0 -1.44.25z"/><path d="m34.54 31.25s6.62-.89 9.2-.34a18 18 0 0 1 5.54 1.93 25.37 25.37 0 0 0 4.6 1.88c1.78.59 2.62.79 3.51 1.68s2.72 2.47 2.72 2.47l.39-2.27s-3.21-1.74-4.65-2.6-2.27-.74-4.79-1.53-4.41-2.32-6.33-2.77a19.1 19.1 0 0 0 -6-.3 20.45 20.45 0 0 0 -3.56.45 10.48 10.48 0 0 0 -.63 1.4z"/><path d="m35.43 23.19s2.87-2 5.09-1.28 2.42 1.38 5.74 2.47 3.74 2.82 5.74 3.62 2.52.3 3.56 1l3 2.13-1.17-3.13a13.18 13.18 0 0 0 -2.67-.94c-1.39-.3-1.19.3-2.62-.54s-1.79-2.18-3.91-2.82-2.77-.75-3.61-1.09-3.32-2.33-4.9-2.23-4.35 1.09-4.4 1.39a7.76 7.76 0 0 0 .15 1.42z"/><path d="m34.59 17.21s2.42-2.38 4.4-2 5.09 3 5.09 3a3.52 3.52 0 0 1 2.82.1c1.19.74 4.26 3.85 5 4s1.43-.44 1.38-.79-2.28-1.94-2.62-2.19-2.82-2.57-4.5-2.77-3-.24-3-.24-2.22-2.58-3.86-2.62-4.84 1.83-4.84 2 .13 1.51.13 1.51z"/><path d="m15.64 15.13a5.71 5.71 0 0 1 3.17-2c1.88-.54 2.62-.44 2.47 0s-.74.65-1.24.89a9.33 9.33 0 0 0 -2.22.94c-.89.65-1.09 1.24-1.73 1.29s-.55-.87-.45-1.12z"/><path d="m25 32.54c-.05-.2.54-1.14 1-.64s1.83 4.65 1.63 5-.49.6-.84.2a31.94 31.94 0 0 1 -1.79-4.56z"/><path d="m28 29.42c-.05-.29.59-.59.89-.44s1.83 4 1.48 4.2-.29.74-.74.2a22.66 22.66 0 0 1 -1.63-3.96z"/><path d="m16.68 50.64c-.25-.44-1.63-3.31-1.38-3.81s.34-1.08.84-.54a10.67 10.67 0 0 1 1.18 4.06c-.14.34-.64.29-.64.29z"/><path d="m19.1 50.4a31.49 31.49 0 0 1 -1.88-4.21 1 1 0 0 1 1.14-.44 16.1 16.1 0 0 1 1.34 4.7c-.2.24-.6-.05-.6-.05z"/><path d="m21 48.07c-.05-.25-1.28-2.42-1-2.77s1-.54 1.28-.2.94 3 .64 3.12a1.79 1.79 0 0 1 -.92-.15z"/></g></svg>