<svg height="64" viewBox="0 0 64 64" width="64" xmlns="http://www.w3.org/2000/svg"><path d="m31.11 64c-6.73 0-12.61-1.48-16.11-4.07s-4.3-4.16-4.45-5.93c0-.33-1.11-36.91-.56-38.1.14-.31.31-.68 2.09-2.1-.88-.94-1-1.29-1-1.6a45 45 0 0 1 0-7.34c.42-1.29 3.2-3.46 7.81-4.06a116.12 116.12 0 0 1 12.11-.71h.1c1.56-.04 3.53-.09 5.5-.09a37.59 37.59 0 0 1 8 .58c3.19.78 6.24 2.91 7 4.33s.65 7.23.18 8.15a10.72 10.72 0 0 1 2.07 2.21c.35.62.56 1 0 20.26-.22 8-.58 18.8-.66 19.38-.29 2.07-6.47 7.71-16.64 8.79a50.79 50.79 0 0 1 -5.44.3z" fill="#fff"/><path d="m15 14a15.59 15.59 0 0 1 -2.11-2.24c-.1-.41-.13-6 0-6.26s2.11-2.2 6.22-2.73a111.28 111.28 0 0 1 11.89-.77c3.94-.1 10.23-.27 13.11.44s5.34 2.56 5.74 3.37.4 6 .23 6.26a6.92 6.92 0 0 1 -1.44.93 24.19 24.19 0 0 1 3.48 3.22c.47.83-.77 37.69-.87 38.43s-5.15 6.09-14.92 7.13-16.79-.91-20.2-3.42-3.58-3.68-3.65-4.48-.93-36.69-.73-37.13a30 30 0 0 1 3.25-2.75z" fill="#604f58"/><path d="m14.73 11.3a21.27 21.27 0 0 1 .1-4.92c.16-.27 1-1.64 9-2.17a138.57 138.57 0 0 1 18.7-.1c3.61.3 5.69 2.17 5.75 2.44s0 4.28 0 4.45-5.69 2.81-13.78 2.94a101.72 101.72 0 0 1 -16.5-.8 7 7 0 0 1 -3.27-1.84z" fill="#f6c687"/><path d="m16.23 8.15s.37-.3.5-.23a35.18 35.18 0 0 0 14.49 2.68c8.63-.1 15.79-2.55 16-2.38a2.22 2.22 0 0 1 .07 1.24 57.93 57.93 0 0 1 -16.11 2.34 55.43 55.43 0 0 1 -14.85-2.54c-.23-.14-.17-.87-.1-1.11z" fill="#604f58"/><g fill="#ddeff2"><path d="m17 14.61a49.14 49.14 0 0 0 16.69 1.27 90.49 90.49 0 0 0 13.41-2 4.67 4.67 0 0 1 1.37 1.91c0 .3-1.4 1-1.4 1s.37-.84-1.54-.9a15.06 15.06 0 0 0 -4.18.23 1.31 1.31 0 0 0 -.8.7 3.82 3.82 0 0 0 -2.25.14c-.83.47-.73 1-1.13 1.1s-.5 0-.5 0a1.85 1.85 0 0 0 -1.41-1.27 13.53 13.53 0 0 0 -4.65.84 2.44 2.44 0 0 0 -1.67 1.5 68.92 68.92 0 0 1 -7.69-1.13c-3.75-.8-5.32-1.77-5.29-1.87a9.23 9.23 0 0 1 1.04-1.52z"/><path d="m13.76 17.69s1.2-.91 1.4-.87a45.39 45.39 0 0 0 8.53 2.54 51.77 51.77 0 0 0 5.85 1s.17.77 3.12.94a10 10 0 0 0 4.58-1 7 7 0 0 1 .43 1.23s-4.81 2.81-5.25 2.85a105.46 105.46 0 0 1 -12.42-1.14c-3.65-.74-3.88-.84-4.11-.67s-.2 1.34-.24 1.74.4 27.16.5 27.8.91 3.08 6.23 4.78 7.77 1.37 12.25 1.11a32.89 32.89 0 0 0 12-3.82c1.37-.93 1.6-1.54 1.64-2.11s.9-29.3.73-29.53-.73-.27-1.7.06a29.27 29.27 0 0 1 -3.75 1c-1 .17-1.1.17-1.1.17a6.19 6.19 0 0 0 -.64-1.48 3.17 3.17 0 0 0 -.74-.83 7.13 7.13 0 0 1 .47-1.74c.2-.17.17.27 2.34.16a5 5 0 0 0 3.78-2c.37-.5.21-.43.41-.63a5.83 5.83 0 0 1 1.7-.87.63.63 0 0 1 .6.5c0 .27-.66 23.48-.73 28.93s-.46 8.19-.64 8.47-7.59 6.59-18.16 6-15.69-4.81-16.16-6-1.06-36.19-.92-36.59z"/><path d="m30.18 19.23c-.14-.2.13-.61 1.1-.84a14.16 14.16 0 0 1 3.21-.6 5.06 5.06 0 0 1 2.11 1.4c0 .24-.57.34-1.13.34s-2.85 0-3.62 0-1.44.03-1.67-.3z"/><path d="m37.91 18.32c.09-.07 1.2-.8 1.8-.63s.91 1.07.64 1.37a3.45 3.45 0 0 1 -2.31.13c-.13-.19-.4-.67-.13-.87z"/><path d="m41.75 17s.3-.43 1.94-.33 2.25 0 2.21.37-1.17.87-2.41 1-1.6.34-1.8.1-.2-1.02.06-1.14z"/><path d="m43.26 18.76c0-.18 1.14-.2 2.14-.54s1.27-.57 1.34-.47a4.39 4.39 0 0 1 -1.74 1.17c-.57.14-1.81.14-1.74-.16z"/><path d="m38.64 20.06a2.13 2.13 0 0 0 1 .1c.67-.1 1-.3.93-.06a10.16 10.16 0 0 1 -.36 1.1s-.44 0-1 0-.7.1-.7.1-.2-1.17.13-1.24z"/></g><path d="m40.11 22.47c.15.15.07.8-.16 1.17a1.16 1.16 0 0 1 -.57.47 4.67 4.67 0 0 0 -1.38-.44 2.24 2.24 0 0 0 -2.2 1.71c-.51 1.64 1.3 2.74 3.27 2.48s2.21-1 2.18-1.88a3.07 3.07 0 0 0 -.57-1.54 3.75 3.75 0 0 0 .47-.73 1.79 1.79 0 0 0 .1-.7s1.87 4.81 2.44 6.65 1.24 3.58.9 4.92-8.12 17.76-8.79 18.57-2.07.56-3.61.06a42.58 42.58 0 0 1 -7.19-2.87c-2.38-1.34-3.92-2.51-4-3.12s8-19.9 8.46-20.37 8.33-4.18 8.87-4.35a3 3 0 0 1 1.78-.03z" fill="#f6c687"/><path d="m38.61 24.78c.23.08-1 .6-1 .77a.83.83 0 0 0 .74.47c.36 0 .43.06.56-.14a6.38 6.38 0 0 1 .61-.63s.73.06.77.63-1 1.61-2.61.91-.91-2.68.93-2.01z" fill="#ef7d7b"/><path d="m40 52.56c.14-.46.57-.6.75-.49a23.61 23.61 0 0 1 2.18 2.66l.89-.4a29.28 29.28 0 0 1 -2.18-2.9c0-.25.71-.57.89-.57a21.17 21.17 0 0 1 2.34 3c.37-.18.69-.35 1-.51a22.62 22.62 0 0 1 -2.35-2.9c0-.25.5-.75.78-.64a20.06 20.06 0 0 1 2.48 3c.09-.06.16-.12.16-.14s0-.38.05-1c-.85-1.14-2.64-3.56-2.64-3.67s.74-.6 1-.46a29.76 29.76 0 0 1 1.65 2.39c0-.61 0-1.31.08-2.08a34.14 34.14 0 0 1 -2.34-2.93c-.14-.39-.18-.64.18-.82s1.32 1 2.22 2.11c.32-8.49.78-22.37.67-22.47s-4.81 1.14-4.81 1.14 2.11 5.38 2.47 6.69a6.86 6.86 0 0 1 .1 3.85c-.36 1-6.75 14-8 16.59s-1.31 2.57-2 2.87-2.25 0-5.62-1.27a39.92 39.92 0 0 1 -8.27-4.21c-1.8-1.31-1.84-1.71-1.7-2.58s8.33-20.23 8.43-20.47 1.64-.77 1.84-.9-7.06-.5-8.93-.91-4.34-1.4-4.62-1.2.5 28.17.7 28.67a11.07 11.07 0 0 0 4.89 3.68 29 29 0 0 0 13.54 1.1 29.59 29.59 0 0 0 6-1.64c-.48-.55-1.99-2.15-1.83-2.59z" fill="#ef7d7b"/></svg>