<svg height="64" viewBox="0 0 64 64" width="64" xmlns="http://www.w3.org/2000/svg"><path d="m34.93 64c-.88 0-1.74 0-2.58 0l-2.8-.08c-4.9-.13-9.53-.26-12.41-.87-3.83-.81-6.26-2.76-7.42-6-1-2.65-1-5.32-1.14-11.16v-1.15c-.09-4.44-.16-12.44-.2-17a6.42 6.42 0 0 1 -3 .76 3.68 3.68 0 0 1 -2.65-1.13 4.74 4.74 0 0 1 -1.13-3.6 6.78 6.78 0 0 1 2.77-5.45l.2-.17c.73-.65 2.07-1.66 3.08-2.41a28.65 28.65 0 0 1 -2-5.66c-.65-4.18 1.22-6.08 2.95-6.91 2.92-1.43 9.4-2.46 18.21-2.92 3.19-.17 6.25-.25 9.13-.25 4.79 0 11.36.24 15.49 1.36 6.1 1.64 7.57 4.64 7.89 6.31s-1.06 6-2.41 9.6c.23.41.55 1 .93 1.51s.41.56.88.75l.62.27c.18.09.37.16.55.23.75.29 2.73 1 2.5 3.18a6.56 6.56 0 0 1 -4.49 4.79 6.3 6.3 0 0 1 -1.53.2 5.69 5.69 0 0 1 -.83-.06c0 3.08-.15 8.16-.32 13.59-.06 2-.1 3.69-.13 5.11-.12 5-.17 7-.91 9.41a9.59 9.59 0 0 1 -6 6.64c-2.42.72-8.48 1.11-13.25 1.11z" fill="#fff"/><path d="m10.08 16.37s-2.22-4.59-2.54-6.59 0-3.91 1.91-4.87 7-2.18 17.46-2.72 19.5-.19 24 1 6.18 3.23 6.5 4.82-2.64 9.37-2.64 9.37a23.36 23.36 0 0 0 1.46 2.45 3.81 3.81 0 0 0 2.27 1.69c1 .45 2.05.59 2 1.45a4.72 4.72 0 0 1 -3 3.09 3.28 3.28 0 0 1 -2.91-.45c-.37-.28-.87-.59-.87-.59s-.09 7.77-.36 16.59-.09 11.23-1 14a7.67 7.67 0 0 1 -4.81 5.39c-2.18.68-9.32 1.18-15.14 1s-11.64-.22-14.87-.91-5.09-2.22-6-4.73-.91-5.22-1-11.68-.22-20.28-.22-20.28-1 .68-2.37 1.41a4.9 4.9 0 0 1 -2.54.77c-.46 0-2-.22-1.82-2.73s1.13-3.22 2.32-4.27 4.17-3.21 4.17-3.21z" fill="#604f58"/><path d="m46.28 48.56c0-.36.13-1 .63-1s2.58 2.43 3.54 3.57c.07-.79.13-1.8.2-3a30.49 30.49 0 0 1 -3.28-2.77c-.14-.37-.32-1.09.23-1a13.7 13.7 0 0 1 3.11 2.64c0-.65.06-1.32.09-2a27.37 27.37 0 0 1 -3.07-2.63c-.18-.41 0-.91.23-.91a16.13 16.13 0 0 1 2.9 2.07c0-.66.06-1.33.08-2-.79-.49-2.41-1.53-2.48-1.91s0-1 .32-1a9.69 9.69 0 0 1 2.22 1.32l.06-1.75c-.51-.19-2.34-.93-2.42-1.4s0-1 .32-.91a11.38 11.38 0 0 1 2.14 1.12c.2-6.36.34-12.23.32-12.32a14.26 14.26 0 0 1 -3.55-.63c-1.91-.78-2.55-2.28-3.5-2.46s-2.73.64-4 1.23-2.82 1.32-4.41.82-3.55-3.19-6.87-3-5.86 2.91-7.59 3.59-4.05-.31-5.5-1a5.68 5.68 0 0 0 -3.64.18s.45 20.1.36 25.19.18 6.55 2.14 8.32 4.5 2.27 9.32 2.41c4.17.12 13 .2 18.28-.16a18.77 18.77 0 0 1 -2.46-2.56c0-.27.28-.86.64-.77a22.46 22.46 0 0 1 3.53 3.28h.47c.27 0 .52-.08.77-.14-1-1-3.53-3.48-3.45-3.77s.54-.78.86-.59a47.25 47.25 0 0 1 4 3.91 5.91 5.91 0 0 0 1-.6c-1-.92-4-3.85-4-4s.54-.87 1-.77a24.52 24.52 0 0 1 3.86 4 6.29 6.29 0 0 0 .79-1.34c-1.14-1-4.37-3.77-4.33-4.07a1.25 1.25 0 0 1 .86-.87 31 31 0 0 1 3.9 3.72c.17-.61.29-1.23.42-1.81 0-.06 0-.14 0-.22-1.19-1.14-4.04-3.72-4.04-4.01z" fill="#f39a9b"/><path d="m8.18 19.24a17.67 17.67 0 0 1 8.82-4.1c5-1 13.19-1.63 17.37-1.13s7.46 1.13 10.41 1.5 6.5.36 7.87 1.82 3 4.09 4.45 4.86 2.19.78 2 1.37-2.32 1.63-3 1.63-2.59-2.09-3.59-2a10 10 0 0 1 -4 0c-1.23-.46-2.23-2.82-4.41-3s-5.51 2.82-7.32 2.5-3.64-3-6.92-3-8.86 3.59-9.73 3.59-2.63-2-6.13-1.28-7.14 3.55-8 3.55-2.19-.28-1.59-2.32 3.31-3.63 3.77-3.99z" fill="#f9f2ed"/><path d="m12 15.46s-2.73-6.23-2.28-7.46 7.19-3 15.37-3.55 18.41-.35 23.46.65 7 2 6.91 3.91-2.18 7.09-2.54 7-2.73-1.31-4.87-1.45-4.59.14-7.18-.59a35.75 35.75 0 0 0 -9.6-1.14 72.61 72.61 0 0 0 -12 .86c-3.5.77-7.27 1.77-7.27 1.77z" fill="#f9f2ed"/><g fill="#604f58"><path d="m13.81 13.46s-1.5-3.5-1.27-3.91.5-.68.77-.36 1.41 3.81 1.19 4.09a.8.8 0 0 1 -.69.18z"/><path d="m16.63 12.73s-2-3.36-1.82-3.68.78-.82 1.23-.36 1.59 3.64 1.37 3.91-.78.13-.78.13z"/><path d="m19.54 11.92s-1.63-3.1-1.45-3.55a.89.89 0 0 1 1.13-.37 28.34 28.34 0 0 1 .87 3.87z"/><path d="m44.73 12.33s-.32-4.23 0-4.51.77-.31.87 0 .18 4.5-.14 4.64-.73-.13-.73-.13z"/><path d="m47.05 12.46s-.05-4.36.05-4.55 1-.09 1.09.23 0 4.41-.23 4.5a2 2 0 0 1 -.91-.18z"/><path d="m50.05 12.92s.09-4.37.41-4.46.91-.23 1 .14a21.27 21.27 0 0 1 -.73 4.5 1.9 1.9 0 0 1 -.68-.18z"/><path d="m15.77 27.15c.23-.15 1.23-.27 1.23.13s.14 16.65-.13 16.87-.87.5-1.19.05.09-17.05.09-17.05z"/><path d="m20.63 32c0-.73.19-3.41 3-3.73s11.14-.27 14.37.56 4.59 1.05 4.91 5.46.32 10.77-.41 12.36-1.45 2.78-4 3-10.1.23-12.69.18-3.73-.32-4.59-1.82-.77-2.86-.86-4.86.27-10.27.27-11.15z"/></g><path d="m22.36 30.38c.41-.61 1.23-1.09 3.37-1.09s10.09.22 12.32.77 3.45 1.23 3.64 3.41-.14 11.73-.28 12.64a3.64 3.64 0 0 1 -2.68 2.27c-1.18.23-12.28.23-13.69.18a3.48 3.48 0 0 1 -3.41-3.18c-.41-2.32-.13-12 0-12.91a5.62 5.62 0 0 1 .73-2.09z" fill="#fcdfc8"/></svg>