<svg height="64" viewBox="0 0 64 64" width="64" xmlns="http://www.w3.org/2000/svg"><path d="m60.94 1.6a4.36 4.36 0 0 0 -3.44-1.6 6.25 6.25 0 0 0 -4.17 1.69c-1.16 1.14-19.14 16.54-20.22 17.31a2.47 2.47 0 0 0 -.7.74 4.26 4.26 0 0 0 -3-1.55c-1.52 0-3 1.44-3.7 2.48a4 4 0 0 0 -2.45-.91 3.42 3.42 0 0 0 -1.86.55 4.34 4.34 0 0 0 -1.83 2.18 3.61 3.61 0 0 0 -.82-.1 3.37 3.37 0 0 0 -1.65.44 5.89 5.89 0 0 0 -2.73 3.43c-1.71 0-5 2.52-5.21 4.27a.49.49 0 0 0 0 .12h-.7c-1.74.19-4.36 2.35-5.86 6.18a10.46 10.46 0 0 0 3 11.46 20.12 20.12 0 0 0 4.62 3l.41.21c-.92 1.5-2.39 4-1.87 7 .59 3.5 3.33 5.5 7.49 5.5a15.57 15.57 0 0 0 2.75-.25c4.33-.75 6.2-4.75 6.13-8.42a11.34 11.34 0 0 0 -2-5.18 28.84 28.84 0 0 0 10.69-5.86c5.89-5.29 5.85-10.38 5.55-12.29a3.12 3.12 0 0 0 -1.06-1.91 4.27 4.27 0 0 0 .22-2.41 2.5 2.5 0 0 0 -.21-.48c.94-.48 3.08-2.2 11.19-9.2 3.89-3.29 10.49-9 11.07-9.74 1.84-2.46 1.97-4.69.36-6.66z" fill="#fff"/><path d="m12.1 32.57s-1.07-1.28-1-1.82 2.63-2.74 3.44-2.47 3.21 3.86 3.48 3.86.59-.21 1-.16a6.55 6.55 0 0 0 1.12 0s-3.75-3.64-3.91-4.45a3.46 3.46 0 0 1 1.82-3c1.18-.64 2.15.48 2.74 1.18s4.61 6.17 5.04 6.29a4.64 4.64 0 0 0 1 .11s.48-.27.27-.43-5.42-6.7-5.69-7.29a2 2 0 0 1 1-2.36c1.13-.7 2.2.16 3.27 1.44s5.37 7 5.37 7 .69.21.85.05.38-.11-.05-.54-4.41-6.26-4.85-6.98 1.56-2.84 2.41-2.84 1.47.84 2.38 1.84a60.9 60.9 0 0 1 4.83 6.17 2.85 2.85 0 0 1 -.38 1.72c-.27.37-.7 1-.7 1s1.72.32 1.88 1.39.59 5.63-4.88 10.57a27.91 27.91 0 0 1 -12.66 6.11s3.22 3.92 3.27 6.44-1.07 5.85-4.5 6.44-7.3.16-7.94-3.6 2.79-6.54 2.3-7.4-3.64-1.72-6.06-4-3.86-5.9-2.52-9.28 3.43-4.83 4.13-4.88 3.54-.11 3.54-.11z" fill="#604f58"/><path d="m14 33.16a4.45 4.45 0 0 1 -1.5-2.41c.16-.27 1.07-1.4 1.71-1.23s3.04 2.68 2.79 3.11-2.27.75-3 .53z" fill="#fcdfc8"/><path d="m21.27 31.71s-4.07-4.07-4-4.72 1.72-1.71 2-1.5 5.52 6.44 5.25 6.65a7.2 7.2 0 0 1 -3.25-.43z" fill="#fcdfc8"/><path d="m28 31.55s-5.47-7.4-5.58-7.77.81-1.08 1.35-.92 6.54 7.67 6.27 8-1.47.96-2.04.69z" fill="#fcdfc8"/><path d="m33.61 30.21a76.3 76.3 0 0 1 -5.09-7.29.88.88 0 0 1 1-1.18c.75.16 6.55 6.11 6.12 7a2.92 2.92 0 0 1 -2.03 1.47z" fill="#fcdfc8"/><path d="m8.83 35.42a5.91 5.91 0 0 1 4.08-.49 6.19 6.19 0 0 0 3.7.38c1.55-.38 2.89-1.13 4.07-1.18s2.26.64 3.87.43 6.06-1.56 6.86-1.56 3.38.06 3.81.86-.7 3-2.36 5a19.86 19.86 0 0 1 -9 6.06c-3.65 1-6.38 1.51-6.76 2.2a4.17 4.17 0 0 0 .38 3.76c.85 1.07 3.37 4.07 3.21 5.31s-2.2 3.27-4 3.38-4.8-1.14-3.52-3.57 3-4.56 2.2-6.28-1.71-1.97-3.48-2.72-4.35-1.82-5.05-4.4-.75-5.2 1.99-7.18z" fill="#f6c687"/><g fill="#604f58"><path d="m16.39 54.46c-.61-.21-1.39 1.07-1.28 1.88a1.42 1.42 0 0 0 1.6 1.23c.76-.11 1.13-.86.81-1s-1.07-.32-.91-.75.43-.37.37-.64a1 1 0 0 0 -.59-.72z"/><path d="m11.35 38.63c-.15-.32.54-.8.91-.59s4.4 5.74 4.35 6.17-.22.81-.75.59-4.3-5.68-4.51-6.17z"/><path d="m15.37 37.51s.7-.49 1-.22 4 4.56 3.75 4.88-1.12.49-1.12.49-3.47-4.88-3.63-5.15z"/><path d="m19.56 36.6c-.11-.2.59-.86 1.07-.59s3.38 4.34 3.22 4.56-.32.53-.86.21a34 34 0 0 1 -3.43-4.18z"/><path d="m25.4 36.54s1-.7 1.4-.43 2.36 2.69 2 3.17-.59.59-1 .37-2.45-2.65-2.4-3.11z"/><path d="m29.27 35.25s.64-.64 1.07-.42 1.45 1.55 1.34 1.93-.21.69-.48.59a11.36 11.36 0 0 1 -1.93-2.1z"/><path d="m34.2 20.66c1-.63 20-16.95 20.55-17.59s3.21-2 4.66-.21.22 3.37-.43 4.23-20.98 18.29-21.4 18.24-1.13-.43-2.52-1.77-1.18-2.68-.86-2.9z"/></g><path d="m35.22 21.42c0-.7 20.22-17.28 21-17.81a1.64 1.64 0 0 1 2.2.37 2.44 2.44 0 0 1 -.38 2.74c-.7.86-20.33 17.27-20.81 17.22a4.35 4.35 0 0 1 -2.01-2.52z" fill="#fcdfc8"/></svg>