<svg height="64" viewBox="0 0 64 64" width="64" xmlns="http://www.w3.org/2000/svg"><path d="m31.42 64c-11.1-.09-17.46-4.49-19.68-6.38-2.92-2.49-4.89-10.86-5-15.53a45.93 45.93 0 0 1 2.18-12.92 4 4 0 0 1 -.93.12 2.45 2.45 0 0 1 -2.18-1.17 3.2 3.2 0 0 1 -.07-3 2.06 2.06 0 0 1 1.81-1.12h.33a5.12 5.12 0 0 0 0-1.5c-.67-.89-1.73-2.64-1.32-4.4a7.41 7.41 0 0 1 2-3.19 4 4 0 0 1 -2.39-4.08 4.53 4.53 0 0 1 4-4.26h.28a3.45 3.45 0 0 1 .57 0 6.3 6.3 0 0 1 2.84-3.08l.49-.22c1.82-.77 4.85-2.18 14.65-2.9 3.45-.25 6.12-.37 8.46-.37 6.7 0 10.86 1 13.91 3.33s3.74 4.42 3.91 5.94a4.51 4.51 0 0 1 2.44 3.65c.15 1.43.19 6.54-.82 7.94a5.28 5.28 0 0 1 -2.56 1.81c1.39 2.63 3.35 6.66 3.68 9.09.49 3.45.81 15.13.4 18.26-.42 3.33-2.42 7.87-5.9 9.98-3.18 1.92-10.24 4-20.52 4z" fill="#fff"/><path d="m56.1 32c-.46-3.34-4.82-10.89-4.82-10.89a13.52 13.52 0 0 0 1.87-.11 3.56 3.56 0 0 0 2.18-1.25c.38-.54.7-4.36.46-6.61a2.82 2.82 0 0 0 -2.49-2.49s.86-2.73-3.11-5.76-10.43-3.35-21-2.57-12.91 2.34-14.55 3-2.57 4-2.57 4a2.6 2.6 0 0 0 -1.71-.77 2.58 2.58 0 0 0 -2.26 2.54c-.24 1.87 2.17 2.42 2.64 2.73s.55.78.16 1.4-2.18 2-2.49 3.34 1.24 3.12 1.24 3.12a6.7 6.7 0 0 1 0 3.19c-.46 1.24-1.87 1.13-2.1 1.13s-.31.77-.08 1.16.94.24 1.72-.07a3.2 3.2 0 0 0 1.86-2.26 8.1 8.1 0 0 0 -.39-3.66 2.19 2.19 0 0 0 1.79-.85 1.54 1.54 0 0 0 -.31-2.18c-.46-.47.7-1.48.86-1.71s.62-.08 1.09.38.85.94.85.94-1.71 4.59-3.19 9-3.11 10.42-3 15.4 2.15 12.21 4.25 14 8.09 5.85 18.44 5.91 17.27-2 20.07-3.74 4.59-5.6 5-8.55.06-14.4-.41-17.77zm-45.59-12.29a1 1 0 0 1 -.83-1.35c.15-.89.93-1.4 1.09-1.25s.05.68.36 1.14.57 1.75-.62 1.46zm-1.3-9.08a1.32 1.32 0 0 1 2.18-.52 3.64 3.64 0 0 1 .88 1.3 4 4 0 0 0 .31 2.28s-3.89-1.97-3.37-3.06zm41.08 9.37a14 14 0 0 1 -.2-1.71s2.85-.26 3.11-2.64a30.46 30.46 0 0 0 .21-3.89 1.57 1.57 0 0 1 1.19 1.4 27.32 27.32 0 0 1 -.31 5.7c-.16.57-1.92 1-2.7 1.14a4.12 4.12 0 0 1 -1.3 0z" fill="#604f58"/><path d="m15.64 21.42c.16-.24 8.41 2.75 17.59 2.8a71 71 0 0 0 16.18-2.08c.21.16 3.94 7 4.36 10.12a170.75 170.75 0 0 1 .36 18.26c-.26 2.12-3.21 7-10.58 8.25s-14.94 1.86-21.89-.37-7.73-5.13-9-9a33.22 33.22 0 0 1 -.94-13.85c.6-4.48 3.72-13.82 3.92-14.13z" fill="#ddeff2"/><path d="m17.3 25.2c1.1-.81 3 .73 4.15 1s2.13.83 3.63.42a9.8 9.8 0 0 1 4-.37c1.19.16 2.49 1.25 3.84 1.14s3.32-1.92 5.08-1.66 2 1.65 4.15 1.27 3.06-1.82 5-1.66 4 2 4.67 6.48a142.06 142.06 0 0 1 .47 17.64 6.12 6.12 0 0 1 -1.41 3.37c-1.5 1.71-2.9 3.89-11.1 4.46s-9.8.83-14.68-.15-5.75-1.77-7.21-2.7a12.34 12.34 0 0 1 -4.3-7.47 46.39 46.39 0 0 1 .13-13.97c.83-3.85 2.39-6.91 3.58-7.8z" fill="#604f58"/><path d="m18.19 26.19c.62 0 2.64 1.5 4.56 1.66s4.2-.88 5.34-.68 2.39 1.61 4.46 1.46 4.52-1.87 5.61-1.61 1.55 1.24 4.09.93 4-2.23 5.61-1.71 2.85 3.84 3.16 7a169.85 169.85 0 0 1 -.02 17.17c-.26 1.35-3.42 4.15-5.6 4.93s-10.67 1.66-13.4 1.56a32.32 32.32 0 0 1 -10.29-1.9c-3.32-1.3-5.39-2.65-6.48-6.12s-1.35-9.57-.73-13.88 2.23-8.86 3.69-8.81z" fill="#f6c687"/><path d="m20.57 32.67c.2-.91.47-1.35.94-1.35s6.89.73 11.72.68 11.05-.78 11.57-.78 1.19 0 1.29 2-.1 14.53-.15 15.15-.57 1.76-2.54 2.28-4.88.68-10.33.78-10.22-.83-11-1.25a2.49 2.49 0 0 1 -1.6-1.81c-.11-.81 0-15.23.1-15.7z" fill="#604f58"/><path d="m38.05 48.86c.11-.26.21-.47.52-.42a9.05 9.05 0 0 1 1.87 1.67c.59-.1 1.12-.22 1.59-.33-.66-.58-2-1.74-2-1.86s.31-.83.47-.83 1.94 1.69 2.66 2.37a9 9 0 0 0 1.14-.46 47.72 47.72 0 0 1 -3.6-3.28c-.11-.32.57-.58.57-.58s2.73 2.11 3.66 2.86c0-.44 0-1.09.07-1.88-.74-.57-2.76-2.15-2.8-2.28s.16-.62.42-.62a14.36 14.36 0 0 1 2.38 1.66c0-.56 0-1.16 0-1.78a10.46 10.46 0 0 1 -2-1.5c-.1-.32.42-.63.57-.63a7.4 7.4 0 0 1 1.46.84c0-4.35 0-9.16-.16-9.19s-6.17.62-11.78.73-11.58-1.07-11.67-.94c-.2.32-.15 15.51.21 16s4.62 1.77 11.72 2.08a34.94 34.94 0 0 0 5.62-.2c-.34-.42-.97-1.29-.92-1.43z" fill="#f9f2ed"/><path d="m39.35 9.33a1.1 1.1 0 0 1 1-.41 9 9 0 0 1 2.18 1.24c.7-.06 1.34-.13 1.92-.2a19.44 19.44 0 0 1 -2.38-1.82c-.11-.26.46-.68.88-.57a15.72 15.72 0 0 1 3.12 2.17c.79-.12 1.41-.23 1.88-.33a19.45 19.45 0 0 1 -3.19-2.15c-.1-.37.32-.63.78-.57a22 22 0 0 1 3.95 2.2c.72-.49.78-1.26-.11-2.15-1.19-1.2-4-2.54-18.83-2.39s-15.83 4.33-15.55 4.65c1 1.4 8.66 1.56 17.79 1.56 2.91 0 5.4-.1 7.51-.24-.42-.32-.98-.89-.95-.99z" fill="#f6c687"/><path d="m14.66 11c.16 0 7.42 2.13 19.45 1.66s17.17-2.54 17.22-2.18.16 1.92-.1 2.08a47.84 47.84 0 0 1 -17.43 2.84 116.73 116.73 0 0 1 -18.26-2.13c-.57-.15-.73-.1-.83-.26s-.31-2.01-.05-2.01z" fill="#fcdfc8"/><path d="m15.44 14.26a61.23 61.23 0 0 0 19.14 2.13c10.68-.52 16.42-2.6 16.49-2.39a3.05 3.05 0 0 1 0 1.56c-.15.25-8 3.32-18.57 2.85s-15.3-1.82-16.29-2.28-.77-.99-.77-1.87z" fill="#fcdfc8"/><path d="m16.68 18.51a65 65 0 0 0 15.51 1.82 97.14 97.14 0 0 0 16.08-1.25 6.25 6.25 0 0 1 .16 1.77 36.84 36.84 0 0 1 -15.51 2.38c-8.46-.46-16.86-2.49-17-2.75a6.91 6.91 0 0 1 .76-1.97z" fill="#ddeff2"/><g fill="#604f58"><path d="m17.67 34a1.37 1.37 0 0 1 -.42-2.33c1.09-1.35 2.18-.78 2.44-.21s.1.78-.05.88-.83-.15-1.14.21 0 .67 0 1-.5.63-.83.45z"/><path d="m16.32 41a1.26 1.26 0 0 1 2 .63c.31 1.14-1.09 1.71-1.76 1.34a1.3 1.3 0 0 1 -.24-1.97z"/><path d="m46.82 30.65a1.55 1.55 0 0 1 2.18.67c.36.83-1 2-1.66 1.41s-1.04-1.66-.52-2.08z"/><path d="m47.34 42c.42-.16 1.92-.16 1.86 1s-1.14 2-1.86 1.4-.99-2.08 0-2.4z"/><path d="m30 53c.19-.52.62 0 1.25 0s1.08-.16 1.19.1.1 1.14-1.19 1.14-1.5-.66-1.25-1.24z"/><path d="m23.11 34.8c.16-.23.73.05.89.36s.31 3.63.05 3.74-.78.52-.94 0a15.65 15.65 0 0 1 0-4.1z"/><path d="m26.33 37.39a11.24 11.24 0 0 1 3.84-2.54c.57 0 2.8 1.87 3 1.87s3.52-2.23 3.89-2.08a22.27 22.27 0 0 1 3 2.49c.1.26-.16 4-.16 4a28.72 28.72 0 0 0 -2.59 2.13c-.06.2-.06 2.9-.16 3.11s-3.58 2.44-4.25 2.39a9.49 9.49 0 0 1 -3.63-2.29 19.22 19.22 0 0 1 -.37-3.37s-2.69-1.5-2.75-2.07.13-3.17.18-3.64z"/></g><path d="m27 38c.3-.22 2.7-2.07 3.11-1.91a11.58 11.58 0 0 1 2.44 1.6 15.44 15.44 0 0 1 0 3.12 10.73 10.73 0 0 1 -2.69 1.5 8.31 8.31 0 0 1 -2.6-1.4c-.05-.3-.52-2.79-.26-2.91z" fill="#f6c687"/><path d="m33.8 37.91c.15-.15 2.8-2.07 3.11-1.86a13.23 13.23 0 0 1 2 1.65 10.5 10.5 0 0 1 0 2.91 7.76 7.76 0 0 1 -2.36 1.39 18.89 18.89 0 0 1 -2.7-1.35 25.23 25.23 0 0 1 -.05-2.74z" fill="#f6c687"/><path d="m30.12 43.41a28.1 28.1 0 0 1 3-1.87 17.66 17.66 0 0 1 2.7 1.4 6.43 6.43 0 0 1 .18 2.49 17.54 17.54 0 0 1 -3.11 2 14.76 14.76 0 0 1 -2.6-1.61c-.07-.13-.17-2.41-.17-2.41z" fill="#f6c687"/><path d="m19.33 8a7.43 7.43 0 0 1 4-1.4c2.86-.31 3.17 0 3.32.16s.11.93.11.93a19.24 19.24 0 0 0 -3.76.31c-1.66.37-2.39.57-2.8.68s-1.13-.44-.87-.68z" fill="#604f58"/></svg>