<svg height="64" viewBox="0 0 64 64" width="64" xmlns="http://www.w3.org/2000/svg"><path d="m31.86 64a19.29 19.29 0 0 1 -10.86-3.74 5.88 5.88 0 0 1 -1.93-2.87c-1.85-.75-4.93-2.7-7.53-7.69-3.13-6.11-3.84-13.7-1.35-15.13a3.25 3.25 0 0 1 1.37-.43 13.87 13.87 0 0 1 .44-5.14c.42-1.44 2.68-8.59 5.95-8.59a3.32 3.32 0 0 1 1 .16c.1-.53.21-1.07.35-1.61 1.32-5.08 3.91-9.3 6-9.83a2.91 2.91 0 0 1 .77-.1 2.84 2.84 0 0 1 2.16 1 3.28 3.28 0 0 1 .33.47 14.72 14.72 0 0 1 1-1.69c1.44-1.9 2.44-3.5 3.24-4.81 1.2-1.92 1.8-2.81 2.48-3.29a4.1 4.1 0 0 1 2.29-.71 2.92 2.92 0 0 1 2.63 1.43c.27.49.73 1.32-.57 10.45a20 20 0 0 0 .11 6.31 15.3 15.3 0 0 0 -.18-2.68 3 3 0 0 1 .44-2.51 3.31 3.31 0 0 1 2.56-1.17 4.71 4.71 0 0 1 3.61 2 15.57 15.57 0 0 1 3.64 8.17h.45a3.32 3.32 0 0 1 2.35.8c.72.72 2.4 4.51 2.67 11.05a31.82 31.82 0 0 1 -1 9.76 6.16 6.16 0 0 1 .81 4.47c-.42 3.46-2.83 10-9.16 12.63a28.32 28.32 0 0 1 -7.56 2.29 16.23 16.23 0 0 1 -6.3 1z" fill="#fff"/><path d="m21 55.93s-4.22-.53-7.65-7.13-2.77-12.2-2.18-12.53.86-.2 1.12 0 1.52 2.18 1.91 2.51a1.27 1.27 0 0 0 .73.33 14.1 14.1 0 0 1 -1-9.57c1.45-4.94 3.36-7.19 4.09-7.19a1.09 1.09 0 0 1 1.19 1.06 12.87 12.87 0 0 0 .46 4.68c.59 1.65 1.45 1.65 1.45 1.65a23.13 23.13 0 0 1 .13-10.29c1.39-5.34 3.83-8.24 4.62-8.44a.87.87 0 0 1 1.18.86 14.41 14.41 0 0 0 .6 4.55c.53 1.25.86 1.84 1.12 1.65s-.4-4 2.51-8.18 4.48-7.13 5.14-7.59 1.78-.53 2.11.07-.53 6.92-.82 9.23-.46 7.26 1.06 9.17 2.77.86 2.9-2-.46-4.16-.2-4.49 1.52-1.12 3.17.86a14 14 0 0 1 3.42 9c.2 4.49.2 4.82.2 4.82s.73-1.91.93-2.77.33-2.18.72-2.24a2.11 2.11 0 0 1 1.32.19c.2.2 1.85 3.37 2.11 9.77a26.53 26.53 0 0 1 -1.34 10.27s1.52.4 1.12 3.63-2.57 8.84-8 11.08-7.32 2.18-7.32 2.18-1.32.92-5.8 1a17.26 17.26 0 0 1 -9.76-3.3c-1.09-.93-1.55-2.25-1.24-2.84z" fill="#604f58"/><path d="m51 47.61c-.3.1-1.91 2-2.28 2.12s-.62-.2-.85-.5a2.54 2.54 0 0 1 .13-1.71c0-.09.21-.29.44-.63a26.29 26.29 0 0 1 -2.44-3.09c.08-.21.6-.9.82-.78a22.5 22.5 0 0 1 2.29 2.86c.13-.24.27-.51.41-.81a19 19 0 0 1 -1.92-2.81c0-.33.33-.62.55-.53a17.65 17.65 0 0 1 1.85 2.18c.15-.4.3-.85.44-1.34a13 13 0 0 1 -2.28-2.63c.1-.34.48-.88.78-.77a12.31 12.31 0 0 1 1.87 1.95c.1-.48.2-1 .29-1.53a10.79 10.79 0 0 1 -1.73-1.84.84.84 0 0 1 .46-.8 2.79 2.79 0 0 1 1.51.84 36.37 36.37 0 0 0 -.09-9.17c-.07-.33-.2-.43-.5-.46s-.19.56-1.45 3.13-1.63 2.64-2.3 3.07-1.55-.66-1.85-1.06-.29-1 .37-2.27.82-4.85.33-8.08-2.08-5.38-2.35-5.35.27 2.38-.72 4.65-3 2.44-3.86 1.78-2.7-2.7-3.53-6.59 1.13-10.62 1.13-10.62a.38.38 0 0 0 -.23-.53c-.39-.13-2.34 2.84-4 6.1a13.57 13.57 0 0 0 -1.12 7.19 2 2 0 0 1 -.23 1.16c-.33.72-2.41.43-3.5-1s-1.71-4.58-1.85-4.78-.72.73-.89 1.22a26 26 0 0 0 -1.7 6.63 26.61 26.61 0 0 0 .5 8.38s-.43 1.32-1.09 1.49-2.15 0-3.43-1.75-1.09-4-1.19-4.26-.76.53-1.48 2.64a15.49 15.49 0 0 0 .29 9.43c1.26 3 3.2 2.58 3.3 3.6s-.66 1.48-3.59.72-3.35-2.92-3.6-2.7.5 3.43 2.57 7.16 4.13 5.67 8 6.76 5.7.59 5.87.85a1.89 1.89 0 0 1 -.9 1.85c-.75.36-3.66 0-3.85-.1s-.2.1-.17.56.5.73 3.2 1.55a21.28 21.28 0 0 0 6.07.69s.16-.52.43-.65a41.3 41.3 0 0 0 7.35-.83 11.52 11.52 0 0 0 2.6-1 15.32 15.32 0 0 1 -1.88-2.4c.08-.22.6-.9.82-.78a23.24 23.24 0 0 1 2.13 2.61l.64-.46a20.21 20.21 0 0 1 -2-2.92c0-.32.33-.61.54-.53a19.57 19.57 0 0 1 2.27 2.78c.23-.2.46-.41.67-.63-.93-.94-2.43-2.48-2.36-2.72s.49-.87.78-.76a13 13 0 0 1 2.37 2.66l.77-.85a9 9 0 0 1 -1.63-1.69.86.86 0 0 1 .46-.79c.27-.09 1.67.66 1.77 1.28v.36a10.49 10.49 0 0 0 2.18-4.55c-.05-.23-.11-.29-.41-.2z" fill="#ef7d7b"/><path d="m34.15 58.15c-1.32.26-5.66-2.63-7.64-7.77s-2.21-10 .95-14.69 5.92-6.54 6.95-7.73 1.29-1.52 1.29-1.52a25.69 25.69 0 0 0 2.3 7.49c1.82 3.5 3 6 2.85 9.34s-.4 5.61-2.29 8.53-2.99 6.06-4.41 6.35z" fill="#f6c687"/><g fill="#604f58"><path d="m30.52 56.72c-.17-.33.17-.83.43-.7s.59.8 1.29 1.06.95.23.92.4a1.23 1.23 0 0 1 -.69.65 3.2 3.2 0 0 1 -1.95-1.41z"/><path d="m37.25 52.26c0-.11 1.52-1 1.91-2.44s.33-1.88.63-1.91.69-.1.72.36a8.09 8.09 0 0 1 -.92 3c-.59 1.15-1.12 1.38-1.52 1.48a.75.75 0 0 1 -.82-.49z"/><path d="m25.57 49.33c0-.19.37-.5.53-.26s.66 1.12 1.32 2 1.09 1.09 1.09 1.32-.27.75-.59.75a6.07 6.07 0 0 1 -2.35-3.81z"/><path d="m24.91 41.28c.09-.24.6-.82.76-.39a19.89 19.89 0 0 1 .27 4.78c-.23.16-1 .59-1.09 0a33.34 33.34 0 0 1 .06-4.39z"/><path d="m26.33 38.28a4.44 4.44 0 0 1 .56-2.8c.73-1 1.16-1.39 1.42-1.12s.36.46.07.79a3.17 3.17 0 0 0 -.86 1.78c-.13.92.23 1.09-.13 1.35s-.93.4-1.06 0z"/><path d="m39.49 38.58c-.07-.24.43-.4.66-.27s1 1.19 1.12 3.27-.06 3-.39 3.07-.56.13-.63 0a12.23 12.23 0 0 0 -.07-3.3c-.36-1.35-.62-2.54-.69-2.77z"/><path d="m30.06 32.58a16.78 16.78 0 0 1 1.88-2.25c.66-.75.56-1.25.82-1.18a.45.45 0 0 1 .37.43 11.52 11.52 0 0 1 -1.39 2.63c-.63.93-.63 1-.89 1.09s-.76-.39-.79-.72z"/><path d="m36.29 31.16c.2-.27.89-.43.89-.13a7.27 7.27 0 0 0 .86 2.9 3.18 3.18 0 0 1 .73 1.78c-.07.16-.5.46-.63.39s-.89-1.84-1.29-2.4a1.69 1.69 0 0 1 -.49-1.09 6.36 6.36 0 0 1 -.07-1.45z"/><path d="m34.41 28a1.62 1.62 0 0 1 .43-1.29c.36-.29 1-.52.86-.23a2.8 2.8 0 0 0 -.36 1.32c0 .53 0 .53-.1.59s-.76 0-.83-.39z"/></g></svg>