<svg height="64" viewBox="0 0 64 64" width="64" xmlns="http://www.w3.org/2000/svg"><path d="m13.87 64a10.5 10.5 0 0 1 -4.25-.93c-3.29-1.5-5.82-5.07-4.26-9.07a35.83 35.83 0 0 1 2.51-5c-1.42-1.52-3.65-4.25-4.08-6.73a12 12 0 0 1 3.29-11c3-3.22 7.68-8.89 11.93-14.44 2.22-2.83 9.78-12.48 13.86-14.55a9.89 9.89 0 0 1 4.39-1.21 5.63 5.63 0 0 1 3.14.93c.54.35 1.49 1.09 2.29 1.72 1.68-1.52 4.12-3.44 5.8-3.65a6.65 6.65 0 0 1 1-.07c2.06 0 3.83.89 6.51 3.29 3 2.64 4.23 4.51 3.29 8a20.58 20.58 0 0 1 -2.08 4.59 7.59 7.59 0 0 1 3 4c1 3.85-1.92 8.58-3.22 10.44l-.34.49c-2.28 3.25-7.6 10.87-10.75 15a89.19 89.19 0 0 1 -11.63 12.65 11.82 11.82 0 0 1 -7.27 2.41 10 10 0 0 1 -2.07-.2 10.48 10.48 0 0 1 -3.27-1.61 26.59 26.59 0 0 1 -4.18 4 6.75 6.75 0 0 1 -3.61.94z" fill="#fff"/><path d="m10.33 48.7s-4.13-3.85-4.63-6.79a10 10 0 0 1 2.8-9.3c3.07-3.3 7.83-9.08 12.05-14.58s10.22-12.51 13.2-14.03 4.68-1 5.59-.42 3.44 2.66 3.44 2.66 4.17-4 6-4.26 3.21.27 6 2.75 3.35 3.67 2.71 6a25.37 25.37 0 0 1 -2.89 5.73s3.16 1.42 3.8 3.9-1 6.09-2.93 8.84-7.74 11.09-11 15.45a88 88 0 0 1 -11.41 12.35 10.09 10.09 0 0 1 -7.74 1.83c-1.47-.32-4-2.34-4-2.34s-3.44 4.08-4.9 5-4 .78-6-.14-4.49-3.44-3.25-6.6a34.45 34.45 0 0 1 3.16-6.05z" fill="#604f58"/><path d="m11.89 46.36s-2.71-3.07-3.07-3.76a7.21 7.21 0 0 1 .64-5.87c1.42-2.56 8.34-11.09 11.09-14.44s5.68-6.5 8-9.53 6.65-7.2 8-7.24 3.39 1.48 3.94 1.83a3.62 3.62 0 0 1 .87.83s-14 18.42-17.23 22.64-12.24 15.54-12.24 15.54z" fill="#fcdfc8"/><path d="m47.32 4.6a4.06 4.06 0 0 1 3.16-1.14c1.28.18 4.45 2.75 5 4.4s.92 2.56 0 4.12-8.16 11.14-16.18 20.63-13.8 17-17 20.76-7 7-8.06 7.15-4.45-1.19-4.77-3.44a9.48 9.48 0 0 1 1.92-6.6c1.42-2.06 12.47-16.09 16.28-21.36s10.86-15 13.61-18.28a62.85 62.85 0 0 1 6.04-6.24z" fill="#f0a26c"/><path d="m50.21 8.31c1.11.07 1.88.19 1.83 1.24a1.84 1.84 0 0 1 -1.33 1.93c-.87.27-2.66.18-2.84 1.37s1.24 5.59-2.61 8.25-6.38 1.33-7.52 3 1.79 5-1.33 8.48-7.41 2.32-8.62 4.56.69 4.86-2.66 8.67-6.6 3.21-7.7 3.66-.32 3.53-1.23 5.83-2.75 3.11-3.95 2.88-2.33-1.74-1.55-2.24 1.28.32 2.43-.69a4.22 4.22 0 0 0 1.55-3.76c0-1.88.42-3.76 2.89-4.72s5.32-.69 6.42-3.57.41-6.33 1.42-7.66 7.75-2.34 8.52-4.08-.59-5.36.6-7.88 2.93-3.3 5.73-3.85 4.63-1.19 4.45-3.81.64-5.22 1.6-6.23a6.34 6.34 0 0 1 3.9-1.38z" fill="#d16d6c"/><path d="m30.41 13.31c.11-.23 4.62-5 5.17-4.86s1.06.37.74.83-4.45 5.5-4.95 5.41-1.19-.92-.96-1.38z" fill="#604f58"/><path d="m55.66 21.42c-.5-1.28-2.66-2.76-3.21-2.43s-7.74 9.4-11.32 13.66-7.7 9.49-11.13 13.35-7.15 8.34-7.2 8.75 2.29 1.88 3.81 1.93a6.88 6.88 0 0 0 1-.08 9.17 9.17 0 0 1 -.68-2.31c.14-.27.64-1 .92-.64a14.32 14.32 0 0 1 1 2.66c.36-.11.73-.25 1.11-.4-.37-1-1.5-4.1-1.31-4.37s.83-.73 1-.55a33.32 33.32 0 0 1 1.48 4.39 11.51 11.51 0 0 0 1.21-.74 26.16 26.16 0 0 1 -1.41-4.29 1.13 1.13 0 0 1 .73-.87 25.24 25.24 0 0 1 1.68 4.36c.31-.29.68-.65 1.08-1.08-.22-.68-1.45-4.57-1.24-5.11s.36-.83.64-.74a19 19 0 0 1 1.48 4.91c.45-.49.93-1 1.42-1.6a43.87 43.87 0 0 1 -1.3-5.09c.09-.46.51-1 .78-.87a24.73 24.73 0 0 1 1.54 4.78c.42-.48.83-1 1.25-1.48-.39-1.13-1.43-4.2-1.28-4.5s.55-.87.83-.73a18.51 18.51 0 0 1 1.4 4.07c1.43-1.74 2.77-3.45 3.73-4.76 2.84-3.85 6.14-9 8.71-12.24s3.78-6.69 3.28-7.98z" fill="#fcdfc8"/></svg>