<svg height="64" viewBox="0 0 64 64" width="64" xmlns="http://www.w3.org/2000/svg"><path d="m30.54 64c-4.5 0-7.42-2-8.65-3.83-.41-.61-.66-1.44-3.27-14.77-.52-2.66-1.1-5.62-1.38-6.92-1.7-.95-3-1.78-3.46-3 0-.08-2.6-11.07-2.39-12.45a6.26 6.26 0 0 1 2.81-3.51 6 6 0 0 1 -.2-3.58 8.44 8.44 0 0 1 .45-1c-.08-1.46 0-4.26 1.34-6.08a11.07 11.07 0 0 1 3-2.74c.71-1.41 2.67-4.56 6.17-5 2-.27 3-.32 3.63-.36a3.91 3.91 0 0 0 .43 0l.21-.07a10.38 10.38 0 0 1 3.29-.69 7.93 7.93 0 0 1 1 .06 6.45 6.45 0 0 1 2.34.82 2.78 2.78 0 0 0 1.44.43 4.63 4.63 0 0 0 1.16-.17 6.6 6.6 0 0 1 1.54-.22 5.09 5.09 0 0 1 3.24 1.31c1.68 1.35 4.6 4.2 5.28 8.14a10.86 10.86 0 0 1 .18 2.55 6.15 6.15 0 0 1 1.69 4.51 17.42 17.42 0 0 1 -.24 2.23 4.55 4.55 0 0 1 2.41 2.75c.8 2.77-3.65 14-3.7 14.06a6.33 6.33 0 0 1 -3.27 2.64l-.19.09c-1 4.25-4.59 19.22-4.88 20.21-.63 2.18-4.41 4.49-9.64 4.59z" fill="#fff"/><path d="m16.68 20.57s-1.31-2.87-.9-3.95.63-1.07.63-1.07-.41-3.73.89-5.55a8.6 8.6 0 0 1 2.92-2.51s1.57-4 4.94-4.49 3.77-.27 4.36-.45a8.05 8.05 0 0 1 3.72-.55c1.66.22 2 1.21 4 1.25s2.69-1.16 4.76.5a12.09 12.09 0 0 1 4.58 7c.49 2.87-.36 2.47.67 3.54a4.25 4.25 0 0 1 1.17 3.19 29.75 29.75 0 0 1 -.5 3.55s2.25.27 2.74 2-3.1 11.77-3.54 12.62a4.6 4.6 0 0 1 -2.29 1.75c-.77.31-1.13.49-1.13.49s-4.76 20-5.07 21.06-3.1 3.1-7.81 3.19-6.78-2.16-7.32-3-4.35-21.64-4.58-21.86-3-1.53-3.32-2.38-2.38-10.91-2.29-11.49a5.32 5.32 0 0 1 3.37-2.84z" fill="#604f58"/><path d="m43 32.25a.69.69 0 0 1 .63-.72 11.49 11.49 0 0 1 2.37 1.9c.16-.41.33-.89.51-1.39-.82-.63-2.23-1.76-2.26-2.08s.22-.81.63-.77a7.78 7.78 0 0 1 2.12 1.56 30.16 30.16 0 0 0 1.52-5.42c-.23-.45-.86.32-3.5.86s-7.95.94-16.53.76-12.68-1.82-13.2-1.44c-.18.14.9 4.63 1.62 6.56s.94 3.5 5.75 4 10.28 1.21 15.4.76a28.31 28.31 0 0 0 5-.81 9.38 9.38 0 0 1 -1.6-1.93c-.09-.4-.18-.58.31-.63a7.44 7.44 0 0 1 2.68 2.09 3.81 3.81 0 0 0 .87-.51 1.56 1.56 0 0 0 .19-.35c-.75-.6-2.51-2.13-2.51-2.44z" fill="#f6c687"/><path d="m36.7 50.92c0-.27.09-.71.45-.67a4.81 4.81 0 0 1 1.34.7c1.16-5.05 3.51-12.08 3.28-12.28s-5.79.54-10.28.49a62.21 62.21 0 0 1 -10.1-1.16c-.31-.05-.09 1.7.22 3.19s3.46 16 3.69 16.52 1.16 1.39 3.68 1.93a10.89 10.89 0 0 0 5.54-.23 10.18 10.18 0 0 1 -2.09-1.79.68.68 0 0 1 .81-.63 12.37 12.37 0 0 1 2.58 1.81 2.87 2.87 0 0 0 .74-.83c-.7-.58-2.81-2.35-2.73-2.69a.89.89 0 0 1 .76-.67 14.57 14.57 0 0 1 2.48 2.26 12.35 12.35 0 0 0 .43-1.39 13.92 13.92 0 0 1 -2.33-2 .75.75 0 0 1 .68-.72 9.48 9.48 0 0 1 1.9 1.72c.14-.6.28-1.26.43-2a1.74 1.74 0 0 1 0-.22c-.52-.49-1.48-1.15-1.48-1.34z" fill="#f6c687"/><path d="m16.05 23.4a1.31 1.31 0 0 1 1.48-.67c.94.31 1.48.72 1.79.58s.32-.72.32-.72a6 6 0 0 1 -2.47-3.23c-.54-2.06-.45-2.6-.09-2.92s.31-.09.45-.54-.63-3.63.72-5.16a14.57 14.57 0 0 1 2.65-2.2c.27-.31 1.75-4 4.17-4.35s2.87.09 3.82-.23 2.11-1.3 3.86-.96 2 1.35 3.72 1.4 3.24-1.08 5.3.85 3.5 3.64 4 6.06-.27 2.2.58 3.64 1.44 1.48 1.17 3.36-.81 4.27-1.3 4.72-.14.76-1.13 1.3-8 .94-15.84.85-10.87-.8-11.86-1.07a2.86 2.86 0 0 1 -1.34-.71z" fill="#da8cbb"/><g fill="#604f58"><path d="m18.29 27.85c0-.26.9-.18 1.17 0a21.7 21.7 0 0 1 .85 4.67c0 .36-.22.4-.4.4a28.51 28.51 0 0 1 -1.62-5.07z"/><path d="m20.76 28.52c.32 0 .9-.36 1.12.05s.63 4 .27 4.13-.63.31-.76 0-.63-4.18-.63-4.18z"/><path d="m25.16 17.92c.7-.23 2.11.23 2.2.72s-.22 1.13-1.57.95-1.57-1.35-.63-1.67z"/><path d="m23.19 11.28c.62-.17 2.55-.09 2.82 1.3s-2.15 1.75-2.91 1.12-1.26-2.06.09-2.42z"/><path d="m29.65 6.66c.77-.68 2.29.36 2.56 1.07s-.85 1.89-1.93 1.53a1.49 1.49 0 0 1 -.63-2.6z"/><path d="m32.52 12.67c.66-.16.77.23.81 1a.79.79 0 0 1 -1.3.72 1 1 0 0 1 .49-1.72z"/><path d="m40.56 10.56a1.05 1.05 0 0 1 1.3 1 .84.84 0 0 1 -1.48.59c-.63-.56-.54-1.36.18-1.59z"/><path d="m33.51 17.84c.55-.3 1.12.22 1.26.62s-.14 1.53-1.17 1a.87.87 0 0 1 -.09-1.62z"/><path d="m39.84 19.27a.94.94 0 0 1 1.3.72c.18.67-.22 1.26-1.07 1.12s-1.31-1.57-.23-1.84z"/><path d="m23.72 40.24c.16-.34.63-.41 1 0a70.62 70.62 0 0 1 1.7 8.76c-.05.58-.41.63-.81.4s-2.11-8.67-1.89-9.16z"/><path d="m26.87 43.92c.19-.31.94-.4 1.12-.05s1.35 8.18 1 8.36a.62.62 0 0 1 -.81 0c-.28-.23-1.54-7.95-1.31-8.31z"/><path d="m30.73 45.13c.18-.27 6.28-4.8 6.51-4.67s.63-.27.4.41-6.15 5.25-6.55 5.13-.36-.87-.36-.87z"/><path d="m31.54 48.81s6.19-5 6.46-5 .5.27.32.54-6.07 5.14-6.32 5.18-.46-.72-.46-.72z"/><path d="m30.77 41.85c0-.19.36-.67.68-.58a73.7 73.7 0 0 1 4 8.62c-.05.32-.77.36-.77.36s-3.95-8.08-3.91-8.4z"/><path d="m34.1 40.64c-.06-.34.62-.54.8-.49a44.41 44.41 0 0 1 2.79 6.85c-.14.36-.32.45-.54.32a56.65 56.65 0 0 1 -3.05-6.68z"/></g></svg>