<svg height="64" viewBox="0 0 64 64" width="64" xmlns="http://www.w3.org/2000/svg"><path d="m30 64c-13.63 0-14.75-5.07-14.78-6.62 0-3.24 3.31-4.82 6.3-5.59a18.25 18.25 0 0 1 -6.27-3.38c-4.22-3.68-6.31-7.17-7-11.68-.58-3.9.1-5.33.76-6.15a4.41 4.41 0 0 1 .33-.45 5.66 5.66 0 0 1 -.46-3.58 5.39 5.39 0 0 1 1.13-2.26 6.12 6.12 0 0 1 1.99-4.29 8.25 8.25 0 0 1 2.83-1.57h.09a3.73 3.73 0 0 1 1.86-1.49 5.78 5.78 0 0 1 1.73-.35 4.83 4.83 0 0 1 .78-2.5 12.38 12.38 0 0 1 4.53-3.5l.9-.36a7.71 7.71 0 0 1 .86-.31 2.64 2.64 0 0 0 .37-.13 8.1 8.1 0 0 1 2.71-.63 3.48 3.48 0 0 1 .57 0l1 .21a8.17 8.17 0 0 0 1 .19 6.24 6.24 0 0 1 2.77 1.33 8.64 8.64 0 0 0 .84.56l.37.19c.36-1.72.74-3.51 1-4.62a22.42 22.42 0 0 0 .38-2.59 4.56 4.56 0 0 1 .53-2 4.92 4.92 0 0 1 4.38-2.43 8.06 8.06 0 0 1 1.18.1 4.07 4.07 0 0 1 3.38 2.44 4.56 4.56 0 0 1 .32 1.94 4.46 4.46 0 0 1 3.88-1.89 5.73 5.73 0 0 1 2.85.76 5.92 5.92 0 0 1 2.62 3.65 4.83 4.83 0 0 1 -.34 3.61c-.4.65-4.42 8.21-7.61 14.22a8.76 8.76 0 0 1 2.67 1.41 5.54 5.54 0 0 1 1.9 3.41 4.6 4.6 0 0 1 1.08 3.35c-.06 2.51-2.67 12.49-10.29 16-2.23 1-4 1.76-5.38 2.27a21.39 21.39 0 0 1 3.84.85 5.69 5.69 0 0 1 3.59 3.12 5.15 5.15 0 0 1 -.26 4.3c-1.66 3.48-8.68 4.3-14.27 4.39z" fill="#fff"/><path d="m12 30.73s-1.6-2.1-1.19-3.73 1.19-1.79 1.19-1.79-.23-2.51 1.23-3.74 2.56-1.19 3-1.6.36-.82 1.28-1.19a9.74 9.74 0 0 1 3-.23s-.23-2.46.36-3.24a10.4 10.4 0 0 1 3.7-2.88 17.26 17.26 0 0 1 1.69-.64 7.4 7.4 0 0 1 2.69-.63c.82.13 1.28.32 2.15.41s2.14 1.32 3 1.73a2 2 0 0 1 1.05 1.55 3.38 3.38 0 0 1 0 1.15s.13-.05.55.36.41.59.41.59 1.46-6.71 2-9.45.32-3.42.68-4.06 1.38-1.69 3.57-1.34 2.24 1.82 2 3.47-4 14.42-4 14.42a11.06 11.06 0 0 1 1.33 1.33 3.65 3.65 0 0 1 .54 1s5.34-15.41 5.7-16.51 2.56-1.64 4.2-.68 2.24 3.56 1.6 4.61-8.81 16.48-8.81 16.48a11.5 11.5 0 0 1 4.29 1.65 3.85 3.85 0 0 1 1.28 2.92s1 .36 1 2.28-2.33 11.14-9.17 14.34-9.09 3.29-9.09 3.29a8.5 8.5 0 0 0 .05 2.19c.18 0 5.25.36 7.67 1.23s3.24 2.65 2.23 4.75-6.3 3.23-12.55 3.29-13.38-1.28-13.43-4.71 7.8-4.29 9-4.35h1.19v-2s-6.62-.41-10.83-4.07-5.79-6.85-6.34-10.5.18-4.43.36-4.66a2.14 2.14 0 0 1 1.42-1.04z" fill="#604f58"/><path d="m42.68 40.14c0-.37.41-.78.78-.64a11.75 11.75 0 0 1 1.65 3 16 16 0 0 0 1.06-1.5 17.76 17.76 0 0 1 -1.66-3.22 1 1 0 0 1 .73-.73 11.58 11.58 0 0 1 1.56 2.95 21.22 21.22 0 0 0 2.46-7.52c0-.37-.6 0-1.83.64s-6.43 2.55-17.17 3.05-17.76-2.24-17.8-2c-.55 3.2 2.42 8.91 7.85 12.1 4.14 2.44 9.88 3 15.5 1.56-.38-.63-1-1.79-.84-2.06s.36-.5.63-.32a7.36 7.36 0 0 1 1.13 2.12c.49-.15 1-.31 1.46-.48a10.17 10.17 0 0 1 -1.31-2.78c.14-.41.41-.41.78-.32a7.46 7.46 0 0 1 1.52 2.7c.41-.17.82-.35 1.22-.55-.45-.81-1.61-3-1.46-3.24s.5-.69.91-.32a11.6 11.6 0 0 1 1.52 3.06 12.27 12.27 0 0 0 1.2-.77 17 17 0 0 1 -1.67-2.87c.05-.37.27-.87.69-.6a12 12 0 0 1 1.81 2.9 13.52 13.52 0 0 0 1-1 22.32 22.32 0 0 1 -1.72-3.16z" fill="#ddeff2"/><path d="m13.46 32.47s.32-.46.46-.41 1.32.77 1.64.55.18-1.33-1.19-2a4.63 4.63 0 0 1 -2.55-2.83c-.14-.87 1.18-1.92 1.27-2.46s-.59-1.65.74-2.88 1.09-.44 2.42-1.44 2-1.6 3.65-1.69a5.34 5.34 0 0 1 3.74.87c1.19.77 1.69 1.37 2.65 1.87s.82.32 1.05 1a4.7 4.7 0 0 0 .78 1.92c.5.5.54.45.68 1.69s.37 1.09.46 2.05a6.08 6.08 0 0 1 -.09 1.92c-.09.55-1.19 1.37-1.78 1.6s-1.51.09-1.56.41-.5.36.41.5a5.83 5.83 0 0 0 1.83-.14c.69-.05 1.46-1.19 1.78-1.65s.09-.86.46-1 1 .05 2.05 0 1.14-.18 1.33-.27.32-.23.45-.14-.09.32.69.59a2.94 2.94 0 0 0 1.82-.09c.14-.05.78.32 1.42.27a2.74 2.74 0 0 0 1.37-.54c.36-.23.23-.46.5-.51s.87.6 1.28.46 1.37-.23 1.78-.41.46-.55.78-.32.45.18.45.69-.09 1.41.1 1.55.82 0 1.05-.64a1.65 1.65 0 0 0 -.19-1.74 2.48 2.48 0 0 0 -1-1c-.18-.09-.41-.18-.41-.18s.37-.77.55-.77a20.46 20.46 0 0 1 3.67 1.97c.83.64.78 1.33.46 1.6s-4.46 2.83-11.71 3.33a113.52 113.52 0 0 1 -19-.36c-3.56-.46-4.29-1.05-4.29-1.37z" fill="#fac18e"/><path d="m18.07 37.54c1.15-.53 3.2.27 2.74 1.82s-1.73 2.24-3.2 1.19-.13-2.74.46-3.01z" fill="#604f58"/><path d="m18.57 38.53c.47-.22 1.3.11 1.12.75a.78.78 0 0 1 -1.31.48c-.59-.43-.05-1.12.19-1.23z" fill="#ef7d7b"/><path d="m22.14 41.37c.67-.5 3.1-.59 3.51.73a2 2 0 0 1 -2.33 2.56 1.84 1.84 0 0 1 -1.18-3.29z" fill="#604f58"/><path d="m23 42.15a1.06 1.06 0 0 1 1.56.73c.09.55-.51 1-1.28.78a.81.81 0 0 1 -.28-1.51z" fill="#ef7d7b"/><path d="m30.67 38.31c.9-.48 3.43-.64 3.84 1s-1 2.93-2.88 2.93-3.24-2.69-.96-3.93z" fill="#604f58"/><path d="m31.54 39a1.41 1.41 0 0 1 1.87.87c.09.59-.36 1.5-1.82 1.14s-1.1-1.6-.05-2.01z" fill="#ef7d7b"/><path d="m27.93 44.07c.62-.41 3.43-.83 4.3 1.09s-2 2.79-3.52 2-1.83-2.41-.78-3.09z" fill="#604f58"/><path d="m29.08 44.66c.77-.12 2 .09 2.1 1.05s-1.18 1.29-2.24.69-1.1-1.56.14-1.74z" fill="#ef7d7b"/><path d="m38.53 37.45c.89-.3 2.87 0 3.1 1a2.2 2.2 0 0 1 -3.06 2.42c-2.33-.87-1.69-2.87-.04-3.42z" fill="#604f58"/><path d="m39.21 38.36c.66-.2 1.51.09 1.6.68s-.73 1.37-1.81.96-.7-1.37.21-1.64z" fill="#ef7d7b"/><path d="m26.56 20.92a3 3 0 0 1 -.95-.5c-.46-.37-1-1.19-1.51-1.42a7.14 7.14 0 0 1 -1.78-.73 5.76 5.76 0 0 1 -.73-.69c-.19-.22-.32-.82.5-2a9.3 9.3 0 0 1 5.75-3.15 7.14 7.14 0 0 1 5.53 1.68c.86 1 1.14 1.28.73 1.79s-.64.45-1.19.68-.64-.18-1.73.27-1 1.88-1.6 2.06-1-.28-1.87.27-.55 1.74-1.15 1.74z" fill="#ddeff2"/><path d="m30.54 29.27c-.41-.13-.83-1.41-.92-2.69a4.45 4.45 0 0 0 -.62-2.58c-.55-.87-1.37-2.1-1.1-3.29s0-.78 1.05-.82 1.69-.14 1.78-.55a2.26 2.26 0 0 1 1.27-1.57c.73-.28 1-.14 1.42-.41s.59-.83 1.28-.55a1.59 1.59 0 0 1 .86.64s.37.45.37.59-2.33 10.78-2.47 11-1.09-.28-1.82 0-1.1.23-1.1.23z" fill="#ef7d7b"/><path d="m32.86 27.58c-.31-.13-2.14-1.73-2-2.19s.18-.5.64-.27 1.83 1.41 1.83 1.78-.47.68-.47.68z" fill="#604f58"/><path d="m33.05 25.12s-1.69-1.37-1.78-1.74.23-.68.41-.64 1.73 1.1 1.69 1.6a1.39 1.39 0 0 1 -.32.78z" fill="#604f58"/><path d="m33.41 22.47c-.18-.18-1.09-.55-1.37-1.14a.51.51 0 0 1 .6-.73c.22.09 1.32.82 1.37 1.23s-.6.64-.6.64z" fill="#604f58"/><path d="m34.83 29.46c-.23-.05 0-1.33.18-1.69s1.78-1 2.06-1.14-.69 2.73-1 2.83a5.92 5.92 0 0 1 -1.24 0z" fill="#fcdfc8"/><path d="m35.1 26.58a5.55 5.55 0 0 0 2-.78c.59-.5.63-.73.63-.73l.92-3.47a33.63 33.63 0 0 1 -2.56 2.19c-.59.37-.64.42-.68.55s-.31 2.24-.31 2.24z" fill="#fac18e"/><path d="m36.33 21.88a22.88 22.88 0 0 1 1.06-4.75c.22-.09 3-2.06 3-1.74a41 41 0 0 1 -1.32 4.61c-.13.14-2.32 1.92-2.74 1.88z" fill="#fcdfc8"/><path d="m37.48 15.62s.77-3.88 1-4.15 3.88-2.88 3.92-2.56a24.13 24.13 0 0 1 -1.55 5c-.41.34-3.01 1.99-3.37 1.71z" fill="#fac18e"/><path d="m38.75 9.64s.55-4.29 1-4.15a9.12 9.12 0 0 0 1.74.68c.77.14 1.55-.18 1.41.18a22.47 22.47 0 0 1 -2.5 2.88 2 2 0 0 1 -1.65.41z" fill="#fcdfc8"/><path d="m39.85 3.29c.43-.29 2.28-.82 3.24.14s-.36 1.92-1.92 1.64-2.05-1.27-1.32-1.78z" fill="#fac18e"/><path d="m37.34 29.32s1.28-3.29 1.83-5.48.77-2.37.91-2.33a10 10 0 0 1 1.41 2.06c0 .13-1.69 3.37-1.87 4.15s-.18 1.28-.36 1.46a2.49 2.49 0 0 1 -1.92.14z" fill="#ef7d7b"/><path d="m40.35 28.68s.32-1.05.64-1.05 1.92-.05 1.92.14a2.79 2.79 0 0 1 -.91 1.32 1.78 1.78 0 0 1 -1.65-.41z" fill="#fcdfc8"/><path d="m41.27 26.44a10.58 10.58 0 0 1 1.14-2.1 9.49 9.49 0 0 1 2.65-.64 11.69 11.69 0 0 1 -2 2.93 2.84 2.84 0 0 1 -1.79-.19z" fill="#fac18e"/><path d="m43 22.56c-.27-.25 1-2.69 1.27-2.92s1.05-.23 2-.69 1.69-.5 1.65-.32a30.72 30.72 0 0 1 -2.29 3.75c-.35.23-2.08.73-2.63.18z" fill="#fcdfc8"/><path d="m45 18.32c-.27-.08 1.46-4 1.69-4.07a11.86 11.86 0 0 0 2.78-1.09c1.1-.69 1.6-1.05 1.65-.83a25.82 25.82 0 0 1 -3.06 4.94c-.58.41-2.37 1.23-3.06 1.05z" fill="#fac18e"/><path d="m46.88 12.74s1.65-4.33 1.87-4.29a13.71 13.71 0 0 0 1.88 1.19c.86.32 1.82.18 1.73.5s-1.09 1-1.46 1.19-3.01 1.96-4.02 1.41z" fill="#fcdfc8"/><path d="m48.89 6c0-.37 1.33-.59 2.69 0s1.79 2.06 1.28 2.38a2.77 2.77 0 0 1 -2.86-.29c-1.06-.78-1.2-1.37-1.11-2.09z" fill="#fac18e"/><g fill="#604f58"><path d="m24.78 16.9c-.19-.39.37-.64.69-.55s1.87 1.74 1.73 2a.87.87 0 0 1 -.73.36 11.14 11.14 0 0 1 -1.69-1.81z"/><path d="m26.84 15.58c-.06-.16.64-.73.91-.64s1.74 1.64 1.46 1.91-.5.32-.64.28a11.75 11.75 0 0 1 -1.73-1.55z"/><path d="m29.53 14.48c-.06-.15.46-.32.73-.23s1 1.1.78 1.33-.46.73-.82.41-.55-1.19-.69-1.51z"/><path d="m15 26.53a1.17 1.17 0 0 1 1.46.37c.32.46-.14 1.28-1.14 1.19a.82.82 0 0 1 -.32-1.56z"/><path d="m17.89 23.61c.46-.3 1.78-.45 2.05.05s0 1.23-1 1.37-1.83-.92-1.05-1.42z"/><path d="m23.28 25.76a1.61 1.61 0 0 1 1.32.13c.41.32-.09 1-.78 1s-1-.89-.54-1.13z"/><path d="m19.17 29.46a1.38 1.38 0 0 1 1.5.09c.42.27.14 1.23-.32 1.46a1.35 1.35 0 0 1 -1.35-.23.85.85 0 0 1 .17-1.32z"/></g><path d="m27.71 55.12c.2 0 .32 1.05.95 1.27s.87-.13.87-.27-.32-5 0-5 1.51-.18 1.6.09.09 5 .23 5.3.64.41 1 .45.87-.41 1.05-.68a2.8 2.8 0 0 0 .18-1 14 14 0 0 1 5.48.82c2.28 1 1.92 1.55 1.55 1.83s-4 2-9.86 2a30.66 30.66 0 0 1 -10.76-1.93c-.69-.27-1-.73.55-1.5s3.73-1.25 7.16-1.38z" fill="#83a7d8"/></svg>