<svg height="64" viewBox="0 0 64 64" width="64" xmlns="http://www.w3.org/2000/svg"><path d="m46.89 64a6.18 6.18 0 0 1 -4.22-1.79 23.1 23.1 0 0 1 -3.32-4.21 51.76 51.76 0 0 1 -7 3.9 6.85 6.85 0 0 1 -2.1.35c-1.62 0-4-.64-6-3.71-1.7-2.54-13.59-22.42-16.14-27.03-2.71-4.9-5-9.73-3.66-15s4.72-9.07 11.16-12.51a32.88 32.88 0 0 1 14.39-4 12.36 12.36 0 0 1 3 .32c4 1.02 7.05 5.87 11.63 13.68 9 15.49 13.94 24.35 14.54 26.35l.28.93c.55 1.78 1 3.32-.69 4.66-.63.5-5.3 3.34-8.27 5.14 1.34 2 2.77 4.37 2.81 5.89s.14 4.46-2.94 6a7.39 7.39 0 0 1 -3.47 1.03z" fill="#fff"/><path d="m25.9 57.49c-1.64-2.49-13.54-22.38-16.06-26.93s-4.66-9-3.48-13.56 3.91-7.91 10.17-11.23 12.74-4.34 16-3.54 6 5.2 10.44 12.8 13.6 23.4 14.35 25.91 1 2.89.26 3.48-9.9 6.11-9.9 6.11 3.64 4.82 3.69 6.53 0 3.26-1.87 4.23-3.59 1.18-5.46-.54a28.43 28.43 0 0 1 -4-5.46s-6.58 4.23-8.24 4.77-3.92.43-5.9-2.57z" fill="#604f58"/><path d="m44.59 45.33c-.06-.53-.54-1.17.32-1.12a30.85 30.85 0 0 1 5.67 1.4l1.55-1a51.66 51.66 0 0 1 -6.13-2.54c-.16-.32-.11-1.13.21-1.18a76.92 76.92 0 0 1 7.55 2.44 2.12 2.12 0 0 0 .24-2.2c-2-.77-7.39-2.71-7.52-3s-.48-1 0-1a61.78 61.78 0 0 1 6.83 2.3c-.18-.42-.7-1.47-1.47-2.94-1.4-.54-6.07-2.35-6.34-2.58s-.7-1-.27-1a44.25 44.25 0 0 1 5.55 1.52l-1.66-3.09c-1.72-.5-6.48-1.92-6.57-2.18s-.8-1.18-.16-1.23a37.64 37.64 0 0 1 5.61 1.38l-1.22-2.2c-1.42-.33-5.18-1.23-5.39-1.53s-.59-.91-.27-1.07a23.05 23.05 0 0 1 4.66.8l-1.17-2.07a49.14 49.14 0 0 1 -5-1.84c-.37-.32-.86-.8-.48-1s3 .66 4.51 1.18c-.49-.85-1-1.71-1.48-2.55-1-.29-4.27-1.28-4.64-1.46s-.8-.7-.37-1 2.8.46 4.14 1c-.49-.83-1-1.64-1.46-2.43a37 37 0 0 1 -4.4-1.19c-.48-.33-.64-1-.48-1.13a20.93 20.93 0 0 1 3.83.62c-.58-.93-1.14-1.82-1.68-2.64a25.29 25.29 0 0 1 -4-1c-.27-.27-.7-1.13-.43-1.29a13.21 13.21 0 0 1 3.33.49c-1.51-2.1-2.7-3.54-3.41-3.88-3.59-1.71-8.59-.12-12.2 1.66s-7.77 3.86-10.12 7.87-1.5 7.39.48 11.19 15.17 25.24 16.44 27.63c.91 1.71 2.57 4.07 3.15 4s5-2.63 9.75-5.41c2.45-1.45 5.87-3.53 8.67-5.31-1.51-.34-4.13-.99-4.17-1.42z" fill="#ef7d7b"/><path d="m41.21 54.54 5.41-3.16s3.91 5.52 3.59 7-2.79 3.43-4.5 2.2-4.5-6.04-4.5-6.04z" fill="#fcdfc8"/><path d="m15.51 24.35c-.38-.05-3-5.57-3.21-6.86a4.79 4.79 0 0 1 1.77-4c1.07-.75 1.34-.8 1.66-.43s.69 1 .43 1.23-2 .81-2.25 2.36 3 6.69 3 7.07-.91.68-1.4.63z" fill="#604f58"/></svg>