<svg height="64" viewBox="0 0 64 64" width="64" xmlns="http://www.w3.org/2000/svg"><path d="m5.87 64a15.11 15.11 0 0 1 -2.33-.14c-1.87-.4-2.6-2.7-2.74-4 0 0-.33-5.22.3-6.36a7.23 7.23 0 0 1 1.65-1.87 19.49 19.49 0 0 1 -1.88-4.54c-.68-3-.58-12.26-.49-13a3.79 3.79 0 0 1 4-3.25h1 6.14a5 5 0 0 1 -2.52-3.69c0-.15 0-.32 0-.5a5.36 5.36 0 0 1 -2.47-2.19l-.14-.22a10.54 10.54 0 0 1 -1.99-6.37c-.26-4.91.37-7.78 2-9.32 1.91-1.78 6.11-4.24 15.23-5.86a84.08 84.08 0 0 1 14.53-1.28 60.65 60.65 0 0 1 6.84.34 30.08 30.08 0 0 1 6 1.42 4.61 4.61 0 0 1 4.65-3.17 5.53 5.53 0 0 1 2.1.41 4.36 4.36 0 0 1 2.61 2.91 4.72 4.72 0 0 1 -.67 3.93 18 18 0 0 1 3 2.26c2.26 2.26 2.59 7.42 1.84 10.12-.6 2.16-2.79 4.75-3.83 5.88-.21 1.75-.82 6.85-.85 9.86a16.85 16.85 0 0 0 1.53 7.69c.29.71.61 1.41 1 2.15a33 33 0 0 1 2.81 8.18c.94 4.64.49 6.45-.48 7.75-.8 1.1-1.78 1.81-4 1.81-.59 0-1.44 0-2.31 0s-1.91 0-2.62 0a4.85 4.85 0 0 1 -1.7-.17 4.29 4.29 0 0 1 -2.21-2.41c-2.84.15-8.89.43-16.47.6-8.32.18-18.54.48-22.51.6a2.9 2.9 0 0 1 -2.08 2.13 14.65 14.65 0 0 1 -2.94.3z" fill="#fff"/><path d="m61.27 53.77c-1-4.88-2.55-7.21-3.67-10a18.76 18.76 0 0 1 -1.67-8.42c0-3.84 1-10.72 1-10.72s3.18-3.3 3.8-5.53.26-6.62-1.34-8.22a29.24 29.24 0 0 0 -5.51-3.61l.12-.35a2.21 2.21 0 0 0 2.09-.78 2.61 2.61 0 0 0 -1.09-3.94c-1.83-.75-4.06.2-4.16 1.64a2.13 2.13 0 0 0 1 2l-.13.43a8.78 8.78 0 0 0 -1.05-.43 32.47 32.47 0 0 0 -7.93-2.19 76.18 76.18 0 0 0 -20.73.95c-9.21 1.63-12.85 4.06-14.26 5.4s-1.57 4.62-1.41 7.8a9 9 0 0 0 1.8 5.66 3 3 0 0 0 2.69 1.64s.07 1.25.1 2a3 3 0 0 0 1.67 2.13c.16 0 .78.12 1.62.2 0 1-.07 2.68-.05 3.4-4.93 0-9.14 0-9.76 0-1.57 0-2 1-2.1 1.54s-.16 9.63.46 12.35a24.55 24.55 0 0 0 3.11 6.39 6.68 6.68 0 0 0 -1.4-.13c-.56.02-1.47 1.18-1.68 1.48a33.53 33.53 0 0 0 -.06 5.2c.1.92.59 2.17 1.21 2.3a17.88 17.88 0 0 0 4.36-.07c.95-.23.78-2.13.78-2.13s13.57-.42 24.21-.65 18.15-.69 18.15-.69 0 .66.13 1.18a2.57 2.57 0 0 0 1.12 1.4c.36.13 4.22 0 6 0s2.1-.49 2.46-1 1.1-1.35.12-6.23zm-45.15-24.19 2.26.17v3.07h-2.18c-.01-.72-.05-2.32-.08-3.24zm23.79 18a10 10 0 0 1 -5.73 3.34 7.56 7.56 0 0 0 .88-2.62c.4-1.94.46-11.44.33-13.3s-1.21-2.1-1.39-2.17a16.1 16.1 0 0 0 -2.13 0c-.62 0-5.76 0-11.42 0 0-.75 0-2.15 0-3a8.35 8.35 0 0 0 1.71-.06c1.05-.3 1.11-.89 1.11-.89s10.48.17 12.15.17a3.64 3.64 0 0 1 2.59.59 17.13 17.13 0 0 0 3.25.95 36.93 36.93 0 0 1 .72 6.84c-.1 3.57.16 7.33-2.07 10.15z" fill="#604f58"/><path d="m58.39 14.33c-.66-2.43-5.77-5.25-9.39-6.33s-7.06-2.91-18.13-2-15.33 2.53-17.87 3.61-4.3 2.49-4.36 4.52-.33 5.14 1.15 7.3a5.16 5.16 0 0 0 3.21 2.26c.26.27.17 3 .26 3.08.89 1 8 .92 8.26.82s.72-3.31.88-3.5a2.09 2.09 0 0 1 1.71.29c.32.33.22 1.8.22 1.8s6.23.1 7.83 0 4.46-.13 5.87.69a8 8 0 0 0 4.84 1.58c-.88-.94-3-3.31-3.14-3.55s.69-.82 1-.66a36 36 0 0 1 3.43 4c.33-.07.66-.16 1-.27h.05c-.7-.9-2.69-3.47-2.67-3.58a1.5 1.5 0 0 1 .95-.33 35 35 0 0 1 2.94 3.51q.64-.22 1.26-.48c-.78-.85-2.93-3.19-3-3.32s.46-.46.75-.4a24.38 24.38 0 0 1 3.26 3.28 27 27 0 0 0 6.67-4 8.28 8.28 0 0 0 3.02-8.32z" fill="#ddeff2"/><path d="m27.36 49.48c0-.23.59-.56.86-.43a26.94 26.94 0 0 1 3.17 2.95c.17-.24.32-.45.45-.65-1-.8-3.38-2.82-3.33-3.11s.69-.89.89-.79 2.23 2 3 2.84a6.56 6.56 0 0 0 .35-1.19c-.74-.6-3.43-2.79-3.48-3s.1-.78.36-.72a31.58 31.58 0 0 1 3.37 2.34c0-.23 0-.5.06-.82a34.77 34.77 0 0 1 -3.39-3c0-.26.29-.89.52-.79a36.59 36.59 0 0 1 2.92 2.39c0-.38 0-.79 0-1.21-.61-.51-2.22-1.86-2.25-2s.26-.81.46-.81a11.17 11.17 0 0 1 1.81 1.38c0-3.6 0-7.68 0-7.84s-28.6 0-28.6 0-.33 10 1.34 13.4 3.21 4.85 3.54 4.88 14.33.11 18.93.13c-.9-.86-2.72-2.62-2.62-2.84s.43-.56.63-.53a31.15 31.15 0 0 1 3.44 3.38 2.79 2.79 0 0 0 1-.73 43 43 0 0 1 -3.43-3.23z" fill="#ddeff2"/><path d="m55.47 55.7s.53-.7.59-.7 2.63 2 3.51 2.77c0-.39 0-.87 0-1.4-1.28-.91-3.86-2.78-4-3s.13-.81.3-.81 2.44 1.76 3.65 2.75c0-.43-.07-.88-.13-1.34-1.17-.74-4-2.51-4.08-2.69s.43-.76.53-.76 2.32 1.58 3.42 2.48c0-.09 0-.17 0-.26-.09-.41-.2-.8-.31-1.19a35.38 35.38 0 0 1 -3.33-2.32c-.06-.11.1-.85.36-.75s1.41.85 2.41 1.52c-.64-1.55-1.43-2.9-2.05-4.24a22 22 0 0 1 -2.06-5.44c-.17-1.41-.1-6.91-.1-6.91a15.35 15.35 0 0 0 -5.08.46 17.66 17.66 0 0 0 -5.1 2.57v1.24a20.76 20.76 0 0 1 -2 10.32c-2.33 4.35-8.88 4.71-8.88 4.71l-.26.56 1.6.1a1.27 1.27 0 0 1 .2 1 .92.92 0 0 1 -.76.88c-.39.14-.88.07-8 0s-20.9-.25-20.9-.25c0 .17-.3 4.39 0 4.72s1.9.23 2.13 0 .06-1.31.16-1.54 1.83-.49 5.9-.75 33.18-.95 35.38-1a35.42 35.42 0 0 1 5.07.07c.1.13 0 2.29.1 2.42a32.37 32.37 0 0 0 5.74-.06.43.43 0 0 0 0-.05 39.5 39.5 0 0 1 -4.01-3.11z" fill="#fcdfc8"/><path d="m43.29 30.05a13.48 13.48 0 0 0 6-1.28 42.2 42.2 0 0 0 5.44-2.72 26.55 26.55 0 0 0 -.46 3.57 21.71 21.71 0 0 1 -.17 2.38 10.31 10.31 0 0 0 -5.44.56 27.16 27.16 0 0 0 -4.78 2.09 14 14 0 0 0 -.59-4.6z" fill="#ddeff2"/><path d="m52.43 6.53s.39-.75.26-.92-.95-.75-.76-1.64a1.79 1.79 0 0 1 2.79-.72c1.05.89.92 1.84.39 2.3s-1.41.09-1.54.29-.49 1-.49 1z" fill="#fcdfc8"/><g fill="#604f58"><path d="m11 20.19s-.06-2.72-.09-4.19a3.37 3.37 0 0 1 .72-2.53c.23-.13.88-.09.88.23a30.26 30.26 0 0 0 -.51 3.84v2.78s-1 .03-1-.13z"/><path d="m14.52 24a15.2 15.2 0 0 0 3.28.33c2.13 0 3.27-.2 3.34 0a7.53 7.53 0 0 1 -.14 1.43s-1.9.1-3.6 0a4.84 4.84 0 0 1 -2.85-.85c-.13-.2-.22-.86-.03-.91z"/><path d="m50.2 21.76a11.87 11.87 0 0 1 3 0 2.57 2.57 0 0 1 -.07 1 10.45 10.45 0 0 1 -2.91.06c-.22-.14-.02-1.06-.02-1.06z"/><path d="m48.4 18.75a58 58 0 0 1 6.19.06c0 .17.06 1.22-.1 1.25s-5.86.19-6.09 0-.27-1.15 0-1.31z"/><path d="m48.59 16.13s7.24 0 7.24.06 0 .89-.36 1.12a55.85 55.85 0 0 1 -6.91.23c-.26-.07-.2-1.28.03-1.41z"/><path d="m6.53 44.56s-.07-7.11 0-7.37 1-.46 1.15-.33 0 7.34-.07 7.51-1.08.19-1.08.19z"/></g></svg>