<svg height="64" viewBox="0 0 64 64" width="64" xmlns="http://www.w3.org/2000/svg"><path d="m28.43 64c-2.89 0-5.58 0-7.75 0-8.62-.1-10.67-.61-12.46-2.09a7.32 7.32 0 0 1 -2.46-5.63c0-.15.12-15.82 2.12-20.47s7.43-8.33 11.34-9c2.18-.39 5.85-.87 8-1.14v-1.11c-3.49-.18-11-.9-15.69-3.84-5.53-3.54-8.79-7.4-9.94-11.87-.59-2.29-.4-4.07.59-5.46s2.75-2.22 5.31-2.39c3.84-.35 22.89-.82 33.78-.92h.79c3.94-.08 6.94-.08 9.19-.08a35.55 35.55 0 0 1 6.68.33c2.79.66 5.39 3 4.7 6.08s-4.26 9.96-12.69 13.59a68.35 68.35 0 0 1 -10.62 3.68v1.7c3.06.17 8.89.69 11.51 2.27l.43.25c3.82 2.27 6.61 4.58 7.67 13.77 1.33 11.49 1 15.54.93 16.51-.23 1.87-1.64 5.08-8.56 5.52-3.82.19-14.53.3-22.87.3z" fill="#fff"/><path d="m29.21 27.3-.1-4.7s-10.78 0-16.56-3.6-8.21-7.23-9.08-10.64.36-5.16 4.18-5.47 23.16-.77 33.64-.89 14.65-.16 16.2.2 3.71 1.72 3.25 3.8-3.41 8.72-11.56 12.18-11.81 3.82-11.81 3.82l.05 5.16s9.34.21 12.43 2.07 6.09 3.2 7.17 12.59 1.14 14.34.93 16-1.86 3.51-6.76 3.82-21.82.42-30.49.31-10.06-.67-11.25-1.65a5.37 5.37 0 0 1 -1.75-4.06c0-1.54.26-15.73 2-19.71s6.76-7.32 9.9-7.89 9.61-1.34 9.61-1.34z" fill="#604f58"/><path d="m56 4.23c-1.7-.41-19.09.21-29.2.31s-20.39.57-20.91 1.19a4.13 4.13 0 0 0 .31 3.41c.8 1.39 3.46 6.08 11.09 8.86 7 2.52 13.64 2.8 23.18.57-.63-.65-1.76-1.87-1.61-2.17s.52-.88.78-.77a14.59 14.59 0 0 1 2.21 2.6l1.15-.32 1.24-.37a19.41 19.41 0 0 1 -2.24-2.54c-.1-.42.52-1 .67-1a23.87 23.87 0 0 1 2.92 3.1c.93-.34 1.79-.69 2.59-1.06a37.7 37.7 0 0 1 -3.34-3.75c0-.31.31-.77.62-.77a28.74 28.74 0 0 1 4 3.87c.54-.3 1.06-.6 1.53-.91-.78-.85-3-3.34-3-3.68s.37-.88.83-.78a17.18 17.18 0 0 1 3.48 3.54 20.9 20.9 0 0 0 1.7-1.43c-.9-1-3.35-3.61-3.4-3.82s1-.62 1.35-.52a19.85 19.85 0 0 1 3 3.38 18.74 18.74 0 0 0 1.35-1.68c-.71-.71-2.77-2.61-2.86-3s.31-.72.72-.72a9.8 9.8 0 0 1 2.75 2.73 13.45 13.45 0 0 0 .78-1.5c.68-1.42.06-2.35-1.69-2.77z" fill="#fcdfc8"/><path d="m51.3 55.62c-.06-.41.31-1 .62-.87s2.65 1.15 3.76 1.79a10.9 10.9 0 0 0 0-1.84v-.1c-.93-.46-3.33-1.5-3.45-2s0-1 .25-1.08a17.52 17.52 0 0 1 3.14 1.2c0-.65-.06-1.38-.1-2.17-1-.27-3-.84-3.09-1.2s0-1.13.26-1.13a21.83 21.83 0 0 1 2.72.59c-.05-.67-.1-1.36-.16-2.06-.74-.15-2.32-.53-2.56-1s-.62-.82-.15-1a7.54 7.54 0 0 1 2.57.4c-.07-.63-.14-1.25-.22-1.86a7.55 7.55 0 0 1 -2.25-.45c-.16-.26-.36-.67-.16-.93a5.31 5.31 0 0 1 2.21-.09c-.12-.77-.25-1.5-.4-2.18-1-4.74-3.77-8.25-9.18-9.44s-12.7-.36-19 0-11.11 2.54-12.38 4.37a14.27 14.27 0 0 0 -2.47 6.5c-.42 3.46-.72 13.83-.67 15.48a2.85 2.85 0 0 0 2 2.84c1 .31 3.71.52 14.55.52s19.75-.36 24.22-.67c-.83-.58-2-1.49-2.09-1.86 0-.57.26-1.14.72-.93a25.24 25.24 0 0 1 3.5 2.47 3.2 3.2 0 0 0 1.6-.92c-1.18-.64-3.75-2.06-3.79-2.38z" fill="#f6c687"/><path d="m11.1 8.1c0-.41 1-.51 1.09-.25s.72 2.47 2.06 3.4 2 .72 1.91 1.08a1 1 0 0 1 -.93.88 5.26 5.26 0 0 1 -2.89-1.75 6.69 6.69 0 0 1 -1.24-3.36z" fill="#604f58"/><path d="m30.71 27-.05-4.59a25.8 25.8 0 0 0 3.34-.01l2.17-.21-.17 4.81s-3.48 0-5.29 0z" fill="#fafafa"/><path d="m14.35 41.85a6 6 0 0 1 1.81-5c2.11-2.27 3.82-2.37 4.18-2.16a.62.62 0 0 1 .05 1c-.39.31-2.39.64-3.25 2.31s-.88 3.59-1.14 3.8-1.44.36-1.65.05z" fill="#604f58"/><path d="m16.78 45.87c0-.72 1.24-8.3 7.33-10.47a33.55 33.55 0 0 1 17.07-1c4.18.87 8.26 5.88 8.77 10.73a24.83 24.83 0 0 1 -.2 8.25c-.16.47-.1 1.86-3.66 2s-25.6.56-26.63.51a3.19 3.19 0 0 1 -2.58-2.89 69.4 69.4 0 0 1 -.1-7.13z" fill="#604f58"/><path d="m19 51.6c-.16-1.59 0-6.76.72-8.82s3.92-5.73 9-6.61 10.88-.57 13.82.72 5.16 3.2 5.42 9.29.31 7.43-.72 7.79-16.41.21-21 .42-6.09 0-6.66-.16-.53-1.6-.58-2.63z" fill="#f9f2ed"/><g fill="#604f58"><path d="m32.36 47.32c.58-1.35 2.89-.93 3.41.46a1.92 1.92 0 0 1 -1.91 2.68c-1.55 0-2.43-.98-1.5-3.14z"/><path d="m28.59 44c-.27-.27.26-1.23.88-1s4 3.61 3.87 4-.31.93-.67 1-3.92-3.83-4.08-4z"/><path d="m21.63 49.79a10.11 10.11 0 0 1 2.73 0c.16.11.31.67.16.78a10.54 10.54 0 0 1 -2.84.25c-.15-.2-.05-1.03-.05-1.03z"/><path d="m21.68 44.22c.17-.51 2.63 0 2.79.16s.15.67-.06.77a12.92 12.92 0 0 1 -2.78 0c-.16-.1-.05-.62.05-.93z"/><path d="m25.34 39.84c-.09-.29.57-.88 1-.68s1.35 1.6 1.19 2.07a1.35 1.35 0 0 1 -.46.67 20.94 20.94 0 0 1 -1.73-2.06z"/><path d="m31.07 37.51c.29-.28.93-.46 1.14-.15a6.74 6.74 0 0 1 .25 2.79c-.2.1-.51.25-.77-.06a5.48 5.48 0 0 1 -.62-2.58z"/><path d="m36.28 37.1c.26-.1 1.29-.05 1.34.1s-.82 2.8-1.08 2.8-.57.26-.62-.15a25.24 25.24 0 0 1 .36-2.75z"/><path d="m41.85 38.7c.32-.21 1 0 .57.62s-2.37 2.22-2.63 2.06-.77-.1-.46-.51a23.17 23.17 0 0 1 2.52-2.17z"/><path d="m42.83 43.86c.21-.15 2.33-1.29 2.58-1a1.14 1.14 0 0 1 .11 1.14 9 9 0 0 1 -2.53.57c-.16-.09-.16-.71-.16-.71z"/><path d="m43.76 49.48 2.33.06s0 .87-.26.87-2.17.31-2.27.05 0-.92.2-.98z"/></g></svg>