<svg height="64" viewBox="0 0 64 64" width="64" xmlns="http://www.w3.org/2000/svg"><path d="m19.7 64c-12.25 0-13.95-.14-16.3-2.49s-3.1-12.29-2.25-14.23c.74-1.69 2.57-2.71 5.07-2.85a18 18 0 0 1 -1.62-7.12c-.51-9.61-.16-10.32 1-11.1.59-.39.63-.42 5.93-.42h2.69v-1.34c-3.27 0-8 0-8.57-.09-1.94-.22-4.17-3-4.26-6.72-.1-3.17-.27-9.74 4.8-13.33 4.73-3.31 11.99-3.73 21.18-4.2 1.38-.11 2.82-.11 4.3-.11a99.72 99.72 0 0 1 20.39 2.08c5.94 1.35 8.85 2.37 10.33 10.71 1.31 7.42.75 14.06.08 15.53a9 9 0 0 1 -.51 1c0 3.49 0 21-.16 24.81v.85c-.12 3.56-.19 5.71-3.64 7.11-3.16 1.26-28.38 1.91-38.46 1.91z" fill="#fff"/><path d="m60.48 13.12c-1.31-7.38-3.48-7.92-8.85-9.12a98.53 98.53 0 0 0 -24.16-2c-9 .47-15.93.85-20.16 3.85s-4.08 8.7-4 11.7 1.85 4.77 2.54 4.84 10.23.08 10.23.08l.16 5.23s-9.32-.07-9.55.08-.61.69-.15 9.39 4.46 9.27 4.46 9.27-1.84 0-3.84-.08-3.7.47-4.24 1.7.16 10.38 1.85 12.08 2.62 1.92 14.93 1.92 35.24-.77 37.7-1.77 2.31-2.08 2.46-6.23.14-25.32.14-25.32a6.63 6.63 0 0 0 .69-1.23c.4-.84 1.1-7-.21-14.39zm-39.86 14.47-2.92-.15-.08-4.93 3 .08zm22.16 17.62c-.54.62-1.92.85-4.38 1s-7.7.38-7.7.38 4-2.69 4-6.23.39-11.77-.23-12.15-12.23-.54-12.23-.54l-.31-5.47 18.77.39a8.4 8.4 0 0 0 .93 4.69c1.23 2 1.77 3 1.77 3s-.08 14.31-.62 14.93z" fill="#604f58"/><path d="m52.94 52.21c.36.26 4.31 5.59 4.31 6.11a18.29 18.29 0 0 0 .36-4 36 36 0 0 1 -3.13-3.44c.05-.26.61-.88.92-.82a15 15 0 0 1 2.27 2.59c.24-8.05.21-21.75.14-21.93s-3.13 1.18-6.31 1.43-5.28-1.08-5.44-.87-.35 14.93-.71 15.8-4.83 1.59-15.7 2.1-23.65-.3-24.37.42.88 9 1.49 9.38 7.23.62 19.65.72c5.71 0 12.54-.12 18.32-.37a19.46 19.46 0 0 1 -2.27-3.17c.05-.36.21-.82.67-.77s2.6 3 3 3.87l2.64-.13c-.82-.94-3.19-3.69-3.11-3.94s.57-.87 1-.57a28.7 28.7 0 0 1 3.63 4.38l1.88-.12c-1-1.12-3.29-4.08-3.29-4.5s.66-.67.87-.67a42.05 42.05 0 0 1 3.84 5.06c.74-.06 1.39-.12 1.92-.18-1-1.35-3.88-5.27-3.71-5.65s.77-.94 1.13-.73z" fill="#ddeff2"/><path d="m25.29 41.39c.1-.41.77-.62.77-.62a57.48 57.48 0 0 1 4.4 4.74 7.67 7.67 0 0 0 .77-.86c-.86-.92-4.15-4.42-4.15-4.65s.31-.92.62-.82a37.39 37.39 0 0 1 4.3 4.39 13 13 0 0 0 .77-1.33c-1.2-1.18-4.44-4.4-4.48-4.65s.05-1.13.51-1a34.25 34.25 0 0 1 4.46 4.41c.09-.5.17-1.32.24-2.31a37.78 37.78 0 0 1 -3.7-3.08c-.25-.46-.25-1.33.11-1.28a23.58 23.58 0 0 1 3.68 2.67c0-.57 0-1.17.06-1.76a18.46 18.46 0 0 1 -3.08-2.17c-.15-.41 0-1.44.31-1.34a14.72 14.72 0 0 1 2.81 1.82 21.28 21.28 0 0 0 -.14-3.87c-.31-.46-25.7-.87-26-.66s-.15 8.1.87 12.15a7.63 7.63 0 0 0 4.58 5.25l10 .17c-.62-.52-1.41-1.25-1.41-1.46s.15-.82.51-.72a13.12 13.12 0 0 1 2.74 2.21h1.79a23.31 23.31 0 0 1 -3.25-3.3c-.05-.46-.26-1 .31-1s3.45 3.06 4.37 4.28a5.17 5.17 0 0 0 .6 0 1.7 1.7 0 0 0 .72-.32c-.61-.65-4.18-4.52-4.09-4.89z" fill="#f6c687"/><path d="m8.57 19.79c-1.08 0-2.06-.15-2.36-1.49s-.52-7.38 1.69-9.49 6-3.43 14.62-3.89a146.2 146.2 0 0 1 25.75 1.18c5.23.9 8.93 1.07 9.73 6.9s.35 12.88-.06 13.7-3.18 3.13-7.18 2.77-5.95.3-7-3.39-.36-5.59-1.18-5.9-5.85-.46-16.83-.41-17.18.02-17.18.02z" fill="#f9f2ed"/><path d="m9 15.43a6.54 6.54 0 0 1 1.07-4.72c1.24-2 2.31-2.46 2.88-2.15s1.18.77.51 1.18-2 .72-2.57 2.36a33.68 33.68 0 0 0 -.71 3.38c-.18.52-1.05.31-1.18-.05z" fill="#604f58"/><path d="m50.42 21.13c1.5-1.1 4.78.2 4.47 3.18s-4.41 3.23-5.34 1.48-.87-3.38.87-4.66z" fill="#604f58"/><path d="m50.89 22.36a2 2 0 0 1 2.92 1.69c0 1.8-2.41 2.05-3.13 1.08a2.23 2.23 0 0 1 .21-2.77z" fill="#f9f2ed"/><path d="m49 38.57c1.23-1.8 5.49-2.88 7 .3s-1.29 7.8-4.82 6.78-4.04-4.31-2.18-7.08z" fill="#604f58"/><path d="m50.37 38.82a3.22 3.22 0 0 1 4.77.67c1.13 2-.66 5.28-3.33 4.51s-3.18-2.82-1.44-5.18z" fill="#f9f2ed"/><path d="m10.05 37.54c.06-.2-.36-5.69-.15-6s.72-.67.87-.1.93 6 .46 6.31-1.18-.21-1.18-.21z" fill="#604f58"/></svg>