<svg height="64" viewBox="0 0 64 64" width="64" xmlns="http://www.w3.org/2000/svg"><path d="m54.38 61.92c-4.14 0-10.88 0-17.69-.05s-14 0-18.41 0h-3.65c-6.07.07-10.13.07-10.57.07-1.76 0-2.7-2.14-2.94-2.79a5.74 5.74 0 0 1 2.25-6l.54-.33a17.35 17.35 0 0 1 -3.13-7.12 61.33 61.33 0 0 1 -.76-9c-.11-5.76.28-6.18 1.24-6.7.25-.13.6-.3 10.29-.38a3.64 3.64 0 0 1 -1.2-2.19 4.44 4.44 0 0 1 -2.93-2.03 10.15 10.15 0 0 1 -1.09-3.4 5.55 5.55 0 0 1 -1.81-.32c-2-.74-2-2.42-2.07-4.55-.08-2.62-.13-7.16.39-8.2a3.4 3.4 0 0 1 3.29-1.84h1.94a11.49 11.49 0 0 1 5-3.91 15.6 15.6 0 0 1 6.51-1.1h2.12 3.12 1.07 5.13c7.67 0 23.5.09 24.24.16s3.74.76 6.74 5.55 2.09 10.47 1.13 13.1c-.75 2-2.7 3.68-4.42 5.13a17.26 17.26 0 0 0 -2.22 2.09c-1.26 1.63-.67 6.14-.47 7.62.67 5 1.73 8.57 3.15 10.53a18.51 18.51 0 0 0 2.19 2.57 3.62 3.62 0 0 1 1.13 1.65c.4 1.32 0 8.2 0 8.26-.18 2-1.52 3-4 3.15-.26.02-.95.03-4.11.03zm-30.47-32.3c9.89 0 10.23.11 10.59.22 1.28.41 2.3.73 1.76 13.51a18.93 18.93 0 0 1 -2.26 7.8 11.88 11.88 0 0 0 6.32-5.94 24.22 24.22 0 0 0 1.83-11.21v-.73a10.71 10.71 0 0 0 -1.75-6.27 9.63 9.63 0 0 0 -1.15-1.34l-9.9-.1a4.22 4.22 0 0 1 -2.62 2.36 15 15 0 0 1 -2.94.55 2.16 2.16 0 0 1 -.58 1.13z" fill="#fff"/><path d="m6.8 53.41a15.56 15.56 0 0 1 -4.24-8c-.94-5-.85-13.53-.49-13.71s31-.36 31.88-.09.63 8.53.49 11.7a16.46 16.46 0 0 1 -2.72 8 8.63 8.63 0 0 1 -1.52 1.78s2.82.09 3.53 0a13.29 13.29 0 0 0 8.27-7.09c2.32-5.23 2-9.47 2-12.73a12.81 12.81 0 0 0 -2.1-7.28c-1.12-1.51-1.83-2-2.06-2.05s-11.84-.18-11.84-.18a2.78 2.78 0 0 1 -1.79 2.45 17.85 17.85 0 0 1 -4.19.58s.19 1.44-.08 1.54-8.64.2-9.08 0-.6-.7-.74-1.4a5.06 5.06 0 0 1 -.1-1.14 3.28 3.28 0 0 1 -3-1.31 11.36 11.36 0 0 1 -1-4.29 12.19 12.19 0 0 1 -2.86-.19c-.7-.27-.84-.64-.9-2.91s-.07-6.8.2-7.34.67-.8 1.67-.8h3a9.09 9.09 0 0 1 4.66-4c3.36-1.5 5.81-.95 12.1-.95s28.5.07 29.17.14 2.92.7 5.36 4.65 1.91 9 1 11.52-4.88 4.74-6.42 6.69-1.27 5.7-.84 9 1.34 8.41 3.49 11.35 2.81 2.92 3 3.69a63.68 63.68 0 0 1 -.06 7.57c-.07.73-.37 1.4-2.28 1.5s-37.64-.11-43.7-.11-10.12.06-10.55.06-1.06-1.06-1.24-1.59a4 4 0 0 1 1.5-3.78 14.1 14.1 0 0 1 2.48-1.28z" fill="#604f58"/><path d="m51.38 56.16c0-.26.44-.83.87-.67a41.66 41.66 0 0 1 4.14 2.51h1a54.43 54.43 0 0 1 -4.54-3.09c-.07-.23.4-.77.77-.77a42.53 42.53 0 0 1 4.91 3.23c0-.29 0-.68 0-1.11a34.92 34.92 0 0 1 -4.28-2.65c-.07-.3.6-.84.83-.84a31.41 31.41 0 0 1 3.47 2.12v-1.08a13.48 13.48 0 0 1 -2.72-1.81 1.23 1.23 0 0 1 .57-1.1 11.18 11.18 0 0 1 2.21 1.1c0-.34 0-.59 0-.66-.07-.4-.37-.53-1.31-1.44s-2.67-3.88-4.08-8.5-1.58-13.2-1.58-13.2-.49-.4-2.64-.2a4.15 4.15 0 0 0 -3 1.3s.06.64.2 4.09.47 7.37-2.61 13.43-7.81 8.1-8.71 8.31-25.73.36-26.88.46-2.77 1.95-2.77 2.11c0 0 9.91.24 22.07.17 8.55 0 20.38.11 26.73.14a14.26 14.26 0 0 1 -2.65-1.85z" fill="#f39a9b"/><path d="m32.29 33.89c-.07-.17-28.64-.25-28.64 0 0 1.74.14 8.54 1.38 12.23a20.11 20.11 0 0 0 4.39 7h13.89a13.88 13.88 0 0 1 -1.64-1.86c0-.16.74-.67 1-.5a24.4 24.4 0 0 1 2.52 2.35h1.27a18 18 0 0 1 -2.46-2.74c.07-.27.57-.57.74-.5a37.55 37.55 0 0 1 2.89 2.73c.12-.11.25-.25.41-.43a25.71 25.71 0 0 1 -2.33-2.47c0-.2.4-.54.57-.5a21.78 21.78 0 0 1 2.43 2.18l.52-.64.19-.26c-.65-.61-2.09-2-2-2.19a1.08 1.08 0 0 1 .73-.6 16 16 0 0 1 1.85 1.89c.26-.39.5-.79.72-1.18a6.84 6.84 0 0 1 -1.34-1.55c0-.33.3-.6.47-.57a8.33 8.33 0 0 1 1.32 1.28 11 11 0 0 0 1-2.65c.15-.77.19-10.85.12-11.02z" fill="#f7babe"/><path d="m47.6 32.92a1.56 1.56 0 0 1 2.11-.4 2.08 2.08 0 0 1 .4 2.34 1.39 1.39 0 0 1 -2.08 0 2.81 2.81 0 0 1 -.43-1.94z" fill="#604f58"/><path d="m14.31 31.68c0-.2 0-3.75.06-3.78s1.27-.1 1.34.06a37.12 37.12 0 0 1 -.13 3.82c-.07.14-1.27-.1-1.27-.1z" fill="#604f58"/><path d="m17.15 31.92a30.67 30.67 0 0 1 0-4.06s1.37 0 1.41.14 0 4-.07 4a9.27 9.27 0 0 1 -1.34-.08z" fill="#604f58"/><path d="m8.08 18.89a8.67 8.67 0 0 1 -2.28 0c-.17-.2-.2-.47-.27-2.82s-.07-5.76.37-5.86a18.17 18.17 0 0 1 2.54.1 23.28 23.28 0 0 0 -.5 4.49 37.28 37.28 0 0 0 .14 4.09z" fill="#83a7d8"/><path d="m10.42 21.94s-.3-10.59-.2-11.06a8.25 8.25 0 0 1 4-4.05c2.54-1.17 6.93-.57 11.75-.5s18.32 0 22.81 0 6.22-.17 8.13 1.41a8.89 8.89 0 0 1 3.18 5.69 15 15 0 0 1 0 2.78s-30.68.17-33.23.27-3.45.4-3.81 1.64 0 2 .93 2.21 34 .77 34 .77-2.38 1.77-4.08 3.28a15.27 15.27 0 0 0 -2.35 2.45 10.52 10.52 0 0 0 -3.82 0 10 10 0 0 0 -2.48 1.5 11.72 11.72 0 0 0 -2-4.15c-1.38-1.81-1.85-2.18-2.25-2.18s-14.24-.33-14.37-.23-.64 2-1.27 2.34-1.31.3-5.83.4a65.29 65.29 0 0 1 -6.66 0 3.26 3.26 0 0 1 -2.45-2.57z" fill="#ddeff2"/><path d="m13.53 26.12s6.74 0 6.77.2a4 4 0 0 1 -.07 1.31c-.1 0-6.56-.13-6.7-.2s-.16-1.24 0-1.31z" fill="#83a7d8"/><path d="m24.79 17.48c.19-.05 16.64-.2 24.31-.13s10.75.2 10.75.2a4.06 4.06 0 0 1 -.33 1.45c-.27.43-.6.93-.6.93s-34.47-.37-34.6-.5 0-1.81.47-1.95z" fill="#83a7d8"/><g fill="#604f58"><path d="m5.76 36.77c0-.15 1.85-.16 1.91.07a15.39 15.39 0 0 0 .33 4.89 18 18 0 0 0 1.1 2.85 2.7 2.7 0 0 1 -1.57.7c-.33-.1-1.13-1.41-1.53-3.89a16.89 16.89 0 0 1 -.24-4.62z"/><path d="m12.9 16.31s0-5.36.13-5.79a5.52 5.52 0 0 1 2.68-2c1.41-.53 2.15-.37 2.18-.2a3.82 3.82 0 0 1 -1.64 1.44 4.35 4.35 0 0 0 -2 1.54c-.27.57 0 4.86-.1 5.13s-1.15.21-1.25-.12z"/><path d="m13.6 21.6c.06-.09 1.84.2 4.12.24a29.22 29.22 0 0 1 3.75.1 4.68 4.68 0 0 1 -.06 1 48.86 48.86 0 0 1 -5.06 0c-2.55-.14-2.75-.07-2.82-.2a3.73 3.73 0 0 1 .07-1.14z"/><path d="m34.5 14.7a2 2 0 0 1 2.38-2.11 1.59 1.59 0 0 1 1.47 2.21c-.3.44-.33.44-.63.3a1.46 1.46 0 0 1 -.54-.47.46.46 0 0 0 -.1-.7 1 1 0 0 0 -1.24.27.57.57 0 0 0 .3.7c.2.07.54 0 .54.27s-.24.7-.91.57a1.4 1.4 0 0 1 -1.27-1.04z"/><path d="m48.2 23.38a14.63 14.63 0 0 1 2.54-.27c.94 0 .77.3.77.5s.1.5-.16.6a17.24 17.24 0 0 1 -2.92.17c-.2-.07-.43-.77-.23-1z"/></g></svg>