<svg height="64" viewBox="0 0 64 64" width="64" xmlns="http://www.w3.org/2000/svg"><path d="m63.94 42.86c-.19-2.79-2-7.54-4.67-14.75l-.91-2.43a69.47 69.47 0 0 0 -5-10.84 4 4 0 0 0 .83-1.26 4.89 4.89 0 0 0 -1.25-4.58s-2.88-3.29-4.66-3.44h-.17c-.49 0-1.08 0-3 1.68a16.71 16.71 0 0 0 -1.85-.61 18.54 18.54 0 0 0 -4.7-.63 16.71 16.71 0 0 0 -4.22.52c-3.62.92-9.23 4.68-11.23 6.25a15.93 15.93 0 0 0 -5.64 8.23 12.38 12.38 0 0 0 .65 7.3c0 .28.12.73.22 1.22a11.31 11.31 0 0 0 1.27 2.71l-5.64 5a3.5 3.5 0 0 0 -1.71-1.06 2 2 0 0 0 -.48-.06c-1.7 0-6.17 3.08-7.7 4.39a11.94 11.94 0 0 0 -3.82 5.77 5.74 5.74 0 0 0 .74 5 5.82 5.82 0 0 0 2.61 2h.16a4.49 4.49 0 0 0 .71 1 6.32 6.32 0 0 0 4 2.32h.12c2 0 7.92-5.08 9.42-7 1.76-2.22 3.12-4.22 1.95-6.24a4.63 4.63 0 0 0 -.31-.46l5.15-4.42a7.48 7.48 0 0 0 2.29 1.25c.38.5 1 1.36 1.9 2.58 1.59 2.22 7.07 9.46 8.93 11.71a12.39 12.39 0 0 0 8.51 4.31 5.65 5.65 0 0 0 .93-.07 28.38 28.38 0 0 0 11.74-5.25c4.89-3.66 5.06-6.89 4.83-10.14z" fill="#fff"/><path d="m62 43c-.2-2.79-2.45-8.53-5.47-16.64s-5.53-11.72-5.53-11.72a16 16 0 0 0 1.44-1.74 3.16 3.16 0 0 0 -.93-2.64c-1.1-1.26-2.92-2.72-3.39-2.75s-2.71 2.05-2.71 2.05a10.79 10.79 0 0 0 -2.68-1.05 16.09 16.09 0 0 0 -7.91-.07c-3.18.81-8.53 4.34-10.51 5.89a13.92 13.92 0 0 0 -5 7.14 10.46 10.46 0 0 0 .69 6.28s.07.62.23 1.32a20.15 20.15 0 0 0 3.37 5.51c2.87 3.6 4.62 3.49 4.62 3.49s.85 1 2.4 3.21 7 9.35 8.84 11.6 5.43 3.92 7.64 3.57a26.42 26.42 0 0 0 10.82-5c4.2-3.15 4.28-5.67 4.08-8.45zm-8-1.24c-.66.7-2.79.16-4.23-2.33s-4.4-7.92-5.77-10.32-2.6-4-2-4.77 3.65-2.68 4.39-3.8a67.88 67.88 0 0 1 5.08 11.13c2.2 6.33 3.21 9.38 2.53 10.08z" fill="#604f58"/><path d="m55 49.12c0-.16.15-.66.42-.58a6 6 0 0 1 1.37 1.06c.24-.17.47-.35.68-.53a7.41 7.41 0 0 1 -1.19-1c-.16-.27-.12-.81.31-.66a7.6 7.6 0 0 1 1.5 1.15q.24-.24.45-.48a5.89 5.89 0 0 1 -1.34-1.08c-.12-.31.46-.78.58-.78a6.64 6.64 0 0 1 1.4 1 4.79 4.79 0 0 0 .33-.58 6.24 6.24 0 0 1 -1-1.09c-.07-.27 0-.62.35-.58a2.62 2.62 0 0 1 1 .58 7 7 0 0 0 .1-2.87c-.51-3.3-1.75-6.75-4.66-14.7a59.38 59.38 0 0 0 -7-13.49s0 .31.08 1.59a4.82 4.82 0 0 1 -.77 2.48s.38.5 1.47 2.17 2.09 4.85 3.88 9.19 3.88 9.54 3.37 11.25-1.63 3.06-4.07 2.64-4.15-3.38-7.1-8.42-5.35-8.92-5.5-10 .77-2.48 2.21-3.76 4.22-3.64 4.69-6-1-3.57-3.45-4.5a13.16 13.16 0 0 0 -9 0c-3.26 1.16-8.73 4.42-11.17 7.76a9 9 0 0 0 -1.67 6.78s2.44-2 3.07-2.05 2.4.08 4.18 2.33 4.08 6.32 4.27 8.72-2.55 3.33-2.55 3.33a27.16 27.16 0 0 0 1.87 2.25c1.47 1.66 9.73 13 12.87 13.57s5.78-.66 10-3.06c.36-.21.69-.41 1-.62a7.65 7.65 0 0 1 -.98-1.02z" fill="#ddeff2"/><path d="m46.65 10s1.28-1.17 1.67-1.13a8.77 8.77 0 0 1 2.4 2.64c.43.81.58.89.43 1.32a4 4 0 0 1 -.82 1 33.83 33.83 0 0 0 -3.68-3.83z" fill="#c5dda3"/><path d="m21.52 27.28c.36-.38 3.84-.11 5.62 3.92s2.29 5.16 1.75 5.62-2.37-.38-4.74-3.45-3.56-5.08-2.63-6.09z" fill="#fcdfc8"/><path d="m23 26s1.47-1.48 1.9-1.4 3.14 1.51 5.12 5.47 1.74 5.93 1.59 6-1.4.93-1.4.93a11.1 11.1 0 0 0 -2.21-6.57 14.77 14.77 0 0 0 -5-4.43z" fill="#fcdfc8"/><g fill="#604f58"><path d="m26.52 32.75c-.12.12-10.52 9.62-10.52 9.62l-.74-.12a2 2 0 0 0 .08-1.12 2.3 2.3 0 0 0 -.39-.78s10.16-8.41 10.13-8.68a.91.91 0 0 0 -.94-.93l-10.26 9.19s-1.55-1.75-2.06-1.86-4.3 2-6.47 3.91a9.9 9.9 0 0 0 -3.22 4.81 3.93 3.93 0 0 0 .35 3.26 4.17 4.17 0 0 0 1.7 1.4 2.41 2.41 0 0 0 1.2-.08s-.38.66.55 1.7a4.58 4.58 0 0 0 2.71 1.67c.7 0 6-3.84 7.91-6.24s2.21-3.34 1.79-4.07a6.49 6.49 0 0 0 -1.52-1.52s10.18-8.72 10.32-8.91a.77.77 0 0 0 -.62-1.25zm-11.32 11.06c-.12.34-1.21.66-1.48.66s1-1.25 1.13-1.13.46.12.35.47zm-3.77.62c1.67-1.36 2.14-1.59 2.29-1.44s0 .54 0 .54-2.6 2.47-4.11 3.61a24.94 24.94 0 0 1 -2.61 1.75 56.67 56.67 0 0 1 4.43-4.46zm-2.94.35a22.51 22.51 0 0 1 -4.27 3.29c-.43.23-.78-.42-.58-.5s3.92-3.8 5.51-4.73 2-1 1.9-.74a20.18 20.18 0 0 1 -2.56 2.68zm5.35-3.78c.74.43.81 1 .7 1.09s-1.09-.31-1.79.15-1.51.9-1.51.9a9.31 9.31 0 0 0 .85-1.32 1.51 1.51 0 0 0 .12-.7 1.79 1.79 0 0 1 1.63-.12zm-10.16 4a25.53 25.53 0 0 1 5.39-4.89c2.13-1.35 2.75-1.2 3.06-1s.51 1.21.51 1.21a8.05 8.05 0 0 0 -1.09.19 12.17 12.17 0 0 0 -3.37 1.82c-2.18 1.4-4.58 4.15-5 4.46s-.28-.79.5-1.79zm1.78 4.46a2.79 2.79 0 0 1 -1.36 1.13c-.23 0-1.39-.81-.93-1.28a6.49 6.49 0 0 0 2.29-1c1.28-.81 2.6-1.7 2.6-1.7a34.61 34.61 0 0 0 -2.6 2.82zm.78 1.12a14.53 14.53 0 0 1 2.36-1.42 14.83 14.83 0 0 1 -2.17 2.17c-.23.12-.43-.58-.19-.78zm1 1.4a67.24 67.24 0 0 1 5.5-5.24c1.75-1.39 2.87-1.86 3-1.66s0 .42-.16.66a21 21 0 0 1 -4.53 4.49c-2.76 2-3.34 2.14-3.69 2.18s-.15-.34-.15-.41zm9.73-7.72a.85.85 0 0 1 .82.93c-.08.74-2.68 3.73-5.2 5.94s-3.38 2.44-4 2.63-1.36-.19-1.17-.62a15.45 15.45 0 0 0 6.3-4.14c2.91-3.1 2.91-4.11 3-4.34s.03-.43.22-.43z"/><path d="m26.64 17.24a16.07 16.07 0 0 1 2.21-1.9.7.7 0 0 1 .62.58 6.75 6.75 0 0 1 -1.82 1.79c-.32.11-1.13-.2-1.01-.47z"/><path d="m28.77 18c.16-.12 2-1.87 2.44-1.91s.62.63.58.82-1.79 2.09-2.21 2.09-1.12-.75-.81-1z"/><path d="m30.52 19.33s2.79-2.28 3.1-2.36 1.2.85 1 1.16-3.25 2.48-3.56 2.37-.82-.86-.54-1.17z"/><path d="m36.33 11.93a9.22 9.22 0 0 1 2.76-.24c1.39.08 1.94.31 2 .55a1.63 1.63 0 0 1 0 .81s-1.08-.12-2.75-.12-1.82.16-2 .12-.43-.97-.01-1.12z"/><path d="m44.44 47.88a19.39 19.39 0 0 0 -1.36-4.19 17.93 17.93 0 0 0 -1.86-3.14 1.45 1.45 0 0 1 .39-1.09c.11 0 1.51.78 2.67 3.92s1.67 4.23 1.48 4.5a1.18 1.18 0 0 1 -1.32 0z"/></g></svg>