<svg height="64" viewBox="0 0 64 64" width="64" xmlns="http://www.w3.org/2000/svg"><path d="m60.27 41.62a7.52 7.52 0 0 0 -2.51-3.89 21.78 21.78 0 0 0 .43-3.15 5.92 5.92 0 0 0 -1.48-4.58 9.73 9.73 0 0 0 -6.71-2.85h-.39c-3.36 0-7 1.75-7.56 5.64a8.59 8.59 0 0 0 .34 4.08c-1.43 1-2.86 2.41-3.16 3.55l-.66-.14c0-8.48-.05-17.51-.3-19.76-.45-3.88-4.23-6.18-6.47-7.32a13 13 0 0 0 .78-4.66 7.18 7.18 0 0 0 -2.16-5.24 12.85 12.85 0 0 0 -9-3.29c-.38 0-.76 0-1.14 0-5.79.42-9.4 2.82-11 7.34-1.28 3.65-.21 5.65.64 6.71q-.43.15-.9.36c-2.95 1.34-4.72 3.3-5.13 5.66s-.54 29.71-.4 33c.2 4.57 4.3 8.16 6.44 9.42.39.23 1.31.77 13.14.77 1.9 0 6.53 0 8.54-.25a7.51 7.51 0 0 0 6.46-4.71 3.17 3.17 0 0 1 .85-.12v.31c.4 2 4.38 5.53 10.89 5.53h.46c6.55-.16 9.65-2.85 10.13-4.61.35-1.22 0-16.9-.13-17.8z" fill="#fff"/><path d="m10.92 60.8c-1.83-1.07-5.33-4.18-5.49-7.8s0-30.45.37-32.54 2.29-3.45 4-4.23 3.34-.79 3.24-1.41-.73-.89-1.05-1.31-2.28-1.71-.92-5.51 4.29-5.66 9.35-6 10.3 2.09 10.24 6.53-1.66 5.25-1.25 5.62 6.48 2.45 7 6.58.26 34.32.15 35.79-1.41 4.12-5.12 4.54-19.64.26-20.52-.26z" fill="#604f58"/><path d="m28.21 52.76c-.05-.42.21-.89.42-.89s3.79 2.82 5.19 4c0-.47 0-1.36 0-2.56-1.43-1.21-4.7-3.88-4.62-4.17s.26-.83.63-.78a29.1 29.1 0 0 1 4 3.25c0-.88 0-1.86 0-2.91a25.44 25.44 0 0 1 -3.64-2.7 2.29 2.29 0 0 1 .21-1s2.29 1.47 3.52 2.39c0-.8 0-1.62 0-2.46-1-.92-3.43-3.11-3.48-3.32s.06-1 .32-1a21.08 21.08 0 0 1 3.17 2.26c0-.88 0-1.78 0-2.69-.86-.58-3.14-2.16-3.18-2.5s-.11-.94.15-.94a22.06 22.06 0 0 1 3 1.88v-2.76c-.76-.63-2.6-2-2.82-2.33s-.31-1 .06-1a10 10 0 0 1 2.75 1.61v-2.14a15.33 15.33 0 0 1 -2.7-2c-.06-.31-.06-.78.2-.89a8.16 8.16 0 0 1 2.54 1.22c0-.8 0-1.57 0-2.3a14.32 14.32 0 0 1 -2-1c-.15-.21-.26-.73 0-.83a6.36 6.36 0 0 1 2 .6c0-2.93-.08-5.05-.15-5.62-.32-2.45-5.33-4.91-5.91-5.12s-1.57-.68-1.72-1.41 1.77-2.92 1.62-5.33-2-5-7.89-4.44-6.35 4.12-6.2 5.92 1.94 2.46 2.41 4.18-3.91 2.9-5.7 4.24a4.65 4.65 0 0 0 -1.77 2.5c-.21 1.21-.26 26.65 0 31s4.23 6 6.16 6.11c1.38.11 7.21.33 11.33.29a22.93 22.93 0 0 1 -2.92-2.7c0-.31.68-.67.89-.67a29.18 29.18 0 0 1 3.79 3.34 15.59 15.59 0 0 0 2-.16 6 6 0 0 0 .67-.15c-1.21-1-4.12-3.28-4.12-3.61s.32-1 .79-.89a34.32 34.32 0 0 1 4.88 3.9 3.85 3.85 0 0 0 1.21-1c-1.38-1.08-5.05-4.09-5.09-4.42z" fill="#adceea"/><path d="m45 37.66a6.18 6.18 0 0 1 -1-4.6c.41-2.87 3.34-4.07 5.95-4s6.64 1.62 6.32 5.33-.78 3.92-.78 3.92 2.66 2 2.87 3.55.37 16.4.21 17-2.14 3-8.31 3.18-9.24-3.18-9.4-4 .16-16.56.26-17.18 2.29-2.68 3.88-3.2z" fill="#604f58"/><path d="m52.61 53.8c-.06-.31.47-.89.47-.89s1.93 1.31 3 2.19c0-.55 0-1.15 0-1.78-.76-.5-2.39-1.54-2.43-1.87s0-1.25.42-1.2a8.15 8.15 0 0 1 2 1.11c0-.6 0-1.2 0-1.79a10.44 10.44 0 0 1 -2.07-1.2c0-.21-.11-1.2.47-1.15a4.62 4.62 0 0 1 1.62.69 38.93 38.93 0 0 0 -.35-5.91c-.52-1.82-2.87-2.61-3.08-2.71a1 1 0 0 1 -.66-1.06c0-.78 1.83-1.41 2-3.55s-2.24-2.82-4-2.93-3.55 1.41-3.55 2.88c0 2.19 1.83 2.77 1.93 3.29s-.41.68-1.93 1.46a8.5 8.5 0 0 0 -3 2.4c-.26.53-.26 14.74-.1 15.52s3.6 2.19 6.16 2.25h.92c-1-.76-3-2.39-2.85-2.75a.71.71 0 0 1 1-.52 33.27 33.27 0 0 1 3.56 3.09c.61-.09 1.19-.2 1.72-.33-1.08-1-3.67-3.34-3.71-3.76a.92.92 0 0 1 .62-.94 43.89 43.89 0 0 1 4.82 4.19 1.26 1.26 0 0 0 .3-.16 5 5 0 0 0 .2-1.53 34.42 34.42 0 0 1 -3.48-3.04z" fill="#ddeff2"/><g fill="#604f58"><path d="m16.24 11.38a3.38 3.38 0 0 1 1.1-3.66c1.66-1.41 2.56-.72 2.87-.42a.76.76 0 0 1 -.21 1.21c-.52.26-1.3-.11-1.88.94s-.31 1.93-.52 2.19-1.25.05-1.36-.26z"/><path d="m11 22.61c.08-.36 1.93-.36 2 .16s0 11.07-.32 11.18-1.3.21-1.46-.37-.36-10.29-.22-10.97z"/><path d="m48.43 34.78c-.41-.4.94-1.62 1.62-1.62s1 .27.78.68-.78.37-1 .84 0 .47-.47.57-.83-.36-.93-.47z"/><path d="m45.4 42.62c-.17-.33 1.25-.42 1.35-.1s.32 5.69.06 5.85-1.1.57-1.31 0 0-5.54-.1-5.75z"/></g></svg>