<svg height="64" viewBox="0 0 64 64" width="64" xmlns="http://www.w3.org/2000/svg"><path d="m44.65 64c-5.42 0-12-.1-17.28-.18l-4.49-.07c-5.19-.07-8.74-.14-10.79-.18h-2c-2.12 0-5-3.28-5.39-7.1-.33-3.48-.95-17.94-1-26.6 0-6.51.12-13.36.21-17 0-1.31 0-2.22 0-2.59 0-7.71 4.75-9 7.58-9.17 5-.2 35.37-1 39.58-1h.1c5 0 8.46 4.53 8.78 11.55.26 5.5.27 40.28.27 44.23 0 4.7-2.5 7.62-6.85 8-1.46.04-4.37.11-8.72.11z" fill="#fff"/><path d="m5.92 10.22c0-2.88.63-7 5.72-7.23s35.36-.99 39.53-1.05 6.65 4.09 6.92 9.7.26 42.31.26 44.14-.42 5.67-5.09 6.08-22.38.06-30.35 0-12.06-.21-12.8-.21-3.14-2-3.46-5.35-.94-17.61-1-26.42.27-18.24.27-19.66z" fill="#604f58"/><path d="m49.54 58.14c-.16-.31 0-1 .31-1a12.94 12.94 0 0 1 3 1.73 4.79 4.79 0 0 0 1.74-.66c-1.1-.69-3.5-2.24-3.66-2.65s.16-1.1.42-1.1a30.12 30.12 0 0 1 4.2 2.58 4.56 4.56 0 0 0 .31-1.48c0-.1 0-.3 0-.55a34 34 0 0 1 -3.79-2.7c-.11-.31-.16-1 .15-1a21.6 21.6 0 0 1 3.66 2c0-.55 0-1.18 0-1.88-1.28-.72-3.9-2.23-4-2.55s.05-.94.37-1a22.43 22.43 0 0 1 3.61 2c0-.74 0-1.54 0-2.38a29.57 29.57 0 0 1 -3.81-2.54c-.16-.37-.16-1.21.36-1.1a19.82 19.82 0 0 1 3.45 2c0-.66 0-1.35 0-2.05a29.46 29.46 0 0 1 -2.81-2.1c0-.21.26-1 .53-1a12 12 0 0 1 2.27 1.23c0-.71 0-1.44 0-2.17a10 10 0 0 1 -2.31-1.26c-.36-.47-.31-1 0-1a9.32 9.32 0 0 1 2.3.9c0-.62 0-1.25 0-1.89-.53-.54-1.42-1.42-1.5-1.58s-.1-.89.16-.89a4.26 4.26 0 0 1 1.32.6c-.09-10.68-.27-21.85-.48-24.08-.42-4.36-3.88-6-7.24-6s-31.64 1.2-35.31 1.43-3.79 2.76-3.88 4.17c0 0-.05 2.36-.11 9.81s.32 31.4.53 35.17 2.15 3.88 6.6 3.94 30.41.21 34.55 0h.29a5.61 5.61 0 0 1 -1.23-.95z" fill="#da8cbb"/><path d="m11.74 13.89c-.1-.18-.21-4.09.47-4.61s4.09-.47 4.14-.21.16 1.1-.21 1.15-2.93.11-3 .53.21 3 0 3.3a.93.93 0 0 1 -1.4-.16z" fill="#604f58"/><path d="m11.79 50c.55-1.15 2.94-2.63 4.83-1.05s2.15 4.4.36 5.61a3.77 3.77 0 0 1 -4.56.05c-1.26-.82-1.1-3.61-.63-4.61z" fill="#604f58"/><path d="m13.57 50.17c.62-.74 2.78-.63 3.2.74a2.17 2.17 0 0 1 -2.09 3c-1.84-.07-2.78-1.69-1.11-3.74z" fill="#f7babe"/><path d="m19.76 48.76c0-.95.37-1.63 1.26-1.68s24.22.31 25.16.31 1.21.37 1.21 1.26.11 5.82 0 6.45-.78 1.21-2.36 1.31-22.38 0-23.27 0a2.12 2.12 0 0 1 -2-1.73c-.05-.94 0-5.92 0-5.92z" fill="#604f58"/><path d="m21.07 48.55s24.85 0 25 .26.37 5.19-.21 5.87-11.06.63-16.78.53-7.55 0-7.86-.37-.31-5.98-.15-6.29z" fill="#adceea"/><g fill="#604f58"><path d="m36.38 52.38a4.69 4.69 0 0 1 2.52 0 1.07 1.07 0 0 1 .1 1.1 7.44 7.44 0 0 1 -2.62 0c-.21-.21-.1-1 0-1.1z"/><path d="m40.84 52.27a12.4 12.4 0 0 1 3.3.11c.26.15.1 1.1 0 1.1l-3.25-.11s-.21-.84-.05-1.1z"/><path d="m14.05 33a4.86 4.86 0 0 1 -1-3.57c.11-2.3.37-3 .63-3.19s.79-.27.79.15a13.52 13.52 0 0 0 .15 4c.42 1.57.53 1.89.58 2.25s-1.05.49-1.15.36z"/><path d="m14.57 20.81a9.35 9.35 0 0 1 1.52-2.88c.84-1.15 1.21-1.36 1.42-1.26s.78.74.73.95-.84 1.1-1.41 1.94a8.9 8.9 0 0 0 -.9 1.83c-.15.32-1.36-.26-1.36-.58z"/><path d="m21.49 13.16a33.87 33.87 0 0 1 3-1.84 7.31 7.31 0 0 1 2.78-.68c.26.06.32.95.16 1.1a18 18 0 0 0 -3.41 1.31c-1.26.84-1.47 1.26-2 1.32s-.79-.95-.53-1.21z"/><path d="m33.08 10.54a14 14 0 0 1 3.56.31c1.94.32 2.47 1.31 2.36 1.58s-.31.62-.68.57-1.57-.73-2.78-1.05-2.1 0-2.25-.36-.42-.84-.21-1.05z"/><path d="m44.56 16.57s.79-.68 1.1-.47a9.73 9.73 0 0 1 1.89 2.56c.68 1.26.84 1.37.63 1.52s-.84.53-1 .37-1.83-3.35-2.62-3.98z"/><path d="m49 27s1.2-.11 1.25.1.16 3.62-.21 3.83-1.25.16-1.31-.26.27-2.88.27-3.67z"/><path d="m46.5 37.28a.73.73 0 0 1 .84.42c.1.31-1 1.62-1.57 2.62a3.71 3.71 0 0 1 -1.77 1.52c-.26 0-.68-.58-.63-.89s1.47-1.47 2-2.26 1.13-1.41 1.13-1.41z"/><path d="m35.86 44a10.43 10.43 0 0 0 2.14-.22c1.52-.27 2.57-.79 2.67-.58a2.26 2.26 0 0 1 .21 1.1 6.83 6.83 0 0 1 -2.83.79c-1.78.26-2.26.26-2.41.1s-.1-1.19.22-1.19z"/><path d="m25.11 42.83c.37 0 .94.48 2.78.84a24.23 24.23 0 0 1 2.57.42 1.38 1.38 0 0 1 -.27 1.16 10.89 10.89 0 0 1 -3.35-.42c-1.26-.32-2-.42-2.15-.79s.21-1.21.42-1.21z"/><path d="m16.62 37.64c.16.09.73 1.68 1.57 2.31s2.2 1.31 2.15 1.57-.58.89-1.1.74a9.6 9.6 0 0 1 -2.89-1.89 3.88 3.88 0 0 1 -1-2.31c.06-.31.95-.57 1.27-.42z"/></g></svg>