<svg height="64" viewBox="0 0 64 64" width="64" xmlns="http://www.w3.org/2000/svg"><path d="m5 62.92a16.39 16.39 0 0 1 -1.68-.09 3.7 3.7 0 0 1 -3.11-2.19 3.24 3.24 0 0 1 .65-3.32c1-1.15 22.18-24.26 26.44-28.7 3.41-3.56 5.75-5.94 6.64-6.84a5.65 5.65 0 0 1 1.09-2c.12-.14 14.36-16 15.91-17.37 1.38-1.18 3.87-1.36 5.22-1.36a8.78 8.78 0 0 1 3.45.58c1.7.86 4.73 4 4.36 7.77-.3 2.94-3.15 5.41-7.11 8.84-1.08.93-2.24 1.94-3.45 3l-7 6.36a26.39 26.39 0 0 1 4 4.21c1.06 1.89 0 3.7-.45 4.58-.07.11-.13.21-.17.29-.71 1.67-9.27 8.5-14.91 12.58a90.09 90.09 0 0 1 -20.71 11.74 26.9 26.9 0 0 1 -9.17 1.92z" fill="#fff"/><path d="m35.71 22.75a3.21 3.21 0 0 1 .8-1.69c.76-.9 14.41-16.06 15.69-17.14s5.41-1.09 6.54-.52 3.58 3 3.3 5.84-4.66 5.84-9.94 10.64l-8.57 7.82s4.57 3.95 5.23 5.13-.43 2.5-.71 3.16-6.26 6-14.27 11.77a87.23 87.23 0 0 1 -20.29 11.39c-5.56 2.08-8.57 1.85-9.94 1.75s-2.12-1.27-1.22-2.31 21.94-24.02 26.37-28.59 7.01-7.25 7.01-7.25z" fill="#604f58"/><path d="m36.37 23.79c.1-.11 11.35 9.23 11.45 9.65a3.56 3.56 0 0 1 -1.27 2.5 154.17 154.17 0 0 1 -17.33 13.65c-6.5 4.1-16.44 9.23-19.17 10s-7 .94-7 .42a1.13 1.13 0 0 1 .42-.94c.19-.14 10.22-11.11 13.33-14.5s19.2-20.4 19.57-20.78z" fill="#f9f2ed"/><path d="m39.1 21.53c.19-.36 14.23-15.16 14.74-15.59a3.34 3.34 0 0 1 4.1.19 3.4 3.4 0 0 1 1.32 4.1c-.38.8-16.25 15.3-16.58 15.3s-3.68-3.72-3.58-4z" fill="#84767e"/><path d="m48.9 12.35c.84-.73 2.87-.62 3.39.75a2 2 0 0 1 -2.45 2.59 2 2 0 0 1 -.94-3.34z" fill="#604f58"/><path d="m49.62 13.08a1.15 1.15 0 0 1 1.71.38 1 1 0 0 1 -1.23 1.31 1 1 0 0 1 -.48-1.69z" fill="#f9f2ed"/><path d="m52.2 9.05c.18-.87 1.93-2.54 3.53-1.7a2.33 2.33 0 0 1 1 3.4 2.52 2.52 0 0 1 -4.56-1.7z" fill="#604f58"/><path d="m53.66 8.44c.37-.43 2-.57 2.3.47a1.3 1.3 0 0 1 -1.41 1.74 1.42 1.42 0 0 1 -.89-2.21z" fill="#f9f2ed"/><g fill="#604f58"><path d="m29.66 36.11c-.06-.42 1.09-.59 1.17-.25s.55 8.54.26 8.62-.47.3-.59 0-.8-8.08-.84-8.37z"/><path d="m34 30.74c.07-.18.63-.38.8-.17s.25 11.7 0 11.74-.85-.13-.8-.63-.13-10.68 0-10.94z"/><path d="m37.62 31c.06-.24 1-.21 1.05 0a52.84 52.84 0 0 1 -.3 5.93c-.16 0-.37 0-.54-.46a39.57 39.57 0 0 1 -.21-5.47z"/></g></svg>