<svg height="64" viewBox="0 0 64 64" width="64" xmlns="http://www.w3.org/2000/svg"><path d="m4.4 64a4.15 4.15 0 0 1 -2.53-.86c-.96-.69-1.59-1.14-.42-13.29.23-2.34 2.47-4.85 3.42-5.85.65-.67 3.72-3.27 8.67-7.46 3.91-3.31 8-6.73 9.78-8.37 2.9-2.61 6.33-5.44 7.8-6.64a4.8 4.8 0 0 1 1-2.66c1.06-1.38 14.76-13.18 14.88-13.3 4.35-3.72 6.91-5.32 8.84-5.57a6.69 6.69 0 0 1 5.51 2 6.85 6.85 0 0 1 1.4 7c-.63 1.68-4 4.44-15.9 12.8-2.06 1.46-4.18 3-4.54 3.28 3 2.51 3.29 3 3.44 3.29a6.65 6.65 0 0 1 -.47 5.85c-1.11 1.87-9.77 11.88-19.8 18.78s-15.24 9-17.8 10.15l-.12.05a8.21 8.21 0 0 1 -3.16.8z" fill="#fff"/><path d="m33.06 22.4a3.51 3.51 0 0 1 .57-2.4c.76-1 11.66-10.43 14.65-13s6-4.88 7.77-5.07a4.68 4.68 0 0 1 3.89 1.37 4.92 4.92 0 0 1 1 5c-.85 2.27-18.72 14.17-20 15.36a13 13 0 0 1 -1.7 1.47 53.39 53.39 0 0 1 4.76 4.24 4.83 4.83 0 0 1 -.43 3.93c-.85 1.43-9.29 11.29-19.2 18.07s-15.16 9-17.57 10.05-3.13.58-3.8.14.24-10.05.38-11.56 1.71-3.51 2.89-4.74 14.56-12.26 18.35-15.7 8.44-7.16 8.44-7.16z" fill="#604f58"/><path d="m34 23.59c.23 0 1.56 1.89 2.6 2.18s1.8-.05 2 .09 4.22 3.94 4.4 4.27.71 1.37-1.28 3.6a83.52 83.52 0 0 1 -18.62 16.92c-11 7.26-17.4 10.24-18.39 10.29s-1.38 0-1.33-1.47 1-9.81 1.9-11.28 9.15-8.44 16.83-15 11.89-9.6 11.89-9.6z" fill="#f9f2ed"/><path d="m36.23 21c.19-.41 10.24-9.77 14.42-13.09s5.54-3.88 7-3.27 2 2.52-.14 4.36-12 7.49-15.55 10.62-3.69 3.49-4.21 3.38-1.75-1.5-1.52-2z" fill="#84767e"/><path d="m49.08 10a2 2 0 0 1 2.56 1.52c0 .9-2.18 3.41-3.36 1.56s-.1-2.67.8-3.08z" fill="#604f58"/><path d="m49.27 11c.43-.19 1.42.24 1.33 1a.93.93 0 0 1 -1.52.48.88.88 0 0 1 .19-1.48z" fill="#f9f2ed"/><path d="m53 7.66c.31-.43 1.52-1.85 2.56-1.71s1.86 1.28 1.44 2.13a5 5 0 0 1 -2.75 2.09c-.71.05-2.18-1.28-1.25-2.51z" fill="#604f58"/><path d="m53.92 7.75c.33-.23.75-1 1.51-.71s.43 1.14.15 1.47-1 1.09-1.52.66a1 1 0 0 1 -.14-1.42z" fill="#f9f2ed"/><g fill="#604f58"><path d="m15.38 49.09a17.11 17.11 0 0 1 .19-5.5c.28-.33.61-.71.9-.24a18.45 18.45 0 0 1 -.47 5.65c-.29.28-.53.23-.62.09z"/><path d="m19.26 46.91c-.43 0 .15-6.73.43-7.16s1.23-.66 1.42-.28a39.25 39.25 0 0 1 -1.23 6.87c-.24.43-.47.57-.62.57z"/><path d="m23.15 45.06c-.28-.06.71-9 1-9.05s.76-.19.86.19-1.14 8-1.28 8.43-.34.48-.58.43z"/><path d="m26.94 37.9c0-.66.43-3.79.81-3.93s.95 0 1 .23a18.12 18.12 0 0 1 -1.09 3.47c-.2.23-.72.52-.72.23z"/></g></svg>