<svg height="64" viewBox="0 0 64 64" width="64" xmlns="http://www.w3.org/2000/svg"><path d="m2.32 64a2.64 2.64 0 0 1 -.62-.08 2 2 0 0 1 -1.37-1.52 7.28 7.28 0 0 1 -.21-2.34c.09-.6 1.74-5.66 3.06-7.46 1.14-1.56 7.61-9.12 12.43-14 4-4.06 8.7-8.32 10.19-9.66a8.77 8.77 0 0 1 2.2-3.86l4.29-4.21c5.39-5.28 14.4-14.12 16.24-16.06 2.79-2.94 5.47-4.46 8.47-4.81h.64a6.47 6.47 0 0 1 6.18 4.9c.46 2.09-.39 4.86-2.51 8.23-.9 1.42-4.2 4.07-11 9.35-3.44 2.67-7 5.43-8.55 6.9-1.86 1.77-3.46 3.1-4.6 4 2 1.68 2.7 2.93 2.54 4.2a10.62 10.62 0 0 1 -1.46 4.47c-1.08 1.73-10.1 9.32-16.16 13.33a69.74 69.74 0 0 1 -16.64 8 12.16 12.16 0 0 1 -3.12.62z" fill="#fff"/><path d="m27.56 29.94a6.66 6.66 0 0 1 1.82-3.49c1.62-1.57 17.95-17.55 20.56-20.31s4.92-3.93 7.23-4.14a4.52 4.52 0 0 1 4.72 3.35c.39 1.82-.84 4.52-2.26 6.78s-15.44 12.26-19.23 15.87-6.49 5.36-6.25 5.55 3.74 2.66 3.59 3.84a8.85 8.85 0 0 1 -1.18 3.69c-.73 1.18-9 8.41-15.58 12.73a67.56 67.56 0 0 1 -16.09 7.7 8.31 8.31 0 0 1 -2.65.54 10.87 10.87 0 0 1 -.24-1.72 32 32 0 0 1 2.71-6.59c1.08-1.47 7.47-9 12.24-13.81s10.61-9.99 10.61-9.99z" fill="#604f58"/><path d="m28.15 31.17c.41 0 2.81 3.2 3.5 3.35s1.47-.4 1.67-.25 3.19 3.44 3.24 4.13-4.18 6.44-14.56 13.08-15.73 8.17-16.76 8.52-2.07.93-2.12.59a30 30 0 0 1 2.88-6.4 177.5 177.5 0 0 1 13-14.76 102.47 102.47 0 0 1 9.15-8.26z" fill="#f9f2ed"/><g fill="#604f58"><path d="m16.75 45.48c.13-.27.68-.34.78.05s-.34 5.61-.69 5.9-.88.49-.83.15.59-5.8.74-6.1z"/><path d="m20.83 41.84c.1-.34.88-.59 1-.05a42.7 42.7 0 0 1 -1.43 6.79c-.19.15-.54.74-.63.1a65.83 65.83 0 0 1 1.06-6.84z"/><path d="m24.61 40a.64.64 0 0 1 1.18 0 49.88 49.88 0 0 1 -1.42 5.91c-.3.44-.3.73-.54.34s.54-5.83.78-6.25z"/></g><path d="m30.07 28.81c.33-.44 18.39-17.9 21.64-21.19s4.72-3.54 6.64-3.35 1.92 2.51 0 5.36-9 7.48-14.56 12-11 10-11.51 9.89a8.1 8.1 0 0 1 -2.21-2.71z" fill="#84767e"/><path d="m47 13.67c.35-.64 2.51-2.76 3.78-2.36s1.38 2.36.35 3.39a3.2 3.2 0 0 1 -3 1c-.5-.26-1.58-1.15-1.13-2.03z" fill="#604f58"/><path d="m48.46 13.22c.48-.59 1.63-1 2.07-.64s.15 1.33-.49 1.77-1 .59-1.43.3a1 1 0 0 1 -.15-1.43z" fill="#f9f2ed"/><path d="m52.64 8.5a4.76 4.76 0 0 1 3.36-2.26 1.51 1.51 0 0 1 1.47 2.11c-.24.74-2.06 1.73-2.9 2s-2.42-.57-1.93-1.85z" fill="#604f58"/><path d="m53.92 8.26c.5-.51 1.43-1.13 2-1a.8.8 0 0 1 .54 1.18 2.74 2.74 0 0 1 -1.77.89c-.69.01-1.06-.78-.77-1.07z" fill="#f9f2ed"/></svg>