<svg height="64" viewBox="0 0 64 64" width="64" xmlns="http://www.w3.org/2000/svg"><path d="m4.59 62.09a2.55 2.55 0 0 1 -1.83-.75c-.66-.66-4.38-7.06-1.94-10.66 1.49-2.19 6.09-6.56 11.43-11.63l3.36-3.21c5.86-5.6 13-11.73 14.13-12.71a53.12 53.12 0 0 1 6.11-6.64l4.62-4.07 8.29-7.32a12.8 12.8 0 0 1 8-3.19 7 7 0 0 1 1.24.09c2.74.52 5.07 3.42 5.67 7.05s.45 5.74-1.83 8.21a35.43 35.43 0 0 1 -5.41 4.31c-1.59 1.13-3.56 2.54-6.14 4.48-10.65 8-11.23 8.07-12 8.19l-.44.05c-.23 0-.64.06-.71.15a6.26 6.26 0 0 0 -.6.81 3.31 3.31 0 0 1 -1.44 1.4 2.35 2.35 0 0 1 -.94.18h-.33a4 4 0 0 0 -.12.41 2.8 2.8 0 0 1 -1.71 2.17 2.9 2.9 0 0 1 -.91.13h-.6-.24c-.12.31-.23.74-.32 1.08-.38 1.37-.8 2.93-2.38 3.25-.18 0-.39.06-.63.09-.74.08-.91.14-1.09.41a11.69 11.69 0 0 0 -.78 1.44 3.68 3.68 0 0 1 -.92 1.38 2.92 2.92 0 0 1 -1.44.6 1 1 0 0 0 -.77.36 2.87 2.87 0 0 0 -.5 1.15 3.06 3.06 0 0 1 -1.42 2.13 2.86 2.86 0 0 1 -1.27.28h-.4-.33c-.15 0-.23 0-.44.22a4.39 4.39 0 0 0 -.93 1.36 3.34 3.34 0 0 1 -1 1.34 3.54 3.54 0 0 1 -1.72.62 2.82 2.82 0 0 0 -.77.18c0 .05-.13.43-.19.66a3.13 3.13 0 0 1 -1.75 2.34 3.2 3.2 0 0 1 -1.15.18h-.56c-.42 0-.45 0-.53.16a6.86 6.86 0 0 0 -.65 1.12 3.08 3.08 0 0 1 -2.08 1.91l-.36.09a4.35 4.35 0 0 1 -1.28.2z" fill="#fff"/><path d="m31.16 24.47a51.8 51.8 0 0 1 6-6.52c3.07-2.73 10.29-9.12 12.84-11.39s5.92-3 7.64-2.63 3.61 2.36 4.12 5.46.41 4.67-1.35 6.57-4.41 3.42-11.25 8.56-10.5 7.73-11.1 7.82a3.36 3.36 0 0 0 -2.32.83c-.69.79-1 1.58-1.34 1.71s-1.43-.37-2 .65-.41 1.85-1 2-2-.46-2.68.65-.83 3.56-1.53 3.7-2.08 0-3 1.34-1 2.13-1.34 2.41-1.39 0-2.41 1.15-.83 2.59-1.39 2.87-1.62-.41-2.87.84-1.29 2.22-1.71 2.54-1.85.14-2.64.93-.69 2.36-1.29 2.59-2.18-.42-3.19 1-.88 2.08-1.62 2.26-1.25.47-1.62.1-3.35-5.68-1.69-8.13 8.15-8.43 14.58-14.54 14.16-12.77 14.16-12.77z" fill="#604f58"/><path d="m31.81 25.49c-.39.59 3.28 3.66 4 4.44s1.43 1 1.2 1.21-1.57.51-2.13 1.25-.55 1.34-1.15 1.52a6.09 6.09 0 0 0 -2.09.74c-.41.42-.69 1.58-1 1.81s-2.27-.33-3.1 1.11-1 3.33-1.43 3.47-1.95.18-2.73 1.16a21.33 21.33 0 0 0 -1.48 2.31 7.3 7.3 0 0 0 -2.78 1.67c-1 1.15-.88 2.17-1.2 2.45a15.51 15.51 0 0 0 -3 1.71c-1 .93-.93 1.57-1.34 1.76a9.69 9.69 0 0 0 -2.69.88c-.69.55-1.15 2.22-1.43 2.4s-1.67.19-2.5 1.07-1.25 2.45-1.62 2.41-.46.13-.65-.19-2.64-3.67-1.25-6.34 19.07-18.79 22.86-22.07 5.7-5.05 5.51-4.77z" fill="#f9f2ed"/><path d="m34.45 23.69c.2-.27 12.95-11.57 15.13-13.61s5-4.3 7.26-3.52 4.16 4.44 2.55 6.9-15.6 11.15-17.31 12.86-3 2.73-3.42 2.64-4.54-4.86-4.21-5.27z" fill="#84767e"/><path d="m47.59 15.08c.9-.86 3.84-.65 3.7 1.25s-3 2.5-3.7 1.62a2.13 2.13 0 0 1 0-2.87z" fill="#604f58"/><path d="m49.12 15.63c.81-.34 1.11.61.92 1.11s-1.11.88-1.48.42a1.06 1.06 0 0 1 .56-1.53z" fill="#f9f2ed"/><path d="m52.68 10.82c.29-1 2.45-2.27 3.89-1.25s.78 3.43-.47 4.07a2.93 2.93 0 0 1 -3-.09c-.7-.42-.56-2.27-.42-2.73z" fill="#604f58"/><path d="m54.76 10.36c.81-.32 2 .41 1.71 1.34s-1.75 1.53-2.36.88a1.49 1.49 0 0 1 .65-2.22z" fill="#f9f2ed"/><g fill="#604f58"><path d="m11.82 50.34a30.14 30.14 0 0 1 .88-5.34c.23-.14 1-.23 1.06-.05a41.88 41.88 0 0 1 -1.06 5.42 2.63 2.63 0 0 1 -.88-.03z"/><path d="m15.2 47.7s.13-4.25.46-4.49 1.11-.32 1.16 0a22.17 22.17 0 0 1 -1 4.39c-.21.06-.58.33-.62.1z"/><path d="m19.22 43c-.11-.15.79-4.63 1.2-4.67s.93-.24.93.18-1 4.3-1.3 4.4-.69.3-.83.09z"/></g></svg>