<svg height="64" viewBox="0 0 64 64" width="64" xmlns="http://www.w3.org/2000/svg"><path d="m25.87 64c-4.07 0-12 0-12.78-.17a7.44 7.44 0 0 1 -6-6.89c0-.48-.09-1.23-.17-2.19-1.39-17.41-1.58-25.5-.66-27.91 1.34-3.54 5.3-5.13 8.63-5.13a7.62 7.62 0 0 1 1.11.08 30.82 30.82 0 0 1 3.48.79l.07-.13a3.68 3.68 0 0 1 -.06-1.94c.33-1.31 7.18-13.85 8.05-15.37 1.66-2.92 3.35-4.91 6.16-5.14h.3c2.57 0 4.49 2.43 5.11 6.49.51 3.29-1.91 11.19-3.76 14.59a12.81 12.81 0 0 1 -5.72 5.12c.47.25 1 .55 1.57.88l.38.22c1.9-2.63 12.25-12.72 12.9-13.26a7.51 7.51 0 0 1 4.67-1.9 4 4 0 0 1 1.93.45c.72.39 4.2 2.67 1.64 9.36-1.95 5.08-7.83 9.8-10.67 11.59a13.44 13.44 0 0 1 -2.62 1.28c.25.28.52.6.81.94s.64.77.9 1.12a3.4 3.4 0 0 1 .86-.78c.09-.07 10.27-6.84 12.24-7h.24a3.79 3.79 0 0 1 2.9 1.33 4.78 4.78 0 0 1 .87 4.08c-.49 2.86-2.49 5.6-6.12 8.38a18.14 18.14 0 0 1 -5.93 3.18 22.58 22.58 0 0 1 1.91 7.8c.08 5.19-2.17 8.79-6 9.64-1.47.33-6.91.49-16.24.49z" fill="#fff"/><path d="m20.41 24.87 1.3-2.32a2.08 2.08 0 0 1 -.34-1.55c.2-.82 6.2-12 7.84-14.87s2.87-4 4.64-4.17 2.93 2.19 3.34 4.85-1.77 10.1-3.54 13.37a11.43 11.43 0 0 1 -5.65 4.62l-1 2.25s1.43.68 3.2 1.71a9.57 9.57 0 0 1 2.46 1.84l.75-.82a1.08 1.08 0 0 1 -.34-1.3c.34-.81 10.92-11.53 12.62-13s3.55-1.7 4.44-1.23 2.52 2.32.75 7-7.48 9.14-9.88 10.65a7.5 7.5 0 0 1 -3.88 1.43l-.89.89s1 1 2.52 2.79a15.49 15.49 0 0 1 2.06 2.99l1.57-.75a1.5 1.5 0 0 1 .68-1.51c.89-.61 10.17-6.54 11.26-6.61s2.39.75 2 3.14-2.19 4.7-5.39 7.16-5.73 3.14-6.21 2.93a1.83 1.83 0 0 1 -.72-.66l-.82.48s2.93 5.39 3 9.75-1.7 7.1-4.5 7.71-27.36.41-28.25.27a5.49 5.49 0 0 1 -4.43-5.11c-.28-3.82-2.25-25.86-1-29.27s5.8-4.09 7.64-3.82a40.53 40.53 0 0 1 4.77 1.16z" fill="#604f58"/><path d="m40 53.75c0-.18.41-.73.68-.73a21.15 21.15 0 0 1 3 3.15c0-.45 0-1 0-1.57a30.44 30.44 0 0 1 -2.8-2.71c0-.28.55-1.19.91-1a10.49 10.49 0 0 1 1.69 1.6 18.58 18.58 0 0 0 -1.33-4.83c-1.68-3.82-2.59-5.21-7.84-12s-10.95-7.2-14-8.46-7.54-.92-8.6.27c-.85 1-1.65 3.78-1.33 7.19s1.09 18.78 1.18 20.87.87 3.69 1.5 3.82a49.14 49.14 0 0 0 6 .19h12.61c-.5-.68-1.51-2.1-1.37-2.27a1 1 0 0 1 .91-.37 11.46 11.46 0 0 1 2.07 2.64h.94a11 11 0 0 1 -1.65-2.36 1.21 1.21 0 0 1 1.05-.37 10.61 10.61 0 0 1 2.11 2.72h1c-.64-.77-2.14-2.64-2-2.89s.63-.68.86-.59 2 2.63 2.59 3.46h.88a31.42 31.42 0 0 1 -2.33-3.68c0-.27.5-.45.82-.36a19.86 19.86 0 0 1 3 3.91 5.74 5.74 0 0 0 .91-.22 38.64 38.64 0 0 1 -3-3.83c.05-.22.46-.68.73-.63a34.63 34.63 0 0 1 3.34 4 2.15 2.15 0 0 0 .74-.79c-.72-1.03-3.27-4.01-3.27-4.16z" fill="#f39a9b"/><path d="m21.84 25.41s.82-2.25 1.16-2.25 3.76 1.09 3.62 1.5-.62 1.85-.89 1.85-3.89-.82-3.89-1.1z" fill="#ddeff2"/><path d="m33.24 31.21s.47-.68.75-.68a18 18 0 0 1 2.25 2.32s0 1.09-.55.89a16.93 16.93 0 0 1 -2.45-2.53z" fill="#ddeff2"/><path d="m34.46 28.42s10.65-11.19 12.22-12.22 3.61-1 3.89.75-.75 5.33-5 9.21a21 21 0 0 1 -7.3 4.71c-.75.41-1.3.48-1.5.34s-2.31-2.79-2.31-2.79z" fill="#84767e"/><path d="m22.32 21.66s6.62-13.17 8.26-15.66 2.72-3.1 3.68-3 2.32 2.18 1.84 5.46-2.25 9.54-3.89 11.77a10.38 10.38 0 0 1 -4.77 3.55c-.28-.07-4.78-1.91-5.12-2.12z" fill="#84767e"/><path d="m41.49 41s.89-.75 1.09-.61 1.57 2.45 1.3 2.59a14.11 14.11 0 0 1 -1.36.41z" fill="#ddeff2"/><path d="m43.47 38.51s10-6.2 10.78-6.27 1.57.95.75 2.86-3.34 4.16-5.53 5.73-3.68 2.17-4.09 1.85a15.28 15.28 0 0 1 -1.91-4.17z" fill="#84767e"/><path d="m50.29 35.31c.27-.3 2.19-1.71 2.94-1.3s.34 1.91-.07 2.53a2 2 0 0 1 -2.53.47c-1.09-.54-.88-1.09-.34-1.7z" fill="#604f58"/><path d="m51.69 35.55c.19-.11.58-.17.58.2s-.24.58-.65.48-.37-.45.07-.68z" fill="#ddeff2"/><path d="m44.56 19.92a5 5 0 0 1 2.32-1.64 1.35 1.35 0 0 1 1.47 1.4c-.07 1-1.3 2.46-2.22 2.36s-2.32-.69-1.57-2.12z" fill="#604f58"/><path d="m46.3 19.58c.4-.14.68.24.51.75a.61.61 0 0 1 -1 .34c-.46-.3.01-.92.49-1.09z" fill="#ddeff2"/><path d="m30.92 8.7c.19-.79 1.74-2.15 2.83-1.6s1.19 1.74.54 3.13-2.14 1-2.9.41a1.62 1.62 0 0 1 -.47-1.94z" fill="#604f58"/><path d="m32.69 8.46c.27-.15.72-.07.72.65s-.72.68-1.06.24-.03-.68.34-.89z" fill="#ddeff2"/><path d="m12.7 35.47a25.57 25.57 0 0 1 0-5.92 2.43 2.43 0 0 1 2.54-1.18c.87.14 1.55.59 1.64 1.05s.05.72-.09.77-2-.59-2.32 0a4.17 4.17 0 0 0 -.27 2c0 .41 0 2.91-.09 3.18s-1.23.37-1.41.1z" fill="#604f58"/></svg>