<svg height="64" viewBox="0 0 64 64" width="64" xmlns="http://www.w3.org/2000/svg"><path d="m8.14 64a3.72 3.72 0 0 1 -2.24-.76c-1.35-1-4.55-6.33-2.29-13.55 2.15-6.86 8.9-14.21 12.54-17.47a74.08 74.08 0 0 1 6.35-5 4.86 4.86 0 0 1 1.26-2.55c1.3-1.42 18.7-17.85 22.69-21 3.24-2.58 5.55-3.67 7.83-3.67a6.38 6.38 0 0 1 2.63.56c3.19 1.44 5.09 6.29 3.91 10.09s-6.1 7.38-12 11.49a134.13 134.13 0 0 0 -13.51 10.66c-.87.83-1.53 1.45-2 1.9a4.47 4.47 0 0 1 .12 2.52c-.37 1.58-1.85 2.33-4.08 3.47a36.41 36.41 0 0 0 -8.4 5.55c-5.94 5.37-8.8 9.44-9.28 10.87a6.64 6.64 0 0 0 -.08 2.33c.09 1.16.19 2.48-.76 3.43a3.74 3.74 0 0 1 -2.69 1.13z" fill="#fff"/><path d="m24.43 28.19a2.61 2.61 0 0 1 .76-2.26c1-1.14 18.49-17.65 22.45-20.76s6.36-3.78 8.5-2.83 3.77 4.71 2.86 7.73-5.6 6.51-11.26 10.48a136.27 136.27 0 0 0 -13.74 10.85 40.83 40.83 0 0 1 -3.21 2.92 2.4 2.4 0 0 1 .76 2.46c-.38 1.6-6 2.64-11.89 8s-9.19 9.74-9.86 11.72.29 4.34-.37 5a1.76 1.76 0 0 1 -2.36.19c-.76-.57-3.59-5.1-1.61-11.42s8.4-13.4 12-16.61a70.64 70.64 0 0 1 6.97-5.47z" fill="#604f58"/><path d="m24.9 29.42c.29.07 5.73 6.65 5.52 6.93s-8.07 5-13 8.92-8.16 8.73-8.58 10.83.14 4.39-.36 4.6-1.13-.78-1.55-1.91-2.06-5.45 1-11.33a45.45 45.45 0 0 1 10.53-13.16 57.33 57.33 0 0 1 6.44-4.88z" fill="#f9f2ed"/><path d="m26.81 27.51c.36-.36 14.79-14.87 19.25-18.62s6.37-5.16 8.42-4.74 3.05 3.61 2.2 5.66-8.68 6.51-16.21 13.19-9.41 8.63-10.33 8.56-3.33-4.05-3.33-4.05z" fill="#84767e"/><g fill="#604f58"><path d="m15 39.78c.08-.4.75-.48.8-.19a21.72 21.72 0 0 1 -.61 4.57c-.29.29-.62.81-.76.19a30 30 0 0 1 .57-4.57z"/><path d="m19.65 36.52c.07-.29 1-.66.94-.09a36 36 0 0 1 -1 4.62c-.18.28-.7.57-.66.05s.62-4.2.72-4.58z"/><path d="m22.72 34.26c.08-.26.75-.66.84-.33s-.47 4.1-.75 4.2-.42.42-.47 0a32.38 32.38 0 0 1 .38-3.87z"/><path d="m42 14.51c.65-1 3-1.65 3.73-.61s-.95 3-1.84 3.34a1.77 1.77 0 0 1 -1.89-2.73z"/></g><path d="m43.16 14.6c.29-.45 1.46-.56 1.65.1a1.33 1.33 0 0 1 -1 1.55c-.6.1-1.36-.56-.65-1.65z" fill="#f9f2ed"/><path d="m48.73 9.74a5.45 5.45 0 0 1 3.16-2.74 1.8 1.8 0 0 1 2.36 2.12c-.28 1.18-2.31 2.74-4.06 2.74a1.4 1.4 0 0 1 -1.46-2.12z" fill="#604f58"/><path d="m49.67 9.7c.44-.44 1.37-1.84 2.46-1.84s1.51.89 1 1.51a4.51 4.51 0 0 1 -2.65 1.51c-.81-.05-1.23-.76-.81-1.18z" fill="#f9f2ed"/></svg>