<svg height="64" viewBox="0 0 64 64" width="64" xmlns="http://www.w3.org/2000/svg"><path d="m14.92 64c-1.64 0-2.59-1-3.59-2-1.33-1.38-6-8.62-6.14-11.41-.13-2.06-.24-3.83 1.1-5.77 1.13-1.67 12.19-12.82 14.92-15.54 3.16-3.12 8.87-8.33 10.44-9.75a12.3 12.3 0 0 1 2-3.58c1.29-1.65 9.43-10.64 12.45-12.95 2.53-1.92 4.41-3 6.51-3a5.8 5.8 0 0 1 1.78.28 5.72 5.72 0 0 1 4.46 6.49c-.29 3.14-2.59 5.13-6.4 8.42l-2 1.74c-3.23 2.84-6.36 5.69-8.08 7.26 1.11 1.33 2.72 3.28 3.69 4.52 1.63 2.06 1.94 4 .95 5.81a79.62 79.62 0 0 1 -14.74 17.3c-7.66 6.73-13.37 11-15.66 11.86a5.27 5.27 0 0 1 -1.69.32z" fill="#fff"/><path d="m53.8 2.13c-2-.63-3.75.34-6.52 2.44s-10.69 10.77-12.13 12.58a9.6 9.6 0 0 0 -1.8 3.46s-7.16 6.48-10.78 10.05-13.76 13.89-14.69 15.24-.88 2.52-.75 4.54 4.33 8.88 5.55 10.15 1.73 1.81 3.32 1.26 6.28-3.85 15-11.49a78.32 78.32 0 0 0 14.3-16.75c.33-.63.8-1.73-.76-3.7s-4.84-5.91-4.84-5.91 4.59-4.25 9.47-8.54 7.49-6.1 7.74-8.88-1.13-3.82-3.11-4.45zm-42.56 46.55a1.36 1.36 0 0 1 .18-1.83 1 1 0 0 1 1.66.77c.21 1.03-1.45 1.82-1.84 1.06z" fill="#604f58"/><path d="m38.61 24.56a3.86 3.86 0 0 1 -2.28-.71 10.22 10.22 0 0 1 -2.44-2.11s-4.08 3.26-8.75 7.79-14.9 15-16 16.37a6.66 6.66 0 0 0 -1.22 4.29c0 1 5 9 5.43 9.64a2.05 2.05 0 0 0 2.15 1c1.05-.17 5.6-3.2 15.28-11.91s13.89-16.15 13.84-16.78-6.01-7.58-6.01-7.58zm-28 24.83c-.75-1.39-.61-2.39.3-3.32a1.9 1.9 0 0 1 3 1.39c.41 1.89-2.62 3.32-3.33 1.93z" fill="#f9f2ed"/><g fill="#604f58"><path d="m21 40.3c-.06-.41 1.1-.59 1.18-.25s.55 8.54.25 8.63-.46.29-.59 0-.84-8.08-.84-8.38z"/><path d="m24.34 36.26c.06-.29 1.13-.42 1.22-.21s.08 11.57-.09 11.62-.71-.47-.71-.47-.51-10.52-.42-10.94z"/><path d="m28.59 31.93c.07-.18.63-.38.8-.17s.25 11.7 0 11.74-.84-.13-.8-.63-.08-10.73 0-10.94z"/><path d="m32.25 32.18c.06-.24 1-.21 1 0a50.83 50.83 0 0 1 -.25 5.98c-.17 0-.38 0-.55-.47a41.11 41.11 0 0 1 -.2-5.51z"/></g><path d="m35.74 19.76c.21-.52 8.76-9.17 8.76-9.17s-.3 2.19 1.18 2.27a2.34 2.34 0 0 0 2.48-2.44c-.21-1.14-2.32-1.3-2.32-1.3a43.67 43.67 0 0 1 4.55-4.12c1.26-.75 2.78-.92 3.62 0s1.3 2.27-1.47 5-5.22 4.17-9.35 7.83-4.5 4.17-5 4.08a6.89 6.89 0 0 1 -2.45-2.15z" fill="#84767e"/><path d="m46 10.34c.57-.44 1.31.33 1.14 1a.84.84 0 0 1 -1.39.43c-.54-.47-.16-1.14.25-1.43z" fill="#f9f2ed"/><path d="m50.64 6.13a1.32 1.32 0 0 1 1.81 1.3c0 1.18-1.93 2.78-2.94 1.94s-.51-2.11 1.13-3.24z" fill="#604f58"/><path d="m50.94 7c.27-.11.63.51.59.8s-.85 1-1.22.72-.17-1.17.63-1.52z" fill="#f9f2ed"/></svg>