<svg height="64" viewBox="0 0 64 64" width="64" xmlns="http://www.w3.org/2000/svg"><path d="m21.74 64a23.14 23.14 0 0 1 -9.25-1.84c-8.12-3.52-9.38-16.36-9.26-18 .11-1.4 1.2-4.11 3.33-4.33h.26c1.54 0 23 1.48 29.66 1.94.86-3.62 3-12.41 4.76-19.21 2.3-8.56 6.83-19.29 7.92-20.5a7.4 7.4 0 0 1 4.36-2.06 2.28 2.28 0 0 1 1.69.67s5.57 7.27 5.57 8.88-2 3.18-3.54 3.18h-.32c-1.17-.15-1.74-1-2.87-2.74l-.56-.83c-1.42 3-3.82 9.93-4.84 12.87a133.81 133.81 0 0 0 -5.83 22.76 5.4 5.4 0 0 1 .42 2.69 2.89 2.89 0 0 1 -1.54 2 4.6 4.6 0 0 1 .4 1.79 2.53 2.53 0 0 1 -1 2.1 2.44 2.44 0 0 1 .3 2 3.06 3.06 0 0 1 -2 1.82 2.92 2.92 0 0 1 -1.08.21h-.38a15.26 15.26 0 0 1 -5.12 4.21 26 26 0 0 1 -11.08 2.39z" fill="#fff"/><path d="m38 43.91s-30.55-2.12-31.28-2-1.42 1.49-1.5 2.44 1 12.9 8.06 16 15 1.32 18.61-.51a15 15 0 0 0 5.35-4.84c.22-.08.66.65 1.39.36s1-.51.73-1-1-1.91-.58-2.13 1.32-.29 1.32-1a5.65 5.65 0 0 0 -.52-1.69c-.07-.36 0-1.53.3-1.53s1.31-.44 1.39-.88a3.19 3.19 0 0 0 -.44-1.84c-.29-.29 1.76-11.94 5.93-23.95s5.64-15.23 6.6-15.23 3.22 4.54 3.81 4.62 1.61-.74 1.61-1.18-4.62-7.1-5-7.47-2.5.59-3.15 1.32-5.13 10.92-7.48 19.71-5.15 20.8-5.15 20.8z" fill="#604f58"/><path d="m21.63 57.47c.15-.52.66-.74.88-.59a25.17 25.17 0 0 1 2.07 2.84 23.5 23.5 0 0 0 2.48-.46 17.37 17.37 0 0 1 -2.13-3c0-.44.73-.44 1.1-.44s1.69 2 2.42 3.09q.71-.23 1.41-.48a25.35 25.35 0 0 1 -2.36-3.27c-.08-.44.43-.44.87-.44s2 2.11 2.7 3.17a10.16 10.16 0 0 0 1.85-1.25 36.52 36.52 0 0 1 -3.08-3.68c0-.29.44-.66.73-.73s2.32 2.32 3.24 3.55a12.18 12.18 0 0 0 1.3-1.68 25.38 25.38 0 0 1 -2.41-3c0-.29.36-.81.73-.73a12.65 12.65 0 0 1 2.3 2.7 16.29 16.29 0 0 0 1-2.26c-.76-.68-2-1.82-2-2.13s.29-1 .58-1a8 8 0 0 1 1.88 1.54 10.59 10.59 0 0 0 .47-2.86c-.15-.29-29.94-2.46-30.11-2-.37.88.07 7.91 4.32 12.09 2.73 2.68 6.92 3.75 11.27 3.48-.62-.85-1.61-2.11-1.51-2.46z" fill="#ddeff2"/></svg>