<svg height="64" viewBox="0 0 64 64" width="64" xmlns="http://www.w3.org/2000/svg"><path d="m30.15 63.23c-6.7 0-12.56-2-17-5.74-9.9-8.49-14.26-18.42-12.91-29.49 1.38-11.36 8.64-20 21-25.14a27.76 27.76 0 0 1 10.65-2.09 33.3 33.3 0 0 1 18.3 5.81 29.43 29.43 0 0 1 13.74 23.42 30.83 30.83 0 0 1 -13.93 27.32 37.63 37.63 0 0 1 -19.85 5.91z" fill="#fff"/><path d="m22 4.63c7.61-3.14 17.55-2.77 27.12 3.57a27.42 27.42 0 0 1 12.88 21.93 29 29 0 0 1 -13 25.56c-10.45 6.73-25.5 8.05-34.55.31s-13.61-16.89-12.29-27.79 8.26-18.82 19.84-23.58z" fill="#604f58"/><path d="m50.44 46.9a7.07 7.07 0 0 1 1.9 2c5.78-6.32 6.6-13.64 6.16-19.72-.5-6.38-3.76-14.57-10.83-18.93s-16.74-6.25-25.36-2.71c-13.31 5.46-17.7 15.72-17.37 24.77s4.69 18.36 15.72 23.44a26.56 26.56 0 0 0 18.43 1.07c-.37-.64-.93-1.66-.8-1.93s.4-.52.73-.39a6.6 6.6 0 0 1 1.39 1.91c.52-.17 1-.36 1.56-.56a9.05 9.05 0 0 1 -1-1.81c0-.33.6-.66.93-.6a5.48 5.48 0 0 1 1.32 1.91l1.12-.53a8.86 8.86 0 0 1 -1.58-2.3c.06-.4.72-.8 1-.66a15.44 15.44 0 0 1 1.75 2.37c.47-.25.92-.51 1.37-.79a17.32 17.32 0 0 1 -1.54-2.24c-.06-.33.33-.93.86-.73a6.23 6.23 0 0 1 1.64 2.34c.53-.36 1-.72 1.53-1.1a14.17 14.17 0 0 1 -2-2.63.62.62 0 0 1 .73-.66 9.37 9.37 0 0 1 2.09 2.58c.41-.35.81-.7 1.18-1.07 0 0-1.59-1.65-1.59-2s.33-1.09.66-1.03z" fill="#f9f2ed"/><path d="m20.52 11.77c4.65-2.53 12.68-3.64 19.16-1.65a22.37 22.37 0 0 1 12.68 9.51c2.31 3.63 5.64 11.75 1.12 20.07s-10.57 12-19.81 12.95-16.78-2.51-21-8.06-5.75-14.26-3.57-20.54 7.66-10.24 11.42-12.28z" fill="#604f58"/><g fill="#f6c687"><path d="m19.18 15.36c-.3-.74.22-2.95 5.81-4.41s8.77-.79 9.43-.31a2.9 2.9 0 0 1 .92 2.25c0 .66-3.79 15.19-4.4 15.41s-.66.18-.84.35-.22.35-.4.22-9.2-10.34-10.52-13.51z"/><path d="m32.57 28.12c.11-.34 4-15.54 4.31-16a2.87 2.87 0 0 1 3.35-.84 18.74 18.74 0 0 1 6.16 3.44c1.59 1.36 2.42 2.37 1.46 3.43s-9.12 6.6-11.63 8.5-2.86 2.07-2.86 2.07-.84-.46-.79-.6z"/><path d="m34.33 29.62c0-.16 13.16-8.85 14.35-9.6s1.76-1.1 2.16-.88 3.21 6.43 3.35 7.44-.44 2.78-1.41 3-8.68.31-12.33.4-6.08-.05-6.12-.36z"/><path d="m34.06 31.51c-.16-.31.18-.7.31-.74s11.32.13 14 .08 4.09-.08 4.93 1.63 1 2.69-.13 5.55-3.26 5.64-4.32 6.3-1.27.75-1.8.44-5.51-6.56-8.37-9.25-4.53-3.83-4.62-4.01z"/><path d="m32.08 33.1c.1-.3.27 0 .75-.18s.66-.44.84-.39a44.93 44.93 0 0 1 7.48 7.35c3.52 4.32 4.54 4.89 4.63 5.68s-.09 1.1-.4 1.32-3.08 1.72-4.8 2.51-2.73 1.15-3.3 1-1.19-.57-1.72-1.76-3-12-3.26-13.12a8.58 8.58 0 0 1 -.22-2.41z"/><path d="m31.16 35.39c.26 0 1.14 4.62 2 8.72s1.59 5.55 1.46 6.12-.62.79-1.32.88a45.13 45.13 0 0 1 -5.68-.71c-1.68-.26-2.47-.13-2.56-.44s-.26-.17.22-1.85 4-8.63 4.71-10.3.9-2.46 1.17-2.42z"/><path d="m15 43.27c-.1-.6 4.58-4.31 7.48-6.3s6.17-4 6.7-4 .7.09 1.05.09.71.13.71.39-3.13 6.74-4.8 10.39-2.29 4.93-2.73 5.2-1.41.26-3.26-1.04-4.84-2.92-5.15-4.73z"/><path d="m14 41.51c-.44 0-1.54.18-2-.22s-3.26-6.56-2.78-7.71 1.41-2.11 4.28-2.29 14.57-.22 14.88 0 .53.49.31.71-5.69 3.39-8.76 5.59-5.37 3.96-5.93 3.92z"/><path d="m13.85 30.37c-.83 0-3.47.4-4 0s-.61-2.2-.39-3.52a17.24 17.24 0 0 1 3.21-6.78c2.2-3.08 3.7-4.27 4.76-3.52s10.38 11.79 10.82 12.37.75.66.57.92a.84.84 0 0 1 -.57.31s-10.35.04-14.4.22z"/></g><path d="m13.33 26.3c.57-.15 3-.47 3.46-.07a1.24 1.24 0 0 1 .1 1.69c-.43.36-3.37.16-4.13 0s-.99-1.23.57-1.62z" fill="#604f58"/><path d="m13.62 26.89c0-.4 2.41-.3 2.64-.13s.33.4-.09.53-2.55 0-2.55-.4z" fill="#fcdfc8"/><path d="m18.05 22.07a3.31 3.31 0 0 1 2.61 1.45 1.51 1.51 0 0 1 -.6 1.95c-.39.2-.89.3-1 .07s-.37-.53-.17-.7.89-.66.53-1.09-1.09-.49-1.32-.72-.35-.83-.05-.96z" fill="#604f58"/><path d="m23.33 16.82c-.2-.4.3-.53.63-.4s.73 1.16 1.12.8.13-1-.1-1.26-.39-.33-.16-.69.72-.23 1 .43.76 1.81-.1 2.34-1.72.07-2.39-1.22z" fill="#604f58"/><path d="m28.91 17.48c.16-.46.23-1.12.66-1a3.46 3.46 0 0 1 1.69 2.11 1.51 1.51 0 0 1 -1.32 1.95c-1.06.14-1.66-1.18-1.03-3.06z" fill="#604f58"/><path d="m29.9 18.17c.23 0 .53.43.47.9s-.3.66-.63.49-.27-1.32.16-1.39z" fill="#fcdfc8"/><path d="m36.44 21.64c.12-.19 2.08-1.55 2.51-1.42s.46.46.17.89-1.12 1.95-1.92 1.89a.91.91 0 0 1 -.76-1.36z" fill="#604f58"/><path d="m38.06 17.35c0-.23 1.32-2.41 1.78-2.45s0 2.78-.36 3-1.35.27-1.42-.55z" fill="#604f58"/><path d="m41.3 17.84c.07-.22.76-1.22 1.61-1.15s1.59.69 1.42 1-.19.53-.62.53-.57-.33-.9 0-.49.66-.82.69-.83-.67-.69-1.07z" fill="#604f58"/><path d="m43.77 25.27c.34-.18 1.79-1.48 3.07-1.55s1.82.46 1.69 1.06a1.64 1.64 0 0 1 -1.22 1.45 9.15 9.15 0 0 1 -3.11.07c-.49-.23-.86-.8-.43-1.03z" fill="#604f58"/><path d="m45.42 25.08a3.57 3.57 0 0 1 1.72-.4c.23.13.3.66 0 .76a5.19 5.19 0 0 1 -1.55.13c-.13-.07-.46-.3-.17-.49z" fill="#fcdfc8"/><path d="m49.58 26.2c.26-.3 1.56-.37 1.72.3s-.13 1.15-1.12 1.15-.99-.99-.6-1.45z" fill="#604f58"/><path d="m40.73 32.24c.3-.35 1.75-.26 2.81.23s1.85 1.62 1.72 1.92-.17.46-.63.26-.73-.76-1.22-.86-.79-.16-.63 0 .73.49.53.69-.2.3-.66.23-2.77-1.48-1.92-2.47z" fill="#604f58"/><path d="m48.07 34c.29-.34 2.08-.06 2.77.66s.79 1.79.1 2.15a2.3 2.3 0 0 1 -2-.06c-.58-.25-1.94-1.54-.87-2.75z" fill="#604f58"/><path d="m49 34.78c.25-.22 1.72.7 1.52 1.06s-.5.46-1 .2-.89-.93-.52-1.26z" fill="#fcdfc8"/><path d="m43.34 37.62c.6-.38 2.35.3 2.81.76s.59 1.42.07 1.72a1.69 1.69 0 0 1 -2-.1c-.84-.59-1.44-2-.88-2.38z" fill="#604f58"/><path d="m44.4 38.35c0-.36 1.29.33 1.25.79s-.23.5-.69.3a1.09 1.09 0 0 1 -.56-1.09z" fill="#fcdfc8"/><path d="m34.92 38.09a1.48 1.48 0 0 1 1.22-.43c.27.13 1.82 1.48 1.36 2.74s-1 1-1.26.89-1.71-2.41-1.32-3.2z" fill="#604f58"/><path d="m36.18 38.81c.3-.09.79.66.66 1.06s0 .59-.43.26-.56-1.22-.23-1.32z" fill="#fcdfc8"/><path d="m39.55 43.3a4.65 4.65 0 0 1 2.6 1.42c.43.7-.26 1.52-.72 1.69s-.83.06-1.52-.73-.86-2.21-.36-2.38z" fill="#604f58"/><path d="m40.57 44.36c.26-.26 1 .53.89.83a.45.45 0 0 1 -.76.19.87.87 0 0 1 -.13-1.02z" fill="#fcdfc8"/><path d="m29.08 44.16c.06-.27.53-.69.82-.43s1.85 1.46 1.85 2.41-.79 1.79-1.48 1.69-1.66-1.59-1.19-3.67z" fill="#604f58"/><path d="m30.1 45.15c.21-.16.89.56.93 1.06a.58.58 0 0 1 -.86.56 1.6 1.6 0 0 1 -.07-1.62z" fill="#fcdfc8"/><path d="m20 41.72c.26-.39 2.64-2.68 3.17-2.38s.17 2.11-.2 2.61a2.47 2.47 0 0 1 -2.17.83c-.8-.2-1.17-.57-.8-1.06z" fill="#604f58"/><path d="m20.92 41.49c.09-.34 1.32-1 1.49-.83s-.33.93-.7 1.12-.89.1-.79-.29z" fill="#fcdfc8"/><path d="m14.38 34.22c.36-.26 3.4-1.62 4.26-1.19s-2.18 2.41-3 2.55-2.12-.73-1.26-1.36z" fill="#604f58"/></svg>