<svg height="64" viewBox="0 0 64 64" width="64" xmlns="http://www.w3.org/2000/svg"><path d="m19.6 64c-3.48-.11-5-3-5.75-5.21-.64-1.73-3.85-12.89-6.91-23.67-2.23-7.8-4.33-15.12-4.73-16.32-1.55-4.57.89-6.57 2.49-7.35 2.83-1.38 29.61-9.34 33.66-10.4a28.91 28.91 0 0 1 7.1-1 6.7 6.7 0 0 1 3.94.84 2.16 2.16 0 0 0 .3.18c1.55.91 3 2.16 4.32 7.47.93 3.83 8.07 34.78 8.25 38.33.22 4.37-2.34 6.05-4.87 7.12a33.15 33.15 0 0 1 -5.52 1.38c-3.21.64-7.61 1.53-13.53 3.21-4.76 1.36-8.66 2.61-11.51 3.52-4.2 1.35-6 1.9-7.12 1.9z" fill="#fff"/><path d="m4.05 18.17c-.48-1.42-1-3.73 1.5-5s28.59-9 33.31-10.27 8.4-1.19 9.39-.47 2.49.73 3.89 6.54 8 34.86 8.19 38-1.33 4.25-3.68 5.23-8.25 1.51-18.83 4.52-16.55 5.39-18.16 5.34-2.9-1-4-3.94-10.66-37.2-11.61-39.95z" fill="#604f58"/><path d="m6.54 15.68c.23-.61 16.29-5.29 23.08-7.42a133.42 133.42 0 0 1 16.24-3.83c1.51-.21 2.7.31 3.94 3.89s7.73 34.6 8 37.55-.57 3.43-1.19 3.74-10.38 2.28-19.3 4.88-16.31 4.82-17.31 4.98-1.4-.52-2.23-2.6-6.87-24.22-8.69-30.71-2.7-10.06-2.54-10.48z" fill="#ddeff2"/><path d="m12.35 18.64c.06-.56 5-2.44 5.65-2s2.65 6.69 2.49 7.05-5.6 2.7-6.27 2.08-1.92-6.66-1.87-7.13z" fill="#604f58"/><path d="m13.75 19.26c0-.29 3.27-1.45 3.68-1s2 4.47 1.66 4.78-3.58 1.45-4 1.19-1.34-4.71-1.34-4.97z" fill="#adceea"/><path d="m21.38 15.84c.17-.53 23.08-7.32 23.5-6.9s2.43 6.48 2.12 6.85-23.19 7.26-23.55 7.05-2.18-6.69-2.07-7z" fill="#604f58"/><path d="m23.19 16.82c.21-.2 20.8-6.43 21.11-6.27a16.38 16.38 0 0 1 1.51 4.25c-.1.21-20.91 6.85-21.27 6.54a16.69 16.69 0 0 1 -1.35-4.52z" fill="#adceea"/><path d="m15.2 29.17a27.74 27.74 0 0 1 6.12-2.08c.42.16 2.23 6.23 2.13 6.65s-5.45 2.43-5.91 2.17-2.49-6.32-2.34-6.74z" fill="#604f58"/><path d="m16.76 29.84c.15-.15 3.63-1.4 3.84-1.19a19.32 19.32 0 0 1 1.4 4.26 14.06 14.06 0 0 1 -3.74 1.29 33.23 33.23 0 0 1 -1.5-4.36z" fill="#adceea"/><path d="m24.7 26.42c.25-.15 22.61-7 22.92-6.74s2.18 5.39 1.82 5.75-22.83 7.89-23.08 7.68-2.03-6.48-1.66-6.69z" fill="#604f58"/><path d="m26.3 27.56c0-.26 20.49-6.48 20.86-6.22s1 3.26 1 3.26-20.55 6.9-20.81 6.7a19.24 19.24 0 0 1 -1.05-3.74z" fill="#adceea"/><path d="m18.37 39.23c0-.44 5.6-2.17 5.86-1.86a40 40 0 0 1 1.77 6.38c-.15.15-5.19 2-5.6 1.81s-2.03-6.17-2.03-6.33z" fill="#604f58"/><path d="m19.82 40.06c.08-.28 3.68-1.14 3.68-1.14a38.68 38.68 0 0 1 1.09 3.79 9.27 9.27 0 0 1 -3.47 1.29 15.48 15.48 0 0 1 -1.3-3.94z" fill="#adceea"/><path d="m27.55 36.28c.38-.67 21.73-7 22.15-6.75s2 5.4 2 5.71-21.58 7.21-22 6.95-2.36-5.55-2.15-5.91z" fill="#604f58"/><path d="m29.26 37.06c.16-.11 19.3-6.33 19.66-6a10.68 10.68 0 0 1 .94 3.42c-.06.31-18.89 6.43-19.3 6.12s-1.3-3.54-1.3-3.54z" fill="#adceea"/><path d="m20.65 48.83c.2-.32 5.81-2.39 6.28-2.23s2.07 6.07 2 6.28a44.65 44.65 0 0 1 -6.07 2.33c-.4 0-2.47-5.96-2.21-6.38z" fill="#604f58"/><path d="m22.41 49.76a24.15 24.15 0 0 1 3.95-1.29 26 26 0 0 1 1.14 3.68 11.35 11.35 0 0 1 -3.89 1.45c-.26-.15-1.46-3.68-1.2-3.84z" fill="#adceea"/><path d="m30.3 46c.47-.56 21.42-6.38 21.79-6.17s1.4 4.61 1.4 5-21 7.62-21.53 7-1.96-5.49-1.66-5.83z" fill="#604f58"/><path d="m31.75 47c.26-.32 19.4-5.61 19.66-5.35a12 12 0 0 1 .73 2.39s-18.94 6.71-19.35 6.24a14.81 14.81 0 0 1 -1.04-3.28z" fill="#adceea"/></svg>