<svg height="64" viewBox="0 0 64 64" width="64" xmlns="http://www.w3.org/2000/svg"><path d="m9.43 64a6.52 6.52 0 0 1 -4-1.72c-1.43-1.19-2.8-4.94-.86-7.28.91-1.06 16.26-20.23 20.43-25.43a12.15 12.15 0 0 1 -2.33-7 35.41 35.41 0 0 1 .23-6.25c-1.35-1.86-1.1-2.77-1-3.18s3.64-7.31 5.62-7.81a3.62 3.62 0 0 1 .82-.09 3.91 3.91 0 0 1 .49 0 18 18 0 0 1 10.82-5.13c.76-.11 1.52-.11 2.26-.11a20 20 0 0 1 13.45 5.3c3.43 2.89 5.21 7.83 5 13.91a12.46 12.46 0 0 1 -3.29 8.06 10.13 10.13 0 0 1 0 1.93c-.24 1.43-5 6.14-6.44 6.38a2.09 2.09 0 0 1 -.45 0 8.4 8.4 0 0 1 -2.38-.52 25.43 25.43 0 0 1 -6.91 1h-.56c-2.46-.06-4.15-.21-5.17-.33-10.16 12.36-22.16 26.82-23.57 27.67a4.09 4.09 0 0 1 -2.16.6z" fill="#fff"/><path d="m27.53 29.5s-2.78-2.17-2.94-7a26 26 0 0 1 .41-6.7s-1.34-1.6-1.18-2.17 3.55-6.28 4.18-6.43a3 3 0 0 1 1.5.2 15.9 15.9 0 0 1 10.34-5.4c6.7-.66 11 2 14.27 4.74s4.48 7.57 4.32 12.37a10.3 10.3 0 0 1 -3.34 7.36 16 16 0 0 1 0 2.37c-.11.62-4.23 4.69-4.84 4.79a8.6 8.6 0 0 1 -2.48-.62 22.54 22.54 0 0 1 -7.47 1.08 40.88 40.88 0 0 1 -6-.46s-22.3 27.24-23.72 28.11-3.14-.26-3.91-.93-1.67-3.24-.62-4.53 21.48-26.78 21.48-26.78z" fill="#604f58"/><path d="m40.82 18.32c-5-4.22-12.57-4.53-12.57-4.53l-.62 1c-.26.41-.56 1.59-.67 6.07s1.86 6.49 1.86 6.49a35.75 35.75 0 0 1 2.68-3.19 4.8 4.8 0 0 1 4.27.67c1.55 1.19 2.73 2.63 2.58 3.25a28.38 28.38 0 0 1 -2.22 3.45 46.18 46.18 0 0 0 5.93.51c-.44-1.07-1.23-3-1.19-3.09s.57-.72 1-.51a11.83 11.83 0 0 1 1.45 3.56h.54.68a28.22 28.22 0 0 1 -1.46-3.93c.11-.31.93-.57 1.19-.31a22.69 22.69 0 0 1 1.42 4.12c.36-.06.69-.12 1-.19a24 24 0 0 1 -1.13-4 1.14 1.14 0 0 1 1.13-.21 23.11 23.11 0 0 1 1.22 3.82 4.62 4.62 0 0 0 1.77-1c.15-.24-3.87-7.76-8.86-11.98z" fill="#da8cbb"/><path d="m52.92 19.4a9.25 9.25 0 0 0 -1.34-1.65c.16-.3.72-.67 1-.46a32.28 32.28 0 0 1 2.78 4.65 12.29 12.29 0 0 0 .68-1.9 11 11 0 0 0 -1.55-2.54c-1.24-1.5-1.7-1.7-1.7-1.7s.41-1 .72-1 1.19.92 1.75 1.8c.35.53.8 1.23 1.12 1.75.37-3.13-.5-7.1-5.29-10.71-9.86-7.5-19.09-.19-19.23.02a31.69 31.69 0 0 1 12.31 5.2c5.4 4.07 10 11.18 10 11.18a10 10 0 0 0 .72-1.15c-.42-.82-1.49-2.73-1.97-3.49z" fill="#da8cbb"/><path d="m7 58c.27-.31 1.8 0 2.52.57s.83 1.75.42 2.06-1.4 0-2-.52-1.22-1.77-.94-2.11z" fill="#a8a1a7"/><path d="m8 55.92s23.75-29.92 24.58-30.44 2.11-.15 3.09.82a3.18 3.18 0 0 1 1 2.58c-.16.26-25 30.13-25.19 30s-.62-1.7-1.65-2.16-1.83-.8-1.83-.8z" fill="#f9f2ed"/><path d="m29.54 20a6 6 0 0 1 .46-3.28c.72-1.39 1-1.54 1.34-1.49s.67.26.62.52-1 1.18-1.14 2a11.14 11.14 0 0 0 0 1.76c-.1.41-1.18.61-1.28.49z" fill="#604f58"/><path d="m25.73 12.6c-.16 0 2.26-4 2.73-4.12s9.47.83 15.09 5.46 9 9.07 9.94 11.69.46 3.35.36 3.51-2.58 2.42-2.58 2.42a26 26 0 0 0 -9.22-13.81c-7.41-5.56-14.11-4.99-16.32-5.15z" fill="#cc6ba7"/><path d="m37.52 7.45a7.44 7.44 0 0 1 3.25-1.23c1.39-.11 1.54.25 1.49.46s0 .67-.36.77a5.08 5.08 0 0 0 -2.21.26c-1.14.52-1.19.72-1.7.57s-.83-.52-.47-.83z" fill="#604f58"/></svg>