<svg height="64" viewBox="0 0 64 64" width="64" xmlns="http://www.w3.org/2000/svg"><path d="m64 11.45c-.29-1.66-2.22-2.81-3.77-2.81a2.61 2.61 0 0 0 -1.85.72c-.85.85-3.84 9.36-5.16 13.21a24.87 24.87 0 0 0 -15.1-12.86 18.45 18.45 0 0 0 -5.12-.71c-4.26 0-8.88 1.34-13.75 4a18.14 18.14 0 0 0 -6.77 6.91 38 38 0 0 0 -.2-6.57c-.61-1.34-2.28-1.48-2.85-1.48a2.52 2.52 0 0 0 -1.4.38 3.08 3.08 0 0 0 -1.54-.34 3.5 3.5 0 0 0 -1.95.45 2.24 2.24 0 0 0 -1.54-.59 4.55 4.55 0 0 0 -1.48.31 1.86 1.86 0 0 0 -.78.55c-1.08 1.25-.66 10.84-.65 10.93.12 1.31 1.15 2.57 3 4.41-.1 1.58-.34 5.29-.58 8.91-.53 8.05-.85 13-.85 13.55.03 1.72 1.34 3.58 4.1 3.58 1 0 3.33 0 3.86-2.64.11-.55.13-5.49.07-14.69a22.73 22.73 0 0 0 12.39 16.65 22.23 22.23 0 0 0 9.52 2c6.5 0 12.72-2.46 16.64-6.57a24.4 24.4 0 0 0 6.76-12.31c0 2.86-.08 5.9-.11 8.14-.05 3.5-.07 5.2-.06 5.55.07 2.12 1.38 4.38 3.66 4.38a3.17 3.17 0 0 0 .53 0h.23c1.22-.19 3.07-.48 3.54-2.75.21-1.28 1.37-39.26 1.21-40.31z" fill="#fff"/><path d="m2.2 13.88s.91-.35 1-.07.41 6.85.41 6.85a9.06 9.06 0 0 0 1.86.21c0-.14-.11-6.64 0-6.85a2.12 2.12 0 0 1 1.62-.02c.07.17.07 6.85.21 6.92a10.14 10.14 0 0 0 1.64-.25s0-6.46.1-6.71 1.33-.07 1.44.18.1 8.94 0 9.71a8.05 8.05 0 0 1 -1.61 2.62 3.12 3.12 0 0 1 -1.15.94s.17 22.69 0 23.59-.6 1.08-2 1.08-2.13-.63-2.13-1.64 1.5-23 1.47-23.2-3-2.65-3.08-3.84a91.32 91.32 0 0 1 .22-9.52z" fill="#604f58"/><path d="m3.52 21.7c0-.21 1 .21 2.52.32s2.76-.18 2.79 0a7.16 7.16 0 0 1 -1.08 2.83c-.63.81-1.29 1.26-2.3.74s-1.96-2.87-1.93-3.89z" fill="#ddeff2"/><path d="m6.49 28.41c.18-.17.46-.1.46.14s0 21.87-.18 22a2.71 2.71 0 0 1 -1.43 0c-.38-.1-.52 0-.59-.73s1.01-16.03 1.25-18.34.35-2.93.49-3.07z" fill="#ddeff2"/><path d="m20.15 14.68c2.88-1.56 10.2-5.2 17.43-3.11s13.84 8.7 15.34 16.14-.49 13.87-6.08 19.74-16.28 7.75-23.93 4.12-11.32-11.32-11.74-18.65 3.57-15.3 8.98-18.24z" fill="#604f58"/><path d="m26 14.93c2.25-1 9.61-2.52 14.67.8s9.54 8.7 9.89 15.51a18.6 18.6 0 0 1 -9.92 17.15 18.15 18.15 0 0 1 -19.32-1.78c-5-3.88-7.44-9.82-6.71-16.91s5.19-12.05 11.39-14.77z" fill="#fcdfc8"/><path d="m22.42 21.81s-1.12-3.53 3.11-4.4 4.33 2.48 4.19 3.39a1.91 1.91 0 0 1 -.56 1.2 3.44 3.44 0 0 1 2.24 3.9c-.38 3.07-3.91 3-4.89 2.82a1.84 1.84 0 0 1 -1.33-.9 3.72 3.72 0 0 1 -4.71 1.29c-3-1.36-2.83-4.16-1.61-5.66a4 4 0 0 1 3.56-1.64z" fill="#604f58"/><path d="m21.55 23.1a3 3 0 0 1 3.39 1.36 3.18 3.18 0 0 1 -1.5 3.78c-1.37.55-3.64.28-4.13-1.37s0-3.04 2.24-3.77z" fill="#f6c687"/><path d="m23.26 21.28c-.49-.13-.17-2.44 2.73-2.83a2.14 2.14 0 0 1 2.62 2.73c-.25.42-.88.49-1.58.8a7.45 7.45 0 0 0 -1.67.84c-.28.28-1.23-1.29-2.1-1.54z" fill="#f6c687"/><path d="m26.3 23.73a4.22 4.22 0 0 1 1.43-.66 2.06 2.06 0 0 1 2.45 1.85 2.28 2.28 0 0 1 -2.27 2.79c-1.33.14-1.68-.35-1.85-.66s.94-2.17.24-3.32z" fill="#f6c687"/><path d="m30.88 20c0-.91.87-2.2 3-2.06a2.07 2.07 0 0 1 1.71 3.21 2.54 2.54 0 0 1 -3 1 2.29 2.29 0 0 1 -1.71-2.15z" fill="#604f58"/><path d="m32.38 19.15a1.63 1.63 0 0 1 2.41.67c.28 1.05-.6 1.46-1.68 1.39a1.19 1.19 0 0 1 -.73-2.06z" fill="#f6c687"/><path d="m35.38 26.31a4.27 4.27 0 0 1 1.47-3.31c1.64-1.54 2.51-2 3.18-1.82s.49 0 .49.53a4 4 0 0 0 .48 2.68c.69.91.62.46.83.46s2.14-.32 2.69-.39 1.23-.7 1.61-.7a3.13 3.13 0 0 1 1.78 2.9 3.71 3.71 0 0 1 -1.15 2.83 2.77 2.77 0 0 1 -.7.46s3 .87 2.27 2.72-1 1.82-1 1.82 1.29 2.3-.39 3.25a2.09 2.09 0 0 1 -2.69-.25s-1 2.17-2.51 1.23a3.83 3.83 0 0 1 -1.82-2.55c0-.21-.14-1.54-.14-1.54s-2.34.35-3-.7a4.54 4.54 0 0 1 -.55-2.55s-3.6.87-4.37-1.85 1.81-3.6 3.52-3.22z" fill="#604f58"/><g fill="#c5dda3"><path d="m34.72 27.26c.67-.06 2.06 1.5 2.09 2s.11.77-.24.84a5.67 5.67 0 0 1 -3.25-.38c-.91-.61-.77-2.29 1.4-2.46z"/><path d="m37.83 28.72a5.85 5.85 0 0 0 -1.12-1.39c-.52-.39-1.19-1-.18-2.24a17 17 0 0 1 2.17-2.2c.45-.38.84-.91.87-.52s0 2.06.49 2.55.56.66.49.87-.87.59-1.6 1.33a5.78 5.78 0 0 0 -1.12 1.6z"/><path d="m38.84 29.67a11.49 11.49 0 0 1 2.38-3.46 5.06 5.06 0 0 1 3-.84c.46-.07 1.51-.31 1.51-.17a9.36 9.36 0 0 1 -1.68 1.95c-.66.56-.87.7-.8.91a1.11 1.11 0 0 0 .59.49 13.89 13.89 0 0 0 1.71-1.43c.74-.67.91-1.15 1-1.15a2.48 2.48 0 0 1 -.25 2.37 3 3 0 0 1 -1.75 1.33c-.35.1-1.85 0-3.49.1a6.77 6.77 0 0 1 -2.22-.1z"/><path d="m37.27 32a3.87 3.87 0 0 1 2.62-1.18 14.19 14.19 0 0 1 4.19-.18c.07.18-.49.66 0 .8s2.06 0 2.68.35a1.18 1.18 0 0 1 .24 1.83c-.49.38-1.71.41-1.64.76a1.17 1.17 0 0 0 .66.84c.32.11.91.77.67 1.29s-.67 1-1.4.53-1.05-1.54-1.5-1.57-.6.14-.6.63.28 1.39-.56 1.6-1.67-1.15-1.81-1.6.45-1.72-.32-2.31-2.51-.28-2.93-.49-.41-1.08-.3-1.3z"/></g><path d="m23.19 31.48c1.71-.31 4 .28 6.74 1.26s7.37 4.09 8.42 6a6.21 6.21 0 0 1 -.94 7c-2 2.17-3.6 2.94-5.49 2.59a9.34 9.34 0 0 1 -4.15-1.33 14.13 14.13 0 0 0 -4-2.27c-2.31-.84-4.58-3-4.93-5.07s.16-7.41 4.35-8.18z" fill="#604f58"/><path d="m23.19 32.57c.94-.2 4.79-.35 9.15 2.51s6 4.68 5.52 7.48a5.46 5.46 0 0 1 -6.22 4.44c-2.79-.62-4.4-2.72-6.25-3.28s-4.33-1.22-5.17-3.49-.35-6.96 2.97-7.66z" fill="#f39a9b"/><path d="m24.45 35.82c.61-.2 3.14.31 3.46 1.78s-1.3 2.4-2.91 1.92-2.61-3.04-.55-3.7z" fill="#604f58"/><path d="m24.87 36.79c.64-.16.38.56 1.08.74s1.05.14.87.49-.17.84-1.15.59-2.41-1.4-.8-1.82z" fill="#fcdfc8"/><path d="m54.45 24.88c.18-.73 4.79-13.66 5.28-14.14s2.2.24 2.34 1-1 38.5-1.22 39.51-.84 1.05-2.17 1.26-1.92-1.43-2-2.48.38-21.94.14-22.15-1.82-.63-2.14-1a3.09 3.09 0 0 1 -.23-2z" fill="#604f58"/><path d="m55.92 24.81c.3-.69 4.09-12.22 4.33-12.36s.6-.25.63.14-1 38.56-1.19 38.7a2.55 2.55 0 0 1 -1.6-.07c-.53-.21 0-24.1-.21-24.49s-1.57-.45-1.88-.73-.18-.94-.08-1.19z" fill="#ddeff2"/></svg>