<svg height="64" viewBox="0 0 64 64" width="64" xmlns="http://www.w3.org/2000/svg"><path d="m45 64a14 14 0 0 1 -7.54-2.2 20.32 20.32 0 0 1 -7.66-9.15 14.64 14.64 0 0 1 -6.42 1.52 14.38 14.38 0 0 1 -5-.93c-7.26-2.71-8.28-9-7.81-11.91a8.48 8.48 0 0 1 .29-1.33 6.26 6.26 0 0 1 -2.48-1c-1.18-1-4.91-6.3-4.98-8.45a9.64 9.64 0 0 1 5.22-8.18 16 16 0 0 1 3.61-1.53c-1.48-2.42-2.36-4-2.25-5.42.1-1.23.91-4.31 6.28-6.36a12.39 12.39 0 0 1 4.47-.85 10.79 10.79 0 0 1 3.43.54c2.33-.57 10.9-2.69 16.05-3.88a63.45 63.45 0 0 1 7.19-1.35 6.65 6.65 0 0 1 5.88-3.52 8.27 8.27 0 0 1 1.54.15 6.37 6.37 0 0 1 4.79 3.85 9.15 9.15 0 0 1 -.34 7.78 6.51 6.51 0 0 1 -4.74 2.83l.33 18.82c1.67 1.41 5.34 5.09 5.69 10.36a21.52 21.52 0 0 1 -5 15.43 14.06 14.06 0 0 1 -10.55 4.78z" fill="#fff"/><path d="m58.61 43.92c-.38-5.84-5.68-9.53-5.68-9.53l-.38-21.91a2.18 2.18 0 0 0 .93.25 4.8 4.8 0 0 0 4.16-2c1.23-1.9 1.36-7.83-3.18-8.68a4.89 4.89 0 0 0 -5.76 3.31 43.57 43.57 0 0 0 -8.06 1.4c-6 1.4-16.61 4-16.61 4a9.32 9.32 0 0 0 -7.08.09c-4.11 1.57-4.95 3.64-5 4.7s1.48 3.44 2.5 5.13 3.55 1.32 3.55 1.32a1.93 1.93 0 0 1 -1.23.26 12.59 12.59 0 0 0 -7.16 1.78 7.8 7.8 0 0 0 -4.24 6.44c0 1.31 3.22 6.14 4.24 7s4.2.93 4.2.93a10.12 10.12 0 0 0 -1.36 3.27c-.25 1.56-.13 7.28 6.57 9.79a12.53 12.53 0 0 0 11.78-1.66 18.89 18.89 0 0 0 7.67 10.39 12.22 12.22 0 0 0 15.61-2.2 19.53 19.53 0 0 0 4.53-14.08zm-33.26-27a12.1 12.1 0 0 0 .08-2.25c.17-.08 15.89-2.5 15.89-2.25a69.47 69.47 0 0 1 -6.48 2.67c-3.69 1.29-9.84 4.21-9.84 4.21s.18-1.4.35-2.41zm-2 16.31c-.34 0 .68-2.54.22-5 0 0 9.15-5.3 9.15-5.13s-9.03 10.06-9.37 10.1zm18-7.46s-3.22 8.52-3.64 8.73a16.74 16.74 0 0 0 -2 1.19c-.71.44-1.71 1.31-1.71 1.31a8.66 8.66 0 0 1 -.76-1.14s7.75-10.43 8.17-10.55-.09.43-.09.43zm8.19-20.62c-.15 0 4.24-4.75 7-.17s-1.61 6.86-2.54 6.82a1.71 1.71 0 0 1 -1.27-.47l.17-.8s1.1-.47.47-2-2.6-3.59-3.83-3.38z" fill="#604f58"/><g fill="#ef7d7b"><path d="m13.69 15.36c-.15-.27.85-2 4.37-2.88s5 0 5 .38-2.21 2.14-2.21 2.14-.46-1.15-2.58-.64-2.12 1.4-2.12 1.4-1.99.41-2.46-.4z"/><path d="m14.54 17.44a10.54 10.54 0 0 0 4.58-.13c3.05-.59 4.53-2.25 4.78-2s-.21 3.13-.46 3.52-1.4 1-3.43 1.39a6.57 6.57 0 0 1 -3.65.05 7.34 7.34 0 0 1 -1.82-2.83z"/><path d="m25.39 12.22s13.18-3 16.23-3.77a19.61 19.61 0 0 1 5.51-.93c.25.13-.13.89 0 1.27s.29.64.13.68-9.07 1.53-14.37 2.37-7.33 1-7.33 1z"/></g><path d="m9 33.41a9.85 9.85 0 0 0 7.29-.12 26.51 26.51 0 0 0 5.84-3.39 15.47 15.47 0 0 1 -.59 3.17 9.27 9.27 0 0 1 -5.26 2.93c-2.76.55-4.62.38-4.84.21a34.77 34.77 0 0 1 -2.44-2.8z" fill="#f39a9b"/><path d="m10.89 32a14.14 14.14 0 0 0 2.19-.1 17.08 17.08 0 0 1 -1-1.44 4.44 4.44 0 0 0 -1.19 1.54zm2.67-7.33c-4.83 1.44-6.57 4.92-6 6a2 2 0 0 0 1.82 1 9.45 9.45 0 0 1 4.92-3.78 14.71 14.71 0 0 1 5.76-.63 2.83 2.83 0 0 1 -.13.8c-.12.39-2.46.05-5.38 1a16 16 0 0 1 1.26 2.23 10.31 10.31 0 0 0 1.26-.5c2.8-1.36 4.28-2.84 4.41-4.07s-3.09-3.52-7.92-2.08zm-.69 5.2a17.5 17.5 0 0 1 1.13 1.86c.27 0 .54-.1.83-.17-.32-.53-.93-1.6-1.19-2.16a8.45 8.45 0 0 0 -.77.44z" fill="#f39a9b"/><path d="m21 23.12s11.87-5.09 18.61-8 10.61-5.23 10.87-5.18.5.21.42.33-14.83 8.61-21 12.13-6.44 3.72-6.44 3.72a3.2 3.2 0 0 0 -2.46-3z" fill="#f39a9b"/><path d="m26.36 32.4c-.13 0 10.64-11.4 10.77-11.57s8.39-5 8.43-4.83-13.94 19.24-14.07 19.11-.68-2.67-5.13-2.71z" fill="#f7babe"/><path d="m47.13 30.36s-.13-.76.29-.8a16.79 16.79 0 0 1 3.58 2.1c0-.27 0-.57 0-.89-1.16-.64-3.16-1.85-3.34-2 0 0-.13-.76.3-.8a14.23 14.23 0 0 1 3.04 1.74v-.88c-1.16-.64-3.16-1.86-3.35-2 0 0-.13-.77.3-.81a14.17 14.17 0 0 1 3.05 1.75v-1c-1-.52-2.94-1.7-3.14-1.83 0 0-.13-.77.3-.81a11.87 11.87 0 0 1 2.84 1.56v-1.32c-1-.54-2.49-1.51-2.67-1.64 0 0-.13-.76.29-.8a9 9 0 0 1 2.38 1.35c0-5.06-.1-10.14-.2-10.25s-6.23 7.71-6.49 8-4.41 12.33-4.41 12.33a29 29 0 0 1 5.39-.59 19.92 19.92 0 0 1 5.63.68 4.44 4.44 0 0 0 .05-.84c-.89-.45-3.62-2.1-3.84-2.25z" fill="#f6c687"/><path d="m17 46.42a3.37 3.37 0 0 1 -2.59-2.42c-.72-2.25 2-6.19 2.33-6.36a12.68 12.68 0 0 0 3.35-1.1 13.37 13.37 0 0 0 2.5-1.61s4.45-.77 6.44.68 2.54 2.62 1.87 4.7a7.12 7.12 0 0 0 -4.58-2.54 9 9 0 0 0 -7.67 3.56 7.05 7.05 0 0 0 -1.65 5.09z" fill="#f7babe"/><path d="m29 40.28a6.6 6.6 0 0 0 -7.46-.13 6.49 6.49 0 0 0 -3.34 6.44 12 12 0 0 0 2.16.26 6.85 6.85 0 0 1 -1.08-1.85c.09-.3.6-.81.81-.77a11.14 11.14 0 0 1 1.68 2.53 7.68 7.68 0 0 0 .9-.15 21.13 21.13 0 0 1 -1.35-2.29c0-.13.68-.64.89-.51a13.17 13.17 0 0 1 1.57 2.49 12.12 12.12 0 0 0 2.16-1 10.49 10.49 0 0 0 4.11-4 3.11 3.11 0 0 0 -1.05-1.02zm-4.19 5c-.17.17-.47.55-.85.42s-1-1.74-.93-2 .46-.38.67-.3 1.3 1.67 1.14 1.84zm1.56-1.36c-.12.26-.76.72-.93.55s-.76-1.44-.89-1.65c0 0 .64-.47.89-.42s1.09 1.23.96 1.48z" fill="#f7babe"/><path d="m18.65 48.54a11.71 11.71 0 0 0 8-1.61 17.92 17.92 0 0 0 6.4-7 6.6 6.6 0 0 1 -1.4 6.4 11.54 11.54 0 0 1 -9.37 3.69c-3.42-.02-3.63-1.48-3.63-1.48z" fill="#f7babe"/><path d="m34.75 38.16a14.43 14.43 0 0 1 11.32-3.47c7.29.67 9 5.5 9.36 7.2a7.51 7.51 0 0 1 -.17 3.47s-1.26-5.42-4.83-7.24a10.49 10.49 0 0 0 -10.43.68c-2.59 1.82-5 5.42-4.92 8.94s4.5 7.26 4.5 7.26a7.5 7.5 0 0 1 -4.66-2.46 11.07 11.07 0 0 1 -2.07-4.54 8.12 8.12 0 0 0 2.37-5.59c.13-3.7-.47-4.25-.47-4.25z" fill="#f6c687"/><path d="m44.33 52.23c0-.25 0-.64.47-.59a12 12 0 0 1 2.59 3l.67-.17a23.26 23.26 0 0 1 -2.2-3.33c.08-.25.42-.63.76-.47a22.27 22.27 0 0 1 2.66 3.4 7.65 7.65 0 0 0 .86-.39c-.79-1-2.9-3.81-3-4s.21-.72.51-.72a31.55 31.55 0 0 1 3.35 4.18 6.91 6.91 0 0 0 .6-.5c-.76-1-3.25-4.46-3.21-4.61a1.35 1.35 0 0 1 .89-.55 38.81 38.81 0 0 1 3.14 4.28 7.82 7.82 0 0 0 .63-.95 36.08 36.08 0 0 1 -3.09-4 1.93 1.93 0 0 1 .93-.51 38 38 0 0 1 2.67 3.36 9.39 9.39 0 0 0 .3-4.55c-.68-4.28-4.45-6.82-9.41-6.14s-8.18 4.4-7.8 9.06a8.35 8.35 0 0 0 4.62 6.57c1.06.56 3 .59 5 .28a18.56 18.56 0 0 1 -1.94-2.65z" fill="#fcdfc8"/><path d="m38.06 57.06s5.55.89 9.66-.3 8.05-6.06 8.05-6.06a12.14 12.14 0 0 1 -4.11 6.83 11.35 11.35 0 0 1 -10 2.24 5.13 5.13 0 0 1 -3.6-2.71z" fill="#f6c687"/></svg>