<svg height="64" viewBox="0 0 64 64" width="64" xmlns="http://www.w3.org/2000/svg"><path d="m18.86 62.32c-4.65-.09-9.29-4.64-10.54-6.23a11.87 11.87 0 0 1 -2.26-5.46c0-.17-.09-.7.47-35.17-1.38-2-5.07-7.17-5.61-8.18-.69-1.28-1.24-2.65-.7-3.92a2.61 2.61 0 0 1 1.78-1.5c.35-.1.65-.19 5.8-.19 3.66 0 8.79.05 14 .09 5.41.05 10.91.09 15 .09h3.84c10 0 12.05 0 12.72 2.34a23 23 0 0 1 .16 5.07c2.35.07 5.43.16 5.9.16.71 0 4.28.27 4.5 5.64.11 2.51.26 23.23 0 24.82a5.1 5.1 0 0 1 -5.12 4h-.3c-2.56-.11-4.74-2-5.1-3.59-.08-.35-.44 9.36-.83 10.59a37.17 37.17 0 0 1 -3.73 7 13.11 13.11 0 0 1 -4.84 3.57c-1.67.52-21.5.88-24.16.88z" fill="#fff"/><path d="m8.48 14.85s-5.28-7.42-5.85-8.49-1.14-2.36-.14-2.64 23 .07 34.25.07 14.41-.07 14.7.93a48.45 48.45 0 0 1 0 6.42s7.13.22 7.92.22 2.43.43 2.57 3.78.21 23.19 0 24.4a3.22 3.22 0 0 1 -3.36 2.36 3.81 3.81 0 0 1 -3.28-2.07c-.14-.64-.28-19.91-.78-20.27s-3.43-.07-3.43-.07.14 29.19-.36 30.76a35.64 35.64 0 0 1 -3.42 6.42 11.26 11.26 0 0 1 -3.93 2.93c-1.14.35-20.9.85-24.47.78s-7.71-3.78-9.06-5.49a10.05 10.05 0 0 1 -1.84-4.5c-.09-.57.48-35.54.48-35.54z" fill="#604f58"/><path d="m5.41 5.93c.11-.42 12.85-.14 25.69.08s18 .14 18.13.42-.43 40.39-.72 42.46-2.71 6.71-4.78 7.85-11.27 1.07-16.91 1.14a89.38 89.38 0 0 1 -9.71-.14c-.42-.14-6.13-3-6.49-7.21s.71-35.18.36-36.1-5.64-8.21-5.57-8.5z" fill="#ddeff2"/><path d="m14.69 10.86c-.29.28-.14 15.41.21 16.48s.57.36 1.29.22 1.21-15.63 1.07-16.2-2.36-.71-2.57-.5zm21.48-.14c-.5 0-.15 1.14.28 1.64a4.28 4.28 0 0 0 1.82.39c0 1.34 0 4.21-.07 7.81-.79 0-1.43 0-1.53-.07-.36-.07 0 1.36.28 1.5a5.81 5.81 0 0 0 1.22.11c0 2.87-.09 6.1-.15 9.32a6 6 0 0 0 -1.57.06c-.28.29-.28 1.29.07 1.5a6.12 6.12 0 0 0 1.47.11c-.05 3-.09 6-.13 8.66a15.73 15.73 0 0 0 -1.76.08s-.1 1.17.14 1.17a14 14 0 0 0 1.6.05c-.05 3.09-.07 5.57-.06 6.85a12.57 12.57 0 0 0 -2 0 3.8 3.8 0 0 0 .07 1.5c.22.36 5.07.36 5.5.22s.35-1.22.28-1.43a9.74 9.74 0 0 0 -2.33-.19c.05-1.27.11-3.77.18-6.93a9.19 9.19 0 0 0 1.52-.07c.36-.14.21-.64.14-1 0-.13-.72-.2-1.58-.22.05-2.63.1-5.62.15-8.66h2.22a2.18 2.18 0 0 0 .23-1.12c0-.2-1.21-.36-2.48-.46 0-3.25.09-6.51.12-9.4a6.93 6.93 0 0 0 1.79-.14c.36-.21.14-.71-.14-1.07a4.18 4.18 0 0 0 -1.63-.28c0-3.6 0-6.47 0-7.78a12.34 12.34 0 0 0 2.61-.07c.43-.22.35-.79.43-1.29s-6.33-.79-6.69-.79z" fill="#604f58"/><path d="m51.37 13.64s6.92-.14 7.56.14.93 2.14.86 5.21.35 20 0 20.34-2.22.43-2.14-.07-.08-19.41-.5-20.41a4 4 0 0 0 -2.07-2.14c-.64-.14-3.21.43-3.57.07s-.14-3.14-.14-3.14z" fill="#ddeff2"/></svg>