<svg height="64" viewBox="0 0 64 64" width="64" xmlns="http://www.w3.org/2000/svg"><path d="m62.89 41.13a3.28 3.28 0 0 0 -2-.4h-1a7.49 7.49 0 0 0 -.62-2.33 4.43 4.43 0 0 0 -2.44-2.28 5.65 5.65 0 0 0 -2.47-4.93 8.14 8.14 0 0 0 -4.23-1.19h-.13a7.33 7.33 0 0 0 -3.19-3.44 5.45 5.45 0 0 0 -2.37-.52q-.31 0-.63 0a2.62 2.62 0 0 0 .33-.59 2.71 2.71 0 0 0 -.78-2.78l.28-.29c.82-.93 1.75-2.67 1.56-5.73s-3.18-5.77-4.81-5.77a2.28 2.28 0 0 0 -1.75.82 3.08 3.08 0 0 0 -.52 2.55 3.62 3.62 0 0 0 1.19 1.87 6.47 6.47 0 0 1 1.08 1.35c.14.27.25.48-.15 1a13.51 13.51 0 0 0 -1.71 1.94 3.9 3.9 0 0 0 -.53 3.66 5.79 5.79 0 0 0 -.83-.06 5.1 5.1 0 0 0 -2.83.84 13 13 0 0 0 -1.16-.73 4.14 4.14 0 0 0 .76-6.4 2.78 2.78 0 0 0 -.55-2.61 2.45 2.45 0 0 0 -1.74-.73c-.56 0-2 .22-2.71 2.3a4 4 0 0 0 .59 3.81 2.38 2.38 0 0 0 -.5 1.95 2.46 2.46 0 0 0 .15.53h-.27-.29a6.89 6.89 0 0 0 -1.61.2 3.16 3.16 0 0 0 0-1.61 3.42 3.42 0 0 0 -1.91-2.4l-.16-.16a6 6 0 0 1 .38-.53 9.66 9.66 0 0 0 2.17-5.16c.27-2.72-1-5.08-2.82-5.26h-.28c-.39 0-2.34.13-2.34 2.71a4.17 4.17 0 0 0 .17 1.1 7.18 7.18 0 0 1 .23 1.82c0 .2-.57.85-.88 1.2a6.92 6.92 0 0 0 -2 3.59c-.44 3 2.28 5 3.17 5.65l.09.07a3 3 0 0 0 1.1.61l-.11.1a5.92 5.92 0 0 0 -2.8-1h-.5a5.48 5.48 0 0 0 -3.61 1.33 5.86 5.86 0 0 0 -3.29 1.77 5.27 5.27 0 0 0 -1.55 4.45 4.93 4.93 0 0 0 -3.07 2.94c-1 .18-2.58.9-3.19 3.61a6.53 6.53 0 0 0 .19 3.52c-1.17.06-2.3.12-2.76.13a3.26 3.26 0 0 0 -2.82 1.91 3.76 3.76 0 0 0 .19 3.79c1 1.42 5.17 3.75 5.18 3.76a5.34 5.34 0 0 1 .86.84s3.82 4 6.78 4h.2c.75 0 9.75-.14 17.69-.22 8.49-.09 16.5-.18 17.43-.23a7.59 7.59 0 0 0 4.88-1.83 10.43 10.43 0 0 0 2.87-3.59 19.3 19.3 0 0 0 2.29-1.08c3-1.6 4.29-2.46 4.83-3.62s.68-3.32-.73-4.25z" fill="#fff"/><path d="m9.48 43.28a5 5 0 0 1 -1.8-4.85c.67-3 2.65-2 2.65-2s.54-2.79 2.33-3.15l1.8-.36s-1.35-2.78.5-4.53 2.69-1.17 2.69-1.17a3.55 3.55 0 0 1 3.19-1.39 4.29 4.29 0 0 1 3.19 2 5.16 5.16 0 0 1 4.76-3 8.41 8.41 0 0 1 5.57 2.6 3.31 3.31 0 0 1 3.91-1.34c2.74.76 3 2.78 3 2.78s2.73-1.54 4.73-.55 2.79 3.77 2.79 3.77a6.4 6.4 0 0 1 4.62.76c2.25 1.4 1.4 4.86 1.4 4.86a3 3 0 0 1 2.78 1.52 6.57 6.57 0 0 1 .41 3.55 26.57 26.57 0 0 1 3.82 0c.26.18.35 1.12 0 1.8s-1.84 1.57-4 2.74a9.83 9.83 0 0 1 -2.74 1.21 10 10 0 0 1 -2.6 3.59 5.8 5.8 0 0 1 -3.87 1.49c-1.8.09-33.56.36-35.13.45s-4.48-2.43-5.4-3.41a5.13 5.13 0 0 0 -1.39-1.26c-.18-.09-3.86-2.25-4.49-3.15s-.05-2.6 1.08-2.65 6.2-.31 6.2-.31z" fill="#604f58"/><path d="m35.44 45.12c-14.51 0-30.11 0-30.23.49s3.28 2.25 3.79 2.39 14.2-.09 14.42 0 0 .71-.45.8-12.4.14-12.76.18 2.3 2.38 3 2.43 4.31.4 17 .22c9.91-.14 15.65-.25 18.29-.38-.52-.54-1.37-1.56-1.27-1.73a1.28 1.28 0 0 1 1.4 0 6.76 6.76 0 0 1 1.27 1.67h.1a2.58 2.58 0 0 0 1.09-.54c-.46-.48-1.17-1.24-1.14-1.39a.93.93 0 0 1 .9-.45 2.94 2.94 0 0 1 1.26.9c.5-.54.85-1 .81-1.17-.09-.27-17.21.13-17.57 0s-.09-.49.14-.76 17.2-.36 17.92-.49a7.49 7.49 0 0 0 2-.77 15.11 15.11 0 0 0 2.9-1.52c.18-.28-8.31.12-22.87.12z" fill="#ddeff2"/><path d="m10.78 43.19c0-.14-2.2-2.61-1.93-4.09s1-1.71 1.48-1.66 1 .13 1.12-.18.18-2.34 1.21-2.74 2.25 0 3-.54a2.76 2.76 0 0 1 3-.59 7.93 7.93 0 0 1 3.19 3.28c0 .45-.09.54-.31.68a5.13 5.13 0 0 0 -2.7 2.51c-.63 1.67.13 3 0 3.24s-8.06.09-8.06.09z" fill="#ef7d7b"/><path d="m20.57 43.1c-.27 0-.76-.59-.81-1.62s1.85-3.46 2.92-3.55.77.54 2 .5 1.75-.54 2.25-.27 2.38 1.39 2.2 2.65-.72 1.57-.77 2 .14.41-.22.45-7.57-.16-7.57-.16z" fill="#ef7d7b"/><path d="m16.12 32.45c-.24-.12-.94.09-1.07-.4a2.52 2.52 0 0 1 .76-3 24.42 24.42 0 0 1 3.19-1.59c.76-.45 1-.54 2.38-.13s2.34 1.35 2.25 1.75-.32.63-1 .72a5.16 5.16 0 0 0 -2.43.72c-.9.58-.94 1.53-1.3 1.66a9.74 9.74 0 0 1 -2.78.27z" fill="#ef7d7b"/><path d="m20 32.94a4.25 4.25 0 0 1 4.32-2.24c3.19.13 3.95 1.3 3.86 1.75s-.78.81-1.18 1.55-.05 2.83-.32 2.92a8.31 8.31 0 0 1 -2.83.14 3.58 3.58 0 0 1 -.72-.41 3.88 3.88 0 0 0 -1.52-2.11c-1.35-.79-1.8-1.15-1.61-1.6z" fill="#ef7d7b"/><path d="m25 29.62c-.13-.58.14-2.56 2.75-3.23a5.77 5.77 0 0 1 5.57 1.39c.76.9.63.76.72 1s.09 2.07.17 2.43-1 .18-1.93.4-1.08.63-1.3.68-.45-.32-1.17-.23-.85.18-.85 0-.41-2-1.8-2.39a4.55 4.55 0 0 0 -2.16-.05z" fill="#ef7d7b"/><path d="m27.94 37.08a2.19 2.19 0 0 1 -.27-2.56c.67-1.22 1.75-1.62 2.38-1.35s.81.58 1.39.31a5.28 5.28 0 0 1 2.56-.76 4 4 0 0 1 2.65 1.53 4.87 4.87 0 0 1 .71 2.06 2.63 2.63 0 0 1 -.44 1.26c-.14.09-2.66.54-3.19 2.2s1 3.1.44 3.28-4.67.27-4.67 0 1.4-1.75.36-3.37a21.26 21.26 0 0 0 -1.92-2.6z" fill="#ef7d7b"/><path d="m35.08 31.55c-.13 0-.9-4.09 1.17-4.49a3 3 0 0 1 3.51 1.71c.49.94.76.76.94 1.12s.4.4.31.72.18.81-.18.9a3.35 3.35 0 0 0 -2.2.36 14.18 14.18 0 0 0 -1.57 1.21 6.32 6.32 0 0 0 -1.98-1.53z" fill="#ef7d7b"/><path d="m38.54 36.76c-.09-.27-.72-2.51-.45-3.19s2-1.39 2.52-1.07a2 2 0 0 0 1.39.5c.72 0 .81-.35 1.3.23s.67 1.21 1.3 1.44 1 .22 1 .67a4.09 4.09 0 0 1 -.18 1.71c-.18.22-.59.18-1.26.81a5.19 5.19 0 0 0 -1 1.21 5.67 5.67 0 0 0 -2.7-1.89z" fill="#ef7d7b"/><path d="m35.53 42.69c-.13-.09-1.52-1.61-.85-2.83s2.83-1.48 3.91-1.66a5.1 5.1 0 0 1 3.46.94 2.18 2.18 0 0 1 .45 2.61c-.5.63-.63 1.12-1.31 1.17s-5.66-.23-5.66-.23z" fill="#ef7d7b"/><path d="m43.22 42.69s.89-1.52.8-2-.13-.94-.13-.94 1.08-2.29 2.16-1.89 1.79.86 2.2 1 1.75 0 2.11.9.36 3 0 3.05-6.92-.07-7.14-.12z" fill="#ef7d7b"/><path d="m47.66 37.35c-.18 0-1.21-.68-1.16-1.22s.85-.71 1.12-1.39a3.37 3.37 0 0 1 3.14-1.74c1.53.18 3.91 1.58 3.42 3s-1.49 1.89-1.66 2.39-.59.85 0 .89.67 0 .9-.18 2.16-.8 3 .14.31 3.37 0 3.5-4.8 0-4.8 0a6.55 6.55 0 0 0 -.54-3.87c-.86-1.57-2.92-1.52-3.42-1.52z" fill="#ef7d7b"/><path d="m42 31.91s-.13-2.25 1.31-2.65a3 3 0 0 1 3.63 1.08c1.08 1.35 1.31 1.89.9 2.29s-.9.54-1.26 1a5.71 5.71 0 0 1 -.49.58s-1.48-1.84-2.34-2-1.75-.3-1.75-.3z" fill="#ef7d7b"/><g fill="#604f58"><path d="m24.12 22.75c-.34-.32-3-1.89-2.65-4s3-3.24 2.92-5.12a17 17 0 0 0 -.4-2.88c0-.54 0-.81.49-.76s1.26 1.3 1.08 3.14a7.87 7.87 0 0 1 -1.75 4.14c-.72.89-1.35 2-.59 2.83s1.67.71 1.89 1.79-.49 1.31-.99.86z"/><path d="m31.17 21.58a1 1 0 0 0 .41-1.75 2.18 2.18 0 0 1 -.85-2.52c.4-1.12.94-1.17 1.25-.85s-.45 1.88.14 2.29a2.21 2.21 0 0 1 -.63 4c-.4 0-.94-.95-.32-1.17z"/><path d="m41.64 19.92a2.74 2.74 0 0 0 .5-3.33c-.72-1.35-2-2.16-2.07-2.65s0-1.08.36-1.08a5.48 5.48 0 0 1 2.88 4 5.81 5.81 0 0 1 -1.08 4.31c-.72.81-1.53 1.3-1 2s1.26 1.3 1.12 1.66a1 1 0 0 1 -1.44.36c-.54-.49-1.93-2.06-.8-3.55a7.27 7.27 0 0 1 1.53-1.72z"/><path d="m12.26 39a1 1 0 0 1 1.26.5c.13.45-.63 1.3-1.08 1s-.99-.91-.18-1.5z"/><path d="m16.26 35.33c.29-.26 1.21-.09 1.17.4s-.5.36-.72.81-.5.85-.86.54-.31-1.08.41-1.75z"/><path d="m18.51 29.31c.27-.37 1-.36 1 0s-.4 1-.85.76a.48.48 0 0 1 -.15-.76z"/><path d="m23.54 33.21a1 1 0 0 1 1.35 0c.35.45-.09 1.13-.54 1.26s-1.13-.54-.81-1.26z"/><path d="m23.63 40.4c.22-.09 1.61-.36 1.79.14s.14.85-.4 1a2 2 0 0 1 -1.26 0c-.13-.01-.76-.87-.13-1.14z"/><path d="m32 34.79s1.44-.18 1.71.31-.36 1.12-.94 1-1.37-.77-.77-1.31z"/><path d="m29.92 28.23a1 1 0 0 1 1.21-.05c.49.41.54.95 0 1.08s-1 .4-1.21 0-.27-.9 0-1.03z"/><path d="m36.52 28.32c.27-.11.63-.14.72.27s.18 1-.54.81a.6.6 0 0 1 -.18-1.08z"/><path d="m38.05 29.75c.22-.18.85 0 1.08.45s-.45 1.22-1 .86-.67-.81-.08-1.31z"/><path d="m44.61 30.61a1 1 0 0 1 1.3.22.76.76 0 0 1 -.85 1.08c-.9-.09-1.13-.85-.45-1.3z"/><path d="m41.33 34.83a.7.7 0 0 1 1.12.36c.18.45-.54.9-.94.58s-.45-.67-.18-.94z"/><path d="m49.51 34.74c.38-.39.94-.09 1.12.36s-.54.9-1 .59-.39-.69-.12-.95z"/><path d="m53 40.58a.7.7 0 0 1 1.13.36c.18.45-.54.9-1 .59s-.44-.68-.13-.95z"/><path d="m54.9 40c.38-.39.94-.09 1.12.36s-.54.9-.94.58-.45-.67-.18-.94z"/><path d="m46.54 40.76a.7.7 0 0 1 1.12.36c.18.45-.54.9-.94.59s-.45-.71-.18-.95z"/><path d="m36.07 40.49a.7.7 0 0 1 1.13.36c.17.45-.54.9-1 .59s-.4-.68-.13-.95z"/></g></svg>