<svg height="64" viewBox="0 0 64 64" width="64" xmlns="http://www.w3.org/2000/svg"><path d="m27 57c-10.93 0-20-.46-22.57-.6-3.43-.2-3.75-3.91-3.94-6.35l-.06-.73c-.22-2.56-.63-28-.31-31.64.06-.73 0-1.53 0-2.3-.03-3.1-.12-7.79 6.67-8.25 1.21-.08 3.58-.13 7.14-.13 13.07 0 42.07.6 44.87 1 4.8.68 5 5.5 5.06 8.09 0 .34.65 34.38-.86 37.25s-5.57 2.88-19.23 3.29l-5.7.18c-3.49.12-7.24.19-11.07.19z" fill="#fff"/><path d="m2.06 17.85c.35-4-1.38-8.35 4.86-8.77s48.64.42 51.6.84 3.28 3.18 3.39 6.24.42 34.26-.64 36.27-7.19 1.91-23.27 2.44-31.62-.32-33.52-.43-1.91-2.85-2.12-5.29-.62-27.7-.3-31.3z" fill="#604f58"/><path d="m56.25 46.35c-.08-.39-.08-.87.56-.87.33 0 1.18.94 1.92 1.88.81-9.36 1.27-30.92 1.17-31.83a2.44 2.44 0 0 0 -1.48-2.43c-1.27-.74-8.67-1.1-24.64-1.1s-27.94-.78-28.34.1c-.53 1.17-.21 38.6.85 39s9.71.8 20.51.9c6.32.06 15.51.16 22.29.1a13.88 13.88 0 0 1 -1.17-2c0-.24.88-1 1.35-.63a10.9 10.9 0 0 1 1.65 2.56h2.4c-.81-.87-2.4-2.61-2.46-3.08-.08-.63.63-1.51 1-1.35a29.75 29.75 0 0 1 3.14 4.4l1.34-.07c-.95-1.36-3.15-4.54-3.21-4.85s.16-1.19.87-.8 3 4 3.61 5.52a1.35 1.35 0 0 0 .36-.1c.19-.09.36-1 .53-2.35a26.52 26.52 0 0 1 -2.25-3z" fill="#f6c687"/><path d="m8 17.33c0-.56-.55-3.57.32-3.81s3.73-.32 4 .16-.48 1.32-.72 1.32-2 .08-2.14.39.08 1.22-.16 1.61-1.3.33-1.3.33z" fill="#604f58"/><path d="m9.46 25.81c-.08-2.7-.56-7 2.85-7.14s31.09 0 31.73.16 1.19 7.77.79 8.25-3.57 1.82-4.2 4.76 2.69 4.92 3.33 5.39 1.11.48 1.19 1.91.39 5.94-.08 6.26-31 .4-32.84.48-2.69-1.27-2.61-4.44-.16-15.63-.16-15.63z" fill="#604f58"/><path d="m11.12 24.86c.09-1.67.48-4.36 1.67-4.52s29.5-.24 30.14.08.47 6.18.47 6.18a6.34 6.34 0 0 0 -4.6 6c-.31 5.08 4.6 5.87 4.68 6.66s.48 4.52.08 4.68-31.25.16-31.72.08a2 2 0 0 1 -1.11-1.42c0-.37.27-16.15.39-17.74z" fill="#ddeff2"/><g fill="#604f58"><path d="m15.17 35.65c-.22-.19.08-1.19.79-.88s5.08 4.52 4.52 5.16-.87.63-1.35.32-3.41-4.13-3.96-4.6z"/><path d="m16.52 30.33c-.07-.16.19-1.11.95-.83s7.33 8.8 7.18 9-.4.44-.56.36-7.45-8.21-7.57-8.53z"/><path d="m20.24 26.88c-.06-.22.64-.95 1-.87s9.43 12.09 9.35 12.37a1.45 1.45 0 0 1 -.43.56s-9.76-11.54-9.92-12.06z"/><path d="m26.63 26.72c-.4-.47.79-.95 1.07-.71s7.57 11.38 7.53 11.62.2.55-.43.43-7.97-11.06-8.17-11.34z"/><path d="m31 25c-.05-.3 1.23-1.07 1.59-.91s4.2 5.35 4 5.67 0 .47-.51.27a42 42 0 0 1 -5.08-5.03z"/><path d="m47.17 18.16c0-.23 1-.56 1.23-.12s.12 26.65-.08 26.89-1.07.35-1.31.07.2-26.49.16-26.84z"/><path d="m51.1 23.15a3.31 3.31 0 0 1 3.17-2.93 3.16 3.16 0 0 1 3.17 3.37 3 3 0 0 1 -3.33 3.13c-2.42 0-3.05-2.46-3.01-3.57z"/></g><path d="m52.25 23.27a2.1 2.1 0 0 1 2-1.87 2 2 0 0 1 2 2.15 1.92 1.92 0 0 1 -2.12 2 2.06 2.06 0 0 1 -1.88-2.28z" fill="#c5dda3"/><path d="m51.21 37.78a2.94 2.94 0 0 1 2.79-2.6 2.81 2.81 0 0 1 2.82 3 2.68 2.68 0 0 1 -3 2.78c-2.08.04-2.64-2.19-2.61-3.18z" fill="#604f58"/><path d="m52.48 37.91a1.63 1.63 0 0 1 1.52-1.43 1.55 1.55 0 0 1 1.55 1.64 1.48 1.48 0 0 1 -1.55 1.53c-1.23 0-1.54-1.2-1.52-1.74z" fill="#ef7d7b"/></svg>