<svg height="64" viewBox="0 0 64 64" width="64" xmlns="http://www.w3.org/2000/svg"><path d="m25.85 64a5.52 5.52 0 0 1 -1-.08c-1.17-.18-2.65-1.38-7.14-5.4-1.07-1-2.07-1.84-2.75-2.4a14 14 0 0 0 -2.34-1.69 3.4 3.4 0 0 1 -.77-.55 2.72 2.72 0 0 1 -.93-2.14v-.27c-.06-4.73-.09-13.47.47-18.84a164 164 0 0 0 .61-16.63c0-3.47-.07-4.31-.08-4.34a2.94 2.94 0 0 1 0-.42c.13-1.14.9-1.63 3.2-3.06l1.08-.68c0-2.46.26-2.9.37-3.12.55-1.1.73-1.46 15.24-3.18 9.9-1.14 11.7-1.2 11.96-1.2a6.54 6.54 0 0 1 3.85 2.33c.19.37.33.67.27 3.37l3.84 5.69c.28.42.48.69.62.89a3.15 3.15 0 0 1 .79 2.06c0 .34 0 2.32-.17 10-.13 6.87-.3 15.42-.33 19.57v5.8a27.18 27.18 0 0 1 -.18 5.11 5.12 5.12 0 0 1 -3.88 3.74c-.51.14-1.16.34-2 .61-2 .64-5.16 1.61-10.29 2.87-7.02 1.72-9.17 1.96-10.44 1.96z" fill="#fff"/><path d="m13.87 11.49c0-.41 4.28-2.71 4.28-3a24 24 0 0 1 .18-3.2c.13-.27 4.23-1 13.73-2.12s11.48-1.23 11.71-1.23a7.34 7.34 0 0 1 2.12 1.26 24.6 24.6 0 0 1 0 3.06s3.15 4.69 4.19 6.22 1 1.26 1.08 2-.45 22.06-.5 29.45 0 9.72-.13 10.44a3.16 3.16 0 0 1 -2.48 2.35c-1.75.45-5 1.66-12.29 3.46s-9.55 2-10.67 1.85-6.67-5.49-9-7.39a21.41 21.41 0 0 0 -3-2.11.85.85 0 0 1 -.36-.77c0-.4-.22-12.34.45-18.91a163.7 163.7 0 0 0 .82-16.85c0-3.75-.13-4.51-.13-4.51z" fill="#604f58"/><path d="m40.75 54c-.09-.45 0-1 .5-1a12.11 12.11 0 0 1 2.75 3l1.22-.38a34.34 34.34 0 0 1 -3.07-3.62c0-.36.45-.94.81-.76a29.38 29.38 0 0 1 3.32 4l1.37-.48a47.29 47.29 0 0 1 -3.65-4.5c0-.32.4-.95.81-.81a28.07 28.07 0 0 1 3.9 4.76 13.3 13.3 0 0 0 .2-2.6c-1-1.12-3.25-3.64-3.43-3.92s-.31-1 .09-1 2.35 2.13 3.43 3.31c0-.94 0-2 0-3.13a38.82 38.82 0 0 1 -3.08-3 .47.47 0 0 1 .45-.67 13.89 13.89 0 0 1 2.63 2.14v-2.23c-.56-.37-1.95-1.32-1.91-1.5s.36-.76.63-.63a9 9 0 0 1 1.28.92c0-3.13 0-6.39 0-9.21.09-8.51.14-17.6 0-18.14s-4.64-6.94-4.91-7.3 0-2.61-.22-3-5.36.36-9.73.86-13.29 1.2-13.7 1.56 0 2.38.41 3.1 3 4.69 3.65 5.59 1 1.48 1.17 5.72.49 20 .45 26.29-.23 12.39-.23 12.39c.09.27 1 .36 2.34.27s3-.63 9-2.16c2-.52 3.87-1 5.53-1.53a13.16 13.16 0 0 1 -2.01-2.34z" fill="#f9f2ed"/><path d="m16.89 11.76c-.27-.09 2.61-1.9 2.79-1.76s4 5.85 3.65 5.81-6.33-4.01-6.44-4.05z" fill="#ddeff2"/><path d="m15.94 12.84c.49-.17 5.09 2.56 6.49 3.42s1.84.94 2 1.44.45 19.68.59 29.67.18 12.12-.18 12.12-3.52-3.65-6.31-5.63-3.33-2-3.55-2.79a164.06 164.06 0 0 1 .36-17.83c.45-2.66.54-11 .63-15.32s-.16-5.04-.03-5.08z" fill="#f9f2ed"/><g fill="#604f58"><path d="m18.69 51.16c-.23-.34.27-.81.58-.68s3.65 3.42 3.47 3.69-.27.59-.67.41a34 34 0 0 1 -3.38-3.42z"/><path d="m19.63 48.73c-.24-.3.09-1 .63-.77a26.57 26.57 0 0 1 3.56 4.19.48.48 0 0 1 -.63.4 47.11 47.11 0 0 1 -3.56-3.82z"/><path d="m20.71 46.47c-.14-.29.36-.9.82-.81a9.31 9.31 0 0 1 2.38 2.89.53.53 0 0 1 -.67.31 17.67 17.67 0 0 1 -2.53-2.39z"/><path d="m28.23 24.5c0-.18-.27-3.65 0-3.87s.77-.54.9-.05a25.86 25.86 0 0 1 0 4.23c-.13.41-.9-.31-.9-.31z"/><path d="m29 38.32c.05-.18-.23-5.85 0-6.12a.54.54 0 0 1 .72-.14c.14.14 1.67 1.49 1.89 1.4s1.94-2.84 2.25-2.88.54-.23.63 0 .27 6.89 0 6.94-.95.45-1 .13 0-4.73-.14-4.54-1.3 2-1.66 2-1.67-1.17-1.62-.68a23.24 23.24 0 0 1 0 3.92c-.07.2-1.07-.03-1.07-.03z"/><path d="m36.07 31.25c0-.2.72-.27.86-.13a59.43 59.43 0 0 1 .22 6.26c-.09.13-.95.31-1 0s-.08-5.86-.08-6.13z"/><path d="m38.28 30.94c.07-.25.94-.23.94-.23v4.78l1.62-.27s.23.9-.09 1.12a5.51 5.51 0 0 1 -2.47.41 41.71 41.71 0 0 1 0-5.81z"/><path d="m43.45 33.15c-.13-.1 1.63-2.26 1.72-2.62s-.81-.27-1-.27l-1.6 1.74c0-1.17-.09-2.18-.11-2.29 0-.27-.72 0-.85.09v6.2c0 .18.85 0 1 0a11.18 11.18 0 0 0 0-1.86c.59.54 1.76 1.5 2 1.68s.9-.14 1-.23a18.34 18.34 0 0 0 -2.16-2.44z"/><path d="m28.64 13.74c-.07-.26-.18-3.83-.14-4.06s.91-2.43 5.5-2.68 6.12 2.66 6.17 3 .22 3.74.13 4-.72 2.34-5.18 2.43-6.12-1.57-6.48-2.69z"/></g><path d="m29.68 10.36c0-.54.81-2.43 4.5-2.57s5.22 2.21 5.18 2.57-1 2.12-4.91 2-4.77-1.64-4.77-2z" fill="#adceea"/><path d="m29.63 12a10.14 10.14 0 0 0 5 1.44c2.75-.05 4.73-1.4 4.78-1.17a5.54 5.54 0 0 1 .09 1.48c-.09.27-1.76 1.71-5 1.67s-4.91-1.53-5-1.8a3.78 3.78 0 0 1 .13-1.62z" fill="#adceea"/></svg>