<svg height="64" viewBox="0 0 64 64" width="64" xmlns="http://www.w3.org/2000/svg"><path d="m26.44 55.3a5.83 5.83 0 0 1 -2.31-.4c-.9-.39-2.8-1.77-7.25-5.08-2.69-2-5.74-4.27-7.65-5.53-.34-.22-8.23-5.47-9.07-8.76-.47-1.9-.13-4.77 4.12-7.72 1.09-.75 7.69-4.57 15.57-9.11 2.51-1.45 4.56-2.62 5.38-3.11l2.46-1.45c5.31-3.14 7.86-4.63 8.31-4.87a8.92 8.92 0 0 1 3.3-.57 6.88 6.88 0 0 1 1.91.23 67.31 67.31 0 0 1 12.12 6.33l1.22.79c5.19 3.35 8.62 5.56 9.27 8.39.79 3.45-1.53 6-2.77 7.39a24 24 0 0 1 -2 2 4.54 4.54 0 0 1 -.92 2.47c-1 1.4-3.37 3-5 3h-1.13a4.79 4.79 0 0 0 -1.32.12 5.32 5.32 0 0 0 -1.23 1.46c0 .08 0 .15-.05.24a6.12 6.12 0 0 1 -2.33 4 8.14 8.14 0 0 1 -5.44 2.17h-1.09c-.64.49-1.91 1.51-2.52 2.06a5.39 5.39 0 0 1 -1.27 2.82 8 8 0 0 1 -5.32 2.72c-.56 0-1.09 0-1.49 0h-.4a15.33 15.33 0 0 1 -3.1.41z" fill="#fff"/><path d="m5.39 29.4c1.61-1.09 18.07-10.52 20.82-12.14s10-5.93 10.68-6.25a7.52 7.52 0 0 1 3.8-.22 67.59 67.59 0 0 1 11.6 6.1c5.21 3.37 9.15 5.74 9.66 8s-.84 4-2.32 5.67a18.06 18.06 0 0 1 -2.54 2.4 2.61 2.61 0 0 1 -.48 2.18 6.45 6.45 0 0 1 -3.54 2.27 11 11 0 0 0 -2.94.21 6 6 0 0 0 -2.4 2.48c-.35.68 0 2-1.86 3.54a6.27 6.27 0 0 1 -4.2 1.72 11 11 0 0 0 -1.81.06 29.67 29.67 0 0 0 -3.7 3.1 3.89 3.89 0 0 1 -.91 2.48 6 6 0 0 1 -3.92 2c-1 0-2 0-2 0s-3 .75-4.45.13-10.41-7.69-14.6-10.44-7.89-6.19-8.28-7.62.12-3.4 3.39-5.67z" fill="#604f58"/><path d="m5.39 31.45c1-.86 7-4 13.62-8s16.91-10.15 17.91-10.58a5.25 5.25 0 0 1 4-.08 103.24 103.24 0 0 1 12.36 6.93c5.12 3.26 7.42 4.94 7 6.8s-3.28 4.72-6.83 7.33-10.22 7.15-14.81 10.39-9.09 6.42-11.08 7-3.64-.67-5-1.46-12.8-9.35-15.34-11.4-3.56-3.53-3.48-4.45a4.34 4.34 0 0 1 1.65-2.48z" fill="#a8a1a7"/><path d="m29.82 52s3.11-1.89 3.75-2.32 1.73-1.22 1.84-1.08.29 1.08-1.49 2.43-3.92 1.27-4.1.97z" fill="#84767e"/><path d="m41.56 44.18c.18-.18 5.34-4.18 5.44-4.1a5.35 5.35 0 0 1 -.78 2.16 10.45 10.45 0 0 1 -3.61 2.43c-.46.08-1.27-.22-1.05-.49z" fill="#84767e"/><path d="m51.89 36.33c.14-.12 4.31-3.1 4.48-3s.16.59-.36 1.37a6.84 6.84 0 0 1 -3.07 2c-.59-.01-1.24-.2-1.05-.37z" fill="#84767e"/><path d="m9.81 30.51c1.5-1.23 4.1-1.94 7.15-1.94s6.34 1.64 6.61 3.75-1.3 4.88-4.4 5.8-8.82.51-10.33-1.92-1.08-4.02.97-5.69z" fill="#604f58"/><path d="m10.4 35.34a1.69 1.69 0 0 1 -.19-2.78 8.71 8.71 0 0 1 6.42-2.11c2.35.06 4.7 1 5.13 2.24a1.63 1.63 0 0 1 -.38 2 .68.68 0 0 1 -.46-.21c-.05-.08-.91-1.78-4.29-1.89s-5.36 1.35-5.69 1.83-.75.65-.54.92z" fill="#84767e"/><path d="m11.18 35.42c0-.3 1.11-1.78 4.1-1.94s5.4 1.18 5.18 1.75-2.23 1.48-5.07 1.37-4.29-.4-4.21-1.18z" fill="#84767e"/><path d="m15.2 40.81a7.77 7.77 0 0 1 2.57 2.11 1.71 1.71 0 0 1 -.44.54s-2.56-1.54-2.64-1.92.31-.65.51-.73z" fill="#604f58"/><path d="m21.19 42.4c.08-.51 1.94-3.48 7-4.55s8.63 2 9 3 .56 2.73-2.13 4.43a13.92 13.92 0 0 1 -8.82 2.13c-3.59-.15-5.56-1.5-5.05-5.01z" fill="#604f58"/><path d="m23.7 44.7s-1.48-.6-.48-2.24 2.75-2.54 6-2.89 5.91.49 6.18 1.78a1.66 1.66 0 0 1 -.4 1.78s-1-2.13-5-2.05-6 2.13-6.3 3.62z" fill="#84767e"/><path d="m24.75 44.7c0-.38 1.41-2.38 4.35-2.59s5 1 5 1.53-2.29 1.87-5.42 2-3.93-.43-3.93-.94z" fill="#84767e"/><g fill="#604f58"><path d="m26.43 32.75a.54.54 0 0 1 .7-.3 8.57 8.57 0 0 1 1.64 2.55.49.49 0 0 1 -.65.22 10.19 10.19 0 0 1 -1.69-2.47z"/><path d="m28.1 32.4a.57.57 0 0 1 .62-.27 11.88 11.88 0 0 1 1.59 2.87c0 .19-.65.16-.65.16s-1.54-2.52-1.56-2.76z"/><path d="m29.88 31.56c-.08-.25.38-.35.65-.22a6 6 0 0 1 .91 2.49c-.13.19-.24.45-.46.21a18.06 18.06 0 0 1 -1.1-2.48z"/><path d="m21.62 24.28c.64-1.32 2.92-2.86 5.48-3.21s4.9.32 5.9 1.37 1.67 1.89 1.16 3.54-2.38 3.64-6.29 3.8-5.85-1.67-6.47-2.7a2.89 2.89 0 0 1 .22-2.8z"/></g><path d="m23.3 27c0 .19-1-.65-.19-1.84s2.83-2.16 5.53-2.16 3.77.78 4 1.64-.32 1.46-.48 1.43-.49-1.73-4.18-1.27-4.71 1.72-4.68 2.2z" fill="#84767e"/><path d="m24.29 27.19c-.05-.22 1.49-1.62 3.54-1.7s3.59.3 3.56.81-1.65 1.38-3.59 1.54-3.4-.16-3.51-.65z" fill="#84767e"/><path d="m33 20.91c-.27-1.33.49-4 3.86-5.05s8-.54 9 1.32 0 4-1.14 5.16a10.42 10.42 0 0 1 -8.06 1.86c-2.9-.79-3.55-2.51-3.66-3.29z" fill="#604f58"/><path d="m34.73 20.58s-.54-2.21 3.27-3.29 5.74 0 6.17.92a2 2 0 0 1 .08 1.64s-.89-1.18-3.85-1.1a10.66 10.66 0 0 0 -5.67 1.83z" fill="#84767e"/><path d="m35.43 21.28a6.6 6.6 0 0 1 4.13-1.56c2.51-.19 4.07.59 4.1.84s-1.94 2-4.4 2-3.74-.56-3.83-1.28z" fill="#84767e"/><path d="m47.38 22.5c1.09-.54 6.23-1.14 8.26.19a4.18 4.18 0 0 1 1.89 5.07c-.65 1.72-3.43 3.45-6.83 3.34s-5.34-1.94-6-3.4.3-4.02 2.68-5.2z" fill="#604f58"/><path d="m46.79 27.24a1.48 1.48 0 0 1 .13-2 5.79 5.79 0 0 1 4.37-1.64c2-.06 3.57.19 4.24 1.53s.11 1.54.11 1.54-.7-1.51-4.37-1.46-4.48 2.03-4.48 2.03z" fill="#84767e"/><path d="m47.25 27.7c0-.26 1-1.67 4.21-1.62s3.91 1.25 3.88 1.43a5 5 0 0 1 -4.13 1.81c-2.5-.08-3.93-1.16-3.96-1.62z" fill="#84767e"/><path d="m36.49 30.32a12.15 12.15 0 0 1 7.49-1c2.57.54 4.13 2.57 4.16 4.05s-1.94 5.31-6.53 5.58-7.15-1.7-7.61-3.8 1-4.05 2.49-4.83z" fill="#604f58"/><path d="m36 34.88s-1.4-1.3 1-2.73a9.44 9.44 0 0 1 7-1.1 3.34 3.34 0 0 1 2.51 2.53 1.44 1.44 0 0 1 -.4 1s-1.14-1.94-4.48-1.94a8.42 8.42 0 0 0 -5.63 2.24z" fill="#84767e"/><path d="m36.62 35.66s.78-1.91 4.37-2.1 4.29 1.62 4.29 1.72a5.63 5.63 0 0 1 -4.64 1.95c-3.05-.06-3.8-.84-4.02-1.57z" fill="#84767e"/><path d="m37.32 26.38a.41.41 0 0 1 .57-.19c.21.16 1 1.11.89 1.38s-.22.32-.35.32-1.19-1.16-1.11-1.51z" fill="#604f58"/><path d="m39.05 25.76c.05-.16.51-.27.75-.16s1.22 1.89 1.06 2-.3.32-.54.19a6.86 6.86 0 0 1 -1.27-2.03z" fill="#604f58"/><path d="m40.88 25.33c0-.17.46-.27.62-.16s1 1.37.84 1.54-.38.4-.57.24a10 10 0 0 1 -.89-1.62z" fill="#604f58"/></svg>