<svg height="64" viewBox="0 0 64 64" width="64" xmlns="http://www.w3.org/2000/svg"><path d="m29.61 64c-4.93 0-8.74-.4-12.49-2.41-5.49-2.94-7.87-6.79-7.71-12.5.12-4.35 2.3-14.29 3.11-17.83-1.83-1.38-5.43-4.39-7-7.68-2.41-4.77-1.03-10.26 1.39-13.58s8.83-7.62 17.26-9.25a42.57 42.57 0 0 1 8.07-.75 39.71 39.71 0 0 1 15 2.75c6.23 2.63 11.42 9.25 12.33 15.84.86 6.15-1.48 10.66-3.75 12.65a8.28 8.28 0 0 1 -2.15 1.35c1.21 3.18 3.48 9.3 4.12 11.9 1 4-.11 11.44-5.62 15.58-5 3.73-9.68 3.78-16.21 3.85h-2.89c-1.22.08-2.37.08-3.46.08z" fill="#fff"/><path d="m14.69 30.44s-5.51-3.72-7.48-7.72-.85-8.67 1.27-11.59 8.24-7 16.06-8.48 16.25-.51 22 1.89a19.65 19.65 0 0 1 11.11 14.32c.8 5.74-1.56 9.56-3.11 10.92a6.46 6.46 0 0 1 -3.44 1.51s4 10.22 4.81 13.66-.14 10-4.9 13.57-9.23 3.39-16.39 3.48-11.92.38-16.62-2.12-6.83-5.65-6.69-10.74 3.38-18.7 3.38-18.7z" fill="#604f58"/><path d="m36.41 56.3a.8.8 0 0 1 1.13-.56 42 42 0 0 1 4.46 3.66 21 21 0 0 0 2.63-.48c-1.31-.92-4.83-3.55-4.83-3.92s.75-.8.94-.8a61.43 61.43 0 0 1 5.65 4.12 14.47 14.47 0 0 0 1.46-.65c-1.14-.82-5.34-3.84-5.46-4.13s.38-.94.75-.94a50.88 50.88 0 0 1 6.08 4.22 11.15 11.15 0 0 0 1.27-1 57.72 57.72 0 0 1 -5.56-3.9c0-.33.76-.8 1-.8a52.2 52.2 0 0 1 5.57 3.54 8.81 8.81 0 0 0 1-1.53c-1.47-.74-5.68-2.9-5.72-3.33a1.1 1.1 0 0 1 .85-1 40.28 40.28 0 0 1 5.43 2.86 10.92 10.92 0 0 0 .31-1.9 53.85 53.85 0 0 1 -5-2.33c-.18-.28 0-1 .29-1.08a28 28 0 0 1 4.71 1.65c0-.53-.09-1.07-.18-1.61a45.82 45.82 0 0 1 -4.82-1.57c-.14-.24-.23-1.37 0-1.37a40.22 40.22 0 0 1 4.55 1.28l-.21-.86c-.08-.29-.17-.6-.27-.92a24.63 24.63 0 0 1 -4-1.15c-.14-.28-.24-.85.09-.94a21 21 0 0 1 3.51.89c-.17-.51-.35-1-.55-1.6a11.47 11.47 0 0 1 -3.19-1.13c-.38-.47-.38-.94-.1-1a10.85 10.85 0 0 1 2.76.69c-.24-.66-.49-1.32-.74-2a7.26 7.26 0 0 1 -2.65-.71c-.42-.47-.52-1.22-.28-1.32a9.29 9.29 0 0 1 2.31.53c-.83-2.13-1.6-4.05-2-5.22l-4.65-1.67c-1.19-.48-2.36-1.27-5.18-2.35s-7-1.23-12-.61-7.92 3.25-8.77 5.93-3.1 14.08-3 17.52 1.6 7.07 4.94 8.58 7.77 1.93 12.72 2c2.42.05 5.38.3 8.38.16-.92-.69-3.71-2.89-3.63-3.25z" fill="#f9f2ed"/><path d="m19.36 24.93a19.7 19.7 0 0 1 8-2.12 29.62 29.62 0 0 1 11 .85 24.6 24.6 0 0 1 5.7 2.6 9.85 9.85 0 0 0 5 .89c.76.14.8 1.46 1.32 1.5a4.07 4.07 0 0 0 2.83-2.07c.52-1.22-.75-3.39-5.09-5.18s-14.12-2.12-23.3-1.88-12.58 2.12-13.09 4 3.86 4.71 3.86 4.71c.33-.05 1.74-2.31 3.77-3.3z" fill="#f6c687"/><g fill="#604f58"><path d="m15.17 22.06a.73.73 0 0 1 1.17.14c.24.33 0 .94-.75.94a.63.63 0 0 1 -.42-1.08z"/><path d="m15.07 24.51a.74.74 0 0 1 1.18.14c.23.33-.05.94-.76.94s-.7-.8-.42-1.08z"/><path d="m18.6 21.82a.74.74 0 0 1 1.18.15c.24.33-.05.94-.75.94s-.71-.8-.43-1.09z"/><path d="m22.37 20.79a.74.74 0 0 1 1.18.14c.23.33-.05.94-.75.94s-.71-.8-.43-1.08z"/><path d="m27.55 20.55a.74.74 0 0 1 1.18.14c.24.33-.05.95-.75.95s-.71-.8-.43-1.09z"/><path d="m32.26 20.88a.74.74 0 0 1 1.18.14c.24.33 0 .95-.75.95s-.69-.8-.43-1.09z"/><path d="m37.21 21.17a.74.74 0 0 1 1.18.14c.23.33 0 .94-.76.94s-.7-.8-.42-1.08z"/><path d="m41.07 21.26a.74.74 0 0 1 1.18.14c.23.33 0 .94-.76.94s-.7-.8-.42-1.08z"/><path d="m43.05 23.61a.74.74 0 0 1 1.18.15c.23.33 0 .94-.76.94s-.7-.8-.42-1.09z"/><path d="m45.92 22.15a.74.74 0 0 1 1.18.15c.23.33-.05.94-.75.94s-.71-.8-.43-1.09z"/><path d="m45.69 25.26a.73.73 0 0 1 1.17.14c.24.33 0 1-.75 1s-.71-.85-.42-1.14z"/><path d="m48.37 23.9a.74.74 0 0 1 1.18.14c.23.33 0 .94-.76.94s-.7-.8-.42-1.08z"/><path d="m50.82 25.83a.74.74 0 0 1 1.18.17c.23.33 0 .94-.76.94s-.7-.83-.42-1.11z"/></g><path d="m28.92 8.31c-.18-.64 1.69-2.73 5.37-2.59s4.8.8 4.66 2.07-1.55 2-5.37 2.07-4.33-.38-4.66-1.55z" fill="#f9f2ed"/><path d="m19.5 32.94c0-.17 1.27-.42 1.36-.19s-.94 5.32-1.41 10.13-.42 5.27.47 6.4 1.6 1.32 1.56 1.7.42.42-.29.47a5.47 5.47 0 0 1 -3.25-2.21c-.42-.95 1.18-14.65 1.56-16.3z" fill="#604f58"/></svg>