<svg height="64" viewBox="0 0 64 64" width="64" xmlns="http://www.w3.org/2000/svg"><path d="m29.58 59.5c-6.49 0-10.7-4.64-12.21-6.64-2.56-3.39-3.89-10.42-3.09-15.4a26.36 26.36 0 0 1 6-13.69 29.4 29.4 0 0 1 2.54-2.86 16.18 16.18 0 0 0 3.79-5.1 32.08 32.08 0 0 0 1.86-5.72c.46-2.53 1.06-4.38 2.5-5.2a3 3 0 0 1 1.53-.39c1.93 0 3.86 1.53 5.17 4.1.46.9 1.12 1.93 1.89 3.12a77.09 77.09 0 0 1 5.7 10.28l1 2.19c2.49 5.41 3.43 7.43 3.65 12.4.27 5.91-.91 9.41-4.86 15.11-4.59 6.53-10.13 7.6-14.95 7.79z" fill="#fff"/><path d="m30.44 10.45c.39-2.14.85-3.45 1.56-3.83s2.46 0 3.92 2.89 4.31 6.22 7.56 13.32 4.24 8.69 4.47 13.85-.58 8.3-4.51 13.87-8.44 6.75-13.44 6.94-8.85-2.92-11-5.83-3.56-9.48-2.73-13.85c2-10.14 6-13.29 12.23-21.23a8.2 8.2 0 0 0 1.94-6.13z" fill="#604f58"/><path d="m41.4 38.72c0-.26.23-.68.55-.68a28.6 28.6 0 0 1 3.32 4 17.55 17.55 0 0 0 .36-2.25 31.28 31.28 0 0 1 -3-3.54c0-.33.46-.59.59-.65a29.13 29.13 0 0 1 2.49 3.06 22.68 22.68 0 0 0 -2-9.51c-2.34-5.7-6.71-12.05-7.85-14.15s-2.69-6.1-2.79-6.16-.49-.15-.49.13c0 2.63 1 4.49-1.71 8-7.36 9.39-12 13-12.39 22.69-.2 5.4 1.69 10.89 5.51 13.49a11.66 11.66 0 0 0 8.49 1.78 18.67 18.67 0 0 1 -2.13-3.21c.09-.29.48-.62.78-.49a18.52 18.52 0 0 1 2.25 3.51 11.85 11.85 0 0 0 1.2-.35c-.57-.91-2.35-3.75-2.35-4a1 1 0 0 1 .91-.68c.35 0 2.26 3 2.76 4.09l.35-.16.74-.4c-.72-1.08-2.65-4-2.62-4.14a1.31 1.31 0 0 1 .94-.52 25.44 25.44 0 0 1 2.73 4c.46-.27.91-.56 1.34-.86-.72-1-2.81-4-2.84-4.16s.32-.94.68-.85a27.14 27.14 0 0 1 3.05 4.31 11.13 11.13 0 0 0 .95-.87c-.66-.85-3-3.85-3-4s.45-.68.68-.62a38.15 38.15 0 0 1 3 3.79 11.34 11.34 0 0 0 .8-1.09c-.72-.9-3.46-4.31-3.48-4.48s.22-.88.45-.81a47.07 47.07 0 0 1 3.58 4.39c.18-.33.36-.67.53-1-.63-.85-3.33-4.48-3.33-4.65s.13-.81.48-.81 2.75 3.08 3.38 4.16c.07-.16.13-.32.19-.49.15-.44.27-.87.39-1.3-.82-1.06-3.49-4.3-3.49-4.52z" fill="#f6c687"/><path d="m26.49 28.51c.22-.14.81.74.71.94s-3.05 1.94-3.82 4.6-.39 7.36-.46 7.49-1 .1-1 0-.33-5.58.25-7.36a11.19 11.19 0 0 1 4.32-5.67z" fill="#604f58"/></svg>