<svg height="64" viewBox="0 0 64 64" width="64" xmlns="http://www.w3.org/2000/svg"><path d="m20.68 50.47c-6.12 0-10.09-.82-12.13-2.51-1.55-1.27-4.26-7.07-5.97-10.96a3.63 3.63 0 0 1 -2.5-3.47 8.24 8.24 0 0 1 .45-2.33 3.27 3.27 0 0 1 -.27-3.07c.71-1.79 5-6 6.34-6.47a7.08 7.08 0 0 1 2-.29 16.6 16.6 0 0 1 3.67-2.94 51.29 51.29 0 0 1 7.86-1.13c1.41-.11 2.51-.15 3.28-.17.72-1 2.16-2.15 5-2.93a19 19 0 0 1 4.95-.69 17.29 17.29 0 0 1 4.91.74 4.26 4.26 0 0 1 2.77 2.36c2.72 0 8.29.08 9.44.12a6.66 6.66 0 0 1 4.78 2.27c.32.34.58.66.79.93a4.69 4.69 0 0 1 2.56.59c.47.32 5.28 6 5.38 7.78a3.85 3.85 0 0 1 -1 2.94 15 15 0 0 1 .8 3.13 5.33 5.33 0 0 1 -1.66 3.71 4.33 4.33 0 0 1 -.4.36 21.53 21.53 0 0 1 -1.24 5.49 8.54 8.54 0 0 1 -6.09 5.45c-2.71.71-29.69 1.08-32.76 1.12z" fill="#fff"/><path d="m2.85 30.75a1.45 1.45 0 0 1 -.79-1.88c.53-1.32 4.44-5.09 5.18-5.36s2.2-.13 2.28-.26a23.8 23.8 0 0 1 3.47-3 52.13 52.13 0 0 1 7.33-1c2.81-.22 4.34-.18 4.34-.18s.09-1.84 4.3-3a15.1 15.1 0 0 1 8.83 0 2.51 2.51 0 0 1 1.8 2.41s9.39.09 10.88.13a4.8 4.8 0 0 1 3.38 1.63 7.59 7.59 0 0 1 1.15 1.56 9.89 9.89 0 0 1 2.55.31c.39.26 4.47 5.53 4.52 6.27a2 2 0 0 1 -.75 1.76l-.57.57a26.36 26.36 0 0 1 1.1 3.73 3.46 3.46 0 0 1 -1.1 2.24 2.5 2.5 0 0 1 -.88.61 21.53 21.53 0 0 1 -1.18 5.88 6.6 6.6 0 0 1 -4.79 4.3c-2.19.57-25.54 1-32.3 1.06s-10.27-.79-11.8-2.07-5.8-11.05-5.8-11.05-2-.31-2-1.8a6.84 6.84 0 0 1 .85-2.86z" fill="#604f58"/><path d="m47.35 43.61s.57-.66 1-.57a9.11 9.11 0 0 1 2.08 2.45l1.41-.16c-.61-.81-1.57-2.16-1.38-2.38s.65-.52 1-.35a13.78 13.78 0 0 1 2 2.54 5.13 5.13 0 0 0 1.12-.33 13.2 13.2 0 0 1 -1.71-2.51.75.75 0 0 1 .79-.44 8.71 8.71 0 0 1 2 2.28 3.17 3.17 0 0 0 .66-.84c-.57-.63-1.6-1.82-1.53-2s.48-.57.74-.49a6.71 6.71 0 0 1 1.2 1.34c.06-.26.09-.47.12-.59a13.11 13.11 0 0 0 .2-3.56c-.17-.18-11.54.74-25.89.66a181.69 181.69 0 0 1 -23.44-1.66c-.22.38 2.28 7 4.28 8s4.09 1 16.77 1.36a148 148 0 0 0 20.14-.69z" fill="#f6c687"/><path d="m4.74 28.78a18 18 0 0 1 3.26-3.29c.44-.09 3.16-.18 3.78-1.06a7.52 7.52 0 0 1 1.88-2.1c.57-.31 5.36-.75 8.47-.92s3.21 0 3.21 0l.26.79a11.38 11.38 0 0 0 -3.51 2c-1.41 1.27.31 2.9 2 3.42s5.53.62 10.71.4 6.8-2.11 6.93-3.21-1.73-1.91-2.67-1.96l-1.62-.08a11.28 11.28 0 0 1 1.4-1.72c.26-.08 12.51 0 12.77.14s2.28 2.81 2.59 2.81a19.86 19.86 0 0 1 2.28.13c.35.13 3.21 4 2.94 4.39s-1.8 1-1.62 1.32 1.53 3.38 1.4 4.16-1.58 1.67-2.89 1.76-16.94.61-26.47.75a129.75 129.75 0 0 1 -21.24-1.46c-2.68-.48-3.55-1.49-3.6-2a2 2 0 0 1 .31-1.23c.18-.22 1-1.71.79-2s-1.49-.69-1.36-1.04z" fill="#f39a9b"/><path d="m26.11 23.07s.89 1.63 2.2 1.93 1.4-.31 1.4-.31a5.68 5.68 0 0 1 -2.9-2.76c-.61-1.8-.87-3.07.93-3.95s4.91-1.05 7.41-1 3.47 1.28 2.86 2.55a36.91 36.91 0 0 1 -2.15 3.95c-.36.39-.53.74.08.92s.79 0 .79 0 .22-.4 1.1-.4 2.33 0 2.5.88-1.18 1.45-5.13 1.85a51.2 51.2 0 0 1 -10.23 0c-2-.26-2.63-1.23-1.62-2.1a7.19 7.19 0 0 1 2.76-1.56z" fill="#f6c687"/><g fill="#604f58"><path d="m11.28 29.39s2.72-4.47 3.11-4.47.84.3.79.57a29.08 29.08 0 0 1 -2.45 4.39c-.35.22-1.58-.18-1.45-.49z"/><path d="m28.26 19.12a3.25 3.25 0 0 1 1.1.05s.39.52 1.8.57a16.43 16.43 0 0 0 3.12-.48c.39 0 .65-.09.65.26s-.7 1.48-3.68 1.48-2.94-.75-3.16-1-.31-.66.17-.88z"/><path d="m21.59 33.52s5.27.13 17 .13a112.11 112.11 0 0 0 14-.61 1 1 0 0 1 .14.83c-.09.13-4.66 1-14.88.92s-16 .09-16.24-.09-.19-1.27-.02-1.18z"/></g></svg>