<svg height="64" viewBox="0 0 64 64" width="64" xmlns="http://www.w3.org/2000/svg"><path d="m47.24 64a5.13 5.13 0 0 1 -2.74-.42c-.31-.18-.86-.51-2.19-2.94h-21.51c-1.63 2.68-2.38 2.82-2.94 2.92s-3.48.2-5.09.2c-2.52 0-3.09-.13-3.66-.56-.29-.21-.74-.55-1.55-2.62a4.81 4.81 0 0 1 -2.72-1.68c-1.25-1.64-1.84-2.72-1.84-5.75 0-2.5-.16-43.3-.16-43.71v-.44c-.08-2.34-.18-5 1.61-6.88a6.82 6.82 0 0 1 5-1.82c3.55-.07 16.64-.14 27.17-.2l11.13-.1h6.14 1.78c1.71.13 5.31 2.13 5.5 7.53.13 3.76-.11 47.83-.39 49.81a4 4 0 0 1 -3.71 3.66c-.26 0-.6 0-.93 0h-.2c-2.31 2.66-3.1 2.73-3.63 2.77s-3.1.23-5.07.23z" fill="#fff"/><path d="m4.79 9.43c-.11-3.38-.48-7.08 4.7-7.18s31.57-.25 38.28-.25 7-.05 7.76 0 3.54 1.22 3.7 5.65-.16 47.95-.37 49.48a2.1 2.1 0 0 1 -2 2c-.63 0-1.84 0-1.84 0s-2.28 2.74-2.91 2.79-6.12.37-6.65.06-2-3.22-2-3.22l-23.81-.06s-1.59 2.85-2.17 3-6.81.32-7.23 0a13.44 13.44 0 0 1 -1.25-3 3 3 0 0 1 -2.59-1.06c-1-1.27-1.43-2-1.43-4.49s-.19-43.72-.19-43.72z" fill="#604f58"/><path d="m42.33 53.57a1.11 1.11 0 0 1 1.16-.26 16.84 16.84 0 0 1 1.95 3h2.15c-.52-.81-1.72-2.73-1.51-3a1 1 0 0 1 1.27-.11 17 17 0 0 1 1.77 3.12h2a26 26 0 0 1 -2.41-3.25c.05-.27 1.11-.74 1.37-.43a41.42 41.42 0 0 1 2.76 3.67h1.5a37.7 37.7 0 0 1 -3-3.86c0-.32.68-.58 1.11-.42a33 33 0 0 1 3.71 4.24 1.38 1.38 0 0 0 .3 0 18.25 18.25 0 0 0 .14-2.6 37.91 37.91 0 0 1 -2.68-2.73c-.1-.32.48-1.21.8-1.16a10.32 10.32 0 0 1 1.93 1.88q0-.95 0-2a8.54 8.54 0 0 1 -1.44-1.66c-.1-.37.11-1 .53-1a1.93 1.93 0 0 1 .94.38c.16-12.82.19-35.49.12-38.35-.11-4-1.59-4.33-2.43-4.54s-5.86-.26-15.68-.05-28.73.16-30 .26-1.16 2-1.16 3.33c0 0 0 44.09.16 45.73a2.44 2.44 0 0 0 2.31 2.66c1.22-.05 7.71.06 17.75 0l16.25-.07a16 16 0 0 1 -1.67-2.78z" fill="#adceea"/><path d="m10.49 58.75h7.76s-.95 1.47-1.37 1.58a54 54 0 0 1 -6 0c-.23-.16-.39-1.58-.39-1.58z" fill="#f6c687"/><path d="m45.34 58.8 8.13.05s-1.32 1.59-1.69 1.69-5 .06-5.44 0-1-1.74-1-1.74z" fill="#f6c687"/><path d="m10.07 7.21c0-.22 1.11-.53 1.26-.21a30.26 30.26 0 0 1 -.1 5.81c-.21.16-.69.53-1.11 0s-.05-5.28-.05-5.6z" fill="#604f58"/><path d="m14.71 9.9a3.25 3.25 0 0 1 3.29-3.37 3.16 3.16 0 0 1 3.59 3.32c-.11 1.11-.74 2.8-3.43 3.06a2.9 2.9 0 0 1 -3.45-3.01z" fill="#604f58"/><path d="m16.09 9.83a2 2 0 0 1 2-2 1.91 1.91 0 0 1 2.16 2 2 2 0 0 1 -2.06 1.84 1.75 1.75 0 0 1 -2.1-1.84z" fill="#c5dda3"/><path d="m24.17 8.69c0-1.06.26-1.9 1.95-1.9s11.83 0 13 0 1.42.74 1.53 1.42a21.92 21.92 0 0 1 -.12 3.79c-.1.63-.89.84-1.74 1.05s-12.35.32-13.2.21a1.73 1.73 0 0 1 -1.48-1.37c0-.45.06-3.2.06-3.2z" fill="#604f58"/><path d="m25.8 8.27c.47-.35 13.2-.11 13.36.21s.32 3.33 0 3.54-13.16-.11-13.36-.27a9.69 9.69 0 0 1 0-3.48z" fill="#ddeff2"/><path d="m43.86 10c0-1.11.58-2.85 3.49-2.8s3.32 2.06 3.32 2.8a3.44 3.44 0 0 1 -6.81 0z" fill="#604f58"/><path d="m45.13 10c-.08-.79.53-1.95 2.43-1.74a1.84 1.84 0 0 1 1.69 2.43 2 2 0 0 1 -2.38 1.16 1.86 1.86 0 0 1 -1.74-1.85z" fill="#ef7d7b"/><path d="m13.08 24.27s-.06-3.75 1.21-4.54 2.9-.74 3.8-.9 31.1-.37 32-.32 1.69 1.11 1.8 2.85a16.65 16.65 0 0 1 0 2.59s2.11.21 2.11 1.85-1.74 1.64-1.74 1.64-.32 19.32-.37 20.11a2.09 2.09 0 0 1 -2.22 2.22c-2 .11-20.33.64-26.77.69s-8.77.31-9.08-1.64-.59-21-.59-21-2.11.26-2.21-.69.98-2.81 2.06-2.86z" fill="#604f58"/><path d="m14.71 25.22s-.26-3.8.53-4.44 10.77-.9 20.38-1 14.05-.42 14.68.16.58 4.86.58 4.86-12.62.36-21.91.36-14.26.06-14.26.06z" fill="#fcdfc8"/><path d="m14.66 27.81s13.89-.37 22.65-.37 13.47 0 13.47 0 .1 18.69-.16 19.69-.53 1.43-1.21 1.48-18.49.37-24.14.53-9.66.26-10-.69-.61-20.64-.61-20.64z" fill="#fcdfc8"/><path d="m18.88 42.12s-1.95-.8-1.74-4.39a5.93 5.93 0 0 1 5.39-5.44 17.55 17.55 0 0 1 4.22.58 6.64 6.64 0 0 1 5-2.21 6.51 6.51 0 0 1 5.12 1.79s4.7-2.37 8 .53 1.54 7.55.8 9c0 0 3.22-.16 3.32.16a3.69 3.69 0 0 1 0 1.74c-.16.11-32.26.48-32.53.21s-.26-1.69 0-1.79a23.63 23.63 0 0 1 2.42-.18z" fill="#604f58"/><path d="m20.89 42.17s-2.59-1.69-2.64-3.75a4.9 4.9 0 0 1 5.18-5c3.48.26 4.54 2.95 4.91 2.95s.74-.16.74-.42a2.47 2.47 0 0 0 -.74-1.48 3.86 3.86 0 0 1 -.64-.79 7.8 7.8 0 0 1 5-1.74c2.95.05 4.91 4.06 5.22 4.22s1-.32 1-.53a3.63 3.63 0 0 0 -.74-1.58l-.42-.58s3.06-1.48 5.12-.32a5.29 5.29 0 0 1 2.56 5.85c-.58 2.16-1.63 3.33-1.9 3.33z" fill="#f6c687"/><g fill="#604f58"><path d="m20.94 38.63a2.86 2.86 0 0 1 .11-2.17c.42-.79 1.11-1.16 1.58-.84s.64.74.21 1.11-.89.37-1 .84.16 1 0 1.27-.79.05-.9-.21z"/><path d="m24.9 37.1c.36-.41 1.48 0 1.64.63s-.79 1.22-1.42.79a.91.91 0 0 1 -.22-1.42z"/><path d="m32.19 35a.92.92 0 0 1 1.43.53c.1.68-.85 1.16-1.32.89s-.43-1.01-.11-1.42z"/><path d="m29.39 39.11a.92.92 0 0 1 1.43.52c.1.69-.85 1.16-1.32.9s-.42-1.06-.11-1.42z"/><path d="m32.82 38.05a.92.92 0 0 1 1.43.53c.11.68-.84 1.16-1.32.89s-.42-1.05-.11-1.42z"/><path d="m38.37 37.84a.91.91 0 0 1 1.42.53c.11.68-.84 1.16-1.32.89s-.42-1.05-.1-1.42z"/><path d="m41.54 35.2a.91.91 0 0 1 1.42.53c.11.68-.84 1.16-1.32.89s-.42-1.05-.1-1.42z"/><path d="m42.8 37.79a.92.92 0 0 1 1.43.52c.11.69-.84 1.16-1.32.9s-.42-1.06-.11-1.42z"/></g></svg>