<svg height="64" viewBox="0 0 64 64" width="64" xmlns="http://www.w3.org/2000/svg"><path d="m14 59.57c-1.79 0-2.39-.17-2.88-.5s-1-.9-1.86-4c-2.06-.19-5.1-.93-6.33-3.61-1.41-3.1-2.53-12.6-2.85-24.21-.17-6.08-.21-16.61 1.4-18.81 1.25-1.72 5.42-2.87 12.4-3.44 4.53-.35 14.78-.61 23.84-.61 4 0 9.32.05 12.48.29 1.14.09 2.19.1 3.15.1h1.14c4.78 0 8.22.65 8.88 9 .56 7.21 1 33.8.12 36.29a5.83 5.83 0 0 1 -4.38 4c-.59.14-1.12.24-1.56.3-2 3.78-2.58 4-3.1 4.26a23.81 23.81 0 0 1 -5.27.55 4.38 4.38 0 0 1 -1.79-.18c-.44-.19-1.08-.46-2.45-3.25l-23.87-.21c-2.07 3.19-2.69 3.46-3.07 3.62a14.25 14.25 0 0 1 -4 .41z" fill="#fff"/><path d="m10.79 53.19s-4.79.24-6.09-2.53-2.37-11.93-2.7-23.46.41-16.75 1-17.62 3.84-2.06 11-2.58 28.83-.87 36-.32 10.72-1.76 11.43 7.32.87 33.74.24 35.48a3.88 3.88 0 0 1 -3 2.76 17.26 17.26 0 0 1 -2.37.4s-2.06 4-2.61 4.26a21.43 21.43 0 0 1 -5.53.32c-.56-.24-2-3.4-2-3.4l-26.16-.23s-2.29 3.55-2.84 3.79-4.51.39-5 .08-1.29-3.95-1.37-4.27z" fill="#604f58"/><path d="m55.29 45.29c0-.16-.1-1 .37-1s2.28 2 3.37 3.16c.12-.77.22-1.7.31-2.77-1.12-.87-3.41-2.7-3.26-3s0-.95.58-.79a12.41 12.41 0 0 1 2.79 2.11c0-.84.07-1.75.09-2.71a17.64 17.64 0 0 1 -2.77-2.23c-.16-.42-.11-1 .21-1a10.46 10.46 0 0 1 2.57 1.72c0-.59 0-1.2 0-1.83a15 15 0 0 1 -2.61-2.2c0-.32.21-1.06.47-.95a16.37 16.37 0 0 1 2.09 1.2c0-.66 0-1.36 0-2.09-.65-.28-2-.88-2.05-1.27s-.1-.79.16-.9a4.86 4.86 0 0 1 1.86.63c-.18-8-.55-18.71-1.62-20.54-1.4-2.28-11.04-1.57-23.28-1.83s-23.31.58-26.57 1.29-3.12 4-3 8.61c.08 3 0 16.83.55 23.23s1.76 7.87 2.95 8.3 13.5 1.57 24.25 1.18c5-.18 10.73-.47 15.51-.76-.38-.52-1-1.45-.76-1.77a1.13 1.13 0 0 1 .89-.37s1 1.4 1.32 2l2.08-.14a9.59 9.59 0 0 1 -1.66-2.43 1 1 0 0 1 .95-.58 13.56 13.56 0 0 1 2.14 2.91l2.13-.17a26.17 26.17 0 0 1 -2.32-3c0-.21.63-.9.95-.79a17.71 17.71 0 0 1 3.13 3.56 5.19 5.19 0 0 0 1.24-.07 2.34 2.34 0 0 0 .42-1.06c-1.2-1.25-3.44-3.53-3.48-3.65z" fill="#ef7d7b"/><path d="m12.45 53.35c.31.08 5.84.08 5.84.31s-.95 2.53-1.58 2.53-3.79-.19-3.79-.19z" fill="#f7babe"/><path d="m47.92 53.27c.24.08 6.4-.32 6.32-.08a14.56 14.56 0 0 1 -1.5 2.69c-.24.08-3.63.15-3.63.15z" fill="#f7babe"/><path d="m12.13 22.61c.39 0-.32-3.08 4.74-4s11.22-1.1 19.59-1.1 13 .16 14.78.87 1.58 6 1.58 6 3.08.4 3.48 1.5-1 2.61-1.66 2.77a12.11 12.11 0 0 1 -1.5.24s.31 11.85.23 12.8-.55 3.63-5.92 4.26a165.3 165.3 0 0 1 -20.31 1c-7.74-.08-11-.24-12.24-1.27s-2.69-2.92-2.77-9.08-.08-9-.08-9-3.08-.47-3-2.29 2.45-2.62 3.08-2.7z" fill="#604f58"/><path d="m13.71 25.06c0-.31-.39-2.92.32-3.87s5.29-2.37 14-2.53 19.36.16 21.49.56 2.37 3 2.45 4.34a24.58 24.58 0 0 1 -.08 3.08l-2-.08a3.6 3.6 0 0 0 -.79-3.16c-1.27-1.26-1.74-1.34-4-1.34s-8.54-.08-9.48.16a4.11 4.11 0 0 0 -2.37 1.9 6.88 6.88 0 0 0 -.32 2.13s-6.24.39-12 .08-7.22-1.27-7.22-1.27z" fill="#ddeff2"/><path d="m34.38 26.22s.16-1.53.64-1.95.84-.42 1.15-.15.43 2.37.43 2.37z" fill="#f6c687"/><path d="m36.81 23.38a3.21 3.21 0 0 1 1.26 2.47c.11 1.53-.26 15.54 0 15.7a38.55 38.55 0 0 0 6.42.26c2-.1 3.69-.84 3.85-1.31s.32-15.33 0-16-1.84-1.21-2.84-1.21-8.69.09-8.69.09z" fill="#fcdfc8"/><path d="m34.59 29.07a8.3 8.3 0 0 1 2.06.1c.05.16.42 10.69.1 10.8s-2 .11-2.16-.16 0-10.74 0-10.74z" fill="#f6c687"/><path d="m13.21 27.8s7.32.79 12.85 1 7.06.21 7.06.21 0 10.38.05 10.85.48 1.37 1.37 1.43 2.37.05 2.37.05a1.29 1.29 0 0 0 .58 1.32c.74.36 3.53.42 6.74.36s5.11-1.63 5.32-2 .32-12 .32-12a1.81 1.81 0 0 0 1 .15 10.14 10.14 0 0 1 1.32 0s.16 11.91-.16 12.54-1.26 3.11-6.9 3.53-20.75.58-24.6.26-4.63-.31-5.74-2.47a19 19 0 0 1 -1.53-6.38c.06-.37-.05-8.85-.05-8.85z" fill="#ddeff2"/><g fill="#604f58"><path d="m16.53 37.13c-.08-.18.52-.79.84-.64s3.16 4.38 3.06 5-.32.79-.48.79a58.49 58.49 0 0 1 -3.42-5.15z"/><path d="m19.58 33.65s.74-.79 1.16-.74 5.64 6.32 5.59 6.74-.32.48-.64.53-6-6.18-6.11-6.53z"/><path d="m25.32 31.7s.69-.9 1.16-.84 4.64 5.21 4.53 5.69-.31.84-.68.73a72.54 72.54 0 0 1 -5.01-5.58z"/><path d="m27.43 22.38c-.19-.14.74-.74 1.16-.58s1.41 1.68 1.21 2.05-.53.74-.74.69-1.42-2-1.63-2.16z"/><path d="m11.16 13.84c.41-1.45 2.37-1.73 3.84-1.31s1.26 2.26.63 3.26a2.46 2.46 0 0 1 -3.37.53 2.32 2.32 0 0 1 -1.1-2.48z"/><path d="m20.22 12.79a3.34 3.34 0 0 1 3.31-.58c1.37.69.79 2.79-.26 3.32a4 4 0 0 1 -3.27-.26c-.63-.37-.52-1.95.22-2.48z"/></g></svg>