<svg height="64" viewBox="0 0 64 64" width="64" xmlns="http://www.w3.org/2000/svg"><path d="m59.29 47.43a57.9 57.9 0 0 0 -8.45-2.81 2.43 2.43 0 0 0 -.24-.62 2.33 2.33 0 0 0 -1.17-1 12.3 12.3 0 0 0 -3.31-5.78 32.7 32.7 0 0 0 -6.73-5.54 2.3 2.3 0 0 0 1.24-1.25 2.3 2.3 0 0 0 .68.11 2.1 2.1 0 0 0 .36 0c1.39-.23 1.71-1.43 2-2.4.11-.43.28-1 .54-1.9a27.15 27.15 0 0 0 .79-7.24 2.29 2.29 0 0 0 -2.39-2 5.55 5.55 0 0 0 2.39-1.69 6.88 6.88 0 0 0 1.31-5.2c-.37-3-3.43-4.39-6.3-4.39a5.09 5.09 0 0 0 -1.9.28 4.86 4.86 0 0 0 -2.74 3.06 4.35 4.35 0 0 0 -3.77-1.84 4.76 4.76 0 0 0 -2.12.46 4.25 4.25 0 0 0 -2.48 4.39 4.16 4.16 0 0 0 3.29 3.47 5.52 5.52 0 0 0 1 .09 4.93 4.93 0 0 0 3.68-1.57 5.74 5.74 0 0 0 .36-.5 5.41 5.41 0 0 0 5.25 3.81h.52a2.21 2.21 0 0 0 -.36.23 2.08 2.08 0 0 0 -.81 1.63 2.94 2.94 0 0 0 -.45.05 2.34 2.34 0 0 0 -1.82 2.35c-.06.45-.15 1.2-.4 2.43a27 27 0 0 1 -1.28 4.21 3.23 3.23 0 0 0 -.32 1.25c-1.35-.72-2.86-1.47-4.56-2.26-7.87-3.63-12.8-4.13-17-4.13-.89 0-1.78 0-2.68.06h-.49c0-.06.06-.11.08-.17a2.46 2.46 0 0 0 -1-3.13 2.45 2.45 0 0 0 -1.09-.24c-.69 0-1.85.21-4.72 1.86-3.15 1.83-3.93 3.94-4.11 4.61a2.16 2.16 0 0 0 .28 1.88 2.61 2.61 0 0 0 2.2 1v3.3c-.14 7.11-.08 7.24.17 7.79s1.13 2.08 4.62 4.76a1.88 1.88 0 0 0 -.49-.06 2.43 2.43 0 0 0 -2.17 1.44 2.14 2.14 0 0 0 .14 2.29 15 15 0 0 0 2.16 2.1 32.57 32.57 0 0 0 6.89 3.85c4.08 1.79 4.41 1.93 5.08 1.93a2.1 2.1 0 0 0 1.47-.6 3.73 3.73 0 0 0 .84-1.39c.62-1.84-1-2.51-2.74-3.22a53.92 53.92 0 0 1 -5.07-2.32 29.57 29.57 0 0 1 -3.1-1.87c3.4 2.09 7.65 3.91 14.42 6.24a38.71 38.71 0 0 0 12.37 2.35 13.75 13.75 0 0 0 2.46-.17c.59-.12 1-.2 3.65-3.28 1.47.73 1.72.74 2.07.74a1.91 1.91 0 0 0 .48-.06 2.35 2.35 0 0 0 .45-.17c2.37 1.53 7.66 4.82 10.22 5.42a9 9 0 0 0 2 .23 5.19 5.19 0 0 0 5.43-4.18c.65-3.68-1.84-5.39-4.63-6.69zm-38.88-28.11a3.82 3.82 0 0 0 .73 2.9 4.83 4.83 0 0 0 3.48 1.71 4.89 4.89 0 0 0 .54 0 5.17 5.17 0 0 0 4.06-2 4.34 4.34 0 0 0 .78-3.7c-.48-1.89-2.33-3.06-4.83-3.06a6.11 6.11 0 0 0 -2.08.34 4.78 4.78 0 0 0 -2.68 3.81zm1.15-5.5a3.11 3.11 0 0 0 .43 0 4 4 0 0 0 3-1.48 3.24 3.24 0 0 0 .71-2.72 3.06 3.06 0 0 0 -3.14-2.38 3.9 3.9 0 0 0 -2.37.78 3.23 3.23 0 0 0 -1.36 3.47 3.26 3.26 0 0 0 2.73 2.33zm25.68 3.76a2.77 2.77 0 0 0 -2.15 2.24 2.57 2.57 0 0 0 .91 2.18 9.54 9.54 0 0 1 1.22 1.56 18.49 18.49 0 0 1 1.57 5.57 2.09 2.09 0 0 0 2 2 2 2 0 0 0 1.41-.57c.87-.61 1-1.7.88-3.53a18.13 18.13 0 0 0 -.78-4.37 10.14 10.14 0 0 0 -1.5-3 3.71 3.71 0 0 0 2.91-1.87 3.44 3.44 0 0 0 -.14-3.55 4.07 4.07 0 0 0 -3.43-2 3.43 3.43 0 0 0 -3.33 4.42 4.49 4.49 0 0 0 .43.92z" fill="#fff"/><path d="m2 26.65s.38-1.81 3.17-3.42 3.72-1.69 4-1.56 0 .84 0 .84a11.31 11.31 0 0 0 -4 2.16 26.58 26.58 0 0 0 -2.24 2.33c-.21.12-1.14.08-.93-.35z" fill="#604f58"/><path d="m4.49 28.64c-.1-.54 1.61-3.25 7-3.51s10.4 0 18.73 3.89 12 6.85 14.45 9.55 2.88 4.7 2.83 4.91a5.69 5.69 0 0 1 -.42.88s1.65.34 1.82.64a4 4 0 0 1 .21 1.18 65.63 65.63 0 0 1 9.34 3c3.26 1.52 3.85 2.75 3.51 4.57s-2.11 3.08-5 2.41-10.69-5.88-10.69-5.88a6.75 6.75 0 0 1 -.89.64 24.91 24.91 0 0 1 -2.58-1.23s-3.13 3.72-3.55 3.8-5.33.81-13.82-2.11-12.69-4.94-16.16-7.48-4.61-4.14-4.82-4.61.13-10.23.04-10.65z" fill="#604f58"/><path d="m6.57 28.77c0-.26 5.36-3.05 14.87-.81s14.29 4.95 19 9.6 5 5.41 4.77 5.83a3.8 3.8 0 0 1 -.72.81l-3.22-.2c-.76-.05-2.62-.38-2.62-.38a2.73 2.73 0 0 0 1.22-3.13c-.72-2-1.35-2-2-2a6.43 6.43 0 0 0 -1.4 0s-.34-1.35-1.18-1.65a3.51 3.51 0 0 0 -1.82 0 2.5 2.5 0 0 0 -1.69-1.73 4.13 4.13 0 0 0 -2.71 0c-.12.08-.67-1.31-2-1.74a7.49 7.49 0 0 0 -2.66-.29s.25-1.78-2.63-2.37-3.67 0-4 .3-.34 1.18-.51 1.18a.91.91 0 0 1 -.33-.08s.29-1.36-.85-1.69a4 4 0 0 0 -3.34.33c-1.06.64-1.35 1.31-1.22 1.78a3.63 3.63 0 0 1 .08 1s-4.75-2.65-5.04-4.76z" fill="#f9f2ed"/><path d="m39.92 45.93c-2.41-.47-11-1.69-18.81-5.24s-14.35-8.86-14.67-8.54a27.62 27.62 0 0 0 0 6.42c.3.38 1.4 2.16 5.5 4.74a56.2 56.2 0 0 0 17.79 7.23c.93.19 1.76.35 2.52.48.42-.93 1.63-3.36 1.88-3.36s.84.17.72.42-1.05 2.32-1.5 3.12c.4.07.76.12 1.1.16a18.67 18.67 0 0 1 2.08-3.19c.3 0 .68 0 .64.21s-1.12 2.26-1.67 3.11q.86.09 1.47.12c.32-.79 1.4-3.41 1.72-3.48s1-.09 1 .12a35.12 35.12 0 0 1 -1.69 3.37 4.75 4.75 0 0 0 1.17-.15c.42-.13 4-5.2 4-5.2a12.11 12.11 0 0 1 -3.25-.34z" fill="#ef7d7b"/><path d="m43.47 48.84s2.53-3.55 2.83-3.55 1.73.47 1.82.81a6.43 6.43 0 0 1 -1.27 2.49c-.51.59-1.27 1.35-1.52 1.35a7.68 7.68 0 0 1 -1.86-1.1z" fill="#ddeff2"/><path d="m58.68 50.49c-2.49-1.22-9.59-3.42-9.59-3.42a8.27 8.27 0 0 1 -.59 1.1l-1 1.39s1.86 1 5.71 3.34l1.54 1c.26-.5 1-1.66 1.21-1.62s.59 0 .5.33a6.59 6.59 0 0 1 -1 1.72l1 .55a21.83 21.83 0 0 1 1.54-2.78.46.46 0 0 1 .6.3 11.94 11.94 0 0 1 -1.35 2.78 3.56 3.56 0 0 0 1.18.13s1.14-2.49 1.48-2.53.63-.13.59.12a25.73 25.73 0 0 1 -1.36 2.34 2.59 2.59 0 0 0 1.86-1.37c.35-.76.18-2.15-2.32-3.38z" fill="#84767e"/><path d="m6.4 47.37c-.11-.14.21-.64.42-.64a43 43 0 0 0 5.71 3.85c3.63 1.94 7 3 6.89 3.21a1.94 1.94 0 0 1 -.38.63c-.13.13-.55 0-4.4-1.73a30 30 0 0 1 -6.47-3.59 14.53 14.53 0 0 1 -1.77-1.73z" fill="#604f58"/><path d="m14.3 34.09c-.42-.08-2-1.1-1.94-1.73s1.05-1.27 2.32-1.23 1.86.68 1.9.93-.25.51-.25.51a2.12 2.12 0 0 0 -1.1.64c-.34.46.09.54-.34.67a5.16 5.16 0 0 0 -.59.21z" fill="#d16d6c"/><path d="m15.82 35.36c-.2-.22.13-2.2 1.19-2.28a2.34 2.34 0 0 1 2.36 1.65 9.94 9.94 0 0 1 -.08 2.74 12.55 12.55 0 0 1 -3.47-2.11z" fill="#f6c687"/><path d="m18.49 32.28s-.17-1 2.15-.72 2.66 1.31 2.66 1.44-.21.22-.21.22a3.26 3.26 0 0 0 -1.43.29 1.5 1.5 0 0 0 -.72 2 3.25 3.25 0 0 0 1 1.22c.17.09.21.09.13.3s-.3.21-.47.63a1.48 1.48 0 0 0 -.08.81 10.62 10.62 0 0 1 -1.23-.51l-.38-.3a2.27 2.27 0 0 0 .42-3 7.93 7.93 0 0 0 -1.84-2.38z" fill="#f6c687"/><path d="m22.92 34.09c.84-.2 3.72 0 4.4.59s.51 1.06.3 1.23a5.13 5.13 0 0 1 -2.16.25 25.83 25.83 0 0 1 -3.25-.29c-.55-.21-1.06-1.35.71-1.78z" fill="#ef7d7b"/><path d="m22.25 38.7c-.12-.07.25-1.52 2.07-1.18s2.07 1.6 2.07 1.94a3.29 3.29 0 0 1 -.25.93 39.17 39.17 0 0 1 -3.89-1.69z" fill="#f39a9b"/><path d="m26.9 38.57s.12-.63-.17-.84a3.28 3.28 0 0 1 -.59-.59 7 7 0 0 0 1.6-.17c.51-.17.89-1 1.06-.89a.63.63 0 0 1 .25.34 1.93 1.93 0 0 1 -.42.55.8.8 0 0 0 -.46.93c.16.5.29.55.46.59a5.21 5.21 0 0 0 .8 0s-.21-.76.43-.76.8.51 1 .46.17-.59.47-.5.71.29.67.46-.13.59-.25.59a1.52 1.52 0 0 0 -1.23 0 4.11 4.11 0 0 0 -1.1.93 1.79 1.79 0 0 0 -1.22-1 9.69 9.69 0 0 0 -1.3-.1z" fill="#f6c687"/><path d="m27.49 40.48s-.68-.81.17-.77 1.86 1.23 2.24 1.29.59 0 .59-.09-.3-1.44 1.35-1.39a2.67 2.67 0 0 1 2.16 1.48c.17 0 .59-.29.59-.5a1.61 1.61 0 0 0 -.59-1.33 8.34 8.34 0 0 0 -1.19-.85 1 1 0 0 1 1.48-.76c1.27.55 1.36 1.82 1.74 1.94s1.14-.08 1.77.13a1.71 1.71 0 0 1 1.14 2.16 2.1 2.1 0 0 1 -2 1.56c-.26 0-2.29-.51-5.33-1.35a18.6 18.6 0 0 1 -4.12-1.52z" fill="#f6c687"/><path d="m35.22 41.62a7.18 7.18 0 0 1 1.91 0c.33.17.55.38.17.55a2.21 2.21 0 0 1 -1.06.25c-.47 0-.85 0-1.06-.17s-.13-.63.04-.63z" fill="#604f58"/><path d="m30.41 36.67c-.22 0-.43.17-.64 0a.56.56 0 0 1 .3-1 2.09 2.09 0 0 1 2 .46c.46.51.63 1 .42 1.14s-.09.34-.38.13-.38-.68-.89-.76a1.68 1.68 0 0 0 -.81.03z" fill="#f6c687"/><path d="m23.85 17.31c.89-.35 3.85-.42 4.32 1.4s-1.4 3.51-3.34 3.29-2.67-1.22-2.5-2.4a2.92 2.92 0 0 1 1.52-2.29z" fill="#604f58"/><path d="m24.7 18.16c.64-.39 2.32.34 2.2 1.27a1.84 1.84 0 0 1 -1.9 1.57c-.89-.09-3-1.19-.3-2.84z" fill="#f6c687"/><path d="m21.4 9.58c.71-.58 2.2-.58 2.41.42s-1.06 2-2 1.86-1.81-1.18-.41-2.28z" fill="#604f58"/><path d="m22 10.08a.55.55 0 0 1 .93.47c-.13.38-.76.51-1 .46s-.53-.38.07-.93z" fill="#c5dda3"/><path d="m30.36 9.41c1-.5 3.47-.38 3.68 1.52s-1.65 3-3.42 2.71-2.75-2.96-.26-4.23z" fill="#604f58"/><path d="m30.81 10.24c.58-.29 2-.22 2.16.89a1.57 1.57 0 0 1 -2 1.59 1.28 1.28 0 0 1 -.16-2.48z" fill="#d16d6c"/><path d="m38.86 7.8c.84-.35 5.16-.25 5.49 2.54s-1.1 4.86-3.42 5.07a3.52 3.52 0 0 1 -3.93-3c-.21-1.56 0-3.85 1.86-4.61z" fill="#604f58"/><path d="m39.87 8.73c1-.3 3.72.64 3.68 2.58s-2 4.1-4.18 2.79-2.37-4.52.5-5.37z" fill="#d16d6c"/><path d="m49.3 14.31a1.91 1.91 0 0 1 2.7.89 1.63 1.63 0 0 1 -1.73 2.45c-1.44-.17-2.27-2.49-.97-3.34z" fill="#604f58"/><path d="m49.91 15.13a.9.9 0 0 1 1.25.42.77.77 0 0 1 -.82 1.15c-.65-.08-1.03-1.17-.43-1.57z" fill="#afc68c"/><g fill="#604f58"><path d="m37.55 29.49a37.69 37.69 0 0 0 1.56-5.08c.55-2.7.38-3.21.64-3.25s.63-.09.67.21a29.12 29.12 0 0 1 -.84 5.83c-.59 2.12-.59 2.58-1 2.75s-1.03-.13-1.03-.46z"/><path d="m40.8 28.18a50.4 50.4 0 0 0 1.2-7.32c-.09-1.52-.3-1.6-.09-1.77s1.14-.34 1.19.12a25.42 25.42 0 0 1 -.77 6.47c-.71 2.37-.71 2.92-1 3s-.57-.38-.53-.5z"/><path d="m47 20.06a.85.85 0 0 1 .72-.59c.33 0 1.86.93 2.74 3.72a12.61 12.61 0 0 1 .59 5.75c-.16.08-.29.46-.38-.13s-.71-4.57-1.86-6.34-1.81-2.07-1.81-2.41z"/></g></svg>