<svg height="64" viewBox="0 0 64 64" width="64" xmlns="http://www.w3.org/2000/svg"><path d="m21.52 49.62c-14 0-17.29-5-17.94-6.53a45.61 45.61 0 0 1 -1.28-4.42c-.28-1.08-.66-2.52-.83-3-.64-.88-2-2.89-1.28-5.16.74-2.51 3.81-5.11 6.44-6.76a29.84 29.84 0 0 1 6.14-2.82 10.54 10.54 0 0 1 2.89-1.82c.18-.08.36-.14.52-.2a3.38 3.38 0 0 1 .09-.41 4.67 4.67 0 0 1 2.73-2.87 13.92 13.92 0 0 1 5.76-1.25 8.15 8.15 0 0 1 3.35.61 3.72 3.72 0 0 1 2.06 2.9 8.65 8.65 0 0 1 1.15.27 5.52 5.52 0 0 1 1.91 1 31.67 31.67 0 0 1 7.77 1.54 13.11 13.11 0 0 1 5 2.93 45 45 0 0 1 7.19-1.88 27.37 27.37 0 0 1 4.46-.44c2.62 0 4.38.66 5.35 2a5.55 5.55 0 0 1 1 4.13 4.47 4.47 0 0 1 -2 2.95 6.12 6.12 0 0 1 -3.55.89h-1.26c-.47 0-1 0-1.51 0s-1.11 0-1.63.07a19.25 19.25 0 0 0 -6.05 1.44l-.57.21-1.35.53c-1.45 8.82-1.79 9.51-1.93 9.78-1 1.94-7.49 6-21.45 6.3z" fill="#fff"/><path d="m13.75 22.65a9.75 9.75 0 0 1 2.6-1.73 15.58 15.58 0 0 1 2-.64s-1.1-1.66 1.54-2.9 6-1.32 7.45-.64.94 2.94.94 2.94a8.89 8.89 0 0 1 2.52.33 2.92 2.92 0 0 1 1.62 1.06 30.14 30.14 0 0 1 7.94 1.47c4 1.35 5 3.38 5 3.38a42.22 42.22 0 0 1 8.13-2.26c4.59-.79 7-.41 7.9.79s1.06 3.32-.45 4.33-3.69.27-7 .57a22.49 22.49 0 0 0 -7.15 1.84 14.12 14.12 0 0 0 -2.41 1s-1.55 9.48-1.92 10.23-5.76 5-19.76 5.23-16.89-4.27-17.34-5.32-1.92-7.26-2.18-7.64-1.62-2-1.13-3.65 2.78-3.88 5.61-5.64a28.49 28.49 0 0 1 6.09-2.75z" fill="#604f58"/><path d="m34.68 41.73c0-.23.48-.53.75-.53a10.22 10.22 0 0 1 2 2.15c.58-.23 1.1-.46 1.55-.68a17.84 17.84 0 0 1 -2.59-2.45c.07-.22.75-.52.94-.49a23.84 23.84 0 0 1 2.67 2.42c.2-.12.38-.23.53-.34a33.48 33.48 0 0 1 -2.34-2.49c0-.19.49-.49.64-.45a20 20 0 0 1 2.39 2.31 5.07 5.07 0 0 0 .33-1 21 21 0 0 1 -2.33-2.06c0-.23.19-.64.45-.64a9.54 9.54 0 0 1 2.15 1.61c.06-.29.13-.6.2-.92a9.11 9.11 0 0 1 -1.52-1.52c0-.23.34-.57.57-.53a6.47 6.47 0 0 1 1.16 1c.5-2.48.94-5.16.94-5.16s-1 .83-5.87 2.75-12.86 2.5-20.84 2.69-11.18-1.73-11.18-1.73 1.62 6.47 2.07 7 6 3.54 16.52 3.24a42.24 42.24 0 0 0 12.63-2.2 14.51 14.51 0 0 1 -1.82-1.98z" fill="#f6c687"/><path d="m18.76 21.44s1.24 2 1.5 2 .64-.42.53-.68-2.07-2.52-1.47-3.57 1.32-1.43 4-1.92 4.06.26 4.18 1.39-1.13 4-.91 4.1a3 3 0 0 0 .76.15l.94-2.11s2.26-.15 2.9.57a2.11 2.11 0 0 1 -.64 3.24c-1.55.94-4.6 1.27-9.6 1.76s-6.4-.9-6.36-2 1.76-2.62 4.17-2.93z" fill="#f6c687"/><path d="m13.49 24.49c.1 0-1.39 2 3.23 2.67a28.82 28.82 0 0 0 12.35-.9c3.72-1.05 3.69-3.05 3.69-3.05a19.08 19.08 0 0 1 8.35 1.79c4.1 2 2.75 4.4.23 6.1s-9 3.8-17.43 4.36-14.6 0-17.42-1-3.09-3.08-1.77-4.46a26.79 26.79 0 0 1 8.77-5.51z" fill="#f39a9b"/><path d="m45.36 27c.19-.08.68-.23.68-.23a3.43 3.43 0 0 1 1.13 1.51 4.16 4.16 0 0 1 0 1.84l-2.79 1-.15-.38a3.78 3.78 0 0 0 1.13-2.15 3.15 3.15 0 0 0 0-1.59z" fill="#f6c687"/><path d="m47.13 26.26a33.55 33.55 0 0 1 7-1.65c4.33-.61 6.78 0 6.85 1.43s-.45 2.1-2.78 2.25-4.71-.18-7.15.42a11.21 11.21 0 0 0 -2.79.86s.3-2.52-1.13-3.31z" fill="#84767e"/><g fill="#604f58"><path d="m21.24 19.26a19.52 19.52 0 0 1 3.24-.45c.71.08.86 0 .75.19s-.26.56-2 .83-2.82-.19-1.99-.57z"/><path d="m7.28 31.23c-.25-.84 2.18-2.6 3-2.64s.27.87-.11 1.17-1.51.79-1.32 1.62.87 1 .94 1.24-1.98.38-2.51-1.39z"/><path d="m7.88 38.72c.12-.29.79-.27.94.07a10.57 10.57 0 0 1 .45 2.94c-.15.22-.86.49-1 .15a13.62 13.62 0 0 1 -.39-3.16z"/><path d="m24.18 32.58a22.22 22.22 0 0 0 6.92-.34 63.53 63.53 0 0 0 6.74-1.8c.18 0 .41.26.37.41s-2.21 1.66-7.11 2.34-6.74.64-6.89.52-.34-.98-.03-1.13z"/></g></svg>