<svg height="64" viewBox="0 0 64 64" width="64" xmlns="http://www.w3.org/2000/svg"><path d="m32.14 62c-1 0-2 0-3 0a55.75 55.75 0 0 1 -17-3.23c-2.86-1.14-4.09-1.87-4.73-4.5a15.36 15.36 0 0 1 -.29-3.73 7.18 7.18 0 0 1 -1.79-2.93 23.61 23.61 0 0 1 -.22-4.18c-1.6-.62-3.7-1.67-4.5-3.13-1.2-2.38-.33-9.7-.13-10.52.38-1.64 2.33-2.69 3.93-3.22a9.66 9.66 0 0 1 .06-1.17c0-.32.06-.6.09-.85a6.52 6.52 0 0 1 -1.95-3.36c-.25-1.28-.78-6-.2-7.76.37-1.11 1.49-4.5 7.14-7.36 4.73-2.4 11.48-3.59 22.57-4q1.7-.06 3.33-.06c9.55 0 16.48 1.53 21.3 4.62 5.41 3.48 6.26 6.18 6.39 8.14a22.35 22.35 0 0 1 -.23 4.67 4.22 4.22 0 0 1 1.09 2.8 27.13 27.13 0 0 1 -.36 6.69 4.62 4.62 0 0 1 -3.64 3.15 4.77 4.77 0 0 1 .16.73 6.09 6.09 0 0 1 3.57 4.77 17.66 17.66 0 0 1 -.28 7.64c-.05.15-.1.33-.16.53a6.26 6.26 0 0 1 -1.51 3h-.06a23.73 23.73 0 0 1 -.11 5.07c-.61 2.36-5.3 5.19-10.45 6.32a96 96 0 0 1 -19.02 1.87z" fill="#fff"/><path d="m6.46 28.07a10 10 0 0 1 -.06-2.48 12.6 12.6 0 0 1 .26-1.82 5.45 5.45 0 0 1 -2.15-2.95c-.33-1.75-.6-5.82-.26-6.82s1.27-3.76 6.18-6.24 12.09-3.4 21.76-3.76 18.07.74 23.51 4.24 5.44 5.76 5.51 6.76a17.63 17.63 0 0 1 -.27 4.3c-.27.74-.4 1.08-.4 1.08s1.46-.1 1.46 1.92a28 28 0 0 1 -.27 6c-.34 1.08-.94 1.48-2.35 1.88a23.07 23.07 0 0 0 -2.35.81 5.51 5.51 0 0 1 1.07 1.54 4 4 0 0 1 .13 1.68 4.15 4.15 0 0 1 3.57 3.63 16 16 0 0 1 -.21 6.72 9.57 9.57 0 0 1 -1.07 2.69c-.4.33-.81.73-.81.73a35.08 35.08 0 0 1 0 5.38c-.27 1-3.62 3.63-9 4.84a95.82 95.82 0 0 1 -21.48 1.8 54.13 54.13 0 0 1 -16.32-3.09c-2.69-1.07-3.16-1.48-3.56-3.16a15.52 15.52 0 0 1 -.2-4 7.29 7.29 0 0 1 -1.88-2.62 35.38 35.38 0 0 1 -.14-5.13s-4-1.21-4.77-2.69-.26-7.93 0-9.07 3.36-2.24 4.1-2.17z" fill="#604f58"/><path d="m56.58 18.83c-.09-.23.67-.81.85-.77a9.94 9.94 0 0 1 1.63 1.48c0-.06 0-.13.07-.2a18.76 18.76 0 0 0 .27-5c-.14-.47-2 2.17-5.24 3a56.56 56.56 0 0 1 -14.42 1.74c-6.72 0-16 .59-23.67-.42s-8.8-2.42-9.14-2.49c0 0-.33 3.56 0 4.24a9.37 9.37 0 0 0 5.71 4.29c3.36.75 13.36 1.22 22.71 1.09a67.43 67.43 0 0 0 18.21-2.71c-.48-.44-2-1.89-2-2.19s.41-.59.63-.5a16.83 16.83 0 0 1 2.36 2.37l1-.33a19.62 19.62 0 0 1 -2.38-2.43.43.43 0 0 1 .58-.49 16.66 16.66 0 0 1 2.74 2.57l.65-.29a16.79 16.79 0 0 1 -2.54-2.37c0-.27.72-.5.86-.41a31.81 31.81 0 0 1 2.54 2.23 2.86 2.86 0 0 0 .65-.67 20.5 20.5 0 0 1 -2.07-1.74z" fill="#fcdfc8"/><path d="m59.53 22.63c-.22-.27-.72.32-2.15 1a12.7 12.7 0 0 1 -2.46.89v4.93a13.92 13.92 0 0 0 2.33-.72c1-.45 2.15-.8 2.33-1.16a19.79 19.79 0 0 0 -.05-4.94zm-2.37 5.24a8.67 8.67 0 0 1 -1.48-1.16c0-.23.09-.76.4-.63s1.79 1.25 1.62 1.43-.27.41-.54.36zm1.39-.71c-.23 0-1.44-1.48-1.62-1.62 0 0 .45-.53.81-.4s1.52 1.3 1.39 1.52-.36.5-.58.5z" fill="#fcdfc8"/><path d="m47.66 55c.23-.36.41-.36.81-.32a5.6 5.6 0 0 1 1.74 1.85c.6-.13 1.17-.27 1.69-.42a15.11 15.11 0 0 1 -2-2 .67.67 0 0 1 .71-.49 12.8 12.8 0 0 1 2.52 2.08c.45-.16.86-.32 1.25-.48a14.09 14.09 0 0 1 -2.51-2.09c0-.31.54-.54.89-.49a11.75 11.75 0 0 1 2.69 2.1c.37-.19.69-.37 1-.55a12.58 12.58 0 0 1 -2.47-1.78.52.52 0 0 1 .72-.49 11.2 11.2 0 0 1 2.48 1.81c.27-.2.49-.38.67-.53-.51-.38-1.8-1.38-1.76-1.59a.67.67 0 0 1 .76-.54 5.47 5.47 0 0 1 1.53 1.25c.08-.92 0-3.13 0-3.13l-3.14 1.12a57 57 0 0 1 -16.93 2.77 70.36 70.36 0 0 1 -12.27-.8 4.15 4.15 0 0 1 -3.22 1.21 2.72 2.72 0 0 1 -2.24-1.7s-1.52-.14-3.85-.45-5.29-1-5.29-1 0 3.36.05 3.68.58.76 2.24 1.2 7.7 2.29 11.6 2.6a141.25 141.25 0 0 0 21.54-.76c.78-.09 1.51-.2 2.21-.33-.63-.51-1.58-1.5-1.42-1.73z" fill="#fcdfc8"/><path d="m51.34 46.9c0-.17.62-.67 1-.53a14.36 14.36 0 0 1 2.47 2.29c.42-.14.8-.29 1.13-.43a12.12 12.12 0 0 1 -2.12-2.09.66.66 0 0 1 .72-.49 11.07 11.07 0 0 1 2.39 2.11q.3-.16.54-.33a13.49 13.49 0 0 1 -2-2.14c0-.22.67-.4.94-.31a9.39 9.39 0 0 1 1.83 1.83 4.69 4.69 0 0 0 .48-.53 13.47 13.47 0 0 1 -1.42-1.7c.05-.14.58-.85.9-.68a6.65 6.65 0 0 1 1.12 1.34 12 12 0 0 0 .49-3.75 12.47 12.47 0 0 1 -1.43 1.34c-.81.63-5.65 3.13-12.68 3.94a158.61 158.61 0 0 1 -19.16.4s0 .85 0 1.93a11.24 11.24 0 0 1 -.23 1.84s1.57.17 6.58.17a88.85 88.85 0 0 0 17.83-1.38c1.14-.25 2.11-.48 2.95-.72a18.1 18.1 0 0 1 -2.33-2.11z" fill="#fcdfc8"/><path d="m7 14.77s.07-3.09 5.17-5.71 11.69-3.22 20.89-3.22 15.32 1 19.75 2.95 5.58 3.77 5.65 4.5-2.42 3.5-10.75 4.1-18.71 1.41-25.39 1.14-14.32-2.41-15.32-3.76z" fill="#f8b586"/><path d="m13.38 12.49c.95-.43 2.62-.2 2.62.67s-2.08 1-2.95.6-.27-1 .33-1.27z" fill="#604f58"/><path d="m18.82 9.06c1.8-.38 3.9.07 4 1.14s-2 2-4 1.55-2.82-2.08 0-2.69z" fill="#604f58"/><path d="m19.23 9.73c1.25-.26 2.55-.06 2.48.61s-2.22.6-2.75.47-.96-.81.27-1.08z" fill="#fcdfc8"/><path d="m28.63 7.85c1.56-.46 4.64 0 5.24 1.21s-1.75 1.88-3 1.95-2.69-.27-3.23-1.21.36-1.75.99-1.95z" fill="#604f58"/><path d="m29.23 8.66c.86-.17 3.23.07 3.5.74s-2.15.87-3.16.67-2.01-1.07-.34-1.41z" fill="#fcdfc8"/><path d="m38.24 8.26c.77-.26 1.54 0 1.61.74s-.27 1.07-1.41.94-.81-1.48-.2-1.68z" fill="#604f58"/><path d="m32.93 13.29c.7-.35 1.41-.26 1.61.27s-.4 1.08-1.21 1a.7.7 0 0 1 -.4-1.27z" fill="#604f58"/><path d="m22 14.3a6.46 6.46 0 0 1 4.57-.54c1.61.41 2.21 1.15 1.88 2s-1.48.87-2.82.87-3.56-.06-4-.6-.52-1.12.37-1.73z" fill="#604f58"/><path d="m23.26 14.71a4.52 4.52 0 0 1 3.76.06c.87.61.07 1.08-1.08 1.14s-2.62.21-2.82-.06-.74-.74.14-1.14z" fill="#fcdfc8"/><path d="m41.93 11.62c1.44-.29 4.7.26 4.9 1.34s-1.27 1.27-2.28 1.34a5.27 5.27 0 0 1 -3-.6c-.63-.47-.96-1.82.38-2.08z" fill="#604f58"/><path d="m42.67 12.42c.73-.11 3 .14 3 .74s-2.15.47-3 .34-1.34-.88 0-1.08z" fill="#fcdfc8"/><path d="m50.06 11.48a1.23 1.23 0 0 1 1.68.81c.07.67-1.21.87-1.88.4s.2-1.21.2-1.21z" fill="#604f58"/><path d="m8.75 25.18a24.54 24.54 0 0 0 2.82 1.08c1.43.36 1.92.36 1.92.49a41.93 41.93 0 0 1 -.09 4.25 7.88 7.88 0 0 1 -3.31-.18c-1.16-.4-1.57-2-1.61-2.24s0-3.35.27-3.4z" fill="#fcdfc8"/><path d="m15.37 27.11s5.06.54 9.32.63l6.85.13s-.18 10.13-.31 10.62-.67.8-.81.71.09-2.91-1.7-3-3.36 1.25-3.49 3.71-.18 9.54-.63 10.3a1.62 1.62 0 0 1 -2.15.9c-1.16-.36-1.21-1.16-1.34-2.37s.67-11.2.22-12.59-.85-2.06-2-1.79-2.33 2.07-2.79 4.75-.49 3.76-.81 4-1 1-1.21-1.34.85-14.66.85-14.66z" fill="#ef7d7b"/><path d="m17.79 41.22s1-4.66 1.57-4.79.72.13.72.35-.08 4.75-.08 4.75z" fill="#fcdfc8"/><path d="m26.7 41.4c.05-.14-.13-2 .5-2.69s1-.76 1.16-.45.27 2.11.94 2.55 2.55.45 3.09-.35.41-3.14.41-3.14 2.77.18 4.52.22 3.36 0 3.36 0v4.21s-5.11.09-9.27.09-4.75-.09-4.75-.09z" fill="#fcdfc8"/><path d="m43 27a41 41 0 0 0 5.33-.63 45.77 45.77 0 0 0 4.67-1.1s-.32 8.87-.49 10-.14 1.34-.63 1.43a.93.93 0 0 1 -1.12-.85c-.09-.67.36-3-.45-3.94a2.74 2.74 0 0 0 -3.81.13c-1.16 1.17-1 4.48-1.12 5.6s-.22 4.12-.76 5.24-1.12 1.21-1.52 1-.49-1.93-.49-6.58.39-10.3.39-10.3z" fill="#ef7d7b"/><path d="m33.06 32.35s0-4.3.32-4.48a56 56 0 0 1 6-.27c.23 0 .09.36.41.59s1.12.26 1.21.4a15.37 15.37 0 0 1 .13 3.72c-.13.17-8.07.04-8.07.04z" fill="#fcdfc8"/><path d="m33.11 34.19h6.72c.44 0 1.21 0 1.25.18a9.33 9.33 0 0 1 -.31 2.19c-.14.09-2.78 0-2.78 0s1.66-1.52.45-1.79-2.78-.09-2.73.45.62 1.17.49 1.21-3 .36-3.14.09a12.69 12.69 0 0 1 .05-2.33z" fill="#f8b586"/><path d="m47.44 34.05s.54-.67.76-.58.54 0 .54.54v1.52s-1.35.31-1.35.13.05-1.61.05-1.61z" fill="#f8b586"/><path d="m54.16 33.6a6.89 6.89 0 0 1 .09-1.88c.18-.18.53-.09.76.18s.8.85.62 1.21-1.47.49-1.47.49z" fill="#f8b586"/><path d="m47.13 36.69 1.52-.18a2.68 2.68 0 0 0 2.42 2.11c2 0 2.68-.85 2.86-1.88s.27-1.66.27-1.66a11.84 11.84 0 0 1 1.17-.63c.35-.13.8-.58.89-.35a7 7 0 0 1 -.13 3c-.36.94-1.44 1.83-3.72 2.46a24.63 24.63 0 0 1 -4.43.81l-1.12.09s.27-3.32.27-3.77z" fill="#fcdfc8"/><path d="m7.18 30.2c.18 0 .63 2 1.88 2.55s4.25.36 4.25.54 0 2.15 0 2.15a59.16 59.16 0 0 1 -6.63-.36c-1.43-.31-2.73-1.52-2.46-2.33a4 4 0 0 1 2.96-2.55z" fill="#f8b586"/><path d="m3.86 34.45s.59.95 3.14 1.48 6.14.63 6.09.81-.4 3.67-.4 3.67a16.71 16.71 0 0 1 -6.09-.76c-2.38-1-2.69-1.34-2.82-1.88a23.71 23.71 0 0 1 .08-3.32z" fill="#fcdfc8"/><path d="m9.51 42.74 3.49.36a8.39 8.39 0 0 1 .22 1c0 .18 0 .27-.22.23s-3.77-.5-3.81-.72.32-.87.32-.87z" fill="#f8b586"/><path d="m17.3 43.37 2.28.18-.13 1.45h-2.15a5.64 5.64 0 0 1 -1-.22s.96-.97 1-1.41z" fill="#f8b586"/><path d="m9.24 44.44a18.83 18.83 0 0 0 5 1.12c2.65.27 5.24.49 5.24.49v3.77a43.33 43.33 0 0 1 -7.07-.94c-2.6-.72-3.05-1.26-3.09-1.71s-.08-2.73-.08-2.73z" fill="#fcdfc8"/><path d="m26.61 46.37.14-2.91s4.12.13 9 .13h4.88a3.4 3.4 0 0 0 .9 1.7c.71.67 1.3 1 1.12 1.08s-3 0-8.47 0z" fill="#f8b586"/><path d="m44.8 45.65a4.17 4.17 0 0 0 1.43-2.1 5.5 5.5 0 0 0 .13-1.39s6.9-.23 9-1.75a9.69 9.69 0 0 0 3.09-3.94s1.12 0 1.12 1.52.14 2.78-2.37 4.48-6.04 2.33-8.2 2.73a28.58 28.58 0 0 1 -4.2.45z" fill="#f8b586"/><g fill="#604f58"><path d="m10.22 27.38c.48-.34.77.09.85.45a.57.57 0 0 1 -.76.58.66.66 0 0 1 -.09-1.03z"/><path d="m11.07 29.08c.48-.34.77.09.86.45a.57.57 0 0 1 -.77.58.66.66 0 0 1 -.09-1.03z"/><path d="m9.9 19.66a.87.87 0 0 1 1.34.55c.14.44-.64.93-1.2.71a.7.7 0 0 1 -.14-1.26z"/><path d="m11.87 21.43c.74-.49 1.2.13 1.34.65s-.64 1.11-1.2.85a.91.91 0 0 1 -.14-1.5z"/><path d="m14.82 20c.75-.49 1.2.13 1.34.65s-.63 1.1-1.2.84a.91.91 0 0 1 -.14-1.49z"/><path d="m15.49 22.42c.75-.49 1.2.13 1.35.65s-.64 1.1-1.2.84a.9.9 0 0 1 -.15-1.49z"/><path d="m19 20.7a.63.63 0 0 1 1 .43c.11.35-.46.74-.88.56a.57.57 0 0 1 -.12-.99z"/><path d="m6.09 32.3c.55-.33.88.09 1 .43s-.47.74-.88.56a.57.57 0 0 1 -.12-.99z"/><path d="m8 33.6a.63.63 0 0 1 1 .4c.11.35-.46.73-.88.56a.57.57 0 0 1 -.12-.96z"/><path d="m5.47 36.56a.63.63 0 0 1 1 .43c.1.34-.47.73-.88.56a.57.57 0 0 1 -.12-.99z"/><path d="m7.3 38.21a.64.64 0 0 1 1 .43c.1.35-.47.74-.89.56a.57.57 0 0 1 -.11-.99z"/><path d="m11.72 45.67c.6-.4 1 .11 1.09.54s-.52.9-1 .69a.75.75 0 0 1 -.09-1.23z"/><path d="m16.46 46.61c.61-.4 1 .11 1.09.54s-.51.9-1 .69a.75.75 0 0 1 -.09-1.23z"/><path d="m14.36 47.7a.58.58 0 0 1 .91.4c.1.31-.43.67-.81.51a.52.52 0 0 1 -.1-.91z"/><path d="m12.68 52.19a.79.79 0 0 1 1.2.47c.13.37-.57.79-1.07.6a.59.59 0 0 1 -.13-1.07z"/><path d="m9.32 37a.63.63 0 0 1 1 .43c.1.35-.47.74-.88.57a.58.58 0 0 1 -.12-1z"/><path d="m10.53 38.39a.63.63 0 0 1 1 .43c.1.35-.47.74-.88.56a.57.57 0 0 1 -.12-.99z"/><path d="m34.87 29.15c.61-.41 1 .11 1.09.55s-.52.93-1 .72a.8.8 0 0 1 -.09-1.27z"/><path d="m37.39 30.14a.84.84 0 0 1 1.3.55c.14.44-.62.93-1.17.71a.71.71 0 0 1 -.13-1.26z"/><path d="m35.28 38.81c.73-.49 1.17.13 1.31.65s-.62 1.1-1.17.84a.92.92 0 0 1 -.14-1.49z"/><path d="m38.27 39.25c.48-.34.78.09.87.44s-.41.77-.78.59a.64.64 0 0 1 -.09-1.03z"/><path d="m44.66 28.05c0-.22.94-.31 1.12 0a4 4 0 0 1 -.09 2.06c-.18.22-.67.45-.94.05a5.67 5.67 0 0 1 -.09-2.11z"/><path d="m30.15 44.26c.57-.25 2.69-.53 3.27.18s-.22 1.56-1.7 1.56-2.87-1.16-1.57-1.74z"/></g><path d="m31.27 44.49c.59-.26 1.17.09 1.21.4s-.76.49-1.21.31-.27-.58 0-.71z" fill="#fcdfc8"/><path d="m36.92 44.13a3.83 3.83 0 0 1 3 .27c.49.44.22 1.52-1.07 1.65a2.47 2.47 0 0 1 -2.15-.58.84.84 0 0 1 .22-1.34z" fill="#604f58"/><path d="m37.72 44.53a.6.6 0 0 1 .85.58c0 .45-.76.27-1 0s-.21-.4.15-.58z" fill="#fcdfc8"/><path d="m29.48 48.61c.54 0 1.12.18 1.08.62s-.77.54-1.17.27-.27-.89.09-.89z" fill="#604f58"/><path d="m35.84 48.2c.48-.13.81.09.81.59s-.59.62-.94.26a.48.48 0 0 1 .13-.85z" fill="#604f58"/><path d="m19.76 54.29c.48-.13.81.09.81.59s-.58.62-.94.27a.49.49 0 0 1 .13-.86z" fill="#604f58"/><path d="m17.52 52.77c.48-.13.81.09.81.58s-.58.63-.94.27a.48.48 0 0 1 .13-.85z" fill="#604f58"/><path d="m15.78 54a.56.56 0 0 1 .8.58c0 .5-.58.63-.94.27a.48.48 0 0 1 .14-.85z" fill="#604f58"/><path d="m17.61 29.35c.18-.1 1-.09 1 .22a12.44 12.44 0 0 1 0 3.18c-.23.18-.63.5-.9.23s-.41-3.45-.1-3.63z" fill="#604f58"/></svg>