<svg height="64" viewBox="0 0 64 64" width="64" xmlns="http://www.w3.org/2000/svg"><path d="m34.05 64c-4.43 0-9-.15-10.79-.25a13.32 13.32 0 0 1 -8.49-3.48c-1.73-1.74-2-5.5-.95-12.57.66-4.35 3.3-15.32 4.29-19.44l.1-.42c.23-1 .4-1.71.52-2.27-1.76-.71-3.07-2.07-2.85-4.05a13.56 13.56 0 0 1 1.58-4.29c-1.47-1-3-2.34-3.41-3.73-.91-3.34.08-6.26 3-8.68 3.35-2.82 7.31-4.27 13.22-4.71.92-.11 1.85-.11 2.73-.11a26.46 26.46 0 0 1 12 2.48c3.75 2 5.71 4.66 5.83 7.88a8 8 0 0 1 -3.11 6.43 2.47 2.47 0 0 1 -.27.21c1.49 2.34 1.6 3 1.65 3.23a3.73 3.73 0 0 1 -1.32 3.52 5 5 0 0 1 -1.11.74c.53 2.9 1.67 9.3 2.38 13.44.89 5.15 2.19 16 1.62 19.41-.79 4.64-4.51 5.79-8 6.3a68.6 68.6 0 0 1 -8.62.36z" fill="#fff"/><path d="m20.1 16.58s-3.77-2.11-4.18-3.58-.81-4 2.34-6.69 6.82-3.87 12.16-4.31 10.45.45 13.64 2.15 4.71 3.77 4.8 6.24a6 6 0 0 1 -2.38 4.85 10 10 0 0 1 -1.79 1.12 29 29 0 0 1 2.47 4.17 1.78 1.78 0 0 1 -.72 1.75 7.53 7.53 0 0 1 -2 1s1.71 9.47 2.65 14.94 2.13 15.87 1.64 18.78-2.38 4.13-6.42 4.71-15.8.27-18.94.09a11.3 11.3 0 0 1 -7.22-2.91c-1.48-1.48-1.08-6.47-.41-10.91s3.55-16.33 4.36-19.7a34.79 34.79 0 0 0 .9-4.12s-3.37-.45-3.14-2.42 2.24-5.16 2.24-5.16z" fill="#604f58"/><path d="m41.68 51c0-.49 0-1.21.45-1.12a25.87 25.87 0 0 1 4.09 3.9c0-.77 0-1.68-.07-2.7-.93-.67-3.49-2.55-3.53-3s.14-.86.5-.81a15.72 15.72 0 0 1 3 2.25c0-.82-.1-1.68-.17-2.58a20.09 20.09 0 0 1 -3.1-2.5c-.09-.4.09-1.08.45-1.08a11.29 11.29 0 0 1 2.51 1.79c-.08-.89-.17-1.81-.26-2.74-.8-.5-2.22-1.42-2.25-1.74s-.27-.81.14-.9a4.72 4.72 0 0 1 1.91.87l-.12-1c0-.33-.09-.67-.13-1-.6-.25-1.68-.74-1.84-1.09s-.18-.86 0-.95a5.05 5.05 0 0 1 1.61.36c-.9-6.37-2.08-12.83-2.24-13.15s-6.28.45-11.18.72-8.18 0-8.34.09c-.32.23-1.53 6.24-2.87 12.12a138.82 138.82 0 0 0 -2.75 17.26c0 2.2.68 3.82 2.52 4.81s7.27 1 12.92 1.21c2.68.1 4.77.13 6.42.06-.72-.59-2.49-2.06-2.38-2.35s-.27-1 .45-.63a16.49 16.49 0 0 1 3.5 2.9 12.54 12.54 0 0 0 2.14-.35c-.87-.77-3.5-3.14-3.53-3.52s.18-.89.58-.8a26.65 26.65 0 0 1 4 3.94 3.32 3.32 0 0 0 1.15-.93c-1.06-.93-4.28-3.8-4.28-4.14s.41-1.07.86-.85a35.57 35.57 0 0 1 3.93 4.13 5.69 5.69 0 0 0 .42-1.75c0-.17 0-.4 0-.64-1.19-1.03-4.47-3.73-4.51-4.09z" fill="#f9f2ed"/><path d="m21.44 13.75c-1.72-.67-3.68-1.61-2.2-4.08s4-3.86 11-4.67 11.89.63 14.67 2.83 1.44 4.75-.09 6.1-4.35 1.07-4.58 1.75a1.22 1.22 0 0 0 .63 1.62 3.75 3.75 0 0 0 1.21.13s.81 1.26 1.31 2 .8.94.53 1.3-.53 1.14-10.23 1.27-11.62.09-12.7-.27-.72-1-.36-2a20 20 0 0 1 1.37-2.57s2.34.27 2.79 0a1.39 1.39 0 0 0 0-2.11c-.79-.9-1.73-.67-3.35-1.3z" fill="#ddeff2"/><g fill="#604f58"><path d="m25.44 8.72c1.34-.57 2.42.09 2.46.86s-.31 1.52-2.28 1.25-.81-1.83-.18-2.11z"/><path d="m31.94 8.59c1.35-.58 2.43.09 2.47.85s-.31 1.56-2.29 1.26-.81-1.84-.18-2.11z"/><path d="m38.31 8.59c1.35-.58 2.43.09 2.47.85s-.31 1.56-2.29 1.26-.8-1.84-.18-2.11z"/><path d="m25.7 27.62c.15-.43.86-.14.9.22s-1.66 8.35-1.88 8.66-1 .68-1.12.45a68 68 0 0 1 2.1-9.33z"/><path d="m28.58 27.57c.18-.36.76-.18.89.18s-.18 4.13-.58 4.27-.67.58-.94-.05.45-4.04.63-4.4z"/><path d="m30 33.27s-.27 17.1.4 17.23a3.61 3.61 0 0 0 1.21.14c.68 0 .81-8.35.81-8.35s4.71-.54 5.25-4.17-1.51-6.73-7.67-4.85zm2.39 6.73s-.84-4.66-.27-4.84c2.16-.68 3.37-.41 3.5 2.15s-3.23 2.69-3.23 2.69z"/></g></svg>