<svg height="64" viewBox="0 0 64 64" width="64" xmlns="http://www.w3.org/2000/svg"><path d="m35.73 59.71c-1.56 0-3.08-.08-4.54-.15l-1.62-.07a36.23 36.23 0 0 1 -14.73-4.15c-3.63-2-8.1-7.2-11.38-13.31-3-5.56-4.18-13-3-15 .79-1.35 5.16-5.48 14.65-6.78a123 123 0 0 1 16.5-1.05c1.55 0 2.79 0 3.64.05h1.65 2.39a70 70 0 0 1 6-10.41c2.56-3.3 4.78-4.53 8.21-4.53a25 25 0 0 1 2.57.16 6.72 6.72 0 0 1 4.83 2.6 9.69 9.69 0 0 1 1.36 7.57c-.43 2.64-2.26 6.16-3.45 8.36 1.89 1 4.35 2.77 5 5.25.9 3.7-.9 8-4.32 14.07-2.86 5.1-6.52 10.83-12.06 14.6-3.72 2.46-8.2 2.79-11.7 2.79z" fill="#fff"/><path d="m40.54 21.11s3.46-7.33 6.33-11.11 4.91-4 9-3.63 5.12 4.27 4.48 7.9-4.34 9.54-4.34 9.54 5.12 1.92 5.83 4.84-.78 6.69-4.12 12.66-6.72 10.76-11.42 13.96-11.39 2.49-16.65 2.28a34.09 34.09 0 0 1 -13.88-3.92c-3.27-1.77-7.47-6.63-10.6-12.52s-3.56-12.24-3.06-13.11 4.41-4.63 13.23-5.84a127.44 127.44 0 0 1 19.86-1c2.99.1 5.34-.05 5.34-.05z" fill="#604f58"/><path d="m27.09 26.2a29.82 29.82 0 0 1 0 3.31c-.11.18-.82.07-.92 0a29.57 29.57 0 0 1 -.17-3.3h-.75c0 .9-.06 3-.12 3.15s-.53 0-.78 0-.08-2.24 0-3.07h-.23-.32v2.62s-.82.14-1 .1a16 16 0 0 1 -.17-2.64l-1.15.1a22.17 22.17 0 0 1 0 3c-.1.11-.78-.32-.92-.43a13.25 13.25 0 0 1 .09-2.45l-.74.09c0 .65-.05 2.07-.1 2.29s-.6-.28-.85-.32-.19-1.14-.19-1.81l-.63.1a10.44 10.44 0 0 1 -.18 2.28c-.14.29-.71-.07-.85-.14a7.76 7.76 0 0 1 -.14-1.91c-2.77.58-3.94 1.27-4 1.52s.79 1 4.59 1.31 17.44 1 17.64.86a44.76 44.76 0 0 0 2.56-4.66c0-.2-4.25-.26-10.67 0z" fill="#f9f2ed"/><path d="m49.29 43.17c.07-.25.46-.71.82-.67a10.43 10.43 0 0 1 2.39 2.7c.26-.32.5-.64.75-1a16.33 16.33 0 0 1 -1.83-2.42.76.76 0 0 1 .68-.6 8.46 8.46 0 0 1 1.88 2q.5-.69.93-1.35c-.43-.39-1.5-1.34-1.35-1.75s.46-.71.71-.71a4.55 4.55 0 0 1 1.35 1.36c3-4.83 3.93-8.28 3.77-8.34a57.8 57.8 0 0 1 -9.46 3.1c-6.12 1.51-16.93 2.1-27.86 1.6s-15.44-2.88-15.83-3.09-1.32-.78-1.46-.67c-.36.25.14 2.67 1.7 6s6.12 10 11.18 12.49a40 40 0 0 0 18.5 3.66 25.25 25.25 0 0 0 3.17-.38c-.61-.68-1.79-2-1.68-2.36s.57-.6.75-.49a23.75 23.75 0 0 1 2.12 2.57l1-.3a29.63 29.63 0 0 1 -2.19-2.91c0-.25.71-.57.89-.57a20.69 20.69 0 0 1 2.38 3.05c.34-.15.67-.31 1-.49a24.21 24.21 0 0 1 -2.43-3c0-.25.5-.75.78-.64a20.5 20.5 0 0 1 2.56 3.09c.25-.16.52-.34.78-.53-.77-1-2.8-3.76-2.8-3.88s.74-.6 1-.46a39.76 39.76 0 0 1 2.51 3.76c.3-.24.61-.49.92-.76a41.5 41.5 0 0 1 -2.65-3.31c-.15-.39-.18-.64.18-.82s2.62 2.45 3.23 3.44c.33-.31.67-.65 1-1a22 22 0 0 1 -2.57-3.26c0-.32.39-.74.71-.67a19.17 19.17 0 0 1 2.64 3.12c.31-.33.62-.67.94-1a28.72 28.72 0 0 1 -2.76-3.33c-.07-.39.53-.67.78-.71a18.34 18.34 0 0 1 2.71 3.2l.46-.53.12-.15a21 21 0 0 1 -2.42-2.99z" fill="#a8a1a7"/><path d="m39.29 23.39a157 157 0 0 0 -17.9.18c-8.5.67-12.34 2.43-14.09 3.31s-2.77 1.67-3 2.81 2.07 3 9.58 4.3 20.12 1.39 26.58 1.01a56.82 56.82 0 0 0 15.94-3.43c2.74-1.1 3.28-2.56 3-3.41s-4.62-2.85-4.62-2.85l-1.08 1.18s1.89.6 1.92 1.85-2.7 2.59-6.26 3.38-7.65 1.03-16.36 1.28-19.75-1.21-21.56-1.78-3.78-2.22-1.75-3.52 10-3.06 15.44-3.42 14-.36 14-.36z" fill="#fcdfc8"/><path d="m7.87 27.66a2.78 2.78 0 0 0 -1.17 1.39c-.22.82.82 1.67 1.24 1.81s.61-.1.54-.32-1-.67-.86-1.35.57-.75.57-1-.19-.35-.32-.53z" fill="#604f58"/><path d="m37.44 30.54c-.08-.1 8.29-16 11.71-19.82s7.18-2.35 8.39-1.17 2.17 4.23-1.24 9.68-7 10.74-7.44 10.92a51.43 51.43 0 0 1 -6.79.82 12.49 12.49 0 0 1 -4.63-.43z" fill="#f9f2ed"/><path d="m51.07 29.76s2.06-2.14 2.24-2.17 1 .35.78 1-2.2 1.28-3.02 1.17z" fill="#f9f2ed"/><path d="m8.76 37.77c0-.26.64-.36.86-.25a42.62 42.62 0 0 0 5.38 7.61 40.7 40.7 0 0 0 4.27 4.06c.15.17.25.64 0 .71a11.82 11.82 0 0 1 -5.16-3.63c-2.18-2.56-5.46-7.44-5.35-8.5z" fill="#604f58"/></svg>