<svg height="64" viewBox="0 0 64 64" width="64" xmlns="http://www.w3.org/2000/svg"><path d="m33.53 62.81c-.23 0-.47 0-.71 0-3.66-.23-5.44-2-5.88-3.62-.16-.57-.31-1.11 1.27-6.09 0 0 .31-1 .67-2l-7.88 2.9c-11.69 4.31-14.83 4.87-16.26 4.87h-.33a4.77 4.77 0 0 1 -3.81-2.6c-.57-1.1-1.24-3.41.63-6.52 1.21-2 19-28.26 21.8-31.64 2.92-3.54 6.37-5.69 9.71-6a17.34 17.34 0 0 1 1.77-.11c1.93 0 4.36.2 5.9.34a30.93 30.93 0 0 1 3.27-6.18c3.52-5 5.4-5 6-5a2.58 2.58 0 0 1 .92.16c1.32.5 1.71 1.93 1.94 3.46 1.13-.07 2.46-.18 3.46-.18a5.92 5.92 0 0 1 1.41.13 4.12 4.12 0 0 1 2.88 1.77 3.07 3.07 0 0 1 .21 2.5 6.54 6.54 0 0 1 -1.08 1.87 3.42 3.42 0 0 1 2.29 2.83 5 5 0 0 1 -.47 3 6.67 6.67 0 0 1 2.55 2.88c.85 2.42-1.09 4.93-2.41 5.66-.6.33-1.4.45-5.33.82l-1.79.17a43.22 43.22 0 0 1 0 8.27c-.53 3.78-4.4 7.41-7.71 9.4a3.39 3.39 0 0 1 1.42 1.42c.22.49 1.59 8.16 1.38 9.28-.35 1.64-2.49 3.4-5.88 3.4h-.38a8 8 0 0 1 -3.62-1 9 9 0 0 1 .11 2.64c-.51 1.89-3 3.21-6 3.21zm3.75-15a3.07 3.07 0 0 1 .45.69l.15.62.67-1.8z" fill="#fff"/><path d="m62 20.24c-.45-1.27-3-2.62-3.28-3s1.42-1.1 1.11-3.28-3.35-1.13-3.83-1.44 2.28-3 2.62-4.11-.45-1.52-1.62-1.8-5.9.35-6.07.25-.27-3.42-1-3.7-2.38.9-4.66 4.11a30.58 30.58 0 0 0 -3.55 7.14 60.73 60.73 0 0 0 -8.78-.41c-2.62.27-5.69 2-8.41 5.35s-20.44 29.4-21.64 31.4c-2.14 3.55-.24 6 1.66 6.17s8.24-2 15.8-4.76 20.65-7.73 23.65-9.11 7.76-5.14 8.28-8.8-.14-9.35-.1-9.62 7.55-.69 8.24-1.07 1.99-2.04 1.58-3.32zm-28 27.99a4.56 4.56 0 0 0 -2.41.93c-.14.24-3 8.63-2.8 9.49s1.45 2 4.14 2.21 4.52-.87 4.77-1.76-1.65-9.56-1.7-9.8a2.32 2.32 0 0 0 -2-1.07zm9.63-3.11c-1.17.11-2.24.28-2.48.83s-2.58 6.9-2.59 7.11c-.07.9 1.72 2.86 4.59 3s4.14-1.21 4.24-1.76a79.58 79.58 0 0 0 -1.24-8.15 3.22 3.22 0 0 0 -2.51-1.03z" fill="#604f58"/><path d="m47.92 31.87c-.69-1.07-.73-1-.73-1.21a1.62 1.62 0 0 1 .69-.89c.25-.07.9 1 1.35 2.34.16.47.3 1 .41 1.4a18.17 18.17 0 0 0 -1.34-11.09c-2.17-4.69-4-5.83-11.25-6.32s-9.38 3.14-12.18 7.15-13.15 18.75-13.25 19.08a8.38 8.38 0 0 1 4.14 3 10.28 10.28 0 0 1 1.73 5.56s8.9-3.42 13.63-5c1.41-.48 3.43-1.16 5.59-2a9.66 9.66 0 0 0 -.56-3.26c-.69-1.86-.93-2-.76-2.28s.38-.55.59-.51a9.14 9.14 0 0 1 1.38 3.24 14.73 14.73 0 0 1 .49 2.37l1.15-.45a15.88 15.88 0 0 0 -.55-3.85c-.59-1.93-.76-2-.69-2.18s.62-.55.86-.44a8.76 8.76 0 0 1 1.17 3.24 14.76 14.76 0 0 1 .21 2.74c.6-.26 1.19-.53 1.77-.8a29.92 29.92 0 0 0 -.47-4.42c-.38-1.55-.52-1.62-.52-1.83s.62-.48.73-.48a8.71 8.71 0 0 1 1 3.34 16.71 16.71 0 0 1 .31 2.85q.66-.33 1.29-.69a22.85 22.85 0 0 0 -.74-4.74c-.58-1.69-.69-1.59-.62-1.83s.83-.73.93-.59a15.84 15.84 0 0 1 .94 3.14 32.29 32.29 0 0 1 .49 3.43c.45-.28.87-.57 1.25-.85a15.11 15.11 0 0 0 -.33-4 22 22 0 0 0 -1-2.52c.06-.2.75-.69 1-.52a8.26 8.26 0 0 1 1.17 3.18 25.82 25.82 0 0 1 .24 3 5.51 5.51 0 0 0 1.39-1.85c.08-.21.14-.43.21-.64a13.83 13.83 0 0 0 -1.12-3.82z" fill="#fcdfc8"/><path d="m6.17 50.78c.41-.65 4.76-6.83 5-6.87a4.89 4.89 0 0 1 3.69 2.35c1.11 2 1.66 4.24 1.42 4.66s-8.28 3.35-8.42 3.21.41-1.56-.45-2.42-1.24-.93-1.24-.93z" fill="#83a7d8"/><path d="m8.31 49.43a30.28 30.28 0 0 1 2.83-3c.2 0 .89.62.79.9a14.54 14.54 0 0 1 -2.93 2.67c-.42.09-.8-.39-.69-.57z" fill="#604f58"/><path d="m24 29.15c-.13-.39 7.63-8.87 8-8.7s.86.66.73 1-7.48 8.39-7.73 8.39-.92-.59-1-.69z" fill="#604f58"/><path d="m43.4 14.86a48 48 0 0 1 2.76-5.66c1.45-2.52 2.28-3.24 2.41-3s.38 2.69 1.63 3 5.34-.65 5.31-.24-2.76 2.76-1.93 4.32 1.21 1.38 2 1.55 2.08 0 1.73.45-2.69 2.58-1.45 3.27 4.24 2.32 3.69 2.73-2.38 0-4.59.24-3.79.76-4 .69-2.63-3.52-4.35-5.1a12.16 12.16 0 0 0 -3.21-2.25z" fill="#fcdfc8"/><path d="m47.61 13.76a17.23 17.23 0 0 1 3.62-2.9c.48 0 .55.65.55.65s-3.14 2.9-3.38 3-.79-.51-.79-.75z" fill="#604f58"/><path d="m50.06 17.31c.17-.2 3.38-.93 3.45-.69a8.23 8.23 0 0 1 -3 1.76c-.38-.1-.69-.79-.45-1.07z" fill="#604f58"/><path d="m32.74 49.64c0-.46.69-.62 1.27-.62s1.11.38 1 .76-.86.48-1.34.45-.93-.38-.93-.59z" fill="#f39a9b"/><path d="m34.67 56.47c0-.41.31-.76.52-.69a9.7 9.7 0 0 1 1.19 1c0-.06 0-.11 0-.18a25.87 25.87 0 0 0 -1.21-5.31c-.2-.35-.65-.11-1.21-.07s-1.29-.23-1.41-.1-2.68 6.32-2.55 7.22 1.35 1.41 3.07 1.55c-.46-.41-1-1-1-1.21s.34-.83.58-.62a11.61 11.61 0 0 1 1.6 1.79 6 6 0 0 0 .88-.21 14.2 14.2 0 0 1 -2-2.3c0-.35.34-.8.55-.73a19.67 19.67 0 0 1 2.36 2.63 1.54 1.54 0 0 0 .26-.18c.15-.15.21-.27.14-1.12-.63-.41-1.8-1.17-1.77-1.47z" fill="#f39a9b"/><g fill="#ddeff2"><path d="m41.81 46.78c-.05-.2 1-.62 1.87-.62s1.58.45 1.51.79-.93.55-1.72.55a2 2 0 0 1 -1.66-.72z"/><path d="m44.88 52c0-.31.07-.79.38-.83s.62.37 1 .73c-.24-1.54-.59-3.41-.67-3.55s-.45 0-1.73.06a7.43 7.43 0 0 1 -2.14-.24c-.31 0-1.8 4.55-1.76 5.07a3.44 3.44 0 0 0 3.04 1.76 5.37 5.37 0 0 1 -1-1.42c0-.28.32-.69.49-.66a12.41 12.41 0 0 1 1.77 2 5.72 5.72 0 0 0 .89-.19 13.13 13.13 0 0 1 -1.83-2.17c0-.24.48-.59.62-.52a21.25 21.25 0 0 1 2 2.33 1.83 1.83 0 0 0 .5-.43 1.81 1.81 0 0 0 0-.35c-.59-.45-1.58-1.35-1.56-1.59z"/></g></svg>