<svg height="64" viewBox="0 0 64 64" width="64" xmlns="http://www.w3.org/2000/svg"><path d="m29.83 62.62a3.85 3.85 0 0 1 -2.1-.61c-1.58-1.01-10.73-17.61-13.42-22.93-4-7.76-7.79-15.73-9.09-18.48a5.78 5.78 0 0 1 -4.09-2.68 7.31 7.31 0 0 1 1.62-9.66c2.93-2.36 6.73-3.7 15.61-5.51a97.77 97.77 0 0 1 17.52-1.37c3.79 0 7.54.15 10 .4 7.12.71 11.73 2.22 14.61 4.59 3.15 2.63 4.12 5.21 3.15 8.34a5.37 5.37 0 0 1 -3.7 3.79l-.19.05a113.68 113.68 0 0 1 -5.57 10.75c-2.54 4.21-6.18 9.7-9.18 14.09-.71 1-1.36 2-1.94 2.88-1.06 1.58-2.47 3.8-3.83 5.94-3.46 5.45-5.19 8.1-6.06 8.94a4.76 4.76 0 0 1 -3.34 1.47z" fill="#fff"/><path d="m6.5 18.77s-2.58.09-3.7-1.83a5.39 5.39 0 0 1 1.2-7.17c2.72-2.18 6.51-3.43 14.79-5.12s21.65-1.47 27-.94 10.52 1.6 13.55 4.14 3.12 4.41 2.54 6.29a3.42 3.42 0 0 1 -2.36 2.49 7.25 7.25 0 0 1 -1 .18 115.52 115.52 0 0 1 -6 11.49c-3.12 5.17-8.11 12.43-11.09 16.89s-8.38 13.36-9.62 14.56-2.41 1-3 .63-7.81-12.57-12.81-22.19-9.5-19.42-9.5-19.42z" fill="#604f58"/><path d="m52.79 7.68c-5.44-1.79-19.96-2.81-29.79-1.16s-16.29 3.82-17.43 5.34c-1.74 2.32-.72 4.77 1.87 4.5s5.16-2.67 10.33-3.52 6.15 1.92 7.89 1.79 6.9-3 9.4-3 4.41 2.37 6.06 2.77a4.78 4.78 0 0 0 1.88-.1c-.52-.69-2-2.72-2-3s.09-1 .67-.57a13.55 13.55 0 0 1 2.5 3.27l1.23-.33c-.57-.82-2-3-1.83-3.35s.53-.67.84-.49a16.74 16.74 0 0 1 2.1 3.52c.46-.12.92-.25 1.35-.35a19.51 19.51 0 0 1 -1.4-3.48c.14-.27.63-.31.89-.23a14.31 14.31 0 0 1 1.48 3.51l.53-.08a4.61 4.61 0 0 1 1.32.05 19.45 19.45 0 0 1 -1-3.25 1.09 1.09 0 0 1 1.11-.09 15.26 15.26 0 0 1 .83 3.66 12.51 12.51 0 0 0 2.11 1.1h.08a16.16 16.16 0 0 1 -.35-3.19 1 1 0 0 1 1 .09 15.06 15.06 0 0 1 .16 3.32c1.82.15 4.49-.5 4.83-1.45.38-1.14-1.23-3.5-6.66-5.28z" fill="#fcdfc8"/><path d="m9.22 18.68c0-.91 6.68-3.52 10.11-3.16s3.7 2.27 6.73 1.78 6.28-3.3 9.22-2.85 2.27 2.76 6.46 2.54 6-2 8.51-1.74 3.25 1.29 4.23 1.47 1.29.36 1.34.53-4.32 8.25-9.82 16.89-13.62 21.96-14.42 22.76-1.16 1.34-2.14.05-9.75-16.95-13.72-24.42a121.74 121.74 0 0 1 -6.5-13.85z" fill="#ef7d7b"/><path d="m15.14 20.73c1.18-1.07 4.33-2.1 5.84-.71s.22 3.29-1.16 3.6a7.46 7.46 0 0 1 -4.36-.53c-.54-.45-.81-1.92-.32-2.36z" fill="#604f58"/><path d="m34.08 18.28a2.34 2.34 0 0 1 3 1.87 1.93 1.93 0 0 1 -3.12 1.78c-1.53-1.07-1.44-2.93.12-3.65z" fill="#604f58"/><path d="m17.33 20.51c1-.35 2.71-.05 3.07.8s-.8 1.74-2.63 1.51-3.29-1.29-.44-2.31z" fill="#fcdfc8"/><path d="m34.75 19.08c.57.05 1.69.85 1.24 1.83s-1.69.44-2.05-.14-.17-1.77.81-1.69z" fill="#fcdfc8"/><path d="m49.58 18.14c.92-.82 2.85-.17 2.9.49s-1.16.14-1.74.27-1.16.89-.49 1.12 1.25.22 1.07.62a1.2 1.2 0 0 1 -2 .31 1.81 1.81 0 0 1 .26-2.81z" fill="#604f58"/><path d="m26.33 23.09c1.92-1.09 6.81-.09 7.21 3.91s-5.7 7.08-8.46 4.14-3.21-5.56 1.25-8.05z" fill="#604f58"/><path d="m27 24.11c1.27-.54 5 .41 5.21 3.08s-3.52 4.81-6 3.34-3.4-4.59.79-6.42z" fill="#f39a9b"/><path d="m42 22c1.43-.9 5-.67 5.66 2s-1.2 6-4.23 6.31-5.25-1.07-5.16-3.17 2.31-4.27 3.73-5.14z" fill="#604f58"/><path d="m43.12 22.56c1.16-.59 3.65.44 3.65 2.89s-3.52 4.86-5.77 3.48-1.49-4.55 2.12-6.37z" fill="#f39a9b"/><path d="m22.72 34.05a2 2 0 0 1 2.8 1.78 2.16 2.16 0 0 1 -3.16 1.17 1.9 1.9 0 0 1 .36-2.95z" fill="#604f58"/><path d="m23.34 34.81a.77.77 0 0 1 1.07.93.78.78 0 0 1 -1.41.36.8.8 0 0 1 .34-1.29z" fill="#fcdfc8"/><path d="m37.24 33.47c.71-.49 2.36.09 2.36 1.16a1.51 1.51 0 0 1 -2.27 1.11 1.35 1.35 0 0 1 -.09-2.27z" fill="#604f58"/><path d="m29.27 38.68c1.11-1.11 5.43-.67 6.37 1.2s-.63 5.17-2.19 6.33-5.12.58-5.74-1.07-1.12-3.79 1.56-6.46z" fill="#604f58"/><path d="m30.42 39.26a3.85 3.85 0 0 1 4.1.85c.85 1 0 3.38-.84 4.63a3 3 0 0 1 -4.68.13c-1.43-1.69-.71-4.41 1.42-5.61z" fill="#f39a9b"/><path d="m30.2 49.15a1.68 1.68 0 0 1 2.45 1.74 1.83 1.83 0 0 1 -2.85 1.51c-1.16-.84-.8-2.4.4-3.25z" fill="#604f58"/><path d="m30.55 50a.8.8 0 0 1 1.16.83.87.87 0 0 1 -1.35.71.92.92 0 0 1 .19-1.54z" fill="#fcdfc8"/></svg>