<svg height="64" viewBox="0 0 64 64" width="64" xmlns="http://www.w3.org/2000/svg"><path d="m46.43 59.78h-3.63c-2.45 0-6.16 0-10-.06-6.76 0-13.75 0-15.56-.19a16.51 16.51 0 0 1 -5.65-1.07 7 7 0 0 1 -4.45-6.46c-.07-1.88-.14-7.4-.14-10.4h-.44c-2.56 0-3.37-.24-4-.66l-.1-.07c-1-.71-2.12-1.71-2.4-4.63a6.42 6.42 0 0 1 .27-3.47.61.61 0 0 0 .07-.18 4 4 0 0 1 2.88-2.9 3.74 3.74 0 0 1 .92-.09c.59 0 1.51.06 2.37.12a26 26 0 0 0 -.3-2.72c0-.18-.08-.38-.14-.61-.45-1.9-1.52-6.33 2.88-9 4.17-2.54 7.38-2.94 11.79-3.26l2.35-.16a4.33 4.33 0 0 1 -1-1.85 4.64 4.64 0 0 1 .92-4c1.84-2.42 3.91-3.34 8.55-3.78a8.42 8.42 0 0 1 1 0 8 8 0 0 1 5.87 2.35 5.46 5.46 0 0 1 1.69 3.76 5.39 5.39 0 0 1 -.66 2.54c2.46-.16 5.44-.34 7.61-.39h.87c3.94 0 6.25.65 8 2.23a7 7 0 0 1 2.28 5.17v10a14.1 14.1 0 0 1 2.34.48c2.33.73 3.46 2 3.34 3.68v.33a12.66 12.66 0 0 1 -.68 3.89c-.51 1.4-1.09 3-3 3.36a9.87 9.87 0 0 1 -2 .12c0 3.31-.17 9.27-.65 11l-.09.34c-.55 2-1.07 3.94-3.42 5.28-1.86 1.13-3.79 1.3-7.69 1.3z" fill="#fff"/><path d="m8.7 31.86s-.19-3.54-.52-5.25-1.8-5.38 1.82-7.61 6.29-2.65 10.92-3 6.76-.43 6.76-.43.33-1.18-1.7-2-2.73-2.57-1.4-4.35 2.74-2.6 7.18-3 6.48 2.69 6.43 4.06a2.83 2.83 0 0 1 -1.28 2.55c-.75.52-1.6.85-1.7 1.28a3.66 3.66 0 0 0 0 1s7.66-.62 11.91-.71 6.2.52 7.47 1.7a5 5 0 0 1 1.75 3.9c-.05 1.23 0 11.86 0 11.86a17.9 17.9 0 0 1 3.68.57c1.52.47 2 1 2 1.7a12.16 12.16 0 0 1 -.58 3.69c-.57 1.56-.86 2-1.56 2.12a29.36 29.36 0 0 1 -3.55 0s0 10.4-.6 12.48-.85 3.45-2.6 4.44-3.68 1-10.35 1-22.68 0-25.43-.24a15 15 0 0 1 -5.1-.94 5 5 0 0 1 -3.18-4.68c-.09-2.6-.15-12.34-.15-12.34s-4.54.24-5.2-.24-1.47-.9-1.7-3.31.11-2.21.3-3a2.06 2.06 0 0 1 1.46-1.46 46.71 46.71 0 0 1 4.92.21z" fill="#604f58"/><path d="m47.08 49.63c0-.33.8-.89 1.08-.8a52 52 0 0 1 4.37 5.17 5.57 5.57 0 0 0 .67-2.12 67.6 67.6 0 0 1 -5.13-5.11c0-.38.14-1 .57-.9a42.78 42.78 0 0 1 4.72 4.48c0-.43.06-.87.1-1.31 0-.17 0-.38 0-.64a62.18 62.18 0 0 1 -4.63-4.71c0-.37.24-.94.71-.85a29.19 29.19 0 0 1 4 4.08c0-.79.08-1.73.13-2.77-1.15-.87-4.1-3.15-4.18-3.53s.38-1 .76-.9a32.27 32.27 0 0 1 3.49 2.8c0-.7 0-1.42.08-2.16-.73-.54-3.66-2.75-3.62-3s.38-.85.81-.71a17.27 17.27 0 0 1 2.86 2.42c.21-5.66.38-11.58.3-11.87-.14-.52-10.87-.76-21.88-.14s-21.06 1.65-21.29 1.94 0 2 .19 7.18.19 10.26.19 13.76 2.08 4.58 3.12 4.91.76.14 10.68.57c6.53.28 14.4.33 19.75.2-.79-.84-2.5-2.73-2.35-3.13a1 1 0 0 1 1-.66 17.2 17.2 0 0 1 2.9 3.75l1.79-.08c-.94-1-3.7-4-3.7-4.19s1.18-.71 1.47-.52a40.44 40.44 0 0 1 3.61 4.62c.45 0 .81-.09 1.07-.13a2.86 2.86 0 0 0 .84-.29c-1.03-1.19-4.48-5.07-4.48-5.36zm5.24-14.74c.29.14 1 .47 1 .94s.14.81-.09.9-1.18-.57-1.42-.76.19-1.23.51-1.08z" fill="#f6c687"/><path d="m4.3 32.71a17.44 17.44 0 0 1 4.44.14c0 .19 0 5.34-.15 5.39s-3.74-.05-4.07-.05-1.13-.28-1.32-2.08-.22-1.18 0-1.93.53-1.37 1.1-1.47z" fill="#84767e"/><path d="m56.53 33.14a14.7 14.7 0 0 1 2.69.38c1 .28 1.56.37 1.52.94a12.87 12.87 0 0 1 -.12 2c-.18 1.23-.66 2.18-1 2.27s-3.12 0-3.12 0z" fill="#84767e"/><path d="m10.59 26.57s-.81-4.16 0-5.06 3.41-1.94 7.75-2.51 10.87-.9 18.91-1.56 12.57-.76 13.75-.52a3.1 3.1 0 0 1 2.6 2.5c.14 1.37-.05 4.87-.05 4.87a166.89 166.89 0 0 0 -20.32.05c-11.3.72-22.64 2.23-22.64 2.23z" fill="#f39a9b"/><path d="m30.2 15.37a2.38 2.38 0 0 0 -.94-2.65c-1.47-.85-3.26-1.23-1.66-2.84s4.4-1.56 5.86-1.27 3.41 1.39 2.04 2.39-2.32 1.18-2.6 2.17-.1 2-.38 2.23a4.44 4.44 0 0 1 -2.32-.03z" fill="#f6c687"/><g fill="#604f58"><path d="m13.14 23a13.19 13.19 0 0 1 3.86-.36c.19.24.75.81 0 1s-3.78.56-3.78.56-.22-.99-.08-1.2z"/><path d="m14.84 31.58c.08-.2.9-.14 1.09.14s.42 14.79.23 15-1.41.57-1.51.1.05-14.91.19-15.24z"/><path d="m18.2 32.38c0-.21.66-.28.94 0s.43 6 .05 6.33-1 .71-1.23.1.24-6.05.24-6.43z"/></g></svg>