<svg height="64" viewBox="0 0 64 64" width="64" xmlns="http://www.w3.org/2000/svg"><path d="m32.37 61c-8.64 0-16.68-1.84-19.16-3.17a8.69 8.69 0 0 1 -4.08-5.88c-.34-1.42-1.75-13-2.28-17.33a9.43 9.43 0 0 1 -3.61-2.62 20.2 20.2 0 0 1 -3.14-5.48 5.57 5.57 0 0 1 .67-3.91 2.68 2.68 0 0 1 2-1.08c.57 0 1.89-.06 3-.08v-.18a3.58 3.58 0 0 1 -1.11-1.47c-.69-1.6-.75-4 2.72-6.38s6-3.65 8.8-4.19a37.5 37.5 0 0 1 5-.57 9.21 9.21 0 0 1 2.7-1.1c.2 0 .45 0 .75-.07a3.75 3.75 0 0 1 .29-1.69c.73-1.6 2.18-2.34 5.17-2.67a19.67 19.67 0 0 1 2.23-.13 23.15 23.15 0 0 1 7 1c2.4.9 2.86 2.63 2.53 3.84 0 .08-.06.24-.12.44a13.14 13.14 0 0 1 2.24.83 4.59 4.59 0 0 1 1.19.88c2.09.19 6.82.85 9.8 3.07 3.63 2.7 4.21 4.35 4.3 5.6v1.4a3.48 3.48 0 0 1 .63 0c1.2.2 3.61 2.82 3.9 3.45a4.5 4.5 0 0 1 -.31 3.5c-.16.4-.28.7-4.78 5.18 0 1.39-.21 4.48-.79 8.83-.72 5.28-2 12-2.92 14-1.09 2.44-3.3 3.19-5.43 3.91-1 .33-6.42 2-16.92 2z" fill="#fff"/><path d="m7.67 23.36v-3s-1.1-.9-1.21-1.24-1.21-1.84 2.04-4.12 5.56-3.38 8.05-3.87a36.52 36.52 0 0 1 5.18-.55 10.76 10.76 0 0 1 2.42-1.1 19.87 19.87 0 0 1 2.48 0 13 13 0 0 1 0-2.83c.2-.45.52-1.21 3.62-1.56a23.29 23.29 0 0 1 8.3.73c1.27.48 1.45 1.14 1.34 1.52s-.65 2.31-.65 2.31a24.07 24.07 0 0 1 3.76 1.14c1 .52 1 1 1 1s6.36.24 9.74 2.76 3.49 3.7 3.52 4.18 0 3.25 0 3.25 2-.07 2.24 0a13 13 0 0 1 2.5 2.35c.21.45-.21 1.62-.35 2s-4.9 5.08-4.9 5.08a77.19 77.19 0 0 1 -.8 9.39c-.79 5.88-2 11.85-2.76 13.48s-2.19 2.14-4.28 2.83-7.53 1.9-16.3 1.94-16.48-1.87-18.48-2.94a6.65 6.65 0 0 1 -3.13-4.63c-.38-1.55-2.39-18.27-2.39-18.27a8.8 8.8 0 0 1 -3.86-2.38 19.79 19.79 0 0 1 -2.75-4.7c-.14-.66-.14-2.59.87-2.66s4.8-.11 4.8-.11z" fill="#604f58"/><path d="m45.94 20.25c.14-.24.42-.62.76-.48a23.35 23.35 0 0 1 2.78 2.23l.68-.19c-.82-.76-2.7-2.52-2.73-2.65s.45-.86.69-.83a30.22 30.22 0 0 1 3.4 3.07l1-.36c-.83-.66-2.91-2.33-2.88-2.61a.72.72 0 0 1 .73-.58 28.79 28.79 0 0 1 3.46 2.63c.31-.15.57-.29.8-.43a24.32 24.32 0 0 1 -2.3-2.1c0-.21.35-.59.59-.52a16.52 16.52 0 0 1 2.48 1.84c.26-.9-.44-1.79-3.27-3.39s-7.81-2.18-7.81-2.18-.21.76-1.55 1.14-4.18.8-9.37.66-9.63-.28-11.29-1-1.9-1.83-1.9-1.83a13.46 13.46 0 0 0 -4.49.69c-3.22.86-6.88 3.94-6.88 4.73s-.27.63 2.14 2.11 9 2.8 14.48 3.08a140.17 140.17 0 0 0 19.86-.42c1-.13 1.94-.3 2.86-.51-.84-.71-2.34-1.92-2.24-2.1z" fill="#f39a9b"/><path d="m41.25 52.66c0-.24 1-.8 1.27-.73a29.82 29.82 0 0 1 3.27 3.51l1.71-.36c-.88-.87-3-3-3-3.11s.38-1 .69-.9a29.23 29.23 0 0 1 3.61 3.7l.92-.28a41.37 41.37 0 0 1 -3.6-3.9c0-.35.55-.7.9-.66a31.84 31.84 0 0 1 3.82 4.07 2.87 2.87 0 0 0 .46-.91c-.92-.9-3.69-3.6-3.77-3.86s.55-.93.76-1a26.61 26.61 0 0 1 3.43 3.53c.09-.31.19-.65.28-1-.89-.92-3.29-3.42-3.23-3.67s.52-.87.66-.87a37.8 37.8 0 0 1 2.92 3.16c.09-.39.19-.81.28-1.23-.7-.89-2.87-3.54-2.93-3.83a.77.77 0 0 1 .56-.76 28.67 28.67 0 0 1 2.74 3.16c.11-.6.23-1.21.33-1.83-.69-.69-2.33-2.33-2.38-2.49s.05-1.4.31-1.4a12.12 12.12 0 0 1 2.3 2.29c.07-.44.13-.88.19-1.32a12.59 12.59 0 0 1 -1.55-2c0-.28.31-.83.48-.83a5.68 5.68 0 0 1 1.28 1c.65-6.35 1.38-18.61 1.38-18.61a28.42 28.42 0 0 1 -2.94 1.18 39.29 39.29 0 0 1 -12.64 2.48 168.06 168.06 0 0 1 -20.69-.58c-7.71-.76-9.47-3-9.47-3l-.07 2.39c.87 1.45 3.46 2.34 3.66 2.62a30.79 30.79 0 0 1 -.06 5.56c-.14 1.35-2.08 1.25-2.28 1.45s1.69 16.93 2.41 18.28 1.8 2.66 7 3.69 9.05 1.18 16.27.9a62.09 62.09 0 0 0 7.71-.78 34.42 34.42 0 0 1 -2.99-3.06z" fill="#f6c687"/><path d="m3.31 24.68c.18-.27 3.8-.25 4.15-.11a30.38 30.38 0 0 1 4.42 3c.11.34.24.21.11.34a18.37 18.37 0 0 1 -4.18.73c-.28-.16-4.88-3.38-4.5-3.96z" fill="#84767e"/><path d="m4.7 28.2c.1-.11 2.31 1.59 2.76 1.69s4.32-.79 4.35-.58.28 2.76 0 2.9a6.88 6.88 0 0 1 -4.87-.94c-2.11-1.34-2.62-2.66-2.24-3.07z" fill="#84767e"/><path d="m21.38 12.27c0-.3 1.25-1.2 2.7-1.62a9.2 9.2 0 0 1 3-.24s.55 1.62 1 1.86a.72.72 0 0 0 .83 0c.1-.06-.94-3.21-1-4.21s.89-1.31 2.24-1.31 3.49 0 5.32 0 2.9.35 2.76.73-1.83 4.66-1.79 4.9.31.62.59.62 1.45-2 1.45-2a17.31 17.31 0 0 1 3.21.83c1.24.52 1.48.73 1.17 1.38s-1.17 1.21-5.14 1.18-12.05-.04-13.82-.39-2.55-.86-2.52-1.73z" fill="#f6c687"/><path d="m57.07 22.91a15.31 15.31 0 0 1 2.38.07 4 4 0 0 1 1 1.39c-.11.06-3.32-.11-3.32-.11z" fill="#84767e"/><path d="m57.17 25.26s3.32 0 3.42.14a25.4 25.4 0 0 1 -3.45 3.91 38.67 38.67 0 0 1 .03-4.05z" fill="#84767e"/><g fill="#604f58"><path d="m29 8.41c.05-.31 5.56-.25 5.84 0s.34 1 .13 1.11a37.91 37.91 0 0 1 -5.8-.14c-.4-.21-.26-.77-.17-.97z"/><path d="m13.4 17.87c.09-1 3.7-2.49 4.18-2.28s.28 1 .07 1.18a15.18 15.18 0 0 0 -2.65 1.41c-.52.55 1.31 1.18 1.38 1.49s.27 1 0 1.07a4.49 4.49 0 0 1 -2.66-1.25 1.84 1.84 0 0 1 -.32-1.62z"/><path d="m22 20.22a94.33 94.33 0 0 0 9.74.73c5.25.1 5.18-.11 5.25.1s.14 1 0 1.14-4.22-.07-9.19-.17-5.6-.31-5.84-.45-.13-1.28.04-1.35z"/><path d="m14.89 48.41s-.83-12.85-.62-13 1.2-.31 1.34-.1.94 12.92.69 13-1.17.27-1.41.1z"/><path d="m17.93 42.19c-.08-.19-.11-10.12.07-10.19s1.34 0 1.34.13.11 10.16-.07 10.3a1.79 1.79 0 0 1 -1.34-.24z"/></g></svg>