<svg height="64" viewBox="0 0 64 64" width="64" xmlns="http://www.w3.org/2000/svg"><path d="m20.86 64c-2.49 0-3.09 0-3.34 0-3.76-.24-3.85-4-3.89-5.65 0-.28-.52-27.53-.22-28.92a3.61 3.61 0 0 1 1.07-1.76 5.93 5.93 0 0 1 -1.27-3.21c-.05-1.77-.27-17.17-.21-18.67.09-2.52 1.55-5.5 5.38-5.71 1.19-.08 5.3-.08 7.62-.08 5.65 0 18.65.08 20.42.3 4.17.54 4.4 4.29 4.49 5.89.13 2 .12 18.25-.14 19.51a7.69 7.69 0 0 1 -1.2 2.43 8.7 8.7 0 0 1 1 3.09c.06 1.23.22 26.94.22 28.64 0 4-4.33 4-5.76 4h-6.71c-5.6.14-13.17.14-17.46.14z" fill="#fff"/><path d="m17.43 28s-2.23-1.85-2.28-3.6-.27-17.11-.21-18.54a3.64 3.64 0 0 1 3.55-3.86c2.8-.15 25.63 0 27.7.22s2.65 1.49 2.81 4.08 0 18.23-.11 19a11.25 11.25 0 0 1 -1.59 2.7 10.89 10.89 0 0 1 1.33 3.34c0 1.16.21 27.12.21 28.55s-.9 2.07-3.81 2.07-25.7.21-27.39.1-2-1.48-2.07-3.76-.47-27.49-.26-28.45 2.12-1.85 2.12-1.85z" fill="#604f58"/><path d="m40.26 22.51c-.06-.26.37-.74.58-.74a45.83 45.83 0 0 1 5.58 3.45l.09-.16a12 12 0 0 0 .08-1.47c-1.19-.79-4.33-2.91-4.37-3s.1-.79.53-.84a18.47 18.47 0 0 1 3.86 2.49c0-.59 0-1.24 0-1.93-1-.45-3-1.42-3.09-1.78s.27-1 .43-1a24.87 24.87 0 0 1 2.67 1.36c0-5.06 0-11.48 0-12.06 0-1-.53-1.85-1.21-2s-24.86-.33-26.08-.17a2.35 2.35 0 0 0 -1.9 2.65s.1 15.79.31 16.9a2.8 2.8 0 0 0 2.87 1.91h19.48a18.71 18.71 0 0 1 -2.75-2.27c-.15-.42-.1-.85.37-.79a28.7 28.7 0 0 1 4.67 3.06h1.53a4.93 4.93 0 0 0 1.28-.12c-1.55-1-4.89-3.28-4.93-3.49z" fill="#ddeff2"/><path d="m38.51 57.48a.56.56 0 0 1 .48-.9 20 20 0 0 1 3.52 3c1.06-.07 1.92-.16 2.57-.25a34.9 34.9 0 0 1 -4.08-3.44c-.11-.43.53-1 .69-1a61.87 61.87 0 0 1 4.91 3.82 16.4 16.4 0 0 0 .09-1.94 31.68 31.68 0 0 1 -3.94-3.2c-.06-.37.1-.64.63-.64s2.36 1.64 3.32 2.51q0-1 0-2.13a9.68 9.68 0 0 1 -2.26-2.07c-.26-.69.37-.85.69-.9s1 .58 1.56 1.13c-.06-8.09-.34-19.94-.34-20.26a3.3 3.3 0 0 0 -.9-2.06c-.53-.37-24.05 0-25.43 0a2.34 2.34 0 0 0 -2.12 2s.06 26.43.22 27.07a2.3 2.3 0 0 0 2 1.32 95 95 0 0 0 13 .32c3-.06 5.63-.15 7.71-.26a16.47 16.47 0 0 1 -2.32-2.12z" fill="#ddeff2"/><g fill="#604f58"><path d="m20.92 6.83c.43 0 3.5-.15 3.55.11s.37 1.22-.1 1.27a16.27 16.27 0 0 1 -3.18 0c-.32-.1-.27-1.38-.27-1.38z"/><path d="m20.61 10.91a8.22 8.22 0 0 1 3 .11c.11.21.27 9.27-.21 9.64a3.92 3.92 0 0 1 -2.7.05c-.2-.26-.2-9.58-.09-9.8z"/><path d="m43.17 8.37a1.37 1.37 0 0 1 1.06.11 24.59 24.59 0 0 1 .05 4.92c-.21.06-1 .11-1-.26s-.11-4.77-.11-4.77z"/><path d="m21.08 33.69c.09-.51 2-.9 2.39-.26s.53 9.48.15 10a1.7 1.7 0 0 1 -2.17.32c-.53-.52-.45-9.75-.37-10.06z"/><path d="m26.33 31.78a18.31 18.31 0 0 1 5.61.22 1 1 0 0 1 0 1 35 35 0 0 1 -5.35.11c-.32-.11-.48-1.17-.26-1.33z"/><path d="m43.12 31.57c0-.33 1-.37 1.11-.05a51.9 51.9 0 0 1 .05 7.68c-.21.21-1 .27-1.11 0s-.05-7.47-.05-7.63z"/></g></svg>