<svg height="64" viewBox="0 0 64 64" width="64" xmlns="http://www.w3.org/2000/svg"><path d="m5.18 57.39c-2.18 0-4.26-2.11-4.87-3.63-.76-1.9-.11-4.07 1.75-5.76.88-.83 2.41-2 3.42-2.83a14.11 14.11 0 0 1 -.48-5.12c.58-2.5 4.33-5.63 6.51-7.26 1.61-1.22 5.65-4.14 9.92-7.22 4.46-3.24 9.08-6.57 11.8-8.57a105.6 105.6 0 0 1 11.77-7.53 5 5 0 0 1 2.36-.47 10 10 0 0 1 2.5.34 9.77 9.77 0 0 1 1.73.72 27.88 27.88 0 0 1 4.7-2.95 6.52 6.52 0 0 1 2.36-.47 5.07 5.07 0 0 1 3.86 1.8c1.94 2.2 2 4.22.13 7a19.64 19.64 0 0 1 -5 4.52 17.19 17.19 0 0 1 0 5c-.46 2.13-2.6 4.19-4.57 5.95l-.52.48c-.46.44-2.07 1.64-6.21 4.71-3.34 2.48-7.59 5.6-10.26 7.7-5 4-12 9.05-14.33 10.55l-1 .68a7.1 7.1 0 0 1 -4 1.6 7.23 7.23 0 0 1 -.91 0 7.39 7.39 0 0 1 -4.54-1.63c-.34-.24-.64-.47-.91-.7-1.59 1.4-3.31 2.7-4.39 3a3.42 3.42 0 0 1 -.82.09z" fill="#fff"/><path d="m7.68 45.9s-1.12-4.08-.81-5.41 2.54-3.71 5.78-6.16 16.35-11.8 21.73-15.79a104.42 104.42 0 0 1 11.56-7.36 5.56 5.56 0 0 1 3.4 0 13.73 13.73 0 0 1 2.41 1.15 38.46 38.46 0 0 1 5.25-3.44 3.36 3.36 0 0 1 4.08.81c1.2 1.36 1.45 2.41 0 4.64s-5.49 4.66-5.49 4.66a19.54 19.54 0 0 1 .15 5.57c-.43 2-3.68 4.6-4.54 5.44s-11.2 8.25-16.32 12.27-12 9-14.19 10.45-2.35 1.79-4.14 2a5.37 5.37 0 0 1 -4.15-1.3 6.14 6.14 0 0 1 -1.88-1.86s-3.74 3.56-5 3.87-3-1.3-3.4-2.38-.06-2.42 1.27-3.65 4.29-3.51 4.29-3.51z" fill="#604f58"/><path d="m49.84 21.91c0-.25 0-.84.15-.87s3 1.31 3.91 1.75a14.19 14.19 0 0 0 -.08-1.67 40.06 40.06 0 0 1 -3.67-1.75c-.06-.15-.06-.83.06-.83s2.47 1 3.44 1.44a14 14 0 0 0 -.88-3 6.6 6.6 0 0 0 -5-4c-.93-.1-4.39 1.32-10.82 5.81s-23.28 16.81-23.28 16.81 2.69-.52 6.28 3.84a12.43 12.43 0 0 1 2.32 9.86 13 13 0 0 1 1.05-.9c.8-.65 5-3.74 9.8-7.36 4.46-3.37 11.46-8.68 14.16-10.91a9.45 9.45 0 0 1 -2-.9c0-.18.22-.86.41-.8a20.94 20.94 0 0 1 2.31 1.08l.87-.69c-.77-.21-2.49-.74-2.49-1s.46-.8.74-.74a20.58 20.58 0 0 1 2.61 1.12l1.14-.81c-.79-.31-2.72-1.09-2.7-1.36s.46-.74.65-.71a14.24 14.24 0 0 1 2.91 1.44c.4-.31.76-.61 1.06-.89a31.89 31.89 0 0 1 -3.79-1.8c0-.21.1-.74.37-.74a32.53 32.53 0 0 1 4 1.9 1.86 1.86 0 0 0 .28-.54 6 6 0 0 0 .17-.93 26.71 26.71 0 0 1 -3.98-1.85z" fill="#f6c687"/><path d="m4.24 51.24c.11-.21 8.32-6.8 8.54-6.83s1.08.71.83 1.27-7.73 7.54-8.5 7.54-1.21-1.3-.87-1.98z" fill="#fcdfc8"/><path d="m9.31 44.69c0-.12-.86-3.25-.31-4.48s2.79-2.82 4.15-2.54a8.59 8.59 0 0 1 6.43 5.75c1.48 4.33 1.26 5.63.15 6.93a5 5 0 0 1 -4.08 2.07c-1.51-.16-3.52-2.57-3.37-2.94s3.93-3.09 3.8-3.62a12.06 12.06 0 0 0 -2.5-3.49c-.87-.68-1.86.34-2.44.74s-1.83 1.58-1.83 1.58z" fill="#f6c687"/><path d="m18.43 35.45c-.12-.09.59-.71.93-.59s3 2.29 3.15 3-.65 1.27-.77 1.14-2.81-3.21-3.31-3.55z" fill="#604f58"/><path d="m53.08 13.41s4.67-3 5.23-3 1.76.62 1.61 1.67-5 4.95-5 4.95a10.89 10.89 0 0 0 -1.84-3.62z" fill="#fcdfc8"/></svg>