<svg height="64" viewBox="0 0 64 64" width="64" xmlns="http://www.w3.org/2000/svg"><path d="m6.35 58.54a5.86 5.86 0 0 1 -2.55-.48c-1.87-.9-3.46-4.68-3.64-5.39-.26-1-.28-3.46.58-4.56.44-.64 3.1-5.37 4.87-8.51 2.05-3.6 2.91-5.17 3.16-5.55.62-.93 2-1.84 5.43-4 1-.63 2.13-1.34 3.32-2.11 4.26-2.77 20.72-14.27 22.94-15.9 2.46-1.8 2.83-2 3.34-2.22.12-.05.21-.08 2.13-.64 2.76-.81 8.5-2.5 9.91-3a9.43 9.43 0 0 1 3.21-.72 4.54 4.54 0 0 1 1.3.19c1.57.43 3.86 3.7 3.63 5.72-.18 1.63-4.42 12.07-4.82 12.83s-1.93 2.18-11.94 10.88c-2.72 2.36-5.06 4.4-6 5.24-2.06 1.91-5.94 5.17-9 7.79l-2.47 2.07a25 25 0 0 1 -6.21 4.11c-.65.25-6.69 2.16-11 3.26a26.73 26.73 0 0 1 -6.19.99z" fill="#fff"/><path d="m2.26 49.32c.51-.58 7.55-13.33 8.13-14.2s4-2.8 8.19-5.54 20.74-14.29 23-16a18.28 18.28 0 0 1 2.87-2c.26-.09 10-2.9 12-3.64s2.74-.65 3.32-.48 2.36 2.48 2.23 3.64-4 11.22-4.56 12.19-14.86 13.16-17.51 15.61-8.48 7.29-11.45 9.8a24 24 0 0 1 -5.64 3.78c-.52.19-6.49 2.09-10.81 3.19s-6.45 1.1-7.38.64-2.39-3.25-2.65-4.12a5.25 5.25 0 0 1 .26-2.87z" fill="#604f58"/><path d="m58.9 9.48c-.84-.16-12.29 3.58-13.36 3.94s-3.74 2.38-7.25 4.77-24.39 15.9-26 17.58-7.81 13.52-8 13.61a.63.63 0 0 0 -.07.77 3.91 3.91 0 0 1 2.84.29c2 .81 2.19 3.78 2.19 3.78s10.85-2.52 13.01-3.61 6.74-4.71 13.38-10.36c3.28-2.8 8.28-7.18 12.49-10.92-.64-.34-1.73-.93-1.75-1.14s.26-.68.49-.61a7.48 7.48 0 0 1 2 1.14l.89-.79a12.11 12.11 0 0 1 -2.47-1.13c0-.22.1-.74.39-.71a11 11 0 0 1 2.69 1.3q.41-.37.81-.72a17.59 17.59 0 0 1 -2.76-1.48c-.06-.23.13-.77.45-.71a13.62 13.62 0 0 1 2.92 1.65l.75-.67a39.86 39.86 0 0 1 -3.54-2.14c0-.16.29-.68.54-.61a22.53 22.53 0 0 1 3.55 2.19l.62-.55c-.88-.62-3.27-2.32-3.33-2.48s.13-.68.49-.65a17.83 17.83 0 0 1 3.44 2.6l.5-.45c-.72-.72-3.29-3.08-3.27-3.24s.55-.62.71-.58a28.41 28.41 0 0 1 3.06 3.37c.4-.36.63-.57.65-.6.2-.23 4.16-10.45 4.26-10.84s-.49-1.84-1.32-2z" fill="#f6c687"/><path d="m4.29 50.93c.29-.28 1.65-.29 2.74.9s1.23 2.29.91 2.68a2.18 2.18 0 0 1 -2.23.35c-.71-.38-2.13-3.25-1.42-3.93z" fill="#fcdfc8"/><g fill="#604f58"><path d="m15 36.22c.38-.26 2.45.32 4.9 2.74s3.26 7 3.39 7.81.19 1.06 0 1.16-.78.19-.87.06-.13-4.38-2.71-7.45-4.23-3.22-4.52-3.32-.48-.81-.19-1z"/><path d="m20.1 35.16c-.12-.16.12-.58.51-.58s1.26.64 2.16 1.8 1.1 1.58 1 1.84-.45.55-.67.36a29.67 29.67 0 0 0 -1.87-2.33 12.15 12.15 0 0 1 -1.13-1.09z"/><path d="m48.54 13.71c0-.13.49-.61.74-.52a17.54 17.54 0 0 1 4 3.32c1.58 1.81 2.67 3.75 2.54 4.07a1.23 1.23 0 0 1 -.61.51 12.88 12.88 0 0 0 -3.1-4.51 34 34 0 0 0 -3.57-2.87z"/></g></svg>