<svg height="64" viewBox="0 0 64 64" width="64" xmlns="http://www.w3.org/2000/svg"><path d="m6.63 58.42c-1.82 0-2.41 0-2.74-.06-1.7-.14-3.62-1.84-3.83-4.7-.19-2.66.06-4.59.78-5.86a4.83 4.83 0 0 1 3.58-2.54 22.92 22.92 0 0 1 2.09-12.51c3.34-6.69 5.69-10.22 12.8-13.68a47.63 47.63 0 0 1 6.34-2.62 4 4 0 0 1 -2.47-3.53c-.11-.92-.07-5.85 2.82-6.92a14.14 14.14 0 0 1 4.63-.44c1.56 0 3.18.07 4.17.13h.63c1.74.09 4.66.24 5 3.48.33 3 .12 5-.65 5.91a4.24 4.24 0 0 1 -.7.63 30.4 30.4 0 0 1 6.06 2.29c6.75 3.27 10.21 7.52 12 14.66a67.89 67.89 0 0 1 1.65 12.42 9.3 9.3 0 0 1 2.28.2c2.07.55 2.88 1.93 2.95 4.94.07 3.35 0 4.71-.63 5.71s-1.84 1.54-3.73 1.7c-.34 0-1.32 0-4.66.07-4.85 0-13.9.14-27 .4-10.89.22-17.87.32-21.37.32z" fill="#fff"/><path d="m6.65 46.94a21.38 21.38 0 0 1 1.59-13.32c3.27-6.54 5.39-9.63 11.92-12.8s8.73-3.09 8.73-3.09l-.08-2.8a15.64 15.64 0 0 1 -2.39-.27c-.73-.2-1.19-.93-1.32-2s.26-4.36 1.52-4.83 5.89-.33 8-.2 3.64 0 3.84 1.79.2 4-.2 4.44a2.88 2.88 0 0 1 -1.92.86 16.06 16.06 0 0 0 -1.65.13l.06 2.38s3.25-.53 9.54 2.52 9.33 6.88 10.92 13.37a70.31 70.31 0 0 1 1.66 13.88 24.85 24.85 0 0 1 3.64.13c.73.2 1.46.27 1.53 3.11s0 4.11-.33 4.64-1.46.73-2.25.79-11.19.07-31.51.47-23.11.33-23.9.26-1.92-1.06-2-2.91a9.36 9.36 0 0 1 .53-4.77 3 3 0 0 1 2.53-1.62c1.39-.27 1.54-.16 1.54-.16z" fill="#604f58"/><path d="m45 45c0-.31.84-.48.84-.48a37.55 37.55 0 0 1 3.14 2.32l3.02.16a45.53 45.53 0 0 1 -4.14-2.83.49.49 0 0 1 .44-.75 62.88 62.88 0 0 1 6 3.21c0-.27 0-.7 0-1.36 0-.13 0-.29 0-.47-1.25-.64-5.11-2.47-5.26-2.66s-.18-1.06.31-1a34.53 34.53 0 0 1 4.89 2.5c-.05-.66-.14-1.46-.26-2.36-1.07-.55-4.3-2.19-4.41-2.3s-.14-.88.17-.84 2.8 1.08 4 1.68c-.11-.69-.24-1.43-.39-2.2-1.23-.41-3.8-1.29-3.9-1.6s0-.83.22-.83a29.61 29.61 0 0 1 3.39 1c-.12-.54-.24-1.09-.38-1.65-1-.24-3.24-.81-3.41-1.12s-.35-1.06-.09-1.06a27.69 27.69 0 0 1 3.13.72 15.67 15.67 0 0 0 -.69-2 21.38 21.38 0 0 1 -2.61-.45c-.18-.13-.49-.88-.22-1a7.07 7.07 0 0 1 2.27.24 19.42 19.42 0 0 0 -1.06-2.15 6 6 0 0 1 -1.79 0c-.4-.18-.79-.84-.66-.93a7.55 7.55 0 0 1 1.68-.18c-2.42-3.18-5.86-5.72-9.76-6.26-6.35-.89-11.43-.8-17.61 2.42a23.85 23.85 0 0 0 -11.54 12.35 21.77 21.77 0 0 0 -1.2 11.43c.22.3 6.18.17 19.73 0 6.91-.07 13.18 0 17.74.18a8.87 8.87 0 0 1 -1.59-1.73z" fill="#ddeff2"/><path d="m5 49.33c.56-.34 14.29-.49 25.15-.67s29 .67 29.39.93.18 3.66-.17 3.84-14.22 0-31.74.35-22.81.66-23 .4-.76-4.18.37-4.85z" fill="#f6c687"/><path d="m15.3 33.88c0-.35 1.15-3.35 5-6.05s5.43-2.47 5.78-2.11.45.75.09 1a15.51 15.51 0 0 0 -5.84 3.28c-2.91 2.69-3.13 4.5-3.75 4.72s-1.23-.49-1.28-.84z" fill="#604f58"/><path d="m30.26 17.55a18.06 18.06 0 0 1 0-2.73c.13-.14 3.26-.23 3.35.08a9.26 9.26 0 0 1 0 2.47 29.07 29.07 0 0 1 -3.35.18z" fill="#ddeff2"/><path d="m27.26 12.65c-.41-.13-.17-2.78.13-3s3.4-.27 5.65-.27 3.4.09 3.53.53.18 2.52-.17 2.78a51.59 51.59 0 0 1 -9.14-.04z" fill="#adceea"/><path d="m7.27 51a10.26 10.26 0 0 1 2.87 0c.22.22.31 1 .09 1.11a9.74 9.74 0 0 1 -3 0c-.23-.11-.23-1.06.04-1.11z" fill="#604f58"/></svg>