<svg height="64" viewBox="0 0 64 64" width="64" xmlns="http://www.w3.org/2000/svg"><path d="m15 64c-2.64 0-4.25-.22-5.68-1.45a10.67 10.67 0 0 1 -3.78-7.47c-.16-1.32-.26-2.31-.32-3a5.15 5.15 0 0 1 -3.95-3.08c-1.06-2.71-.95-13.74-.73-14.68.42-1.8 2.62-2.74 4.59-2.74h1a18.36 18.36 0 0 1 .26-8.06c1.69-7.12 7.86-10.52 13.09-11.37a26.71 26.71 0 0 1 4.17-.32c1.13 0 2.15.07 3 .15a10.72 10.72 0 0 1 1.16-3.42 14.42 14.42 0 0 0 1.71-4 3.17 3.17 0 0 1 3.12-2.77 4.13 4.13 0 0 1 .58.05 11.83 11.83 0 0 1 3 1.27c.77.39 1.56.8 2.28 1.1a9.39 9.39 0 0 1 4.27 3.5c1.61-.87 4-2.09 5.8-2.86a27.08 27.08 0 0 0 6.28-3.4 5.65 5.65 0 0 1 3.46-1.45 3.86 3.86 0 0 1 1.81.46c1.68.92 3.61 6.69 3.48 12.46-.16 6.75-2.35 12.84-4.47 15.89l-.52.75h.73 1c1 .08 2.61.66 2.61 3.68v.82c.08 11.47-.15 13-.41 13.73-.47 1.25-1.26 3.35-3.6 4a9.93 9.93 0 0 1 -1.24.21 20.38 20.38 0 0 1 -.53 4.3 11.49 11.49 0 0 1 -3.81 6.27 8 8 0 0 1 -5.25 1.43h-1.65c-.66 0-1.37 0-2.15 0h-5c-3.6 0-8.32 0-12.49 0-3.83 0-6.54 0-8.08.06s-2.74-.06-3.74-.06z" fill="#fff"/><path d="m8.84 33.43s-2-3.25-.55-9.48 6.87-9.15 11.49-9.88a26.41 26.41 0 0 1 8.69.13 8.32 8.32 0 0 1 1-4.71 16.12 16.12 0 0 0 1.93-4.62 1.23 1.23 0 0 1 1.47-1.15c.82.14 3 1.47 4.85 2.25a7.1 7.1 0 0 1 3.52 3 9.25 9.25 0 0 1 .65 1.42s4.48-2.52 7.41-3.75a28.94 28.94 0 0 0 6.7-3.7c1.69-1.32 2.65-1 3.16-.77s2.61 4.71 2.47 10.71-2.03 11.85-4.09 14.83a21.34 21.34 0 0 1 -3.11 3.84s5.12-.09 5.72 0 .82.59.82 1.74.14 12.71-.27 13.82-.92 2.43-2.29 2.8a9.23 9.23 0 0 1 -2.66.27 23.57 23.57 0 0 1 -.45 5.63 9.52 9.52 0 0 1 -3.16 5.26c-1.65 1.33-4 .92-7.83.92s-20.37-.14-25.63 0-6.82.18-8.1-.92a8.79 8.79 0 0 1 -3.11-6.22c-.42-3.48-.42-4.58-.42-4.58s-3.11.19-4-2-.78-12.91-.64-13.5 1.33-1.24 2.7-1.24 3.73-.1 3.73-.1z" fill="#604f58"/><path d="m47.88 55.44a.64.64 0 0 1 .78-.64 17.21 17.21 0 0 1 3.14 3.05c.19-.36.41-.77.68-1.26a23.52 23.52 0 0 1 -2.86-3 .78.78 0 0 1 .73-.64 15.15 15.15 0 0 1 2.7 2.51 8.74 8.74 0 0 0 .42-1.35 7.36 7.36 0 0 1 -1.7-1.52c-.09-.42.46-.92.69-.92a5.24 5.24 0 0 1 1.24 1 8.82 8.82 0 0 0 -.1-2.51c-.09-.23-8.37-.42-18.85-.33s-25.27.37-25.59.51c0 0 .32 2.74.82 5.26a6.22 6.22 0 0 0 3.3 4.3c.64.14 7.41.19 17 0 6.7-.1 11.56 0 14.83 0-.57-.62-1.67-1.87-1.56-2.09s.69-.64 1-.45a11.83 11.83 0 0 1 2.17 2.53h1.62a31.8 31.8 0 0 1 -2.7-2.89c0-.27.27-.91.78-.73a27 27 0 0 1 3.58 3.35 2.18 2.18 0 0 0 1.15-.69 43.22 43.22 0 0 1 -3.27-3.49z" fill="#f39a9b"/><path d="m4.72 35.76c.84-.28 19.91-1 31.67-1.55s22.06-1.1 22.43-.46 0 12.72-.18 13.14a4.41 4.41 0 0 1 -2.75 1.23c-1.19.09-17.3-.55-27-.55s-20 .28-20.83.28-2.79.09-3.11-1.65-.51-10.35-.23-10.44z" fill="#f7babe"/><path d="m6.41 43.73c-.3-.92-.36-5.82.19-6s2.7-.14 2.93.23 0 1.14-.14 1.14-1.79-.22-1.79.14.19 4.44-.13 4.62-.97.14-1.06-.13z" fill="#604f58"/><path d="m11.36 51.87c.11-.08.87-.13 1.05.1s-.32 2.1.18 3 1.28 1.42 1.15 1.74a1 1 0 0 1 -1.15.41 3.64 3.64 0 0 1 -1.33-2.43 8.21 8.21 0 0 1 .1-2.82z" fill="#604f58"/><path d="m11.36 33.43a6.1 6.1 0 0 1 -1.42-4.43c.09-3-.14-3.8.36-3.75s7.78 1.54 8.7 1.75 1.19.05 1.19.32-.19.3-.19.68.09.14 0 .37a78.65 78.65 0 0 1 -6.64 5.12z" fill="#f6c687"/><path d="m10.35 24.23c-.35-.23 1.05-2.7 2.65-4.08s2.61-2.6 3.21-2.1a63 63 0 0 1 4.39 7.83c0 .32 0 .45-.27.55s-9.52-1.93-9.98-2.2z" fill="#f6c687"/><path d="m21.38 25.42c-.33-.22-4.39-7.51-4.07-7.87s1.64-1.06 4.16-1.06 3.62 0 3.71.37-2.18 8.24-2.56 8.47a1.72 1.72 0 0 1 -1.24.09z" fill="#f6c687"/><path d="m23.44 25.24c-.41 0 2.52-8.47 3-8.43a9.71 9.71 0 0 1 3.94 1.74c1.83 1.28 3.06 2.61 2.7 2.89s-8.38 5-8.61 4.85-.66-1.05-1.03-1.05z" fill="#f6c687"/><path d="m24.86 27.11c-.27-.18 8.88-5.22 9.24-4.94a10.44 10.44 0 0 1 1.65 5.17c.09 2.34-.41 4.58-.73 4.76a3.26 3.26 0 0 1 -1.69.18c-.14-.13-8.33-3.84-8.47-4s.14-1.08 0-1.17z" fill="#f6c687"/><path d="m23 32.83a18.55 18.55 0 0 1 -.09-3.15 1.52 1.52 0 0 0 .87-.37c.45-.37.32-.41.45-.37s7.46 3.16 7 3.48-7.79.51-8.23.41z" fill="#f6c687"/><path d="m15.25 33.25c-.32-.11 4.48-4.08 4.89-4.08s.51.41 1 .6 1.05.32 1.05.32a11.84 11.84 0 0 1 0 2.84 58.79 58.79 0 0 1 -6.94.32z" fill="#f6c687"/><path d="m21.75 26.47a1.33 1.33 0 0 1 2 .78c.32.91-1.05 1.6-1.88 1.51s-1.13-1.51-.12-2.29z" fill="#f6c687"/><path d="m12.87 28.16c.35-.11 2.51-.32 2.7.05s.18.92-.19 1.1a5.38 5.38 0 0 1 -2.56-.09c-.27-.22-.23-.96.05-1.06z" fill="#604f58"/><path d="m13.6 22.81a2.1 2.1 0 0 1 2.15.05 1 1 0 0 1 -1.33 1.46c-1.28-.41-1.1-1.24-.82-1.51z" fill="#604f58"/><path d="m19.92 18.46c.27-.28 1.46-.32 1.73.09s-.09 2.25-.54 2.38a.7.7 0 0 1 -.92-.27c-.19-.32-.69-1.79-.27-2.2z" fill="#604f58"/><path d="m26 21.89c.11-.22 1.56.32 1.42 1s-1.42 1.43-1.92 1.11.37-1.83.5-2.11z" fill="#604f58"/><path d="m30.35 25.74c.3-.15.78-.92 1.51-.82s1.28 1.32 1 1.64a2.8 2.8 0 0 1 -2.38.28c-.48-.37-.48-.92-.13-1.1z" fill="#604f58"/><path d="m30.81 28.71c.49-.16 2.84.05 2.84.51s-.32 1.28-.78 1.23a6 6 0 0 1 -2.06-1c-.18-.23-.28-.64 0-.74z" fill="#604f58"/><path d="m24.58 31.87a.65.65 0 0 1 .05-1c.32-.32 1.19-.32 1.28.23s-.36 1.37-1.33.77z" fill="#604f58"/><path d="m18 32.47c-.21-.34 1.05-1.15 1.42-1.19s1 .23.64.78a1.32 1.32 0 0 1 -1.15.77.86.86 0 0 1 -.91-.36z" fill="#604f58"/><path d="m35 18.78a7.36 7.36 0 0 0 -2.52-2.42c-1.78-1.1-2.42-1.42-2.33-1.65a8.1 8.1 0 0 1 1.19-3.8c1.19-1.79 1.74-2.56 1.83-3.11s0-.83.55-1a5.27 5.27 0 0 1 4.18 2.1 8.63 8.63 0 0 1 2 3.15 16.3 16.3 0 0 0 -3 3.85c-1.06 2.1-1.56 3.34-1.9 2.88z" fill="#afc68c"/><path d="m36.71 21.07a16.66 16.66 0 0 1 6.69-8.28c5-3.16 8.23-3.67 11.07-5.63s3.07-2.48 3.39-2.25 3.48 11.09-1.14 18.22-6.82 8.56-7.37 8.65-11 0-11 0a18 18 0 0 0 .09-6.32 17.82 17.82 0 0 0 -1.73-4.39z" fill="#c5dda3"/><g fill="#604f58"><path d="m32.5 12.88c.3-.3 1.15 0 1.28.23s.32.68-.18.68-1 .09-1.19-.09.05-.78.09-.82z"/><path d="m34 9.86s.6-.23.83 0a7.74 7.74 0 0 1 .59 2.79c.14 1.37.23 2.2 0 2.42s-.69.55-.73.19a27.47 27.47 0 0 0 -.23-3.34c-.17-1.06-.63-1.92-.46-2.06z"/><path d="m36.16 11.55c.11-.21.37-.23.83-.73s.41-.83.64-.6a1.1 1.1 0 0 1 .09 1.28c-.27.6-1.1 1.51-1.42 1.33s-.23-1.1-.14-1.28z"/><path d="m41.29 23.4c-.14 0-.82-.5-.82-2.06s-.09-2.33.27-2.47.6-.5.73-.09-.23 2.75 0 3.34.42.6.32 1a.45.45 0 0 1 -.5.28z"/><path d="m44.4 19.1a12.39 12.39 0 0 1 .32-4.44c.46-.87.69-.32.87.09a1.74 1.74 0 0 1 .19 1.33c-.19.37-.55.32-.55 1.28s0 1.51-.19 1.65-.55.23-.64.09z"/><path d="m47.88 16.4s.51-3.75 1-4.07.91-.14.73.55-.82 1.87-1 2.74-.61.6-.73.78z"/><path d="m49.76 20.29a5.28 5.28 0 0 0 2.65-.29c1.24-.55 1.56-.73 1.47-.41a3.74 3.74 0 0 1 -2.15 1.65 3.31 3.31 0 0 1 -1.93-.09c-.18-.15-.27-.9-.04-.86z"/><path d="m46.55 24.05a26.6 26.6 0 0 0 2.89 0c1-.14 2.24-.65 2.06-.32a2.81 2.81 0 0 1 -2.15 1.05 10.66 10.66 0 0 1 -2.66-.09c-.23-.19-.36-.6-.14-.64z"/><path d="m45.18 26.79a12.2 12.2 0 0 0 2.29.14c1-.09 2.43-.46 2.33-.09a2.74 2.74 0 0 1 -2.28 1 6.19 6.19 0 0 1 -2.16-.13c-.27-.19-.36-.92-.18-.92z"/><path d="m41.7 28.81a9.81 9.81 0 0 1 3.34-8c3.57-3.17 6.78-5.81 8.06-7.81s1.24-2.38 1.56-2.38.45.92.13 1.7-1.79 2.39-5.26 5.68-4.94 4-5.86 6.87-.55 3.89-.78 4.16a.78.78 0 0 1 -1.19-.22z"/></g></svg>