<svg height="64" viewBox="0 0 64 64" width="64" xmlns="http://www.w3.org/2000/svg"><path d="m39.63 64c-2.08 0-6-.94-10.33-2.44-5.18-1.83-9-4.4-14.7-8.82-6-4.7-9.86-16-10.12-17.67-.32-2 .46-17.1 1.36-21.19s3.67-9.66 8.48-11.82a28.32 28.32 0 0 1 10.93-2.06 24.4 24.4 0 0 1 4.52.39c5.53 1 12.09 5.86 18 13.24 6.55 8.18 11.72 22.3 11.83 24 .07 1-.65 9.73-1.11 11a4.5 4.5 0 0 1 -4 2.82 3.33 3.33 0 0 1 -1.4-.31c-1.13-.53-3-1.86-6.34-7.32-2.54-4.15-8.87-9.82-12.42-11.71a5.74 5.74 0 0 0 -2.67-.61c-2.29 0-4 1.09-4.25 1.54-.16.89 1.68 5 5 9.18 1.73 2.2 6.51 4.13 9.08 5.17a14.36 14.36 0 0 1 2.32 1 4 4 0 0 1 1.54 4.34c-.18 2.43-1 9.57-4.09 10.94a4.08 4.08 0 0 1 -1.63.28z" fill="#fff"/><path d="m43.43 52.48s.47-1.68-.67-2.42-9.13-3.15-11.88-6.64-6.17-9.19-5.23-11.2 6-3.76 9.59-1.82 10.34 7.79 13.16 12.42 4.49 6.1 5.5 6.57 2.41-.47 2.75-1.41a87.56 87.56 0 0 0 1-10.26c-.06-1-5-14.83-11.4-22.88s-12.55-11.74-16.84-12.55a27.28 27.28 0 0 0 -14.29 1.54c-3.9 1.75-6.51 6.51-7.39 10.47s-1.61 18.79-1.34 20.47 4 12.21 9.4 16.44 9.21 6.79 14.15 8.52 9.46 2.68 10.54 2.21 2.52-3.69 2.95-9.46z" fill="#604f58"/><path d="m8.81 20.68c.19-.2 1.34 6 3.62 9.52s9.8 12.42 15.43 15.8 13.29 5.77 13.42 6.17-.94 7.92-1.54 8.12-11.07-1.47-19.26-8.18-11.2-15.26-11.67-17.61-.2-13.62 0-13.82z" fill="#a8a1a7"/><path d="m29.47 45.17s-10.6-7.12-15.16-15.23-4.76-12.48-4.76-14.36 1.54-5.3 3.15-7 2.89-2.58 3.56-2.26 2.95 3.22 2.81 3.55-1.4 1-1.34 1.75.61 1.81 1.34 1.54 1.14-1.16 1.55-1.16 1.21 1.55 2.68 1.88 1.81.47 2.48 2a33.4 33.4 0 0 1 1.55 3.76c0 .34-.2.54-.41.94s-3.69 4-4 8.25.18 9.83 6.55 16.34z" fill="#f7babe"/><path d="m17.87 5.38c0-.33 5.9-1.68 11.34-.2s11.67 5.23 16.57 12.82 8.52 15.9 8.12 15.84a.94.94 0 0 1 -.61-.41s-6.77-9.86-12.14-13-9.06-2.61-10.07-2.41a5.19 5.19 0 0 0 -1.87.87s-.54-4.23-3.63-5.63-3.35-1.68-3.42-2.08.54-.41.67-.88a1.4 1.4 0 0 0 -.67-1.47c-.6-.47-1.14-.74-1.41-.47s-.47.47-.74.13-2.21-2.64-2.14-3.11z" fill="#f7babe"/><path d="m13.64 10.81c.28-.18.74.2.67.67s-1 1.82-.87 3.49a12.33 12.33 0 0 0 .67 3.09l-.47.13a4.73 4.73 0 0 1 -1.21-3.55c.2-2.15.81-3.56 1.21-3.83z" fill="#604f58"/><path d="m55.11 40.54a42.35 42.35 0 0 0 -9.11-13.49c-6-6-12.35-8-15.77-6.24s-4.76 8.45-4.76 8.45a12 12 0 0 1 6.22-1.72 16.58 16.58 0 0 1 -.69-3.71c.2-.4.6-.67.81-.4a22.28 22.28 0 0 1 1 4.12h.79a9.09 9.09 0 0 1 1.4.23 21.33 21.33 0 0 1 -.93-4 .79.79 0 0 1 1-.13 16.68 16.68 0 0 1 1.05 4.47 13.16 13.16 0 0 1 2.73 1.46c-.24-1.21-.77-4-.56-4.26a.76.76 0 0 1 1.08.07 38.87 38.87 0 0 1 .57 5c.76.61 1.55 1.3 2.36 2.05 0-.85-.09-2.36-.18-3.37-.14-1.48-.47-2.08-.27-2.21s1.27.47 1.34.94a22.11 22.11 0 0 1 .2 3.82 14.37 14.37 0 0 0 0 1.85l.93.9c.56.54 1.16 1.19 1.78 1.88a25.08 25.08 0 0 0 -.1-3.09c-.2-1.94-.2-2.35-.2-2.35s1-.06 1.14.41a32.6 32.6 0 0 1 .4 4.76c0 .47-.11 1.06-.17 1.52.88 1 1.77 2.17 2.61 3.27 0-.6 0-1.53 0-2.78-.07-2.28-.41-2.88-.2-3s.67-.33.87 0a22.71 22.71 0 0 1 .54 4.7c-.05.63-.13 1.67-.25 2.34.68.91 1.3 1.76 1.83 2.5a5.17 5.17 0 0 0 .25-2.53 14.52 14.52 0 0 1 -.13-2.55.41.41 0 0 1 .74 0 9.11 9.11 0 0 1 .4 2.82 13.86 13.86 0 0 1 -.27 2.82 2.27 2.27 0 0 1 -.24.57l1 1.51.58-.17c.54-.09.27-6.06.21-6.46z" fill="#f39a9b"/><g fill="#604f58"><path d="m12.83 29.13s-.13 5.77-.13 7.31.07 2.49.34 2.55.4.14.47-.33.46-7.65.4-8a8.81 8.81 0 0 0 -1.08-1.53z"/><path d="m16.46 34.43c.06.27.06 10.87.6 11.07s.67-9.86.67-9.86z"/><path d="m20 38.59s.14 9.33.41 9.6.87-8.53.87-8.53z"/><path d="m22.83 41.27s.07 9.87.27 9.94.94-9 .94-9z"/><path d="m26.32 44.29s-.13 10.27.2 10.27 1.21-9.39 1.21-9.39z"/><path d="m30.21 46.51c0 .2-.8 8.86-.33 9s1.61-8.25 1.47-8.52-1.14-.48-1.14-.48z"/><path d="m33.7 48.05c.07.2-.07 7.65.2 7.78s1.34-6.7 1.21-7-1.41-.78-1.41-.78z"/><path d="m38 49.8c0 .33.06 6.37.33 6.44s1.21-5.37 1.21-5.37z"/></g></svg>