<svg height="64" viewBox="0 0 64 64" width="64" xmlns="http://www.w3.org/2000/svg"><path d="m27 54.16c-8.62-.1-14.87-1.61-18.58-4.51-4.59-3.57-6.94-7.74-6.42-11.46a12.48 12.48 0 0 1 1-3.66 21.67 21.67 0 0 1 -2.17-1.65 2.91 2.91 0 0 1 -.75-2.71 2.45 2.45 0 0 1 1.57-1.78 5.58 5.58 0 0 1 1.24-.2 2.17 2.17 0 0 1 1.45-1.81 2.42 2.42 0 0 1 .56-.12c.6-1.41 1.32-2.1 2.3-2.22h.15a5.47 5.47 0 0 1 .65-.04 2.21 2.21 0 0 1 2.16 1.55 6.71 6.71 0 0 1 .17 2.19 8 8 0 0 1 2.67-.55 17.79 17.79 0 0 1 8.34 2.26c.93.57 1.89 1.21 2.68 1.76a9.14 9.14 0 0 1 1.59-2 7 7 0 0 1 2.3-1.21c.27-1.66.81-4.65 1.56-7.47 1.06-4 3-7.62 5-9.29a6 6 0 0 1 3.73-1.36c1 0 4.21.35 5 4.84.84 4.92-.92 8.2-2.79 11.15-1.41 2.22-3.49 5.02-4.41 6.21v.89a13.47 13.47 0 0 0 4-2.29c4.48-3.84 7.43-5.59 9.88-5.84.34 0 .67-.05 1-.05a8.48 8.48 0 0 1 1.86.2 8.2 8.2 0 0 1 1.49-2.27 4.31 4.31 0 0 1 2.93-1.26 2.68 2.68 0 0 1 1.63.5 2.59 2.59 0 0 1 .76 1 3.23 3.23 0 0 1 2.52 1.04 2.86 2.86 0 0 1 .51 1.13 3 3 0 0 1 1.29 3.33 4.74 4.74 0 0 1 -2.87 2.86c-.67.28-1.47.55-2.15.77a17.38 17.38 0 0 1 -1.25 7.5c-1.76 3.6-6.2 7.4-11.89 10.17a42.05 42.05 0 0 1 -18.29 4.4z" fill="#fff"/><path d="m5.59 34s-3-2.09-3.39-2.46-.34-1.14.06-1.27a20.05 20.05 0 0 1 2.53-.27s-.14-1.71.16-1.81a5.2 5.2 0 0 1 1.31 0s.64-2.19 1.18-2.19.74-.14.84.16.07 4.78.07 4.78 2.45-1.78 4.6-1.78a15.9 15.9 0 0 1 7.33 2c2 1.24 4.31 2.92 4.31 2.92a13.72 13.72 0 0 1 2.25-3.32 6 6 0 0 1 2.79-1.18 85.5 85.5 0 0 1 1.71-8.58c1.08-4 3-7.09 4.41-8.3s4.84-1.85 5.54 2.32-.7 6.92-2.52 9.78-4.71 6.69-4.71 6.69a23.07 23.07 0 0 1 0 2.62 11.48 11.48 0 0 1 -.06 1.47 15.9 15.9 0 0 0 7.27-3.43c3.32-2.86 6.48-5.14 8.8-5.38a6.35 6.35 0 0 1 3.73.64 12.1 12.1 0 0 1 1.75-3.29 1.91 1.91 0 0 1 2.05-.61c.27.2.41 1.14.74 1.28s1.92 0 2.22.37.1 1 .77 1.44.84.95.74 1.25a2.83 2.83 0 0 1 -1.81 1.68c-1.38.57-3.43 1.14-3.43 1.14s.5 5-1 8.07-5.47 6.59-11 9.28a40.24 40.24 0 0 1 -17.83 4.2c-6.06-.07-13.28-.87-17.42-4.1s-6.08-6.79-5.71-9.68a9.12 9.12 0 0 1 1.72-4.44z" fill="#604f58"/><path d="m48.49 39.68c0-.17.53-.84.84-.81a11.1 11.1 0 0 1 2.07 1.85 10.46 10.46 0 0 0 .65-.84c-.77-.58-2.36-1.83-2.29-2.08s.27-.74.58-.67a12.91 12.91 0 0 1 2.35 1.81c.21-.35.42-.69.6-1a16.37 16.37 0 0 1 -2.11-1.61c0-.21.53-.88.84-.74a12.25 12.25 0 0 1 1.73 1.3 11.67 11.67 0 0 0 .42-1.31 23.64 23.64 0 0 1 -2.09-1.41c-.1-.16.27-.94.57-.77s1.14.59 1.74 1a4.85 4.85 0 0 0 .08-.53c.24-3.63-2.35-4.67-4.17-4.64s-5.14 3-9.11 5.88a14.54 14.54 0 0 1 -7.63 2.89l-.44 1.21c-.33.94-.62 1.36-.89 1.46a1.07 1.07 0 0 1 -.91 0c-.24-.17.19-1.46.09-1.86s-2-.94-2.25-.94-.31.47-.47 1a2.69 2.69 0 0 1 -.69 1.06.9.9 0 0 1 -.77-.2c-.2-.2 0-.62.08-1.7s-1.61-1.24-1.91-1.17-.64 1-.81 1.12-.53-.06-.77-.23.23-2 .23-2-2.25-1.48-4.43-2.59a12.32 12.32 0 0 0 -6.29-1.64c-2.66 0-4.48 1.83-5.45 3.12-1.34 1.82-2.21 4.17-.9 6.59a16.35 16.35 0 0 0 8.37 6.86c3.76 1.28 12.1 2 16.5 1.55s10.4-2.79 15-5.27a10.15 10.15 0 0 1 -1.56-1.53.74.74 0 0 1 .7-.6 4.85 4.85 0 0 1 2 1.44c.24-.16.5-.3.73-.46-.62-.57-2-1.89-2-2.12s.2-.78.71-.68a9 9 0 0 1 2.24 2c.36-.31.7-.62 1-.94a19.12 19.12 0 0 1 -2.18-1.8z" fill="#d16d6c"/><path d="m6.1 33.16s-2.86-1.95-2.66-2.16 1.55.11 1.88.14.51-.24.64-.07a2.74 2.74 0 0 0 .64.41s.57-.21.5-.34-1.44-1.85-1.27-1.92.64.24.84.07.8-1.18.84-.91a19.68 19.68 0 0 1 0 3.43c-.14.19-1.18.91-1.41 1.35z" fill="#d16d6c"/><path d="m10.7 35.14c.26-.21.54.51.54.61a3.55 3.55 0 0 0 -1 1.85c-.27 1.31-.07 2.25-.24 2.32s-.7-.1-.7-1.52a4 4 0 0 1 1.4-3.26z" fill="#604f58"/><path d="m17.79 32.12a3.56 3.56 0 0 1 -.13 2.55c-.57 1.41-.91 2-.81 2.19s.27.43.54.33a6.86 6.86 0 0 0 1.35-3c.23-1.28.3-1.65.23-1.75a6.2 6.2 0 0 0 -1.18-.32z" fill="#604f58"/><path d="m21.39 33.76a4.24 4.24 0 0 1 -.1 2.46c-.47 1.38-.94 1.81-.81 2.05s.21.37.37.3a11 11 0 0 0 1.58-2.69 7.93 7.93 0 0 0 .34-1.31z" fill="#604f58"/><path d="m25.59 35.48s2.41-5.55 5.21-4.37 1.08 6.18 1 6.25-.8-.74-1.8-.74a3.71 3.71 0 0 0 -1.48.24 2.77 2.77 0 0 0 -1.25-1.15 8.37 8.37 0 0 0 -1.68-.23z" fill="#ddeff2"/><g fill="#604f58"><path d="m35.38 37.36a2.16 2.16 0 0 1 .9 1.51 20.78 20.78 0 0 0 .27 2.63 1 1 0 0 0 .54-.07 8.17 8.17 0 0 0 .13-3.23 3.76 3.76 0 0 0 -.43-1.2z"/><path d="m38.77 36s1.25 0 2.12 1.91.81 2.15 1 2.19a.56.56 0 0 0 .37-.14 7.28 7.28 0 0 0 -.4-2.65 4.23 4.23 0 0 0 -2.08-2c-.17.07-1.01.69-1.01.69z"/><path d="m41.29 34.34a5.18 5.18 0 0 1 3.5.94c1.65 1.21 2 1.17 2 1.17l.2-.3a3.72 3.72 0 0 0 -1.99-2.25 4 4 0 0 0 -2.48-.67z"/><path d="m45.36 31.31s1-.23 2.19 1.31a16 16 0 0 0 1.47 2 .45.45 0 0 0 .31-.07 5.57 5.57 0 0 0 -1-2.55c-.87-1.08-1.61-1.48-1.78-1.41s-1.19.72-1.19.72z"/></g><path d="m54.6 27.48s1.48-3.06 1.89-3 .7.23.74.53-.71 1.35-.88 1.62a.5.5 0 0 0 .17.67c.17.1.34.13.44 0a5.09 5.09 0 0 1 1.28-1.3 1.44 1.44 0 0 1 1.27.07c.54.27.07.71.3 1s1.11.14.95.61-3.16 1.41-3.53 1.71a2 2 0 0 1 -1 .34 3.62 3.62 0 0 0 -1.63-2.25z" fill="#d16d6c"/><path d="m31 29s1.65-8.6 2.83-11.33 2.79-5 4.94-4.1 1.75 4.41.1 7.77a59.47 59.47 0 0 1 -5.87 8.46 2.94 2.94 0 0 0 -2-.8z" fill="#ddeff2"/></svg>