<svg height="64" viewBox="0 0 64 64" width="64" xmlns="http://www.w3.org/2000/svg"><path d="m14.46 55a3.41 3.41 0 0 0 3.4-3.07 3.75 3.75 0 0 0 -.9-3 3.46 3.46 0 0 0 -2.62-1.25 3.17 3.17 0 0 0 -1.25.25 3.57 3.57 0 0 0 -2.4 3.51 3.77 3.77 0 0 0 2.6 3.36 4 4 0 0 0 1.17.2zm1.54 2.25a4.33 4.33 0 0 0 -1.37.23 3.24 3.24 0 0 0 -2.37 2.79 3.56 3.56 0 0 0 2.18 3.34 3.45 3.45 0 0 0 1.56.39 3.76 3.76 0 0 0 3.51-3.23 2.83 2.83 0 0 0 -.67-2.27 3.79 3.79 0 0 0 -2.84-1.25zm-.2-40.88a2.34 2.34 0 0 0 .83-.15 2.76 2.76 0 0 0 1.37-1.39 10.91 10.91 0 0 1 .84-1.36c.37-.53.94-1.26 1.47-2 1.43-1.85 1.64-2.15 1.78-2.64.1-.33.45-2-1.67-2.86a2.55 2.55 0 0 0 -.91-.19c-1.26 0-1.75.72-3.07 2.66a43.36 43.36 0 0 0 -2.56 4.45v.1a2.19 2.19 0 0 0 0 2.2 2.32 2.32 0 0 0 1.92 1.18zm38.69-6.66a2.36 2.36 0 0 0 -1.32-.39 2.43 2.43 0 0 0 -2 1.09 15.45 15.45 0 0 0 -2-4.08c-2.84-4.05-7.25-6.24-12.79-6.33h-.18c-5 0-9.94 3.25-14.17 9.39-2.64 3.83-6.52 13.2-7.75 16.24a5 5 0 0 0 -.9.4c-1.25.7-4.54 5.32-4.71 5.63a6.59 6.59 0 0 0 -.55 4.05c0 .06 1 5.88 3.81 8.54a18.76 18.76 0 0 0 9.89 5.2 18 18 0 0 0 2.91.31 2.33 2.33 0 0 0 -1.14 1.5 2.6 2.6 0 0 0 -.05 1 3.44 3.44 0 0 0 -2.11-.73 3.82 3.82 0 0 0 -.95.13 3.75 3.75 0 0 0 -2.75 3.34 3.62 3.62 0 0 0 2.27 3.66 4.4 4.4 0 0 0 1.78.42c2.42 0 2.86-2.36 3-3.25a4 4 0 0 0 0-1.47l.12.09a2.55 2.55 0 0 0 1.32.35 3.22 3.22 0 0 0 3.21-2.59 2.39 2.39 0 0 0 -.56-1.9 2.54 2.54 0 0 0 -1.08-.7 11.66 11.66 0 0 0 4-1.23c1.28-.76 4.58-6.64 4.58-7.78 0-.06 0-.24-.1-1.36 1.81-1.78 6.8-6.77 9.27-9.78a2.09 2.09 0 0 0 .2.88 3.19 3.19 0 0 0 2.53 1.71c1.26 0 2.21-.9 4.23-4a20.25 20.25 0 0 0 3.5-9.05c0-.06.18-8.17-1.51-9.29z" fill="#fff"/><path d="m15.7 27.3s4.91-12.43 7.93-16.81 7.37-8.63 12.72-8.55 9 2.27 11.19 5.49a14.68 14.68 0 0 1 2.24 10.66c-.58 3.43-2.73 6.36-5.54 9.87s-10 10.54-10 10.54.17 1.86.17 2.1-2.81 5.62-3.64 6.12a13.58 13.58 0 0 1 -8.59.82 16.57 16.57 0 0 1 -8.92-4.71c-2-1.85-3-6.15-3.22-7.43a4.75 4.75 0 0 1 .33-2.81 35.68 35.68 0 0 1 4-4.87 3.46 3.46 0 0 1 1.33-.42z" fill="#604f58"/><path d="m41.93 18.88c0-.29 0-.75.37-.66a20.22 20.22 0 0 1 3.37 3.78c.32-.54.6-1 .84-1.48-.76-.86-3.31-3.5-3.34-3.75s.2-.83.53-.7a18.43 18.43 0 0 1 3.3 3.39 8.31 8.31 0 0 0 .61-2c-.81-.91-2.77-2.92-3-3.15s-.37-.58-.12-.78 2.4 1.71 3.26 2.58c0-.47 0-1-.08-1.51a11.3 11.3 0 0 0 -7-9.37c-4.8-1.78-9.75-.25-13.35 4s-9.68 17.77-9.68 17.77a14.08 14.08 0 0 1 9.25 2.07 15.11 15.11 0 0 1 6.24 7.1 124.65 124.65 0 0 0 8.71-8.93c-.66-.68-3.7-3.88-3.55-4.28s.41-.75.7-.58a44.48 44.48 0 0 1 3.53 4c.35-.42.69-.84 1-1.26-.65-.67-3.36-3.53-3.33-3.86s.42-.7.66-.66a31.78 31.78 0 0 1 3.34 3.6c.1-.14.21-.28.3-.42l.58-.88a41.31 41.31 0 0 1 -3.14-4.02z" fill="#f9f2ed"/><path d="m15.08 29.66a16.19 16.19 0 0 1 9 .82c4.09 1.74 5.66 3.56 6.78 6.45s1.53 3.51 1.36 4a20.23 20.23 0 0 1 -1.4 3.1 17.62 17.62 0 0 0 -6.36-9c-5.25-3.76-8.8-2.85-9.79-2.52s-2.11 1.28-2.07 1a40.59 40.59 0 0 1 2.48-3.85z" fill="#ddeff2"/><path d="m12.14 34.86c.13-.3 3.8-3.18 9.67-.29a15.78 15.78 0 0 1 7.85 9.17c.16.62.16.87-.08 1.08s-6.12 2.18-10.91-.62-7.31-7.4-6.53-9.34z" fill="#adceea"/><g fill="#604f58"><path d="m23.21 20.49c.21-.29 4.18-8.35 4.63-8.43s.7 0 .66.37-4.38 8.43-4.5 8.43a3.06 3.06 0 0 1 -.79-.37z"/><path d="m18.46 34.66a1.15 1.15 0 0 1 1.54 1.19 1.12 1.12 0 0 1 -1.81.83 1.16 1.16 0 0 1 .27-2.02z"/><path d="m17.47 38.75c.62.1 1.41.49 1.53 1.19s-.29 1.66-1.53 1.16-.99-2.52 0-2.35z"/><path d="m23.67 39.45c1.2.1 1.82.62 1.86 1.11a1.75 1.75 0 0 1 -2.48 1.16c-1.49-.62-1.24-2.44.62-2.27z"/><path d="m13.84 49.69c1.13-.48 2.27.79 2.1 1.9a1.51 1.51 0 0 1 -2.1 1.32 1.68 1.68 0 0 1 0-3.22z"/></g><path d="m14.08 50.54c.53-.22 1.07.37 1 .9a.71.71 0 0 1 -1 .62.79.79 0 0 1 0-1.52z" fill="#adceea"/><path d="m21 53.53a1.55 1.55 0 0 1 1.9 1.94c-.24 1.33-.49 2.11-2.14 1.41a1.78 1.78 0 0 1 .24-3.35z" fill="#604f58"/><path d="m21.15 54.52a.69.69 0 0 1 .85.86c-.11.59-.22.94-1 .63a.79.79 0 0 1 .15-1.49z" fill="#adceea"/><path d="m15.24 59.32c1.3-.45 2.48.37 2.36 1.15s-1 2.07-2.32 1.41-1.61-2.03-.04-2.56z" fill="#604f58"/><path d="m15.62 60.07c.55-.19 1 .16 1 .49a.71.71 0 0 1 -1 .6c-.55-.28-.62-.86 0-1.09z" fill="#adceea"/><path d="m25.94 51.39c.79 0 1.65-.09 1.57.57a1.32 1.32 0 0 1 -1.61.83c-.41-.25-.79-1.36.04-1.4z" fill="#604f58"/><path d="m15.49 14a43.77 43.77 0 0 1 2.51-4.42c1.24-1.81 1.32-1.9 1.61-1.77s.66.24.58.53-2.07 2.73-3 4-1.12 2-1.33 2.07-.53-.12-.37-.41z" fill="#604f58"/><path d="m47.46 29.33a25.37 25.37 0 0 0 4.17-6.12c1.95-3.88 1.33-7.47 1.2-9.33s-.33-1.94-.16-2.31a.54.54 0 0 1 .74-.25 30.78 30.78 0 0 1 .59 7.52 18.34 18.34 0 0 1 -3.15 8.16c-1.82 2.81-2.4 3.14-2.6 3.14s-.95-.61-.79-.81z" fill="#604f58"/></svg>