<svg height="64" viewBox="0 0 64 64" width="64" xmlns="http://www.w3.org/2000/svg"><path d="m34 59.5a21.18 21.18 0 0 1 -3.56-.3c-3.43-.6-4.87-2.89-6.08-6.39-1.17-3.25-4.89-15.81-5.14-19.23a9.07 9.07 0 0 1 2.78-7.58 16.52 16.52 0 0 1 -2.13-8.85c.39-7.74 5.13-12.6 12.42-12.65h.11a11 11 0 0 1 8.26 3.14c2.28 2.37 3.41 6 3.25 10.38a16.62 16.62 0 0 1 -2.12 8.07c1.73 1.43 3.29 4.13 3 8.74-.22 3.28-1.47 19.81-4.13 22.61-1.33 1.37-3.58 2.06-6.66 2.06z" fill="#fff"/><path d="m24.9 26.75a14.41 14.41 0 0 1 -3-9.48c.27-5.7 3.32-10.72 10.42-10.77s9.83 5 9.61 11.45-3.19 8.8-3.19 8.8 4.53.72 4 7.94-1.93 19.62-3.59 21.37-6.15 1.57-8.41 1.17-3.37-1.71-4.54-5.07-4.76-15.67-5-18.72 1.28-6.15 3.7-6.69z" fill="#604f58"/><path d="m34.73 50.32c.05-.5.32-1 .54-1a26.6 26.6 0 0 1 3.26 2.91l.27-1.54c-.76-.78-2.75-2.87-2.68-3.16s.27-.9.72-.81a9.46 9.46 0 0 1 2.31 1.91c.08-.48.16-1 .25-1.55-.79-.64-2.32-1.87-2.15-2.25s.4-1.07.76-.89a11 11 0 0 1 1.7 1.11 81.29 81.29 0 0 0 .99-10.05c0-5.74-2-6.33-2.83-6.33s-2.2 1.53-6 1.39a20.86 20.86 0 0 1 -5.87-1.06c-2.6-.14-2.65 3.5-2 7.27s4.54 17.33 6 18.41c1 .7 3.28.77 5 .67-.89-1-2.77-3.07-2.6-3.41s.58-.86.76-.81a30.65 30.65 0 0 1 3.84 3.87 2 2 0 0 0 1-1.07c-1-.93-3.3-3.23-3.27-3.61z" fill="#adceea"/><path d="m28.31 9.78c2.06-1.4 8-.63 9.47 2.47a12.3 12.3 0 0 1 -.13 11.53 7.18 7.18 0 0 1 -9.88 2.61c-2.77-1.57-6.28-11.99.54-16.61z" fill="#adceea"/><g fill="#604f58"><path d="m27.59 15.75a3.12 3.12 0 0 1 1-2c.63-.59 1.48-.68 1.66-.32s.27.54-.14.81-1 .27-1.25.94a4.08 4.08 0 0 1 -.54 1.17c-.1.07-.68-.35-.73-.6z"/><path d="m26.47 31.42c.57-.15 1.84.45 1.8 1.07s0 .63-.45.81-1.12-.45-1 .59 1.4 3.77 1.18 4.11-.18.4-.45.31a12.7 12.7 0 0 1 -2-4.58c-.29-1.64.38-2.18.92-2.31z"/></g></svg>