<svg height="64" viewBox="0 0 64 64" width="64" xmlns="http://www.w3.org/2000/svg"><path d="m28.11 59.5c-1.46 0-6.78-2.22-8.11-4.08-1.06-1.47-1.37-2.2-1.37-3.26a100.38 100.38 0 0 0 -2.63-12.31c-1.79-6.25-1.93-9.6-.47-11.92a12.91 12.91 0 0 1 1.69-2.11 12.54 12.54 0 0 1 -3.1-7 16.46 16.46 0 0 1 3.6-11.15 8.38 8.38 0 0 1 5.72-3.13h.66a10.17 10.17 0 0 1 7.35 3.46 10.18 10.18 0 0 1 7.55-3.4 10.76 10.76 0 0 1 1.49.1 8.5 8.5 0 0 1 5.7 3.44c2.69 3.55 3.14 8.8 2.79 11.27a11 11 0 0 1 -1.73 4.47 8.49 8.49 0 0 1 2.65 7c-.18 4.68-1.9 16.12-3.53 18.75s-3.87 3.42-6.88 3.66h-.56a8.51 8.51 0 0 1 -3.22-.68 20.76 20.76 0 0 1 -1.54 3.92c-1.1 2-3 3-5.75 3z" fill="#fff"/><path d="m44.3 24.35a9.38 9.38 0 0 0 2.7-5.22c.45-3.2-.74-11.63-6.78-12.45s-8.75 4.65-8.75 4.65-2.87-5.18-7.88-4.81-7.84 7.68-7.47 12.12a11.27 11.27 0 0 0 4 7.23 15.08 15.08 0 0 0 -2.9 3.13c-1 1.64-1 4.44.7 10.31a96.35 96.35 0 0 1 2.71 12.86c0 .45.05.78 1 2.09s5.67 3.25 6.49 3.25 3.16.12 4.31-1.93a28.58 28.58 0 0 0 2-6 8 8 0 0 0 4.89 1.69c2.54-.21 4.1-.7 5.34-2.72s3-12.57 3.24-17.78-3.6-6.42-3.6-6.42zm-9.58 1.72c-.37.33-.53.5-.53.5s-.94-1.15-1.56-1.32-1.52-.33-1.52-.33a8.33 8.33 0 0 0 1.15-3.2 17.1 17.1 0 0 0 1.89 2.34c1.15 1.19 1.64 1.31 1.64 1.31a6.81 6.81 0 0 0 -1.07.7z" fill="#604f58"/><path d="m26.34 52c.13-.33.33-.79.58-.66a35.28 35.28 0 0 1 3.36 3.37 4.08 4.08 0 0 0 .53-1.36c-1-.83-3.26-2.68-3.19-3s.33-1.11.53-1a31.47 31.47 0 0 1 3.06 2.68c.1-.33.21-.7.35-1.12a27.54 27.54 0 0 1 -2.63-2.84c0-.24.66-.82.82-.78a12.81 12.81 0 0 1 2.25 2 90.75 90.75 0 0 0 2-17.38c0-4.89-4.11-5-4.11-5a22.63 22.63 0 0 1 -3.53.61 11.83 11.83 0 0 1 -4.52-.24 8.12 8.12 0 0 0 -2.18 2.42c-.57 1-.74 3.45.33 7.72s3 15.12 3.08 15.32a5.54 5.54 0 0 0 2.59 1.57 10.38 10.38 0 0 0 3.05.59c-.81-.9-2.46-2.62-2.37-2.9z" fill="#ddeff2"/><path d="m39.74 44.89c0-.33.45-1 .69-1a14.83 14.83 0 0 1 2.3 2.89c.15-.35.31-.8.49-1.37a15.06 15.06 0 0 1 -2.17-2.67 1.66 1.66 0 0 1 .86-.82 9.5 9.5 0 0 1 1.76 1.88c.94-3.74 1.89-12.45 1.52-15s-3.33-2.83-6-2.38-3.44 1.58-3.44 1.58.82.91.54 5.18-1.4 13.88-1.4 13.88a12.71 12.71 0 0 0 2.55 1.32 4.61 4.61 0 0 0 2.1.32c-.68-.85-1.88-2.4-1.73-2.66s.82-.7 1-.54a30.59 30.59 0 0 1 2 3 6.23 6.23 0 0 0 .94-.32l.16-.09a25.09 25.09 0 0 1 -2.17-3.2z" fill="#adceea"/><path d="m23.72 9c1.72-.27 6.49 1.81 6.77 7.69s-2.22 8.91-5.91 8.34-5.59-4.4-5.88-8 1.73-7.47 5.02-8.03z" fill="#ddeff2"/><path d="m38.59 8.9c1.8-.14 6.36 2.34 6.16 7.72s-2.38 7.28-6.12 7-5.34-4.93-5.55-8.26a6.08 6.08 0 0 1 5.51-6.46z" fill="#adceea"/><g fill="#604f58"><path d="m21.83 31.21c.05-.22.94-.58 1-.17s.62 5.92.37 5.92-.53 0-.61-.17a40.13 40.13 0 0 1 -.76-5.58z"/><path d="m21.17 16.42a4.48 4.48 0 0 1 1.64-4c1.93-1.52 3.08-.37 3.12-.16s0 .53-.16.58a2.16 2.16 0 0 0 -2.38.65c-1 1.23-.7 3-1.07 3.21s-1.11.01-1.15-.28z"/><path d="m36.29 13a4.61 4.61 0 0 1 1.8-1.81c.78-.37 1.6.29 1.52.58s-.57.28-1.07.45-1.31 1.31-1.6 1.4-.61-.28-.65-.62z"/></g></svg>