<svg height="64" viewBox="0 0 64 64" width="64" xmlns="http://www.w3.org/2000/svg"><path d="m32.23 59.5a10.19 10.19 0 0 1 -6-1.74 7.11 7.11 0 0 1 -2-4.17 22.19 22.19 0 0 1 -4.15-.36 6.43 6.43 0 0 1 -4.66-4.18c-.23-.88-1.94-7.78-2.73-11.69-1-5-.83-7.91.57-9.52a9.86 9.86 0 0 1 1-1 11.34 11.34 0 0 1 -1.62-5.49c-.19-4.35 1.36-10.08 6.1-11.53a7 7 0 0 1 2-.3 8.84 8.84 0 0 1 5.26 1.85 8.19 8.19 0 0 1 1.34-3 9.47 9.47 0 0 1 7.5-3.87 8.9 8.9 0 0 1 3.2.6 7.33 7.33 0 0 1 4.36 5.54 8.45 8.45 0 0 1 1-.06 6.91 6.91 0 0 1 6.66 4.25c1.75 3.92.76 8.51 0 10.92a6.42 6.42 0 0 1 1.82 5.93c0 .15-2.11 15.11-5.16 18.1a8.73 8.73 0 0 1 -6.14 2.56h-.88a9.33 9.33 0 0 1 -.52 2.53l-.08.2a6.23 6.23 0 0 1 -4.57 4.18 10.57 10.57 0 0 1 -2.3.25z" fill="#fff"/><path d="m47.64 26.6s2.7-6.22.58-11-7.62-2.58-7.62-2.58.15-4.72-3.33-6.02a7.24 7.24 0 0 0 -8.37 2.55c-1.6 2.19-1.25 5.59-1.25 5.59l-.47.24a4.86 4.86 0 0 0 -.7-.9c-.43-.43-3.56-3.84-7.16-2.74s-4.85 5.75-4.74 9.58a8.94 8.94 0 0 0 2.47 6 9.05 9.05 0 0 0 -2.31 1.83c-1 1.14-.9 4-.12 7.83s2.47 10.68 2.7 11.58a4.49 4.49 0 0 0 3.17 2.73 31.75 31.75 0 0 0 5.51.31s.19 3.56 1.48 4.61 4.38 1.61 6.65 1.1a4.42 4.42 0 0 0 3.25-3.21 16 16 0 0 0 .47-3.87s1.72.15 2.62.12a6.83 6.83 0 0 0 4.89-2c2-1.92 4-12.87 4.58-16.94s-2.3-4.81-2.3-4.81zm-21.52 1.64-.62-.39.31-.94.94 1.22zm12.17-.54a4.47 4.47 0 0 1 -.47.58l-.63-.07a4.34 4.34 0 0 0 .79-2c.07-1 .15-1.56.15-1.56s.78 1.25 1.06 1.64l.27.39a5.59 5.59 0 0 0 -1.17 1.02z" fill="#604f58"/><path d="m32.42 48c0-.31.27-.86.59-.7a24.4 24.4 0 0 1 2.68 3.68c.12-.6.23-1.26.36-2-.64-.75-2.87-3.44-2.77-3.71s.43-.66.74-.59a15.43 15.43 0 0 1 2.27 2.87c1.11-6.55 2.43-15.55 2.35-16.1-.12-.9-2.54-1.45-2.54-1.45a7 7 0 0 1 -3.56.93 8.74 8.74 0 0 1 -4.7-1c-3.4.35-3.28 3.56-2.66 7.12s2.47 13.81 3 15.84 1.4 2.27 2.77 2.31l1.28.06a18 18 0 0 1 -1.9-3c.08-.27.31-.58.51-.5a24.66 24.66 0 0 1 2.43 3.54 1.89 1.89 0 0 0 1.63-.81 11.72 11.72 0 0 0 .51-2.07 42 42 0 0 1 -2.99-4.42zm1.14 5.59c-.12-.08-2.2-3-2.31-3.24s.39-.9.66-.67a16.22 16.22 0 0 1 2.19 3.29c-.1.23-.43.66-.54.58z" fill="#ddeff2"/><path d="m46.58 28.24a15.92 15.92 0 0 0 -2.89.71 7.61 7.61 0 0 1 -3.41-.27l-.51.5a3 3 0 0 1 .83.75c.23.39.43.78 0 3.87s-2.23 14.28-2.23 14.28a7.21 7.21 0 0 0 2 .15c.29 0 .74 0 1.26-.16a19.5 19.5 0 0 1 -1.63-3.07c.12-.2.74-.79.94-.63a22.69 22.69 0 0 1 1.85 3.37 3.82 3.82 0 0 0 .67-.46 26.62 26.62 0 0 1 -1.62-3.53c.08-.32.43-.55.62-.43a18.29 18.29 0 0 1 1.76 3.1 4.73 4.73 0 0 0 .28-.44 8.27 8.27 0 0 0 .42-1c-.69-1-2.26-3.22-2.14-3.46s.62-.79.9-.63a13.94 13.94 0 0 1 1.72 2.63c.15-.52.31-1.09.45-1.69a12.84 12.84 0 0 1 -1.51-2.27.85.85 0 0 1 .59-.7 2.72 2.72 0 0 1 1.35 1.09c.58-2.73 1-5.66 1.27-7.47.45-3.48-.66-4.12-.97-4.24z" fill="#adceea"/><path d="m19.63 14.2c1.44-1 4.38.86 5.16 1.49a3.86 3.86 0 0 1 1.1 1.31 16.43 16.43 0 0 0 -1 4 9.29 9.29 0 0 0 .43 3.91 3.14 3.14 0 0 0 -1.13.86 2.66 2.66 0 0 0 -.55 1s-2 1.33-4.73-1.29-3.19-8.48.72-11.28z" fill="#adceea"/><path d="m29.68 13.58s.16-3.52 3.33-4.42 5.2.74 5.43 3.09-.27 2.66-.27 2.66a10 10 0 0 0 -.51 1.48c-.11.59-.15 1.14-.15 1.14a8 8 0 0 0 -4-3.68c-2.58-.85-3.83-.27-3.83-.27z" fill="#83a7d8"/><path d="m40.75 15.53c1.2-.87 5.2-1.17 5.87 2.7s-.63 7.16-2.27 8.06a3 3 0 0 1 -4.15-1c-.97-1.39-2.73-7.37.55-9.76z" fill="#adceea"/><path d="m30.43 16.12a3.76 3.76 0 0 1 5 2.82c.83 3.09.36 7.15-.86 8.64s-4.1 1.33-5.75-.7-3.13-9.04 1.61-10.76z" fill="#ddeff2"/><path d="m18.85 29.07a20.24 20.24 0 0 0 3.28.11 15.55 15.55 0 0 1 2.59 0 6.65 6.65 0 0 0 -1.92 3.84c-.28 2.34 2.54 16.46 2.54 16.46a9.6 9.6 0 0 1 -3.79-.31c-1.84-.59-1.92-.7-1.92-.82s-1.96-9.35-2.78-12.35-.62-4.58-.11-5.16a19.77 19.77 0 0 1 2.11-1.77z" fill="#adceea"/><g fill="#604f58"><path d="m18.07 31.45c0-.17.66-.35.82 0s.43 6.26.43 6.26a.72.72 0 0 1 -.75-.47 23.65 23.65 0 0 1 -.5-5.79z"/><path d="m20.1 16.94a.35.35 0 0 1 .51.39 6.76 6.76 0 0 0 -.43 1.76c-.12 1.18.31 3.6 0 3.52a2.41 2.41 0 0 1 -.94-1.29c-.08-.47-.39-3.44.86-4.38z"/><path d="m30.35 19.48c.28 0 .74.24.66.55s-.62.47-.86 1.29 0 2.11-.23 2.23-.55 0-.71-.39a6.18 6.18 0 0 1 0-2.54 1.22 1.22 0 0 1 1.14-1.14z"/><path d="m41.89 18c.17-.16.78.35.78.62s-.51.32-.63 1.57.12 1.8 0 2-.74 0-.9-.78.16-2.87.75-3.41z"/></g></svg>