<svg height="64" viewBox="0 0 64 64" width="64" xmlns="http://www.w3.org/2000/svg"><path d="m32.31 59.5h-.49a14.55 14.55 0 0 1 -6.42-2.62 5.56 5.56 0 0 1 -1.79-2.88c0-.09-.07-.38-.14-.74-.34 0-.72 0-1.11 0a9.53 9.53 0 0 1 -4.87-1.08c-2.95-1.76-4.85-3.29-6.57-9.78-1.57-6-2.8-14.29-2.56-16.14a5.82 5.82 0 0 1 2-3.47 11.49 11.49 0 0 1 -2-5.62c-.57-5.17 2.64-11.49 8.22-12.45a13.89 13.89 0 0 1 2.42-.22 9.08 9.08 0 0 1 6.67 2.6l.39.38a9.68 9.68 0 0 1 4.8-1.3 9.83 9.83 0 0 1 1.52.12 9.57 9.57 0 0 1 5.1 2.58 8.76 8.76 0 0 1 5.13-3.22 8.28 8.28 0 0 1 1.71-.18c4.13 0 8 3.26 9.36 7.93 1 3.28 0 7.35-.7 9.62a6.5 6.5 0 0 1 2.66 6.49c-.64 4.03-4.7 16.82-6.64 19.48a8.91 8.91 0 0 1 -6.67 3.78c-.41 0-1.07 0-1.76 0h-1.17a17.29 17.29 0 0 1 -1.48 3.84c-.75 1.32-2.33 2.88-5.61 2.88z" fill="#fff"/><path d="m50.54 24s2.46-6 1.24-10-4.73-7.22-8.78-6.38a7.46 7.46 0 0 0 -5.26 4.81 8.41 8.41 0 0 0 -5.69-4.15 7.76 7.76 0 0 0 -6.41 1.94 7.57 7.57 0 0 0 -1.34-1.68c-1-.92-3-2.6-7.38-1.85s-7.07 5.83-6.62 10.31a8.57 8.57 0 0 0 3.22 6.31 4.32 4.32 0 0 0 -3.18 3.23c-.18 1.37.88 9.19 2.52 15.37s3.36 7.2 5.65 8.57 6.59.58 6.59.58.44 2.34.48 2.6a3.79 3.79 0 0 0 1.19 1.72 13.13 13.13 0 0 0 5.13 2.08c1.06 0 3.22 0 4.28-1.85a19.48 19.48 0 0 0 1.64-4.86s3.27 0 4.46 0a7 7 0 0 0 5.12-3c1.64-2.26 5.66-14.63 6.28-18.6a4.79 4.79 0 0 0 -3.14-5.15zm-26.2 2.47-.26-.79.18-.49.84.84zm13.66-1.67c-.4.66-.66 1.19-.66 1.19l-.75-.35a5.14 5.14 0 0 0 1.06-1.9 13.93 13.93 0 0 0 .39-1.9l1.37 1.37a10.11 10.11 0 0 0 -1.41 1.59z" fill="#604f58"/><path d="m30 51.79c.18-.4.49-.88.76-.79a27.49 27.49 0 0 1 3 3.74 3.25 3.25 0 0 0 .76-1.13c-1.08-1.28-3.38-4-3.28-4.38s.4-1.19.75-1a33.11 33.11 0 0 1 3 4.25c.14-.41.29-.88.45-1.42-.87-1.2-3.22-4.47-3.22-4.68s.13-1 .53-.89a27.08 27.08 0 0 1 3 4.26c.19-.71.37-1.58.56-2.56-.77-.91-3.08-3.71-2.89-4.08s.48-.71.84-.66a14.72 14.72 0 0 1 2.37 3c1-5.89 1.9-13.92 1.87-14.94 0-1.32-3.14-2.43-3.49-2.38a9.06 9.06 0 0 1 -3.58.44c-2.7 0-3.81-1.05-4.33-.93-1.86.44-3 2.83-3 5.61s3.31 18.16 4 19.53 3.15 2.33 4.37 2.38c-.99-1.08-2.65-3.07-2.47-3.37z" fill="#ddeff2"/><path d="m49.22 25.9c-.49-.13-1.33.23-3.54.45s-4.86-1.15-5.39-1.06-.88 1.45-.88 1.45a7.13 7.13 0 0 1 1.72 2.43c.49 1.33-2.78 18.91-2.78 18.91s1.93.25 3.06.25a11 11 0 0 1 -1.25-2.24c0-.31.4-.7.71-.66a11.83 11.83 0 0 1 1.91 2.71 3.59 3.59 0 0 0 1.38-.7c-.59-1-1.93-3.17-2-3.38a.86.86 0 0 1 .58-.75c.25-.07 1.81 2.24 2.31 3.24a4.66 4.66 0 0 0 .38-.46 5.6 5.6 0 0 0 .46-.75 15.29 15.29 0 0 1 -1.75-3.34.8.8 0 0 1 .75-.75 17.56 17.56 0 0 1 1.72 2.75c.22-.48.45-1 .68-1.58-.54-1.06-1.79-3.53-1.83-3.81s0-1.59.44-1.68 1.51 2.58 2 3.94a72.32 72.32 0 0 0 3-9.68c.75-3.87-1.2-5.19-1.68-5.29z" fill="#adceea"/><path d="m16.48 10c1.83-1.32 5-.13 6.14.75a5.14 5.14 0 0 1 1.38 1.55 11.49 11.49 0 0 0 -1.6 5.34 17.51 17.51 0 0 0 .36 4.91s-3.76 2.07-6.9-.55a7.4 7.4 0 0 1 .62-12z" fill="#adceea"/><path d="m28.67 11.28a4.88 4.88 0 0 1 5.61 1.15c2.12 2.3 2.57 5.88 1.2 9.59s-3.71 3.75-5.7 3.53a5.31 5.31 0 0 1 -5-4.64c-.52-3.31.8-8.35 3.89-9.63z" fill="#ddeff2"/><path d="m41.4 11c1.14-.85 5.74-1.63 7.42 2.52s.53 8.22-1 9.54a4.72 4.72 0 0 1 -6.82-1.44c-1.64-2.87-2.39-8.57.4-10.62z" fill="#adceea"/><path d="m17 45.34c-1.59-3.08-3.36-11.26-3.67-15s.35-4.46.66-4.77 1.46-.35 1.46-.35.27.53 3.23.66a11.85 11.85 0 0 0 3.49-.09l1.19 1.33s-2.12 2.74-1.28 8.39 2.62 13.15 2.62 13.15-5.35 1.34-7.7-3.32z" fill="#adceea"/><g fill="#604f58"><path d="m14.67 29.13c0-.28.75-.4.88-.22s1.64 6.4 1.37 6.54-.48.44-.7.26a61.85 61.85 0 0 1 -1.55-6.58z"/><path d="m15.46 18.17s-.35-2.91.84-4.68 2.43-1.55 2.83-1.1.49 1.1.09 1.37-.93-.36-1.41.08-.67 1.2-1.11 2.7-1.15 2.08-1.24 1.63z"/><path d="m27.22 19.41a4.61 4.61 0 0 1 .17-3.27c.8-1.41 1.81-1.41 2.43-1s.53 1.1.27 1.23-1-.26-1.64.71-.39 2.16-.57 2.34-.66-.01-.66-.01z"/><path d="m42.15 15.52a3.33 3.33 0 0 1 .48-2.29c.62-1.06 1.24-1.33 1.68-1s.31.71 0 1-.66.31-1 1.06-1.03 1.63-1.16 1.23z"/></g></svg>