<svg height="64" viewBox="0 0 64 64" width="64" xmlns="http://www.w3.org/2000/svg"><path d="m32.32 63c-7.25 0-12.85-.13-15-.33-4.6-.45-7.44-.89-8-4.14-.23-1.28-.37-12.74-.44-19.71a4.63 4.63 0 0 1 -1.78.34 7.79 7.79 0 0 1 -3.24-.79 3.77 3.77 0 0 1 -2.26-3.23c0-.06-.37-11.69.08-12.93.23-.62.43-1.16 7.68-6.21-.07-2.8-.25-10-.25-10.71 0-2.2 2.71-3.93 5.24-4.16.23 0 .85-.08 9-.08 9.49 0 27.54.1 28.6.19a4.71 4.71 0 0 1 4.6 4.76c.05 1.76-.15 7.66-.24 10 3.51 3.15 5.48 5.37 5.85 6.58.5 1.6.52 11.85 0 13.21a4.2 4.2 0 0 1 -3.76 2.69 3.56 3.56 0 0 1 -1.81-.48l-.34-.23v2.18c-.35 15.7-.47 17.71-.65 18.33-.3 1.09-1.49 3.69-6 4.32-1.97.22-10.33.4-17.28.4z" fill="#fff"/><path d="m11.38 17s-.27-10.91-.27-11.73 1.63-2 3.42-2.17 35.95 0 37.2.11a2.75 2.75 0 0 1 2.82 2.82c.06 2.12-.27 10.81-.27 10.81s5.54 4.89 6 6.3.33 11.18.06 11.94-1.55 1.92-2.69 1.16-1.42-1.62-2.18-1.73-1.08 0-1.14.16-.43 22-.7 23-1.25 2.45-4.35 2.88-26.71.54-31.76.06-6-1-6.24-2.5-.44-23.24-.44-23.24-1.41 1-2.33 1.79-2.66.38-3.8-.16a1.91 1.91 0 0 1 -1.15-1.74c-.05-.27-.21-11.3 0-11.89s7.82-5.87 7.82-5.87z" fill="#604f58"/><path d="m42.5 56.17c.16-.27.65-.87 1.14-.43a17.48 17.48 0 0 1 1.89 2.19h1.35a18.2 18.2 0 0 1 -2.16-2.38c0-.32.38-.81.76-.65a26.6 26.6 0 0 1 2.52 2.9 4 4 0 0 0 .14-1.3c-.76-.83-2.28-2.29-2.37-2.5s.11-1 .6-.76a8.41 8.41 0 0 1 1.77 1.76c0-.51 0-1.06 0-1.65a6.62 6.62 0 0 1 -1.46-1.24c-.11-.32.11-.86.38-.86a2.89 2.89 0 0 1 1.07.52c-.05-4.31-.22-9.41-.31-9.76-.16-.59-8.85-.32-9.07 0s0 16 0 16 2.67-.01 5.12-.01c-.67-.76-1.47-1.67-1.37-1.83z" fill="#adceea"/><path d="m6 24.41a61.17 61.17 0 0 1 6.57.22c0 .16.06 7 .06 7a5.14 5.14 0 0 0 -2.63.87c-1.42.92-2.07 1.79-2.88 1.84s-1.12.22-1.12-.21 0-9.72 0-9.72z" fill="#ef7d7b"/><path d="m13.77 24.68h8.8l.05 6.79s-2.55.27-3.42 1.3-1.63 1.36-2.33 1-1.87-1.65-2.34-1.77a3.13 3.13 0 0 0 -.7-.11z" fill="#f9f2ed"/><path d="m24 24.73 9.23.06.06 7a8.28 8.28 0 0 0 -2.94 1.09c-1.35.87-1.68 1.41-2.44 1.25s-1.3-1.58-2.5-2l-1.19-.38z" fill="#ef7d7b"/><path d="m34.3 24.9 9.7.1v7.06a15.56 15.56 0 0 0 -2.17 1.31c-1 .76-1.68 1.3-2.5 1.14s-1.79-2.07-2.77-2.34l-2-.54z" fill="#f9f2ed"/><path d="m45.32 25 7.55.11-.06 6.73s-.92.55-1.73 1.09-1.42 1.14-2 .76-1-1.58-1.95-1.68-1.8-.17-1.8-.17z" fill="#ef7d7b"/><path d="m54.12 25.11h4.18l.05 7.71a5.57 5.57 0 0 0 -2.35-1.35 16.33 16.33 0 0 0 -1.85 0z" fill="#f9f2ed"/><path d="m6.88 23.05c-.73-.07 6.62-4.94 7.11-5s37.52.28 38.17.44 6.08 5.05 5.59 5.21-49.14-.49-50.87-.65z" fill="#d16d6c"/><path d="m13.72 16.81c-.49-.22-.38-10.7.11-11.08s37.41-.54 37.79.16.6 11.46.16 11.51-37.21-.22-38.06-.59z" fill="#ef7d7b"/><g fill="#604f58"><path d="m21.81 7.52c-.57-.42-3.15 0-3.15 1.79s2.71 2 2.71 3-1.68 1-2.33 1-1 .21-1 .43-.06.65.27.76a5.07 5.07 0 0 0 3.53-.38c1.19-.81 1.47-2.23.38-3.1s-2.28-1-2.17-1.79 1.46-.38 1.79-.76a.73.73 0 0 0 -.03-.95z"/><path d="m30.55 9.26c.06-.33-1.19-.38-1.41-.22v1.62a9.24 9.24 0 0 0 -3 .27c-.05-1.09-.14-2.07-.14-2.21 0-.33-1.1-.23-1.25 0s-.16 4.72-.11 5.26 1.09.27 1.41.11a4.31 4.31 0 0 0 .14-1.79 22.62 22.62 0 0 0 2.91-.36v2.75c.05.32 1.3.16 1.52-.06s-.12-5.05-.07-5.37z"/><path d="m38.15 9.91c-1.25-2.12-4.39-1.59-5.26-.27s-.76 4.83 2.22 4.78 4.29-2.42 3.04-4.51zm-2.86 3.14c-1.61 0-1.72-1.79-1.2-2.57a1.8 1.8 0 0 1 2.83.14c.68 1.14-.02 2.38-1.63 2.43z"/><path d="m41.47 9.64s-.71.27-.82 0a1.08 1.08 0 0 1 0-.82 7.18 7.18 0 0 1 4.45-.92c2.17.33 2.93 1.68 2.12 2.77a4 4 0 0 1 -2.94 1.63c-1.19.16-1.08.54-1.19.16s.05-1.25.33-1.3 2.66-.38 2.55-1-1.74-1.44-2.55-1.16-.65 0-.81.33.27 4.67-.06 4.83-.92.65-1 0-.08-4.52-.08-4.52z"/></g><path d="m13.34 34.56a13.17 13.17 0 0 0 3.53 2.23c1.3.32 4-2.77 5.86-2.5s3.21 2.72 5.16 2.44 4.89-2.93 6.3-2.55 2.71 3 5.37 3 4.57-3.1 6.25-2.88 1.63 1.57 3.15 2.12 3.42-1.14 3.42-1-1 12-1 12l-1.74.1s.49-6.24-.65-6.84-11-.59-11.56-.16-.38 6.68-.38 6.68-7.17.22-12.76.16-10.29.02-10.29-.2-.66-12.6-.66-12.6z" fill="#ddeff2"/><path d="m14.1 48.52 2.77.11s.38 8.57 0 8.68-2.88.22-2.88 0 .11-8.79.11-8.79z" fill="#ef7d7b"/><path d="m18.44 48.57 2.77.06s.22 8.95.06 9a13.43 13.43 0 0 1 -2.94-.16c-.05-.16.11-8.9.11-8.9z" fill="#f9f2ed"/><path d="m22.46 48.63h2.66s.22 9.23 0 9.23-2.6-.22-2.6-.22z" fill="#ef7d7b"/><path d="m26.42 48.73h2.45s.32 9.39.16 9.39-2.71-.27-2.71-.27z" fill="#f9f2ed"/><path d="m30.33 57.86v-9.23h2.99l-.22 9.28z" fill="#ef7d7b"/><path d="m34.35 57.86.06-8.8h2.71s.38 8.8.22 8.85-2.99-.05-2.99-.05z" fill="#f9f2ed"/><path d="m49.28 57.64.44-9.18s1.3-.16 1.36.06 0 8.9-.44 9.06a3.89 3.89 0 0 1 -1.36.06z" fill="#ef7d7b"/><path d="m40.54 50c.29-.85 2.23-.65 2.45.38s-.17 1.74-1.52 1.52-1.14-1.27-.93-1.9z" fill="#604f58"/><path d="m18 43.14c.16-.41 3.42-4.51 4-4.45s1 .27.87.54-3.72 4.67-4.16 4.77a.7.7 0 0 1 -.71-.86z" fill="#604f58"/><path d="m22.62 43.68a46.19 46.19 0 0 1 5-5c.27-.06 1.41.38 1.25.7s-5.32 5.22-5.7 5.16-.55-.54-.55-.86z" fill="#604f58"/><path d="m29.3 43.85a34.74 34.74 0 0 1 4.24-4.56c.32-.11 1.08.1 1 .48s-4 4.51-4.56 4.57-.73-.28-.68-.49z" fill="#604f58"/></svg>