<svg height="64" viewBox="0 0 64 64" width="64" xmlns="http://www.w3.org/2000/svg"><path d="m63.52 19.14a3.56 3.56 0 0 0 -3.16-1.76 3.15 3.15 0 0 0 -1.42.32c-.47.24-6.89 3.95-10.25 5.9a3.46 3.46 0 0 0 -3-1.52 5.52 5.52 0 0 0 -.77.06 3.43 3.43 0 0 0 -1.42.55 2.73 2.73 0 0 0 -1.11-.57 2.29 2.29 0 0 0 -2.32-1.78h-.27a7.33 7.33 0 0 0 -3.37 2.09 7.43 7.43 0 0 0 -.17-.79 10.87 10.87 0 0 1 -.26-1.41 4.51 4.51 0 0 1 .48-1.58 9.1 9.1 0 0 0 .61-1.78 6.3 6.3 0 0 0 -1.25-4.54l.14-.26c.08-.16.16-.3.21-.42a2.47 2.47 0 0 0 .11-1.94 2.53 2.53 0 0 0 -1.46-1.4 2.3 2.3 0 0 0 -.9-.18 2.9 2.9 0 0 0 -2.11 1 4 4 0 0 0 -.94 3.1 10.45 10.45 0 0 0 1 3.94 3.3 3.3 0 0 1 .21.5 5 5 0 0 1 -.39 1l-.24.55a5.36 5.36 0 0 0 -.91-1.45 2.82 2.82 0 0 0 -2.11-1.17h-.34a2.4 2.4 0 0 0 -1.86 2.9 2.57 2.57 0 0 0 .42 1.12 1.81 1.81 0 0 1 .12.22 2.83 2.83 0 0 1 -.29 1 6.11 6.11 0 0 1 -.41.67 9.49 9.49 0 0 0 -1.16 2.23 4.49 4.49 0 0 0 -1.15-3 9.06 9.06 0 0 1 0-1.89 3.52 3.52 0 0 0 0-1 2.25 2.25 0 0 0 -2.25-2 2.71 2.71 0 0 0 -1.16.28c-1.28.65-1.37 1.68-1.46 2.86l-.05.54a5.69 5.69 0 0 0 1.14 4.38 5.91 5.91 0 0 1 -.15.82 5 5 0 0 1 -.4 1.11 7 7 0 0 0 -.55 1.62 5 5 0 0 0 .25 2.73c-1.32.1-2.31 1.21-3.53 3.09q-.18.28-.33.57a4.27 4.27 0 0 0 -.58-.65l-.25-.2c.12-.3.35-.75.5-1a11.38 11.38 0 0 0 .67-1.5c.54-1.69-.42-4.87-2-5.6a2.31 2.31 0 0 0 -1-.21c-.23 0-2.28.08-2.28 2.87a2.73 2.73 0 0 0 .14.83 5.67 5.67 0 0 1 .18 1.09c0 .17-.07.36-.37.91a7.82 7.82 0 0 0 -.87 2c-.6 2.47 1.44 4.61 2.4 5.08 0 0 .1 0 .15.06-.25.29-.5.61-.75.93-.11.16-.27.36-.4.52h-.09q-.33 0-.69 0h-.54c-1.9.2-4.24 1.75-4.58 5.49a7 7 0 0 0 .33 3.13c-1.52 1-3.52 2.43-3.95 2.77a3 3 0 0 0 -.95 4 2.91 2.91 0 0 0 2.64 1.5 4.75 4.75 0 0 0 2-.46c.54-.24 1.78-.85 3.1-1.5.61-.31 1.38-.69 2-1 .43.52 1.5 1.25 4.47 1.25.1 0 .11 0 .43.25a4.08 4.08 0 0 0 1.5.84 3.17 3.17 0 0 0 .85.12c1.39 0 2.2-.84 3.55-2.23l.31-.32a12.69 12.69 0 0 0 2.43-3.82 7.84 7.84 0 0 0 3.29-1.11c2.08-1.19 2.91-2.56 2.59-4.28h.48a7.62 7.62 0 0 0 1.18-.09c1.33-.19 2.57-1.42 3.55-2.75a10.23 10.23 0 0 0 1.18.18h.5a4.74 4.74 0 0 0 2.5-.7 10.44 10.44 0 0 0 3.78.73c2 0 4.4-.84 5-2.44a2.61 2.61 0 0 0 -.11-2 2.54 2.54 0 0 0 -.16-.28h.06a3.32 3.32 0 0 0 .48 0 6.54 6.54 0 0 0 4.9-2.81 4.29 4.29 0 0 0 .26-3.56 2.72 2.72 0 0 0 -.11-.25c3.63-2.15 8.84-5.27 9.64-6a3.49 3.49 0 0 0 .87-4.5z" fill="#fff"/><path d="m8 48.08s-1.42-.49-1.15-3.43 2-3.65 2.84-3.73 1.56.22 2.14-.18 2-2.85 2.76-2.85a12.55 12.55 0 0 1 1.77.18 5.69 5.69 0 0 1 .8-3.74c1.16-1.78 1.74-2.22 2.1-2.22s.44 0 .62.44a11.52 11.52 0 0 1 .31 1.92s2-2.27 2.49-2 .53.48.36 1a7.64 7.64 0 0 0 -.8 2.67c-.09 1.33-.23 2.93.13 3.07s1.87-1 1.87-1a8.86 8.86 0 0 1 .93-4.9 3.27 3.27 0 0 1 3.25-1.51 2 2 0 0 1 1.6-1l1 .05s.36-2 1.69-2.49 2-.4 2.22-.22.54.44.67.44 0-2.22.89-3.47a10.08 10.08 0 0 1 3.51-2.83c.49 0 .57.22.53.53s-.27 2.27-.27 2.27 1.07-1.15 1.52-1.11.8.36.62.71a18.49 18.49 0 0 0 -1.09 2.32 2 2 0 0 0 .13 1.43c.18.13 1.56-1.07 1.69-1.51s.63-2.63 2.09-2.85 1.92.58 2.05 1.07-.18.66.27.84a1.33 1.33 0 0 0 .84.05s10.9-6.32 11.43-6.59a1.73 1.73 0 0 1 2 .63 1.56 1.56 0 0 1 -.49 2.18c-.93.84-11.47 7-11.47 7a1.34 1.34 0 0 0 .89.8c.71.23.93 1.52.4 2.49a4.49 4.49 0 0 1 -3.38 1.78c-.85-.13-1.82-.49-1.91-.35s0 .35-1.2.93a1.68 1.68 0 0 1 -2-.18c-.22-.09-.27.18-.27.18a2.51 2.51 0 0 0 1.74 1.38c1.46.49 1.86 1.11 1.69 1.6s-1.56 1.16-3.16 1.16a8.32 8.32 0 0 1 -3.25-.67 4.14 4.14 0 0 1 -.62-.58 3.11 3.11 0 0 1 -2.67 1.21c-1.74-.17-2.14-.62-2.14-.62s-1.82 3-3.07 3.2a5.83 5.83 0 0 1 -3.33-.44l-1-.62-2.17 1.55s.22.54 1.46.62 1.56.36 1.74 1 .26 1.38-1.6 2.44a5.44 5.44 0 0 1 -3.12.89 3.27 3.27 0 0 1 -.57.05 12.77 12.77 0 0 1 -2.45 4.36c-1.6 1.64-2 2.13-2.8 1.91s-1.16-1.16-2.45-1.16-2.8-.22-3-.62-.4-1.2-.63-1.2-5.61 2.74-6.81 3.28-1.82.26-2.09-.23a1.13 1.13 0 0 1 .45-1.51c.62-.49 5.47-3.82 5.47-3.82z" fill="#604f58"/><path d="m33.62 34.38a3.88 3.88 0 0 0 -3.12-2.45.39.39 0 0 0 -.09.71c.27.18.32.23.45.67s-.22.49-.71.49-.89-1-2.23-.85a4.78 4.78 0 0 0 -3.15 2.9 1.74 1.74 0 0 0 .71 1.82 3.49 3.49 0 0 1 1.51.58c.53.44.44 1.38.4 1.69s.93.66 1.69.75a3.67 3.67 0 0 0 3.07-1.15 5.67 5.67 0 0 0 1.47-5.16zm-4.23 5.56a5.63 5.63 0 0 1 -1.24-1.56c-.09-.22.44-.53.8-.4s1.38 1.2 1.24 1.56a.57.57 0 0 1 -.8.4zm1.61-1.11a2.89 2.89 0 0 1 -1.38-1.69c0-.32.35-.45.67-.36s1.46 1.38 1.37 1.6a.7.7 0 0 1 -.66.45zm1.77-1.83c-.13.18-.4.49-.75.35a3 3 0 0 1 -1.16-1.38.62.62 0 0 1 .89-.48c.44.18 1.15 1.29 1.02 1.51z" fill="#f6c687"/><path d="m8.71 47.1c-.62-.4-1.2-1.43-.58-3s1.25-2.21 2.23-2.1a2.68 2.68 0 0 0 2.58-.8c.84-.89 2-2.93 3.33-2.31s1.34 2.13 2.4 2.58 1.29 0 1.65.93a9.61 9.61 0 0 0 .93 2.41 2 2 0 0 1 .22 2.19c-.31.58-2.17 3.3-2.84 4.19s-1 1.24-1.38 1.06-.36-.8-1.78-.89-2.36.14-2.85-.35-.49-1.74-1.73-2.72a5.8 5.8 0 0 0 -2.18-1.19z" fill="#ef7d7b"/><path d="m17.12 37.85a4.37 4.37 0 0 1 .44-2.27c.31-.49 1.11-1.78 1.2-1.29s-.27 3.2.18 4a4.07 4.07 0 0 0 1.51 1.71c.45.13.36-.72.36-.72a8.1 8.1 0 0 1 -1-2.44c-.13-1 .49-1.38.89-1.83s1.07-.71 1-.53a9.72 9.72 0 0 0 -.54 3.2 7.7 7.7 0 0 0 1.6 4.32 5.79 5.79 0 0 0 2.76 1.51c.85.22 1.29.36 1 .93a4 4 0 0 1 -2.05 1.25 12.06 12.06 0 0 1 -1.73 0 20.26 20.26 0 0 0 -1.44-3.69c-.67-1-.76-1.29-1.12-1.42a3.64 3.64 0 0 1 -1.64-1.11c-.8-.87-1.42-1.62-1.42-1.62z" fill="#c5dda3"/><path d="m32 30.91s1.07-1.78 2-1.82.53.62 1.38.8 1.73-.05 1.82.26a2.62 2.62 0 0 1 -.27 1.69c-.31.4.14 1.29.49 1.51a1.39 1.39 0 0 1 .85 1.47c-.05 1-.27 2.72-1 3a3.37 3.37 0 0 1 -1.91-.05 1.8 1.8 0 0 1 -.85-.31 4.76 4.76 0 0 0 -.31-4.18 22.16 22.16 0 0 0 -2.2-2.37z" fill="#ef7d7b"/><path d="m36.77 28.91a3.83 3.83 0 0 1 .23-2.27c.4-1.11 2-3.07 2.23-2.67a3.81 3.81 0 0 1 0 2.22 5.4 5.4 0 0 0 -.84 2.63c0 1.38.08 1.73.35 1.87s.49.17.45-.09a6.41 6.41 0 0 1 .22-2.54c.31-.49.67-.93.75-.71s-.8 5.25 1.2 7.61 3 2.31 3 2.62-1.51.85-2.67.49a12.94 12.94 0 0 1 -2.69-1.38s.58-2.67-.18-3.47-.75-.58-.8-.93.18-2-.4-2.58a7.05 7.05 0 0 0 -.85-.8z" fill="#c5dda3"/><path d="m42.07 29.53a5.24 5.24 0 0 0 2-2.22c.31-1 .54-2.45 1.34-2.45s.93.85 1.15 1.51-.31.54.58.8 1.29-.09 1.51.54-.4 1.29.35 2.18 1.12.53 1.29 1.42-2.09 2.58-2.8 2.31-.75-1-1.42-.89-1.34 1.69-2.31 1.51-1.29-.66-1.38-1.77.18-1.38-.14-1.69-.35-1.21-.17-1.25z" fill="#f6c687"/><g fill="#604f58"><path d="m12.71 35.76c-.23-.12-1.73-1.43-1.38-2.89s1.43-2.23 1.29-3.61a11.76 11.76 0 0 0 -.31-1.73c0-.27 0-1.11.49-.89a4 4 0 0 1 1 3.25c-.31 1-1.51 2.62-1.29 3.51s1.16 1.33 1.25 1.69a.74.74 0 0 1 -1.05.67z"/><path d="m20.76 27.84c.21-1.05.63-1.33.94-2.67s.31-2-.23-2.49-.8-1.51-.66-3.07.09-1.64.44-1.82.58-.05.62.27-.4 3 .32 3.73a3.15 3.15 0 0 1 .71 3c-.22 1.51-1.65 2.62-1.25 3.38s.63.75.54 1.24-.8.49-1.12.27a2.41 2.41 0 0 1 -.31-1.84z"/><path d="m26.63 24.9c.07-1.2 1.2-2.44 1.6-3.29a3.43 3.43 0 0 0 .36-2.49c-.27-.62-.4-.62-.44-.93s0-.67.26-.71a2.76 2.76 0 0 1 1.43 2.52 20.45 20.45 0 0 1 -1.47 4c-.36.88-.94 1.6-.27 2.66s.85 1.2.85 1.56a.69.69 0 0 1 -1.25.22 5.12 5.12 0 0 1 -1.07-3.54z"/><path d="m32.82 12.05c-.13-1.68.93-2.09 1.24-2s.58.27.36.76-1 1.42-.31 2.4a4.49 4.49 0 0 1 1.06 3.25c-.17 1.2-1.24 2.54-1.11 3.95s.62 2.45.45 2.76-.27.49-.76.36-.93-1.65-.93-3 1.29-2.8 1.2-4-1.02-1.59-1.2-4.48z"/><path d="m13 42.61a1.16 1.16 0 0 1 1.16-.49 2.36 2.36 0 0 1 1.78 1c.44.71.09.67.67 1a2.76 2.76 0 0 1 1.6 2c.18 1.2-.05 2.41-.4 2.54s-.54.13-.8-.18.17-2.18-.36-2.85-1.11-.88-1.42-1.42-.58-.89-1.07-.84-1.54-.14-1.16-.76z"/><path d="m26.19 36.6a2.06 2.06 0 0 1 .89-1.87c.67-.4 1-.13 1.15.18s-.62.58-.8 1 0 .81-.17 1-.94.27-1.07-.31z"/><path d="m44.29 28.55c.45 0 1.82.05 2.27.89s0 2.14-.36 2.09-.53-.13-.58-.44.05-1-.4-1.12-1 .09-1.15-.31-.45-1.06.22-1.11z"/></g></svg>