<svg height="64" viewBox="0 0 64 64" width="64" xmlns="http://www.w3.org/2000/svg"><path d="m64 33.91a6.17 6.17 0 0 0 -6.3-5.77 7.3 7.3 0 0 0 -1.53.16c-3.48.71-6.14 3.81-6.79 7.89a10.68 10.68 0 0 0 .92 5.87c-.4.75-1.11 2-2.27 4.09v.06a14 14 0 0 0 .94-4c.47-5.5-2.18-8.85-4.48-10.43.6-2.09 1.53-5.75 1.43-8-.18-4.1-6.84-7.26-14.45-8.51a3.78 3.78 0 0 0 .73-2.5 3.84 3.84 0 0 0 -1.24-2.65 4.35 4.35 0 0 1 -.31-.35 4.88 4.88 0 0 1 .62-1.58 2.31 2.31 0 0 0 .17-2.19 2.16 2.16 0 0 0 -1.66-1.25 2.11 2.11 0 0 0 -.65-.11 2.38 2.38 0 0 0 -1.8.93 5.7 5.7 0 0 0 -1.33-3.57 2.57 2.57 0 0 0 -1.95-1 2.39 2.39 0 0 0 -2.28 1.71 2.31 2.31 0 0 0 0 1.84 6.88 6.88 0 0 1 .4 2 2 2 0 0 1 -.31 1.39 4.7 4.7 0 0 0 -.29-1.31 2.39 2.39 0 0 0 -2.15-1.63 2.6 2.6 0 0 0 -.85.15c-1.72.41-1.64 2.06-1.56 3.52v.52a1.65 1.65 0 0 1 0 .26 1.63 1.63 0 0 1 -.11.17 4.84 4.84 0 0 0 -1 2.45 4.63 4.63 0 0 0 .64 3.16c-10.26 1.31-15.34 4.83-15.76 8.13-.29 2.23 1.11 8.9 1.8 12a7.61 7.61 0 0 0 -1.72 2.58 13.39 13.39 0 0 0 .31 10.18c1.51 3.48 6.52 11.57 20.44 11.57 1.09 0 2.23 0 3.39-.15 7.71-.67 16-3.79 20.55-9.3-2.76 4.53-4 6.65-4.16 8a4.06 4.06 0 0 0 1 3.26 4.9 4.9 0 0 0 3.77 1.53h.15c3.3-.07 5.71-1.91 7.59-5.77a93.62 93.62 0 0 0 4.1-12.54 14.67 14.67 0 0 0 2-1.31c3.14-2.25 4.24-6.5 4-9.5z" fill="#fff"/><path d="m4.76 36.16s-2.37-10.16-2.06-12.55 6-6.34 19.52-6.9 21.57 4.41 21.7 7.21-1.81 8.83-1.81 8.83 5.47 2 4.85 9.32-8.58 14.36-22.13 15.54-19.64-5.1-21.83-10.26-.42-10.35 1.76-11.19z" fill="#604f58"/><path d="m5.25 28.46c.14-.43 4.85 4.29 17.53 3.91s18.71-4.54 18.71-4.54-1.43 6.41-3.23 9-7.15 6-15.48 6.21-12.12-3.46-14.42-5.51-3.29-8.53-3.11-9.07z" fill="#ddeff2"/><path d="m7.24 27.17s-2.53-1.28-2-3.31 7-4.65 18-4.94 17.11 4.08 17.32 4.81.08 1.08-.62 1.78a7.84 7.84 0 0 1 -1.24 1s-2.82-5.47-15.38-5.3-16.16 5.79-16.08 5.96z" fill="#ddeff2"/><path d="m8.86 27.5c-.3-.5 5.59-4.6 15-4.35s13.14 4 13 4.27-3.8 2.4-14.12 2.58-13.63-2.08-13.88-2.5z" fill="#f6c687"/><g fill="#604f58"><path d="m14.33 28.17a21.65 21.65 0 0 1 2.9-2.86c.21 0 .62.2.54.58a21.91 21.91 0 0 1 -2.45 2.61c-.16.16-1.03-.25-.99-.33z"/><path d="m16.57 28.75c-.13-.19 2.94-3.11 3.15-3.28s.82.09.87.29a30.15 30.15 0 0 1 -3.11 3.24 1.85 1.85 0 0 1 -.91-.25z"/><path d="m21.17 28.79a33.09 33.09 0 0 1 2.77-3.4c.25 0 .79.12.71.41a19.57 19.57 0 0 1 -2.57 3.4 1.36 1.36 0 0 1 -.91-.41z"/><path d="m23.16 29.2c.16-.12 3-3.64 3.23-3.73a.64.64 0 0 1 .66.46 25.21 25.21 0 0 1 -2.94 3.4 2.64 2.64 0 0 1 -.95-.13z"/><path d="m27.8 28.75c.08-.29 2.07-3.4 2.44-3.4s.75.08.71.41a17.05 17.05 0 0 1 -2.2 3.11c-.25.13-.95-.12-.95-.12z"/><path d="m30.53 28.37s1.16-2.23 1.45-2.23.79.16.71.37a13.91 13.91 0 0 1 -1.33 1.95 1.82 1.82 0 0 1 -.83-.09z"/><path d="m19 15a2.46 2.46 0 0 1 -1.16-2.65c.25-1.83 1.2-1.5 1.12-3.24s-.12-2 .08-2.07.54-.29.79.29a6.18 6.18 0 0 1 0 2.9c-.21.58-1 2-.66 2.86s.7 1 .7 1.37-.28.73-.87.54z"/><path d="m24.81 14.74s-2.24-1.74-2.11-3.65 1.7-2.32 1.45-4.8-.7-2.62-.58-2.91.21-.53.5-.53a3.25 3.25 0 0 1 1.28 3.23c-.29 1.82-1.53 4.22-1.35 5.18s1.69 2.32 1.74 2.61-.74 1.03-.93.87z"/><path d="m28.75 14.61c-.25-.22.58-1.45 0-2.19s-1.37-1.16-1.08-2.82 1.24-3.11 1.53-3 .75 0 .38.62-1.29 2.44-.71 3.44 1.25 1.1 1.33 2.34-.99 2-1.45 1.61z"/></g><path d="m5.63 37.78a10.9 10.9 0 0 0 2.27 2.49c1.66 1.41 2.95 2.28 2.95 2.28s-1 1.36 2.4 3.73 5.84 2.32 11 2.28 9.91-2 11-3.07.66-4.23.66-4.23a13.8 13.8 0 0 0 3.52-2.48 12 12 0 0 0 1.87-3.44s4.22 2.94 3.19 7.66-10.85 12.85-22.49 12.39-15.26-5.3-17-8.82-1-7.92.63-8.79z" fill="#83a7d8"/><path d="m13.67 43.83a23.31 23.31 0 0 0 10.48 1.7c6.3-.33 10.32-3.32 10.61-3.23s0 2.07-.21 2.4-4.1 2.74-10.86 2.82-8.91-1.74-9.69-2.2-1.58-1.74-.33-1.49z" fill="#ddeff2"/><path d="m52.45 42.09a9.41 9.41 0 0 1 -1.2-5.59c.46-2.86 2.24-5.68 5.27-6.3a4.35 4.35 0 0 1 5.48 3.89c.25 2.65-.79 6-3.11 7.75s-2.49 1.33-2.49 1.33-2.4 9.36-4.32 13.3-4 4.64-5.88 4.68-3.11-1-2.9-2.61 4.18-7.54 6.38-11.44 2.77-5.01 2.77-5.01z" fill="#604f58"/><path d="m53.61 33.35a5.07 5.07 0 0 1 4.44-2.12c1.53 0 2.78 2.32 2.07 4.4a9.44 9.44 0 0 1 -3.77 4.8c-1.33.71-1.29.5-1.33.71s-3.89 11.86-5.47 14.75-2.61 3.94-3.27 4.11-2.78-.12-1.82-2.19 5.92-10.37 7.54-12.94 2-3.69 2-4-3.08-2.76-.39-7.52z" fill="#f9f2ed"/><path d="m48.64 59.16a74.42 74.42 0 0 0 4.06-8.45 72.51 72.51 0 0 0 3-9 10 10 0 0 0 3.52-2.57 12.05 12.05 0 0 0 1.95-4.1c.12-.17.25 0 .25 0a6.7 6.7 0 0 1 -2.08 5c-2.34 2.51-3.34 2.67-3.34 2.67a69.82 69.82 0 0 1 -3.61 10.78c-2.17 4.72-3.04 5.67-3.75 5.67z" fill="#ddeff2"/><path d="m54.28 35.25c-.15-.14 0-1.12 1.16-2.11s1.82-.37 1.9-.13a.91.91 0 0 1 -.45.87c-.29.17-1 .13-1.45.59s-.91 1.03-1.16.78z" fill="#604f58"/></svg>