<svg height="64" viewBox="0 0 64 64" width="64" xmlns="http://www.w3.org/2000/svg"><path d="m62.76 29.91c-.76-1.2-2.3-1.78-4.72-1.78h-.25a7.71 7.71 0 0 0 -1.49-2.46c-1.12-1.24-3.44-2.15-5.09-2.67.59-17.19.41-17.9.33-18.21-.39-1.5-3.2-4.79-9-4.79a16.61 16.61 0 0 0 -1.71.09c-8.09.83-8.69 5.44-8.7 5.49a57.84 57.84 0 0 0 .41 6 19.79 19.79 0 0 1 -2.48 4.49 3 3 0 0 0 -.26-.94.71.71 0 0 1 0-.6.93.93 0 0 1 .29-.5 4.52 4.52 0 0 0 1.26-2.81 3.8 3.8 0 0 0 -.83-3.36l-.13-.16a2 2 0 0 0 .41-.61 3.22 3.22 0 0 0 -.8-3.35 2.36 2.36 0 0 0 -1.56-.54 3.08 3.08 0 0 0 -2.2 1 3.15 3.15 0 0 0 -.61.88 2.83 2.83 0 0 0 -2.43-1.27h-.37a2.27 2.27 0 0 0 -1.67 1c-.83-3.33-4.91-3.36-10.43-3.41h-.73c-5.93 0-9.1 2-9.53 3.91-.11.69-.14 4.93-.05 12.61 0 3.85.66 5.35 2.61 6.19a5.72 5.72 0 0 0 2.43.29c1 0 2.31 0 3.38-.1 0 1.48 0 3.33.07 4.16v.18h-.31c-.94 0-1.69 0-2.23.07-1.79.14-4.67 1.29-5.37 2.13-1 1.18-.69 6-.69 6.09a5.21 5.21 0 0 0 2.61 3.77 11.43 11.43 0 0 0 3.47 1.3 43.33 43.33 0 0 0 -1.39 7.51c-.11 3.28.84 7.93 3.88 10.27 2.58 2 5 3.17 10.19 3.72 3.2.35 10 .5 15.41.5 4 0 7.17-.08 9.08-.22 2.88-.21 10.08-1 14.44-4.16 3.84-2.74 4.16-7.42 3.94-12.08a51.94 51.94 0 0 0 -1.08-7.66 5.41 5.41 0 0 0 2.55-2.23c.59-1.2.53-5.87-.65-7.74z" fill="#fff"/><path d="m61.12 31c-.82-1.29-4.79-.78-4.79-.78a6.13 6.13 0 0 0 -1.47-3.22c-1.29-1.43-5.64-2.52-5.64-2.52s.65-18.39.44-19.17-2.66-3.9-8.66-3.31-6.94 3.47-7 3.77.44 6.05.44 6.05a20.83 20.83 0 0 1 -3.4 6.09 37.92 37.92 0 0 1 -6.15 6 8.62 8.62 0 0 1 -2.38.34 36.59 36.59 0 0 0 -7 1c-2.11.61-3 3.19-3.06 3.19a.44.44 0 0 1 -.38-.1c-.17-.14 0-6.22 0-6.22s2.93-.12 4.74-.28 2.5-.46 2.63-1.18.14-12.47-.09-14.87-3.49-2.35-9.11-2.4-7.7 1.81-7.84 2.4-.09 8.16 0 12.1.68 4.11 1.41 4.45 7-.09 7-.09-.1 4.69 0 6 1 1.33 1 1.33l-.17 1.05s-3.47-.13-5.13 0a10.32 10.32 0 0 0 -4.06 1.47 23.85 23.85 0 0 0 -.24 4.59 3.23 3.23 0 0 0 1.79 2.38 15.7 15.7 0 0 0 4.82 1.4s-1.75 6.11-1.82 9.11.78 6.86 3.12 8.66 4.46 2.83 9.22 3.34a219.9 219.9 0 0 0 24.13.27c5.07-.38 10.37-1.6 13.46-3.81s3.34-6.15 3.13-10.4a53.62 53.62 0 0 0 -1.43-9.08 7.46 7.46 0 0 0 1-.24 4.52 4.52 0 0 0 2-1.46c.3-.61.3-4.62-.51-5.86zm-50.28 3.8a4 4 0 0 1 -2.17-.1c-.48-.24-.17-.61.27-.68s1.9-.06 1.9-.06a5.75 5.75 0 0 1 0 .79zm16.42-11a69.84 69.84 0 0 0 5-5.47 21.05 21.05 0 0 0 2.62-3.88l.27 9.28z" fill="#604f58"/><path d="m47.42 56.31c0-.24.41-1 .88-.75a28.3 28.3 0 0 1 3.41 2.74c.4-.13.78-.27 1.15-.41a23 23 0 0 1 -2.92-2.47c-.11-.3.4-.71.71-.71a15.66 15.66 0 0 1 3.35 2.68 9.9 9.9 0 0 0 1.37-.81 42.16 42.16 0 0 1 -4.36-3c0-.24.07-.85.64-.68a33.71 33.71 0 0 1 4.61 2.9 4.11 4.11 0 0 0 .6-.75 46.36 46.36 0 0 1 -4.36-2.9c0-.23.41-.78.62-.71s3.06 1.75 4.25 2.55a8.85 8.85 0 0 0 .38-1.2c-1.1-.56-4.34-2.21-4.43-2.4s0-.79.24-.89a29.48 29.48 0 0 1 4.44 2.19c.06-.43.11-.88.14-1.34a37.8 37.8 0 0 1 -4.14-2.35c-.1-.27 0-.95.27-.92a35.88 35.88 0 0 1 3.89 2c0-.62 0-1.28 0-2-1-.36-3.72-1.39-3.8-1.67s-.14-1.09.2-1a33.22 33.22 0 0 1 3.44 1.53c0-.44-.08-.9-.13-1.36a19.09 19.09 0 0 1 -3.37-1.19c-.13-.27-.34-1 .11-.92a25 25 0 0 1 3.15 1.07c-.06-.52-.12-1-.2-1.58a1 1 0 0 0 0-.16 12.27 12.27 0 0 1 -2.9-1c-.24-.34-.14-.92.07-.88s1.8.43 2.63.69c-.07-.37-.14-.73-.23-1.1-.59-.12-1.77-.38-1.89-.61s-.17-.92 0-.95a7.85 7.85 0 0 1 1.6.18 57.35 57.35 0 0 0 -2.79-8s-1.46.82-1.9 1-1.46.65-7.92 1.29-16.52.78-21.35.17a48.67 48.67 0 0 1 -9-2.11 37.78 37.78 0 0 0 -1.22 4.66l1.8.27c.41.07 1.09.75 1.12 2.35s-.75 2.72-1.09 2.72-3.36-.1-3.36-.1-3 10.53-1.77 13.46 5.61 4.82 11.83 5.74 18.36.61 23.66.14a35.68 35.68 0 0 0 5.47-.91 28.55 28.55 0 0 1 -2.9-2.5z" fill="#ddeff2"/><path d="m35.39 25.85a113.09 113.09 0 0 0 -15.91.54c-5.24.78-5.14 1.75-5 2a4.9 4.9 0 0 0 2.52 1.14 7.59 7.59 0 0 1 .08-1.91c.17-.24.75-.48.82-.28a16.22 16.22 0 0 1 .1 2.44l.76.15c-.07-.69-.22-2.54.06-2.65s.74-.31.78-.07.09 2.05.06 2.89l.57.09c-.1-.89-.27-2.83 0-3s.75-.27.75 0 .14 2.3.1 3.15l.75.1a19.55 19.55 0 0 1 .1-3.25c.17-.13.68-.17.79 0a25.5 25.5 0 0 1 0 3.39h.39l.57.06a27.77 27.77 0 0 1 0-3.49c.13-.14.81-.17.88.07a24 24 0 0 1 .09 3.51l.91.07a16.09 16.09 0 0 1 -.05-2.63c.14-.24.82-.17.92 0a11.07 11.07 0 0 1 0 2.72h1c-.12-.75-.44-2.57-.22-2.71s1.09 0 1.16.21a14.51 14.51 0 0 1 -.08 2.54c4.07.14 7.29 0 7.29 0s-.19-4.93-.19-5.08z" fill="#fcdfc8"/><path d="m43.07 28.67c0-.17.1-1 .44-.92a30.63 30.63 0 0 1 3.69 2c0-.19 0-.55 0-1.07a21 21 0 0 1 -3.46-1.81c0-.27-.07-1 .31-.95a29.45 29.45 0 0 1 3.18 1.49c0-.3 0-.62 0-.94a30 30 0 0 1 -3.51-1.74c0-.2 0-1.12.24-1.09a26 26 0 0 1 3.3 1.46c0-.34 0-.69 0-1.05a31.27 31.27 0 0 1 -3.26-1.84c-.07-.2-.14-1 .13-.95a24.6 24.6 0 0 1 3.25 1.54c0-.3 0-.6 0-.9a16.78 16.78 0 0 1 -3.06-1.49c-.07-.27-.31-.82 0-.82a16.58 16.58 0 0 1 3.08 1.41c0-.31 0-.61 0-.92-.72-.41-3.07-1.59-3.13-1.91s.17-.85.31-.85a19.37 19.37 0 0 1 2.84 1.46c.08-4.48.13-8.62.12-8.73s-1.87.37-5.65.27a22.07 22.07 0 0 1 -5.57-.68c-.17-.07 1 20.84 1.15 21s2.62.07 5-.07c1.2-.06 2.33-.18 3.17-.3a16.72 16.72 0 0 1 -2.57-1.6z" fill="#f9f2ed"/><path d="m9.92 20s-5 .58-5.09.13-.07-12.88.27-13.35 3.9-.78 6.32-.85 5.54.34 5.71.71.34 12.82-.17 13.09a23.07 23.07 0 0 1 -4.08.24v-1.4s3.03-.57 3.12-4.45-3.27-4.38-5.17-4.28-4 1.9-3.88 5.4 3 3.4 3 3.4z" fill="#f9f2ed"/><path d="m10.77 11.27a3.14 3.14 0 0 1 4.12 2.78c.13 2-3.1 5-5.58 3s-1.31-5 1.46-5.78z" fill="#84767e"/><path d="m11 19.05c.2 0 .88-.07.95.07a4.69 4.69 0 0 1 -.1 1.83c-.17.11-.92.28-1 0s-.11-1.87.15-1.9z" fill="#84767e"/><path d="m36.54 5.76c-.07-.38 1.94-1.67 5.27-1.74s5.58 1.26 5.58 1.6-1.87.92-5.24 1-5.54-.49-5.61-.86z" fill="#f9f2ed"/><path d="m36 6.74a28.83 28.83 0 0 0 6.12.79c3-.11 5.3-.85 5.41-.62a8.4 8.4 0 0 1 0 1.64s-1.36.85-5.54.74-5.78-.4-5.91-.68a7 7 0 0 1 -.08-1.87z" fill="#fcdfc8"/><path d="m49.05 26.94c.14 0 3.74.71 3.74 1.36s-3.33 1.46-3.47 1.39a20.78 20.78 0 0 1 -.27-2.75z" fill="#fcdfc8"/><path d="m11.28 31.87a32.23 32.23 0 0 0 -5.5.34c-1.87.4-2.08 1.42-2.14 1.73a15.13 15.13 0 0 0 .1 3.3c.17.27 1.53 1.49 5.4 1.83s4.93 0 5-.1 0-2.69 0-2.69a63.73 63.73 0 0 1 -6.39-.57c-1.47-.34-1.91-1-2-1.36s1.9-1.5 3.43-1.67a7.09 7.09 0 0 1 2.11 0z" fill="#f6c687"/><path d="m15.06 32.31c.12-.32.85.13.88.34s-.27 1.8-.54 1.8-1 0-1-.24a11 11 0 0 1 .66-1.9z" fill="#604f58"/><path d="m12.68 42.37c.19-.27 1.26.2 1.32.48s-1.22 3.94-1.32 6.76a5.72 5.72 0 0 0 .68 3.57c0 .24-.65 1.12-.85 1s-1.12-1.07-1.29-3.18 1.22-8.29 1.46-8.63z" fill="#604f58"/><path d="m56.87 32.48s1.77 0 2.55 0 1.16-.24 1.22 0a16.32 16.32 0 0 1 .28 3.23c-.11.72-.62.95-1.16 1.19a5.57 5.57 0 0 1 -1.46.31s-1.3-4.05-1.43-4.73z" fill="#f6c687"/><path d="m56.67 31a27.16 27.16 0 0 1 2.85.2c.44.14.58.34.41.44a13.58 13.58 0 0 1 -2.18.11 8.36 8.36 0 0 1 -1-.11z" fill="#f6c687"/><g fill="#604f58"><path d="m23.49 19.59a5.14 5.14 0 0 1 -1.49-3.53c0-2.11 1.76-2.48 1.63-4.15s-1.23-1.91-1.33-3.06.13-3 .75-3.09 1 .27 1 .51-1 1.83-.27 3 1.63 1.22 1.16 3.06-1.67 2.51-1.5 4.11 1.09 1.7 1 2.35-.71 1.01-.95.8z"/><path d="m27 16.87a3.07 3.07 0 0 1 -.68-2.72c.34-1.56 2.18-2.27 1.77-3.73s-.95-1.13-1-3.23 1.36-2.18 1.6-2a1.42 1.42 0 0 1 .31 1.15c-.11.23-1.3.27-.65 1.73s1.29 1 1 2.92-1.08 1.5-1.49 3.06.37 1.91.2 2.42-.76.81-1.06.4z"/></g></svg>