<svg height="64" viewBox="0 0 64 64" width="64" xmlns="http://www.w3.org/2000/svg"><path d="m31.92 64a7.86 7.86 0 0 1 -4.92-1.54 7.16 7.16 0 0 1 -2.52-5.46c0-.19 0-21.22.54-22.77a5.11 5.11 0 0 1 1.83-2.34c0-2.11 0-4.23 0-5.3l-.54-.42c-3.47-2.74-4.67-3.77-5.12-4.43-1-1.37-1.14-2.67-1.14-4.74 0-.12 0-11.94.32-13.09v-.1a4.48 4.48 0 0 1 4.63-3.81h.71c3.1 0 12.7.22 13.7.32a4.62 4.62 0 0 1 4.46 4.45c.14 1.7.11 7.63.06 12.6v1.09c0 1.68-1.36 3.07-2.83 4.32-.51.44-1.34 1.09-2.17 1.75s-2.06 1.61-2.31 1.86-.31.34-.33.35v4a4 4 0 0 1 2.45 3.41c.08 1.71-.07 17-.67 21.68-.54 4.14-1.28 6.59-3.65 7.69a6 6 0 0 1 -2.5.48z" fill="#fff"/><path d="m41.92 4.92a2.72 2.72 0 0 0 -2.72-2.67c-.92-.09-11.87-.35-14.2-.31a2.61 2.61 0 0 0 -2.76 2.41c-.16.7-.24 10.65-.24 12.65s.17 2.76.79 3.63 5.82 4.82 6 5 0 7.4 0 7.4a3.42 3.42 0 0 0 -1.93 1.84c-.31.88-.52 20.24-.44 22a5.32 5.32 0 0 0 1.88 4.13 6.16 6.16 0 0 0 5.25.79c1.23-.57 2-1.8 2.54-6.18s.75-19.62.66-21.33-2.45-2.15-2.45-2.15 0-5.43 0-5.87.35-.65.83-1.18 3.46-2.76 4.65-3.77 2.14-2 2.14-2.84.17-11.36 0-13.55zm-13.62 11.3a.8.8 0 0 1 -1.3-.22c-.27-.57.08-6.39.08-6.39a1.23 1.23 0 0 1 1.19.13c.25.13.38 6.18.03 6.48zm4.64 2.78c-.39.22-1 .26-1.23-.09s0-11.87.31-12.35c.24-.33 1.1-.13 1.27.13s.04 12.12-.35 12.31zm4.51-2.63c-.22.13-.83.39-1 0a70.24 70.24 0 0 1 .13-7.37c.06-.31.83-.27.92-.05a61.6 61.6 0 0 1 -.05 7.45z" fill="#604f58"/><path d="m40.65 5.14c-.18-1.18-1.23-1.71-3.5-1.79s-8.15-.27-10.47-.22-2.72.7-2.85 1.09-.61 13.27 0 14.5 5.91 5.65 6.35 6.44.26 7.4.26 7.4c.44.75 2.32.4 2.41-.09s.13-4.9.13-5.65a3 3 0 0 1 .92-2.27c.79-.84 4.86-3.9 5.3-4.38s1.49-1.36 1.45-2.15.17-11.7 0-12.88zm-11.35 11.74c-.21.57-1.44.75-1.92.66a1.93 1.93 0 0 1 -1.32-1.75c0-1 .05-6.36.09-6.88 0-.32.83-.44 1.62-.53s1.62.13 1.71.62a67.32 67.32 0 0 1 -.18 7.88zm4.47 3a2.16 2.16 0 0 1 -1.71.35c-.39-.08-1.31-.17-1.4-1.14s.05-12.65.27-13a2.62 2.62 0 0 1 1.92-.61c1 0 1.32.52 1.4.92s-.13 13.11-.48 13.5zm4.65-2.67c-.31.31-2.24.66-2.63 0s-.31-8.58-.13-9.11c0-.13 2.58-.48 2.84.35s.22 8.47-.08 8.78z" fill="#adceea"/><path d="m30.18 56.65c.09-.39 0-.83.48-.74a12.55 12.55 0 0 1 2.77 1.93 9 9 0 0 0 .37-1.42c-.83-.41-2.68-1.35-2.74-1.83s.26-.87.52-.87a12.16 12.16 0 0 1 2.42 1.49c0-.45.1-.93.12-1.45 0-.08 0-.18 0-.29a11.18 11.18 0 0 1 -2.29-1.59c0-.26.08-.79.52-.75a6.43 6.43 0 0 1 1.82.83c0-.49 0-1 0-1.62-.54-.27-2-1-2-1.26s0-1.1.39-1a14.3 14.3 0 0 1 1.68.73c.12-5.59.19-13.38 0-13.69s-1.23-.57-2.1-.44a10 10 0 0 0 -2.72.52c-.48.49-.66 18.31-.57 21.29a2.84 2.84 0 0 0 3.59 2.8.83.83 0 0 0 .31-.27c-.82-.64-2.64-2.02-2.57-2.37z" fill="#f6c687"/></svg>