<svg height="64" viewBox="0 0 64 64" width="64" xmlns="http://www.w3.org/2000/svg"><path d="m29.88 51.19a3.32 3.32 0 0 1 -1.69-.43 61.39 61.39 0 0 1 -5.48-4.76l-3.59-3.23a55.1 55.1 0 0 0 -10.61-7l-1.74-1c-4.48-2.47-5.08-2.81-5.34-3a3.55 3.55 0 0 1 -1.43-2.77 2.4 2.4 0 0 1 1.38-2c1.11-.56 9-3.05 12-3.95s5.09-1.66 6.12-2.05a5.93 5.93 0 0 1 2-2.23c.81-.47 1.15-.69 1.23-.94.57-1.59 2.42-4.23 5-4.48 1-.1 1.31-.11 1.52-.12h.2l.26-.08a6.29 6.29 0 0 1 2-.31h.4a3.25 3.25 0 0 1 2.44 1.16h.45a3.43 3.43 0 0 1 2.31.8 4.41 4.41 0 0 1 .89 1.07c3.42-1.28 3.8-1.28 4.12-1.28.78 0 1.27.33 3.32 1.71a71.35 71.35 0 0 0 6.08 3.8c8.21 4.4 9.88 5.47 10.46 6 .85.74 2.61 2.26 1.42 4.06-.77 1.15-6.52 4.27-6.57 4.3a97.75 97.75 0 0 0 -10.49 6.24c-2.83 1.89-6.07 4.3-8.68 6.3a49.4 49.4 0 0 1 -4.68 3.31 7.88 7.88 0 0 1 -3.3.88z" fill="#fff"/><path d="m20.91 22.51a5.07 5.07 0 0 1 1.57-2.08c1-.56 1.74-1 2.08-2s1.69-3 3.37-3.21 1.35 0 1.91-.16a5.66 5.66 0 0 1 2.16-.3c1.24.06 1.07 1.24 2 1.24s1.4-.17 2 .33a5.75 5.75 0 0 1 1.12 2s4.67-1.8 5.12-1.8 4.49 3.14 8.48 5.28 9.27 5 10.11 5.73 1.3 1.18 1.07 1.52a43.31 43.31 0 0 1 -5.84 3.65 100 100 0 0 0 -10.68 6.35c-5.28 3.54-12 8.88-13.14 9.44s-2.48.95-3.15.56-5.23-4.61-8.77-7.75a56.88 56.88 0 0 0 -10.87-7.22c-3.77-2.09-6.63-3.65-6.86-3.82s-1.12-1.13-.33-1.52 7.41-2.53 11.68-3.82 6.97-2.42 6.97-2.42z" fill="#604f58"/><path d="m52.09 24.62c-4.46-2.33-9.77-6.46-10-6.46a31.91 31.91 0 0 0 -3.68 1.38c-.14.14.11.28.25.44a6.79 6.79 0 0 1 .48.59c.31.43.31 2.42.48 2.73s.36.25.73.48a10.54 10.54 0 0 1 1.54 1.63c.34.42.28.7.59 1.23s.68.2 1.46.54.51.92.62 1.12 1.44.48 1.58.53.59.85.87 1.16a3.14 3.14 0 0 1 .5 1.77c-.08.33-.39.5-1.32.78a2.62 2.62 0 0 0 -1.49 1.15c-.14.23-.78.2-1.46.31a3.53 3.53 0 0 0 -1.57 1.1 15.75 15.75 0 0 1 -3.26-.1 9.51 9.51 0 0 0 -1.15 1c-.31.39-.87.22-1.57.28a4.59 4.59 0 0 0 -1.49.45 4.08 4.08 0 0 1 -1.69.31 10.94 10.94 0 0 0 -2.39.36 3.11 3.11 0 0 1 -1.71-.4c-.73-.48-2.3-.59-3.74-.85s-1.15-1.51-1.46-1.88-2.41-.45-3.51-.56-1.7-1.31-2.7-2.01-.7-.2-1.85-.42-.93-1.49-.9-2 1.35-1.07 2.58-1.54.9-.76 1.24-1.35a23 23 0 0 1 1.38-1.88s-1.3.39-3.82 1.23-10.86 3-10.82 3.37c.06.56 8.85 5.14 12.73 7.73s11.24 10.16 11.8 10.48a2.55 2.55 0 0 0 2-.08h.05a18 18 0 0 1 -2.69-2.72.49.49 0 0 1 .73-.42 30 30 0 0 1 2.88 2.53l.79-.56a25.85 25.85 0 0 1 -2.83-2.48c0-.25.51-.44.79-.39a16.23 16.23 0 0 1 2.77 2.34l.6-.43a22.67 22.67 0 0 1 -2.56-2.53.48.48 0 0 1 .59-.5 13.15 13.15 0 0 1 2.79 2.43l.74-.54a16.76 16.76 0 0 1 -2.32-2.65c.06-.28.56-.48.82-.42a14.24 14.24 0 0 1 2.31 2.49l.8-.59c-.42-.46-1.39-1.43-1.34-1.68a.55.55 0 0 1 .61-.39 10.72 10.72 0 0 1 1.58 1.46c3-2.16 6.28-4.53 8.71-6.15 5.39-3.6 12.5-7 12.58-7.28s-3.18-1.76-7.65-4.14z" fill="#f9f2ed"/><path d="m15.26 29.28c.23-.16 3-1 3.4-1.88s.82-2.13 1.63-2.61 1.35-.7 1.49-1.43a3.05 3.05 0 0 1 1.22-2.14 6.53 6.53 0 0 0 2.34-2.39c.39-.92 1.79-2.53 2.58-2.69s1.88.14 2.42-.12a3.06 3.06 0 0 1 1.66-.47c.54.08 0 .89 1.24 1.2s1.83-.11 2.42.54.53 1.74 1.23 2.3 1.49.93 1.58 1.71-.17 1.72.5 2.56 1 .11 1.74 1.43.37 1.83 1.18 2.2.9.05 1.46.56.2.76.79 1.06a9.74 9.74 0 0 1 1.29.62c.48.34 1.3 1.3 1.13 1.58s-.59.16-1.35.75-.37.71-1 .9a5.77 5.77 0 0 0 -2 .57c-.85.5-.71.7-1.16.7s-3.17-.4-3.54 0-.39 1.21-1.18 1.35-1.48-.06-2.13.31-.51.42-1.1.47a19.37 19.37 0 0 1 -2.64 0c-.67 0-.9.06-1.18 0a6.87 6.87 0 0 0 -1.63-.67 9.39 9.39 0 0 1 -2.69-.51c-.85-.44-.79-1.74-1.8-2s-2.75.14-3.34-.34-.9-1.46-2.11-1.85-1.15-.2-1.8-.42-1.29-.84-.65-1.29z" fill="#f6c687"/><g fill="#604f58"><path d="m19.79 28.64a1 1 0 0 1 1.06-1c1-.06 1.49.36 1.21.61s-1.12.12-1.26.23-.14.5-.4.59-.67-.15-.61-.43z"/><path d="m24.73 27a1.68 1.68 0 0 1 1.85-.62c1.13.31 1.24 1 1.1 1.35s-.28.39-.59.31-.48-1-.9-.82-.79.48-1.09.51-.54-.53-.37-.73z"/><path d="m22.88 31.22a1.33 1.33 0 0 1 1.29-.76c.87 0 1.4.82 1.15.93s-.87-.2-1.32.14-.59.53-.84.53-.45-.5-.28-.84z"/><path d="m28.94 31.7c.08-.16 1-1 1.52-.73s1.18.65 1 .76-1.06 0-1.32.17-.33.56-.7.56-.61-.54-.5-.76z"/><path d="m32.91 27.35c.21-.14 1-.48 1.34-.12s.54.68.2.85-.56-.17-.84.14-.82.39-1 .14a.87.87 0 0 1 .3-1.01z"/><path d="m36.5 25.07a1.66 1.66 0 0 1 1.63.28c.45.31.68 1.38.39 1.49s-.39.14-.53-.11-.36-.85-.79-.9-.47 0-.64-.2-.23-.48-.06-.56z"/><path d="m30.91 18.19a3.18 3.18 0 0 1 1.43 0c.48.17 1.16.76.93 1.12s-.42.59-.59.39-.36-.61-.73-.7a5.23 5.23 0 0 0 -.95 0c-.17 0-.48-.7-.09-.81z"/><path d="m26.87 19.9a1 1 0 0 1 1.23-.34c.76.26 1.29 1.07 1.15 1.38s.09.53-.39.36-.65-.81-.93-.81-.28.17-.47.22-.9-.44-.59-.81z"/><path d="m23.55 23.41a2.12 2.12 0 0 1 1.45-.81c.71 0 .87 1 .68 1.15a.63.63 0 0 1 -.51.11c-.11 0-.45-.25-.62-.05s-.28.56-.53.56-.81-.48-.47-.96z"/><path d="m29.06 23.16c.35-.23 1.37-.09 1.57.39s.17 1-.2.93-.43-.48-.78-.48-.42.14-.57 0-.33-.64-.02-.84z"/><path d="m31.44 21.64a.79.79 0 0 1 1 .09c.19.28.17.81-.09.92s-.78.12-.9-.25-.15-.62-.01-.76z"/><path d="m33 22.48a2 2 0 0 1 1-.08c.64.08.89.65.78.9s-.22.48-.56.34-.25-.31-.59-.37-.39.17-.53-.11-.33-.56-.1-.68z"/><path d="m35.29 20.49c.26 0 .76.34.45.53s-.53.4-.7.14-.17-.7.25-.67z"/><path d="m28.64 17.57c.25 0 .75.34.44.53s-.53.4-.7.14-.17-.7.26-.67z"/><path d="m26.84 24.17c.25 0 .76.34.45.53s-.54.4-.71.14-.16-.7.26-.67z"/><path d="m30.49 26.73c.25 0 .76.33.45.53s-.53.39-.7.14-.17-.7.25-.67z"/><path d="m27.15 33.22c.25 0 .75.33.45.53s-.54.39-.71.14-.16-.7.26-.67z"/><path d="m38.27 30.94a1.6 1.6 0 0 1 1.07-.2c.42.12.93.54.67.76s-.81 0-1 .12-.17.33-.48.28-.62-.65-.26-.96z"/><path d="m42.63 30.24c.22-.1.67-.23.89 0a.54.54 0 0 1 0 .79c-.23.11-.59.31-.9 0s-.3-.65.01-.79z"/><path d="m30.07 33.92c.22-.1.67-.23.9 0a.55.55 0 0 1 0 .79c-.23.11-.59.31-.9 0s-.31-.65 0-.79z"/><path d="m27.54 30c.22-.1.67-.22.9 0s.2.68 0 .79-.59.31-.9 0-.31-.61 0-.79z"/><path d="m34 31.25c.22-.1.68-.22.9 0s.2.68 0 .79-.59.31-.9 0-.31-.65 0-.79z"/><path d="m36.7 28.47c.22-.1.67-.23.9 0a.55.55 0 0 1 0 .79c-.23.11-.59.31-.9 0s-.31-.65 0-.79z"/><path d="m25.21 20.91c.22-.1.67-.22.9 0a.55.55 0 0 1 0 .79c-.23.11-.59.31-.9 0s-.31-.65 0-.79z"/><path d="m11.08 28.33a3.71 3.71 0 0 1 2.19 0c.45.08.67 0 .64.48s-.25 1-.67 1.06a6.84 6.84 0 0 1 -1.32-.05c-.56 0-.62.11-.87-.14s-.2-1.27.03-1.35z"/></g><path d="m12 28.78c.3-.15 1-.09 1.07.11s.19.34-.09.37-.7 0-.95 0-.25-.4-.03-.48z" fill="#f6c687"/><path d="m14.59 32.49a1.81 1.81 0 0 1 1.52-.2 3.39 3.39 0 0 1 2.05 1.12c.42.48-.17 1.35-.57 1.41a2.69 2.69 0 0 1 -1.43-.17 3.6 3.6 0 0 0 -1.16-.56c-.56-.17-.7-.17-.84-.4a1.16 1.16 0 0 1 .43-1.2z" fill="#604f58"/><path d="m15.74 33.05c.14 0 1.32.14 1.52.45s.39.59 0 .59-.84-.37-1.18-.42a6.45 6.45 0 0 1 -.76-.2s-.17-.42.42-.42z" fill="#f6c687"/><path d="m20.46 35.72c.5-.14 1.18-.06 1.35.28s.39 1.07-.11 1.15a1.84 1.84 0 0 1 -1.41-.23c-.22-.25-.45-1.03.17-1.2z" fill="#604f58"/><path d="m26.3 38.44c.52-.13 1.8 0 2 .54a.86.86 0 0 1 -.79 1.15 1.87 1.87 0 0 1 -1.57-.34c-.42-.36-.09-1.24.36-1.35z" fill="#604f58"/><path d="m37.48 37.4a1 1 0 0 1 .88.11c.19.2 0 .62-.31.68a1.21 1.21 0 0 1 -.9-.2c-.15-.17-.03-.48.33-.59z" fill="#604f58"/><path d="m41.42 21.56a1.12 1.12 0 0 1 1.18.17c.36.31.5.5.42.78s-.59 1-1.18.42-.84-1.15-.42-1.37z" fill="#604f58"/><path d="m45.1 24.23a7.27 7.27 0 0 1 3.14.45c1.24.5 1.49 1.34 1.18 1.68s-.7.62-2 .45a4.73 4.73 0 0 1 -2.59-1.09c-.21-.34-.55-1.3.27-1.49z" fill="#604f58"/><path d="m45.83 24.87c.39 0 1.29-.05 1.52.17s.78.28.95.54.25.25 0 .33a2.77 2.77 0 0 1 -1.85.06c-.68-.31-1.3-1.13-.62-1.1z" fill="#f6c687"/><path d="m51.56 27.65c.28 0 1.18-.08 1.29.23a.67.67 0 0 1 -.5.9 1.06 1.06 0 0 1 -.93-.14c-.25-.17-.34-.9.14-.99z" fill="#604f58"/></svg>