<svg height="64" viewBox="0 0 64 64" width="64" xmlns="http://www.w3.org/2000/svg"><path d="m18.85 60.88a17.68 17.68 0 0 1 -12.07-4.56 18.19 18.19 0 0 1 -6.69-12.32c-.55-5.59 1.47-8.81 3.26-10.53a3.17 3.17 0 0 1 1.48-.74 4.51 4.51 0 0 1 3.38-3l.48-.08c.55-2.26 1.66-3.63 3.3-4.1a8.24 8.24 0 0 1 2.22-.33 5.62 5.62 0 0 1 4.79-2.17h.37a12.83 12.83 0 0 1 3.46.34l.25.05a3.1 3.1 0 0 0 .5-.13 5.57 5.57 0 0 1 1.84-.31 3.89 3.89 0 0 1 .83.08 3.17 3.17 0 0 1 1.72.89c4.03-3.36 19.32-15.97 22.03-17.86s5.36-3 7.6-3a8 8 0 0 1 1.48.14c2.92.61 4.82 3.1 4.92 6.36.07 2.39-1.71 4.32-4.41 7.24-1 1.06-2.08 2.25-3.27 3.65-4.43 5.22-12.89 15.59-13.71 16.81l-.78 1.12a17.43 17.43 0 0 1 -3 11.1c-3.91 5.74-7.86 9.57-15.42 10.93a26.15 26.15 0 0 1 -4.56.42z" fill="#fff"/><path d="m4.7 34.85c.36-.35 1.37-.28 1.62-.67s.56-2.25 2.21-2.54 1.77-.17 1.84-.42.28-3.27 2.14-3.8a7.94 7.94 0 0 1 2.79-.21c.21-.14.49-2.19 3.73-2.22s3.27.42 4.15.39 1.59-.64 2.72-.43 1.1 1.41 1.62 1.45a1 1 0 0 0 .73-.18s19.83-16.37 22.89-18.52 5.53-3 7.57-2.54a4.43 4.43 0 0 1 3.35 4.51c.07 2.25-3.06 4.68-7.22 9.58s-12.84 15.56-13.84 16.97a15.29 15.29 0 0 1 -1.2 1.66 15.06 15.06 0 0 1 -2.6 10.56c-3.63 5.32-7.08 8.84-14.2 10.11s-11.41-.64-15-3.7a16.21 16.21 0 0 1 -6-11.06c-.4-4.33.87-7.18 2.7-8.94z" fill="#604f58"/><path d="m6.11 35.45c.54-.17.7 0 1-.46s.67-1.9 1.3-2.22 1.94.28 2.65-.49.7-2.08 1.44-3a2.33 2.33 0 0 1 1.87-1c.31.07 1.09.42 1.54 0s.92-1.76 2.86-2 2.32.42 3.59.25 2.85-.53 3.27-.14.25 1.33 1.13 1.86 1.37.32 1.76.6.92 1.45 1.48 2 .56.63 1.2.7 1.86-.07 2.22.39-.07 1.2.74 1.55.59-.18 1.33.56.6 2 1 2.33.77.31.84.84a7.87 7.87 0 0 1 -1.76 4.62 18.68 18.68 0 0 1 -8.8 6.9c-5 2-13.13.67-16.48-.11a7.75 7.75 0 0 1 -5.88-6.3c-.49-2.82-.25-3.7-.11-4s.32.07.57-.77.32-1.83 1.24-2.11z" fill="#f6c687"/><g fill="#604f58"><path d="m6.11 40.31a2.4 2.4 0 0 1 .89-2.86c1.4-.81 2.92 0 3 .57s.14.67-.11.7-1.3-.53-2 .11-.5 1.23-.67 1.55-1.01.21-1.11-.07z"/><path d="m8.5 45.41a2 2 0 0 1 1.3-2.6 1.91 1.91 0 0 1 2.68 1.37c-.07.42-.32.56-.53.46s-.7-1.16-1.8-.6-.49 1.34-.81 1.58-.81.07-.84-.21z"/><path d="m10.82 39.88c.06-.24.07-1.3 1.91-1.58s2.11.56 2 .91-.07.36-.35.43-1-.39-1.62-.07-.88 1-1.16 1.09-.85-.46-.78-.78z"/><path d="m11 34.67a2.52 2.52 0 0 1 2.29-1.86c1.87-.29 2.61 1 2.4 1.33a.78.78 0 0 1 -.49.36 2.2 2.2 0 0 0 -1.59-.5c-1 .07-1.34 1.06-1.55 1.2s-1.31.14-1.06-.53z"/><path d="m15.68 30.24a2.81 2.81 0 0 1 2.15-.5c1 .21 1.62.6 1.23 1s-.88.5-1 .39-.17-.42-.56-.42-.46.17-.81.28-1.43-.3-1.01-.75z"/><path d="m21.6 28.3a2.72 2.72 0 0 1 2.39.28c1 .6 1.06 1.51.88 1.76a.54.54 0 0 1 -.77.21c-.28-.21-.49-1.09-1.27-1.23s-1 .11-1.23.07a.65.65 0 0 1 0-1.09z"/><path d="m17.37 35.27c0-.42.25-1.16 1.66-1.55s2.39.88 2.22 1.27-.07.35-.32.39-.93-.64-1.65-.38-.81.92-1 1-.91-.41-.91-.73z"/><path d="m23 34a1.8 1.8 0 0 1 2-1.41c1.65.07 2.11 1.37 1.9 1.69s0 .39-.39.39-.74-1-1.86-.78-1 .92-1.23.92-.52-.42-.42-.81z"/><path d="m28.68 34.71c.21-.17 1.93-1.24 2.92-.07s.95 3.17.49 3.31-.84.07-1-.36.28-1.65-.35-1.93-1.27.14-1.55 0-.87-.66-.51-.95z"/><path d="m16 43.76a1.39 1.39 0 0 1 1.44-1.66c1.56-.1 1.56.9 1.45.99s-1.23-.32-1.62 0-.18.64-.39.81-.88.1-.88-.14z"/><path d="m21 40.48c-.06-.13.07-2.64 2.07-2.32s2.26 2.36 1.87 2.6-.56.22-.81.07.11-1.33-1.09-1.23-.92 1.2-1.13 1.23-.8-.17-.91-.35z"/><path d="m29.28 41.75a1.41 1.41 0 0 1 1.86-.42c1.06.67 1.16 1.41.71 1.58s-.36.35-.78.07-.07-.77-.84-.67-1.23-.31-.95-.56z"/><path d="m32.41 39.71a.91.91 0 0 1 1.41 0 .68.68 0 0 1 -.71 1c-.52-.12-.98-.47-.7-1z"/><path d="m17.87 47.14a2.15 2.15 0 0 1 1.44-1c1-.21 1.51.28 1.51.64s0 .52-.21.56-.63-.28-1.16-.07-.21.56-.67.56-1.23-.34-.91-.69z"/><path d="m23.18 44.74a2.2 2.2 0 0 1 2.12-.88c.88.25 1.26 1.09 1.12 1.45s-.56.56-.67.49-.21-.67-.95-.63-.74.74-1.09.7-.71-.87-.53-1.13z"/></g><path d="m5.4 47.67c.2 0 4.44 3.24 8 3.76a41.3 41.3 0 0 0 11.8 0 15.26 15.26 0 0 0 8.73-4.65c2.07-2.11 2.88-3.16 3.07-3.16s.07.38 0 .49-2.32 6.2-7.11 9-6.34 3.45-13.06 3.13-10.83-6.53-11.25-7.38-.53-1.26-.18-1.19z" fill="#ddeff2"/><path d="m28.92 27.84c.08-.1 19.37-15.53 22.08-17.61s5.81-3.13 6.94-2.71a2.33 2.33 0 0 1 1.48 2.78c-.42 1.06-11.42 11.24-15.5 15.01s-7.78 7.69-7.78 7.69a1.36 1.36 0 0 1 -1.23-.53c-.46-.63-.14-1.83-1.44-2.07s-2.4.14-2.68-.39 0-1.16-.74-1.52a7.94 7.94 0 0 1 -1.13-.65z" fill="#fafafa"/><path d="m36.74 33.72s16.34-15.6 16.59-15.42.31.17.14.39-13.84 15.49-14.37 16-1.06 1.8-1.41 1.59-.6-.28-.56-.57.21-.38.07-.77-.46-1.22-.46-1.22z" fill="#ddeff2"/></svg>