<svg height="64" viewBox="0 0 64 64" width="64" xmlns="http://www.w3.org/2000/svg"><path d="m29 64c-1.21 0-2.4 0-3.53-.16-4.31-.39-9.73-1.76-12.11-3.92a6.82 6.82 0 0 1 -2.47-5.36c0-.23 0-.48-.07-.75-.25-2.4 1-13 1.81-15.89.65-2.24 1.16-3.45 2.31-4.15l-1-1.85c-1.65-.27-4.72-1-6.53-3.21-2.41-2.87-3.11-6.81-1.64-9.37a5.21 5.21 0 0 1 2-2 15 15 0 0 1 -.5-4.46 8.1 8.1 0 0 1 6-7.51 6.87 6.87 0 0 1 1.57-.18 7.61 7.61 0 0 1 1.56.17 8.12 8.12 0 0 1 4.44-4.45 9.15 9.15 0 0 1 3.82-.91 6.93 6.93 0 0 1 4.4 1.53 5.75 5.75 0 0 1 2.79-1.41 4.47 4.47 0 0 1 1-.1 5.38 5.38 0 0 1 4.51 3 8.85 8.85 0 0 1 3-.54 6.83 6.83 0 0 1 3.9 1.17 8.24 8.24 0 0 1 3.16 5.05 8.36 8.36 0 0 1 3.83-1 6.8 6.8 0 0 1 3.75 1.11 8.57 8.57 0 0 1 3.89 5.8 10.25 10.25 0 0 1 -2.06 7.88 17.9 17.9 0 0 1 -5.72 4.44 13.46 13.46 0 0 0 -3.16 2.16 23 23 0 0 0 -2.7 3.85 5.86 5.86 0 0 1 2 2.13c1.53 2.7 2.73 8.45 3.19 12.64.4 3.52.37 8-.61 9.65-.68 1.11-2.7 3.22-8.63 4.94a44.56 44.56 0 0 1 -12.2 1.7z" fill="#fff"/><path d="m53.93 10.44c-4-2.56-8.12 1.83-8.12 1.83s.39-5-2.69-7-6.74.35-6.74.35-1.3-4.21-4.12-3.62a3.33 3.33 0 0 0 -2.87 3 8.75 8.75 0 0 0 -.83-1.31c-.47-.6-2.78-3-6.9-1.08s-3.78 5.47-3.78 5.47-.26-.17-.48-.35a5.18 5.18 0 0 0 -3.65-.52 6.14 6.14 0 0 0 -4.51 5.79 12.4 12.4 0 0 0 1.08 5.69 3.29 3.29 0 0 0 -2.86 1.61c-1 1.74-.57 4.82 1.39 7.17s6.25 2.65 6.25 2.65l2.9 5.25a3.12 3.12 0 0 0 -1.74-.13c-.65.26-1 .52-1.82 3.22s-2 13-1.74 15.16 0 3.17 1.91 4.86 6.73 3 11 3.43a42.13 42.13 0 0 0 15-1.47c5.25-1.52 7-3.31 7.51-4.09s.83-4.12.35-8.42-1.65-9.6-3-11.9-3.17-1.83-3.17-1.83a33.33 33.33 0 0 1 4.17-6.43c2.13-2.3 6.26-3.21 8.78-6.47s2.68-8.3-1.32-10.86zm-12.64 15.07a12.48 12.48 0 0 0 -.91-6.38l1.21-.57s0 2.91.18 5.13.22 2.65-1 6.34c-.63 1.91-1.19 3.52-1.62 4.68h-1.31l.63-5a6.76 6.76 0 0 0 2.82-4.2zm-7.17 4.87c0 .1-.14 2.48-.29 4.38h-.93c.13-2.17.32-5.17.4-5.23s.87.68.82.85zm-4.9-14.55a4.87 4.87 0 0 1 .6-.65 7.71 7.71 0 0 1 1.39 2.12 5.28 5.28 0 0 1 0 1.61 10.41 10.41 0 0 0 -2.26-2.65s-.13.05.27-.43zm-5.52 12.29s1.17.87 2 1.43a4 4 0 0 0 1.26.66s.65 2.69 1.07 4.71l-2.66.13c-.89-2.52-2.28-6.52-2.19-6.58zm-6.25.22.08-.7a14.89 14.89 0 0 0 1.65.74l.87.3 3.1 6.5-1.39.09z" fill="#604f58"/><path d="m38 56.66c-.09-.35.17-1 .47-1a19.17 19.17 0 0 1 3.39 2.34c.46-.16.89-.33 1.28-.49-1-.78-3.34-2.59-3.37-2.69s.35-.91.74-.91a21.25 21.25 0 0 1 4 2.94c.35-.17.63-.33.86-.47a43.3 43.3 0 0 1 -3.6-2.69c0-.22.44-.78.65-.74a31.65 31.65 0 0 1 3.77 2.48 9.72 9.72 0 0 0 .18-1.22c-1.12-.63-3.38-1.92-3.51-2.08s.08-.61.48-.66a15.7 15.7 0 0 1 3.1 1.61c0-.4 0-.85 0-1.35a23.2 23.2 0 0 1 -2.67-1.73c-.09-.22.08-.78.39-.78a11.7 11.7 0 0 1 2.3 1.2c0-.52 0-1.07-.09-1.68a26.1 26.1 0 0 1 -2.3-1.26c-.22-.22-.3-.91 0-.91a10.53 10.53 0 0 1 2.14.83 49.64 49.64 0 0 0 -2-10c-.22-.14-.56-.05-1.48.3s-3.73 1.24-9.73 1.58-6.73.31-10.59-.21-4.22-1.63-4.78-1.7c-.35 0-.87 1-1.3 4a92.85 92.85 0 0 0 -1.18 11.3c.09 2.39.13 4.08 2 4.86a35.82 35.82 0 0 0 15.85 2.21 34.17 34.17 0 0 0 7.38-1.3 12.8 12.8 0 0 1 -2.38-1.78z" fill="#f6c687"/><path d="m41.46 5.58c-3.08-.78-6.25 1.82-7 3.95s-.57 5.86-.57 6.12a12.89 12.89 0 0 0 1.22 2 5.57 5.57 0 0 1 2.08-.26 3.5 3.5 0 0 1 2.7 1.26 6.36 6.36 0 0 0 1-.78c.83-.74 3.56-4 3.56-4a13 13 0 0 0 .14-1.87c.09-1.34-.04-5.64-3.13-6.42zm-1.69 11.81c-.3-.09-1.43-1.17-1.35-1.34 0 0 .44-.87.74-.74a3.29 3.29 0 0 1 1.09 1.43c-.05.26-.18.74-.48.65zm1.35-1c-.31 0-1.39-1.56-1.39-1.91s.17-.31.47-.35 1.48 1.3 1.48 1.56-.26.66-.56.66zm1.88-1.73c-.13.26-.3.65-.56.65s-1.13-1.26-1.13-1.7c0-.15.35-.52.65-.43s1.16 1.21 1.04 1.48z" fill="#ddeff2"/><path d="m20.22 36.72s-4.08-7.43-4.38-7.47-3.78-.22-6-2.48-2.78-5.3-.47-6.77a4.43 4.43 0 0 1 6.42 2.26 20.76 20.76 0 0 1 .83 6.74s5.65 7.9 5.17 8a4.85 4.85 0 0 1 -1.57-.28z" fill="#fcdfc8"/><path d="m24.92 37-4.39-9.25s-1.09-.3-1.65-.52l-1.09-.43a9.38 9.38 0 0 0 -.3-3 8.48 8.48 0 0 0 -3.49-4.71c-2-1.31-2.91-1.18-2.91-1.18a10.11 10.11 0 0 1 -.78-4.82 5.41 5.41 0 0 1 3.49-4.69 5.53 5.53 0 0 1 2.6.17 2.51 2.51 0 0 0 -3 2c-.61 2.6.35 5.9 1.39 7.9a12.65 12.65 0 0 0 3.82 4.65 8.49 8.49 0 0 0 2.78.87 7.42 7.42 0 0 0 1 2.26 6.51 6.51 0 0 1 .87 1.43s-1 .56-.87.78 2.48 7 2.74 7.73.09.81-.21.81z" fill="#ddeff2"/><path d="m29.09 37-1.26-7a1.36 1.36 0 0 1 .47-.43 4.07 4.07 0 0 0 .57-.44s.87 7.82.74 7.91-.52-.04-.52-.04z" fill="#f39a9b"/><path d="m31.26 37.07s-.09-8.86.08-9.08a7.88 7.88 0 0 1 .79-.7 7.43 7.43 0 0 1 .6 1.66c0 .26-.86 1.47-.86 1.65s0 6.55-.13 6.6-.48-.13-.48-.13z" fill="#83a7d8"/><path d="m34.47 37.11.39-7.34a8.08 8.08 0 0 1 -2.34-3.95c-.57-2.43.39-5.39 1.78-6.26s1.7-.56 1.7-.56a9.51 9.51 0 0 0 -2 6.13c.22 3.51 1.39 4 2.43 4.17l1.05.13s-.87 7.29-1.05 7.38a10.44 10.44 0 0 1 -1.96.3z" fill="#dfebc5"/><path d="m37.51 19c.85-.2 2.48 1.61 2.17 5.26s-2.12 4-3.17 4-1.51-2.26-1.34-4.53 1.08-4.38 2.34-4.73z" fill="#dfebc5"/><path d="m25.35 17.7c.87-.19 3.65 1.08 3.61 5.9s-1.13 5.69-2.83 4.69a6.41 6.41 0 0 1 -3.21-5.29c-.31-2.79.61-4.91 2.43-5.3z" fill="#f39a9b"/><path d="m27.65 16.91s.61-.08 1.61 1a9.68 9.68 0 0 1 2.3 6.34 7 7 0 0 1 -1.82 4.69 1.47 1.47 0 0 1 -.13-1.52 6.81 6.81 0 0 0 .6-4.78 13.08 13.08 0 0 0 -2.56-5.73z" fill="#f39a9b"/><path d="m21.18 23s-2.69.05-5-3.9a12.42 12.42 0 0 1 -1.61-8.69 2 2 0 0 1 2-1 4.64 4.64 0 0 1 1.83 1 6.15 6.15 0 0 0 1.34 4.69 21.65 21.65 0 0 0 2.53 2.9 7 7 0 0 0 -1.09 5z" fill="#ddeff2"/><path d="m19.1 41.63c.21-.24 1.69.3 1.69.43s-1 3.56-1.43 5.78-.35 5.65-.7 5.91-.91-.13-1.17-.31 0-3.73.61-7 .65-4.44 1-4.81z" fill="#604f58"/><path d="m32.08 19.52a8 8 0 0 0 .18-1.74 7.63 7.63 0 0 1 0-1.39s.78.65.83.91a6 6 0 0 1 -.44 2.35c-.22.13-.57-.13-.57-.13z" fill="#83a7d8"/><path d="m31.91 20.43c.17.05.48.05.48.18s0 1-.13 1a1.28 1.28 0 0 1 -.44-.13z" fill="#83a7d8"/><g fill="#604f58"><path d="m9.5 23.43a2 2 0 0 1 1.65-2.43.77.77 0 0 1 .65 1.13c-.13.3-1.13.26-.91 1.43s1 1.52.95 1.78.05.48-.26.48a2.82 2.82 0 0 1 -2.08-2.39z"/><path d="m15.62 12.79c.07-.24.7-.26.87 0a10.4 10.4 0 0 1 0 3c-.13.09-.78.31-.91-.09a13.58 13.58 0 0 1 .04-2.91z"/><path d="m17.18 14.31s.57 0 .7.26a20 20 0 0 1 -.13 3.65c-.09.17-.83.17-.87 0a19.85 19.85 0 0 1 .3-3.91z"/><path d="m18.05 19.26s.09-3.35.35-3.43a.72.72 0 0 1 .74.35c0 .17.13 3.34-.13 3.43a1.24 1.24 0 0 1 -.96-.35z"/><path d="m25.05 23.34a2.26 2.26 0 0 1 -.7-1.87c0-1.3.87-1.95 1.39-1.91s.61.74.48 1-.57.48-.7.95.35 1.31.35 1.44a.77.77 0 0 1 -.82.39z"/></g><path d="m26.52 11.4s.22-.65.39-.65a14.55 14.55 0 0 1 2.42 2c0-.28.05-.6.07-.94a15.51 15.51 0 0 1 -2.1-1.86s.22-.48.48-.48a6.91 6.91 0 0 1 1.65 1.38 15.21 15.21 0 0 0 -.43-4.19 5.09 5.09 0 0 0 -6.12-3.38c-2.65.86-4.26 3.38-3.78 7.47a10.63 10.63 0 0 0 3.65 6.55s.39-.91 2.43-1.52a5.51 5.51 0 0 1 1.08-.21 26.2 26.2 0 0 1 -2-2s.44-.69.74-.61 3.26 2.52 3.22 2.83l.3-.5c-.7-.61-2.81-2.47-3-2.76 0 0 .31-.52.61-.43a23.13 23.13 0 0 1 2.79 2.4 4.31 4.31 0 0 0 .25-.71v-.15a30 30 0 0 1 -2.65-2.24z" fill="#c5dda3"/><path d="m31.17 14.39c0-.21.13-.73.43-.69a7 7 0 0 1 1.5.84c0-.3 0-.63-.05-1a14.48 14.48 0 0 1 -2-1.63c-.05-.22 0-1 .21-1a10.31 10.31 0 0 1 1.74 1.36c0-.32 0-.66 0-1a4.17 4.17 0 0 1 .08-.63c-.51-.35-1.73-1.22-1.73-1.5s.09-.78.35-.74a9.53 9.53 0 0 1 1.63 1.27 8 8 0 0 1 .39-.89 11.1 11.1 0 0 1 -1.33-1.47c0-.21.09-.65.44-.69s1.05.79 1.44 1.27c.18-.26.36-.49.53-.69-.45-.38-1.4-1.21-1.36-1.41s.13-.65.52-.52a6.84 6.84 0 0 1 1.38 1.38c.16-.16.27-.25.27-.25s-.31-2.86-2.61-3.21-2.82 3.08-2.82 3.08l.12 2.13c.13 2.13 0 5.91 0 5.91a10.16 10.16 0 0 0 3 2s0-.22-.08-.58a9 9 0 0 1 -2.05-1.34z" fill="#83a7d8"/><path d="m36.6 11.27a4.4 4.4 0 0 1 1.09-2.91c1.21-1.52 2-1.61 2.34-1.48a.63.63 0 0 1 .39.83c-.13.34-1.34.82-1.87 1.73a6.31 6.31 0 0 0 -.65 2.09s-.9.26-1.3-.26z" fill="#604f58"/><path d="m52.28 19.13c0-.17.61-.52.78-.48a12.11 12.11 0 0 1 1.4 1.79 5.84 5.84 0 0 0 1.54-4.22c0-2.48-1.47-5.52-5-5.17s-6.51 4.26-7.38 7 0 7.86-.65 9.78-3.65 8.77-3.65 8.77a1.93 1.93 0 0 0 1.26-.22s.39-1.17 1.48-3.6a18.94 18.94 0 0 1 3.73-5.61 13 13 0 0 1 2.12-1.52 16.53 16.53 0 0 1 -1.86-2 .66.66 0 0 1 .65-.7 7.54 7.54 0 0 1 2.11 2.12l.6-.37a15 15 0 0 1 -1.84-2.14c0-.26.44-.69.7-.65a12.59 12.59 0 0 1 2 2.22l.94-.64a24.33 24.33 0 0 1 -2.09-2.19c0-.22.26-.69.56-.65a12.68 12.68 0 0 1 2.32 2.22l.63-.54a17.23 17.23 0 0 1 -2.17-2.33 1 1 0 0 1 .78-.52 16.48 16.48 0 0 1 2.08 2.22c.22-.21.43-.42.61-.63a16.64 16.64 0 0 1 -1.65-1.94z" fill="#fcdfc8"/></svg>