<svg height="64" viewBox="0 0 64 64" width="64" xmlns="http://www.w3.org/2000/svg"><path d="m32.3 64c-2.65 0-3.3-.46-3.58-.65a7.89 7.89 0 0 1 -3.22-6.07c-.14-1.88-.54-22.38-.18-23.91a8.59 8.59 0 0 1 2.51-3.65 14.09 14.09 0 0 0 -2.5-6.48c-3-4.18-4.15-6.31-4.75-10.7-.64-4.7 1.33-7.59 3.56-10a9.15 9.15 0 0 1 6.79-2.54 13.8 13.8 0 0 1 6.42 1.59c4.4 2.32 6.25 5.54 6.19 10.75 0 4.65-2.77 9.5-4.21 11.41a10.26 10.26 0 0 1 -1.45 1.52 2.88 2.88 0 0 0 -1.25 2.09 17.5 17.5 0 0 0 -.21 2.85 6.76 6.76 0 0 1 2.58 3.95c.3 2 .38 22 .09 24.25-.36 2.83-2.25 5.06-4.59 5.44a13.85 13.85 0 0 1 -2.2.15z" fill="#fff"/><path d="m29.83 30.62a15.6 15.6 0 0 0 -2.93-8.52c-3-4.09-3.86-5.91-4.4-9.82s1-6.22 3.07-8.44 6.93-2.62 10.88-.53 5.2 4.84 5.15 9-2.6 8.69-3.82 10.27-2.66 1.82-3.06 4.49a15.84 15.84 0 0 0 -.18 4.18s2.26 1.42 2.53 3.19.36 21.63.09 23.72a4.15 4.15 0 0 1 -3 3.78 11 11 0 0 1 -4.35-.18 5.82 5.82 0 0 1 -2.4-4.62c-.22-3.06-.44-22.39-.22-23.32a7.3 7.3 0 0 1 2.64-3.2z" fill="#604f58"/><path d="m31.56 57.32c0-.45 0-1 .36-.94a15.44 15.44 0 0 1 2.79 2.28 9.29 9.29 0 0 0 .19-1.22 18 18 0 0 1 -3-2.57c0-.4.23-.75.54-.71a14.94 14.94 0 0 1 2.56 2.05c0-.45 0-.94 0-1.44a13.14 13.14 0 0 1 -2.58-2.07c-.13-.45 0-.8.36-.76a9.19 9.19 0 0 1 2.22 1.77v-.71c0-.29 0-.67 0-1.13-.39-.2-1.52-.79-1.59-1.09s0-.62.27-.66a3.34 3.34 0 0 1 1.32.57c0-5 .08-15-.7-16.43-.94-1.69-2.83-1.3-3.51-1.2a2.41 2.41 0 0 0 -1.16 1.56c-.17.75 0 17.1 0 19.89s.31 4.36.89 4.94 2.51.46 3.46.15c-.7-.6-2.38-1.93-2.42-2.28z" fill="#ef7d7b"/><path d="m31.47 30.58s-.13-4.13-1.19-5.64-4-5.2-5.07-7.6-2.31-5.9-1-9 4.18-5.2 9.33-4.71 6.58 4.71 6.62 7.64a15.29 15.29 0 0 1 -3.86 10.75c-3.25 3.42-3.56 4.62-3.47 5.69a10.56 10.56 0 0 1 0 3 1.2 1.2 0 0 1 -1.36-.13z" fill="#f6c687"/><g fill="#604f58"><path d="m26.85 11.84a5.85 5.85 0 0 1 1.15-4.58 3.29 3.29 0 0 1 3.79-1.26.57.57 0 0 1 .13 1c-.36.35-2.4.22-3.11 2.22a23.48 23.48 0 0 0 -.67 3.06c-.22.31-1.2 0-1.29-.44z"/><path d="m31.16 19c-.16-.32.14-1 .63-.85a11.54 11.54 0 0 1 2.57 2.76c0 .26 0 .8-.49.53a14.81 14.81 0 0 1 -2.71-2.44z"/><path d="m32.5 17.3c-.23-.23.57-1 .88-.85s2.67 2.18 2.54 2.54-.14.62-.4.53a34.88 34.88 0 0 1 -3.02-2.22z"/><path d="m34.05 15.12c-.08-.16.67-.89.93-.8s1.82 1.65 1.78 2 .09.53-.22.49a10.57 10.57 0 0 1 -2.49-1.69z"/></g></svg>