<svg height="64" viewBox="0 0 64 64" width="64" xmlns="http://www.w3.org/2000/svg"><path d="m30.91 58a44.46 44.46 0 0 1 -9.06-.79c-4.56-1-12-4-13.59-6.66-1-1.65-2.35-13.39-3.39-23.36-2.87-1.78-2.97-2.19-3.16-2.76 0-.07-1.28-9.64-.38-11.17.79-1.36 5.67-4.06 13.67-5.53a117.75 117.75 0 0 1 20.21-1.73c1.25 0 2.44 0 3.55.06 5.73.18 12.19.55 16.65 2s7.31 4.59 7.52 6.26c0 .07.3 7.11-.45 8.52a7.24 7.24 0 0 1 -3.28 2.76c-2.2 22.8-2.57 23.62-2.69 23.94-.78 2-5.36 5.09-11.69 6.83a55.78 55.78 0 0 1 -13.91 1.63z" fill="#fff"/><path d="m6.76 26a22.12 22.12 0 0 1 -3.15-2.2c-.12-.36-.83-9.06-.55-9.53s4.13-3.07 12.28-4.57a116.38 116.38 0 0 1 23.36-1.61c6.3.19 12.17.63 16.1 1.89s6.07 4 6.15 4.6.08 6.74-.24 7.33a5.4 5.4 0 0 1 -2.36 1.89l-1 .43s-2.35 23.67-2.7 24.58-3.78 3.82-10.36 5.63-16.82 1.93-22 .79-11.29-4.02-12.29-5.71-3.24-23.52-3.24-23.52z" fill="#604f58"/><path d="m43.86 48.53c-.07-.27.39-1 .86-.94a16.93 16.93 0 0 1 3.74 2.79c.35-.18.69-.36 1-.55a23.64 23.64 0 0 1 -3.16-2.83c-.06-.28.79-.83 1.1-.79a21.83 21.83 0 0 1 3.49 2.67c.32-.23.59-.43.82-.62a32.83 32.83 0 0 1 -4-3.27c0-.12.59-.83 1-.79a28.44 28.44 0 0 1 3.95 2.8c0-.28.1-.67.16-1.16a49.59 49.59 0 0 1 -3.73-3.27c-.09-.18.36-1.15.67-1.15a22.49 22.49 0 0 1 3.24 2.88c.08-.59.16-1.24.24-1.94a17.48 17.48 0 0 1 -3.11-2.3c-.07-.18 0-1.3.39-1.26a14.63 14.63 0 0 1 2.91 2c.06-.47.12-1 .18-1.45a19.38 19.38 0 0 1 -2.93-2.45c0-.12.16-.71.55-.74a10.09 10.09 0 0 1 2.55 1.75c.06-.48.11-1 .17-1.44a13.37 13.37 0 0 1 -2.29-1.89c0-.11 0-1 .48-.94a7.57 7.57 0 0 1 2 1.19c.07-.54.13-1.07.19-1.59a7.12 7.12 0 0 1 -2.11-1.69c0-.2.31-.79.59-.79a6.16 6.16 0 0 1 1.68 1.07c.41-3.54.72-6.31.72-6.43 0-.31-2.21.59-5.44 1.54s-11.26 2.21-21.54 2.32a64.42 64.42 0 0 1 -18.63-2.6c-.15.44 2.33 21.59 2.52 21.94s2.29 1.62 6.42 3.15 12.64 2.4 20.8 1.42a26.91 26.91 0 0 0 7.5-2 21.6 21.6 0 0 1 -2.98-2.64z" fill="#f39a9b"/><path d="m5.89 22.58c-.34-.34-.47-6.7-.31-7.13s4.76-2.84 15.36-4.06 23.63-.82 29.34.2 8.27 3.47 8.38 3.82a33.82 33.82 0 0 1 -.11 5.59c-.2.44-7.09 4.37-17.06 5.12s-19.1.87-24.81-.23-10.28-2.8-10.79-3.31z" fill="#adceea"/><g fill="#604f58"><path d="m7.55 20.92c.42-.08 6.14 1.58 11.93 2.25s12.8.67 12.88.87a4.56 4.56 0 0 1 .08.94 116.47 116.47 0 0 1 -13.91-.83c-5.35-.82-10.79-1.89-11-2.16s-.38-.99.02-1.07z"/><path d="m38.15 23.05c.28-.21 4.76.08 11.42-1.34s7.16-1.89 7.36-1.81.43.39.28.63-3.59 2-10.05 2.72-8.38.9-8.78.82-.38-.9-.23-1.02z"/><path d="m7.55 17.73c.07-.18-.28-1.81.19-1.81s.75.12.75.36a8.77 8.77 0 0 1 0 1.81c-.16.04-1.02-.16-.94-.36z"/><path d="m10.77 16.83c.15-.19.75-.08.87.12a4.71 4.71 0 0 1 0 2.12c-.2.08-.63.12-.79-.11a5.11 5.11 0 0 1 -.08-2.13z"/><path d="m14.52 17.69c.14-.18.74-.07.86.12a4.75 4.75 0 0 1 0 2.13c-.19.08-.63.12-.78-.12a4.8 4.8 0 0 1 -.08-2.13z"/><path d="m18.3 18.05c.14-.19.75-.08.86.12a4.7 4.7 0 0 1 0 2.12c-.19.08-.63.12-.78-.11a4.8 4.8 0 0 1 -.08-2.13z"/><path d="m23.22 18.48c.15-.18.75-.08.87.12a5.05 5.05 0 0 1 0 2.13c-.2.08-.63.12-.79-.12a4.8 4.8 0 0 1 -.08-2.13z"/><path d="m27 18.48c.15-.18.75-.08.87.12a4.9 4.9 0 0 1 0 2.13c-.2.08-.63.12-.79-.12a4.8 4.8 0 0 1 -.08-2.13z"/><path d="m30.35 18.56c.15-.18.75-.08.86.12a4.9 4.9 0 0 1 0 2.13c-.2.07-.63.11-.79-.12a4.8 4.8 0 0 1 -.07-2.13z"/><path d="m34.05 18.52c.15-.18.75-.08.87.12a5.05 5.05 0 0 1 0 2.13c-.2.08-.63.11-.79-.12a4.8 4.8 0 0 1 -.08-2.13z"/><path d="m37.79 18.17c.15-.19.75-.08.87.12a4.71 4.71 0 0 1 0 2.12c-.2.08-.63.12-.79-.12a4.75 4.75 0 0 1 -.08-2.12z"/><path d="m41.73 17.85c.15-.18.75-.08.87.12a5.05 5.05 0 0 1 0 2.13c-.2.08-.63.12-.79-.12a4.8 4.8 0 0 1 -.08-2.13z"/><path d="m44.88 17.1a.9.9 0 0 1 .71-.07c.28.07.55.7.71 1.37s.35 1 .12 1.07-.59.23-.75.12-.24-1.11-.44-1.5a7.24 7.24 0 0 1 -.35-.99z"/><path d="m48.11 16.28s1.18-.36 1.54-.12a3.31 3.31 0 0 1 .78 2.13c-.15.39-.86.59-1 .43s0-.95-.43-1.54-1-.59-.89-.9z"/><path d="m52.36 16s.91-.39 1.15-.27a3.77 3.77 0 0 1 .66 1.93c-.07.35-.78.63-.9.43a4.48 4.48 0 0 0 -.91-2.09z"/><path d="m55.2 15.61c-.2-.2.83-.24 1 0s.48 1.49.28 1.69-.63.51-.87.16-.02-1.46-.41-1.85z"/><path d="m12 30.81c.15-.28.32-1.18 1.07-1.46s2.28 0 2.44.4a.63.63 0 0 1 -.08.67 1.92 1.92 0 0 0 -1.61.19c-.59.51-.63 1.07-.87 1s-1.11-.41-.95-.8z"/><path d="m17.71 30.3a2.76 2.76 0 0 1 1.89-.12c.74.24 1.45 1.06 1.22 1.26s-.51.39-.71.35a9.8 9.8 0 0 0 -1.5-.43c-.35 0-.67.2-.83-.12s-.31-.75-.07-.94z"/><path d="m21.64 32.62a1.17 1.17 0 0 1 1.42 0c.28.24-.08 1.18-.94 1.22s-.87-.84-.48-1.22z"/><path d="m24.87 32.38a2.8 2.8 0 0 1 2.56-1.06c1.46.12 2.29 1 2.05 1.34s-.16.51-.67.35-1.26-.9-2-.51a8.19 8.19 0 0 1 -1.34.79.65.65 0 0 1 -.6-.91z"/><path d="m32.16 31.75a3 3 0 0 1 1.73-.39c1 0 1.38.55 1.42.91s.16.55-.16.59-1.06-.28-1.61-.16-.95.31-1.3.2-.32-.9-.08-1.15z"/><path d="m38.82 35.18c.2-.49 1.14-1.85 2.32-1.77s1.65.71 1.46 1.1-1.11.12-1.58.32a1.27 1.27 0 0 0 -.87.86c-.15.48-.31.71-.59.71s-1.02-.55-.74-1.22z"/><path d="m44.49 30.46a2.74 2.74 0 0 1 1.85-.12c1 .23 1.38 1.61.94 1.85s-.43.31-.67.16-.23-.79-.94-.79-.87.23-1.22-.12-.36-.83.04-.98z"/><path d="m49.09 30.57c.34-.45 1.34.12 1.66.48s.55 1.49.31 1.73-.31.47-.59.2-.15-.91-.59-1.11-.59 0-.82-.31a.78.78 0 0 1 .03-.99z"/><path d="m18.38 36.36a1.63 1.63 0 0 1 1.62-.51c.95.24 1.42.67 1.06.91s-1.06-.08-1.41.08-.36.43-.67.35-.72-.63-.6-.83z"/><path d="m14.75 34a1.07 1.07 0 0 1 .95-.08c.39.24 1.22 10 .82 10.44a1 1 0 0 1 -1.22.08c-.23-.2-.59-10.05-.55-10.44z"/><path d="m15.26 46.68a2.33 2.33 0 0 1 2.37-.87c1.49.32 1.85 1.78 1.61 2.09s-.39.24-.59.12-.55-.91-1.3-.91-.55.48-1.06.67-1.38-.59-1.03-1.1z"/><path d="m18.53 42.47a2 2 0 0 1 2.25-.47c1.3.44 1.46 1.54 1.18 1.78a1.39 1.39 0 0 1 -.87.15s-.08-.74-.75-.7-1 .51-1.33.47-.83-.92-.48-1.23z"/><path d="m25.78 44.12a2.44 2.44 0 0 1 1.34-2.8 2.2 2.2 0 0 1 2.87.56c.08.39.2.43-.19.55s-1.34-.2-2.17.39-.47 1.42-.71 1.66-.92-.04-1.14-.36z"/><path d="m22.43 48.18a2.46 2.46 0 0 1 3-.63c1.37.67 1.49 2.75 1.22 2.79a.8.8 0 0 1 -.71-.23c-.2-.2-.24-1.38-1.22-1.5s-1.26.59-1.78.55-.67-.51-.51-.98z"/><path d="m24 35.81a2.55 2.55 0 0 1 1.81-.71c1 0 1.61.79 1.5 1.1s-.28.52-.56.44-.7-.59-1.1-.4-.47.48-.86.44-1.06-.44-.79-.87z"/><path d="m29.48 35.61a2.46 2.46 0 0 1 1.81 0c.55.28.83 1 .55 1.26s-.35.36-.59.2-.35-.51-.82-.51-.91.08-.95 0-.31-.71 0-.95z"/><path d="m34 38.1a3.14 3.14 0 0 1 2.1-.1c.86.39 1.1 3.15.67 3.19a.93.93 0 0 1 -.87-.48c0-.15.28-1.49-.63-1.61s-1.38.08-1.46 0-.47-.89.19-1z"/><path d="m33.77 42.78a1.68 1.68 0 0 1 1.89.32 2.09 2.09 0 0 1 .6 1.81.47.47 0 0 1 -.67.16c-.32-.2-.32-.67-1-.91s-.83-.24-.94-.39-.11-.83.12-.99z"/><path d="m31.06 46.25a2.29 2.29 0 0 1 2.48-.08c.83.71.79 2.83.43 2.91s-.71-.27-.83-.59-.07-.94-.59-1.14-.94.12-1.3 0-.55-.87-.19-1.1z"/><path d="m30.86 50.38a1.26 1.26 0 0 1 1.58.59c.15.4-.67 1-1.42.63s-.71-.94-.16-1.22z"/><path d="m36.93 47.9a1.15 1.15 0 0 1 1-1.49c1.06-.24 2.17.15 2.21.63s0 .51-.4.63-.79-.28-1.3 0-.75.55-1 .55a.66.66 0 0 1 -.51-.32z"/><path d="m36.77 51.45a1.66 1.66 0 0 1 1.23-.91c.79-.08 1.26.16 1.06.47s-.86.79-1.06 1.07-.55.51-.87.35-.72-.27-.36-.98z"/><path d="m42.2 50.23a.69.69 0 0 1 1 .27c.15.36-.36.91-.83.79s-.8-.67-.17-1.06z"/><path d="m42.36 45.66c.07-.45 1.1-1.34 1.61-1.11s.91.63.44 1-.67.71-1.18.91a.66.66 0 0 1 -.87-.8z"/><path d="m41.18 39.36c.08-.43-.08-1.93 1.73-2s2.64 1.26 2.36 1.81-.31.75-.67.63-.47-1.06-1.26-1-.67 1-1 1.15-1.24-.16-1.16-.59z"/><path d="m46.85 34.2a1.94 1.94 0 0 1 2.17.74c.51.91.74 1.46.23 1.66s-.83.27-1 0-.12-.87-.63-1.1-.79-.12-.91-.36a.9.9 0 0 1 .14-.94z"/></g></svg>