<svg height="64" viewBox="0 0 64 64" width="64" xmlns="http://www.w3.org/2000/svg"><path d="m32 58h-1.4c-18.73-.46-22.94-7.72-23-7.8-.24-.42-.62-1.12-2.83-22.79-1.58-.56-3-1.49-3.22-3.07s-1.06-10.34-.15-11.65 7.82-4.42 17.83-5.77a112 112 0 0 1 15.05-.92 126 126 0 0 1 13.12.66c6.57.72 13.93 5.3 14.7 6 1.69 1.55.52 10 .38 10.32s-.41 1-3.29 2.82c-2.61 23.32-2.82 23.84-2.95 24.2-.65 1.59-8.71 8-24.24 8z" fill="#fff"/><path d="m3.55 24.13c0-.2-.79-9.89-.51-10.29s5.96-3.52 16.46-4.94a123 123 0 0 1 27.69-.28c6.17.67 13.09 5.06 13.56 5.5s.08 7.59-.11 8.07-3.33 2.41-3.33 2.41-2.69 24-2.92 24.61-7.76 7.2-23.74 6.8-20.85-6.01-21.28-6.76-2.73-23.38-2.73-23.38-2.97-.67-3.09-1.74z" fill="#604f58"/><path d="m43.59 48.61c0-.23.47-1.06.83-1.06a20.8 20.8 0 0 1 3.92 3c.53-.27 1-.53 1.42-.78a39.5 39.5 0 0 1 -3.37-2.52c-.11-.28.28-.91.56-.87a30.72 30.72 0 0 1 4.05 2.62c.41-.3.73-.56 1-.78-1.06-.67-4.06-2.63-4-3s.43-1.07.63-1a43 43 0 0 1 4 3c.06-.35.15-.94.25-1.69-1.06-.8-3.77-2.68-3.8-3s.27-1.15.63-1a31.53 31.53 0 0 1 3.29 2.65c.07-.55.15-1.15.23-1.79a21.27 21.27 0 0 1 -3.16-2.6c0-.31-.08-.87.32-.87a12.55 12.55 0 0 1 3 2.23c.07-.54.14-1.1.21-1.67a29 29 0 0 1 -3-2.46c0-.19.12-.91.43-.91a13.25 13.25 0 0 1 2.72 2c.08-.59.15-1.19.22-1.79-.61-.32-2.3-1.25-2.3-1.54s-.08-1 .23-1a9 9 0 0 1 2.26 1.22c.06-.51.13-1 .19-1.53a15.68 15.68 0 0 1 -2-1.79c0-.23.08-.91.55-.91a4 4 0 0 1 1.64 1c.43-3.58.75-6.36.74-6.44a75.29 75.29 0 0 1 -23.5 4c-14.78.22-22.46-2.74-22.65-2.59s2.3 20.69 2.53 21.52 5.66 5.22 19.58 5.65a36.51 36.51 0 0 0 15.76-2.69 33.59 33.59 0 0 1 -3.41-2.61z" fill="#ddeff2"/><path d="m5 15.46c.17-.21 4.78-2.61 18-4.27s23.87-.19 28.93 1.23 6.89 2.65 6.93 3a42.07 42.07 0 0 1 -.48 6c-.24.27-9.37 5.18-23.93 5.54s-26.11-2.77-27-3.21a5.35 5.35 0 0 1 -1.7-1c-.1-.2-.89-7.09-.75-7.29z" fill="#adceea"/><g fill="#604f58"><path d="m14.55 33.86c.14-.33 1.39-.36 1.46 0s.6 10.72.4 11a1.34 1.34 0 0 1 -1.19.15c-.12-.19-.79-10.87-.67-11.15z"/><path d="m19.69 46.68c.17-.17 3.25-1.35 8.19-1.82s8.19-.16 8.35 0-.08.87-.44 1a38.86 38.86 0 0 0 -8.58.55 29.63 29.63 0 0 0 -7.16 1.78c-.32-.01-.67-1.19-.36-1.51z"/><path d="m7 17.84s0-1.94.31-2.1.75-.55.83 0 .28 2.26 0 2.41-1.14-.07-1.14-.31z"/><path d="m10.28 18.79c0-.12-.08-2.06.16-2.14s.87-.12 1 .24a6 6 0 0 1 .12 2.49c-.17.08-1.28-.08-1.28-.59z"/><path d="m14.12 19.93c0-.15-.36-2.41-.08-2.65s1.22-.08 1.26.32a7.43 7.43 0 0 1 -.12 2.53c-.18.2-1.06-.2-1.06-.2z"/><path d="m18 20.37c0-.12-.2-2.26 0-2.41s1-.16 1.07.12.08 2.37-.24 2.53-.83-.24-.83-.24z"/><path d="m22.86 20.41c-.16 0-.12-1.94.12-2s1-.08 1.06.16.2 1.78-.11 2-.93-.12-1.07-.16z"/><path d="m26.73 20.84a10.32 10.32 0 0 1 0-2.41.63.63 0 0 1 .8.2 5.66 5.66 0 0 1 0 2.25 1.41 1.41 0 0 1 -.8-.04z"/><path d="m30.1 20.73a10.46 10.46 0 0 1 0-2.26c.16-.16 1.18-.28 1.22.12a7.71 7.71 0 0 1 0 2.18 2.87 2.87 0 0 1 -1.22-.04z"/><path d="m33.62 20.41a7.79 7.79 0 0 1 .08-2.26c.19-.11 1.14 0 1.18.32s.12 2.18-.12 2.3-1.1-.04-1.14-.36z"/><path d="m37.45 20.25c0-.12-.35-2.21 0-2.41s1-.12 1.1.24.24 2.13-.08 2.29-1.02-.12-1.02-.12z"/><path d="m41.49 19.7a11.22 11.22 0 0 1 -.24-2.1c.12-.12.79-.36 1.07-.16a4.08 4.08 0 0 1 0 2.49c-.2.16-.83-.23-.83-.23z"/><path d="m44.93 19.3a12.2 12.2 0 0 1 0-2.1c.08-.15 1.11-.55 1.27-.15a6 6 0 0 1 0 2.61c-.2.16-1.2.04-1.27-.36z"/><path d="m48.41 16.14s1.15-.12 1.39.16a4.1 4.1 0 0 1 .47 2.21c-.2.28-.59.47-.83.28s-.87-2.42-1.03-2.65z"/><path d="m52.61 16.1s.83-.4 1.06-.28.83 1.74.52 2.14-.67.51-.91.31a7.44 7.44 0 0 1 -.67-2.17z"/><path d="m55.18 15.5s1-.31 1.1 0 .64 1.94.24 2.1-.87.16-.91 0-.43-2.1-.43-2.1z"/><path d="m7.59 20.77c.14 0 1.5 1.38 11.11 2.29s13.22.71 13.3.91.11.87-.08 1-7.52-.16-13.53-.64-10.49-1.78-10.88-2.1-.2-1.5.08-1.46z"/><path d="m38.17 23.14c.18-.08 7.24-.52 11.27-1.27a55.89 55.89 0 0 0 7-2 .76.76 0 0 1 .48.76c-.08.19-2.14 1.58-8 2.57s-10.21 1.3-10.61 1.14-.31-1.12-.14-1.2z"/></g></svg>