<svg height="64" viewBox="0 0 64 64" width="64" xmlns="http://www.w3.org/2000/svg"><path d="m30.73 64c-3.49 0-8.38-.26-11.82-1.53-3.16-1.15-6.13-3.37-6.9-5.17-.43-1-1.55-8.2-2.46-14.45a8 8 0 0 1 -2.47-2.17c-.74-1.24-1.11-7.1.58-8.88s7.07-3 8.45-3.29l1.73-.34-1.84-12.47a4.62 4.62 0 0 1 -2.84-2.65c-.53-1.41-1-7.62.4-9 1.04-1.05 7.9-3.37 16.74-3.83 2.86-.15 5.55-.22 8-.22a77.32 77.32 0 0 1 11.48.73c4.77.72 7.35 3.27 7.66 4.86.05.3.27 6.61-.17 7.65s-2.16 1.76-3.56 2.19c0 .82 0 2-.06 3-.2 11.16-.4 11.94-1 12.73a13.06 13.06 0 0 1 -2.72 2.29v.25c.23 4.57.15 5.24-.25 5.92-.14.24-.48.81-2.09 1.63-.3 5.26-.93 15.1-1.44 16.63-1 2.87-7.37 5.87-12.93 6.06-.83.06-1.67.06-2.49.06z" fill="#fff"/><path d="m11.34 41.66a10.64 10.64 0 0 1 -2.6-2c-.44-.74-.6-5.58.33-6.55s5-2.27 7.4-2.73l3.53-.64-2.28-15.62s-2.15-.12-2.72-1.76-.49-6.55-.05-7 6.45-2.74 15.45-3.2 15-.14 19.09.48 5.93 2.71 6 3.31a54.24 54.24 0 0 1 -.05 6.53 16.19 16.19 0 0 1 -3.59 1.52c-.18 0-.11 15.2-.74 16a16.35 16.35 0 0 1 -3.11 2.42c-.06 0 .37 5.72.07 6.23a8 8 0 0 1 -2.33 1.35s-.88 15.71-1.41 17.29-5.69 4.54-11.15 4.71-10.51-.23-13.61-1.37-5.34-3.1-5.78-4.12-2.45-14.85-2.45-14.85z" fill="#604f58"/><path d="m36.14 57.41c0-.09.6-.81.9-.69a11.85 11.85 0 0 1 1.85 1.85c.39-.17.76-.33 1.09-.5a10.9 10.9 0 0 1 -2.15-1.93c0-.35.53-.74.76-.72a12.89 12.89 0 0 1 2.59 2 9.24 9.24 0 0 0 .76-.54 21.55 21.55 0 0 1 -2.7-2.44c0-.24.51-.77.7-.74a20.9 20.9 0 0 1 2.63 2c0-.34.1-.78.15-1.29-.82-.62-2.71-2-2.67-2.3a.86.86 0 0 1 .53-.74 12.72 12.72 0 0 1 2.28 1.56c0-.5.1-1 .14-1.61a14.57 14.57 0 0 1 -2.6-1.85c-.09-.32.18-.81.35-.83a17.32 17.32 0 0 1 2.36 1.36c0-.43.06-.86.1-1.29a7.37 7.37 0 0 1 -1.75-1.31.69.69 0 0 1 .21-.72c.12-.1 1.1.45 1.62.86.27-3.69.49-7.13.49-7.13a52.73 52.73 0 0 1 -15.78 2.8 62.53 62.53 0 0 1 -14.35-1.21c-.12.11 2.2 13.74 2.41 14.2s5 3.47 12.68 4a22 22 0 0 0 8.93-1.2 14.61 14.61 0 0 1 -1.53-1.59z" fill="#ddeff2"/><path d="m45.74 26.41a.67.67 0 0 1 .63-.6 16.2 16.2 0 0 1 3.12 2.36c0-.31 0-.81.07-1.44a19.41 19.41 0 0 1 -2.78-2.4c0-.31.47-.81.72-.79a11.25 11.25 0 0 1 2.13 1.64c0-.54 0-1.12.07-1.72a19.8 19.8 0 0 1 -2.31-1.61.8.8 0 0 1 .16-.83 6.69 6.69 0 0 1 2.22.9c0-.67 0-1.35.08-2-.5-.2-1.53-.65-1.56-.83a1.5 1.5 0 0 1 .51-.95c.17-.13.76.13 1.11.37.09-2.33.16-4.16.16-4.21a103.06 103.06 0 0 1 -15.83 2.3c-8.33.4-14.24-1.88-14.3-1.67s1.95 14.65 2 14.74.7.83 3 1.62a33.11 33.11 0 0 0 14.16 1.9 20.27 20.27 0 0 0 5.49-1.19c-.4-.4-1.5-1.52-1.46-1.84s.44-.76.72-.69a8.85 8.85 0 0 1 2 2 13.76 13.76 0 0 0 1.4-.77 21.52 21.52 0 0 1 -2.93-2.54c0-.23.3-1 .71-.86a18.05 18.05 0 0 1 3.21 2.7 5.75 5.75 0 0 0 .7-.62c-.84-.72-3.22-2.67-3.2-2.97z" fill="#ddeff2"/><path d="m10.87 39s-.37-4-.25-4.23 5.46-2.27 7.84-2.87 2.83-.67 2.83-.67a17.7 17.7 0 0 0 10.32 3.79c6.68.44 14.67-2 14.67-2s.06 4 0 4.21a38 38 0 0 1 -14.49 3.77c-8.08.47-18.23-.71-20.92-2z" fill="#adceea"/><g fill="#604f58"><path d="m16.56 46.72c.09-.14 1.18-.11 1.3.14s.81 6.27.51 6.32-.49.18-.6-.12-1.3-6.17-1.21-6.34z"/><path d="m23 53a34.43 34.43 0 0 1 4.61-.56 15.12 15.12 0 0 1 4.79.49 1.57 1.57 0 0 1 -.07.88 44 44 0 0 0 -4.54-.23 41.87 41.87 0 0 1 -4.74.23c-.21-.19-.26-.81-.05-.81z"/><path d="m13.39 38c.16-.06.77.26 1.65.44s1 .17 1 .3a.79.79 0 0 1 0 .54 4.87 4.87 0 0 1 -1.35-.1c-.83-.11-1.48-.09-1.48-.37s.07-.81.18-.81z"/><path d="m12.26 36.94s-.11-1.72.14-1.76.6 0 .67.16a6.11 6.11 0 0 1 0 1.6c-.07.06-.81 0-.81 0z"/><path d="m14.57 36.91a5.84 5.84 0 0 1 0-1.73c.14 0 1-.12 1 .18a4.93 4.93 0 0 1 -.12 1.64c-.09.14-.83.12-.88-.09z"/><path d="m17.7 37.7c-.06-.1-.12-1.57.07-1.69a.81.81 0 0 1 .85 0 2.82 2.82 0 0 1 .05 1.72c-.12.13-.86.15-.97-.03z"/><path d="m21.24 38c0-.07-.14-1.5.16-1.57s.63-.07.7.09a3.7 3.7 0 0 1 -.05 1.55c-.16.18-.76.12-.81-.07z"/><path d="m24.62 38.12c0-.07-.14-1.51.16-1.58s.62-.07.69.1a3.54 3.54 0 0 1 0 1.55c-.2.18-.81.11-.85-.07z"/><path d="m29.57 38.12c0-.07-.14-1.51.16-1.58s.63-.07.7.1a3.7 3.7 0 0 1 -.05 1.55c-.16.18-.76.11-.81-.07z"/><path d="m33.36 38.07c0-.07-.14-1.5.17-1.57s.62-.07.69.09a3.4 3.4 0 0 1 0 1.55c-.22.18-.81.11-.86-.07z"/><path d="m37.41 37.38c0-.07-.14-1.51.17-1.58s.62-.07.69.09a3.54 3.54 0 0 1 -.05 1.55c-.16.19-.76.12-.81-.06z"/><path d="m39.94 36.36c0-.07-.14-1.51.16-1.58s.62-.07.69.1a3.54 3.54 0 0 1 0 1.55c-.21.18-.79.11-.85-.07z"/><path d="m22.49 18.75c.11-.3.9-.21 1 0s.88 6.55.71 6.76-.76.41-1 0a50.44 50.44 0 0 1 -.71-6.76z"/><path d="m27.58 27.93a34.73 34.73 0 0 1 6-.87c2.8-.1 5.06.48 5.16.71s.2.67 0 .77-3.43-.17-5.12-.17a50.21 50.21 0 0 0 -5.55.61c-.47.07-.72-.98-.49-1.05z"/></g><path d="m16.75 11.69a27.06 27.06 0 0 1 -.07-4.69 45.24 45.24 0 0 1 11.73-2.62 105.61 105.61 0 0 1 16.59-.38 26.52 26.52 0 0 1 8 2.19c.3.26.23 4.42.07 4.82s-5.28 2.13-10.9 2.84a67.3 67.3 0 0 1 -13.79.51c-4.62-.26-10.26-1.77-11.63-2.67z" fill="#adceea"/><path d="m19.2 8.71c0-.33-.27-1.11.35-1.39s.79-.26 1 0a.51.51 0 0 1 -.13.76 1.87 1.87 0 0 0 -.54.77c-.1.23-.65.06-.68-.14z" fill="#604f58"/><path d="m21.54 9.47c0-.11-.09-1.6.16-1.69s.63-.16.74 0a3.47 3.47 0 0 1 -.21 1.78c-.18.21-.64.03-.69-.09z" fill="#604f58"/><path d="m24 10c-.06-.06-.17-1.69 0-1.81a.68.68 0 0 1 .74.12 2.79 2.79 0 0 1 -.15 1.69.59.59 0 0 1 -.59 0z" fill="#604f58"/><path d="m27.28 10.26c-.06-.12-.19-1.51.09-1.65s.63-.16.76 0a3.21 3.21 0 0 1 -.13 1.74c-.14.16-.61.14-.72-.09z" fill="#604f58"/><path d="m30.84 10.42c-.13-.13-.16-1.48.09-1.55s.74-.09.81.09a5.08 5.08 0 0 1 0 1.46c-.11.16-.74.11-.9 0z" fill="#604f58"/><path d="m33.29 10.84c0-.08-.13-1.46.1-1.6a1 1 0 0 1 .78 0 4.23 4.23 0 0 1 0 1.56 1.12 1.12 0 0 1 -.88.04z" fill="#604f58"/><path d="m35.47 9.12a1.55 1.55 0 0 1 1 0 5.2 5.2 0 0 1 0 1.72c-.07.06-.86.18-1 0a6.24 6.24 0 0 1 0-1.72z" fill="#604f58"/><path d="m39 8.57a1.91 1.91 0 0 1 1.07.07 1.65 1.65 0 0 1 .46 1c.07.48.09.65 0 .74s-.62.23-.79.05-.11-.86-.3-1.07-.52-.68-.44-.79z" fill="#604f58"/><path d="m43.31 8.29c0-.16.77-.16.93 0s.32 1.58.07 1.67-.51.18-.65.07a7.06 7.06 0 0 1 -.35-1.74z" fill="#604f58"/><path d="m46.09 7.76a1.35 1.35 0 0 1 .83-.14 2.86 2.86 0 0 1 .14 1.76c-.16.11-.65.23-.76 0a5.86 5.86 0 0 1 -.21-1.62z" fill="#604f58"/><path d="m49.26 7a1.14 1.14 0 0 1 .93-.09 4 4 0 0 1 .13 1.64c-.11.11-.69.25-.78.11a6.56 6.56 0 0 1 -.28-1.66z" fill="#604f58"/><path d="m51.69 6.72c.21-.07.42-.17.58 0a3 3 0 0 1 .16 1.55c-.12.12-.51.19-.6.07a10.46 10.46 0 0 1 -.14-1.62z" fill="#604f58"/><path d="m19 10.35c.3.08.19.39 4.05 1.23s5.62.83 5.65 1a.87.87 0 0 1 -.07.62c-.14.19-2.69.14-6.14-.72s-3.65-1.08-3.77-1.22-.03-1 .28-.91z" fill="#604f58"/><path d="m35.7 12.27a51.32 51.32 0 0 0 5.16-.12 25.16 25.16 0 0 0 4.07-.51c.14 0 .35.7.12.86s-1.46.44-4.47.56a40.31 40.31 0 0 1 -4.81 0c-.3-.06-.23-.79-.07-.79z" fill="#604f58"/></svg>