<svg height="64" viewBox="0 0 64 64" width="64" xmlns="http://www.w3.org/2000/svg"><path d="m30.8 64a41.93 41.93 0 0 1 -13.8-2.37c-3.46-1.46-4.49-3.37-4.78-4.13-.07-.19-.26-.7-2.62-14.6-2.3-1-2.55-1.82-2.69-2.27s-.65-7 0-8.17c.94-1.73 6.67-3.33 6.73-3.35 1.37-.36 3-.7 4.21-.93l-2.07-12.7a5.5 5.5 0 0 1 -2.21-1.48 3.89 3.89 0 0 1 -1-1.84c-.08-.31-.49-6.35.31-7.56 1-1.43 8-3.65 15.42-4.26 3-.25 6-.37 9.06-.37a80.44 80.44 0 0 1 10.69.66c3.26.47 7.47 2 8.52 3.42a4.85 4.85 0 0 1 .88 2.22 1.21 1.21 0 0 1 0 .19c0 6-.16 6.35-.45 6.84a4.45 4.45 0 0 1 -2.42 1.57c-.27.1-.53.2-.74.3l-.3.14c-.24 14.19-.46 14.8-.57 15.14a4.48 4.48 0 0 1 -2.16 2.25c-.17.11-.34.21-.51.33s-.37.25-.54.35c.49 5.46.23 5.82-.18 6.39-.18.25-.49.67-2 1.33-1 15.74-1.5 16.67-1.72 17.08-.88 1.59-5.22 4.87-11.75 5.64a28.21 28.21 0 0 1 -3.31.18z" fill="#fff"/><path d="m20 29.74-2.54-15.74a5.5 5.5 0 0 1 -2.39-1.22c-.66-.8-.56-.8-.66-1.18a36.23 36.23 0 0 1 .07-5.9c.2-.3 5.52-2.7 13.95-3.4a95 95 0 0 1 19.35.25c3.61.52 6.77 2 7.22 2.64a3 3 0 0 1 .52 1.28 56.89 56.89 0 0 1 -.17 5.84c-.21.34-1.6.76-2.33 1.11a13.13 13.13 0 0 1 -1.39.55s-.24 15.14-.48 15.84-1.15 1.07-1.95 1.63a5.63 5.63 0 0 1 -1.49.76s.59 6 .31 6.43a9.87 9.87 0 0 1 -2.33 1.11s-1 16.49-1.56 17.5-4.37 4-10.28 4.65a39.73 39.73 0 0 1 -16.15-2c-2.63-1.12-3.5-2.47-3.71-3s-2.71-15.31-2.71-15.31-2.4-.9-2.57-1.46a39.46 39.46 0 0 1 -.14-6.67c.21-.38 3-1.73 5.52-2.39s5.91-1.32 5.91-1.32z" fill="#604f58"/><path d="m42.85 29.9c0-.26.67-.6.88-.46a20 20 0 0 1 1.94 1.9c.51-.2 1-.41 1.37-.61a20.15 20.15 0 0 1 -2.64-2.64c0-.1.48-.67.67-.64a17 17 0 0 1 3.19 2.55q.43-.28.72-.51a37.2 37.2 0 0 1 -3.4-3.29c0-.14.6-.76.85-.62a33.67 33.67 0 0 1 3.1 2.81c0-.36.06-.84.1-1.43a21.42 21.42 0 0 1 -2.8-2.61 1 1 0 0 1 .3-1 18 18 0 0 1 2.58 2.1c0-.58 0-1.19.07-1.83a21.7 21.7 0 0 1 -2.51-1.68c-.07-.19 0-1.07.28-1.18a12.1 12.1 0 0 1 2.29 1.24c0-.72 0-1.44.07-2.14a7.47 7.47 0 0 1 -1.62-1.14c-.1-.28.09-.95.27-1a3.5 3.5 0 0 1 1.38.77 36 36 0 0 0 0-4 62.12 62.12 0 0 1 -14.69 2 46.71 46.71 0 0 1 -15.56-1.7c-.13.11 1.81 14 2.26 14.62s4.31 4.52 13.82 4a33.52 33.52 0 0 0 8.55-1.47 11.68 11.68 0 0 1 -1.47-2.04z" fill="#f9f2ed"/><path d="m36.11 57.36a.8.8 0 0 1 .86-.58 8 8 0 0 1 2 1.91c.39-.16.73-.33 1-.49a22.4 22.4 0 0 1 -2.19-2.2c0-.21.46-.79.74-.77a13.1 13.1 0 0 1 2.53 2.3 8.34 8.34 0 0 0 .83-.65c-.66-.49-2.88-2.19-2.78-2.53s.57-.81.74-.76a26.9 26.9 0 0 1 2.8 2.21c0-.25.09-.76.16-1.46a15.94 15.94 0 0 1 -2.69-2.34c-.11-.44.17-.81.37-.81a13.91 13.91 0 0 1 2.46 1.63c0-.44.07-.9.11-1.38a14.22 14.22 0 0 1 -2.47-1.89c0-.3.11-.77.55-.74a6.9 6.9 0 0 1 2 1.28c0-.48.08-1 .12-1.47-.39-.22-1.91-1-1.89-1.25s.09-.76.41-.69a6.55 6.55 0 0 1 1.57.85c.29-3.72.54-7.27.49-7.31s-4 2-14.88 2.71-15.49-1-15.49-1c-.11.26 2.54 14.41 2.54 14.41a2.71 2.71 0 0 0 1.11.95c.88.48 8.7 3.54 15.92 2.8a23.32 23.32 0 0 0 4.6-.91c-.55-.51-1.56-1.57-1.52-1.82z" fill="#f6c687"/><path d="m16.32 11.47a19.92 19.92 0 0 1 .24-4.55 54.58 54.58 0 0 1 15.83-2.92c9-.42 16 .48 18.06 1s2.55 1 2.67 1.26a31.7 31.7 0 0 1 0 4.87c-.14.24-2.67 1.77-10.35 2.67a74.74 74.74 0 0 1 -19.17-.11 22.27 22.27 0 0 1 -7.28-2.22z" fill="#adceea"/><g fill="#604f58"><path d="m18.85 10.33a36.35 36.35 0 0 0 4.48 1.28c2.57.52 5.1.63 5.21.77a.86.86 0 0 1 0 .72 31 31 0 0 1 -5.69-.55 13.71 13.71 0 0 1 -4.1-1.25c-.21-.21-.25-.97.1-.97z"/><path d="m35.62 12.17c.24 0 2.71.07 5 0s4.1-.39 4.27-.32.07.87.07.87-2.08.18-4.45.32a47.53 47.53 0 0 1 -4.86 0c-.1-.04-.24-.84-.03-.87z"/><path d="m19.19 8.79c-.06-.08-.12-1.44.14-1.55s1 0 1 .16a.65.65 0 0 1 -.07.51.84.84 0 0 0 -.33.48c0 .23.05.37-.07.49s-.63-.02-.67-.09z"/><path d="m21.43 9.3c-.08-.09-.11-1.42.14-1.58s.86-.14.9.14.1.51 0 .63a1.17 1.17 0 0 0 -.39.51c-.07.23 0 .34-.17.39a.86.86 0 0 1 -.48-.09z"/><path d="m23.91 10c0-.11-.12-1.69.07-1.81s.69-.16.72 0a5 5 0 0 1 -.14 1.73c-.19.14-.56.16-.65.08z"/><path d="m27.15 10.34s-.09-1.6.12-1.76.69-.16.76-.05 0 1.83-.21 1.92a.76.76 0 0 1 -.67-.11z"/><path d="m30.41 8.74c.06 0 .77-.05.81.12s.12 2-.09 2-.65.16-.72 0a6.19 6.19 0 0 1 0-2.12z"/><path d="m33.19 8.86c.06 0 .77 0 .81.11s.12 2-.09 2-.65.17-.72 0a6.19 6.19 0 0 1 0-2.11z"/><path d="m35.51 8.81c.05 0 .76-.05.81.12s.11 2-.1 2-.64.16-.71-.05a6.19 6.19 0 0 1 0-2.07z"/><path d="m39.05 8.65a3 3 0 0 1 .83-.16c.26 0 .56 1.64.42 1.85s-.6.32-.7.21-.27-1.11-.37-1.25-.37-.51-.18-.65z"/><path d="m43.24 8.21a1.79 1.79 0 0 1 .81 0 2.36 2.36 0 0 1 .21 1.69.8.8 0 0 1 -.72 0c-.12-.12-.07-1-.23-1.23s-.19-.39-.07-.46z"/><path d="m46 7.77a1.08 1.08 0 0 1 .95 0c.16.18.27 1.6 0 1.71s-.67.09-.74-.07a7.68 7.68 0 0 1 -.21-1.64z"/><path d="m49.14 7.07c0-.15.65-.23.77-.16s.58 1.44.34 1.62a1.05 1.05 0 0 1 -.74.19 8 8 0 0 1 -.37-1.65z"/><path d="m51.67 6.75c.13-.11.53-.12.57.07a2.85 2.85 0 0 1 0 1.2.37.37 0 0 1 -.53.12 2.36 2.36 0 0 1 -.04-1.39z"/><path d="m22.45 18.86c0-.11.74-.23.81-.1a68.83 68.83 0 0 1 .74 6.86c-.16.07-.71.3-.94-.05a55.89 55.89 0 0 1 -.61-6.71z"/><path d="m26.32 18.67a.59.59 0 0 1 .76-.09c.21.16 1 1 .93 1.27s-.56.37-.93.28-.97-1.2-.76-1.46z"/><path d="m31.36 19.81a.8.8 0 0 1 1.25.44c.12.55-.23.85-.81.81a.75.75 0 0 1 -.44-1.25z"/><path d="m27.22 24.39a1.72 1.72 0 0 1 .51-2 1.55 1.55 0 0 1 2.15.37c.23.44.09 1.23-.14 1.23s-.53-.69-1-.51-.2.9-.44 1a1.27 1.27 0 0 1 -1.08-.09z"/><path d="m24.72 27.91a1.69 1.69 0 0 1 1.46-1c1.06-.07 1.64 1 1.5 1.27s-.28.35-.51.33-.55-.35-.92-.26-.6.35-.86.35-.81-.44-.67-.69z"/><path d="m29.6 27.45s.65-1.35 1.51-1.21 1.73 1.18 1.5 1.72-.67.64-.78.6-.21-.74-.68-.67-.37.55-.69.62-1.06-.65-.86-1.06z"/><path d="m35.39 29.14a.68.68 0 0 1 1 .76.64.64 0 0 1 -1 .42.67.67 0 0 1 0-1.18z"/><path d="m39.7 30.46a.7.7 0 0 1 1 .23c.16.34.07 1-.71.9s-.82-.79-.29-1.13z"/><path d="m37.64 25.62c.14 0 .83.34 1.32 0s.71-1 1-.81.21 1.44-.09 1.88a1.29 1.29 0 0 1 -1.81.39c-.86-.47-.75-1.46-.42-1.46z"/><path d="m34 23a1.14 1.14 0 0 1 1.72-.26c.92.67.83 1.9.48 2s-.44.21-.6-.07.14-.5-.53-.74-.88 0-1-.2a.61.61 0 0 1 -.07-.73z"/><path d="m38.89 20.11a1.12 1.12 0 0 1 1.11-.11c.46.28.86 1.23.58 1.58s-.42.44-.6.32-.4-.6-.72-.71-.32.07-.42-.21-.23-.66.05-.87z"/><path d="m43.84 18.58a1.38 1.38 0 0 1 1.21 0 1.16 1.16 0 0 1 -.05 1.42.78.78 0 0 1 -1 0 1.54 1.54 0 0 1 -.16-1.42z"/></g><path d="m10.48 34.58a31 31 0 0 1 5.77-2c3.21-.76 4.86-1.09 4.86-1.09a23.19 23.19 0 0 0 9.42 3.51 32.09 32.09 0 0 0 12.25-.7c1.83-.55 3.33-1.13 3.33-1.13a22.5 22.5 0 0 1 .09 4c-.23.34-5.65 2.89-13.63 3.7s-19.13-1-20.26-1.25-1.69-.19-1.81-.58-.06-4.3-.02-4.46z" fill="#adceea"/><path d="m12.24 35.16c.1-.2.77-.14.81.11s.23 1.9 0 2-.58.25-.72-.05a5.58 5.58 0 0 1 -.09-2.06z" fill="#604f58"/><path d="m14.56 35.29c0-.12.78-.13.9 0a4.8 4.8 0 0 1 -.09 2c-.17.07-.74.09-.81-.07a12 12 0 0 1 0-1.93z" fill="#604f58"/><path d="m17.75 35.8c.11-.14.9-.11.95 0s.12 1.76-.07 1.85-.67.23-.76 0a5 5 0 0 1 -.12-1.85z" fill="#604f58"/><path d="m21.34 36.34c.06-.15.86-.05.95.07a6.17 6.17 0 0 1 0 1.82c-.09.07-.74.21-.84 0a7.62 7.62 0 0 1 -.11-1.89z" fill="#604f58"/><path d="m24.67 36.64a2.78 2.78 0 0 1 .81.09 4.66 4.66 0 0 1 0 1.62c-.1 0-.61.21-.74 0a5.67 5.67 0 0 1 -.07-1.71z" fill="#604f58"/><path d="m29.4 36.64c.17-.21.78 0 .83.14s.28 1.5.05 1.64-.81.14-.93-.07a3.78 3.78 0 0 1 .05-1.71z" fill="#604f58"/><path d="m33.22 36.73c.09-.15.81-.19.9 0s.25 1.39 0 1.55-.77.19-.88 0a3.29 3.29 0 0 1 -.02-1.55z" fill="#604f58"/><path d="m37.27 36.17c0-.17.9-.14.92.07s.26 1 0 1.16-.79.37-.86.19a9.67 9.67 0 0 1 -.06-1.42z" fill="#604f58"/><path d="m39.91 34.85c0-.13.9-.32.88-.18s.23 1.13.09 1.41-.51.65-.79.44-.18-1.52-.18-1.67z" fill="#604f58"/><path d="m15.55 45.16a2.16 2.16 0 0 1 1.95-1.09 1.67 1.67 0 0 1 1.64 1.43c-.07.35.07.54-.28.51s-.74-.81-1.36-.71-.86.53-1.14.55-.88-.49-.81-.69z" fill="#604f58"/><path d="m16.5 46.78c0-.19 1.18-.3 1.23 0s.55 6 .41 6.16a.45.45 0 0 1 -.76 0c-.32-.31-.9-6-.88-6.16z" fill="#604f58"/><path d="m19.86 44.74a1.4 1.4 0 0 1 1.14-.56 1.46 1.46 0 0 1 1.2.82c0 .35 0 .65-.14.67s-.21.14-.35 0-.09-.46-.53-.46-.67.42-.91.42-.57-.63-.41-.89z" fill="#604f58"/><path d="m19.39 47.54c.06-.25.63-1.46 1.6-1.5s1.92 1.43 1.76 1.69-.35.46-.58.39-1-1.18-1.34-.95-.28 1.27-.56 1.32-.97-.49-.88-.95z" fill="#604f58"/><path d="m20.55 51.48a1.17 1.17 0 0 1 1.21-1 1.41 1.41 0 0 1 1.52 1.25c0 .49 0 .88-.32.93s-.67 0-.72-.12.14-.67-.41-.74-.61.51-.84.51a.59.59 0 0 1 -.44-.83z" fill="#604f58"/><path d="m17.26 55.43c-.05-.23.1-1.18 1.49-1.41s1.71.12 1.73.37.21.44-.14.58-1.15 0-1.48.3-.41.67-.62.74a1.16 1.16 0 0 1 -.98-.58z" fill="#604f58"/><path d="m21.92 54.67a1.45 1.45 0 0 1 1.22-1.3 1.48 1.48 0 0 1 1.6 1.35c0 .37-.16.62-.37.65s-.79-1-1.06-.75-.26.68-.4.77-1.08-.33-.99-.72z" fill="#604f58"/><path d="m26.39 54.21a3.53 3.53 0 0 1 2-.65c.74.07 1.15.09 1 .39s-1.22.42-1.59.88-.1.56-.61.6-.6 0-.76-.11a.86.86 0 0 1 -.04-1.11z" fill="#604f58"/><path d="m26.46 56.85a2.07 2.07 0 0 1 2.13 0c.92.56.94 1.9.62 2s-.65.14-.81 0 .07-.83-.65-1-.92.23-1.18 0-.48-.75-.11-1z" fill="#604f58"/><path d="m32.2 57.33a2.33 2.33 0 0 1 1.92-.53c.9.23 1.25.72 1.13 1.09s-.11.49-.41.49-.26 0-.44-.1-.24-.51-.61-.48-.3.46-.81.44a1.57 1.57 0 0 1 -.88-.24.54.54 0 0 1 .1-.67z" fill="#604f58"/><path d="m31.66 53.58a1.52 1.52 0 0 1 1.9-1.46c1.67.28.86 2.39.63 2.39a.7.7 0 0 1 -.65-.28c-.12-.23.12-.65-.28-.81a.57.57 0 0 0 -.74.58c0 .35.09.39-.07.44a.77.77 0 0 1 -.79-.86z" fill="#604f58"/><path d="m25.07 50.83a1.88 1.88 0 0 1 2.13-1.51c1.62.28 2.24 2.25 2 2.43a.73.73 0 0 1 -.81 0c-.18-.14-.64-1.2-1.25-1.2s-.83.83-1.06.9-1.08-.18-1.01-.62z" fill="#604f58"/><path d="m24.81 46.38a3.19 3.19 0 0 1 2.19-1.13c1.23 0 1.53.53 1.44.69s-.44.12-1.48.51a12.28 12.28 0 0 0 -1.6.84c-.15 0-.87-.49-.55-.91z" fill="#604f58"/><path d="m30.14 47.1a1.42 1.42 0 0 1 1.43.14c.4.37.67 1.34.42 1.53s-.4.34-.58.14-.09-.61-.63-.81-.67 0-.74-.26-.2-.55.1-.74z" fill="#604f58"/><path d="m31.22 44.92a2.92 2.92 0 0 1 1.81-.3 1.31 1.31 0 0 1 1 1.49.83.83 0 0 1 -.53.3s-.35-.77-1-.7-.9.26-1.16.12a.71.71 0 0 1 -.12-.91z" fill="#604f58"/><path d="m35.69 46.57s1.07-.49 1.6.07a2.11 2.11 0 0 1 .39 2.13c-.3.39-.9.6-1 .32s.12-1.16-.21-1.32-.78 0-1-.3a.6.6 0 0 1 .22-.9z" fill="#604f58"/><path d="m38.24 43.86a1.53 1.53 0 0 1 2 0c1 .72.44 2.76.14 2.71s-.67-.3-.69-.53.34-1-.3-1.18-.95 0-1-.12-.48-.53-.15-.88z" fill="#604f58"/></svg>