<svg height="64" viewBox="0 0 64 64" width="64" xmlns="http://www.w3.org/2000/svg"><path d="m63.15 22.73-.15-.19a3.82 3.82 0 0 0 -.47-3.32 4.16 4.16 0 0 0 -3.44-1.76h-.09a5.75 5.75 0 0 0 -1.89.35v-.11a4.51 4.51 0 0 0 -1.24-3.2 5.67 5.67 0 0 0 -1.47-1c.06-.18.11-.36.16-.56a3.17 3.17 0 0 0 -.32-2.38 4.09 4.09 0 0 0 -.57-3 4.06 4.06 0 0 0 -3.7-2 7.45 7.45 0 0 0 -1.21.11 4.67 4.67 0 0 0 -2.81-.81 7.1 7.1 0 0 0 -.77 0 4.48 4.48 0 0 0 -3.71 2.44c-.85-.12-2-.27-3.63-.42-1-.08-1.82-.12-2.64-.12a29.27 29.27 0 0 0 -8.55 1.46 30.68 30.68 0 0 0 -5.24 2.17 4.31 4.31 0 0 0 -1.08-4.49 4 4 0 0 0 -3-1.22h-.49a3.73 3.73 0 0 0 -2.84-1.51h-.22a4.65 4.65 0 0 0 -3.17 1.3c-.34 0-.73 0-1.19.11a2.87 2.87 0 0 0 -2.16 1.42 3.4 3.4 0 0 0 -.41 1.71 3 3 0 0 0 -.71.42 3.44 3.44 0 0 0 -.87 4.68 5.88 5.88 0 0 0 3.59 2.6 7.47 7.47 0 0 0 1.29.08h1.63a3.36 3.36 0 0 0 -1.68 2 23.76 23.76 0 0 0 -.1 3.89 3.48 3.48 0 0 0 -1-.59 3.14 3.14 0 0 0 -1.09-.2 3.32 3.32 0 0 0 -1.44.34 2.87 2.87 0 0 0 -1.47-.38 3.54 3.54 0 0 0 -2.81 1.64 4.51 4.51 0 0 0 -1 2.74 4.37 4.37 0 0 0 -1.09 2 5.15 5.15 0 0 0 .54 3.83 4.2 4.2 0 0 0 2.74 1.93 7.5 7.5 0 0 0 1.62.16 11.25 11.25 0 0 0 2.87-.41c1.46.76 1.71.8 2.14.8a1.84 1.84 0 0 0 .62-.11c-.09 3.18.19 8.55.2 8.6a2.54 2.54 0 0 0 .41 1.08c-.87 2-.58 10.14-.23 10.83a11.56 11.56 0 0 0 4.65 4.36c2.23 1.23 6.38 2.87 16.55 2.87 1 0 2.06 0 3.18-.05a51 51 0 0 0 14.31-2.4c6-2 6.19-3.31 6.26-3.93 0-.24 0-1.29.07-3.14a6.28 6.28 0 0 0 3-1.64 4.15 4.15 0 0 0 1.28-3.94 4.33 4.33 0 0 0 1-3.17 3.61 3.61 0 0 0 -1.74-3 3.62 3.62 0 0 0 -.81-2.6 4.07 4.07 0 0 0 -2.32-1.32v-2.12a5.87 5.87 0 0 0 1.92.34 4.91 4.91 0 0 0 3.74-1.7 4 4 0 0 0 1.13-3.29 3.82 3.82 0 0 0 -.22-.79 4.67 4.67 0 0 0 1-2.5 3.77 3.77 0 0 0 -.86-2.89z" fill="#fff"/><path d="m14.26 30.71a12.3 12.3 0 0 1 -1.95-1.63 101 101 0 0 1 -.31-11.08c.24-.75.72-.83 1.63-1.35a4.41 4.41 0 0 0 1-.63l-1.7-2.62a24.26 24.26 0 0 1 -3.69.08 4 4 0 0 1 -2.31-1.79 1.52 1.52 0 0 1 .48-2.06 2.84 2.84 0 0 1 1.83-.28s-1.24-2.62.45-2.86 1.67 0 1.67 0a3.16 3.16 0 0 1 2.54-1.39c1.59.08 1.86 1.9 1.86 1.9s2-1 3.18.28a2.3 2.3 0 0 1 .32 3.05 8.67 8.67 0 0 1 -2 1.27l-2.26.61 2.7 2.58s5.28-3.45 9.45-4.64 6.55-1.63 10.48-1.27a32.83 32.83 0 0 1 5.16.71 2.83 2.83 0 0 1 2.54-2.74c2.46-.24 2.69 1 2.69 1s2.9-1.15 3.93.64-.31 2.58-.31 2.58a1.07 1.07 0 0 1 1 1.43 4.8 4.8 0 0 1 -1 2.06 9.23 9.23 0 0 1 2.82 1.27 2.69 2.69 0 0 1 .67 1.83v3.49s2.06-1.83 3.93-1.79a2 2 0 0 1 2.1 2.54 3.63 3.63 0 0 1 -.83 1.39 1.85 1.85 0 0 1 1.75 2.11 2.45 2.45 0 0 1 -1.79 2.3 2 2 0 0 1 .4 3.17 3.38 3.38 0 0 1 -4.25.52c-.24-.16-1-1.31-1.15-1.39a8 8 0 0 1 -.83-.83l-.52.71s.59.72.59.92v6.78s1.87-.39 2.78.68 0 2.62 0 2.62 2 0 2.15 1.78a2.47 2.47 0 0 1 -1.46 2.49 2.28 2.28 0 0 1 -.28 3.14 4.53 4.53 0 0 1 -3.61 1.23s0 4.37-.08 4.72-6.91 4.25-18.7 4.61-16.43-1.31-18.73-2.58a10 10 0 0 1 -3.81-3.49 47.71 47.71 0 0 1 .12-9c.27-.32 1.19-.6 1.15-.76s-.12-.55-.24-.63-1-.4-1-1-.32-9.25-.12-9.68a2.91 2.91 0 0 1 1.56-1z" fill="#604f58"/><path d="m48.11 26.78a.61.61 0 0 1 .76-.44 20.52 20.52 0 0 1 3.13 2.51 6.5 6.5 0 0 0 .78-.48c-.94-.83-3.73-3.31-3.66-3.54s.47-.67.59-.59 2.9 2.29 3.76 3.16c0-.36.07-.91.09-1.55a32.57 32.57 0 0 1 -3.09-3.2c-.12-.44.23-.72.39-.68a27.43 27.43 0 0 1 2.73 2.67c.05-2.4 0-5.3 0-5.44s-2.54.91-5.83 1.66a46 46 0 0 1 -11.35 1.39c-5.44.08-10.88.08-14.41-.51a71.81 71.81 0 0 1 -8.34-2.39s.48 8.66.48 8.78a7.92 7.92 0 0 0 1.86 1.27c.72.35 3.42 1.54 9.21 2.34s11 .28 15.72-.08a28.25 28.25 0 0 0 9-1.91c.44-.15.81-.29 1.14-.43a23.71 23.71 0 0 1 -2.96-2.54z" fill="#f6c687"/><path d="m52.28 38.21c-.12-.08-2.3-1.79-2.3-2.14s.32-.8.63-.6a22.59 22.59 0 0 1 2.15 2 1.84 1.84 0 0 0 0-.34 10.67 10.67 0 0 1 0-1.33c-.42-.41-1.16-1.14-1.07-1.29a.76.76 0 0 1 .67-.4c.13 0 .29.21.43.43a3.31 3.31 0 0 0 -.11-1.22c-.24-.24-1 .51-2.82 1.35s-4.56 1.63-10.36 1.87-13.42-.28-13.42-.28.2 8.93.2 8.93 10.48.6 14.53.36a23.93 23.93 0 0 0 5.84-.87 2.92 2.92 0 0 1 .63-.91c.32-.24 2.34-.48 2.5-.64s-.08-.83 0-1.35a2.94 2.94 0 0 1 1.35-2.14 7.4 7.4 0 0 1 1.71-.48s0-.26 0-.59zm-1.9.51c-.08-.11-2.31-1.66-2.19-1.82s.76-.52 1-.36 1.86 1.46 1.81 1.67-.62.51-.62.51z" fill="#f6c687"/><path d="m47.24 51.66c.24-.47.36-.59.6-.47a20.28 20.28 0 0 1 2.74 2.6l.8-.25a39 39 0 0 1 -3.5-3.23c0-.23.47-.51.71-.55a30.58 30.58 0 0 1 3.82 3.13c0-.28 0-.78 0-1.31a25.7 25.7 0 0 1 -2-1.66 2 2 0 0 1 1.39-.08 6.2 6.2 0 0 1 .61.66c0-.52 0-.94 0-1 0-.24-.51 0-1 0s-.83-.48-1.71-.95-.47-1.91-.55-2a31.8 31.8 0 0 0 -4 .56c-2.11.32-4.57.56-4.57.56s0 7.93.08 8.05 2.15-.2 5.88-.91c1.15-.22 2.12-.45 2.93-.66-.73-.65-2.42-2.15-2.23-2.49z" fill="#f6c687"/><path d="m3.46 25.9a2.12 2.12 0 0 1 .32-2.54c1.11-1.47 1.78-.71 2.1-.43a2.09 2.09 0 0 1 .48.59s.87-1.31 1.94-.91a2.36 2.36 0 0 1 1.31 1.67 1.85 1.85 0 0 1 1.23 1.46c.08 1.08 0 1.51-.35 1.75a3.75 3.75 0 0 0 -.68.83s1.27 1 1.15 1.59a2.5 2.5 0 0 1 -.91 1.39c-.16 0-2-.95-2-.95a8.73 8.73 0 0 1 -4.24.44 2.67 2.67 0 0 1 -1.81-3.38c.27-.91.82-1.47 1.46-1.51z" fill="#604f58"/><path d="m4.37 26.58c.52-.06.56-.4.44-.56s-1-1-.36-1.9 1.35-.32 1.43-.12a5.11 5.11 0 0 0 .32.83c.12.16.67.44.75.2s-.35-1.07.6-1.31 1.15.24 1.19.56a.72.72 0 0 0 .28.63c.27.28 1.23.44 1 1.39s-1.24 1.27-1.12 1.87 1.27 1.27 1.23 1.62-.16.52-.28.48-1.19-1.19-1.71-1a4.53 4.53 0 0 1 -2.26.73c-1.39 0-2.22-.16-2.7-.87a1.7 1.7 0 0 1 1.19-2.55z" fill="#f9f2ed"/><path d="m4.93 28.6a1 1 0 0 1 .12-1.27 1.85 1.85 0 0 1 1.66-.51c.36.08.76.12.28.39s-.87.24-1.19.6-.2.75-.36.79-.31.16-.51 0z" fill="#604f58"/><path d="m15.29 15.9s-2-3.61-2.22-3.81a.39.39 0 0 0 -.56 0 1.62 1.62 0 0 0 -.12.48 10 10 0 0 1 -2.74.08c-1.19-.2-2.26-1-1.78-1.87s1.13-.91 1.5-.78.08.43.56.43.75-.08.63-.47-1.07-.92-.75-1.91.79-.91 1-.75.76.43 1 .28.36-1.43 1.47-1.55a1.55 1.55 0 0 1 1.75 1c0 .36 0 .79.44.87s1.39-.63 2.38-.24a1.28 1.28 0 0 1 .3 2.34c-.88.67-.92.87-1.35.91a6 6 0 0 0 -2.46.79.69.69 0 0 0 .15 1.15c.52.32 2.39 2.11 2.19 2.31a10.11 10.11 0 0 1 -1.39.74z" fill="#f9f2ed"/><path d="m12.27 9.47a2.38 2.38 0 0 1 2-.83c1.19.2 1.94 1.07 1.86 1.43s0 .59-.36.39-.63-1-1.54-.91-1.23.71-1.47.71-.76-.63-.49-.79z" fill="#604f58"/><path d="m18.54 16.66c-.06-.28 3.61-3.26 8.89-4.93a32.81 32.81 0 0 1 15.33-.47c3.45.79 7.34 5 7.3 5.24s-.72 1.11-2.5 1.62a25.62 25.62 0 0 1 -5 .76c-2 .2-8.22.32-12.7.32s-6.28-.12-8-.64-3.24-1.56-3.32-1.9z" fill="#fcdfc8"/><g fill="#604f58"><path d="m21 18.6s2-2.7 7.74-4.49 9.37-1.86 9.89-1.78.79.16.79.28a.43.43 0 0 1 -.36.47 20.11 20.11 0 0 0 -8.93 1.47c-5.08 2-6.23 2.66-6.78 3.18a6.19 6.19 0 0 0 -1 1.27z"/><path d="m25.81 19.31a17.48 17.48 0 0 1 5.51-2.65c3.89-1.27 7.07-2.43 9.77-2.58s4.21-.16 4.33 0 .11.48-.08.52a26.56 26.56 0 0 0 -9.34 1.3c-4.73 1.63-7.27 2.54-7.62 2.78s-1.27.71-1.27.71z"/><path d="m27 13s.39-.47.83-.39 1.71.71 4 2.5a17.6 17.6 0 0 1 3.69 3.57 2.17 2.17 0 0 1 .32.87l-.6.08a25.6 25.6 0 0 0 -4.56-4.44 22.34 22.34 0 0 0 -3.68-2.19z"/><path d="m32.48 11.61a6.2 6.2 0 0 1 1.15-.19 27.26 27.26 0 0 1 3.85 2.81 15.8 15.8 0 0 1 3.25 4.17 2.05 2.05 0 0 1 .36.8h-.8a14.91 14.91 0 0 0 -3.65-4.81c-2.18-1.66-4.2-2.7-4.16-2.78z"/></g><path d="m43.71 9.87a1.7 1.7 0 0 1 1.23-2c1.59-.59 2.18.32 2.3.72s-.52.63-.32.87.36.4.56.36a.81.81 0 0 0 .52-.27c.07-.12.39-.71.47-.83s1.55-1 2.5-.16a1.37 1.37 0 0 1 0 2.1c-.31.4-.47 1.07-.28 1.19s1.08-.12 1.27.4-.79 1.67-1 1.86a1.27 1.27 0 0 1 -.43.28 17 17 0 0 0 -4.25-3.33c-2.14-.95-2.57-1.19-2.57-1.19z" fill="#f9f2ed"/><path d="m48.07 10.62a1.1 1.1 0 0 1 .93-.32c.55.08.95.4.87.68s-.59.32-.91.24a3.36 3.36 0 0 0 -.84 0s-.12-.56-.05-.6z" fill="#604f58"/><path d="m14.26 18.24c-.13-.12 1.15-.67 1.35-.59s.67.55.95.51 1-.71 1.27-.63a14.09 14.09 0 0 0 6.07 2.22 102.14 102.14 0 0 0 15.4.25c4.77-.2 8.34-.91 10-1.63s2.85-2.26 3.17-2.22a1.38 1.38 0 0 1 .72 1.71c-.4.75-6.24 2.38-12.51 2.93a82.62 82.62 0 0 1 -17.19.12c-5.35-.63-6.94-1.43-8-1.9s-1.11-.65-1.23-.77z" fill="#fcdfc8"/><path d="m45.18 20.9c0 .12.08 10.72.24 10.72s1.07-.12 1-.32 0-10.24-.2-10.44-1.04.04-1.04.04z" fill="#604f58"/><path d="m43.27 23.4c0-.2.52-.31.6-.16a6.71 6.71 0 0 1 .08 2.5c-.24.28-.8.28-.88.08a20.56 20.56 0 0 1 .2-2.42z" fill="#604f58"/><path d="m43.39 28.17s.72 0 .72.12.07 1.9 0 2.1-.8.48-.84.2a11.94 11.94 0 0 1 .12-2.42z" fill="#604f58"/><path d="m55.26 22.25c.12-.08 2.3-2.06 3.69-1.86s1.67.83 1.23 1.5-1.31 1.11-1.27 1.47 0 .44.36.52 1.94.48 1.94 1.19a2.82 2.82 0 0 1 -1.21 1.87c-.39.19-.79.11-.83.51s1.27 1.27 1.19 2.26a1.77 1.77 0 0 1 -2.44 1.29 13.64 13.64 0 0 1 -2.86-2.34 8.68 8.68 0 0 0 .32-1.66c.12-1-.12-4.75-.12-4.75z" fill="#f9f2ed"/><path d="m56.69 24.32c.24-.24 1-.52 1.39-.08a4.6 4.6 0 0 1 .2 2.74c-.2.07-.64-.32-.64-.32s.32-1 0-1.35-.44-.28-.55-.32-.4-.67-.4-.67z" fill="#604f58"/><path d="m15.13 32.33a5.85 5.85 0 0 1 1.94-.55 51 51 0 0 0 14.69 2.46 56.24 56.24 0 0 0 17-1.91c2.66-.83 3.29-1.31 3.57-1.23a.78.78 0 0 1 .4.8 17.24 17.24 0 0 1 -6.44 3.1 53.13 53.13 0 0 1 -12.35.84c-3.85-.24-6.9-.32-8.17-.44a51.05 51.05 0 0 1 -8-1.75 8.77 8.77 0 0 1 -2.64-1.32z" fill="#fcdfc8"/><path d="m14.38 33.17a28.51 28.51 0 0 0 6.35 2.22 25.21 25.21 0 0 0 4.24.79s.2 9 .08 9a23.36 23.36 0 0 1 -6.75-1.58c-2.81-1.27-3.73-2.19-3.73-2.46s-.31-7.85-.19-7.97z" fill="#f6c687"/><path d="m16.28 35.79s.79-.2.87 0a30.3 30.3 0 0 1 .16 5c-.2 0-.67.12-.79-.28a32.17 32.17 0 0 1 -.24-4.72z" fill="#604f58"/><path d="m27.51 37.65c.12-.18.92-.08 1 .24s.12 2.78-.12 2.9-.72.2-.84 0a16 16 0 0 1 -.04-3.14z" fill="#604f58"/><path d="m27.51 41.78c.11-.13.6-.28.72-.08a7.94 7.94 0 0 1 .08 2.74c-.2.12-1 .2-1 0a10.15 10.15 0 0 1 .2-2.66z" fill="#604f58"/><path d="m47 45.43a1.84 1.84 0 0 1 .76-1c.35-.16 1.7-.36 2.22-.6s1.19-.71 1.11-1-.87-.71-.36-1.51.92-1.54 1.67-1.42 1.35.91 1.55.79.36-.32.32-.44-.44-1.31.63-1.55 1.75 0 1.87 1 .24 1.07 0 1.19-1.15.43-1 .59.28.24.44.2 1.71-.32 2.07.79a1.75 1.75 0 0 1 -1.12 2.15 2.87 2.87 0 0 1 -1.94.28c-.6-.24-1.19-.52-1.27-.32s-.24.75 0 .79a11.58 11.58 0 0 0 1.79.4c.95.12 1.78-.12 1.86 0a1.56 1.56 0 0 1 -.6 1.89c-.92.75-.8.83-1.55.87a2.36 2.36 0 0 1 -1.19-.2s-.08-1-.24-1.11-1 .24-1.19.4-.48.35-.48.55.16.28-.32.24a2.53 2.53 0 0 1 -1.7-.6c-.4-.47-.28-1.9-.44-2a2.45 2.45 0 0 0 -1-.08h-1.29z" fill="#f9f2ed"/><path d="m14.89 44.6c0-.23.68-.2.83-.12a27.77 27.77 0 0 0 8.7 2.62c5.55.87 15 .6 15 .6s.16 8.41 0 8.49a57.15 57.15 0 0 1 -13.42.36c-5.91-.72-8.89-2.07-10-3.14s-1.23-1-1.27-1.31.16-7.42.16-7.5z" fill="#f6c687"/><path d="m16.6 48.17c0-.21 1.11-.71 1.35-.36a14.06 14.06 0 0 1 .28 4.19c-.2.16-1 .48-1.08.2s-.59-3.83-.55-4.03z" fill="#604f58"/><path d="m41.64 48.49c.12-.3.64-.16.64 0a15.17 15.17 0 0 1 .08 3c-.2.19-.72.63-.83.15a16 16 0 0 1 .11-3.15z" fill="#604f58"/><path d="m41.49 52.89c.24 0 .67-.07.71.08s.2 1.71 0 1.79-.56.56-.67.2-.28-2.03-.04-2.07z" fill="#604f58"/></svg>