<svg height="64" viewBox="0 0 64 64" width="64" xmlns="http://www.w3.org/2000/svg"><path d="m44.37 59.34a19.93 19.93 0 0 1 -10.66-2.71 67.08 67.08 0 0 1 -7.27-6.24c-1.31-1.23-2.56-2.39-3.53-3.23-2.74-2.38-6.22-5.25-8.82-6.33a24.9 24.9 0 0 1 -7.63-4.46 15.12 15.12 0 0 1 -5.85-10.44 59.78 59.78 0 0 1 -.61-10.32c.24-3.11 2.18-5.61 5.82-7.43 4.41-2.18 10.93-3.52 17.45-3.52 1.07 0 2.16 0 3.22.11a67.41 67.41 0 0 1 19.45 4c6.87 2.46 12.93 7.8 15.44 13.59a34.09 34.09 0 0 1 2.62 15.32v1.6c0 3.6 0 7.68-2.81 12-3.33 5-7.55 7.42-14.09 8-.95.02-1.86.06-2.73.06z" fill="#fff"/><path d="m2 15.73c.06-1 .29-3.6 4.7-5.81s11.83-3.74 19.66-3.22a64.84 64.84 0 0 1 18.93 3.9c5.71 2.05 11.78 6.69 14.32 12.53a32.36 32.36 0 0 1 2.39 14.51c-.06 3.87.42 8.12-2.5 12.54s-6.49 6.59-12.63 7.11-9.87-.88-12.13-2.29-7.6-6.72-10.56-9.28-6.52-5.51-9.35-6.72a23 23 0 0 1 -7.17-4.19 13.19 13.19 0 0 1 -5.13-9.22 56.55 56.55 0 0 1 -.53-9.86z" fill="#604f58"/><path d="m55.55 48.13c0-.36.45-.49.61-.45a5.6 5.6 0 0 1 1.39 1.16 12.93 12.93 0 0 0 .85-1.6c-.43-.3-1.06-.78-1.1-1a.72.72 0 0 1 .45-.78c.18 0 .72.35 1.08.69a14.88 14.88 0 0 0 .87-4.55c0-1.85-1.07-.69-1.26-.39a25.48 25.48 0 0 1 -3.61 4.79c-2.21 2.27-5.32 3.09-10.06 3s-4.77-1-8.35-3.4-8.66-8.6-13.57-12.7-8.37-4.41-11.91-5.84-6-4.15-6.24-3.83a8.91 8.91 0 0 0 .1 3 11.84 11.84 0 0 0 2.4 5.52c1.69 1.81 4.42 3.34 8.41 4.7s7.4 5 9.71 7 7.66 8 13.77 10.75a12.64 12.64 0 0 0 5.81 1c-.6-.78-1.93-2.57-1.76-3s.49-.64.69-.55a19.22 19.22 0 0 1 2.29 3.41c.63-.08 1.24-.19 1.85-.33-.64-.78-2.06-2.57-1.9-3s.55-.65.84-.52a17 17 0 0 1 2.39 3.12q.68-.21 1.32-.45a20.79 20.79 0 0 1 -2.15-2.86c.06-.23.94-.78 1.1-.65a31.4 31.4 0 0 1 2.24 3c.36-.16.7-.33 1-.5-.65-.79-1.88-2.36-1.71-2.67s.39-.62.68-.39a17.43 17.43 0 0 1 2.22 2.51c.39-.25.76-.5 1.09-.76a15.57 15.57 0 0 1 -1.56-2.29.62.62 0 0 1 .65-.59 9.62 9.62 0 0 1 1.93 2c.26-.26.52-.54.75-.82a7 7 0 0 1 -1.31-1.73z" fill="#d16d6c"/><path d="m4.64 16.57c-.2-1.71 2.37-5.52 8.25-7s13.7-1.26 20.32-.16 13.77 2.76 19 7.83 7.11 8 7.46 13.18-.81 6.78-2.34 9-4.48 5.68-6.23 6.4a16.75 16.75 0 0 1 -7.08.91c-2.72-.2-6.42-3.22-8.86-5.46s-7.37-7.76-10.13-10a29.68 29.68 0 0 0 -10-5.56 18.53 18.53 0 0 1 -7.86-4.15 7.53 7.53 0 0 1 -2.53-4.99z" fill="#ef7d7b"/><path d="m12.24 13c1.28-.65 7.07-1.33 11.16-.48s6.11 4 6.21 5.94a4.53 4.53 0 0 1 -4.22 4.48 17.49 17.49 0 0 1 -7.34-.78 19.19 19.19 0 0 0 -3.67-1.07c-1.49-.26-3.67-.65-4.19-2.8s-.06-4.22 2.05-5.29z" fill="#604f58"/><path d="m13.53 13.91c1.15-.55 6.63-.91 10.17.07s5.06 3.44 4.09 5.39a4.5 4.5 0 0 1 -4.79 2.4 32.24 32.24 0 0 1 -5.22-1.2c-1.17-.36-2.6-.78-3.84-1.14a2.59 2.59 0 0 1 -2.14-2.56 4 4 0 0 1 1.73-2.96z" fill="#fcdfc8"/><path d="m16.59 15.21c1.14-.06 5.06.49 6.26 1.3s.26 2.89-1.26 3.25a6.06 6.06 0 0 1 -4.58-1c-1.53-.98-2.86-3.42-.42-3.55z" fill="#604f58"/><path d="m18.24 17c.82 0 3.74 0 3.7.71s-.58 1.24-2 1-2.77-1.71-1.7-1.71z" fill="#f7babe"/><g fill="#604f58"><path d="m36.68 16.9c.08-.36.82-.2 1-.13a25.42 25.42 0 0 1 -.65 8c-.95 4.41-1.3 5.61-1.5 5.64s-.48-.09-.45-.26 1-5.32 1.2-7.85.37-5.24.4-5.4z"/><path d="m42.92 20.37s.68-.39.84-.09a72.12 72.12 0 0 1 -.55 9.38c-.42 3.73-1.27 6.2-1.59 6.07s-.36-.13-.33-.29.78-5.36 1-8.41a62.81 62.81 0 0 1 .63-6.66z"/><path d="m50.19 25c.12-.17 1-.3 1.14.13a44.92 44.92 0 0 1 -.78 8.53c-.62 2.8-1.07 5-1.33 5s-.36.29-.36-.1.94-5.36 1.17-8.31-.03-5.01.16-5.25z"/></g></svg>