<svg height="64" viewBox="0 0 64 64" width="64" xmlns="http://www.w3.org/2000/svg"><path d="m63.88 29.08c-.46-2.08-2.48-5.08-9.54-7.94a41.31 41.31 0 0 0 -13.87-2.46 3.57 3.57 0 0 0 -2.54-3.33 12.14 12.14 0 0 0 -2.63-.2 3.46 3.46 0 0 0 -.2-1.69l-.1-.19a2.6 2.6 0 0 0 .23-.37c.46-.84.42-1.91.19-3.6v-.11a2.44 2.44 0 0 0 -2.4-2.27 2.71 2.71 0 0 0 -1.19.29 2.52 2.52 0 0 0 -.59.43c-.06-.53-.05-2 0-2.66s0-1.11 0-1.31a2.26 2.26 0 0 0 -2.24-2.17 2.9 2.9 0 0 0 -1.76.66c-.75.59-1 1.42-1 3.56a2.62 2.62 0 0 0 -2.31-1.63 2.15 2.15 0 0 0 -1 .22 2.51 2.51 0 0 0 -1.19 2.57v.52a2 2 0 0 1 -.13.33 3.6 3.6 0 0 0 -.33 1.38 3.16 3.16 0 0 0 .5 1.89 3.38 3.38 0 0 0 -.52 1.41 4.58 4.58 0 0 0 .89 2.84c-4 .14-5.64.37-6.52 1.32-.28.3-.86.93-1 3.55-1.07.2-2.62.51-4.52 1-3.8.92-5.77 1.88-8.1 4-1.56 1.35-3.01 3.88-1.01 7.98.69 1.37 4.09 7.37 6 10.66a4.4 4.4 0 0 0 -1.17.68 2.49 2.49 0 0 0 -.83 2.56 2.33 2.33 0 0 0 1.88 1.67h.14a3.17 3.17 0 0 1 .63.52 6.14 6.14 0 0 1 .76 1.3 24.56 24.56 0 0 0 2 3.46 10.38 10.38 0 0 0 3.17 3.12c0 .09.07.19.11.29a8.62 8.62 0 0 0 3.11 3.64 6 6 0 0 0 3.08.9 8.67 8.67 0 0 0 2.59.43h.42a9 9 0 0 0 3.1-.54l1 .13a3.88 3.88 0 0 0 .84.29 8.18 8.18 0 0 0 2.22.32 7.19 7.19 0 0 0 3.31-.8 8 8 0 0 0 2.82-2.41 6.93 6.93 0 0 0 1.06.08h.63a4.73 4.73 0 0 0 2.31-.89 5.74 5.74 0 0 0 3.29.83h.64a4.83 4.83 0 0 0 2-.48c.43.44.94.94 1.51 1.46a6.31 6.31 0 0 0 4.27 1.68 7.45 7.45 0 0 0 3.74-1.11 6.36 6.36 0 0 0 3.27-6.89 7.74 7.74 0 0 0 -1.64-3.32 9.93 9.93 0 0 0 .89-1c1.54-2 1.45-4 1.36-5.94a4.83 4.83 0 0 1 .49-2.15 2.64 2.64 0 0 0 .28-1.59 2.23 2.23 0 0 0 -.28-.7c1.47-3 2.92-5.92 3.18-6.4a5 5 0 0 0 .7-3.82z" fill="#fff"/><path d="m9.86 45s-6.22-10.92-7.14-12.77-1.35-4 .63-5.75 3.65-2.65 7.27-3.54 6-1.21 6-1.21-.12-3.28.42-3.87 4-.67 7.19-.76 12.23-.12 13.2.13 1.13 1.43 1.13 2.14v1.26s8.24-.42 15 2.31 8.17 5.43 8.44 6.56a3.14 3.14 0 0 1 -.42 2.36c-.21.29-4.08 8.19-4.08 8.19s.84 0 .88.3a9.33 9.33 0 0 0 -.8 3.44c.09 1.85.13 3.24-1 4.67a6 6 0 0 1 -2.27 1.89s2.35 2.06 2.64 3.91a4.47 4.47 0 0 1 -2.31 5c-2.14 1.22-4 1.18-5.76-.42a31.23 31.23 0 0 1 -2.86-2.94s.09 1.34-2 1.47-2.82-.51-3.16-.8-.79-.63-.79-.63a3.75 3.75 0 0 1 -2.36 1.51 5.06 5.06 0 0 1 -2.42-.45 6.08 6.08 0 0 1 -2.77 3 5.74 5.74 0 0 1 -4.29.29 1.49 1.49 0 0 1 -.59-.25l-1.93-.25a6.41 6.41 0 0 1 -3.15.58c-1.94-.08-2.27-.46-2.27-.46a3.84 3.84 0 0 1 -2.48-.59 6.66 6.66 0 0 1 -2.36-2.69 8 8 0 0 1 -.33-1s-1.35-.26-3.15-2.82-2.11-4.16-3-5-1.3-1-1.77-1-.46-.55-.12-.85a7.31 7.31 0 0 1 2.78-.96z" fill="#604f58"/><path d="m59.34 33a18.71 18.71 0 0 0 -2.48 1.14 62.45 62.45 0 0 1 -12.07 3.11 97.62 97.62 0 0 1 -23.07.38c-10.89-.93-15.13-3.91-15.3-4s-.59-.29-.8 0 6.18 11.26 6.18 11.26a7.37 7.37 0 0 1 2.1 1.51 15.11 15.11 0 0 1 .1-2.82 2.93 2.93 0 0 1 .91-1.58c.17-.21.75-.26.88 0a12.16 12.16 0 0 1 0 2.22 10.39 10.39 0 0 0 .71 1l1.85 2s.76-1.56.89-1.81a2.08 2.08 0 0 1 1.51-.41c.38.13.08.3-.08.72a23.48 23.48 0 0 0 .16 3.49c0 .33.47.37 1 .84s1.3 1.21 1.3 1.21a2.24 2.24 0 0 0 .85-.84c.33-.58 1.72-2.22 2.1-2.85s1-1 1.13-1 .21.84.42 2a2.73 2.73 0 0 0 1.56 1.89c.17 0 .46 0 1-.72a7.63 7.63 0 0 0 .84-3c0-.29 0-1 .21-1.18a.64.64 0 0 1 1 .38 29.69 29.69 0 0 0 1 3.28 4.32 4.32 0 0 1 -.01 2.78 5 5 0 0 0 .8-.76c.26-.33.42-.46.72-.25s.59 1.47.59 1.47a4.4 4.4 0 0 0 1.47-1.22 24.69 24.69 0 0 0 1.19-3.12s.33-.5.63-.54.75 1.85.75 1.85l1 1.89a17 17 0 0 1 1-1.94 3.81 3.81 0 0 1 1.31-.88l-1.14-1.76a4.41 4.41 0 0 1 -2.06-.43c-1-.5-1.26-3.74.51-5.29s4.83-2.82 6.55-1.18a3.31 3.31 0 0 1 1 3.45l2.78 2.9s.01-.19 1.23-2.19a4.6 4.6 0 0 1 3.2-2.27l.84-1.73c.12 0-2.44-2.65-2.36-3s.93-.47.93-.47 1.55 1.92 1.9 2.56c.25-.45.56-1 .88-1.59a11 11 0 0 1 -1.52-1.64c0-.17.67-.71.88-.59a7.21 7.21 0 0 1 1.21 1.22l1.65-2.9s.29-.47.17-.59z" fill="#8a6e6e"/><path d="m8.56 46.06s2.44-.75 3.53.13 2.15 1.6 2.48 1.47.34-.71.34-.71-.3-1.73 0-1.81.71 1 1.22 1.55a8.76 8.76 0 0 0 1.76 1.31s-.71 1.72-1 2.69a4 4 0 0 0 -.26 1.31 1.42 1.42 0 0 1 -.63-.3c-.25-.26-.38-.85-.76-.76s-.58.88-.58.88l.34 2.44a10.16 10.16 0 0 1 -2.81-2.52c-1.18-1.6-1.14-3-1.9-4.16a4.1 4.1 0 0 0 -1.73-1.52z" fill="#f6c687"/><path d="m13.35 51.06a3.91 3.91 0 0 1 -.71-2.1c0-.54.29-1.05.59-1s1.38.84 2.1 1 1 .17.92.42a3.78 3.78 0 0 1 -.63.71s-1.26-.54-1.47-.59-.46-.08-.29.34-.04 1.39-.51 1.22z" fill="#604f58"/><path d="m15.75 52.62c.19-.24.71.8 1.26.8s.59-.34.59-.34a7.77 7.77 0 0 1 .4-3.28c.58-1.47 1.59-3.23 1.8-2.94s-.16 2 .26 2.9a4 4 0 0 0 1.72 2 12 12 0 0 0 1.26.59 6.37 6.37 0 0 0 .23 3.65 37.36 37.36 0 0 0 2.19 3 3.53 3.53 0 0 1 -2.27.25 11.37 11.37 0 0 1 -2.61-.25c-.25-.21-.63-.46-.63-.46s-.5.54-2.06-.59a5 5 0 0 1 -2.14-3.28 8.19 8.19 0 0 1 0-2.05z" fill="#ef7d7b"/><path d="m21.63 57.58a8.72 8.72 0 0 1 -2.06-2.14c-.67-1-.63-2.27-.16-2.32s1.3 1 1.76 1.18 1 .25.55.46-.89 0-1 .21.16.93.84 1.39 1 .59.92.84-.85.38-.85.38z" fill="#604f58"/><path d="m26.85 58.84c-.3-.25-2.9-2.23-2.9-4.5a6.14 6.14 0 0 1 1.34-4l1.35-1.64s.75 2.6 2.14 2.94 1.93-.88 2.35-1.22a7 7 0 0 0 1.05-1.72 5.4 5.4 0 0 1 .13 2.86c-.42 1.13 0 1.72.29 1.85a.68.68 0 0 0 .76-.09c.13-.17 1-1.09 1-1.09a4.81 4.81 0 0 1 .21 3.49 6 6 0 0 1 -3.45 3.61 6.15 6.15 0 0 1 -2.52.26z" fill="#f6c687"/><path d="m27.39 57.41a5.82 5.82 0 0 1 -1.05-3.11c0-1.51 0-1.93.38-1.68s1.26 2 1.85 2.56.76.84.5.89a6.52 6.52 0 0 1 -1.47-.55s-.17.46.09.63.88.55.75.93-1.05.33-1.05.33z" fill="#604f58"/><path d="m30.67 56.66a5.05 5.05 0 0 0 1-1c.3-.47.51-.89.59-.55a1.9 1.9 0 0 1 -.38 1.51 3.14 3.14 0 0 1 -1.05.84s-.54-.46-.16-.8z" fill="#604f58"/><path d="m35.8 53.25s.59.25 1.68-1 1.3-2.44 1.51-2.31a6.1 6.1 0 0 1 1 3.86 4.41 4.41 0 0 1 -2.77 2.91 1.48 1.48 0 0 1 -1.56-.59s.13-.72.17-1.31-.03-1.56-.03-1.56z" fill="#ef7d7b"/><path d="m41.05 52a14.79 14.79 0 0 1 1-1.39 1.44 1.44 0 0 0 .92 1.1 3.53 3.53 0 0 0 1.39.29s.63 2 .88 2.52.34.72.26.84-.26.84-1.9.84a3.94 3.94 0 0 1 -2.73-1.3 4.7 4.7 0 0 0 .21-1.6 10.47 10.47 0 0 1 -.03-1.3z" fill="#f6c687"/><path d="m42.65 53.38c-.09-.31.55-.68.63-.55s0 1 .42 1.3.76.55.42.72a.85.85 0 0 1 -.71 0c-.26 0-.59-.85-.76-1.47z" fill="#604f58"/><path d="m41 45.47c-.13 0-1.47 0-1.39-1.09a4.64 4.64 0 0 1 2.78-3.82c2-.89 3.82-.68 4.33.42s.17 1.59.17 1.59-1.73-1.47-2.27-1.47a4.65 4.65 0 0 0 -2.62 1.47 4.44 4.44 0 0 0 -1 2.9z" fill="#a8a1a7"/><path d="m43.36 45.47s.64-1.55 1.69-1.47 8.4 8.2 8.91 9.42.92 2.1.46 3.07-1.89 1.68-3.78.84-7.28-11.86-7.28-11.86z" fill="#f6c687"/><path d="m51.35 47a6.13 6.13 0 0 1 2.31-3.66 7 7 0 0 1 3-1s-.21 2.44-.17 3.28a5 5 0 0 1 -1.55 3 5.78 5.78 0 0 1 -1.39.88z" fill="#ef7d7b"/><g fill="#604f58"><path d="m52.61 46.78a17.74 17.74 0 0 1 1.26-1.73c.51-.54 1.35-.63 1.39-.5a1.17 1.17 0 0 1 -.25.76 7.46 7.46 0 0 0 -1.18 1.47c-.25.5-.5 1-.71 1s-.59-.62-.51-1z"/><path d="m50 43.83c-.13-.12-2.06-1.89-2-2.39s.34-.8.59-.72 2.23 2.53 2.06 2.74a1.83 1.83 0 0 1 -.65.37z"/><path d="m51.48 42c-.09-.21-2.31-2.32-2.15-2.69s.26-.47.55-.43a13.45 13.45 0 0 1 2.31 2.78c0 .2-.71.34-.71.34z"/><path d="m53.33 41.06c-.09-.21-2-2.48-1.94-2.73a.81.81 0 0 1 .93-.38c.29.17 2 2.35 1.89 2.65s-.88.46-.88.46z"/></g><path d="m6.21 31.65c-1.52-1-3.2-1.94-1.43-3.75s5.38-2.77 11.68-3.78a80.74 80.74 0 0 1 19.84-1.05c8.54.5 14.38.84 18.83 2.9s4.5 3.41 4 4.25a9.49 9.49 0 0 1 -3.7 2.35c-1 .29-1.77.46-1.77.46s.59-1.34-1-1.34a3.58 3.58 0 0 0 -2 .33s0-1.34-2-1.51-2.52.34-2.52.34a9.62 9.62 0 0 0 0-1.81c-.13-.55.08-.42-.42-.38a10.24 10.24 0 0 0 -3.41 1.68 6.51 6.51 0 0 0 -1.55 1.47 2.32 2.32 0 0 0 -2.61-1.17 5 5 0 0 0 -2.56 1 3.38 3.38 0 0 0 -2.59-.42 3 3 0 0 0 -2.1 1.69 5.06 5.06 0 0 1 -1.3-.72 1 1 0 0 1 0-1.09 1.68 1.68 0 0 0 -.13-1.43c-.21-.13-1.3 1-2 1.64s-.67 1-.88.92-.5-.21-.42-.42.55-2.14 0-2.35a2.07 2.07 0 0 0 -1.34.21s-1.83 1.33-2.4 1.93-.92 1-.92 1a2.11 2.11 0 0 0 -2.69-1 5 5 0 0 0 -2.44 1.52 6.2 6.2 0 0 0 -2.44 0c-.88.29-1.09.88-1.3.88a29.08 29.08 0 0 1 -6.43-2.35z" fill="#a8a1a7"/><path d="m14.57 34.17a1.64 1.64 0 0 1 1.43-.17c.88.25 1 .34 1.13.09s.3-2 2.19-1.64 2 .58 2 .92-.17.76.16.84a.46.46 0 0 0 .51-.21 4.21 4.21 0 0 1 1.59-2.14c1.31-1 1.9-1.64 1.94-1.26s-.55 1.47-.17 1.93a2 2 0 0 0 1 .59l-.67 1a3.7 3.7 0 0 0 -2-.47 1.93 1.93 0 0 0 -1.42 1.35c0 .29.34.46 0 .46s-5.67-.46-7.69-1.29z" fill="#f6c687"/><path d="m23.19 35.26s-.13-.46.88-.46a2 2 0 0 1 1.68.59c.13.21.17.29-.08.33a13.91 13.91 0 0 1 -2.48-.46z" fill="#ef7d7b"/><path d="m26.8 35.6s-.5-.59-.46-.8a13.92 13.92 0 0 1 1.22-1.6c.38-.5.38-1 .59-1.26s.63-.72.63-.34-.21 1.26.5 1.77 1.43.46 1.26.88-1.42.59-1.84 1 .16.34-.43.42a7.68 7.68 0 0 1 -1.47-.07z" fill="#afc68c"/><path d="m29.91 35.55a5.64 5.64 0 0 0 1-.54c.76-.46.68-.93.68-.93a2.48 2.48 0 0 0 2 .55 3.65 3.65 0 0 0 2.48-1.26c.25-.38-.17-.63.21-1.14s2.1-1.47 3.11-.75 1.3 2.39 1.85 2.86.55.29.76.54.29.42 0 .51a9.2 9.2 0 0 1 -1.43 0s.21-.84-.21-1a.56.56 0 0 0 -.8.38c0 .25 0 .71-.21.8s-7.12.49-9.44-.02z" fill="#f6c687"/><path d="m37.14 33.24c.36 0 .47.67.47.89s.21.33.54.33.68.25.3.38-1.43.46-1.81.08.17-1.64.5-1.68z" fill="#604f58"/><path d="m32.14 33.16c.13 0 .93.21 1.14-.13s.08-1 .59-1.09 1.47.21 1.34 1-1.13 1-1.93 1-1.56-.66-1.14-.78z" fill="#ef7d7b"/><path d="m41.18 32.32a13.41 13.41 0 0 0 2.73-1.39c.51-.5 1-1.34 1.3-1.09s.3 2.14-.54 2.86-2 1.93-2.19 1.76-1.43-1.81-1.3-2.14z" fill="#afc68c"/><path d="m43.62 34.8c-.47-.22 1.93-1.73 2.27-2.06s1.09-1.52 1.3-1.56 2.48.21 2.69.76.34.84-.08 1.18-.8.58-.89.46a4.94 4.94 0 0 1 -.8-1c-.16-.42-.25-.59-.46-.38s-.59.59-.33 1 1.43 1.39 1 1.47-3.65.63-4.7.13z" fill="#f6c687"/><path d="m49.92 33.83a2.17 2.17 0 0 1 1.22-1c.93-.33 1.6-.17 1.72.09s-.12.58-.12.58-1.6.34-2.1.47a.71.71 0 0 1 -.72-.14z" fill="#ef7d7b"/><path d="m17.77 21.26a8.54 8.54 0 0 1 -.05-2.56c.26-.3 6.27-.93 10.13-.84s8.83 0 9.13.33a9.18 9.18 0 0 1 .5 2.44 183.88 183.88 0 0 0 -19.71.63z" fill="#f6c687"/><path d="m24.11 14.66s-1-1.34-.92-2.06.88-1.21.76-1.72-.76-1-.72-1.64.17-.59.38-1.26 0-1.81.21-1.93.71.29.76.88-.55 1.6-.3 2.19.72.75.72 1.72a2.87 2.87 0 0 1 -.3 1.43c-.08.29-.5.17-.21.8s.8.79.59 1.17-.76.63-.97.42z" fill="#604f58"/><path d="m28.11 14.58a2.09 2.09 0 0 1 0-1.89 5.36 5.36 0 0 0 .89-3.07c-.21-.76-.76-1-.76-1.43s-.24-4.19.16-4.5.84-.42.88.13a41.8 41.8 0 0 0 .13 4.41c.21.72 1.13 1.31.76 2.61s-1.05 1.51-1.05 2.48.37 1 .12 1.34-1.05.13-1.13-.08z" fill="#604f58"/><path d="m32.6 15a6.34 6.34 0 0 1 -.42-2.78c.17-.58.59-.5.59-1.64s-.38-1.42 0-1.59.71-.13.8.5a6.51 6.51 0 0 1 0 2.52c-.25.47-.67.47-.55 1.22s.51 1.43.34 1.68a.45.45 0 0 1 -.76.09z" fill="#604f58"/></svg>