<svg height="64" viewBox="0 0 64 64" width="64" xmlns="http://www.w3.org/2000/svg"><path d="m27 61.05a25.15 25.15 0 0 1 -3.79-.29c-5.68-.88-11.37-5-14.52-8.3a25 25 0 0 1 -4-5.58 15.05 15.05 0 0 1 -4.44-6.88c-1.25-5 2.55-10 4.25-12 2.26-2.58 9.37-6.82 16.86-8.06a46.81 46.81 0 0 1 7.56-.56 64.12 64.12 0 0 1 6.71.35c2.28-2.12 9.89-9.15 12-11.15 1.31-1.2 5.76-5.14 9.17-5.58a9.33 9.33 0 0 1 1-.06 6.38 6.38 0 0 1 5.2 2.29c1.07 1.45 1.31 4.25.58 6.5-.18.54-.7 2.13-14.86 14.13a10 10 0 0 1 3.43 6.87c.1 4.12-1.68 8-2.54 9.85l-.28.62c-2.71 6.27-5.67 10.83-8.6 13.27a21.34 21.34 0 0 1 -13.73 4.58z" fill="#fff"/><path d="m61.43 6.37a4.76 4.76 0 0 0 -4.43-1.43c-2.09.26-5.49 2.69-8 5.06s-12.7 11.75-12.7 11.75a57.88 57.88 0 0 0 -14.62.1c-6.86 1.15-13.68 5.06-15.68 7.43s-4.8 6.56-3.87 10.19a13.23 13.23 0 0 0 4.16 6.19 22.9 22.9 0 0 0 3.8 5.46c2.43 2.53 7.83 6.86 13.42 7.73s11.79-.37 16-3.87 7.43-11.08 8.06-12.55 2.76-5.46 2.66-9.66-4.56-6.85-4.56-6.85 15.5-13.06 16.06-14.79a6.16 6.16 0 0 0 -.3-4.76zm-2.43 5.23c-1.8 2.19-15.15 13.22-15.15 13.22s-4.49-2.5-5.46-2.63c-.19 0 13.59-12.39 16-14s4.41-1.35 5.11-.79 1.27 2-.5 4.2z" fill="#604f58"/><path d="m4.33 38.5c-.53-1.7.6-6.13 5.83-9.59s10.55-5.43 20.34-5.29 14.62 3.86 16.25 6.69a9 9 0 0 1 -1.33 10.12c-2.67 3.07-9.09 6.46-17 7.36a35 35 0 0 1 -19.31-3 8.34 8.34 0 0 1 -4.78-6.29z" fill="#ddeff2"/><path d="m9.66 47.36c.2-.1 4.49 2 8.82 2.46a42 42 0 0 0 13.52-.82c5-1 12.78-5.66 13-5.62a6.09 6.09 0 0 1 -.5 2.23c-.17.23-4.5 9-12.12 10.82a21.76 21.76 0 0 1 -17.85-3.53c-3.37-2.61-5.14-5.41-4.87-5.54z" fill="#ddeff2"/><g fill="#604f58"><path d="m21 51.22a8.13 8.13 0 0 0 2.76.8c1.63.23 3 0 3 .17s.3.5-.1.66a7.64 7.64 0 0 1 -3.53-.1c-1.87-.36-2.33-.56-2.43-.7s.11-.9.3-.83z"/><path d="m18.61 51.92c.36.15 1 1.57 4.63 1.86s4 .3 4.1.4.06.67.06.67a16.66 16.66 0 0 1 -6-.4c-2.67-.83-3.07-1.16-3.23-1.43s.21-1.2.44-1.1z"/><path d="m23 50.85c0-.13.73-.16.77 0s.66 4.63.56 4.73-.7 0-.7 0-.72-4.43-.63-4.73z"/><path d="m29.14 51.52c.06-.13.93-.27 1 0a29.5 29.5 0 0 1 -.36 4.73c-.2.1-.54.3-.64.07s0-4.8 0-4.8z"/><path d="m31.77 51.15c0-.11.76-.2.86 0a18.26 18.26 0 0 1 -.13 4.23c-.23.23-.6.53-.67.37s-.1-4.5-.06-4.6z"/><path d="m35 50c0-.17.7-.53.84-.27a21.37 21.37 0 0 1 -.14 4.4c-.16.16-.56.5-.63.36s-.07-4.3-.07-4.49z"/><path d="m29.47 52.35a28.94 28.94 0 0 0 7.46-2c3.49-1.57 4.09-2.57 4.29-2.47s.34.17.24.43-.8 1.4-3.8 2.7a18.08 18.08 0 0 1 -6.33 1.8 9.15 9.15 0 0 1 -1.86.07z"/><path d="m28.67 54.68a27.51 27.51 0 0 0 5-.73 24.13 24.13 0 0 0 3.53-1.06 1.24 1.24 0 0 1 -.14.66 14.35 14.35 0 0 1 -3.46 1.27 31.25 31.25 0 0 1 -5 .63c-.13-.07-.03-.8.07-.77z"/><path d="m6.86 35c.1-.2.5-.8.6-.67a15.69 15.69 0 0 0 3.1 5.46c2.33 2.6 3.16 3.2 3.16 3.36s-.3.4-.3.4a19.19 19.19 0 0 1 -4.2-3.55 12.92 12.92 0 0 1 -2.36-5z"/><path d="m6.73 38.83s-.37-2.76 4.39-6.19a34.75 34.75 0 0 1 10.32-5.19c.47 0 .67.23.57.36s-6 1.8-9.82 5.26-4 3.8-4.33 4.5-.2 1.46-.33 1.6-.8-.34-.8-.34z"/><path d="m9 41.17s.5-2.77 3.93-5.5a24.14 24.14 0 0 1 8.86-4.49c1.47-.27 2.13-.17 2.1 0s0 .26-.17.46a18.57 18.57 0 0 0 -7.82 3.17c-3.73 2.83-4.3 3.33-5 4.46s-1 2.53-1.1 2.59-.8-.69-.8-.69z"/><path d="m14.42 39.33a15.41 15.41 0 0 1 6.58-4.19 24.41 24.41 0 0 1 9.25-1c.07.17 0 .7-.13.77a23 23 0 0 0 -8.63 1.19 18.72 18.72 0 0 0 -6.36 4.17c-.24.03-.71-.94-.71-.94z"/><path d="m17 43.9a13.78 13.78 0 0 1 6.53-4.53 25.48 25.48 0 0 1 10-1.3c.1.17.16.73-.23.83s-4.9-.23-8.66 1.1-6.33 4.13-6.64 4.3-1.25-.1-1-.4z"/><path d="m23.68 44.06a9.21 9.21 0 0 1 4.62-2.23c3.17-.66 4.7-.17 4.8 0s-.07.66-.3.7a10.73 10.73 0 0 0 -4.33.5 11.91 11.91 0 0 0 -3.76 1.86c-.3.11-1.2-.63-1.03-.83z"/><path d="m28.47 25.68c.07-.29 3.3 0 6.89 1s4 1.57 4 1.77-.3.5-.3.5a15.24 15.24 0 0 0 -4.56-1.44 30.39 30.39 0 0 0 -6-.56c-.13-.07-.06-1.13-.03-1.27z"/><path d="m31.1 25.08a3.52 3.52 0 0 1 1.1.17c.17.1.23 3.06 0 7.26s-1.37 8.32-1.67 8.49-.66.1-.63-.07a34.89 34.89 0 0 0 1.37-8.79c.03-4.46-.17-7.06-.17-7.06z"/><path d="m37.19 26.41s.74 0 .9.17.5 2.7-.5 6.43a70.39 70.39 0 0 1 -3.49 9.79c-.2.06-.54-.17-.54-.27s2.64-5.93 3.17-10.16a41.93 41.93 0 0 0 .46-5.96z"/><path d="m42 28.45a1.6 1.6 0 0 1 .93.23 13.15 13.15 0 0 1 -2 7.62 53.37 53.37 0 0 1 -4.57 6.7c-.2.1-.66-.3-.6-.4s3.57-4.53 4.9-8.09a18.59 18.59 0 0 0 1.34-6.06z"/><path d="m40.22 42.1a36.54 36.54 0 0 0 3.87-4.63c1.1-1.8 1.13-2.3 1.33-2.33a1.09 1.09 0 0 1 .73.53c0 .17-.56 1.6-2.8 4.33s-2.76 2.8-2.86 2.73a2.41 2.41 0 0 1 -.27-.63z"/><path d="m10.42 30.44c.11-.24.9-.16.9-.16a19.79 19.79 0 0 0 1.43 4.59 26 26 0 0 0 4.3 6c.7.76 1 .9.87 1a1.5 1.5 0 0 1 -.47.27s-2.07-1.07-4.6-4.8-2.53-6.66-2.43-6.9z"/><path d="m16.65 31.71c0-.2.7-.47.83-.1a15 15 0 0 0 2.3 7.39c2.43 3.86 3.22 4.66 3.22 4.9s-.23.46-.33.43a16.82 16.82 0 0 1 -4.46-5.86 13.51 13.51 0 0 1 -1.56-6.76z"/><path d="m21.05 30.11c.19-.1.73-.23.83-.13s2.79 10.75 2.59 11.29-.49.43-.49.43-1.8-6.59-2.3-8.53a25 25 0 0 1 -.63-3.06z"/><path d="m25.07 26.21c.24 0 .84-.29 1-.1a21.79 21.79 0 0 1 1.33 6.1c.47 4 0 8.19-.16 8.19s-.4 0-.44-.07a59.19 59.19 0 0 0 -.7-9.59c-.79-3.63-1.03-4.53-1.03-4.53z"/><path d="m28 29.68a37.3 37.3 0 0 1 8.22.66c4.4.8 8.39 3.7 8.39 4s0 .66-.26.56a17.61 17.61 0 0 0 -8.13-3.33c-5.09-.73-7.92-.73-8.09-.8s-.36-.96-.13-1.09z"/><path d="m33.7 33.94a12.57 12.57 0 0 1 4.93.93c2.23 1 3.49 2.2 3.43 2.43s-.24.4-.34.4a9.68 9.68 0 0 0 -3.16-1.76c-2.16-.73-4.53-.54-4.76-.87s-.3-1.07-.1-1.13z"/><path d="m36.5 38a11.31 11.31 0 0 1 3.89 1.07c1.67.73 2.1 1.13 2.07 1.3s-.17.46-.47.46a20.11 20.11 0 0 0 -3.2-1.36 16.07 16.07 0 0 1 -2.43-.6 1.14 1.14 0 0 1 .14-.87z"/><path d="m29 45.29a10.62 10.62 0 0 0 2.83.07c1.1-.3 1.9-.86 2.1-.8s.16.5.16.5.17.77-2 1.23-3 .14-3.09 0-.2-.83 0-1z"/><path d="m36.26 43.5c.06-.14.77-.24 1-.2s.33.5.2.76-.93.83-1.16.67-.14-1-.04-1.23z"/></g></svg>