<svg height="64" viewBox="0 0 64 64" width="64" xmlns="http://www.w3.org/2000/svg"><path d="m14.33 57.63a15.24 15.24 0 0 1 -6.93-1.51c-5.3-2.68-7.78-6.91-7.35-12.58a22.44 22.44 0 0 1 3.58-11.24 4.09 4.09 0 0 1 -.76-3.13c.4-2.41 1.66-3.11 2.63-3.28a4.09 4.09 0 0 1 1.27-2.46 6 6 0 0 1 1.09-.82 4.55 4.55 0 0 1 .5-2.19 3.12 3.12 0 0 1 1.91-1.52 4.65 4.65 0 0 1 2.32-.08 6.64 6.64 0 0 1 3-3 9.85 9.85 0 0 1 2.3-.72 6.58 6.58 0 0 1 1.41-2.62 4.62 4.62 0 0 1 3.48-1.73 4 4 0 0 1 1 .14 5.63 5.63 0 0 1 3.4-1.71h.45a6.53 6.53 0 0 1 3.62 1.33l.45-.34c1.45-1.13 3.44-2.68 5.37-2.81h.3a4.25 4.25 0 0 1 3.18 1.47c1.31-1.08 3.16-2.48 5.31-2.48h.28a5.3 5.3 0 0 1 3.8 1.65 5.85 5.85 0 0 1 2.58-.65 5.55 5.55 0 0 1 .82.07 4.76 4.76 0 0 1 4 4c0 .15 0 .29.07.42a3.43 3.43 0 0 1 2.15 1.47 7.42 7.42 0 0 1 .83 2.72 5.89 5.89 0 0 1 2.68 3.88c0 .17.83 3.85.19 5.69a6.81 6.81 0 0 1 .54 4.65l-.1.39c-.69 3-1.55 4.31-9.14 8.93-7.84 4.78-25.5 14.22-30.36 16a29.12 29.12 0 0 1 -9.87 2.06z" fill="#fff"/><path d="m6.21 32.06a2.71 2.71 0 0 1 -1.43-2.57c.28-1.65.92-1.74 1.43-1.7l1.42.14s-.78-1.93.46-3.08 1.91-.78 1.91-.78-.83-2.85.78-3.31a3.1 3.1 0 0 1 2.8.65s.78-2.9 2.76-3.77a5.88 5.88 0 0 1 3.19-.64 5.27 5.27 0 0 1 1.19-3.17 2.45 2.45 0 0 1 2.57-1 11.71 11.71 0 0 1 1.11.46 4.45 4.45 0 0 1 3-2.12c1.88-.18 3.31 1.7 4 1.57s3.72-3.27 5.79-3.4 2.53 2.29 3.26 2 3.22-3.17 5.56-3 2.87 1.45 2.99 1.72-.18.78.18.69 1.95-1.75 3.82-1.42a2.82 2.82 0 0 1 2.44 2.48c.14.73 0 1.24.32 1.6s1.61.1 2.16 1a8.3 8.3 0 0 1 .64 3 3.77 3.77 0 0 1 2.62 3 10.45 10.45 0 0 1 .24 4.59c-.18.27-.41.64-.41.64a4.81 4.81 0 0 1 .91 4.13c-.59 2.44-.36 3.26-8.36 8.13s-25.4 14.15-30 15.9-10.7 2.84-15.25.55-6.7-5.7-6.31-10.66 1.72-8.55 4.21-11.63z" fill="#604f58"/><path d="m49.71 36.29c-.14-.32-.1-1.19.5-1.1a5.48 5.48 0 0 1 2.23 1.09c.8-.48 1.54-1 2.22-1.39-1.19-.5-3.75-1.6-3.71-1.82s1-.78 1-.78a36.88 36.88 0 0 1 3.84 1.88c.64-.44 1.19-.84 1.63-1.2a41.61 41.61 0 0 1 -4.73-2.47c-.19-.32.27-1 .68-1a35.87 35.87 0 0 1 4.83 2.69 7.32 7.32 0 0 0 1.05-1.47 27.61 27.61 0 0 1 -3.62-2.51.69.69 0 0 1 .82-.73 18.87 18.87 0 0 1 3.12 2.37 4.4 4.4 0 0 0 -.78-3c-.78-1.61-5.78-4.18-9-4.82s-9.6-1.2-15.21.87-11.84 8.66-15.24 13.25-5.46 9.28-7.67 11.16-4.27 1.15-5.67-1.56-.65-7.58-.56-7.9-.13-.45-.23-.18c-1.94 5.42-1.3 10.24.72 12.33s6.71 4 11.35 3.5 12.72-4.85 18.42-7.89c3.47-1.85 10.21-5.45 15.45-8.55-.55-.2-1.35-.55-1.44-.77z" fill="#f6c687"/><path d="m6.89 31.42c0-.14-1.56-.78-1.19-1.93s1.7-.64 2-.23.82 1.33.68 1.43-1.49.73-1.49.73z" fill="#ef7d7b"/><path d="m9.33 30.32a4.71 4.71 0 0 1 -.83-3.26c.32-1.7.87-2.07 1.7-1.93s2.25 1.24 3.17 1.24 1.06-.14 1.1-.74a10 10 0 0 1 .33-4.45 4 4 0 0 1 3.95-2.94c1.37.18 2.2.69 2.71.55a1.39 1.39 0 0 0 .82-.46 39.23 39.23 0 0 1 3.49-4.82c1.38-1.43 2.44-1.47 3.4-1s1.11 1.56 2.48 1.24 3.72-2.8 5.1-3.17 1.52.78 2.48 1.29 1.06.6 1.56.46 2.53-1.9 4.21-2.45 2.16-.55 2.71.23.18 2.06 1.1 2.06 2-1.79 3.68-1.65 2 1.24 2 1.93a2.62 2.62 0 0 1 -.18 1.33c-.14.09-1.66-.55-2.9.09s-1.65 1.2-2.16 1.06-2.43-2.3-3.76-2-4.88 2.41-5.49 2.07-1.1-1.43-2.52-1.29a5.73 5.73 0 0 0 -2.58 1s-1.51-.73-4.41.51-4.5 4.82-5.37 5-3.08-.87-5.51.51-3.67 5.5-3.9 6.27a1.49 1.49 0 0 1 -.64 1 5.35 5.35 0 0 0 -3.21.5c-1.7.81-2.07 2-2.53 1.82z" fill="#c5dda3"/><path d="m9.37 35.23c.56 0 1.38 1.2 1.15 1.84s-2.11 1.84-1.65 4.73 1.29 2.76 1.13 3.2-.41.82-1.15.36-2.16-2.75-1.51-5.69 1.58-4.39 2.03-4.44z" fill="#f6c687"/><path d="m10.84 40.1c.2-.46 3.31-.78 2.62-3s-2.46-3.1-1.88-4.62a3.86 3.86 0 0 1 3.26-2.21c1.06-.14 2.44.37 3.17-1s.46-4.22 2.16-5.83 3-.83 4.09-.69a3.77 3.77 0 0 0 2.52-.51c.42-.32 3-4 4.92-4.73s2.89-.14 3.54.42.73 1.33 2.34 1 5.37-3.59 7.26-3.22 2.29 1.93 3.76 1.84 3.08-1.61 4.14-1.43a2 2 0 0 1 1.79 1.43c.18.73.18 1.61.92 1.88s3 .23 3.44 1.15a6.5 6.5 0 0 1 .23 2.8 7.59 7.59 0 0 0 -3.21-2.2 13.6 13.6 0 0 1 -2-.65s.36-2.57-.69-3-3 1.74-3 1.74a55.74 55.74 0 0 0 -8 0 53.4 53.4 0 0 0 -8.5 1.15 2.69 2.69 0 0 0 -2.53-.1 2.54 2.54 0 0 0 -1.51 2.07c-.09.14-1.89 1.24-3 2.11l-1.78 1.41a3.35 3.35 0 0 0 -2.57-.69c-1.33.32-2.25 2.39-2.16 3.21s.28 2.3.28 2.3a7.13 7.13 0 0 0 -3.86.92c-1.57 1.06-2.44 3.86-2 4.23s1 .5.92 1-2.11 3.59-2.85 4.64-1 1.84-1.19 1.75a2.65 2.65 0 0 1 -.63-3.17z" fill="#c5dda3"/><path d="m16.22 35.88a1.49 1.49 0 0 1 -.55-2 4.4 4.4 0 0 1 2.57-2c.87-.28 1.52-.37 1.19 0s-1.74 1.75-2.38 2.57a5.42 5.42 0 0 0 -.83 1.43z" fill="#f6c687"/><path d="m21.69 28.85a1.56 1.56 0 0 1 .18-2.34c1.24-.88 2.25-.19 2 .27s-2.05 1.84-2.18 2.07z" fill="#ef7d7b"/><path d="m51.64 19.39c-.24-.12.59-.92 1.1-.65s.78 1.38.41 1.38a5.74 5.74 0 0 1 -1.51-.73z" fill="#ef7d7b"/><path d="m13.33 25.22a6.39 6.39 0 0 0 -1.57-1c-.55-.13-.64 0-.73-.22s-.46-2.21.37-2.49 1.93.79 1.93.79-.28 2.6 0 2.92z" fill="#f6c687"/><path d="m21.64 17.78a1.14 1.14 0 0 1 -1-1.56c.36-1.22 1.36-2.76 2.24-2.53s.73.51.69.73-.92 1.2-1.33 2a8.23 8.23 0 0 0 -.6 1.36z" fill="#ef7d7b"/><path d="m37.21 16.49c-.31-.12-1.38-.83-1.33-1.24s.64-.78 1.65-.69 1.66.69 1.38 1-1.1 1.16-1.7.93z" fill="#f6c687"/><path d="m55.63 14.93a.89.89 0 0 1 1.06-.09 2.64 2.64 0 0 1 .82 1.93c.05.64 0 .78-.22.82a1.29 1.29 0 0 1 -.56-.09s-.23-2.25-1.1-2.57z" fill="#ef7d7b"/><g fill="#604f58"><path d="m12.91 49.89c.23-.23.46.32 2-.74s2-1.42 2.25-1.28.32.22.14.5a10.61 10.61 0 0 1 -2.48 2c-.92.46-.88.51-1.38.46s-1.13-.35-.53-.94z"/><path d="m20 43c.61-.39 1.51-.37 1.65.09s-.18 1.7-1.19 1.56a.92.92 0 0 1 -.46-1.65z"/><path d="m28.33 32.32c.82-.56 2-.53 2.23.13s-.25 2.41-1.61 2.22a1.35 1.35 0 0 1 -.62-2.35z"/><path d="m22.42 38.08c.2-.69 1.7-.92 2-.09s0 1.52-1 1.52a1 1 0 0 1 -1-1.43z"/><path d="m33.17 28.8c.2-.69 1.7-.92 2-.09s0 1.52-1 1.52a1 1 0 0 1 -1-1.43z"/><path d="m43.05 31.51c.19-.69 1.69-.92 2-.09s-.05 1.52-1 1.52a1 1 0 0 1 -1-1.43z"/><path d="m36.38 34.27c.2-.69 1.7-.92 2-.09s0 1.51-1 1.51a1 1 0 0 1 -1-1.42z"/><path d="m30.41 38.86c.2-.69 1.7-.92 2-.09s0 1.52-1 1.52a1 1 0 0 1 -1-1.43z"/><path d="m25.08 43c.2-.69 1.7-.92 2-.09s0 1.52-1 1.52a1 1 0 0 1 -1-1.43z"/><path d="m47.91 26.41c.2-.69 1.7-.92 2-.09s0 1.52-1 1.52a1 1 0 0 1 -1-1.43z"/><path d="m22.82 46.77c.13-.45 1.1-.6 1.28-.06s0 1-.62 1a.67.67 0 0 1 -.66-.94z"/><path d="m42.89 37.3c.13-.45 1.11-.6 1.29-.06s0 1-.63 1a.68.68 0 0 1 -.66-.94z"/><path d="m34.55 40.42a3.36 3.36 0 0 1 2.39-1.24c.91 0 1.28.6 1 .92s-.23.42-.74.46-.6-.14-1.06.28-.41.59-.82.55-1-.64-.77-.97z"/><path d="m41.44 26.69a1.94 1.94 0 0 1 1.79-1.52c1.24 0 1.93.46 1.7 1s.14.46-.51.55-1.1-.23-1.47.14-.13.73-.69.73-.96-.59-.82-.9z"/></g></svg>