<svg height="64" viewBox="0 0 64 64" width="64" xmlns="http://www.w3.org/2000/svg"><path d="m47.73 37.75c-.27-1.93-2.13-1.93-5.83-1.93-2 0-2.89 0-3.53 1a1.91 1.91 0 0 0 -.17.32c0-5.13.1-14 .09-21.11a2.44 2.44 0 0 0 1.54 1.23s0 .06 0 .08a2.39 2.39 0 0 0 2.43 1.65 2.75 2.75 0 0 0 2-.77 2.17 2.17 0 0 0 .55-.95 3.4 3.4 0 0 0 .65-.23 2.32 2.32 0 0 0 1.28-1.47 2.39 2.39 0 0 0 -.4-2 2.3 2.3 0 0 0 -1.34-1.44 5.07 5.07 0 0 0 -.12-1.07 2.2 2.2 0 0 0 -2.26-1.54 3 3 0 0 0 -2.49 1.12 1.94 1.94 0 0 0 -.33 1v.14h-.14a2 2 0 0 0 -1.36.93c0-4.13-.09-7.24-.21-7.92-.91-4.79-6.6-4.79-8.47-4.79h-.47c-2.23 0-8.15.14-8.15 5.34 0 2 .25 28.38.3 34-4.19 3.26-5.42 6.29-5.16 12.32a12.72 12.72 0 0 0 12.86 12.34h1c9.34-.65 14-5 14-13.23a13.32 13.32 0 0 0 -3.28-9.49h.34a50.8 50.8 0 0 0 5.24-.28 2 2 0 0 0 1.29-1 2.89 2.89 0 0 0 .14-2.25z" fill="#fff"/><path d="m23.24 40.25s-.31-32.75-.31-34.91 1.54-3.34 6.26-3.4 6.56 1.08 7 3.25.07 35.14.07 35.14 5.95 2.16 5.87 10.43-5.3 10.81-12.33 11.24a10.85 10.85 0 0 1 -11.74-10.5c-.23-5.5.7-8 5.18-11.25z" fill="#604f58"/><path d="m39.07 50.06c-.46-6.49-4.94-7.65-5.33-8-.11-.09-.15-2.94-.17-7l-.23.07s-2.62-2.26-2.57-2.68.58-.78.74-.73 1.2 1 2.06 1.79v-1.08a25.34 25.34 0 0 1 -2.69-2.82c-.06-.31.15-.78.63-.63a15 15 0 0 1 2.05 1.63c0-.5 0-1 0-1.52a17.73 17.73 0 0 1 -2.49-2.16c-.11-.36 0-.89.52-.89a7.49 7.49 0 0 1 2 1.38v-1.49a7.58 7.58 0 0 1 -2-1.5c-.1-.42-.31-1.15.11-1.15a6 6 0 0 1 1.87.85c0-9.12.09-18.36 0-18.71-.16-.7-3.25-.93-4.48-.93s-2.9.32-3.09 1c-.16.54.15 35.52.08 36s-5.64 3.16-5.41 8.88 5.1 8.26 9 8.34 9.87-2.16 9.4-8.65z" fill="#f9f2ed"/><path d="m44.48 14.15c-.07-.24-.66-.38-1.42-.46a18.55 18.55 0 0 0 -.06-2.09c-.07-.27-1.12-.12-1.27.11v1.93a11.27 11.27 0 0 0 -1.75.12s-.31 1.39.39 1.54a8.34 8.34 0 0 0 1.35.12 10.36 10.36 0 0 0 0 1.31c.08.27.85.35 1.16 0a3.69 3.69 0 0 0 .12-1.3 4.87 4.87 0 0 0 1.52-.2c.65-.31.11-.54-.04-1.08z" fill="#604f58"/><path d="m40 37.82c.13-.19 5.79-.12 5.83.15s.35 1.09 0 1.16-5.83.35-5.95.12a2.68 2.68 0 0 1 .12-1.43z" fill="#604f58"/><path d="m28.18 44.81c.27 0-.35-6.49-.23-6.91s1.35-1 2.12-1 2 .27 2 .77-.07 6.98-.07 6.98a4.87 4.87 0 0 1 3.12 4.83c0 3.86-2.66 5.25-5.48 5.14s-4.87-2.47-4.87-4.25.52-5.1 3.41-5.56z" fill="#83a7d8"/></svg>