<svg height="64" viewBox="0 0 64 64" width="64" xmlns="http://www.w3.org/2000/svg"><path d="m47.73 37.75c-.28-1.93-2.13-1.93-5.83-1.93-2 0-2.89 0-3.53 1a1.31 1.31 0 0 0 -.17.31c0-5.13.1-14 .09-21.1a2.45 2.45 0 0 0 1.54 1.22.29.29 0 0 1 0 .09 2.4 2.4 0 0 0 2.43 1.64 2.75 2.75 0 0 0 2-.77 2.28 2.28 0 0 0 .55-.95 2.85 2.85 0 0 0 .64-.23 2.34 2.34 0 0 0 1.29-1.47 2.39 2.39 0 0 0 -.4-2 2.3 2.3 0 0 0 -1.34-1.43 4.94 4.94 0 0 0 -.12-1.07 2.21 2.21 0 0 0 -2.27-1.54 3 3 0 0 0 -2.48 1.12 1.86 1.86 0 0 0 -.33 1v.14h-.14a2 2 0 0 0 -1.36.93c0-4.13-.09-7.24-.21-7.92-.91-4.79-6.6-4.79-8.47-4.79h-.47c-2.23 0-8.15.14-8.15 5.34 0 2 .25 28.38.3 34-4.19 3.26-5.42 6.29-5.16 12.32a12.72 12.72 0 0 0 12.86 12.34h1c9.34-.65 14-5 14-13.23a13.32 13.32 0 0 0 -3.28-9.49h.34a50.8 50.8 0 0 0 5.24-.28 2 2 0 0 0 1.29-1 2.89 2.89 0 0 0 .14-2.25z" fill="#fff"/><path d="m23.24 40.25s-.31-32.75-.31-34.91 1.54-3.34 6.26-3.4 6.56 1.08 7 3.25.07 35.14.07 35.14 5.95 2.16 5.87 10.43-5.3 10.81-12.33 11.24a10.85 10.85 0 0 1 -11.74-10.5c-.23-5.5.7-8 5.18-11.25z" fill="#604f58"/><path d="m39.07 50.06c-.46-6.49-4.94-7.65-5.33-8s-.17-16.06-.13-26.89a31.57 31.57 0 0 1 -2.94-3.07c-.06-.31.15-.79.63-.63a17.62 17.62 0 0 1 2.32 1.86v-1.54a20.18 20.18 0 0 1 -2.75-2.37c-.11-.37 0-.89.52-.89a9.14 9.14 0 0 1 2.24 1.6v-1.55a8.88 8.88 0 0 1 -2.24-1.66c-.1-.42-.31-1.15.11-1.15a6.49 6.49 0 0 1 2.12 1c0-.79 0-1.29 0-1.36-.16-.7-3.25-.93-4.48-.93s-2.9.32-3.09 1c-.16.54.15 35.52.08 36s-5.64 3.16-5.41 8.88 5.1 8.26 9 8.34 9.82-2.15 9.35-8.64z" fill="#f9f2ed"/><path d="m44.48 14.15c-.07-.24-.66-.38-1.42-.46a18.55 18.55 0 0 0 -.06-2.09c-.07-.27-1.12-.12-1.27.11v1.93a11.27 11.27 0 0 0 -1.75.12s-.31 1.39.39 1.54a8.34 8.34 0 0 0 1.35.12 10.36 10.36 0 0 0 0 1.31c.08.27.85.35 1.16 0a3.69 3.69 0 0 0 .12-1.3 4.87 4.87 0 0 0 1.52-.2c.65-.31.11-.54-.04-1.08z" fill="#604f58"/><path d="m40 37.82c.13-.19 5.79-.12 5.83.15s.35 1.09 0 1.16-5.83.35-5.95.12a2.68 2.68 0 0 1 .12-1.43z" fill="#604f58"/><path d="m28.28 44.65s-.36-27.54-.3-28.47a1.92 1.92 0 0 1 1.9-1.9 2 2 0 0 1 2.06 1.64c0 .78-.05 28.68-.05 28.68a5.24 5.24 0 0 1 3 4.64c0 3.4-2.27 4.53-5.51 4.79s-4.12-2.58-4.28-4.38.46-4.53 3.18-5z" fill="#ef7d7b"/></svg>