<svg height="64" viewBox="0 0 64 64" width="64" xmlns="http://www.w3.org/2000/svg"><path d="m31.45 60.94c-9.07 0-17.36-4.75-20.85-9.44-4.73-6.37-6.6-13.65-5.18-19.99a33.91 33.91 0 0 1 5.92-12c-1.88-2.61-1.54-3.63-1.34-4.16.53-1.58 5.84-5.84 7.72-5.84a2.43 2.43 0 0 1 1 .23c.32.17.94.48 2.4 2.79.54-.24 1.17-.5 1.84-.74a13.21 13.21 0 0 1 -.65-6.21 2.7 2.7 0 0 1 1.63-2.16c.36-.13.95-.36 6.73-.36 9.74 0 10 .37 10.64 1.19 1.1 1.47.2 6.15.19 6.19a3.64 3.64 0 0 1 -.34.94c1.19.35 2.39.78 3.26 1.11a8.82 8.82 0 0 1 3-2.38 3.24 3.24 0 0 1 .89-.13c1.79 0 4.16 1.58 5.28 2.51a4.93 4.93 0 0 1 1.72 5.1 6.32 6.32 0 0 1 -1.4 2.18 21.33 21.33 0 0 1 4.83 10.82c.94 6.77.31 15.81-12.95 25.66a23.88 23.88 0 0 1 -14.34 4.69z" fill="#fff"/><path d="m13.94 19.57s-2.33-2.77-2.06-3.57 5.26-4.77 5.92-4.45 2.49 3.59 2.49 3.59a26.52 26.52 0 0 1 5.6-2.14c2.44-.49 2.87-.54 2.87-.54l.06-1.63s-3.8.38-4.13.05-1-5.21-.05-5.59 14.71-.27 15 .16 0 4.83-.38 5.05a21 21 0 0 1 -3.48.22v1.57a29.09 29.09 0 0 1 4.29.87c2.28.65 4.83 1.68 4.83 1.68s2.27-2.55 3.1-2.84 3 .92 4.29 2a2.93 2.93 0 0 1 1.09 3 21.4 21.4 0 0 1 -2.18 2.82 19 19 0 0 1 5.54 11c1 7.06-.32 15-12.16 23.79s-27.33 2.48-32.38-4.31-5.92-13.57-4.83-18.3a31 31 0 0 1 6.57-12.43z" fill="#604f58"/><path d="m15 18.86a15.75 15.75 0 0 1 -1.74-2.77 15.67 15.67 0 0 1 4-2.93c.49 0 2.12 2.12 2 2.44s-4.26 3.26-4.26 3.26z" fill="#f39a9b"/><path d="m30.56 12.18s-.28-1.35-.06-1.41 3.91-.22 3.91.06.11 1.19-.11 1.3-3.74.05-3.74.05z" fill="#adceea"/><path d="m25.83 9.52c-.3-.12-.22-2.87.06-2.87s11.78-.11 11.89.27.27 2.17-.27 2.33-11.41.38-11.68.27z" fill="#83a7d8"/><path d="m46.3 15.44s1.69-2.17 2.28-2.22 3.91 2.55 3.75 2.87-1.74 2.66-2.12 2.61a42.09 42.09 0 0 1 -3.91-3.26z" fill="#c5dda3"/><path d="m31.7 14.68c4.78 0 13.52 1.74 18 8.42s5.45 15.64.4 22.9-17.86 12.55-26.87 8.54-14.77-11.35-13.63-19.33 4.07-13.42 9.72-16.46 8.09-4.07 12.38-4.07z" fill="#83a7d8"/><path d="m32.4 17.45a16.42 16.42 0 0 1 16.83 15.91c.87 12.81-8.85 19.17-18.78 19s-15.8-10.09-15.97-16.36 2.52-17.19 17.92-18.55z" fill="#604f58"/><path d="m32.36 18.92a15 15 0 0 1 15.41 14.57c.8 11.73-8.1 17.55-17.2 17.4s-14.47-9.25-14.57-15.01 2.24-15.72 16.36-16.96z" fill="#f9f2ed"/><path d="m31.23 21.69c.59-.67 8.49-.83 12.07 5.93 3.42 6.44 2.53 10.83.9 13.93s-4.48 4.64-5 4.64-7.52-9.78-8.16-10.87.19-13.63.19-13.63z" fill="#604f58"/><path d="m37.93 39.81c0-.32.16-.79.63-.63a23.49 23.49 0 0 1 3.44 2.93 13.32 13.32 0 0 0 .67-1.11 30 30 0 0 1 -3.48-3c-.11-.36 0-.89.52-.89a16.16 16.16 0 0 1 3.46 2.7c.13-.35.25-.71.36-1.09a6.92 6.92 0 0 1 -1.86-1.42c-.11-.42-.32-1.16.1-1.16a6.47 6.47 0 0 1 2.13 1 12.78 12.78 0 0 0 -.68-6.55c-2.61-6.96-10.22-7.78-10.85-7.59v11.5s7 9.45 7.72 9.53c.18 0 .59-.3 1.09-.88a38.74 38.74 0 0 1 -3.25-3.34z" fill="#ddeff2"/></svg>