<svg height="64" viewBox="0 0 64 64" width="64" xmlns="http://www.w3.org/2000/svg"><path d="m31.45 60.94c-9.07 0-17.36-4.75-20.85-9.44-4.73-6.37-6.6-13.65-5.18-19.99a33.91 33.91 0 0 1 5.92-12c-1.88-2.61-1.54-3.63-1.34-4.16.53-1.58 5.84-5.84 7.72-5.84a2.43 2.43 0 0 1 1 .23c.32.17.94.48 2.4 2.79.54-.24 1.17-.5 1.84-.74a13.21 13.21 0 0 1 -.65-6.21 2.7 2.7 0 0 1 1.63-2.16c.36-.13.95-.36 6.73-.36 9.74 0 10 .37 10.64 1.19 1.1 1.47.2 6.15.19 6.19a3.64 3.64 0 0 1 -.34.94c1.19.35 2.39.78 3.26 1.11a8.82 8.82 0 0 1 3-2.38 3.24 3.24 0 0 1 .89-.13c1.79 0 4.16 1.58 5.28 2.51a4.93 4.93 0 0 1 1.72 5.1 6.32 6.32 0 0 1 -1.4 2.18 21.33 21.33 0 0 1 4.83 10.82c.94 6.77.31 15.81-12.95 25.66a23.88 23.88 0 0 1 -14.34 4.69z" fill="#fff"/><path d="m13.94 19.57s-2.33-2.77-2.06-3.57 5.26-4.77 5.92-4.45 2.49 3.59 2.49 3.59a26.52 26.52 0 0 1 5.6-2.14c2.44-.49 2.87-.54 2.87-.54l.06-1.63s-3.8.38-4.13.05-1-5.21-.05-5.59 14.71-.27 15 .16 0 4.83-.38 5.05a21 21 0 0 1 -3.48.22v1.57a29.09 29.09 0 0 1 4.29.87c2.28.65 4.83 1.68 4.83 1.68s2.27-2.55 3.1-2.84 3 .92 4.29 2a2.93 2.93 0 0 1 1.09 3 21.4 21.4 0 0 1 -2.18 2.82 19 19 0 0 1 5.54 11c1 7.06-.32 15-12.16 23.79s-27.33 2.48-32.38-4.31-5.92-13.57-4.83-18.3a31 31 0 0 1 6.57-12.43z" fill="#604f58"/><path d="m31.7 14.68c4.78 0 13.52 1.74 18 8.42s5.45 15.64.4 22.9-17.86 12.55-26.87 8.54-14.77-11.35-13.63-19.33 4.07-13.42 9.72-16.46 8.09-4.07 12.38-4.07z" fill="#83a7d8"/><path d="m32.4 17.45a16.42 16.42 0 0 1 16.83 15.91c.87 12.81-8.85 19.17-18.78 19s-15.8-10.09-15.97-16.36 2.52-17.19 17.92-18.55z" fill="#604f58"/><path d="m35.84 47.21c0-.42.58-.79.74-.74a31.65 31.65 0 0 1 2.79 2.53l.83-.44a26.85 26.85 0 0 1 -2.63-2.77c0-.31.16-.78.63-.63a22.94 22.94 0 0 1 3.17 2.66c.37-.25.72-.51 1.06-.79a31.49 31.49 0 0 1 -3.6-3c-.1-.37 0-.89.53-.89s2.88 2.08 3.92 3.16c.32-.32.63-.64.93-1a5.76 5.76 0 0 1 -1.6-1.3c-.1-.42-.31-1.16.11-1.16a6.45 6.45 0 0 1 2.4 1.25 16.23 16.23 0 0 0 2.65-10.64 15 15 0 0 0 -15.41-14.53c-14.12 1.24-16.56 11.19-16.36 16.96s5.52 14.86 14.62 15a19.53 19.53 0 0 0 7.49-1.32c-.76-.62-2.31-2.03-2.27-2.35z" fill="#f9f2ed"/><path d="m15 18.86a15.75 15.75 0 0 1 -1.74-2.77 15.67 15.67 0 0 1 4-2.93c.49 0 2.12 2.12 2 2.44s-4.26 3.26-4.26 3.26z" fill="#f39a9b"/><path d="m30.56 12.18s-.28-1.35-.06-1.41 3.91-.22 3.91.06.11 1.19-.11 1.3-3.74.05-3.74.05z" fill="#adceea"/><path d="m25.83 9.52c-.3-.12-.22-2.87.06-2.87s11.78-.11 11.89.27.27 2.17-.27 2.33-11.41.38-11.68.27z" fill="#83a7d8"/><path d="m46.3 15.44s1.69-2.17 2.28-2.22 3.91 2.55 3.75 2.87-1.74 2.66-2.12 2.61a42.09 42.09 0 0 1 -3.91-3.26z" fill="#c5dda3"/><path d="m31 35.32c-.46-.19-.22-13.2.16-13.63s6-.49 9.89 4.18 3.58 9.34 2.76 9.88-12.55-.33-12.81-.43z" fill="#604f58"/><path d="m31.7 34.28a80.1 80.1 0 0 1 .59-11.28c.1-.38 5.54.22 8 4s2.77 7.38 2.23 7.6-10.8-.2-10.82-.32z" fill="#ddeff2"/></svg>