<svg height="64" viewBox="0 0 64 64" width="64" xmlns="http://www.w3.org/2000/svg"><path d="m29.65 63.33a24.22 24.22 0 0 1 -8.65-1.53c-9.39-3.56-17-10.67-19.86-18.56-2.45-6.76-.84-17 3.76-23.78s9-10.33 14.87-11.92a26.31 26.31 0 0 1 6.84-.93 21 21 0 0 1 3.81.33 3.86 3.86 0 0 1 -.12-1.31c.24-2.45 1.87-2.71 2.56-2.71a3.64 3.64 0 0 1 2.71 1.26 2.47 2.47 0 0 1 1.82-1.3h.45a3 3 0 0 1 2.84 2.42 8.79 8.79 0 0 0 .67 1.88c.88-1.43 2-3.28 2.72-4.25.83-1.16 1.6-2.26 3.14-2.26a5.67 5.67 0 0 1 .79.07h.16c4.17.6 4.58 2.7 4.45 3.9 0 .32-.12 1.12-2 3.93.72-.3 1.26-.54 1.67-.72a5 5 0 0 1 2-.61 2.37 2.37 0 0 1 1.72.76 3.14 3.14 0 0 1 .82 3 1.86 1.86 0 0 1 .34.07c.74.21 2.35 1 1.5 4v.11a9.34 9.34 0 0 1 -2.2 2.92 14.9 14.9 0 0 1 2.07 1.9c2.47 2.63 5.79 9.5 5.47 15.6-.39 6.88-5 16.31-13 21-5.25 3.08-13.19 6.73-21.35 6.73z" fill="#fff"/><path d="m33.25 9.91a25.19 25.19 0 0 1 -1-4.09c.07-.68.14-1.16 1.09-.89s1.23 1.44 2.32 2.12l1.09.68s.07-2.8 1-2.93 1.09.88 1.09.88a8.34 8.34 0 0 0 1.43 3.32 7 7 0 0 0 1.57 1.16s2.66-4.44 3.82-6.07 1.22-1.5 2.18-1.36 2.93.47 2.79 1.77-4.84 7.43-4.84 7.43 1.43.13 4.84-1.23 3.55-1.7 4-1.29a1.07 1.07 0 0 1 .2 1.36 36.05 36.05 0 0 1 -3.54 3.41c-.89.61-1.16.75-1.16.75a7.72 7.72 0 0 0 1.84-.28c1-.27 4-1.84 4.66-1.65s.27 1.27.13 1.77a17 17 0 0 1 -2.63 2.95 5 5 0 0 1 -1.14.77 11.93 11.93 0 0 1 4.18 2.91 22.09 22.09 0 0 1 4.83 14.09c-.32 5.68-4.14 14.82-12 19.45s-18.72 8.68-28.31 5.06-16.32-10.78-18.69-17.42-.46-16.13 3.54-22 7.83-9.58 13.74-11.17 10.81-.73 12.97.5z" fill="#604f58"/><path d="m58.36 30.68c-1.37-4.77-3.91-8.32-6.73-9.45s-6.9-1.69-9.77-3a7.08 7.08 0 0 1 -3.68-3.68l-1-.6a22 22 0 0 0 -8.09-2.63 22.26 22.26 0 0 0 -22.09 13.27c-2.54 5.9-3.45 11.9-1 18.36s9 10.4 14.76 13.58a17.61 17.61 0 0 0 11 2c-.77-1.53-2.28-4.61-2.11-4.92s.82-.63 1.05-.5a40.13 40.13 0 0 1 2.61 5.2c.75-.13 1.53-.3 2.34-.5-.69-1.2-2.77-4.89-2.55-5.2s1-.68 1.23-.54a39.54 39.54 0 0 1 2.85 5.34c.59-.17 1.19-.36 1.81-.56-.74-1.43-2.57-5.08-2.39-5.37s.91-.64 1.23-.37a33.53 33.53 0 0 1 2.63 5.23c.55-.19 1.12-.4 1.7-.63-.53-1.07-2.49-5.18-2.38-5.46s.46-.73.78-.68 2.32 4.23 2.89 5.63c.75-.31 1.44-.61 2.1-.92-.55-1.23-2.2-4.28-2.05-4.65a1.07 1.07 0 0 1 1.13-.5 37.26 37.26 0 0 1 2.37 4.48c.57-.29 1.1-.59 1.6-.89a31.26 31.26 0 0 1 -1.92-4.64c0-.55.77-.95 1-.82a27 27 0 0 1 2.11 4.74 21.68 21.68 0 0 0 2.12-1.61 18.26 18.26 0 0 1 -1.69-3.51c.14-.31.91-.91 1.14-.77a15.32 15.32 0 0 1 1.72 3.18 16.81 16.81 0 0 0 1.49-1.79c-.62-1.07-1.89-3.33-1.76-3.71s.69-.91 1-.81a12.38 12.38 0 0 1 1.79 2.92c.6-1 1.1-2 1.62-3 2.18-4.18 2.5-7.45 1.14-12.22z" fill="#ef7d7b"/><g fill="#afc68c"><path d="m33.5 6.59c.14-.17 1.77 1.32 2.41 1.87a2.35 2.35 0 0 0 1 .59l.23 2.41a4.11 4.11 0 0 1 -2.46-1.32 4.31 4.31 0 0 1 -1.18-3.55z"/><path d="m38 6.87c.1-.11 1.4 2.5 2 3.27a3.87 3.87 0 0 0 1.32 1.09s-.77 1.13-.22 1.41a1 1 0 0 0 1.13-.32c.14-.14.32-.59.68-.36a1.57 1.57 0 0 1 .64.81c0 .19-.14 1.23.36 1.41s1.37-.45 4.46-1.77 5.13-2 5.13-1.77a10.35 10.35 0 0 1 -4.18 3.41c-2.5 1.22-3.54 1.9-4.14 1.86a25 25 0 0 1 -4.9-2.68c-1.32-.91-1.87-1.27-2-1.91s-.6-4.18-.28-4.45z"/><path d="m46.82 16.32a9.54 9.54 0 0 1 1.5-.73 3.5 3.5 0 0 0 1.68.55c.63-.09 4.5-.82 5.5-1.64a14.48 14.48 0 0 1 -2.32 2.27 5 5 0 0 1 -2.27 1.09 14 14 0 0 0 -4.09-1.54z"/></g><path d="m42.59 10.41a60.66 60.66 0 0 1 4.82-6.36c.54-.32 2.18.32 2.13.64a72.69 72.69 0 0 1 -4.91 6.86c-.31.13-1.99-.09-2.04-1.14z" fill="#dfebc5"/><path d="m23.1 17.32c.49 0 .81 1 .63 1.32s-2.18.68-3.81 2.95-1.69 3-2.28 3-1.5.23-1.41-.36a9.27 9.27 0 0 1 2.37-4.14 10.06 10.06 0 0 1 4.5-2.77z" fill="#604f58"/></svg>