<svg height="64" viewBox="0 0 64 64" width="64" xmlns="http://www.w3.org/2000/svg"><path d="m15 56.79a16.63 16.63 0 0 1 -5.43-.9c-9.8-3.37-9.75-12.17-9.5-14.79a17.89 17.89 0 0 1 3.25-8.23c-.17-.13-.33-.26-.46-.38a3.11 3.11 0 0 1 -1-3.41 2.5 2.5 0 0 1 2.35-1.67h1s.81.05 1.21.05c-.09-2.24.23-2.77.69-3.23a7.37 7.37 0 0 1 3.49-1.4h.19a2.53 2.53 0 0 1 2.45 1.92 2.16 2.16 0 0 1 1.8-1h.33a2.3 2.3 0 0 1 2.18 1.35 12.07 12.07 0 0 1 2.15-6.45 15.84 15.84 0 0 1 3.57-3.46 3.06 3.06 0 0 1 -.95-2.22 2.36 2.36 0 0 1 1.16-1.94 7.61 7.61 0 0 1 3.66-.72c-.05-1.61.26-2.18.87-2.65a3.93 3.93 0 0 1 2.59-.55c2.56 0 3.6.35 4.12 1.39a3.27 3.27 0 0 1 .14.34l.34-.25a3.89 3.89 0 0 1 2.32-1.06h.28a2.07 2.07 0 0 1 1.41.81 3.86 3.86 0 0 1 .41 3 8 8 0 0 1 -.54 1.8 13.83 13.83 0 0 1 3.68 1.86 12.64 12.64 0 0 1 3.8 4.78 23 23 0 0 1 5.33.5 7.29 7.29 0 0 1 3.11 1.72h.38c1.89 0 2.44.08 3 .42a2.5 2.5 0 0 1 .81.82 2.44 2.44 0 0 1 1.06.8l.1.12a3 3 0 0 1 .95 2.34 8.52 8.52 0 0 1 2.7 6.2c.06 6.14-2.5 10.61-7.6 13.29a18 18 0 0 1 -8.4 2.42 14.37 14.37 0 0 1 -6.86-1.87 17.27 17.27 0 0 1 -5.25-4.15 7.11 7.11 0 0 1 -2.08.28 10.07 10.07 0 0 1 -1.14-.06 14.84 14.84 0 0 1 -2.93 7.07 19.39 19.39 0 0 1 -14.74 7.11z" fill="#fff"/><path d="m6.09 32.58s-1.28-1-2-1.57-.52-1.66.14-1.66 1.88.14 2.78.07 1.52-.18 1.52-.18-.31-3.29 0-3.6a6.08 6.08 0 0 1 2.26-.84.64.64 0 0 1 .66.66c0 .25.38 2.85.38 2.85a6.56 6.56 0 0 0 1.87-1.08c1.22-.9 1-1.49 1.43-1.46s.69 0 .73.32a4.47 4.47 0 0 1 -.14 1.21.5.5 0 0 0 .1.42h3.78s-.69-4.62 1.7-7.81a12.86 12.86 0 0 1 5.28-4.23s-1.32-1.32-1.7-1.6-.87-1-.35-1.28a6.76 6.76 0 0 1 2.88-.45 8.8 8.8 0 0 1 1.91.17s-.38-3-.07-3.23 3.61-.17 3.78.18a21.08 21.08 0 0 1 .18 3.19s1.79-1.39 2.79-2.08 1.38-1 1.66-1 .24.9.14 1.63a8.38 8.38 0 0 1 -1 2.47c-.28.41-.69.9-.69.9a14.13 14.13 0 0 1 5.55 2c2.36 1.63 3.64 5.14 3.64 5.14a28 28 0 0 1 6.07.41 4.79 4.79 0 0 1 2.78 1.81 21 21 0 0 1 3.19.1c.28.17.21.42.45.69s.7.18.9.45.77.8.66 1.12a4.37 4.37 0 0 0 -.07 1 6.59 6.59 0 0 1 2.78 5.37c0 3.68-.87 8.57-6.56 11.56s-9.37 2.77-13.5.59a13.64 13.64 0 0 1 -5.59-5s-.59.87-2.63.87a5.51 5.51 0 0 1 -3-.66 12.56 12.56 0 0 1 -2.64 8.43c-3.15 4.13-10.65 8.09-18 5.55s-8.52-8.7-8.14-12.73a15.83 15.83 0 0 1 4.09-8.7z" fill="#604f58"/><path d="m26.15 34.8c-2.92-4.17-9.08-5.38-11.56-4.58-12.7 4.09-11.59 16.69-4.75 20.54a10.88 10.88 0 0 0 8.83.82c-.66-.94-2.17-3.14-2.07-3.39s.84-.76 1.22-.49a16.38 16.38 0 0 1 2.06 3.44c.4-.17.79-.36 1.16-.55a19.82 19.82 0 0 1 -1.76-3.27 1 1 0 0 1 1-.52 15.29 15.29 0 0 1 2 3.07c.36-.23.71-.47 1-.71-.54-.8-1.79-2.56-1.71-2.95a1 1 0 0 1 .83-.76 12 12 0 0 1 1.94 2.81 10.93 10.93 0 0 0 1.4-1.49c2.11-2.77 3.32-7.77.41-11.97z" fill="#ef7d7b"/><path d="m57.24 33.76a2.34 2.34 0 0 1 -2.24-1.08s.1 3 .1 3.12a1.31 1.31 0 0 1 -1.84.38c-1.07-.59-1.42-3.33-1.42-3.33a6.57 6.57 0 0 1 -2.64-.27 3.27 3.27 0 0 1 -2.46-2.43c0-.35.48-.14.83-.32s.21-.24.17-.38a3.05 3.05 0 0 1 -1.05-1.45 2.29 2.29 0 0 1 .59-2.12c.28-.17.24.17.83.73a8.44 8.44 0 0 0 1.39 1s.38-.07.42-.27-.28-.39-.59-1.08.79-1.08.79-1.08a1 1 0 0 0 -1-.62c-.84 0-4.9-.35-8.09 2.22s-3.49 8.22-2.5 10.58c.73 1.74 3.72 5 8.3 5.87a10.85 10.85 0 0 0 1.46.16 19.76 19.76 0 0 1 -1.43-2.14c-.35-.73-.35-1.14 0-1.25a2.9 2.9 0 0 1 .83-.07s.69 1.6 1.21 2.47c.25.4.48.73.65 1a9.21 9.21 0 0 0 1.68-.28c-.41-.63-1.3-2-1.56-2.49a2.16 2.16 0 0 1 -.31-1.42c.06-.14.9-.42 1-.14a17.87 17.87 0 0 0 1 2.67 4 4 0 0 0 .93 1 12.37 12.37 0 0 0 1.62-.74 18.87 18.87 0 0 1 -1.18-1.68c-.35-.63-.56-1.49-.39-1.63s.77-.31.87-.14a15.72 15.72 0 0 0 .94 2 8.75 8.75 0 0 1 .57.93 17.62 17.62 0 0 0 2.41-2 9.27 9.27 0 0 0 2.57-5.66 18.7 18.7 0 0 0 -2.46-.06z" fill="#ef7d7b"/><path d="m5.19 30.35s1 0 2 .14a7.24 7.24 0 0 0 1.35.07l-1.86 1.29s-1.42-1.01-1.49-1.5z" fill="#afc68c"/><path d="m9.49 29.07s-.28-2.43 0-2.57.86-.52 1.07-.24a8.67 8.67 0 0 1 .63 2.74 3.66 3.66 0 0 1 -1.7.07z" fill="#dfebc5"/><path d="m13.79 34.31c.18 0 .56.83.49 1.11a25.48 25.48 0 0 0 -2.22 2.81 13.34 13.34 0 0 0 -1.32 3.58c-.21.17-1.46-.21-1.46-.21a6.19 6.19 0 0 1 1.36-4.51c1.73-2.19 2.77-2.81 3.15-2.78z" fill="#604f58"/><path d="m22.19 28.38s-1-7.19 5.69-10.17 10.27-.52 12.25.73a9 9 0 0 1 3 3.43s-4.92 1.39-6.55 6.08a21.24 21.24 0 0 0 -.77 9.37 5 5 0 0 1 -3.36.41c-1.77-.38-1.95-.69-1.95-.69s-.2-4.06-3-6.21a19.1 19.1 0 0 0 -5.31-2.95z" fill="#d16d6c"/><path d="m26.11 13.56c.05-.35 2.57.14 3 .24s.45.07.48.25-.21.41-.21.41a7.47 7.47 0 0 1 -1.7.35c-.18-.1-1.6-.97-1.57-1.25z" fill="#afc68c"/><path d="m30.28 14.12c-.08-.2-.39-3.72 0-3.79s1.74-.17 1.84.18.24 3.47 0 3.61a3.51 3.51 0 0 1 -1.84 0z" fill="#dfebc5"/><path d="m33 13.73s3.15-2.32 3.43-2.22a.35.35 0 0 1 .25.45 12 12 0 0 1 -1.43 2.4 12.15 12.15 0 0 1 -2.18 0c.02-.11-.07-.63-.07-.63z" fill="#afc68c"/><path d="m25.94 27a4.39 4.39 0 0 1 .8-4.1 5.66 5.66 0 0 1 4.65-2.22c.52.14.79.46.59.73s-1.84.35-3.4 2.12a18.18 18.18 0 0 0 -2.09 3.26z" fill="#604f58"/><path d="m47.76 27.54a2.83 2.83 0 0 1 1.5 1c0 .2-1.08.24-1.39 0s-.38-.93-.11-1z" fill="#afc68c"/><path d="m48.49 30.67a2.56 2.56 0 0 0 1.08-.28c.31-.24.1-.62.35-.66s.76.21 1 0 0-2.22.28-2.26 1.46 1 1.35 1.22-1.59 2.71-2 2.78-2.2-.21-2.06-.8z" fill="#afc68c"/><path d="m54.63 24.91c.46-.13 3.16.17 3.2.93s-1.46.63-2.57.42-1.74-1.04-.63-1.35z" fill="#dfebc5"/><path d="m54.36 27.16a14.72 14.72 0 0 0 2.29.35c.34 0 .1.31-.42.8a33.14 33.14 0 0 1 -3.89 3.12c-.31 0-.72-.24-.59-.31a8.4 8.4 0 0 0 2.25-2.67c.25-.94.36-1.29.36-1.29z" fill="#dfebc5"/><g fill="#afc68c"><path d="m53.8 35.21a12 12 0 0 1 -.94-1.91 6.18 6.18 0 0 1 -.13-1.21 19.11 19.11 0 0 1 2.36-1.67 11.41 11.41 0 0 0 2.81 1.77c1.24.35 1.35.49 1.28.59a2.63 2.63 0 0 1 -1.39.18 24.92 24.92 0 0 1 -2.43-1.18 1 1 0 0 0 -.76-.25c-.21.07-.59.39-.56.73s-.55 2.33-.24 2.95z"/><path d="m55.71 29.83s.62-.65.87-.52 1.59 1.36 1.35 1.5a2.82 2.82 0 0 1 -1.53-.21c-.31-.18-.66-.49-.69-.77z"/></g></svg>