<svg height="64" viewBox="0 0 64 64" width="64" xmlns="http://www.w3.org/2000/svg"><path d="m34 64c-1 0-2 0-3-.09-12.69-.73-18-4-19.09-5.63s-.41-7.63-.39-7.68a3.17 3.17 0 0 1 1.48-1.85l-2-15.69a14.08 14.08 0 0 1 -8.55-7.49c-3.11-6.9-2.05-13.33 2.92-17.65a18.17 18.17 0 0 1 12.06-4.47c.56 0 1.1 0 1.63.07a9 9 0 0 1 4.19 1.66c2-2 5.92-5.18 11-5.18a12 12 0 0 1 2.75.33 12.47 12.47 0 0 1 9.16 7.87 13.59 13.59 0 0 1 4.42-.79 10.61 10.61 0 0 1 8.11 3.75c5.43 6.14 6 11.4 2 17.59a21.53 21.53 0 0 1 -7.82 7.1l-1.16 13.15a3.16 3.16 0 0 1 1.11 2.46c0 .07 0 6.32-1.12 7.73-.77.99-6.36 4.81-17.7 4.81z" fill="#fff"/><path d="m15.18 50.2-2.42-18.68a12.31 12.31 0 0 1 -8.53-6.75c-2.6-5.77-2.15-11.42 2.42-15.39a16.39 16.39 0 0 1 12.23-3.92 8.29 8.29 0 0 1 4.57 2.42s5.61-7.45 13.15-5.67a10.83 10.83 0 0 1 8.31 8.68s7.09-4.34 12.32 1.55 5.07 10.27 1.83 15.25a19.13 19.13 0 0 1 -8 6.89l-1.41 15.71s1.19-.14 1.24 1.28-.28 5.93-.69 6.43-6.44 4.71-19.13 4-17.07-4-17.57-4.77-.23-5.8-.14-6.17a1.83 1.83 0 0 1 1.82-.86z" fill="#604f58"/><path d="m56.82 16c-4.66-6.8-11.18-2.14-11.64-1.78a2.58 2.58 0 0 1 -2.18-.14c-.41-.27-.69-7.3-6.49-9.31s-11.74 4.93-11.74 4.93a14.45 14.45 0 0 1 1.23 1.87c.05.28-1.5 1.24-2 1.14s-2.56-2.71-4.16-3.88-8.49-1.64-12.51 3.29-1.73 10.68 1.14 13.88 6.35 3.42 6.76 3.79-.05 1.64-.05 1.64l2.52 19.27a72.45 72.45 0 0 0 14.6 1.37 74.8 74.8 0 0 0 8.16-.5c-.66-.77-2.14-2.68-2.17-2.79s.36-.91.77-.77a17.2 17.2 0 0 1 2.55 3.42l1.51-.22a38.5 38.5 0 0 1 -2.83-3.57s.32-.64.71-.64 2.77 3.15 3.32 4l.93-.17c-1-1.3-3.48-4.7-3.51-4.89 0 0 .45-.82.82-.68a48.49 48.49 0 0 1 3.87 5.33l.87-.22c.06 0 .12-.2.18-.51-1.26-1.61-4.51-5.75-4.69-6.16 0 0 .31-.73.63-.59s3 3.81 4.24 5.61c.08-.68.17-1.53.26-2.49-1.04-1.23-4.23-4.83-4.38-5.23-.06-.13.18-1.1.63-1a37.27 37.27 0 0 1 3.87 5c.08-.94.16-1.94.23-3-1.08-1.1-3.15-3.21-3.32-3.55 0 0 .18-.82.59-.73a18.86 18.86 0 0 1 2.81 3.18c.07-.88.13-1.75.19-2.59-.89-.8-2.44-2.19-2.54-2.32s.32-1.1.69-1a9 9 0 0 1 1.94 2c.18-2.59.32-4.54.38-4.62a19.23 19.23 0 0 0 4.11-2.55c2.51-1.95 8.36-7.02 3.7-13.82z" fill="#fff"/><g fill="#604f58"><path d="m9.57 17.69a6.38 6.38 0 0 1 2.6-4c2.42-1.91 4.11-1.78 4.38-1.55a1 1 0 0 1 .05 1.1 4.48 4.48 0 0 0 -3.88 1.5 8.48 8.48 0 0 0 -2.1 3.79s-1.05-.53-1.05-.84z"/><path d="m30.75 10.25a6 6 0 0 1 3.65-2c2.15-.18 3.15 1.14 3.15 1.37s0 .78-.27.82-1.6-.82-2.92-.77-2.36 1.54-2.74 1.63-1.1-.82-.87-1.05z"/><path d="m50.25 16a1.75 1.75 0 0 1 1.73.78c.73 1 1 1.32.69 1.5s-.28.32-.55.14-.41-.73-1.1-1a6.16 6.16 0 0 1 -.91-.36s-.23-.83.14-1.06z"/></g><path d="m45.49 52.9-1.41.16c.07.95.16 3.82.09 5.08.59-.13 1.12-.25 1.61-.38-.1-1.07-.32-3.76-.29-4.86zm-7.15 6.17c.75-.08 1.49-.17 2.18-.27v-4.49s1-.14 1.1 0 .11 2.92.07 4.26l1.3-.23v-5.2c-1.41.14-3 .29-4.7.41.12 1.09.07 4.29.05 5.52zm10.58-6.5a14.11 14.11 0 0 0 -2.33.21c.07 1.08.19 3.54.13 4.74a9.54 9.54 0 0 0 1.93-.66 23.17 23.17 0 0 0 .27-4.29zm-11.69 1.1c-1.63.1-3.35.19-5.11.22a82.72 82.72 0 0 1 -16.75-1.5c-.41 0 0 3.38.09 3.88 0 .19.8.65 2.26 1.15 0-.91-.16-3.57.07-3.57s.73-.05.86.27a14.22 14.22 0 0 1 .16 3.64l1.24.33c0-.87-.16-3.6.07-3.6s.92-.07 1 .27a23.26 23.26 0 0 1 .1 3.6l1.72.31c0-.49-.2-3.82 0-3.82s.93-.06 1 .28a24 24 0 0 1 .09 3.71c1 .15 2.15.27 3.37.36 0-.88-.14-4.26.1-4.26s.92-.06 1 .28a22.81 22.81 0 0 1 0 4.07l1.65.08c0-1.07-.12-4.11.1-4.11s.93-.06 1 .28a25 25 0 0 1 0 3.85h2.08c0-1-.13-4.17.1-4.17s.93-.07 1 .27a25.11 25.11 0 0 1 0 3.86c.92 0 1.82-.1 2.69-.18.1-1.24.11-4.61.11-5.5z" fill="#ddeff2"/></svg>