<svg height="64" viewBox="0 0 64 64" width="64" xmlns="http://www.w3.org/2000/svg"><path d="m6.63 58.66a3.94 3.94 0 0 1 -3.3-1.48 3.09 3.09 0 0 1 -.33-2.89c.68-2 2.72-4.16 6.4-6.74l-1.49.06c-.74 0-1.64 0-1.95.08a7.88 7.88 0 0 1 -2.24.31 3.53 3.53 0 0 1 -2.34-.75 3.78 3.78 0 0 1 -1.38-3 4.06 4.06 0 0 1 1.67-3.05 5.94 5.94 0 0 1 3.41-.82 4.65 4.65 0 0 1 .55 0h.21a19.15 19.15 0 0 0 4.08.5 8.12 8.12 0 0 0 2.13-.24 45.73 45.73 0 0 0 9.62-4.14 6.88 6.88 0 0 1 -3.3-4.5c-.69-3.4-.81-8.34.13-10a3.81 3.81 0 0 1 3.24-1.9 2.7 2.7 0 0 1 1 .19 15.15 15.15 0 0 1 .19-3.25c.79-4.72 3.9-9.72 5-10.72a3.53 3.53 0 0 1 2.41-1 3.05 3.05 0 0 1 1.66.53 38.72 38.72 0 0 1 6.22 6.15l1.13 1.6a21.5 21.5 0 0 1 6.47-4.14 18.12 18.12 0 0 1 6.39-1.46c2.38 0 3.55.83 4.11 1.53 1.37 1.7.58 6-.1 8.7a4.25 4.25 0 0 1 2.28 2 3.06 3.06 0 0 1 1.55-.48h.22a2.75 2.75 0 0 1 2 1.29 3.6 3.6 0 0 1 .5 2.85 3.73 3.73 0 0 1 -1.26 1.58 3.84 3.84 0 0 1 1.85 1.25 2.84 2.84 0 0 1 .57 2.4 3.8 3.8 0 0 1 -.47 1.23 6.89 6.89 0 0 1 -2.5 8c-3.14 2.2-4.44 2.79-7.56 2.79h-1a4.25 4.25 0 0 1 2.13 3.67c-.08 1.48-1.35 2.5-5.12 4.81a11.53 11.53 0 0 1 -6 1.55 11.32 11.32 0 0 1 -3.71-.59 11.61 11.61 0 0 1 -5.43-3.88l-.27-.42c-2.4 1.41-6.63 3.91-9.44 5.6a19 19 0 0 0 -4.79 4 5.13 5.13 0 0 1 -1.54 1.36 3.36 3.36 0 0 1 -1.39.3 3.58 3.58 0 0 1 -2.76-1.26 2.81 2.81 0 0 1 -.51-2.41 5.5 5.5 0 0 1 .9-1.89 15.1 15.1 0 0 0 -1.53 1c-1.55 1.14-2.2 1.68-2.47 1.93a3.9 3.9 0 0 1 -2.6 3.6 4.48 4.48 0 0 1 -1.24.15z" fill="#fff"/><path d="m2.86 42.73a5.27 5.27 0 0 1 2.45-.4c.18 0 4.32 1.06 7.26.25a46.29 46.29 0 0 0 10.43-4.58 14.48 14.48 0 0 0 2.78-2s-4.75-.53-5.54-4.35-.56-7.8-.09-8.61a1.77 1.77 0 0 1 1.85-.88c.37.16 1.25.91 2.22 1.44s1.38.57 1.44.44a10.24 10.24 0 0 1 -.85-6.61 23.44 23.44 0 0 1 4.39-9.61c.8-.69 1.31-.62 1.8-.34a37.92 37.92 0 0 1 5.7 5.63c1.56 2.16 2.41 3.54 2.41 3.54a20.05 20.05 0 0 1 7.48-5.42c4.64-1.84 7.49-1.47 8.27-.5s0 5.14-.57 7.39a9.75 9.75 0 0 1 -1.29 3.1s1.79-1.34 2.2-1.28a2.5 2.5 0 0 1 1.55 1.06 2.11 2.11 0 0 1 -.28 1.48c-.06.09-2.85 1.84-3.42 2.31a9.91 9.91 0 0 0 -1.09.91l1 .09s6.51-4.22 7.11-4.16 1 1.13.84 1.63-2.06 1.74-3.22 2.22-3.35 1.28-3.29 1.52a2.09 2.09 0 0 0 1 .91 24.19 24.19 0 0 1 4.35-.78c1.73 0 2.48.88 2.32 1.56s-.22.91-1.13.85-2.85-.31-3.38-.31a5.52 5.52 0 0 0 -.87.06 4.57 4.57 0 0 0 2.34 1c1.69.31 2.45.22 2.6.66a5 5 0 0 1 -1.75 5.79c-2.91 2-3.82 2.44-6.45 2.44a25.17 25.17 0 0 0 -5.07.22c-1 .25-1.22 1.07-.94 1.35a5.27 5.27 0 0 0 2.88 1.59c1.85.44 2.32 1.76 2.28 2.35s-1.84 1.82-4.19 3.26a10.26 10.26 0 0 1 -8 .78 9.82 9.82 0 0 1 -4.54-3.22 4.3 4.3 0 0 1 -.94-1.94s-7.17 4.22-11.3 6.7-5.45 4.94-6.17 5.29-2.19-.13-1.94-1.16 1.2-2.4 3.93-4.4 7.7-5.08 7.7-5.08a1.51 1.51 0 0 1 -.25-.62 2.45 2.45 0 0 0 0-.41s-11.88 5.17-15.09 7.52-3.2 2.59-3.23 3.06-.22 1.88-1.22 2.16-3.1-.06-2.53-1.72 2.59-3.69 6.38-6.26 11.43-6.29 13-7.11a24 24 0 0 0 2.81-1.54c.07-.13.22-.69.1-.69s-11.93 5.54-13.81 6-7.23.37-7.77.53-2.16.6-2.88 0a1.89 1.89 0 0 1 .22-3.11z" fill="#604f58"/><path d="m3.43 43.55a5.13 5.13 0 0 1 2.47-.22 13 13 0 0 0 5.57.34 48.39 48.39 0 0 0 10.74-4.13c2.7-1.54 4.73-3.2 4.92-3.23s2.38-.28 2.25.07a7.2 7.2 0 0 1 -1.47 1.44 2.6 2.6 0 0 1 -1.12.69c-.82.31-8.55 4.22-11 5.1a27.58 27.58 0 0 1 -4.41 1.19 57.32 57.32 0 0 0 -6.48.06c-.88.25-.91.38-1.35.28s-1.34-1-.12-1.59z" fill="#84767e"/><path d="m5.9 55.13c0-.34.82-3.07 8.08-7.14s12.81-6.79 12.84-6.64a5.68 5.68 0 0 1 -.16 1.44c-.09.13-8.27 3.73-12.71 6.36s-6.48 4.17-6.61 5.1.19 1-.59 1.44-.82-.25-.85-.56z" fill="#84767e"/><path d="m16.48 53.82a92.34 92.34 0 0 1 8.36-6.36c3.48-2.25 3.32-2.25 3.79-2.35a10.48 10.48 0 0 1 1.54-.06s-9.18 5.32-11 7.14-1.85 2.25-2.13 2.31-.96-.28-.56-.68z" fill="#84767e"/><path d="m28.76 42.61a6.35 6.35 0 0 1 1.91-4.76c1.75-1.41 2.53-1.6 2.57-2.23s-.41-2.25-.79-2.12-4.54 1.06-7.7-.54-3-7.7-2.66-7.95 2 1.32 3.16 1.53 4.54.1 5.51.16 1.44-.09 2 .35 1.34 2.22 1.78 2a3.43 3.43 0 0 0 1-.91s1.72-3.16 3-3.75 2.63-.47 2.81-.19-.12 2.44.41 3 1.07.22 1.25.76 0 1.34.38 1.91 1.69.75 1.53 1.44 0 .62-.62 1.12-1.22 1.29-1.13 1.66a1.19 1.19 0 0 0 1.32.69 10.13 10.13 0 0 0 2.51-2.78 2.57 2.57 0 0 0 -.25-2.44c-.41-.41-1.28-1.19-1.28-1.19s-.38-1.66-1-2-1.25-.37-1.25-.53 0-2.6-1.31-3.25-3.45-.07-4.48.5-2.1 3.25-2.48 3.13-1.37-1.38-2.66-1.44-3.57 0-4.29-.41-1.81-4.37-1.18-7.25 3.07-7.12 3.6-7.12 5.51 6 6.32 6.86 1 1.28.85 1.79a7.42 7.42 0 0 0 -.35 2.09c.13.22.57.76.88.69s1.38-2.44 2.13-3.1a17.76 17.76 0 0 1 6.86-5.13c4.44-1.85 6-1.69 6.26-1s-.25 5.79-2.44 9.17-4.2 5.7-4.2 5.89.66.84.66.84 3.38-1.25 4.32-.5 4.41 3.85 5.88 4.32 2 .41 2 1-3.92 3.85-5 4.26-4.92-.19-6.05.19-2.13 1-2.5.84-1.28-2.06-2.63-2.47-2.79-.31-2.91.06-.1 1.35 0 1.35a4.17 4.17 0 0 1 3.66 2c1.29 2.13 2.19 4 3.51 4.51s2.06.54 2.06.72a7.26 7.26 0 0 1 -5 2.29c-2.66 0-4.64-.31-6.23-2s-2-3.5-1.44-5 1.84-2.81 1.84-3.19-.31-1.48-.9-1.36-2.44 2.38-3 4.14.22 2.09-.5 2.6-5.24 1.47-5.74.75z" fill="#f6c687"/><path d="m31.08 17.31c.1-.24.62-.38.68-.22s-.15 2.28.38 3.26 1.66 1.94 1.63 2.12-.5.38-.66.32a5.28 5.28 0 0 1 -2.11-2.19 5.19 5.19 0 0 1 .08-3.29z" fill="#604f58"/><path d="m33.11 17.87c.09-.18.66-.53.72-.19s-.12 2.1.5 2.92 1 1.12.82 1.25a1.81 1.81 0 0 1 -.57.19 4.23 4.23 0 0 1 -1.44-1.91 4.42 4.42 0 0 1 -.03-2.26z" fill="#604f58"/><path d="m44 20.78a26.88 26.88 0 0 0 2.38-1.44c1-.72 1.59-1.28 1.56-.84s-1.78 2.16-2.28 2.6a1.88 1.88 0 0 1 -1.22.56c-.18-.03-.59-.75-.44-.88z" fill="#604f58"/><path d="m46 21.6a8.45 8.45 0 0 0 1.75-1.13c.81-.66 1.19-1.1 1.22-.91a7 7 0 0 1 -1.74 2.44 1.48 1.48 0 0 1 -1.13.28c-.1-.02-.34-.62-.1-.68z" fill="#604f58"/><path d="m50.21 25c.16-.13 2.25-2.82 2.25-2.82a26.41 26.41 0 0 1 2.66-1.31c.19 0 .94.81.69 1s-4.57 3.52-4.81 3.52-1-.19-.79-.39z" fill="#84767e"/><path d="m53.62 26c.12-.12 6-3.41 6.2-3.38s.19.5.19.5-5.92 3.23-6.08 3.23-.31-.35-.31-.35z" fill="#84767e"/><path d="m56 28.49a8 8 0 0 1 3.38-.79c1.41.16 1.85.69 1.63.94a.82.82 0 0 1 -.85.22 2.86 2.86 0 0 0 -1.84-.31c-1.07.22-1.69.37-1.91.37s-.41-.43-.41-.43z" fill="#84767e"/><g fill="#604f58"><path d="m25.78 29.21c.39-.18.19.43 2.38.4s3.32-.06 3.07.13a4 4 0 0 1 -3.13.81c-1.91-.22-1.94-.22-2.16-.44s-.56-.72-.16-.9z"/><path d="m32.33 39.48s2.25-1.66 2.28-1.38a7.16 7.16 0 0 1 -1.84 2.16c-.29.06-.66-.5-.44-.78z"/><path d="m39.59 40.38c.06-.18.75-.5.82-.28s-.41 2 .65 2.79 1.82.78 1.69 1-.65.44-1.41.22a3.25 3.25 0 0 1 -1.69-1.78 4.35 4.35 0 0 1 -.06-1.95z"/><path d="m41.6 40.67c-.05-.29.65-.29.78-.1a2.17 2.17 0 0 0 .91 1.69c1 .63 1.25.6 1.09.82s-.22.34-.56.34a3.17 3.17 0 0 1 -1.79-1 3.14 3.14 0 0 1 -.43-1.75z"/><path d="m37.24 28.39a.46.46 0 0 1 .6.63c-.22.47-1.79 1.75-.91 2.19s1.1 0 1.6.66.4 1.63 1.53 1.75 1.72 0 1.69.19 0 .56-.47.69a3.54 3.54 0 0 1 -2-.19c-.6-.28-.88-1.57-1.72-1.75s-1.76-.5-1.79-1.29.85-2.66 1.47-2.88z"/><path d="m50 31.27a3.4 3.4 0 0 1 1.81.22 8.72 8.72 0 0 1 1.63.82c.09.18-.59.31-1.16.31s-1.16-.44-1.63-.44-.62.06-.72-.09-.13-.79.07-.82z"/><path d="m49.55 34.09a7.68 7.68 0 0 0 2.22 0c.94-.31 1.69-1.07 1.75-.81a2.1 2.1 0 0 1 -1.65 1.62c-1.16.25-2.38.38-2.45.07s-.12-.69.13-.88z"/></g></svg>