<svg height="64" viewBox="0 0 64 64" width="64" xmlns="http://www.w3.org/2000/svg"><path d="m10.37 62.89s-5.67-.08-7.27-.89a5.67 5.67 0 0 1 -3.1-4.7c-.08-1.47.52-7.22 1.31-8.68.22-.4.67-1.24 23.44-20.37-.11-2.83-.24-11 1.46-15.7 2-5.55 6.61-10.63 9.22-11.3a5.06 5.06 0 0 1 1.17-.14 6.6 6.6 0 0 1 4.4 2 5.82 5.82 0 0 1 1.2 1.51h.24.31c1.81 0 6.07 3 9.15 5.79 2.8 2.55 7.09 7.13 7.4 8.86a2.32 2.32 0 0 1 0 .9c1.13.42 4.16 3.72 4.57 5.52a5.13 5.13 0 0 1 -1.19 4.57c-.06.06-5.7 5.95-12.69 7.17a60.87 60.87 0 0 1 -10 .77c-.79 0-1.45 0-1.94 0-2.48 2.56-12 12.32-16.17 16.38-4.41 4.27-9.37 8-10.44 8.31a3.59 3.59 0 0 1 -1.07 0z" fill="#fff"/><path d="m62 26.05c-.29-1.27-3-4-3.33-4.12a7.41 7.41 0 0 0 -1.88.32l-.36-.58s1.09-1.51 1-2.13-2.78-4.12-6.8-7.77-7.37-5.35-7.88-5.28a9.91 9.91 0 0 0 -2.13 1.59 10.68 10.68 0 0 1 -.9-1c-.15-.26.68-.87.83-1.2s-.43-.94-.87-1.37-2-1.77-3.72-1.34-5.96 4.77-7.96 10.05-1.3 15.9-1.3 15.9-23.17 19.48-23.7 20.42-1.16 6.22-1.09 7.67a3.74 3.74 0 0 0 2 3.07c1 .5 6.54.76 6.9.65a60.12 60.12 0 0 0 9.65-7.85c4.84-4.69 16.74-16.95 16.74-16.95a62.88 62.88 0 0 0 12.39-.68c6-1.05 11.14-6.08 11.61-6.58a3.18 3.18 0 0 0 .8-2.82zm-51.09 28.37c-.52.43-2 .86-2.65.09a2 2 0 0 1 -.09-2.33 2 2 0 0 1 2.83-.25 1.8 1.8 0 0 1 -.09 2.49zm40.09-27.65c-3.65 1.3-9.87 2.1-12.94 1.66s-4.81-2.27-5-6.47 1.62-10.3 5-13.48a1.46 1.46 0 0 1 1.12 0c.18.14.61.54.61.54s-1.52 1.77-1.52 2.21.33 1.08 1.23 2.09 6.55 5.64 9.11 7.88 4.16 3.36 4.52 3.36 2-1.44 2.1-1.44a4.66 4.66 0 0 1 .86.5 11.78 11.78 0 0 1 -5.09 3.15z" fill="#604f58"/><path d="m58.44 24.28c-.33-.08-.94.94-1.52 1.48a24.61 24.61 0 0 1 -6.76 3.4 38.84 38.84 0 0 1 -12.36 1.51c-2.31-.25-5.5-2.06-6.22-4.69a23 23 0 0 1 1.12-12.8 14.94 14.94 0 0 1 5.46-6.9c.22-.33-1.52-1.38-2.1-.94s-5.45 5.66-6.76 10.41 0 13.3-.18 14.09-24.25 20.68-24.36 20.9-.63 6.69-.4 6.93c.66.69 6.29.87 6.8.73a38.52 38.52 0 0 0 4.28-3.61c-.09-.92-.33-3.91-.09-4.09s.51-.36.65-.15a19.5 19.5 0 0 1 .31 3.45l.91-.83a38.62 38.62 0 0 1 0-3.87c.1-.22.39-.54.65-.36a11.1 11.1 0 0 1 .43 3.24l.74-.7a14 14 0 0 1 -.27-3.55c.25-.33.43-.62.58-.47a17.81 17.81 0 0 1 .55 3.2l.89-.85c-.12-1-.42-3.71-.21-4s.5-.51.65-.36a23.06 23.06 0 0 1 .43 3.48l1.05-1a24.88 24.88 0 0 1 -.36-3.59c.14-.25.54-.5.69-.43a16 16 0 0 1 .49 3.18c4.92-5.09 12.17-13.04 12.47-13.31s5.74 1 12.79-.61 11.21-5.5 11.31-6.11-1.34-2.71-1.66-2.78zm-46.77 30.86c-.84.69-3.26 1.38-4.23.15a3.15 3.15 0 0 1 -.15-3.72 3.23 3.23 0 0 1 4.48-.4 2.86 2.86 0 0 1 -.1 3.97z" fill="#c5dda3"/><path d="m39.46 11.27c-.14-.26 3.25-3.69 3.69-3.69s4.81 3.07 7.66 5.89 5.78 6.18 5.6 6.65a24 24 0 0 1 -3.21 3.33c-.15 0-12.26-9.45-13.74-12.18z" fill="#ddeff2"/><path d="m42.35 10.33c-.09-.23.73-.8.91-.73s11.38 9.33 11.2 9.8-.61 1.05-.9.83-10.88-9.15-11.21-9.9z" fill="#604f58"/></svg>