<svg height="64" viewBox="0 0 64 64" width="64" xmlns="http://www.w3.org/2000/svg"><path d="m33.17 59.27c-.78 0-1.59 0-2.44-.05-12.73-.53-19.73-6.43-22.87-9.89-2.73-3.07-7.29-11.72-7.76-16.95a55.35 55.35 0 0 1 1.84-16.94c1-3.23 3.64-9.18 5-10.14a3.76 3.76 0 0 1 2.36-.57 3.74 3.74 0 0 1 1.85.34l.41.17a23.48 23.48 0 0 1 5.8 3.08 15.81 15.81 0 0 1 1.73 1.85 9.93 9.93 0 0 0 4.37 3.45c.93.36 1.73.61 2.44.84a13 13 0 0 1 6.46 3.83c.82.83 1.47 1.5 2 2.05a11.73 11.73 0 0 0 2.28 2.12 12.3 12.3 0 0 0 1.86.5 14.24 14.24 0 0 1 3.5 1.09 44.75 44.75 0 0 1 7.83 6.72 11.26 11.26 0 0 0 3.64 2.39c.42.2.79.38 1.08.54s.81.37 1.38.6a18.11 18.11 0 0 1 4.76 2.52l.76.63c1.55 1.24 3.14 2.55 2.33 4.49a32.42 32.42 0 0 1 -9.36 10.31l-.16.11c-4.86 3.4-9.88 6.91-21.09 6.91z" fill="#fff"/><path d="m8.06 6.88a3.75 3.75 0 0 1 2.19-.09c.3.17 4.13 1.55 5.85 3s2.84 4.17 6.67 5.63 5.23 1.18 8.23 4.23 3.7 4 4.73 4.52 4 .86 5.38 1.59a43.51 43.51 0 0 1 7.25 6.24c1.55 1.8 4.08 2.71 5.24 3.35s4.09 1.46 5.85 2.93 2.84 2.19 2.55 2.92a30.59 30.59 0 0 1 -8.69 9.46c-5.16 3.61-10.06 7.14-22.49 6.62s-19.06-6.49-21.52-9.28-6.83-11-7.3-15.79a53.79 53.79 0 0 1 1.8-16.21c1.12-3.75 3.66-8.69 4.26-9.12z" fill="#604f58"/><path d="m57.69 38.66c-.39 0-.39.34-.9 1a36 36 0 0 1 -5.85 4.65 29.86 29.86 0 0 1 -12.35 4.59c-4 .47-9.2.56-13.5-.82s-8.9-4.08-13.25-10.08-3.4-15.21-2.45-19.3 3.87-8.56 3.91-8.9-3.22-1.59-3.65-1.63-3.01 5.16-3.65 7.83-2.46 10.49-1.73 16 6 13.9 8.56 16.13a28.61 28.61 0 0 0 18.11 6.76c1.63 0 3.06 0 4.33-.11a13 13 0 0 1 .1-3c.21-.26.56-.34.64-.08a25.34 25.34 0 0 1 .22 3c.55 0 1.09-.08 1.6-.14-.08-1-.24-3.29 0-3.52s.56-.35.69-.13a21 21 0 0 1 .43 3.5c.51-.08 1-.18 1.49-.28a26.29 26.29 0 0 1 .06-3.74c.17-.34.69-.56.77-.43s.37 2.79.46 3.85c.69-.2 1.37-.44 2.06-.71a24.15 24.15 0 0 1 0-3.61c.17-.22.56-.43.78-.26a13.86 13.86 0 0 1 .55 3.3c1.17-.53 2.43-1.18 3.88-2a31.44 31.44 0 0 0 10.79-10.1c.14-.26-1.71-1.77-2.1-1.77z" fill="#f9f2ed"/><path d="m10.21 10.45a.75.75 0 0 1 .94.47c.18.51-.9 2-1.63 3.74s-.9 2.8-1.2 2.93-1 0-1.08-.35.39-1.76 1.33-3.83a11.31 11.31 0 0 1 1.64-2.96z" fill="#604f58"/><path d="m14 11c.13-.3.6-.73.78-.73a21.27 21.27 0 0 1 2.53 2.62 11.56 11.56 0 0 0 5 3.83c2.45.82 4.25.6 6.36 2.45s5 5.12 6.58 6.07 3.62.13 6.28 2.11 5.89 5.85 7.66 7.22 7 3.1 7.05 3.49-4.39 5.5-10.41 7.74-13.3 3.4-19.15 1.55-10.32-4.82-13.55-9.64a23.44 23.44 0 0 1 -3.65-14c.21-3.53 2-7.83 2.53-9.21a24.65 24.65 0 0 1 1.99-3.5z" fill="#ef7d7b"/><path d="m18 18c.47-.28 1.55-.39 1.68 0s.17 3.82-.91 5.37a3.15 3.15 0 0 1 -4.56.82c-1.34-1.14-.48-3.72 3.79-6.19z" fill="#604f58"/><path d="m18.77 18.92c.44 0-.05 3.31-1.12 4.17s-2.37.86-2.8.26.39-1.89 1.34-2.93a4.53 4.53 0 0 1 2.58-1.5z" fill="#8a6e6e"/><path d="m29.22 24.25c.39-.1 1.55-.17 1.55.95s-2.89 6.06-4 6.58a2.06 2.06 0 0 1 -2.45-.65 2.76 2.76 0 0 1 .26-3.57 21 21 0 0 1 4.64-3.31z" fill="#604f58"/><path d="m29.3 25.37c.49 0 0 1.51-1.07 3.05s-1.89 2.28-2.41 2.24-1.25-.9-.47-2.06a12.43 12.43 0 0 1 3.95-3.23z" fill="#8a6e6e"/><path d="m19.28 30.88c.95-.48 1.77-.18 1.94.21a4.86 4.86 0 0 1 0 2.8c-.35 1.59-1.85 4-3.1 4.17a2.23 2.23 0 0 1 -2.32-1.59 2.63 2.63 0 0 1 .51-2.84 12.84 12.84 0 0 1 2.97-2.75z" fill="#604f58"/><path d="m19.93 31.86c.41-.16.47.26.51 1a8.76 8.76 0 0 1 -1.8 3.79c-.56.38-.91.64-1.77-.05s.05-2.1.61-2.75a11.58 11.58 0 0 1 2.45-1.99z" fill="#8a6e6e"/><path d="m28.32 35.69c.63-.19 1.46-.17 1.63.43a9.29 9.29 0 0 1 -1 4.09c-.6 1.07-1.55 2.71-2.54 2.88a2.16 2.16 0 0 1 -2.14-1.09 2.6 2.6 0 0 1 .3-3 26.92 26.92 0 0 1 3.75-3.31z" fill="#604f58"/><path d="m28.53 36.81c.35-.17.47 0 .47.52s-1.85 4.77-2.58 4.9-1.93-.65-1.33-1.76a18 18 0 0 1 3.44-3.66z" fill="#8a6e6e"/><path d="m36.49 39.26c.32-.24.94-.3 1.07.05a11.72 11.72 0 0 1 -1.29 4.81c-.77 1-1.46 1.38-2.45 1a1.66 1.66 0 0 1 -.56-2.54 22.72 22.72 0 0 1 3.23-3.32z" fill="#604f58"/><path d="m36.27 40.6c.17-.29.6.12.48.51a11.63 11.63 0 0 1 -1.94 2.89c-.34.09-.9 0-.56-.68s1.89-2.51 2.02-2.72z" fill="#8a6e6e"/><path d="m35.37 34.79c.25-.42 3.14-3.83 3.91-4a1.21 1.21 0 0 1 1.46.77c0 .34-2.19 5.33-2.75 5.68a3 3 0 0 1 -2.28-.09c-.47-.3-.64-1.84-.34-2.36z" fill="#604f58"/><path d="m36.4 34.75c.23-.31 2.62-3 3.05-2.93s.65 0 .48.35-1.93 3.83-2.37 3.95a.91.91 0 0 1 -.94-.08 1 1 0 0 1 -.22-1.29z" fill="#8a6e6e"/><path d="m43.45 39c.22-.51 3.06-3.57 3.66-3.61s1.25.3 1.12.82-2.88 5.2-3.44 5.2a1.61 1.61 0 0 1 -1.42-.9 2.5 2.5 0 0 1 .08-1.51z" fill="#604f58"/><path d="m44.27 39.43a24.31 24.31 0 0 1 2.58-2.75.4.4 0 0 1 .09.56c-.13.17-1.68 2.71-2.07 2.75s-.6-.56-.6-.56z" fill="#8a6e6e"/></svg>