<svg height="64" viewBox="0 0 64 64" width="64" xmlns="http://www.w3.org/2000/svg"><path d="m32.14 64h-.36c-3.33-.2-5.78-3.33-5.59-7.11.11-2.05.14-21.07.14-31.42a25.69 25.69 0 0 1 -4.67-10c-1.08-6.18.43-10.36 4.87-13.54a10 10 0 0 1 5.86-1.93 9.67 9.67 0 0 1 9.3 6.8 21 21 0 0 1 -1.1 15.49 27.91 27.91 0 0 1 -3.39 5c0 .87.08 2.58.14 4.75.24 8.33.69 23.83.73 25.69a6.22 6.22 0 0 1 -1.76 4.5 5.83 5.83 0 0 1 -4.17 1.77z" fill="#fff"/><path d="m39.85 7.4a7.89 7.89 0 0 0 -12.19-3.95c-4.09 2.93-5 6.56-4.09 11.63s4.7 9.72 4.7 9.72 0 29.49-.14 32.18 1.49 4.93 3.76 5.07a4.07 4.07 0 0 0 4.24-4.28c-.05-2.55-.89-31-.89-31.11a33.12 33.12 0 0 0 3.63-5.26 19 19 0 0 0 .98-14zm-7.91 49a1.14 1.14 0 0 1 -.18-1.72c.6-.34 1.58-.23 1.62.56s-.79 1.56-1.44 1.14z" fill="#604f58"/><path d="m25.62 10.89c0-2.84 2.23-6.47 7.39-6.28s6.56 6.88 4.93 12.19-5.12 8.37-5.07 9.07.65 27.58.65 27.58a4.57 4.57 0 0 0 -1.39-.19 4.73 4.73 0 0 0 -1.54.56s0-27 0-27.91-.19-1.21-1.91-4.69-3.06-5.91-3.06-10.33z" fill="#f7babe"/><path d="m30.64 56.47c0-.28.79 1 1.81.84s1.44-.7 1.49-.42-.18 2.65-1.58 2.51-1.81-1.16-1.72-2.93z" fill="#f7babe"/><g fill="#604f58"><path d="m28 12.24a5 5 0 0 1 1.21-3.82c1.2-1.42 2.36-1.48 2.59-1.16s.37.7.09.93-1.3 0-1.81 1.3a19.34 19.34 0 0 0 -.65 2.38c-.19.51-1.26.74-1.43.37z"/><path d="m31.71 19.54c-.17-.28.37-.88.7-.74s2.55 2.09 2.37 2.42-.19.79-.7.46a18.68 18.68 0 0 1 -2.37-2.14z"/><path d="m33.06 17.12c-.13-.26.23-1.11.74-.79s2.28 2.05 2.19 2.33-.19.65-.56.51a17.59 17.59 0 0 1 -2.37-2.05z"/><path d="m34.82 15.45c-.09-.14.33-.65.7-.56a2.27 2.27 0 0 1 1.07 1.3c0 .33 0 .61-.23.65s-1.44-1.25-1.54-1.39z"/></g></svg>