<svg height="64" viewBox="0 0 64 64" width="64" xmlns="http://www.w3.org/2000/svg"><path d="m31.78 64c-4.15 0-7.12-3.11-7.94-8.33-.43-2.72 1.73-16.79 2.44-21.26a60.58 60.58 0 0 1 -4.56-7.16c-1.89-3.53-2.86-6.16-2.95-8 0-.14-.48-14.33-.09-15.49 1.12-3.4 3.38-3.76 4.32-3.76a3.48 3.48 0 0 1 .55 0c1.48.19 5.29 1.83 10.93 4.3 1.65.73 3.2 1.41 4.35 1.89 5.12 2.13 6.32 4.62 6.58 5.91s-.24 8.55-.33 9c-.2 1.22-3.94 7.64-5.08 9.58s-1.76 2.88-2.2 3.5c.33 4 1.58 19.38 1.45 22.27-.1 2-.35 7.24-7.16 7.47z" fill="#fff"/><path d="m43.49 12.53c-.19-1-1.36-2.82-5.43-4.51s-12.94-5.82-14.78-6.02-2.57 1.79-2.76 2.37.14 13.77.19 14.79.49 3.05 2.72 7.22a58.36 58.36 0 0 0 4.89 7.56s-3 18.71-2.57 21.47 1.94 6.79 6.25 6.65 5.14-2.52 5.29-5.62-1.5-22.78-1.5-22.78a22.73 22.73 0 0 0 2.52-3.88 97.36 97.36 0 0 0 4.84-8.92 75.87 75.87 0 0 0 .34-8.33zm-11.82 42.79c-.73 0-1.26-1.31-.68-2.91.21-.58 1.45-.24 1.6.87s-.2 1.99-.92 2.04z" fill="#604f58"/><path d="m40.34 20.38a66.48 66.48 0 0 0 .63-8.1c0-.68-15.8-7.65-16.67-7.75s-1.3.47-1.3 1.47c0 .87.14 12.94.29 13.62s.05.68 1.21 3 6.35 10 6.35 10.42a55.41 55.41 0 0 1 -.48 5.63c-.49 4.46-2.28 16.18-1.75 18.51s3.93 2.62 4.7 2 1.31-4.41 1-9.84-1.55-16.09-1.4-16.53 7.13-11.66 7.42-12.43zm-7 31.89a4.47 4.47 0 0 1 -.82 4c-.54.34-2.13.49-2.57-.44a4.8 4.8 0 0 1 -.24-3.48c.59-1.18 3.12-1.54 3.65-.08z" fill="#adceea"/><g fill="#604f58"><path d="m26.09 8.7c0-.28 1-.73 1.21-.1s.25 6.25 0 6.64-.88.53-1.07.14a62.19 62.19 0 0 1 -.14-6.68z"/><path d="m29.39 26.14c-.15 0 .48-.63.82-.53s2.33 2.18 2.09 2.47a.84.84 0 0 1 -.73.34c-.15-.05-1.79-2.18-2.18-2.28z"/><path d="m30.84 24.21c-.14-.3.58-.63.87-.54s2.62 2.67 2.52 3.1a.67.67 0 0 1 -.77.59 18.21 18.21 0 0 1 -2.62-3.15z"/><path d="m32.3 21.64c-.19-.3.38-1.07.77-.88s3.59 3.78 3.49 4.12a.69.69 0 0 1 -.77.44 31.71 31.71 0 0 1 -3.49-3.68z"/><path d="m34.67 19.79c-.16-.36.34-.87.73-.77s2.37 2.33 2.28 2.71-.34.63-.59.54a17.28 17.28 0 0 1 -2.42-2.48z"/><path d="m37.58 18a.87.87 0 0 1 1-.24.57.57 0 0 1 -.2 1.07c-.66.17-1.09-.39-.8-.83z"/></g></svg>