<svg height="64" viewBox="0 0 64 64" width="64" xmlns="http://www.w3.org/2000/svg"><path d="m31.86 64a6.57 6.57 0 0 1 -4.57-2.21 8.38 8.38 0 0 1 -2.41-6c.11-2.69.59-17.45.72-21.39-1.81-1.55-6-5.7-7.06-11.39-1.29-7.23-.8-12.75 1.46-16.39 2.64-4.27 7.48-6.62 13.63-6.62 6.79 0 11.07 6.48 12.16 12.51a26.6 26.6 0 0 1 -2.79 16.78 20.38 20.38 0 0 1 -4.8 6.23c.19 3.78.81 16.37.69 20.1-.13 5.44-3.73 8.38-7.03 8.38z" fill="#fff"/><path d="m43.88 12.86c-.88-4.86-4.33-10.92-10.25-10.92s-9.91 2.34-12 5.7-2.35 8.58-1.2 15 7.14 10.86 7.14 10.86-.57 19.23-.75 22.37 2.7 6.19 5 6.19 5-2.21 5.13-6.5-.76-21-.76-21 2.48-1.32 5.09-6.19a24.48 24.48 0 0 0 2.6-15.51zm-12.51 43a1.78 1.78 0 0 1 .17-2.86c.31-.19 1.42 0 1.55 1.37s-.93 2.03-1.72 1.5z" fill="#604f58"/><path d="m35.75 5c-6.19-2-10.81 1.59-12.07 4.14-2.65 5.35-1.59 11.68.13 16s5.93 7.07 6.06 7.69-.58 18.36-.71 22.17 1.64 4.54 2.84 4.63 2.26-1.24 2.61-2.7-.62-23-.57-23.25.31-.35 1.86-2.17 4.68-4.77 5.48-10.12.56-14.5-5.63-16.39zm-3.63 52c-1.59 0-3-1.46-1.9-4.25.4-1 3-1.1 3.66.4s-.17 3.85-1.76 3.85z" fill="#f6c687"/><g fill="#604f58"><path d="m29.65 7.82c.82-.18 1.46.4 1.41.71s-1.85.17-3.27 2.34-1.24 4.6-1.55 4.64a.57.57 0 0 1 -.7-.44 8.45 8.45 0 0 1 1.1-4.82 5.19 5.19 0 0 1 3.01-2.43z"/><path d="m32 27.14c-.2-.24.18-1 .58-.75s3.12 3.27 2.9 3.61-.35.49-.62.35-2.6-2.95-2.86-3.21z"/><path d="m33.45 25.06c0-.19.53-.62.75-.53s3.27 3.45 3 3.71-.44.49-.66.36a38.63 38.63 0 0 1 -3.09-3.54z"/><path d="m35.44 23.64c0-.19.44-.61.71-.57a13.61 13.61 0 0 1 2.29 3.23c0 .26-.35.7-.53.62a29.92 29.92 0 0 1 -2.47-3.28z"/><path d="m37.21 22.32c.13-.27.31-.58.48-.49s1.68 1.55 1.64 2 0 .57-.22.53a26.35 26.35 0 0 1 -1.9-2.04z"/></g></svg>